<svg width="256" height="256" viewBox="0 0 256 256" fill="none" xmlns="http://www.w3.org/2000/svg">
<path d="M154.461 100.267C154.461 122.064 139.159 148.568 120.282 159.467C101.405 170.365 86.1028 161.53 86.1028 139.733C86.1028 117.937 101.405 91.4318 120.282 80.5334C139.159 69.635 154.461 78.4699 154.461 100.267Z" fill="white" stroke="#1019EF" stroke-width="6.4"/>
<mask id="path-2-inside-1_787_1228" fill="white">
<path d="M120.132 132.533L164.934 106.667L164.934 137.067L120.132 162.933L120.132 132.533Z"/>
</mask>
<path d="M120.132 132.533L164.934 106.667L164.934 137.067L120.132 162.933L120.132 132.533Z" fill="white"/>
<path d="M164.934 106.667L170.477 103.467L170.477 97.0668L164.934 100.267L164.934 106.667ZM164.934 137.067L164.934 143.467L170.477 140.267L170.477 133.867L164.934 137.067ZM120.132 138.933L164.934 113.067L164.934 100.267L120.132 126.133L120.132 138.933ZM159.391 109.867L159.391 140.267L170.477 133.867L170.477 103.467L159.391 109.867ZM164.934 130.667L120.132 156.533L120.132 169.333L164.934 143.467L164.934 130.667Z" fill="#1019EF" mask="url(#path-2-inside-1_787_1228)"/>
<path d="M104.665 138.666L150.729 110.933L148.132 125.067L104.665 151.209L104.665 138.666Z" fill="white"/>
<path d="M99.4629 145.816L99.4629 127.06L99.1199 127.258L94.0693 134.494L94.0693 128.59L100.18 119.77L104.514 117.268L104.514 142.9L99.4629 145.816ZM108.086 140.837L108.086 137.525L117.346 122.711C117.408 122.603 117.47 122.495 117.533 122.387C117.616 122.267 117.689 122.153 117.751 122.045C118.624 120.629 119.248 119.501 119.622 118.661C120.017 117.809 120.214 116.987 120.214 116.195C120.214 115.475 120.058 114.917 119.746 114.521C119.435 114.101 119.019 113.873 118.499 113.837C117.98 113.801 117.398 113.969 116.753 114.341C116.005 114.773 115.33 115.379 114.727 116.159C114.145 116.927 113.677 117.809 113.324 118.805C112.991 119.765 112.804 120.773 112.763 121.829L108.149 124.493C108.149 124.397 108.149 124.301 108.149 124.205C108.149 122.429 108.502 120.593 109.209 118.697C109.915 116.801 110.934 115.037 112.264 113.405C113.594 111.773 115.111 110.465 116.816 109.481C118.375 108.581 119.778 108.131 121.025 108.131C122.272 108.107 123.249 108.515 123.955 109.355C124.662 110.171 125.015 111.359 125.015 112.919C125.015 114.359 124.652 115.913 123.924 117.581C123.197 119.249 122.095 121.241 120.619 123.557L115.475 131.675L115.475 132.035L124.516 126.815L124.516 131.351L108.086 140.837ZM136.338 125.174C134.509 126.23 132.908 126.842 131.536 127.01C130.185 127.142 129.125 126.854 128.356 126.146C127.608 125.426 127.234 124.322 127.234 122.834C127.234 121.226 127.639 119.624 128.45 118.028C129.26 116.432 130.3 115.088 131.568 113.996L131.568 113.636C130.57 113.756 129.749 113.522 129.105 112.934C128.481 112.31 128.169 111.338 128.169 110.018C128.169 108.602 128.502 107.162 129.167 105.698C129.853 104.222 130.809 102.842 132.035 101.558C133.282 100.262 134.716 99.1459 136.338 98.2099C137.917 97.2979 139.32 96.7879 140.546 96.6799C141.773 96.5719 142.729 96.8599 143.415 97.5439C144.121 98.1919 144.475 99.2119 144.475 100.604C144.475 101.924 144.153 103.262 143.508 104.618C142.885 105.938 142.064 107.12 141.045 108.164L141.045 108.524C142.334 108.14 143.384 108.278 144.194 108.938C145.005 109.598 145.41 110.732 145.41 112.34C145.41 113.828 145.026 115.37 144.257 116.966C143.508 118.55 142.448 120.062 141.077 121.502C139.705 122.918 138.125 124.142 136.338 125.174ZM136.338 109.298C136.961 108.938 137.522 108.482 138.021 107.93C138.541 107.342 138.946 106.724 139.237 106.076C139.528 105.404 139.674 104.756 139.674 104.132C139.674 103.532 139.528 103.076 139.237 102.764C138.946 102.428 138.541 102.278 138.021 102.314C137.522 102.314 136.961 102.494 136.338 102.854C135.673 103.238 135.08 103.724 134.561 104.312C134.062 104.864 133.667 105.476 133.376 106.148C133.106 106.784 132.971 107.402 132.971 108.002C132.971 108.626 133.106 109.112 133.376 109.46C133.667 109.772 134.072 109.922 134.592 109.91C135.111 109.874 135.693 109.67 136.338 109.298ZM136.338 120.494C137.024 120.098 137.657 119.588 138.239 118.964C138.821 118.316 139.268 117.626 139.58 116.894C139.892 116.138 140.048 115.412 140.048 114.716C140.048 113.996 139.881 113.456 139.549 113.096C139.237 112.724 138.79 112.55 138.208 112.574C137.647 112.586 137.024 112.79 136.338 113.186C135.61 113.606 134.966 114.134 134.405 114.77C133.843 115.406 133.397 116.096 133.064 116.84C132.752 117.572 132.596 118.298 132.596 119.018C132.596 119.714 132.752 120.26 133.064 120.656C133.397 121.016 133.843 121.19 134.405 121.178C134.966 121.142 135.61 120.914 136.338 120.494Z" fill="black"/>
</svg>
