<svg width="256" height="256" viewBox="0 0 256 256" fill="none" xmlns="http://www.w3.org/2000/svg">
<path d="M154.461 100.267C154.461 122.064 139.159 148.568 120.282 159.467C101.405 170.365 86.1028 161.53 86.1028 139.733C86.1028 117.937 101.405 91.4318 120.282 80.5334C139.159 69.635 154.461 78.4699 154.461 100.267Z" fill="white" stroke="#1019EF" stroke-width="6.4"/>
<mask id="path-2-inside-1_787_799" fill="white">
<path d="M120.132 132.533L164.934 106.667L164.934 137.067L120.132 162.933L120.132 132.533Z"/>
</mask>
<path d="M120.132 132.533L164.934 106.667L164.934 137.067L120.132 162.933L120.132 132.533Z" fill="white"/>
<path d="M164.934 106.667L170.477 103.467L170.477 97.0668L164.934 100.267L164.934 106.667ZM164.934 137.067L164.934 143.467L170.477 140.267L170.477 133.867L164.934 137.067ZM120.132 138.933L164.934 113.067L164.934 100.267L120.132 126.133L120.132 138.933ZM159.392 109.867L159.392 140.267L170.477 133.867L170.477 103.467L159.392 109.867ZM164.934 130.667L120.132 156.533L120.132 169.333L164.934 143.467L164.934 130.667Z" fill="#1019EF" mask="url(#path-2-inside-1_787_799)"/>
<path d="M104.665 138.666L150.729 110.933L148.132 125.067L104.665 151.209L104.665 138.666Z" fill="white"/>
<path d="M112.36 144.812C109.65 146.377 107.279 147.283 105.247 147.532C103.245 147.728 101.675 147.301 100.536 146.252C99.427 145.186 98.8727 143.55 98.8727 141.346C98.8727 138.963 99.4732 136.59 100.674 134.226C101.875 131.861 103.415 129.87 105.293 128.252L105.293 127.719C103.815 127.897 102.599 127.55 101.644 126.679C100.72 125.755 100.258 124.315 100.258 122.359C100.258 120.261 100.751 118.128 101.736 115.959C102.753 113.772 104.169 111.728 105.986 109.826C107.833 107.906 109.958 106.252 112.36 104.866C114.7 103.515 116.778 102.759 118.595 102.599C120.412 102.439 121.828 102.866 122.844 103.879C123.891 104.839 124.415 106.35 124.415 108.412C124.415 110.368 123.937 112.35 122.983 114.359C122.059 116.315 120.843 118.066 119.334 119.612L119.334 120.146C121.243 119.577 122.798 119.781 123.999 120.759C125.2 121.737 125.8 123.417 125.8 125.799C125.8 128.003 125.231 130.288 124.091 132.652C122.983 134.999 121.412 137.239 119.38 139.372C117.348 141.47 115.008 143.283 112.36 144.812ZM112.36 121.292C113.283 120.759 114.115 120.083 114.854 119.266C115.624 118.395 116.224 117.479 116.655 116.519C117.086 115.523 117.302 114.563 117.302 113.639C117.302 112.75 117.086 112.075 116.655 111.612C116.224 111.115 115.624 110.892 114.854 110.946C114.115 110.946 113.283 111.212 112.36 111.746C111.374 112.315 110.497 113.035 109.727 113.906C108.988 114.723 108.403 115.63 107.972 116.626C107.571 117.568 107.371 118.483 107.371 119.372C107.371 120.297 107.571 121.017 107.972 121.532C108.403 121.995 109.003 122.217 109.773 122.199C110.543 122.146 111.405 121.843 112.36 121.292ZM112.36 137.879C113.376 137.292 114.315 136.537 115.177 135.612C116.039 134.652 116.701 133.63 117.163 132.546C117.625 131.426 117.856 130.35 117.856 129.319C117.856 128.252 117.61 127.452 117.117 126.919C116.655 126.368 115.993 126.11 115.131 126.146C114.3 126.163 113.376 126.466 112.36 127.052C111.282 127.675 110.327 128.457 109.496 129.399C108.665 130.341 108.003 131.363 107.51 132.466C107.048 133.55 106.817 134.626 106.817 135.692C106.817 136.723 107.048 137.532 107.51 138.119C108.003 138.652 108.665 138.91 109.496 138.892C110.327 138.839 111.282 138.501 112.36 137.879ZM136.936 129.663L136.936 101.877L136.428 102.17L128.945 112.89L128.945 104.143L137.998 91.0767L144.418 87.37L144.418 125.343L136.936 129.663Z" fill="black"/>
</svg>
