<svg width="256" height="256" viewBox="0 0 256 256" fill="none" xmlns="http://www.w3.org/2000/svg">
<path d="M154.461 100.267C154.461 122.063 139.159 148.568 120.282 159.467C101.405 170.365 86.1028 161.53 86.1028 139.733C86.1028 117.936 101.405 91.4317 120.282 80.5333C139.159 69.6349 154.461 78.4698 154.461 100.267Z" fill="white" stroke="#1019EF" stroke-width="6.4"/>
<mask id="path-2-inside-1_787_786" fill="white">
<path d="M120.132 132.533L164.934 106.667L164.934 137.067L120.132 162.933L120.132 132.533Z"/>
</mask>
<path d="M120.132 132.533L164.934 106.667L164.934 137.067L120.132 162.933L120.132 132.533Z" fill="white"/>
<path d="M164.934 106.667L170.477 103.467L170.477 97.0665L164.934 100.267L164.934 106.667ZM164.934 137.067L164.934 143.467L170.477 140.267L170.477 133.867L164.934 137.067ZM120.132 138.933L164.934 113.067L164.934 100.267L120.132 126.133L120.132 138.933ZM159.391 109.867L159.391 140.267L170.477 133.867L170.477 103.467L159.391 109.867ZM164.934 130.667L120.132 156.533L120.132 169.333L164.934 143.467L164.934 130.667Z" fill="#1019EF" mask="url(#path-2-inside-1_787_786)"/>
<path d="M104.665 138.665L150.729 110.933L148.132 125.067L104.665 151.209L104.665 138.665Z" fill="white"/>
<path d="M106.481 148.26C103.894 149.753 101.585 150.535 99.5525 150.607C97.551 150.624 95.9806 149.967 94.8413 148.633C93.7328 147.282 93.1786 145.344 93.1786 142.82C93.1786 141.291 93.4711 139.504 94.0561 137.46C94.6412 135.415 95.488 133.202 96.5965 130.82L106.481 109.273L114.979 104.367L106.296 123.033C106.819 122.553 107.327 122.135 107.82 121.78C108.344 121.371 108.836 121.033 109.298 120.767C111.392 119.558 113.24 119.024 114.841 119.167C116.473 119.255 117.751 119.958 118.674 121.273C119.598 122.589 120.06 124.438 120.06 126.82C120.06 129.487 119.475 132.189 118.305 134.927C117.166 137.647 115.564 140.171 113.501 142.5C111.469 144.811 109.129 146.731 106.481 148.26ZM106.712 140.98C107.82 140.34 108.805 139.504 109.668 138.473C110.53 137.407 111.192 136.26 111.654 135.033C112.146 133.753 112.393 132.473 112.393 131.193C112.393 129.949 112.146 129.007 111.654 128.367C111.192 127.673 110.53 127.309 109.668 127.273C108.805 127.238 107.82 127.54 106.712 128.18C105.603 128.82 104.587 129.673 103.663 130.74C102.77 131.753 102.077 132.882 101.585 134.127C101.092 135.371 100.846 136.615 100.846 137.86C100.846 139.14 101.092 140.135 101.585 140.847C102.077 141.558 102.77 141.922 103.663 141.94C104.587 141.94 105.603 141.62 106.712 140.98ZM136.938 130.622C134.228 132.187 131.857 133.093 129.825 133.342C127.823 133.538 126.253 133.111 125.114 132.062C124.005 130.996 123.451 129.36 123.451 127.156C123.451 124.773 124.051 122.4 125.252 120.036C126.453 117.671 127.993 115.68 129.871 114.062L129.871 113.529C128.393 113.707 127.177 113.36 126.222 112.489C125.298 111.564 124.836 110.124 124.836 108.169C124.836 106.071 125.329 103.938 126.314 101.769C127.331 99.5822 128.747 97.5378 130.564 95.6355C132.411 93.7155 134.536 92.0622 136.938 90.6755C139.278 89.3244 141.356 88.5689 143.173 88.4089C144.99 88.2489 146.406 88.6755 147.422 89.6889C148.469 90.6489 148.993 92.16 148.993 94.2222C148.993 96.1778 148.516 98.16 147.561 100.169C146.637 102.124 145.421 103.876 143.912 105.422L143.912 105.956C145.821 105.387 147.376 105.591 148.577 106.569C149.778 107.547 150.378 109.227 150.378 111.609C150.378 113.813 149.809 116.098 148.669 118.462C147.561 120.809 145.991 123.049 143.958 125.182C141.926 127.28 139.586 129.093 136.938 130.622ZM136.938 107.102C137.861 106.569 138.693 105.893 139.432 105.076C140.202 104.204 140.802 103.289 141.233 102.329C141.664 101.333 141.88 100.373 141.88 99.4489C141.88 98.56 141.664 97.8844 141.233 97.4222C140.802 96.9244 140.202 96.7022 139.432 96.7555C138.693 96.7555 137.861 97.0222 136.938 97.5555C135.952 98.1244 135.075 98.8444 134.305 99.7155C133.566 100.533 132.981 101.44 132.55 102.436C132.15 103.378 131.949 104.293 131.949 105.182C131.949 106.107 132.15 106.827 132.55 107.342C132.981 107.804 133.581 108.027 134.351 108.009C135.121 107.956 135.983 107.653 136.938 107.102ZM136.938 123.689C137.954 123.102 138.893 122.347 139.755 121.422C140.617 120.462 141.279 119.44 141.741 118.356C142.203 117.236 142.434 116.16 142.434 115.129C142.434 114.062 142.188 113.262 141.695 112.729C141.233 112.178 140.571 111.92 139.709 111.956C138.878 111.973 137.954 112.276 136.938 112.862C135.86 113.484 134.905 114.267 134.074 115.209C133.243 116.151 132.581 117.173 132.088 118.276C131.626 119.36 131.395 120.436 131.395 121.502C131.395 122.533 131.626 123.342 132.088 123.929C132.581 124.462 133.243 124.72 134.074 124.702C134.905 124.649 135.86 124.311 136.938 123.689Z" fill="black"/>
</svg>
