<svg width="256" height="256" viewBox="0 0 256 256" fill="none" xmlns="http://www.w3.org/2000/svg">
<path d="M154.461 100.267C154.461 122.064 139.159 148.568 120.282 159.467C101.405 170.365 86.1028 161.53 86.1028 139.733C86.1028 117.937 101.405 91.4318 120.282 80.5334C139.159 69.635 154.461 78.4699 154.461 100.267Z" fill="white" stroke="#1019EF" stroke-width="6.4"/>
<mask id="path-2-inside-1_787_1224" fill="white">
<path d="M120.132 132.533L164.934 106.667L164.934 137.067L120.132 162.933L120.132 132.533Z"/>
</mask>
<path d="M120.132 132.533L164.934 106.667L164.934 137.067L120.132 162.933L120.132 132.533Z" fill="white"/>
<path d="M164.934 106.667L170.477 103.467L170.477 97.0668L164.934 100.267L164.934 106.667ZM164.934 137.067L164.934 143.467L170.477 140.267L170.477 133.867L164.934 137.067ZM120.132 138.933L164.934 113.067L164.934 100.267L120.132 126.133L120.132 138.933ZM159.391 109.867L159.391 140.267L170.477 133.867L170.477 103.467L159.391 109.867ZM164.934 130.667L120.132 156.533L120.132 169.333L164.934 143.467L164.934 130.667Z" fill="#1019EF" mask="url(#path-2-inside-1_787_1224)"/>
<path d="M104.665 138.666L150.729 110.933L148.132 125.067L104.665 151.209L104.665 138.666Z" fill="white"/>
<path d="M100.246 145.363L100.246 126.607L99.9033 126.805L94.8526 134.041L94.8526 128.137L100.963 119.317L105.297 116.815L105.297 142.447L100.246 145.363ZM108.87 140.385L108.87 137.073L118.129 122.259C118.191 122.151 118.254 122.043 118.316 121.935C118.399 121.815 118.472 121.701 118.534 121.593C119.407 120.177 120.031 119.049 120.405 118.209C120.8 117.357 120.997 116.535 120.997 115.743C120.997 115.023 120.841 114.465 120.53 114.069C120.218 113.649 119.802 113.421 119.283 113.385C118.763 113.349 118.181 113.517 117.537 113.889C116.788 114.321 116.113 114.927 115.51 115.707C114.928 116.475 114.461 117.357 114.107 118.353C113.775 119.313 113.588 120.321 113.546 121.377L108.932 124.041C108.932 123.945 108.932 123.849 108.932 123.753C108.932 121.977 109.285 120.141 109.992 118.245C110.699 116.349 111.717 114.585 113.047 112.953C114.377 111.321 115.895 110.013 117.599 109.029C119.158 108.129 120.561 107.679 121.808 107.679C123.055 107.655 124.032 108.063 124.739 108.903C125.445 109.719 125.799 110.907 125.799 112.467C125.799 113.907 125.435 115.461 124.707 117.129C123.98 118.797 122.878 120.789 121.403 123.105L116.258 131.223L116.258 131.583L125.3 126.363L125.3 130.899L108.87 140.385ZM137.963 123.588L137.963 118.296L127.331 124.434L127.331 121.158L135.78 99.2158L143.138 94.9678L143.138 110.808L145.726 109.314L145.726 113.814L143.138 115.308L143.138 120.6L137.963 123.588ZM132.351 117.036L137.932 113.814L137.932 102.942L137.62 103.122L132.351 117.036Z" fill="black"/>
</svg>
