<svg width="256" height="256" viewBox="0 0 256 256" fill="none" xmlns="http://www.w3.org/2000/svg">
<path d="M154.461 100.267C154.461 122.064 139.159 148.568 120.282 159.467C101.405 170.365 86.1028 161.53 86.1028 139.733C86.1028 117.937 101.405 91.4318 120.282 80.5334C139.159 69.635 154.461 78.4699 154.461 100.267Z" fill="white" stroke="#1019EF" stroke-width="6.4"/>
<mask id="path-2-inside-1_787_1240" fill="white">
<path d="M120.132 132.533L164.934 106.667L164.934 137.067L120.132 162.933L120.132 132.533Z"/>
</mask>
<path d="M120.132 132.533L164.934 106.667L164.934 137.067L120.132 162.933L120.132 132.533Z" fill="white"/>
<path d="M164.934 106.667L170.477 103.467L170.477 97.0668L164.934 100.267L164.934 106.667ZM164.934 137.067L164.934 143.467L170.477 140.267L170.477 133.867L164.934 137.067ZM120.132 138.933L164.934 113.067L164.934 100.267L120.132 126.133L120.132 138.933ZM159.391 109.867L159.391 140.267L170.477 133.867L170.477 103.467L159.391 109.867ZM164.934 130.667L120.132 156.533L120.132 169.333L164.934 143.467L164.934 130.667Z" fill="#1019EF" mask="url(#path-2-inside-1_787_1240)"/>
<path d="M104.665 138.666L150.729 110.933L148.132 125.067L104.665 151.209L104.665 138.666Z" fill="white"/>
<path d="M97.9864 146.668L97.9864 127.912L97.6434 128.11L92.5927 135.346L92.5927 129.442L98.7034 120.622L103.037 118.12L103.037 143.752L97.9864 146.668ZM116.43 136.019L116.43 130.727L105.799 136.865L105.799 133.589L114.248 111.647L121.606 107.399L121.606 123.239L124.193 121.745L124.193 126.245L121.606 127.739L121.606 133.031L116.43 136.019ZM110.819 129.467L116.399 126.245L116.399 115.373L116.087 115.553L110.819 129.467ZM136.684 125.01C134.709 126.15 132.953 126.6 131.415 126.36C129.898 126.084 128.713 125.172 127.861 123.624C127.008 122.052 126.582 119.958 126.582 117.342C126.582 114.726 127.008 112.152 127.861 109.62C128.713 107.064 129.898 104.784 131.415 102.78C132.953 100.74 134.709 99.1502 136.684 98.0102C138.637 96.8822 140.383 96.4502 141.921 96.7142C143.46 96.9542 144.655 97.8602 145.507 99.4322C146.359 100.98 146.785 103.062 146.785 105.678C146.785 108.294 146.359 110.88 145.507 113.436C144.655 115.968 143.46 118.254 141.921 120.294C140.383 122.31 138.637 123.882 136.684 125.01ZM136.684 119.862C137.661 119.298 138.513 118.458 139.24 117.342C139.988 116.214 140.57 114.894 140.986 113.382C141.402 111.87 141.61 110.298 141.61 108.666C141.61 107.034 141.402 105.702 140.986 104.67C140.57 103.638 139.988 102.99 139.24 102.726C138.513 102.45 137.661 102.594 136.684 103.158C135.707 103.722 134.844 104.568 134.096 105.696C133.348 106.824 132.766 108.144 132.35 109.656C131.955 111.156 131.758 112.722 131.758 114.354C131.758 115.986 131.955 117.324 132.35 118.368C132.766 119.4 133.348 120.048 134.096 120.312C134.844 120.576 135.707 120.426 136.684 119.862Z" fill="black"/>
</svg>
