<svg width="256" height="256" viewBox="0 0 256 256" fill="none" xmlns="http://www.w3.org/2000/svg">
<path d="M154.461 100.267C154.461 122.063 139.159 148.568 120.282 159.467C101.405 170.365 86.1028 161.53 86.1028 139.733C86.1028 117.936 101.405 91.4317 120.282 80.5333C139.159 69.6349 154.461 78.4698 154.461 100.267Z" fill="white" stroke="#1019EF" stroke-width="6.4"/>
<mask id="path-2-inside-1_787_688" fill="white">
<path d="M120.132 132.533L164.934 106.667L164.934 137.067L120.132 162.933L120.132 132.533Z"/>
</mask>
<path d="M120.132 132.533L164.934 106.667L164.934 137.067L120.132 162.933L120.132 132.533Z" fill="white"/>
<path d="M164.934 106.667L170.477 103.467L170.477 97.0665L164.934 100.267L164.934 106.667ZM164.934 137.067L164.934 143.467L170.477 140.267L170.477 133.867L164.934 137.067ZM120.132 138.933L164.934 113.067L164.934 100.267L120.132 126.133L120.132 138.933ZM159.391 109.867L159.391 140.267L170.477 133.867L170.477 103.467L159.391 109.867ZM164.934 130.667L120.132 156.533L120.132 169.333L164.934 143.467L164.934 130.667Z" fill="#1019EF" mask="url(#path-2-inside-1_787_688)"/>
<path d="M104.665 138.665L150.729 110.933L148.132 125.067L104.665 151.209L104.665 138.665Z" fill="white"/>
<path d="M106.724 147.106L106.724 139.266L90.9737 148.36L90.9737 143.506L103.491 111L114.391 104.706L114.391 128.173L118.225 125.96L118.225 132.626L114.391 134.84L114.391 142.68L106.724 147.106ZM98.41 137.4L106.678 132.626L106.678 116.52L106.216 116.786L98.41 137.4ZM136.729 130.796C133.803 132.485 131.202 133.152 128.923 132.796C126.675 132.387 124.92 131.036 123.658 128.743C122.395 126.414 121.764 123.312 121.764 119.436C121.764 115.561 122.395 111.747 123.658 107.996C124.92 104.21 126.675 100.832 128.923 97.8629C131.202 94.8407 133.803 92.4852 136.729 90.7963C139.623 89.1252 142.21 88.4852 144.488 88.8763C146.767 89.2318 148.537 90.574 149.8 92.9029C151.062 95.1963 151.694 98.2807 151.694 102.156C151.694 106.032 151.062 109.863 149.8 113.65C148.537 117.401 146.767 120.787 144.488 123.81C142.21 126.796 139.623 129.125 136.729 130.796ZM136.729 123.17C138.176 122.334 139.438 121.09 140.516 119.436C141.625 117.765 142.487 115.81 143.103 113.57C143.719 111.33 144.026 109.001 144.026 106.583C144.026 104.165 143.719 102.192 143.103 100.663C142.487 99.134 141.625 98.174 140.516 97.7829C139.438 97.374 138.176 97.5874 136.729 98.4229C135.282 99.2585 134.004 100.512 132.895 102.183C131.787 103.854 130.924 105.81 130.309 108.05C129.724 110.272 129.431 112.592 129.431 115.01C129.431 117.427 129.724 119.41 130.309 120.956C130.924 122.485 131.787 123.445 132.895 123.836C134.004 124.227 135.282 124.005 136.729 123.17Z" fill="black"/>
</svg>
