<svg width="256" height="256" viewBox="0 0 256 256" fill="none" xmlns="http://www.w3.org/2000/svg">
<path d="M154.461 100.267C154.461 122.063 139.159 148.568 120.282 159.467C101.405 170.365 86.1028 161.53 86.1028 139.733C86.1028 117.936 101.405 91.4316 120.282 80.5332C139.159 69.6348 154.461 78.4697 154.461 100.267Z" fill="white" stroke="#1019EF" stroke-width="6.4"/>
<mask id="path-2-inside-1_787_2053" fill="white">
<path d="M120.132 132.533L164.934 106.667L164.934 137.067L120.132 162.933L120.132 132.533Z"/>
</mask>
<path d="M120.132 132.533L164.934 106.667L164.934 137.067L120.132 162.933L120.132 132.533Z" fill="white"/>
<path d="M164.934 106.667L170.477 103.467L170.477 97.0665L164.934 100.267L164.934 106.667ZM164.934 137.067L164.934 143.467L170.477 140.267L170.477 133.867L164.934 137.067ZM120.132 138.933L164.934 113.067L164.934 100.267L120.132 126.133L120.132 138.933ZM159.391 109.867L159.391 140.267L170.477 133.867L170.477 103.467L159.391 109.867ZM164.934 130.667L120.132 156.533L120.132 169.333L164.934 143.467L164.934 130.667Z" fill="#1019EF" mask="url(#path-2-inside-1_787_2053)"/>
<path d="M104.665 138.665L150.729 110.933L148.132 125.066L104.665 151.208L104.665 138.665Z" fill="white"/>
<path d="M99.424 145.838L99.424 127.082L99.081 127.28L94.0304 134.516L94.0304 128.612L100.141 119.792L104.475 117.29L104.475 142.922L99.424 145.838ZM117.026 136.323C115.197 137.379 113.597 137.991 112.225 138.159C110.874 138.291 109.814 138.003 109.045 137.295C108.297 136.575 107.923 135.471 107.923 133.983C107.923 132.375 108.328 130.773 109.139 129.177C109.949 127.581 110.988 126.237 112.256 125.145L112.256 124.785C111.259 124.905 110.438 124.671 109.793 124.083C109.17 123.459 108.858 122.487 108.858 121.167C108.858 119.751 109.19 118.311 109.856 116.847C110.541 115.371 111.498 113.991 112.724 112.707C113.971 111.411 115.405 110.295 117.026 109.359C118.606 108.447 120.009 107.937 121.235 107.829C122.461 107.721 123.418 108.009 124.103 108.693C124.81 109.341 125.163 110.361 125.163 111.753C125.163 113.073 124.841 114.411 124.197 115.767C123.573 117.087 122.752 118.269 121.734 119.313L121.734 119.673C123.023 119.289 124.072 119.427 124.883 120.087C125.693 120.747 126.099 121.881 126.099 123.489C126.099 124.977 125.714 126.519 124.945 128.115C124.197 129.699 123.137 131.211 121.765 132.651C120.393 134.067 118.814 135.291 117.026 136.323ZM117.026 120.447C117.65 120.087 118.211 119.631 118.71 119.079C119.229 118.491 119.635 117.873 119.926 117.225C120.217 116.553 120.362 115.905 120.362 115.281C120.362 114.681 120.217 114.225 119.926 113.913C119.635 113.577 119.229 113.427 118.71 113.463C118.211 113.463 117.65 113.643 117.026 114.003C116.361 114.387 115.769 114.873 115.249 115.461C114.75 116.013 114.355 116.625 114.064 117.297C113.794 117.933 113.659 118.551 113.659 119.151C113.659 119.775 113.794 120.261 114.064 120.609C114.355 120.921 114.761 121.071 115.28 121.059C115.8 121.023 116.382 120.819 117.026 120.447ZM117.026 131.643C117.712 131.247 118.346 130.737 118.928 130.113C119.51 129.465 119.957 128.775 120.269 128.043C120.58 127.287 120.736 126.561 120.736 125.865C120.736 125.145 120.57 124.605 120.237 124.245C119.926 123.873 119.479 123.699 118.897 123.723C118.336 123.735 117.712 123.939 117.026 124.335C116.299 124.755 115.654 125.283 115.093 125.919C114.532 126.555 114.085 127.245 113.753 127.989C113.441 128.721 113.285 129.447 113.285 130.167C113.285 130.863 113.441 131.409 113.753 131.805C114.085 132.165 114.532 132.339 115.093 132.327C115.654 132.291 116.299 132.063 117.026 131.643ZM137.543 97.5138C139.289 96.5058 140.838 95.9958 142.189 95.9838C143.56 95.9358 144.621 96.3678 145.369 97.2798C146.138 98.1798 146.522 99.4698 146.522 101.15C146.522 102.182 146.325 103.388 145.93 104.768C145.535 106.148 144.974 107.636 144.246 109.232L137.543 123.794L131.807 127.106L137.668 114.506C137.315 114.83 136.961 115.13 136.608 115.406C136.275 115.646 135.953 115.856 135.642 116.036C134.228 116.852 132.971 117.23 131.869 117.17C130.788 117.098 129.936 116.618 129.313 115.73C128.689 114.818 128.377 113.57 128.377 111.986C128.377 110.186 128.762 108.368 129.531 106.532C130.321 104.684 131.401 102.98 132.773 101.42C134.166 99.8478 135.756 98.5458 137.543 97.5138ZM137.387 102.428C136.66 102.848 136.005 103.406 135.423 104.102C134.841 104.798 134.384 105.578 134.052 106.442C133.719 107.282 133.553 108.134 133.553 108.998C133.553 109.838 133.719 110.486 134.052 110.942C134.384 111.374 134.841 111.614 135.423 111.662C136.005 111.686 136.66 111.488 137.387 111.068C138.136 110.636 138.811 110.066 139.414 109.358C140.038 108.638 140.516 107.858 140.848 107.018C141.181 106.178 141.347 105.338 141.347 104.498C141.347 103.634 141.181 102.962 140.848 102.482C140.516 102.002 140.038 101.774 139.414 101.798C138.811 101.786 138.136 101.996 137.387 102.428Z" fill="black"/>
</svg>
