<svg width="256" height="256" viewBox="0 0 256 256" fill="none" xmlns="http://www.w3.org/2000/svg">
<path d="M154.461 100.267C154.461 122.063 139.159 148.568 120.282 159.467C101.405 170.365 86.1028 161.53 86.1028 139.733C86.1028 117.936 101.405 91.4316 120.282 80.5332C139.159 69.6348 154.461 78.4697 154.461 100.267Z" fill="white" stroke="#1019EF" stroke-width="6.4"/>
<mask id="path-2-inside-1_787_1667" fill="white">
<path d="M120.132 132.533L164.934 106.667L164.934 137.067L120.132 162.933L120.132 132.533Z"/>
</mask>
<path d="M120.132 132.533L164.934 106.667L164.934 137.067L120.132 162.933L120.132 132.533Z" fill="white"/>
<path d="M164.934 106.667L170.477 103.467L170.477 97.0665L164.934 100.267L164.934 106.667ZM164.934 137.067L164.934 143.467L170.477 140.267L170.477 133.867L164.934 137.067ZM120.132 138.933L164.934 113.067L164.934 100.267L120.132 126.133L120.132 138.933ZM159.391 109.867L159.391 140.267L170.477 133.867L170.477 103.467L159.391 109.867ZM164.934 130.667L120.132 156.533L120.132 169.333L164.934 143.467L164.934 130.667Z" fill="#1019EF" mask="url(#path-2-inside-1_787_1667)"/>
<path d="M104.665 138.665L150.729 110.933L148.132 125.066L104.665 151.208L104.665 138.665Z" fill="white"/>
<path d="M99.6828 145.689L99.6828 126.933L99.3398 127.131L94.2892 134.367L94.2892 128.463L100.4 119.643L104.733 117.141L104.733 142.773L99.6828 145.689ZM117.285 136.174C115.456 137.23 113.856 137.842 112.484 138.01C111.133 138.142 110.073 137.854 109.304 137.146C108.556 136.426 108.181 135.322 108.181 133.834C108.181 132.226 108.587 130.624 109.397 129.028C110.208 127.432 111.247 126.088 112.515 124.996L112.515 124.636C111.517 124.756 110.696 124.522 110.052 123.934C109.428 123.31 109.117 122.338 109.117 121.018C109.117 119.602 109.449 118.162 110.114 116.698C110.8 115.222 111.756 113.842 112.983 112.558C114.23 111.262 115.664 110.146 117.285 109.21C118.865 108.298 120.268 107.788 121.494 107.68C122.72 107.572 123.676 107.86 124.362 108.544C125.069 109.192 125.422 110.212 125.422 111.604C125.422 112.924 125.1 114.262 124.456 115.618C123.832 116.938 123.011 118.12 121.993 119.164L121.993 119.524C123.281 119.14 124.331 119.278 125.142 119.938C125.952 120.598 126.358 121.732 126.358 123.34C126.358 124.828 125.973 126.37 125.204 127.966C124.456 129.55 123.396 131.062 122.024 132.502C120.652 133.918 119.073 135.142 117.285 136.174ZM117.285 120.298C117.909 119.938 118.47 119.482 118.969 118.93C119.488 118.342 119.894 117.724 120.185 117.076C120.475 116.404 120.621 115.756 120.621 115.132C120.621 114.532 120.475 114.076 120.185 113.764C119.894 113.428 119.488 113.278 118.969 113.314C118.47 113.314 117.909 113.494 117.285 113.854C116.62 114.238 116.028 114.724 115.508 115.312C115.009 115.864 114.614 116.476 114.323 117.148C114.053 117.784 113.918 118.402 113.918 119.002C113.918 119.626 114.053 120.112 114.323 120.46C114.614 120.772 115.02 120.922 115.539 120.91C116.059 120.874 116.641 120.67 117.285 120.298ZM117.285 131.494C117.971 131.098 118.605 130.588 119.187 129.964C119.769 129.316 120.216 128.626 120.527 127.894C120.839 127.138 120.995 126.412 120.995 125.716C120.995 124.996 120.829 124.456 120.496 124.096C120.185 123.724 119.738 123.55 119.156 123.574C118.594 123.586 117.971 123.79 117.285 124.186C116.558 124.606 115.913 125.134 115.352 125.77C114.791 126.406 114.344 127.096 114.011 127.84C113.7 128.572 113.544 129.298 113.544 130.018C113.544 130.714 113.7 131.26 114.011 131.656C114.344 132.016 114.791 132.19 115.352 132.178C115.913 132.142 116.558 131.914 117.285 131.494ZM137.522 124.526C135.88 125.474 134.393 125.924 133.063 125.876C131.733 125.804 130.673 125.264 129.883 124.256C129.093 123.248 128.667 121.85 128.605 120.062L133.406 117.29C133.406 118.202 133.583 118.928 133.936 119.468C134.31 119.996 134.799 120.314 135.402 120.422C136.025 120.494 136.711 120.314 137.459 119.882C138.207 119.45 138.873 118.886 139.455 118.19C140.057 117.482 140.525 116.708 140.857 115.868C141.19 115.028 141.356 114.224 141.356 113.456C141.356 112.616 141.18 111.974 140.826 111.53C140.473 111.086 139.964 110.876 139.299 110.9C138.634 110.924 137.854 111.194 136.96 111.71L130.351 115.526L131.38 101.756L144.505 94.1784L144.505 98.7144L135.152 104.114L134.747 108.956L138.301 106.904C139.86 106.004 141.232 105.572 142.416 105.608C143.622 105.632 144.557 106.1 145.222 107.012C145.887 107.9 146.22 109.16 146.22 110.792C146.22 112.448 145.846 114.152 145.098 115.904C144.349 117.656 143.31 119.3 141.98 120.836C140.67 122.336 139.184 123.566 137.522 124.526Z" fill="black"/>
</svg>
