<svg width="256" height="256" viewBox="0 0 256 256" fill="none" xmlns="http://www.w3.org/2000/svg">
<path d="M154.461 100.267C154.461 122.063 139.159 148.568 120.282 159.467C101.405 170.365 86.1028 161.53 86.1028 139.733C86.1028 117.936 101.405 91.4316 120.282 80.5332C139.159 69.6348 154.461 78.4697 154.461 100.267Z" fill="white" stroke="#1019EF" stroke-width="6.4"/>
<mask id="path-2-inside-1_787_1645" fill="white">
<path d="M120.132 132.533L164.934 106.667L164.934 137.067L120.132 162.933L120.132 132.533Z"/>
</mask>
<path d="M120.132 132.533L164.934 106.667L164.934 137.067L120.132 162.933L120.132 132.533Z" fill="white"/>
<path d="M164.934 106.667L170.477 103.467L170.477 97.0665L164.934 100.267L164.934 106.667ZM164.934 137.067L164.934 143.467L170.477 140.267L170.477 133.867L164.934 137.067ZM120.132 138.933L164.934 113.067L164.934 100.267L120.132 126.133L120.132 138.933ZM159.392 109.867L159.392 140.267L170.477 133.867L170.477 103.467L159.392 109.867ZM164.934 130.667L120.132 156.533L120.132 169.333L164.934 143.467L164.934 130.667Z" fill="#1019EF" mask="url(#path-2-inside-1_787_1645)"/>
<path d="M104.665 138.665L150.729 110.933L148.132 125.066L104.665 151.208L104.665 138.665Z" fill="white"/>
<path d="M99.661 145.701L99.661 126.945L99.3181 127.143L94.2674 134.379L94.2674 128.475L100.378 119.655L104.712 117.153L104.712 142.785L99.661 145.701ZM116.952 136.403C115.206 137.411 113.647 137.939 112.275 137.987C110.924 137.999 109.864 137.555 109.095 136.655C108.347 135.743 107.973 134.435 107.973 132.731C107.973 131.699 108.17 130.493 108.565 129.113C108.96 127.733 109.531 126.239 110.28 124.631L116.952 110.087L122.688 106.775L116.827 119.375C117.18 119.051 117.523 118.769 117.856 118.529C118.209 118.253 118.542 118.025 118.853 117.845C120.267 117.029 121.514 116.669 122.595 116.765C123.696 116.825 124.559 117.299 125.182 118.187C125.806 119.075 126.118 120.323 126.118 121.931C126.118 123.731 125.723 125.555 124.933 127.403C124.164 129.239 123.083 130.943 121.69 132.515C120.319 134.075 118.739 135.371 116.952 136.403ZM117.107 131.489C117.856 131.057 118.521 130.493 119.103 129.797C119.685 129.077 120.132 128.303 120.443 127.475C120.776 126.611 120.942 125.747 120.942 124.883C120.942 124.043 120.776 123.407 120.443 122.975C120.132 122.507 119.685 122.261 119.103 122.237C118.521 122.213 117.856 122.417 117.107 122.849C116.359 123.281 115.673 123.857 115.05 124.577C114.447 125.261 113.979 126.023 113.647 126.863C113.314 127.703 113.148 128.543 113.148 129.383C113.148 130.247 113.314 130.919 113.647 131.399C113.979 131.879 114.447 132.125 115.05 132.137C115.673 132.137 116.359 131.921 117.107 131.489ZM136.886 124.893C135.245 125.841 133.748 126.285 132.397 126.225C131.067 126.129 130.007 125.577 129.217 124.569C128.448 123.525 128.032 122.085 127.97 120.249L132.771 117.477C132.771 118.461 132.948 119.235 133.301 119.799C133.654 120.363 134.133 120.699 134.735 120.807C135.359 120.879 136.055 120.693 136.824 120.249C137.572 119.817 138.237 119.253 138.819 118.557C139.401 117.861 139.859 117.105 140.191 116.289C140.524 115.449 140.69 114.633 140.69 113.841C140.69 113.049 140.513 112.431 140.16 111.987C139.828 111.531 139.36 111.297 138.757 111.285C138.175 111.237 137.52 111.423 136.793 111.843C136.481 112.023 136.149 112.263 135.795 112.563C135.442 112.839 135.151 113.103 134.922 113.355L133.8 110.583L138.352 102.627L138.352 102.267L129.373 107.451L129.373 102.915L144.743 94.0412L144.743 97.5332L139.474 106.803C140.638 106.347 141.677 106.239 142.592 106.479C143.527 106.683 144.255 107.223 144.774 108.099C145.315 108.939 145.585 110.043 145.585 111.411C145.585 113.019 145.211 114.687 144.462 116.415C143.735 118.107 142.706 119.709 141.376 121.221C140.046 122.709 138.549 123.933 136.886 124.893Z" fill="black"/>
</svg>
