<svg width="256" height="256" viewBox="0 0 256 256" fill="none" xmlns="http://www.w3.org/2000/svg">
<path d="M154.461 100.267C154.461 122.064 139.159 148.568 120.282 159.467C101.405 170.365 86.1028 161.53 86.1028 139.733C86.1028 117.937 101.405 91.4318 120.282 80.5334C139.159 69.6349 154.461 78.4698 154.461 100.267Z" fill="white" stroke="#1019EF" stroke-width="6.4"/>
<mask id="path-2-inside-1_787_580" fill="white">
<path d="M120.132 132.533L164.934 106.667L164.934 137.067L120.132 162.933L120.132 132.533Z"/>
</mask>
<path d="M120.132 132.533L164.934 106.667L164.934 137.067L120.132 162.933L120.132 132.533Z" fill="white"/>
<path d="M164.934 106.667L170.477 103.467L170.477 97.0666L164.934 100.267L164.934 106.667ZM164.934 137.067L164.934 143.467L170.477 140.267L170.477 133.867L164.934 137.067ZM120.132 138.933L164.934 113.067L164.934 100.267L120.132 126.133L120.132 138.933ZM159.391 109.867L159.391 140.267L170.477 133.867L170.477 103.467L159.391 109.867ZM164.934 130.667L120.132 156.533L120.132 169.333L164.934 143.467L164.934 130.667Z" fill="#1019EF" mask="url(#path-2-inside-1_787_580)"/>
<path d="M104.665 138.665L150.729 110.933L148.132 125.067L104.665 151.209L104.665 138.665Z" fill="white"/>
<path d="M94.7953 153.993L94.7953 149.087L108.513 127.14C108.606 126.98 108.698 126.82 108.79 126.66C108.913 126.482 109.021 126.313 109.114 126.153C110.407 124.055 111.331 122.384 111.885 121.14C112.47 119.878 112.762 118.66 112.762 117.487C112.762 116.42 112.532 115.593 112.07 115.007C111.608 114.384 110.992 114.047 110.222 113.993C109.452 113.94 108.59 114.189 107.636 114.74C106.527 115.38 105.526 116.278 104.633 117.433C103.771 118.571 103.078 119.878 102.555 121.353C102.062 122.775 101.785 124.269 101.724 125.833L94.8877 129.78C94.8877 129.638 94.8877 129.495 94.8877 129.353C94.8877 126.722 95.4112 124.002 96.4581 121.193C97.505 118.384 99.0138 115.771 100.985 113.353C102.955 110.935 105.203 108.998 107.728 107.54C110.037 106.207 112.116 105.54 113.963 105.54C115.811 105.504 117.258 106.109 118.305 107.353C119.352 108.562 119.875 110.322 119.875 112.633C119.875 114.767 119.337 117.069 118.259 119.54C117.181 122.011 115.549 124.962 113.363 128.393L105.742 140.42L105.742 140.953L119.136 133.22L119.136 139.94L94.7953 153.993ZM136.649 130.789C133.94 132.353 131.569 133.26 129.536 133.509C127.535 133.704 125.964 133.278 124.825 132.229C123.717 131.162 123.162 129.527 123.162 127.322C123.162 124.94 123.763 122.567 124.964 120.202C126.165 117.838 127.704 115.847 129.582 114.229L129.582 113.696C128.104 113.873 126.888 113.527 125.934 112.656C125.01 111.731 124.548 110.291 124.548 108.336C124.548 106.238 125.041 104.104 126.026 101.936C127.042 99.7489 128.459 97.7044 130.275 95.8022C132.123 93.8822 134.247 92.2289 136.649 90.8422C138.989 89.4911 141.068 88.7355 142.885 88.5755C144.701 88.4155 146.118 88.8422 147.134 89.8555C148.181 90.8155 148.704 92.3267 148.704 94.3889C148.704 96.3444 148.227 98.3266 147.272 100.336C146.349 102.291 145.132 104.042 143.624 105.589L143.624 106.122C145.533 105.553 147.088 105.758 148.289 106.736C149.489 107.713 150.09 109.393 150.09 111.776C150.09 113.98 149.52 116.264 148.381 118.629C147.272 120.976 145.702 123.216 143.67 125.349C141.638 127.447 139.297 129.26 136.649 130.789ZM136.649 107.269C137.573 106.736 138.404 106.06 139.143 105.242C139.913 104.371 140.514 103.456 140.945 102.496C141.376 101.5 141.591 100.54 141.591 99.6155C141.591 98.7267 141.376 98.0511 140.945 97.5889C140.514 97.0911 139.913 96.8689 139.143 96.9222C138.404 96.9222 137.573 97.1889 136.649 97.7222C135.664 98.2911 134.786 99.0111 134.017 99.8822C133.278 100.7 132.692 101.607 132.261 102.602C131.861 103.544 131.661 104.46 131.661 105.349C131.661 106.273 131.861 106.993 132.261 107.509C132.692 107.971 133.293 108.193 134.063 108.176C134.832 108.122 135.695 107.82 136.649 107.269ZM136.649 123.856C137.665 123.269 138.605 122.513 139.467 121.589C140.329 120.629 140.991 119.607 141.453 118.522C141.915 117.402 142.146 116.327 142.146 115.296C142.146 114.229 141.899 113.429 141.407 112.896C140.945 112.344 140.283 112.087 139.421 112.122C138.589 112.14 137.665 112.442 136.649 113.029C135.572 113.651 134.617 114.433 133.786 115.376C132.954 116.318 132.292 117.34 131.799 118.442C131.338 119.527 131.107 120.602 131.107 121.669C131.107 122.7 131.338 123.509 131.799 124.096C132.292 124.629 132.954 124.887 133.786 124.869C134.617 124.816 135.572 124.478 136.649 123.856Z" fill="black"/>
</svg>
