<svg width="256" height="256" viewBox="0 0 256 256" fill="none" xmlns="http://www.w3.org/2000/svg">
<path d="M154.461 100.267C154.461 122.063 139.159 148.568 120.282 159.467C101.405 170.365 86.1028 161.53 86.1028 139.733C86.1028 117.936 101.405 91.4316 120.282 80.5332C139.159 69.6348 154.461 78.4697 154.461 100.267Z" fill="white" stroke="#1019EF" stroke-width="6.4"/>
<mask id="path-2-inside-1_787_1663" fill="white">
<path d="M120.132 132.533L164.934 106.667L164.934 137.067L120.132 162.933L120.132 132.533Z"/>
</mask>
<path d="M120.132 132.533L164.934 106.667L164.934 137.067L120.132 162.933L120.132 132.533Z" fill="white"/>
<path d="M164.934 106.667L170.477 103.467L170.477 97.0665L164.934 100.267L164.934 106.667ZM164.934 137.067L164.934 143.467L170.477 140.267L170.477 133.867L164.934 137.067ZM120.132 138.933L164.934 113.067L164.934 100.267L120.132 126.133L120.132 138.933ZM159.392 109.867L159.392 140.267L170.477 133.867L170.477 103.467L159.392 109.867ZM164.934 130.667L120.132 156.533L120.132 169.333L164.934 143.467L164.934 130.667Z" fill="#1019EF" mask="url(#path-2-inside-1_787_1663)"/>
<path d="M104.665 138.665L150.729 110.933L148.132 125.066L104.665 151.208L104.665 138.665Z" fill="white"/>
<path d="M102.34 144.154L102.34 125.398L101.997 125.596L96.9468 132.832L96.9468 126.928L103.057 118.108L107.391 115.606L107.391 141.238L102.34 144.154ZM119.943 134.64C118.114 135.696 116.513 136.308 115.141 136.476C113.79 136.608 112.73 136.32 111.961 135.612C111.213 134.892 110.839 133.788 110.839 132.3C110.839 130.692 111.244 129.09 112.055 127.494C112.865 125.898 113.905 124.554 115.173 123.462L115.173 123.102C114.175 123.222 113.354 122.988 112.71 122.4C112.086 121.776 111.774 120.804 111.774 119.484C111.774 118.068 112.107 116.628 112.772 115.164C113.458 113.688 114.414 112.308 115.64 111.024C116.887 109.728 118.321 108.612 119.943 107.676C121.522 106.764 122.925 106.254 124.152 106.146C125.378 106.038 126.334 106.326 127.02 107.01C127.726 107.658 128.08 108.678 128.08 110.07C128.08 111.39 127.758 112.728 127.113 114.084C126.49 115.404 125.669 116.586 124.65 117.63L124.65 117.99C125.939 117.606 126.989 117.744 127.799 118.404C128.61 119.064 129.015 120.198 129.015 121.806C129.015 123.294 128.631 124.836 127.862 126.432C127.113 128.016 126.053 129.528 124.682 130.968C123.31 132.384 121.73 133.608 119.943 134.64ZM119.943 118.764C120.566 118.404 121.127 117.948 121.626 117.396C122.146 116.808 122.551 116.19 122.842 115.542C123.133 114.87 123.279 114.222 123.279 113.598C123.279 112.998 123.133 112.542 122.842 112.23C122.551 111.894 122.146 111.744 121.626 111.78C121.127 111.78 120.566 111.96 119.943 112.32C119.278 112.704 118.685 113.19 118.166 113.778C117.667 114.33 117.272 114.942 116.981 115.614C116.711 116.25 116.576 116.868 116.576 117.468C116.576 118.092 116.711 118.578 116.981 118.926C117.272 119.238 117.677 119.388 118.197 119.376C118.716 119.34 119.298 119.136 119.943 118.764ZM119.943 129.96C120.629 129.564 121.262 129.054 121.844 128.43C122.426 127.782 122.873 127.092 123.185 126.36C123.497 125.604 123.653 124.878 123.653 124.182C123.653 123.462 123.486 122.922 123.154 122.562C122.842 122.19 122.395 122.016 121.813 122.04C121.252 122.052 120.629 122.256 119.943 122.652C119.215 123.072 118.571 123.6 118.01 124.236C117.448 124.872 117.002 125.562 116.669 126.306C116.357 127.038 116.201 127.764 116.201 128.484C116.201 129.18 116.357 129.726 116.669 130.122C117.002 130.482 117.448 130.656 118.01 130.644C118.571 130.608 119.215 130.38 119.943 129.96ZM136.531 124.414L136.531 105.658L136.188 105.856L131.138 113.092L131.138 107.188L137.249 98.3682L141.582 95.8662L141.582 121.498L136.531 124.414Z" fill="black"/>
</svg>
