<svg width="256" height="256" viewBox="0 0 256 256" fill="none" xmlns="http://www.w3.org/2000/svg">
<path d="M154.461 100.267C154.461 122.063 139.159 148.568 120.282 159.467C101.405 170.365 86.1028 161.53 86.1028 139.733C86.1028 117.936 101.405 91.4316 120.282 80.5332C139.159 69.6348 154.461 78.4697 154.461 100.267Z" fill="white" stroke="#1019EF" stroke-width="6.4"/>
<mask id="path-2-inside-1_787_1666" fill="white">
<path d="M120.132 132.533L164.934 106.667L164.934 137.067L120.132 162.933L120.132 132.533Z"/>
</mask>
<path d="M120.132 132.533L164.934 106.667L164.934 137.067L120.132 162.933L120.132 132.533Z" fill="white"/>
<path d="M164.934 106.667L170.477 103.467L170.477 97.0665L164.934 100.267L164.934 106.667ZM164.934 137.067L164.934 143.467L170.477 140.267L170.477 133.867L164.934 137.067ZM120.132 138.933L164.934 113.067L164.934 100.267L120.132 126.133L120.132 138.933ZM159.391 109.867L159.391 140.267L170.477 133.867L170.477 103.467L159.391 109.867ZM164.934 130.667L120.132 156.533L120.132 169.333L164.934 143.467L164.934 130.667Z" fill="#1019EF" mask="url(#path-2-inside-1_787_1666)"/>
<path d="M104.665 138.665L150.729 110.933L148.132 125.066L104.665 151.208L104.665 138.665Z" fill="white"/>
<path d="M99.5458 145.768L99.5458 127.012L99.2028 127.21L94.1522 134.446L94.1522 128.542L100.263 119.722L104.596 117.22L104.596 142.852L99.5458 145.768ZM117.148 136.253C115.319 137.309 113.719 137.921 112.347 138.089C110.996 138.221 109.936 137.933 109.167 137.225C108.419 136.505 108.044 135.401 108.044 133.913C108.044 132.305 108.45 130.703 109.26 129.107C110.071 127.511 111.11 126.167 112.378 125.075L112.378 124.715C111.38 124.835 110.559 124.601 109.915 124.013C109.291 123.389 108.98 122.417 108.98 121.097C108.98 119.681 109.312 118.241 109.977 116.777C110.663 115.301 111.619 113.921 112.846 112.637C114.093 111.341 115.527 110.225 117.148 109.289C118.728 108.377 120.131 107.867 121.357 107.759C122.583 107.651 123.539 107.939 124.225 108.623C124.932 109.271 125.285 110.291 125.285 111.683C125.285 113.003 124.963 114.341 124.319 115.697C123.695 117.017 122.874 118.199 121.856 119.243L121.856 119.603C123.144 119.219 124.194 119.357 125.005 120.017C125.815 120.677 126.221 121.811 126.221 123.419C126.221 124.907 125.836 126.449 125.067 128.045C124.319 129.629 123.259 131.141 121.887 132.581C120.515 133.997 118.936 135.221 117.148 136.253ZM117.148 120.377C117.772 120.017 118.333 119.561 118.832 119.009C119.351 118.421 119.757 117.803 120.047 117.155C120.338 116.483 120.484 115.835 120.484 115.211C120.484 114.611 120.338 114.155 120.047 113.843C119.757 113.507 119.351 113.357 118.832 113.393C118.333 113.393 117.772 113.573 117.148 113.933C116.483 114.317 115.891 114.803 115.371 115.391C114.872 115.943 114.477 116.555 114.186 117.227C113.916 117.863 113.781 118.481 113.781 119.081C113.781 119.705 113.916 120.191 114.186 120.539C114.477 120.851 114.883 121.001 115.402 120.989C115.922 120.953 116.504 120.749 117.148 120.377ZM117.148 131.573C117.834 131.177 118.468 130.667 119.05 130.043C119.632 129.395 120.079 128.705 120.39 127.973C120.702 127.217 120.858 126.491 120.858 125.795C120.858 125.075 120.692 124.535 120.359 124.175C120.048 123.803 119.601 123.629 119.019 123.653C118.457 123.665 117.834 123.869 117.148 124.265C116.421 124.685 115.776 125.213 115.215 125.849C114.654 126.485 114.207 127.175 113.874 127.919C113.563 128.651 113.407 129.377 113.407 130.097C113.407 130.793 113.563 131.339 113.874 131.735C114.207 132.095 114.654 132.269 115.215 132.257C115.776 132.221 116.421 131.993 117.148 131.573ZM138.663 123.183L138.663 117.891L128.031 124.029L128.031 120.753L136.48 98.8115L143.838 94.5635L143.838 110.403L146.426 108.909L146.426 113.409L143.838 114.903L143.838 120.195L138.663 123.183ZM133.051 116.631L138.632 113.409L138.632 102.537L138.32 102.717L133.051 116.631Z" fill="black"/>
</svg>
