<svg width="256" height="256" viewBox="0 0 256 256" fill="none" xmlns="http://www.w3.org/2000/svg">
<path d="M154.461 100.267C154.461 122.063 139.159 148.568 120.282 159.467C101.405 170.365 86.1028 161.53 86.1028 139.733C86.1028 117.936 101.405 91.4316 120.282 80.5332C139.159 69.6348 154.461 78.4697 154.461 100.267Z" fill="white" stroke="#1019EF" stroke-width="6.4"/>
<mask id="path-2-inside-1_787_2077" fill="white">
<path d="M120.132 132.533L164.934 106.667L164.934 137.067L120.132 162.933L120.132 132.533Z"/>
</mask>
<path d="M120.132 132.533L164.934 106.667L164.934 137.067L120.132 162.933L120.132 132.533Z" fill="white"/>
<path d="M164.934 106.667L170.477 103.467L170.477 97.0665L164.934 100.267L164.934 106.667ZM164.934 137.067L164.934 143.467L170.477 140.267L170.477 133.867L164.934 137.067ZM120.132 138.933L164.934 113.067L164.934 100.267L120.132 126.133L120.132 138.933ZM159.392 109.867L159.392 140.267L170.477 133.867L170.477 103.467L159.392 109.867ZM164.934 130.667L120.132 156.533L120.132 169.333L164.934 143.467L164.934 130.667Z" fill="#1019EF" mask="url(#path-2-inside-1_787_2077)"/>
<path d="M104.665 138.665L150.729 110.933L148.132 125.066L104.665 151.208L104.665 138.665Z" fill="white"/>
<path d="M95.6861 147.996L95.6861 144.684L104.946 129.87C105.008 129.762 105.07 129.654 105.133 129.546C105.216 129.426 105.289 129.312 105.351 129.204C106.224 127.788 106.847 126.66 107.222 125.82C107.616 124.968 107.814 124.146 107.814 123.354C107.814 122.634 107.658 122.076 107.346 121.68C107.034 121.26 106.619 121.032 106.099 120.996C105.58 120.96 104.998 121.128 104.353 121.5C103.605 121.932 102.93 122.538 102.327 123.318C101.745 124.086 101.277 124.968 100.924 125.964C100.591 126.924 100.404 127.932 100.363 128.988L95.7484 131.652C95.7484 131.556 95.7484 131.46 95.7484 131.364C95.7484 129.588 96.1018 127.752 96.8085 125.856C97.5151 123.96 98.5336 122.196 99.8638 120.564C101.194 118.932 102.711 117.624 104.416 116.64C105.974 115.74 107.377 115.29 108.625 115.29C109.872 115.266 110.848 115.674 111.555 116.514C112.262 117.33 112.615 118.518 112.615 120.078C112.615 121.518 112.251 123.072 111.524 124.74C110.797 126.408 109.695 128.4 108.219 130.716L103.075 138.834L103.075 139.194L112.116 133.974L112.116 138.51L95.6861 147.996ZM119.853 134.043L119.853 115.287L119.51 115.485L114.46 122.721L114.46 116.817L120.57 107.997L124.904 105.495L124.904 131.127L119.853 134.043ZM136.832 124.924C135.19 125.872 133.694 126.316 132.343 126.256C131.012 126.16 129.952 125.608 129.163 124.6C128.394 123.556 127.978 122.116 127.915 120.28L132.717 117.508C132.717 118.492 132.893 119.266 133.247 119.83C133.6 120.394 134.078 120.73 134.681 120.838C135.304 120.91 136.001 120.724 136.77 120.28C137.518 119.848 138.183 119.284 138.765 118.588C139.347 117.892 139.804 117.136 140.137 116.32C140.469 115.48 140.636 114.664 140.636 113.872C140.636 113.08 140.459 112.462 140.106 112.018C139.773 111.562 139.305 111.328 138.703 111.316C138.121 111.268 137.466 111.454 136.739 111.874C136.427 112.054 136.094 112.294 135.741 112.594C135.388 112.87 135.097 113.134 134.868 113.386L133.746 110.614L138.297 102.658L138.297 102.298L129.318 107.482L129.318 102.946L144.689 94.0724L144.689 97.5644L139.42 106.834C140.584 106.378 141.623 106.27 142.537 106.51C143.473 106.714 144.2 107.254 144.72 108.13C145.26 108.97 145.53 110.074 145.53 111.442C145.53 113.05 145.156 114.718 144.408 116.446C143.681 118.138 142.652 119.74 141.322 121.252C139.991 122.74 138.495 123.964 136.832 124.924Z" fill="black"/>
</svg>
