<svg width="256" height="256" viewBox="0 0 256 256" fill="none" xmlns="http://www.w3.org/2000/svg">
<path d="M154.461 100.267C154.461 122.063 139.159 148.568 120.282 159.467C101.405 170.365 86.1028 161.53 86.1028 139.733C86.1028 117.936 101.405 91.4317 120.282 80.5333C139.159 69.6349 154.461 78.4698 154.461 100.267Z" fill="white" stroke="#1019EF" stroke-width="6.4"/>
<mask id="path-2-inside-1_787_706" fill="white">
<path d="M120.132 132.533L164.934 106.667L164.934 137.067L120.132 162.933L120.132 132.533Z"/>
</mask>
<path d="M120.132 132.533L164.934 106.667L164.934 137.067L120.132 162.933L120.132 132.533Z" fill="white"/>
<path d="M164.934 106.667L170.477 103.467L170.477 97.0665L164.934 100.267L164.934 106.667ZM164.934 137.067L164.934 143.467L170.477 140.267L170.477 133.867L164.934 137.067ZM120.132 138.933L164.934 113.067L164.934 100.267L120.132 126.133L120.132 138.933ZM159.392 109.867L159.392 140.267L170.477 133.867L170.477 103.467L159.392 109.867ZM164.934 130.667L120.132 156.533L120.132 169.333L164.934 143.467L164.934 130.667Z" fill="#1019EF" mask="url(#path-2-inside-1_787_706)"/>
<path d="M104.665 138.665L150.729 110.933L148.132 125.067L104.665 151.209L104.665 138.665Z" fill="white"/>
<path d="M109.43 145.544L109.43 137.704L93.6799 146.797L93.6799 141.944L106.197 109.437L117.097 103.144L117.097 126.61L120.931 124.397L120.931 131.064L117.097 133.277L117.097 141.117L109.43 145.544ZM101.116 135.837L109.384 131.064L109.384 114.957L108.922 115.224L101.116 135.837ZM124.47 136.86L124.47 131.954L138.188 110.007C138.28 109.847 138.373 109.687 138.465 109.527C138.588 109.349 138.696 109.18 138.788 109.02C140.082 106.923 141.005 105.252 141.56 104.007C142.145 102.745 142.437 101.527 142.437 100.354C142.437 99.2871 142.206 98.4604 141.744 97.8738C141.282 97.2515 140.667 96.9138 139.897 96.8604C139.127 96.8071 138.265 97.056 137.31 97.6071C136.202 98.2471 135.201 99.1449 134.308 100.3C133.446 101.438 132.753 102.745 132.23 104.22C131.737 105.643 131.46 107.136 131.398 108.7L124.562 112.647C124.562 112.505 124.562 112.363 124.562 112.22C124.562 109.589 125.086 106.869 126.133 104.06C127.18 101.252 128.688 98.6382 130.659 96.2204C132.63 93.8027 134.878 91.8649 137.403 90.4071C139.712 89.0738 141.79 88.4071 143.638 88.4071C145.486 88.3715 146.933 88.976 147.98 90.2204C149.027 91.4293 149.55 93.1893 149.55 95.5004C149.55 97.6338 149.011 99.936 147.933 102.407C146.856 104.878 145.224 107.829 143.038 111.26L135.417 123.287L135.417 123.82L148.811 116.087L148.811 122.807L124.47 136.86Z" fill="black"/>
</svg>
