<svg width="256" height="256" viewBox="0 0 256 256" fill="none" xmlns="http://www.w3.org/2000/svg">
<path d="M154.461 100.267C154.461 122.064 139.159 148.568 120.282 159.467C101.405 170.365 86.1028 161.53 86.1028 139.733C86.1028 117.937 101.405 91.4318 120.282 80.5334C139.159 69.635 154.461 78.4699 154.461 100.267Z" fill="white" stroke="#1019EF" stroke-width="6.4"/>
<mask id="path-2-inside-1_787_805" fill="white">
<path d="M120.132 132.533L164.934 106.667L164.934 137.067L120.132 162.933L120.132 132.533Z"/>
</mask>
<path d="M120.132 132.533L164.934 106.667L164.934 137.067L120.132 162.933L120.132 132.533Z" fill="white"/>
<path d="M164.934 106.667L170.477 103.467L170.477 97.0668L164.934 100.267L164.934 106.667ZM164.934 137.067L164.934 143.467L170.477 140.267L170.477 133.867L164.934 137.067ZM120.132 138.933L164.934 113.067L164.934 100.267L120.132 126.133L120.132 138.933ZM159.391 109.867L159.391 140.267L170.477 133.867L170.477 103.467L159.391 109.867ZM164.934 130.667L120.132 156.533L120.132 169.333L164.934 143.467L164.934 130.667Z" fill="#1019EF" mask="url(#path-2-inside-1_787_805)"/>
<path d="M104.665 138.666L150.729 110.933L148.132 125.067L104.665 151.209L104.665 138.666Z" fill="white"/>
<path d="M109.902 146.232C107.192 147.796 104.821 148.703 102.789 148.952C100.787 149.147 99.2167 148.72 98.0774 147.672C96.9689 146.605 96.4147 144.969 96.4147 142.765C96.4147 140.383 97.0151 138.009 98.216 135.645C99.4169 133.28 100.956 131.289 102.835 129.672L102.835 129.138C101.357 129.316 100.141 128.969 99.186 128.098C98.2622 127.174 97.8003 125.734 97.8003 123.778C97.8003 121.68 98.293 119.547 99.2783 117.378C100.294 115.192 101.711 113.147 103.528 111.245C105.375 109.325 107.5 107.672 109.902 106.285C112.242 104.934 114.32 104.178 116.137 104.018C117.954 103.858 119.37 104.285 120.386 105.298C121.433 106.258 121.957 107.769 121.957 109.832C121.957 111.787 121.479 113.769 120.525 115.778C119.601 117.734 118.385 119.485 116.876 121.032L116.876 121.565C118.785 120.996 120.34 121.2 121.541 122.178C122.742 123.156 123.342 124.836 123.342 127.218C123.342 129.423 122.773 131.707 121.633 134.072C120.525 136.418 118.954 138.658 116.922 140.792C114.89 142.889 112.55 144.703 109.902 146.232ZM109.902 122.712C110.825 122.178 111.657 121.503 112.396 120.685C113.166 119.814 113.766 118.898 114.197 117.938C114.628 116.943 114.844 115.983 114.844 115.058C114.844 114.169 114.628 113.494 114.197 113.032C113.766 112.534 113.166 112.312 112.396 112.365C111.657 112.365 110.825 112.632 109.902 113.165C108.916 113.734 108.039 114.454 107.269 115.325C106.53 116.143 105.945 117.049 105.514 118.045C105.113 118.987 104.913 119.903 104.913 120.792C104.913 121.716 105.113 122.436 105.514 122.952C105.945 123.414 106.545 123.636 107.315 123.618C108.085 123.565 108.947 123.263 109.902 122.712ZM109.902 139.298C110.918 138.712 111.857 137.956 112.719 137.032C113.581 136.072 114.243 135.049 114.705 133.965C115.167 132.845 115.398 131.769 115.398 130.738C115.398 129.672 115.152 128.872 114.659 128.338C114.197 127.787 113.535 127.529 112.673 127.565C111.841 127.583 110.918 127.885 109.902 128.472C108.824 129.094 107.869 129.876 107.038 130.818C106.207 131.76 105.545 132.783 105.052 133.885C104.59 134.969 104.359 136.045 104.359 137.112C104.359 138.143 104.59 138.952 105.052 139.538C105.545 140.072 106.207 140.329 107.038 140.312C107.869 140.258 108.824 139.92 109.902 139.298ZM129.859 133.749L140.805 96.6026L125.933 105.189L125.933 98.0426L149.442 84.4693L149.442 89.6426L137.803 129.163L129.859 133.749Z" fill="black"/>
</svg>
