<svg width="256" height="256" viewBox="0 0 256 256" fill="none" xmlns="http://www.w3.org/2000/svg">
<path d="M154.461 100.267C154.461 122.064 139.159 148.568 120.282 159.467C101.405 170.365 86.1028 161.53 86.1028 139.733C86.1028 117.937 101.405 91.4318 120.282 80.5334C139.159 69.635 154.461 78.4699 154.461 100.267Z" fill="white" stroke="#1019EF" stroke-width="6.4"/>
<mask id="path-2-inside-1_787_1203" fill="white">
<path d="M120.132 132.533L164.934 106.667L164.934 137.067L120.132 162.933L120.132 132.533Z"/>
</mask>
<path d="M120.132 132.533L164.934 106.667L164.934 137.067L120.132 162.933L120.132 132.533Z" fill="white"/>
<path d="M164.934 106.667L170.477 103.467L170.477 97.0668L164.934 100.267L164.934 106.667ZM164.934 137.067L164.934 143.467L170.477 140.267L170.477 133.867L164.934 137.067ZM120.132 138.933L164.934 113.067L164.934 100.267L120.132 126.133L120.132 138.933ZM159.392 109.867L159.392 140.267L170.477 133.867L170.477 103.467L159.392 109.867ZM164.934 130.667L120.132 156.533L120.132 169.333L164.934 143.467L164.934 130.667Z" fill="#1019EF" mask="url(#path-2-inside-1_787_1203)"/>
<path d="M104.665 138.666L150.729 110.933L148.132 125.067L104.665 151.209L104.665 138.666Z" fill="white"/>
<path d="M98.7542 146.225L98.7542 127.469L98.4113 127.667L93.3606 134.903L93.3606 128.999L99.4713 120.179L103.805 117.677L103.805 143.309L98.7542 146.225ZM117.479 136.098C115.504 137.238 113.748 137.688 112.21 137.448C110.693 137.172 109.508 136.26 108.656 134.712C107.804 133.14 107.378 131.046 107.378 128.43C107.378 125.814 107.804 123.24 108.656 120.708C109.508 118.152 110.693 115.872 112.21 113.868C113.748 111.828 115.504 110.238 117.479 109.098C119.433 107.97 121.179 107.538 122.717 107.802C124.255 108.042 125.45 108.948 126.302 110.52C127.154 112.068 127.58 114.15 127.58 116.766C127.58 119.382 127.154 121.968 126.302 124.524C125.45 127.056 124.255 129.342 122.717 131.382C121.179 133.398 119.433 134.97 117.479 136.098ZM117.479 130.95C118.456 130.386 119.308 129.546 120.035 128.43C120.784 127.302 121.366 125.982 121.781 124.47C122.197 122.958 122.405 121.386 122.405 119.754C122.405 118.122 122.197 116.79 121.781 115.758C121.366 114.726 120.784 114.078 120.035 113.814C119.308 113.538 118.456 113.682 117.479 114.246C116.502 114.81 115.639 115.656 114.891 116.784C114.143 117.912 113.561 119.232 113.145 120.744C112.75 122.244 112.553 123.81 112.553 125.442C112.553 127.074 112.75 128.412 113.145 129.456C113.561 130.488 114.143 131.136 114.891 131.4C115.639 131.664 116.502 131.514 117.479 130.95ZM138.659 123.87C137.017 124.818 135.52 125.262 134.169 125.202C132.839 125.106 131.779 124.554 130.989 123.546C130.22 122.502 129.805 121.062 129.742 119.226L134.544 116.454C134.544 117.438 134.72 118.212 135.074 118.776C135.427 119.34 135.905 119.676 136.508 119.784C137.131 119.856 137.828 119.67 138.597 119.226C139.345 118.794 140.01 118.23 140.592 117.534C141.174 116.838 141.631 116.082 141.964 115.266C142.296 114.426 142.463 113.61 142.463 112.818C142.463 112.026 142.286 111.408 141.933 110.964C141.6 110.508 141.132 110.274 140.53 110.262C139.948 110.214 139.293 110.4 138.565 110.82C138.254 111 137.921 111.24 137.568 111.54C137.214 111.816 136.923 112.08 136.695 112.332L135.572 109.56L140.124 101.604L140.124 101.244L131.145 106.428L131.145 101.892L146.516 93.0177L146.516 96.5097L141.247 105.78C142.411 105.324 143.45 105.216 144.364 105.456C145.3 105.66 146.027 106.2 146.547 107.076C147.087 107.916 147.357 109.02 147.357 110.388C147.357 111.996 146.983 113.664 146.235 115.392C145.507 117.084 144.479 118.686 143.148 120.198C141.818 121.686 140.322 122.91 138.659 123.87Z" fill="black"/>
</svg>
