<svg width="256" height="256" viewBox="0 0 256 256" fill="none" xmlns="http://www.w3.org/2000/svg">
<path d="M154.461 100.267C154.461 122.063 139.159 148.568 120.282 159.467C101.405 170.365 86.1028 161.53 86.1028 139.733C86.1028 117.936 101.405 91.4316 120.282 80.5332C139.159 69.6348 154.461 78.4697 154.461 100.267Z" fill="white" stroke="#1019EF" stroke-width="6.4"/>
<mask id="path-2-inside-1_787_1636" fill="white">
<path d="M120.132 132.533L164.934 106.667L164.934 137.067L120.132 162.933L120.132 132.533Z"/>
</mask>
<path d="M120.132 132.533L164.934 106.667L164.934 137.067L120.132 162.933L120.132 132.533Z" fill="white"/>
<path d="M164.934 106.667L170.477 103.467L170.477 97.0665L164.934 100.267L164.934 106.667ZM164.934 137.067L164.934 143.467L170.477 140.267L170.477 133.867L164.934 137.067ZM120.132 138.933L164.934 113.067L164.934 100.267L120.132 126.133L120.132 138.933ZM159.391 109.867L159.391 140.267L170.477 133.867L170.477 103.467L159.391 109.867ZM164.934 130.667L120.132 156.533L120.132 169.333L164.934 143.467L164.934 130.667Z" fill="#1019EF" mask="url(#path-2-inside-1_787_1636)"/>
<path d="M104.665 138.665L150.729 110.933L148.132 125.066L104.665 151.208L104.665 138.665Z" fill="white"/>
<path d="M99.5999 145.736L99.5999 126.98L99.2569 127.178L94.2063 134.414L94.2063 128.51L100.317 119.69L104.651 117.188L104.651 142.82L99.5999 145.736ZM116.766 136.51C115.124 137.458 113.638 137.908 112.307 137.86C110.977 137.788 109.917 137.248 109.127 136.24C108.338 135.232 107.911 133.834 107.849 132.046L112.65 129.274C112.65 130.186 112.827 130.912 113.18 131.452C113.554 131.98 114.043 132.298 114.646 132.406C115.269 132.478 115.955 132.298 116.703 131.866C117.452 131.434 118.117 130.87 118.699 130.174C119.301 129.466 119.769 128.692 120.102 127.852C120.434 127.012 120.6 126.208 120.6 125.44C120.6 124.6 120.424 123.958 120.07 123.514C119.717 123.07 119.208 122.86 118.543 122.884C117.878 122.908 117.098 123.178 116.205 123.694L109.595 127.51L110.624 113.74L123.749 106.162L123.749 110.698L114.396 116.098L113.991 120.94L117.545 118.888C119.104 117.988 120.476 117.556 121.66 117.592C122.866 117.616 123.801 118.084 124.466 118.996C125.132 119.884 125.464 121.144 125.464 122.776C125.464 124.432 125.09 126.136 124.342 127.888C123.593 129.64 122.554 131.284 121.224 132.82C119.915 134.32 118.428 135.55 116.766 136.51ZM137.743 123.715L137.743 118.423L127.111 124.561L127.111 121.285L135.56 99.3427L142.918 95.0947L142.918 110.935L145.506 109.441L145.506 113.941L142.918 115.435L142.918 120.727L137.743 123.715ZM132.131 117.163L137.711 113.941L137.711 103.069L137.4 103.249L132.131 117.163Z" fill="black"/>
</svg>
