<svg width="256" height="256" viewBox="0 0 256 256" fill="none" xmlns="http://www.w3.org/2000/svg">
<path d="M154.461 100.267C154.461 122.064 139.159 148.568 120.282 159.467C101.405 170.365 86.1028 161.53 86.1028 139.733C86.1028 117.937 101.405 91.4318 120.282 80.5334C139.159 69.635 154.461 78.4699 154.461 100.267Z" fill="white" stroke="#1019EF" stroke-width="6.4"/>
<mask id="path-2-inside-1_787_1626" fill="white">
<path d="M120.132 132.533L164.934 106.667L164.934 137.067L120.132 162.933L120.132 132.533Z"/>
</mask>
<path d="M120.132 132.533L164.934 106.667L164.934 137.067L120.132 162.933L120.132 132.533Z" fill="white"/>
<path d="M164.934 106.667L170.477 103.467L170.477 97.0668L164.934 100.267L164.934 106.667ZM164.934 137.067L164.934 143.467L170.477 140.267L170.477 133.867L164.934 137.067ZM120.132 138.933L164.934 113.067L164.934 100.267L120.132 126.133L120.132 138.933ZM159.391 109.867L159.391 140.267L170.477 133.867L170.477 103.467L159.391 109.867ZM164.934 130.667L120.132 156.533L120.132 169.333L164.934 143.467L164.934 130.667Z" fill="#1019EF" mask="url(#path-2-inside-1_787_1626)"/>
<path d="M104.665 138.666L150.729 110.933L148.132 125.067L104.665 151.209L104.665 138.666Z" fill="white"/>
<path d="M99.4629 145.816L99.4629 127.06L99.1199 127.258L94.0693 134.494L94.0693 128.59L100.18 119.77L104.514 117.268L104.514 142.9L99.4629 145.816ZM117.907 135.167L117.907 129.875L107.276 136.013L107.276 132.737L115.725 110.795L123.082 106.547L123.082 122.387L125.67 120.893L125.67 125.393L123.082 126.887L123.082 132.179L117.907 135.167ZM112.295 128.615L117.876 125.393L117.876 114.521L117.564 114.701L112.295 128.615ZM137.88 123.636L137.88 118.344L127.248 124.482L127.248 121.206L135.697 99.2636L143.055 95.0156L143.055 110.856L145.643 109.362L145.643 113.862L143.055 115.356L143.055 120.648L137.88 123.636ZM132.268 117.084L137.848 113.862L137.848 102.99L137.537 103.17L132.268 117.084Z" fill="black"/>
</svg>
