<svg width="256" height="256" viewBox="0 0 256 256" fill="none" xmlns="http://www.w3.org/2000/svg">
<path d="M154.461 100.267C154.461 122.063 139.159 148.568 120.282 159.467C101.405 170.365 86.1028 161.53 86.1028 139.733C86.1028 117.936 101.405 91.4316 120.282 80.5332C139.159 69.6348 154.461 78.4697 154.461 100.267Z" fill="white" stroke="#1019EF" stroke-width="6.4"/>
<mask id="path-2-inside-1_787_1634" fill="white">
<path d="M120.132 132.533L164.934 106.667L164.934 137.067L120.132 162.933L120.132 132.533Z"/>
</mask>
<path d="M120.132 132.533L164.934 106.667L164.934 137.067L120.132 162.933L120.132 132.533Z" fill="white"/>
<path d="M164.934 106.667L170.477 103.467L170.477 97.0665L164.934 100.267L164.934 106.667ZM164.934 137.067L164.934 143.467L170.477 140.267L170.477 133.867L164.934 137.067ZM120.132 138.933L164.934 113.067L164.934 100.267L120.132 126.133L120.132 138.933ZM159.392 109.867L159.392 140.267L170.477 133.867L170.477 103.467L159.392 109.867ZM164.934 130.667L120.132 156.533L120.132 169.333L164.934 143.467L164.934 130.667Z" fill="#1019EF" mask="url(#path-2-inside-1_787_1634)"/>
<path d="M104.665 138.665L150.729 110.933L148.132 125.066L104.665 151.208L104.665 138.665Z" fill="white"/>
<path d="M100.383 145.284L100.383 126.528L100.04 126.726L94.9894 133.962L94.9894 128.058L101.1 119.238L105.434 116.736L105.434 142.368L100.383 145.284ZM117.549 136.058C115.907 137.006 114.421 137.456 113.09 137.408C111.76 137.336 110.7 136.796 109.91 135.788C109.121 134.78 108.695 133.382 108.632 131.594L113.433 128.822C113.433 129.734 113.61 130.46 113.963 131C114.338 131.528 114.826 131.846 115.429 131.954C116.052 132.026 116.738 131.846 117.486 131.414C118.235 130.982 118.9 130.418 119.482 129.722C120.085 129.014 120.552 128.24 120.885 127.4C121.217 126.56 121.384 125.756 121.384 124.988C121.384 124.148 121.207 123.506 120.854 123.062C120.5 122.618 119.991 122.408 119.326 122.432C118.661 122.456 117.881 122.726 116.988 123.242L110.378 127.058L111.407 113.288L124.532 105.71L124.532 110.246L115.179 115.646L114.774 120.488L118.328 118.436C119.887 117.536 121.259 117.104 122.444 117.14C123.649 117.164 124.584 117.632 125.249 118.544C125.915 119.432 126.247 120.692 126.247 122.324C126.247 123.98 125.873 125.684 125.125 127.436C124.377 129.188 123.337 130.832 122.007 132.368C120.698 133.868 119.212 135.098 117.549 136.058ZM128.705 128.933L128.705 125.621L137.965 110.807C138.027 110.699 138.089 110.591 138.152 110.483C138.235 110.363 138.307 110.249 138.37 110.141C139.243 108.725 139.866 107.597 140.24 106.757C140.635 105.905 140.833 105.083 140.833 104.291C140.833 103.571 140.677 103.013 140.365 102.617C140.053 102.197 139.638 101.969 139.118 101.933C138.598 101.897 138.017 102.065 137.372 102.437C136.624 102.869 135.948 103.475 135.346 104.255C134.764 105.023 134.296 105.905 133.943 106.901C133.61 107.861 133.423 108.869 133.382 109.925L128.767 112.589C128.767 112.493 128.767 112.397 128.767 112.301C128.767 110.525 129.121 108.689 129.827 106.793C130.534 104.897 131.552 103.133 132.883 101.501C134.213 99.8686 135.73 98.5606 137.435 97.5766C138.993 96.6766 140.396 96.2266 141.643 96.2266C142.89 96.2026 143.867 96.6106 144.574 97.4506C145.281 98.2666 145.634 99.4546 145.634 101.015C145.634 102.455 145.27 104.009 144.543 105.677C143.815 107.345 142.714 109.337 141.238 111.653L136.094 119.771L136.094 120.131L145.135 114.911L145.135 119.447L128.705 128.933Z" fill="black"/>
</svg>
