<svg width="256" height="256" viewBox="0 0 256 256" fill="none" xmlns="http://www.w3.org/2000/svg">
<path d="M154.461 100.267C154.461 122.064 139.159 148.568 120.282 159.467C101.405 170.365 86.1028 161.53 86.1028 139.733C86.1028 117.937 101.405 91.4318 120.282 80.5334C139.159 69.635 154.461 78.4699 154.461 100.267Z" fill="white" stroke="#1019EF" stroke-width="6.4"/>
<mask id="path-2-inside-1_787_1225" fill="white">
<path d="M120.132 132.533L164.934 106.667L164.934 137.067L120.132 162.933L120.132 132.533Z"/>
</mask>
<path d="M120.132 132.533L164.934 106.667L164.934 137.067L120.132 162.933L120.132 132.533Z" fill="white"/>
<path d="M164.934 106.667L170.477 103.467L170.477 97.0668L164.934 100.267L164.934 106.667ZM164.934 137.067L164.934 143.467L170.477 140.267L170.477 133.867L164.934 137.067ZM120.132 138.933L164.934 113.067L164.934 100.267L120.132 126.133L120.132 138.933ZM159.391 109.867L159.391 140.267L170.477 133.867L170.477 103.467L159.391 109.867ZM164.934 130.667L120.132 156.533L120.132 169.333L164.934 143.467L164.934 130.667Z" fill="#1019EF" mask="url(#path-2-inside-1_787_1225)"/>
<path d="M104.665 138.666L150.729 110.933L148.132 125.067L104.665 151.209L104.665 138.666Z" fill="white"/>
<path d="M100.383 145.284L100.383 126.528L100.04 126.726L94.9896 133.962L94.9896 128.058L101.1 119.238L105.434 116.736L105.434 142.368L100.383 145.284ZM109.007 140.306L109.007 136.994L118.266 122.18C118.328 122.072 118.391 121.964 118.453 121.856C118.536 121.736 118.609 121.622 118.671 121.514C119.544 120.098 120.168 118.97 120.542 118.13C120.937 117.278 121.134 116.456 121.134 115.664C121.134 114.944 120.978 114.386 120.667 113.99C120.355 113.57 119.939 113.342 119.42 113.306C118.9 113.27 118.318 113.438 117.674 113.81C116.925 114.242 116.25 114.848 115.647 115.628C115.065 116.396 114.598 117.278 114.244 118.274C113.912 119.234 113.725 120.242 113.683 121.298L109.069 123.962C109.069 123.866 109.069 123.77 109.069 123.674C109.069 121.898 109.422 120.062 110.129 118.166C110.836 116.27 111.854 114.506 113.184 112.874C114.514 111.242 116.032 109.934 117.736 108.95C119.295 108.05 120.698 107.6 121.945 107.6C123.192 107.576 124.169 107.984 124.876 108.824C125.582 109.64 125.936 110.828 125.936 112.388C125.936 113.828 125.572 115.382 124.844 117.05C124.117 118.718 123.015 120.71 121.54 123.026L116.395 131.144L116.395 131.504L125.437 126.284L125.437 130.82L109.007 140.306ZM136.821 124.931C135.179 125.879 133.693 126.329 132.363 126.281C131.033 126.209 129.973 125.669 129.183 124.661C128.393 123.653 127.967 122.255 127.905 120.467L132.706 117.695C132.706 118.607 132.883 119.333 133.236 119.873C133.61 120.401 134.099 120.719 134.701 120.827C135.325 120.899 136.011 120.719 136.759 120.287C137.507 119.855 138.172 119.291 138.754 118.595C139.357 117.887 139.825 117.113 140.157 116.273C140.49 115.433 140.656 114.629 140.656 113.861C140.656 113.021 140.48 112.379 140.126 111.935C139.773 111.491 139.264 111.281 138.599 111.305C137.933 111.329 137.154 111.599 136.26 112.115L129.651 115.931L130.68 102.161L143.805 94.5827L143.805 99.1187L134.452 104.519L134.047 109.361L137.601 107.309C139.16 106.409 140.532 105.977 141.716 106.013C142.922 106.037 143.857 106.505 144.522 107.417C145.187 108.305 145.52 109.565 145.52 111.197C145.52 112.853 145.146 114.557 144.397 116.309C143.649 118.061 142.61 119.705 141.28 121.241C139.97 122.741 138.484 123.971 136.821 124.931Z" fill="black"/>
</svg>
