<svg width="256" height="256" viewBox="0 0 256 256" fill="none" xmlns="http://www.w3.org/2000/svg">
<path d="M154.461 100.267C154.461 122.063 139.159 148.568 120.282 159.467C101.405 170.365 86.1028 161.53 86.1028 139.733C86.1028 117.936 101.405 91.4316 120.282 80.5332C139.159 69.6348 154.461 78.4697 154.461 100.267Z" fill="white" stroke="#1019EF" stroke-width="6.4"/>
<mask id="path-2-inside-1_787_1655" fill="white">
<path d="M120.132 132.533L164.934 106.667L164.934 137.067L120.132 162.933L120.132 132.533Z"/>
</mask>
<path d="M120.132 132.533L164.934 106.667L164.934 137.067L120.132 162.933L120.132 132.533Z" fill="white"/>
<path d="M164.934 106.667L170.477 103.467L170.477 97.0665L164.934 100.267L164.934 106.667ZM164.934 137.067L164.934 143.467L170.477 140.267L170.477 133.867L164.934 137.067ZM120.132 138.933L164.934 113.067L164.934 100.267L120.132 126.133L120.132 138.933ZM159.392 109.867L159.392 140.267L170.477 133.867L170.477 103.467L159.392 109.867ZM164.934 130.667L120.132 156.533L120.132 169.333L164.934 143.467L164.934 130.667Z" fill="#1019EF" mask="url(#path-2-inside-1_787_1655)"/>
<path d="M104.665 138.665L150.729 110.933L148.132 125.066L104.665 151.208L104.665 138.665Z" fill="white"/>
<path d="M101.366 144.717L101.366 125.961L101.023 126.159L95.9723 133.395L95.9723 127.491L102.083 118.671L106.417 116.169L106.417 141.801L101.366 144.717ZM111.766 138.712L119.155 113.638L109.116 119.434L109.116 114.61L124.985 105.448L124.985 108.94L117.129 135.616L111.766 138.712ZM135.181 125.878C133.539 126.826 132.043 127.27 130.692 127.21C129.362 127.114 128.302 126.562 127.512 125.554C126.743 124.51 126.327 123.07 126.265 121.234L131.066 118.462C131.066 119.446 131.243 120.22 131.596 120.784C131.949 121.348 132.427 121.684 133.03 121.792C133.654 121.864 134.35 121.678 135.119 121.234C135.867 120.802 136.532 120.238 137.114 119.542C137.696 118.846 138.154 118.09 138.486 117.274C138.819 116.434 138.985 115.618 138.985 114.826C138.985 114.034 138.808 113.416 138.455 112.972C138.122 112.516 137.655 112.282 137.052 112.27C136.47 112.222 135.815 112.408 135.088 112.828C134.776 113.008 134.444 113.248 134.09 113.548C133.737 113.824 133.446 114.088 133.217 114.34L132.095 111.568L136.647 103.612L136.647 103.252L127.668 108.436L127.668 103.9L143.038 95.0256L143.038 98.5176L137.769 107.788C138.933 107.332 139.972 107.224 140.887 107.464C141.822 107.668 142.55 108.208 143.069 109.084C143.61 109.924 143.88 111.028 143.88 112.396C143.88 114.004 143.506 115.672 142.757 117.4C142.03 119.092 141.001 120.694 139.671 122.206C138.341 123.694 136.844 124.918 135.181 125.878Z" fill="black"/>
</svg>
