<svg width="256" height="256" viewBox="0 0 256 256" fill="none" xmlns="http://www.w3.org/2000/svg">
<path d="M154.461 100.267C154.461 122.064 139.159 148.568 120.282 159.467C101.405 170.365 86.1028 161.53 86.1028 139.733C86.1028 117.937 101.405 91.4318 120.282 80.5334C139.159 69.635 154.461 78.4699 154.461 100.267Z" fill="white" stroke="#1019EF" stroke-width="6.4"/>
<mask id="path-2-inside-1_787_1221" fill="white">
<path d="M120.132 132.533L164.934 106.667L164.934 137.067L120.132 162.933L120.132 132.533Z"/>
</mask>
<path d="M120.132 132.533L164.934 106.667L164.934 137.067L120.132 162.933L120.132 132.533Z" fill="white"/>
<path d="M164.934 106.667L170.477 103.467L170.477 97.0668L164.934 100.267L164.934 106.667ZM164.934 137.067L164.934 143.467L170.477 140.267L170.477 133.867L164.934 137.067ZM120.132 138.933L164.934 113.067L164.934 100.267L120.132 126.133L120.132 138.933ZM159.392 109.867L159.392 140.267L170.477 133.867L170.477 103.467L159.392 109.867ZM164.934 130.667L120.132 156.533L120.132 169.333L164.934 143.467L164.934 130.667Z" fill="#1019EF" mask="url(#path-2-inside-1_787_1221)"/>
<path d="M104.665 138.666L150.729 110.933L148.132 125.067L104.665 151.209L104.665 138.666Z" fill="white"/>
<path d="M103.04 143.75L103.04 124.994L102.697 125.192L97.6467 132.428L97.6467 126.524L103.757 117.704L108.091 115.202L108.091 140.834L103.04 143.75ZM111.664 138.771L111.664 135.459L120.923 120.645C120.986 120.537 121.048 120.429 121.11 120.321C121.193 120.201 121.266 120.087 121.328 119.979C122.201 118.563 122.825 117.435 123.199 116.595C123.594 115.743 123.791 114.921 123.791 114.129C123.791 113.409 123.636 112.851 123.324 112.455C123.012 112.035 122.596 111.807 122.077 111.771C121.557 111.735 120.975 111.903 120.331 112.275C119.583 112.707 118.907 113.313 118.304 114.093C117.722 114.861 117.255 115.743 116.901 116.739C116.569 117.699 116.382 118.707 116.34 119.763L111.726 122.427C111.726 122.331 111.726 122.235 111.726 122.139C111.726 120.363 112.079 118.527 112.786 116.631C113.493 114.735 114.511 112.971 115.841 111.339C117.172 109.707 118.689 108.399 120.393 107.415C121.952 106.515 123.355 106.065 124.602 106.065C125.849 106.041 126.826 106.449 127.533 107.289C128.239 108.105 128.593 109.293 128.593 110.853C128.593 112.293 128.229 113.847 127.502 115.515C126.774 117.183 125.672 119.175 124.197 121.491L119.053 129.609L119.053 129.969L128.094 124.749L128.094 129.285L111.664 138.771ZM135.831 124.819L135.831 106.063L135.488 106.261L130.437 113.497L130.437 107.593L136.548 98.7725L140.882 96.2705L140.882 121.903L135.831 124.819Z" fill="black"/>
</svg>
