<svg width="256" height="256" viewBox="0 0 256 256" fill="none" xmlns="http://www.w3.org/2000/svg">
<path d="M154.461 100.267C154.461 122.063 139.159 148.568 120.282 159.467C101.405 170.365 86.1028 161.53 86.1028 139.733C86.1028 117.936 101.405 91.4316 120.282 80.5332C139.159 69.6348 154.461 78.4697 154.461 100.267Z" fill="white" stroke="#1019EF" stroke-width="6.4"/>
<mask id="path-2-inside-1_787_2067" fill="white">
<path d="M120.132 132.533L164.934 106.667L164.934 137.067L120.132 162.933L120.132 132.533Z"/>
</mask>
<path d="M120.132 132.533L164.934 106.667L164.934 137.067L120.132 162.933L120.132 132.533Z" fill="white"/>
<path d="M164.934 106.667L170.477 103.467L170.477 97.0665L164.934 100.267L164.934 106.667ZM164.934 137.067L164.934 143.467L170.477 140.267L170.477 133.867L164.934 137.067ZM120.132 138.933L164.934 113.067L164.934 100.267L120.132 126.133L120.132 138.933ZM159.392 109.867L159.392 140.267L170.477 133.867L170.477 103.467L159.392 109.867ZM164.934 130.667L120.132 156.533L120.132 169.333L164.934 143.467L164.934 130.667Z" fill="#1019EF" mask="url(#path-2-inside-1_787_2067)"/>
<path d="M104.665 138.665L150.729 110.933L148.132 125.066L104.665 151.208L104.665 138.665Z" fill="white"/>
<path d="M90.5495 150.962L90.5495 147.65L99.809 132.836C99.8714 132.728 99.9337 132.62 99.9961 132.512C100.079 132.392 100.152 132.278 100.214 132.17C101.087 130.754 101.711 129.626 102.085 128.786C102.48 127.934 102.677 127.112 102.677 126.32C102.677 125.6 102.521 125.042 102.21 124.646C101.898 124.226 101.482 123.998 100.963 123.962C100.443 123.926 99.861 124.094 99.2167 124.466C98.4684 124.898 97.7929 125.504 97.1902 126.284C96.6082 127.052 96.1406 127.934 95.7872 128.93C95.4547 129.89 95.2676 130.898 95.226 131.954L90.6119 134.618C90.6119 134.522 90.6119 134.426 90.6119 134.33C90.6119 132.554 90.9652 130.718 91.6719 128.822C92.3785 126.926 93.397 125.162 94.7272 123.53C96.0574 121.898 97.5747 120.59 99.279 119.606C100.838 118.706 102.241 118.256 103.488 118.256C104.735 118.232 105.712 118.64 106.419 119.48C107.125 120.296 107.479 121.484 107.479 123.044C107.479 124.484 107.115 126.038 106.387 127.706C105.66 129.374 104.558 131.366 103.083 133.682L97.9384 141.8L97.9384 142.16L106.98 136.94L106.98 141.476L90.5495 150.962ZM119.923 134.687C117.949 135.827 116.192 136.277 114.654 136.037C113.137 135.761 111.952 134.849 111.1 133.301C110.248 131.729 109.822 129.635 109.822 127.019C109.822 124.403 110.248 121.829 111.1 119.297C111.952 116.741 113.137 114.461 114.654 112.457C116.192 110.417 117.949 108.827 119.923 107.687C121.877 106.559 123.623 106.127 125.161 106.391C126.699 106.631 127.894 107.537 128.746 109.109C129.598 110.657 130.025 112.739 130.025 115.355C130.025 117.971 129.598 120.557 128.746 123.113C127.894 125.645 126.699 127.931 125.161 129.971C123.623 131.987 121.877 133.559 119.923 134.687ZM119.923 129.539C120.9 128.975 121.752 128.135 122.48 127.019C123.228 125.891 123.81 124.571 124.226 123.059C124.641 121.547 124.849 119.975 124.849 118.343C124.849 116.711 124.641 115.379 124.226 114.347C123.81 113.315 123.228 112.667 122.48 112.403C121.752 112.127 120.9 112.271 119.923 112.835C118.946 113.399 118.084 114.245 117.336 115.373C116.587 116.501 116.005 117.821 115.59 119.333C115.195 120.833 114.997 122.399 114.997 124.031C114.997 125.663 115.195 127.001 115.59 128.045C116.005 129.077 116.587 129.725 117.336 129.989C118.084 130.253 118.946 130.103 119.923 129.539ZM141.103 122.459C139.461 123.407 137.965 123.851 136.614 123.791C135.284 123.695 134.224 123.143 133.434 122.135C132.665 121.091 132.249 119.651 132.187 117.815L136.988 115.043C136.988 116.027 137.165 116.801 137.518 117.365C137.871 117.929 138.349 118.265 138.952 118.373C139.576 118.445 140.272 118.259 141.041 117.815C141.789 117.383 142.454 116.819 143.036 116.123C143.618 115.427 144.076 114.671 144.408 113.855C144.741 113.015 144.907 112.199 144.907 111.407C144.907 110.615 144.73 109.997 144.377 109.553C144.044 109.097 143.577 108.863 142.974 108.851C142.392 108.803 141.737 108.989 141.01 109.409C140.698 109.589 140.365 109.829 140.012 110.129C139.659 110.405 139.368 110.669 139.139 110.921L138.017 108.149L142.569 100.193L142.569 99.8326L133.59 105.017L133.59 100.481L148.96 91.6066L148.96 95.0986L143.691 104.369C144.855 103.913 145.894 103.805 146.809 104.045C147.744 104.249 148.471 104.789 148.991 105.665C149.532 106.505 149.802 107.609 149.802 108.977C149.802 110.585 149.428 112.253 148.679 113.981C147.952 115.673 146.923 117.275 145.593 118.787C144.263 120.275 142.766 121.499 141.103 122.459Z" fill="black"/>
</svg>
