<svg width="256" height="256" viewBox="0 0 256 256" fill="none" xmlns="http://www.w3.org/2000/svg">
<path d="M154.461 100.267C154.461 122.064 139.159 148.568 120.282 159.467C101.405 170.365 86.1028 161.53 86.1028 139.733C86.1028 117.937 101.405 91.4318 120.282 80.5334C139.159 69.635 154.461 78.4699 154.461 100.267Z" fill="white" stroke="#1019EF" stroke-width="6.4"/>
<mask id="path-2-inside-1_787_1625" fill="white">
<path d="M120.132 132.533L164.934 106.667L164.934 137.067L120.132 162.933L120.132 132.533Z"/>
</mask>
<path d="M120.132 132.533L164.934 106.667L164.934 137.067L120.132 162.933L120.132 132.533Z" fill="white"/>
<path d="M164.934 106.667L170.477 103.467L170.477 97.0668L164.934 100.267L164.934 106.667ZM164.934 137.067L164.934 143.467L170.477 140.267L170.477 133.867L164.934 137.067ZM120.132 138.933L164.934 113.067L164.934 100.267L120.132 126.133L120.132 138.933ZM159.392 109.867L159.392 140.267L170.477 133.867L170.477 103.467L159.392 109.867ZM164.934 130.667L120.132 156.533L120.132 169.333L164.934 143.467L164.934 130.667Z" fill="#1019EF" mask="url(#path-2-inside-1_787_1625)"/>
<path d="M104.665 138.666L150.729 110.933L148.132 125.067L104.665 151.209L104.665 138.666Z" fill="white"/>
<path d="M100.231 145.372L100.231 126.616L99.8878 126.814L94.8371 134.05L94.8371 128.146L100.948 119.326L105.281 116.824L105.281 142.456L100.231 145.372ZM118.675 134.724L118.675 129.432L108.043 135.57L108.043 132.294L116.492 110.352L123.85 106.104L123.85 121.944L126.438 120.45L126.438 124.95L123.85 126.444L123.85 131.736L118.675 134.724ZM113.063 128.172L118.644 124.95L118.644 114.078L118.332 114.258L113.063 128.172ZM137.182 124.722C135.54 125.67 134.044 126.114 132.693 126.054C131.363 125.958 130.302 125.406 129.513 124.398C128.744 123.354 128.328 121.914 128.266 120.078L133.067 117.306C133.067 118.29 133.244 119.064 133.597 119.628C133.95 120.192 134.428 120.528 135.031 120.636C135.655 120.708 136.351 120.522 137.12 120.078C137.868 119.646 138.533 119.082 139.115 118.386C139.697 117.69 140.154 116.934 140.487 116.118C140.82 115.278 140.986 114.462 140.986 113.67C140.986 112.878 140.809 112.26 140.456 111.816C140.123 111.36 139.656 111.126 139.053 111.114C138.471 111.066 137.816 111.252 137.089 111.672C136.777 111.852 136.444 112.092 136.091 112.392C135.738 112.668 135.447 112.932 135.218 113.184L134.096 110.412L138.648 102.456L138.648 102.096L129.669 107.28L129.669 102.744L145.039 93.8703L145.039 97.3623L139.77 106.632C140.934 106.176 141.973 106.068 142.888 106.308C143.823 106.512 144.55 107.052 145.07 107.928C145.61 108.768 145.881 109.872 145.881 111.24C145.881 112.848 145.506 114.516 144.758 116.244C144.031 117.936 143.002 119.538 141.672 121.05C140.341 122.538 138.845 123.762 137.182 124.722Z" fill="black"/>
</svg>
