<svg width="256" height="256" viewBox="0 0 256 256" fill="none" xmlns="http://www.w3.org/2000/svg">
<path d="M154.461 100.267C154.461 122.063 139.159 148.568 120.282 159.467C101.405 170.365 86.1028 161.53 86.1028 139.733C86.1028 117.936 101.405 91.4317 120.282 80.5333C139.159 69.6349 154.461 78.4698 154.461 100.267Z" fill="white" stroke="#1019EF" stroke-width="6.4"/>
<mask id="path-2-inside-1_787_780" fill="white">
<path d="M120.132 132.533L164.934 106.667L164.934 137.067L120.132 162.933L120.132 132.533Z"/>
</mask>
<path d="M120.132 132.533L164.934 106.667L164.934 137.067L120.132 162.933L120.132 132.533Z" fill="white"/>
<path d="M164.934 106.667L170.477 103.467L170.477 97.0665L164.934 100.267L164.934 106.667ZM164.934 137.067L164.934 143.467L170.477 140.267L170.477 133.867L164.934 137.067ZM120.132 138.933L164.934 113.067L164.934 100.267L120.132 126.133L120.132 138.933ZM159.392 109.867L159.392 140.267L170.477 133.867L170.477 103.467L159.392 109.867ZM164.934 130.667L120.132 156.533L120.132 169.333L164.934 143.467L164.934 130.667Z" fill="#1019EF" mask="url(#path-2-inside-1_787_780)"/>
<path d="M104.665 138.665L150.729 110.933L148.132 125.067L104.665 151.209L104.665 138.665Z" fill="white"/>
<path d="M107.518 147.661C104.932 149.154 102.622 149.937 100.59 150.008C98.5884 150.025 97.018 149.368 95.8787 148.034C94.7702 146.683 94.2159 144.745 94.2159 142.221C94.2159 140.692 94.5084 138.905 95.0935 136.861C95.6785 134.817 96.5253 132.603 97.6338 130.221L107.518 108.674L116.017 103.768L107.333 122.434C107.857 121.954 108.365 121.537 108.858 121.181C109.381 120.772 109.874 120.434 110.336 120.168C112.429 118.959 114.277 118.425 115.878 118.568C117.51 118.657 118.788 119.359 119.712 120.674C120.635 121.99 121.097 123.839 121.097 126.221C121.097 128.888 120.512 131.59 119.342 134.328C118.203 137.048 116.602 139.572 114.539 141.901C112.506 144.212 110.166 146.132 107.518 147.661ZM107.749 140.381C108.858 139.741 109.843 138.905 110.705 137.874C111.567 136.808 112.229 135.661 112.691 134.434C113.184 133.154 113.43 131.874 113.43 130.594C113.43 129.35 113.184 128.408 112.691 127.768C112.229 127.074 111.567 126.71 110.705 126.674C109.843 126.639 108.858 126.941 107.749 127.581C106.64 128.221 105.624 129.074 104.701 130.141C103.808 131.154 103.115 132.283 102.622 133.528C102.129 134.772 101.883 136.017 101.883 137.261C101.883 138.541 102.129 139.537 102.622 140.248C103.115 140.959 103.808 141.323 104.701 141.341C105.624 141.341 106.64 141.021 107.749 140.381ZM124.673 136.743L124.673 131.837L138.391 109.89C138.483 109.73 138.576 109.57 138.668 109.41C138.791 109.232 138.899 109.063 138.991 108.903C140.284 106.805 141.208 105.134 141.763 103.89C142.348 102.628 142.64 101.41 142.64 100.237C142.64 99.1699 142.409 98.3432 141.947 97.7566C141.485 97.1344 140.87 96.7966 140.1 96.7432C139.33 96.6899 138.468 96.9388 137.513 97.4899C136.405 98.1299 135.404 99.0277 134.511 100.183C133.649 101.321 132.956 102.628 132.433 104.103C131.94 105.525 131.663 107.019 131.601 108.583L124.765 112.53C124.765 112.388 124.765 112.245 124.765 112.103C124.765 109.472 125.289 106.752 126.336 103.943C127.383 101.134 128.891 98.521 130.862 96.1033C132.833 93.6855 135.081 91.7477 137.606 90.2899C139.915 88.9566 141.993 88.2899 143.841 88.2899C145.688 88.2544 147.136 88.8588 148.183 90.1032C149.23 91.3121 149.753 93.0721 149.753 95.3832C149.753 97.5166 149.214 99.8188 148.136 102.29C147.059 104.761 145.427 107.712 143.241 111.143L135.62 123.17L135.62 123.703L149.014 115.97L149.014 122.69L124.673 136.743Z" fill="black"/>
</svg>
