<svg width="256" height="256" viewBox="0 0 256 256" fill="none" xmlns="http://www.w3.org/2000/svg">
<path d="M154.461 100.267C154.461 122.063 139.159 148.568 120.282 159.467C101.405 170.365 86.1028 161.53 86.1028 139.733C86.1028 117.936 101.405 91.4317 120.282 80.5333C139.159 69.6349 154.461 78.4698 154.461 100.267Z" fill="white" stroke="#1019EF" stroke-width="6.4"/>
<mask id="path-2-inside-1_787_768" fill="white">
<path d="M120.132 132.533L164.934 106.667L164.934 137.067L120.132 162.933L120.132 132.533Z"/>
</mask>
<path d="M120.132 132.533L164.934 106.667L164.934 137.067L120.132 162.933L120.132 132.533Z" fill="white"/>
<path d="M164.934 106.667L170.477 103.467L170.477 97.0665L164.934 100.267L164.934 106.667ZM164.934 137.067L164.934 143.467L170.477 140.267L170.477 133.867L164.934 137.067ZM120.132 138.933L164.934 113.067L164.934 100.267L120.132 126.133L120.132 138.933ZM159.391 109.867L159.391 140.267L170.477 133.867L170.477 103.467L159.391 109.867ZM164.934 130.667L120.132 156.533L120.132 169.333L164.934 143.467L164.934 130.667Z" fill="#1019EF" mask="url(#path-2-inside-1_787_768)"/>
<path d="M104.665 138.665L150.729 110.933L148.132 125.067L104.665 151.209L104.665 138.665Z" fill="white"/>
<path d="M105.466 148.846C103.034 150.25 100.832 150.917 98.8612 150.846C96.8905 150.739 95.3201 149.939 94.15 148.446C92.9799 146.952 92.3487 144.881 92.2563 142.232L99.3693 138.126C99.3693 139.477 99.631 140.552 100.154 141.352C100.709 142.135 101.432 142.606 102.325 142.766C103.249 142.872 104.265 142.606 105.374 141.966C106.482 141.326 107.468 140.49 108.33 139.459C109.223 138.41 109.916 137.264 110.408 136.019C110.901 134.775 111.147 133.584 111.147 132.446C111.147 131.201 110.885 130.25 110.362 129.592C109.839 128.935 109.084 128.624 108.099 128.659C107.113 128.695 105.959 129.095 104.635 129.859L94.8428 135.512L96.367 115.112L115.812 103.886L115.812 110.606L101.956 118.606L101.355 125.779L106.621 122.739C108.93 121.406 110.962 120.766 112.718 120.819C114.504 120.855 115.889 121.548 116.875 122.899C117.86 124.215 118.353 126.081 118.353 128.499C118.353 130.952 117.798 133.477 116.69 136.072C115.581 138.668 114.042 141.104 112.071 143.379C110.131 145.601 107.929 147.424 105.466 148.846ZM136.959 130.663C134.033 132.352 131.432 133.019 129.153 132.663C126.905 132.255 125.15 130.903 123.888 128.61C122.625 126.281 121.994 123.179 121.994 119.303C121.994 115.428 122.625 111.615 123.888 107.863C125.15 104.077 126.905 100.699 129.153 97.7301C131.432 94.7079 134.033 92.3523 136.959 90.6635C139.853 88.9923 142.44 88.3523 144.718 88.7435C146.997 89.099 148.767 90.4412 150.03 92.7701C151.292 95.0635 151.924 98.1479 151.924 102.023C151.924 105.899 151.292 109.73 150.03 113.517C148.767 117.268 146.997 120.655 144.718 123.677C142.44 126.663 139.853 128.992 136.959 130.663ZM136.959 123.037C138.406 122.201 139.668 120.957 140.746 119.303C141.855 117.632 142.717 115.677 143.333 113.437C143.948 111.197 144.256 108.868 144.256 106.45C144.256 104.032 143.948 102.059 143.333 100.53C142.717 99.0012 141.855 98.0412 140.746 97.6501C139.668 97.2412 138.406 97.4546 136.959 98.2901C135.511 99.1257 134.234 100.379 133.125 102.05C132.017 103.721 131.154 105.677 130.539 107.917C129.954 110.139 129.661 112.459 129.661 114.877C129.661 117.295 129.954 119.277 130.539 120.823C131.154 122.352 132.017 123.312 133.125 123.703C134.234 124.095 135.511 123.872 136.959 123.037Z" fill="black"/>
</svg>
