<svg width="256" height="256" viewBox="0 0 256 256" fill="none" xmlns="http://www.w3.org/2000/svg">
<path d="M154.461 100.267C154.461 122.064 139.159 148.568 120.282 159.467C101.405 170.365 86.1028 161.53 86.1028 139.733C86.1028 117.937 101.405 91.4318 120.282 80.5334C139.159 69.635 154.461 78.4699 154.461 100.267Z" fill="white" stroke="#1019EF" stroke-width="6.4"/>
<mask id="path-2-inside-1_787_1219" fill="white">
<path d="M120.132 132.533L164.934 106.667L164.934 137.067L120.132 162.933L120.132 132.533Z"/>
</mask>
<path d="M120.132 132.533L164.934 106.667L164.934 137.067L120.132 162.933L120.132 132.533Z" fill="white"/>
<path d="M164.934 106.667L170.477 103.467L170.477 97.0668L164.934 100.267L164.934 106.667ZM164.934 137.067L164.934 143.467L170.477 140.267L170.477 133.867L164.934 137.067ZM120.132 138.933L164.934 113.067L164.934 100.267L120.132 126.133L120.132 138.933ZM159.391 109.867L159.391 140.267L170.477 133.867L170.477 103.467L159.391 109.867ZM164.934 130.667L120.132 156.533L120.132 169.333L164.934 143.467L164.934 130.667Z" fill="#1019EF" mask="url(#path-2-inside-1_787_1219)"/>
<path d="M104.665 138.666L150.729 110.933L148.132 125.067L104.665 151.209L104.665 138.666Z" fill="white"/>
<path d="M103.001 143.773L103.001 125.017L102.658 125.215L97.6078 132.451L97.6078 126.547L103.718 117.727L108.052 115.225L108.052 140.857L103.001 143.773ZM116.52 135.968L116.52 117.212L116.177 117.41L111.126 124.646L111.126 118.742L117.237 109.922L121.57 107.42L121.57 133.052L116.52 135.968ZM133.966 99.5792C135.712 98.5712 137.26 98.0612 138.611 98.0492C139.983 98.0012 141.043 98.4332 141.791 99.3452C142.56 100.245 142.945 101.535 142.945 103.215C142.945 104.247 142.747 105.453 142.353 106.833C141.958 108.213 141.396 109.701 140.669 111.297L133.966 125.859L128.229 129.171L134.091 116.571C133.737 116.895 133.384 117.195 133.031 117.471C132.698 117.711 132.376 117.921 132.064 118.101C130.651 118.917 129.393 119.295 128.292 119.235C127.211 119.163 126.359 118.683 125.735 117.795C125.112 116.883 124.8 115.635 124.8 114.051C124.8 112.251 125.184 110.433 125.953 108.597C126.743 106.749 127.824 105.045 129.196 103.485C130.588 101.913 132.178 100.611 133.966 99.5792ZM133.81 104.493C133.083 104.913 132.428 105.471 131.846 106.167C131.264 106.863 130.807 107.643 130.474 108.507C130.142 109.347 129.975 110.199 129.975 111.063C129.975 111.903 130.142 112.551 130.474 113.007C130.807 113.439 131.264 113.679 131.846 113.727C132.428 113.751 133.083 113.553 133.81 113.133C134.558 112.701 135.234 112.131 135.837 111.423C136.46 110.703 136.938 109.923 137.271 109.083C137.603 108.243 137.77 107.403 137.77 106.563C137.77 105.699 137.603 105.027 137.271 104.547C136.938 104.067 136.46 103.839 135.837 103.863C135.234 103.851 134.558 104.061 133.81 104.493Z" fill="black"/>
</svg>
