<svg width="256" height="256" viewBox="0 0 256 256" fill="none" xmlns="http://www.w3.org/2000/svg">
<path d="M154.461 100.267C154.461 122.064 139.159 148.568 120.282 159.467C101.405 170.365 86.1028 161.53 86.1028 139.733C86.1028 117.937 101.405 91.4318 120.282 80.5334C139.159 69.635 154.461 78.4699 154.461 100.267Z" fill="white" stroke="#1019EF" stroke-width="6.4"/>
<mask id="path-2-inside-1_787_809" fill="white">
<path d="M120.132 132.533L164.934 106.667L164.934 137.067L120.132 162.933L120.132 132.533Z"/>
</mask>
<path d="M120.132 132.533L164.934 106.667L164.934 137.067L120.132 162.933L120.132 132.533Z" fill="white"/>
<path d="M164.934 106.667L170.477 103.467L170.477 97.0668L164.934 100.267L164.934 106.667ZM164.934 137.067L164.934 143.467L170.477 140.267L170.477 133.867L164.934 137.067ZM120.132 138.933L164.934 113.067L164.934 100.267L120.132 126.133L120.132 138.933ZM159.392 109.867L159.392 140.267L170.477 133.867L170.477 103.467L159.392 109.867ZM164.934 130.667L120.132 156.533L120.132 169.333L164.934 143.467L164.934 130.667Z" fill="#1019EF" mask="url(#path-2-inside-1_787_809)"/>
<path d="M104.665 138.666L150.729 110.933L148.132 125.067L104.665 151.209L104.665 138.666Z" fill="white"/>
<path d="M112.034 105.054C114.621 103.56 116.915 102.805 118.916 102.787C120.948 102.716 122.519 103.356 123.627 104.707C124.766 106.04 125.336 107.951 125.336 110.44C125.336 111.969 125.044 113.756 124.459 115.8C123.874 117.845 123.042 120.049 121.964 122.414L112.034 143.987L103.535 148.894L112.219 130.227C111.695 130.707 111.172 131.151 110.648 131.56C110.156 131.916 109.678 132.227 109.217 132.494C107.123 133.703 105.26 134.263 103.628 134.174C102.027 134.067 100.764 133.356 99.8403 132.04C98.9166 130.689 98.4547 128.84 98.4547 126.494C98.4547 123.827 99.0244 121.134 100.164 118.414C101.334 115.676 102.935 113.151 104.967 110.84C107.03 108.511 109.386 106.583 112.034 105.054ZM111.803 112.334C110.725 112.956 109.755 113.783 108.893 114.814C108.031 115.845 107.354 117 106.861 118.28C106.368 119.525 106.122 120.787 106.122 122.067C106.122 123.311 106.368 124.271 106.861 124.947C107.354 125.587 108.031 125.943 108.893 126.014C109.755 126.049 110.725 125.756 111.803 125.134C112.912 124.494 113.912 123.649 114.805 122.6C115.729 121.534 116.437 120.378 116.93 119.134C117.423 117.889 117.669 116.645 117.669 115.4C117.669 114.12 117.423 113.125 116.93 112.414C116.437 111.703 115.729 111.365 114.805 111.4C113.912 111.383 112.912 111.694 111.803 112.334ZM136.164 130.109L136.164 102.322L135.656 102.615L128.174 113.335L128.174 104.589L137.227 91.522L143.647 87.8153L143.647 125.789L136.164 130.109Z" fill="black"/>
</svg>
