<svg width="256" height="256" viewBox="0 0 256 256" fill="none" xmlns="http://www.w3.org/2000/svg">
<path d="M154.461 100.267C154.461 122.063 139.159 148.568 120.282 159.467C101.405 170.365 86.1028 161.53 86.1028 139.733C86.1028 117.936 101.405 91.4316 120.282 80.5332C139.159 69.6348 154.461 78.4697 154.461 100.267Z" fill="white" stroke="#1019EF" stroke-width="6.4"/>
<mask id="path-2-inside-1_787_2089" fill="white">
<path d="M120.132 132.533L164.934 106.667L164.934 137.067L120.132 162.933L120.132 132.533Z"/>
</mask>
<path d="M120.132 132.533L164.934 106.667L164.934 137.067L120.132 162.933L120.132 132.533Z" fill="white"/>
<path d="M164.934 106.667L170.477 103.467L170.477 97.0665L164.934 100.267L164.934 106.667ZM164.934 137.067L164.934 143.467L170.477 140.267L170.477 133.867L164.934 137.067ZM120.132 138.933L164.934 113.067L164.934 100.267L120.132 126.133L120.132 138.933ZM159.391 109.867L159.391 140.267L170.477 133.867L170.477 103.467L159.391 109.867ZM164.934 130.667L120.132 156.533L120.132 169.333L164.934 143.467L164.934 130.667Z" fill="#1019EF" mask="url(#path-2-inside-1_787_2089)"/>
<path d="M104.665 138.665L150.729 110.933L148.132 125.066L104.665 151.208L104.665 138.665Z" fill="white"/>
<path d="M92.1783 150.021L92.1783 146.709L101.438 131.895C101.5 131.787 101.563 131.679 101.625 131.571C101.708 131.451 101.781 131.337 101.843 131.229C102.716 129.813 103.34 128.685 103.714 127.845C104.109 126.993 104.306 126.171 104.306 125.379C104.306 124.659 104.15 124.101 103.838 123.705C103.527 123.285 103.111 123.057 102.591 123.021C102.072 122.985 101.49 123.153 100.845 123.525C100.097 123.957 99.4217 124.563 98.8189 125.343C98.237 126.111 97.7693 126.993 97.416 127.989C97.0834 128.949 96.8964 129.957 96.8548 131.013L92.2406 133.677C92.2406 133.581 92.2406 133.485 92.2406 133.389C92.2406 131.613 92.5939 129.777 93.3006 127.881C94.0073 125.985 95.0257 124.221 96.356 122.589C97.6862 120.957 99.2034 119.649 100.908 118.665C102.467 117.765 103.87 117.315 105.117 117.315C106.364 117.291 107.341 117.699 108.047 118.539C108.754 119.355 109.107 120.543 109.107 122.103C109.107 123.543 108.744 125.097 108.016 126.765C107.289 128.433 106.187 130.425 104.711 132.741L99.5672 140.859L99.5672 141.219L108.608 135.999L108.608 140.535L92.1783 150.021ZM111.451 138.895L111.451 135.583L120.71 120.769C120.773 120.661 120.835 120.553 120.897 120.445C120.98 120.325 121.053 120.211 121.116 120.103C121.988 118.687 122.612 117.559 122.986 116.719C123.381 115.867 123.579 115.045 123.579 114.253C123.579 113.533 123.423 112.975 123.111 112.579C122.799 112.159 122.383 111.931 121.864 111.895C121.344 111.859 120.762 112.027 120.118 112.399C119.37 112.831 118.694 113.437 118.091 114.217C117.509 114.985 117.042 115.867 116.688 116.863C116.356 117.823 116.169 118.831 116.127 119.887L111.513 122.551C111.513 122.455 111.513 122.359 111.513 122.263C111.513 120.487 111.866 118.651 112.573 116.755C113.28 114.859 114.298 113.095 115.628 111.463C116.959 109.831 118.476 108.523 120.18 107.539C121.739 106.639 123.142 106.189 124.389 106.189C125.636 106.165 126.613 106.573 127.32 107.413C128.026 108.229 128.38 109.417 128.38 110.977C128.38 112.417 128.016 113.971 127.289 115.639C126.561 117.307 125.46 119.299 123.984 121.615L118.84 129.733L118.84 130.093L127.881 124.873L127.881 129.409L111.451 138.895ZM139.266 123.52C137.624 124.468 136.138 124.918 134.807 124.87C133.477 124.798 132.417 124.258 131.627 123.25C130.837 122.242 130.411 120.844 130.349 119.056L135.15 116.284C135.15 117.196 135.327 117.922 135.68 118.462C136.054 118.99 136.543 119.308 137.146 119.416C137.769 119.488 138.455 119.308 139.203 118.876C139.952 118.444 140.617 117.88 141.199 117.184C141.801 116.476 142.269 115.702 142.602 114.862C142.934 114.022 143.1 113.218 143.1 112.45C143.1 111.61 142.924 110.968 142.57 110.524C142.217 110.08 141.708 109.87 141.043 109.894C140.378 109.918 139.598 110.188 138.704 110.704L132.095 114.52L133.124 100.75L146.249 93.1716L146.249 97.7076L136.896 103.108L136.491 107.95L140.045 105.898C141.604 104.998 142.976 104.566 144.16 104.602C145.366 104.626 146.301 105.094 146.966 106.006C147.631 106.894 147.964 108.154 147.964 109.786C147.964 111.442 147.59 113.146 146.842 114.898C146.093 116.65 145.054 118.294 143.724 119.83C142.414 121.33 140.928 122.56 139.266 123.52Z" fill="black"/>
</svg>
