<svg width="256" height="256" viewBox="0 0 256 256" fill="none" xmlns="http://www.w3.org/2000/svg">
<path d="M154.461 100.267C154.461 122.064 139.159 148.568 120.282 159.467C101.405 170.365 86.1028 161.53 86.1028 139.733C86.1028 117.937 101.405 91.4318 120.282 80.5334C139.159 69.6349 154.461 78.4698 154.461 100.267Z" fill="white" stroke="#1019EF" stroke-width="6.4"/>
<mask id="path-2-inside-1_787_499" fill="white">
<path d="M120.132 132.533L164.934 106.667L164.934 137.067L120.132 162.933L120.132 132.533Z"/>
</mask>
<path d="M120.132 132.533L164.934 106.667L164.934 137.067L120.132 162.933L120.132 132.533Z" fill="white"/>
<path d="M164.934 106.667L170.477 103.467L170.477 97.0666L164.934 100.267L164.934 106.667ZM164.934 137.067L164.934 143.467L170.477 140.267L170.477 133.867L164.934 137.067ZM120.132 138.933L164.934 113.067L164.934 100.267L120.132 126.133L120.132 138.933ZM159.391 109.867L159.391 140.267L170.477 133.867L170.477 103.467L159.391 109.867ZM164.934 130.667L120.132 156.533L120.132 169.333L164.934 143.467L164.934 130.667Z" fill="#1019EF" mask="url(#path-2-inside-1_787_499)"/>
<path d="M104.665 138.665L150.729 110.933L148.132 125.067L104.665 151.209L104.665 138.665Z" fill="white"/>
<path d="M106.215 147.4L106.215 119.614L105.706 119.907L98.224 130.627L98.224 121.88L107.277 108.814L113.697 105.107L113.697 143.08L106.215 147.4ZM132.061 93.4912C134.648 91.9978 136.942 91.2423 138.943 91.2245C140.975 91.1534 142.546 91.7934 143.654 93.1445C144.794 94.4778 145.363 96.3889 145.363 98.8778C145.363 100.407 145.071 102.193 144.486 104.238C143.901 106.282 143.069 108.487 141.991 110.851L132.061 132.424L123.562 137.331L132.246 118.664C131.722 119.144 131.199 119.589 130.675 119.998C130.183 120.353 129.705 120.664 129.244 120.931C127.15 122.14 125.287 122.7 123.655 122.611C122.054 122.504 120.791 121.793 119.867 120.478C118.944 119.127 118.482 117.278 118.482 114.931C118.482 112.265 119.051 109.571 120.191 106.851C121.361 104.113 122.962 101.589 124.994 99.2778C127.057 96.9489 129.413 95.0201 132.061 93.4912ZM131.83 100.771C130.752 101.393 129.782 102.22 128.92 103.251C128.058 104.282 127.381 105.438 126.888 106.718C126.395 107.962 126.149 109.225 126.149 110.505C126.149 111.749 126.395 112.709 126.888 113.385C127.381 114.025 128.058 114.38 128.92 114.451C129.782 114.487 130.752 114.193 131.83 113.571C132.939 112.931 133.939 112.087 134.832 111.038C135.756 109.971 136.464 108.816 136.957 107.571C137.45 106.327 137.696 105.082 137.696 103.838C137.696 102.558 137.45 101.562 136.957 100.851C136.464 100.14 135.756 99.8023 134.832 99.8378C133.939 99.8201 132.939 100.131 131.83 100.771Z" fill="black"/>
</svg>
