<svg width="256" height="256" viewBox="0 0 256 256" fill="none" xmlns="http://www.w3.org/2000/svg">
<path d="M154.461 100.267C154.461 122.063 139.159 148.568 120.282 159.467C101.405 170.365 86.1028 161.53 86.1028 139.733C86.1028 117.936 101.405 91.4317 120.282 80.5333C139.159 69.6349 154.461 78.4698 154.461 100.267Z" fill="white" stroke="#1019EF" stroke-width="6.4"/>
<mask id="path-2-inside-1_787_733" fill="white">
<path d="M120.132 132.533L164.934 106.667L164.934 137.067L120.132 162.933L120.132 132.533Z"/>
</mask>
<path d="M120.132 132.533L164.934 106.667L164.934 137.067L120.132 162.933L120.132 132.533Z" fill="white"/>
<path d="M164.934 106.667L170.477 103.467L170.477 97.0665L164.934 100.267L164.934 106.667ZM164.934 137.067L164.934 143.467L170.477 140.267L170.477 133.867L164.934 137.067ZM120.132 138.933L164.934 113.067L164.934 100.267L120.132 126.133L120.132 138.933ZM159.391 109.867L159.391 140.267L170.477 133.867L170.477 103.467L159.391 109.867ZM164.934 130.667L120.132 156.533L120.132 169.333L164.934 143.467L164.934 130.667Z" fill="#1019EF" mask="url(#path-2-inside-1_787_733)"/>
<path d="M104.665 138.665L150.729 110.933L148.132 125.067L104.665 151.209L104.665 138.665Z" fill="white"/>
<path d="M109.115 145.726L109.115 137.886L93.3644 146.979L93.3644 142.126L105.881 109.619L116.782 103.326L116.782 126.793L120.615 124.579L120.615 131.246L116.782 133.459L116.782 141.299L109.115 145.726ZM100.801 136.019L109.068 131.246L109.068 115.139L108.606 115.406L100.801 136.019ZM136.81 130.749C134.377 132.154 132.176 132.82 130.205 132.749C128.234 132.643 126.664 131.843 125.494 130.349C124.324 128.856 123.693 126.785 123.6 124.136L130.713 120.029C130.713 121.381 130.975 122.456 131.498 123.256C132.053 124.038 132.776 124.509 133.669 124.669C134.593 124.776 135.609 124.509 136.718 123.869C137.826 123.229 138.811 122.394 139.674 121.363C140.567 120.314 141.259 119.167 141.752 117.923C142.245 116.678 142.491 115.487 142.491 114.349C142.491 113.105 142.229 112.154 141.706 111.496C141.182 110.838 140.428 110.527 139.443 110.563C138.457 110.598 137.303 110.998 135.979 111.763L126.187 117.416L127.711 97.0161L147.156 85.7894L147.156 92.5094L133.3 100.509L132.699 107.683L137.965 104.643C140.274 103.309 142.306 102.669 144.062 102.723C145.847 102.758 147.233 103.452 148.218 104.803C149.204 106.118 149.696 107.985 149.696 110.403C149.696 112.856 149.142 115.38 148.034 117.976C146.925 120.572 145.386 123.007 143.415 125.283C141.475 127.505 139.273 129.327 136.81 130.749Z" fill="black"/>
</svg>
