<svg width="256" height="256" viewBox="0 0 256 256" fill="none" xmlns="http://www.w3.org/2000/svg">
<path d="M154.461 100.267C154.461 122.064 139.159 148.568 120.282 159.467C101.405 170.365 86.1028 161.53 86.1028 139.733C86.1028 117.937 101.405 91.4318 120.282 80.5334C139.159 69.635 154.461 78.4699 154.461 100.267Z" fill="white" stroke="#1019EF" stroke-width="6.4"/>
<mask id="path-2-inside-1_787_1624" fill="white">
<path d="M120.132 132.533L164.934 106.667L164.934 137.067L120.132 162.933L120.132 132.533Z"/>
</mask>
<path d="M120.132 132.533L164.934 106.667L164.934 137.067L120.132 162.933L120.132 132.533Z" fill="white"/>
<path d="M164.934 106.667L170.477 103.467L170.477 97.0668L164.934 100.267L164.934 106.667ZM164.934 137.067L164.934 143.467L170.477 140.267L170.477 133.867L164.934 137.067ZM120.132 138.933L164.934 113.067L164.934 100.267L120.132 126.133L120.132 138.933ZM159.392 109.867L159.392 140.267L170.477 133.867L170.477 103.467L159.392 109.867ZM164.934 130.667L120.132 156.533L120.132 169.333L164.934 143.467L164.934 130.667Z" fill="#1019EF" mask="url(#path-2-inside-1_787_1624)"/>
<path d="M104.665 138.666L150.729 110.933L148.132 125.067L104.665 151.209L104.665 138.666Z" fill="white"/>
<path d="M100.246 145.363L100.246 126.607L99.903 126.805L94.8524 134.041L94.8524 128.137L100.963 119.317L105.297 116.815L105.297 142.447L100.246 145.363ZM118.69 134.715L118.69 129.423L108.059 135.561L108.059 132.285L116.508 110.343L123.865 106.095L123.865 121.935L126.453 120.441L126.453 124.941L123.865 126.435L123.865 131.727L118.69 134.715ZM113.078 128.163L118.659 124.941L118.659 114.069L118.347 114.249L113.078 128.163ZM128.842 128.853L128.842 125.541L138.102 110.727C138.164 110.619 138.226 110.511 138.289 110.403C138.372 110.283 138.444 110.169 138.507 110.061C139.38 108.645 140.003 107.517 140.377 106.677C140.772 105.825 140.97 105.003 140.97 104.211C140.97 103.491 140.814 102.933 140.502 102.537C140.19 102.117 139.775 101.889 139.255 101.853C138.735 101.817 138.154 101.985 137.509 102.357C136.761 102.789 136.085 103.395 135.483 104.175C134.901 104.943 134.433 105.825 134.08 106.821C133.747 107.781 133.56 108.789 133.519 109.845L128.904 112.509C128.904 112.413 128.904 112.317 128.904 112.221C128.904 110.445 129.258 108.609 129.964 106.713C130.671 104.817 131.689 103.053 133.02 101.421C134.35 99.7895 135.867 98.4815 137.572 97.4975C139.13 96.5975 140.533 96.1475 141.78 96.1475C143.028 96.1235 144.004 96.5315 144.711 97.3715C145.418 98.1875 145.771 99.3755 145.771 100.935C145.771 102.375 145.407 103.929 144.68 105.597C143.952 107.265 142.851 109.257 141.375 111.573L136.231 119.691L136.231 120.051L145.272 114.831L145.272 119.367L128.842 128.853Z" fill="black"/>
</svg>
