<svg width="256" height="256" viewBox="0 0 256 256" fill="none" xmlns="http://www.w3.org/2000/svg">
<path d="M154.461 100.267C154.461 122.064 139.159 148.568 120.282 159.467C101.405 170.365 86.1028 161.53 86.1028 139.733C86.1028 117.937 101.405 91.4318 120.282 80.5334C139.159 69.635 154.461 78.4699 154.461 100.267Z" fill="white" stroke="#1019EF" stroke-width="6.4"/>
<mask id="path-2-inside-1_787_1212" fill="white">
<path d="M120.132 132.533L164.934 106.667L164.934 137.067L120.132 162.933L120.132 132.533Z"/>
</mask>
<path d="M120.132 132.533L164.934 106.667L164.934 137.067L120.132 162.933L120.132 132.533Z" fill="white"/>
<path d="M164.934 106.667L170.477 103.467L170.477 97.0668L164.934 100.267L164.934 106.667ZM164.934 137.067L164.934 143.467L170.477 140.267L170.477 133.867L164.934 137.067ZM120.132 138.933L164.934 113.067L164.934 100.267L120.132 126.133L120.132 138.933ZM159.392 109.867L159.392 140.267L170.477 133.867L170.477 103.467L159.392 109.867ZM164.934 130.667L120.132 156.533L120.132 169.333L164.934 143.467L164.934 130.667Z" fill="#1019EF" mask="url(#path-2-inside-1_787_1212)"/>
<path d="M104.665 138.666L150.729 110.933L148.132 125.067L104.665 151.209L104.665 138.666Z" fill="white"/>
<path d="M103.04 143.75L103.04 124.994L102.697 125.192L97.6467 132.428L97.6467 126.524L103.757 117.704L108.091 115.202L108.091 140.834L103.04 143.75ZM116.558 135.945L116.558 117.189L116.215 117.387L111.165 124.623L111.165 118.719L117.275 109.899L121.609 107.397L121.609 133.029L116.558 135.945ZM125.182 130.967L125.182 127.655L134.441 112.841C134.504 112.733 134.566 112.625 134.628 112.517C134.712 112.397 134.784 112.283 134.847 112.175C135.72 110.759 136.343 109.631 136.717 108.791C137.112 107.939 137.31 107.117 137.31 106.325C137.31 105.605 137.154 105.047 136.842 104.651C136.53 104.231 136.114 104.003 135.595 103.967C135.075 103.931 134.493 104.099 133.849 104.471C133.101 104.903 132.425 105.509 131.822 106.289C131.24 107.057 130.773 107.939 130.419 108.935C130.087 109.895 129.9 110.903 129.858 111.959L125.244 114.623C125.244 114.527 125.244 114.431 125.244 114.335C125.244 112.559 125.597 110.723 126.304 108.827C127.011 106.931 128.029 105.167 129.359 103.535C130.69 101.903 132.207 100.595 133.911 99.6108C135.47 98.7108 136.873 98.2608 138.12 98.2608C139.367 98.2368 140.344 98.6448 141.051 99.4848C141.757 100.301 142.111 101.489 142.111 103.049C142.111 104.489 141.747 106.043 141.02 107.711C140.292 109.379 139.191 111.371 137.715 113.687L132.571 121.805L132.571 122.165L141.612 116.945L141.612 121.481L125.182 130.967Z" fill="black"/>
</svg>
