<svg width="256" height="256" viewBox="0 0 256 256" fill="none" xmlns="http://www.w3.org/2000/svg">
<path d="M154.461 100.267C154.461 122.063 139.159 148.568 120.282 159.467C101.405 170.365 86.1028 161.53 86.1028 139.733C86.1028 117.936 101.405 91.4316 120.282 80.5332C139.159 69.6348 154.461 78.4697 154.461 100.267Z" fill="white" stroke="#1019EF" stroke-width="6.4"/>
<mask id="path-2-inside-1_787_2055" fill="white">
<path d="M120.132 132.533L164.934 106.667L164.934 137.067L120.132 162.933L120.132 132.533Z"/>
</mask>
<path d="M120.132 132.533L164.934 106.667L164.934 137.067L120.132 162.933L120.132 132.533Z" fill="white"/>
<path d="M164.934 106.667L170.477 103.467L170.477 97.0665L164.934 100.267L164.934 106.667ZM164.934 137.067L164.934 143.467L170.477 140.267L170.477 133.867L164.934 137.067ZM120.132 138.933L164.934 113.067L164.934 100.267L120.132 126.133L120.132 138.933ZM159.392 109.867L159.392 140.267L170.477 133.867L170.477 103.467L159.392 109.867ZM164.934 130.667L120.132 156.533L120.132 169.333L164.934 143.467L164.934 130.667Z" fill="#1019EF" mask="url(#path-2-inside-1_787_2055)"/>
<path d="M104.665 138.665L150.729 110.933L148.132 125.066L104.665 151.208L104.665 138.665Z" fill="white"/>
<path d="M103.001 143.773L103.001 125.017L102.658 125.215L97.6078 132.451L97.6078 126.547L103.718 117.727L108.052 115.225L108.052 140.857L103.001 143.773ZM120.448 107.384C122.194 106.376 123.742 105.866 125.093 105.854C126.465 105.806 127.525 106.238 128.273 107.15C129.042 108.05 129.427 109.34 129.427 111.02C129.427 112.052 129.229 113.258 128.834 114.638C128.439 116.018 127.878 117.506 127.151 119.102L120.448 133.664L114.711 136.976L120.573 124.376C120.219 124.7 119.866 125 119.513 125.276C119.18 125.516 118.858 125.726 118.546 125.906C117.133 126.722 115.875 127.1 114.774 127.04C113.693 126.968 112.841 126.488 112.217 125.6C111.594 124.688 111.282 123.44 111.282 121.856C111.282 120.056 111.666 118.238 112.435 116.402C113.225 114.554 114.306 112.85 115.678 111.29C117.07 109.718 118.66 108.416 120.448 107.384ZM120.292 112.298C119.564 112.718 118.91 113.276 118.328 113.972C117.746 114.668 117.289 115.448 116.956 116.312C116.623 117.152 116.457 118.004 116.457 118.868C116.457 119.708 116.623 120.356 116.956 120.812C117.289 121.244 117.746 121.484 118.328 121.532C118.91 121.556 119.564 121.358 120.292 120.938C121.04 120.506 121.716 119.936 122.318 119.228C122.942 118.508 123.42 117.728 123.753 116.888C124.085 116.048 124.251 115.208 124.251 114.368C124.251 113.504 124.085 112.832 123.753 112.352C123.42 111.872 122.942 111.644 122.318 111.668C121.716 111.656 121.04 111.866 120.292 112.298ZM136.736 124.296L136.736 105.54L136.393 105.738L131.342 112.974L131.342 107.07L137.453 98.2501L141.786 95.748L141.786 121.38L136.736 124.296Z" fill="black"/>
</svg>
