<svg width="256" height="256" viewBox="0 0 256 256" fill="none" xmlns="http://www.w3.org/2000/svg">
<path d="M154.461 100.267C154.461 122.063 139.159 148.568 120.282 159.467C101.405 170.365 86.1028 161.53 86.1028 139.733C86.1028 117.936 101.405 91.4316 120.282 80.5332C139.159 69.6348 154.461 78.4697 154.461 100.267Z" fill="white" stroke="#1019EF" stroke-width="6.4"/>
<mask id="path-2-inside-1_787_2057" fill="white">
<path d="M120.132 132.533L164.934 106.667L164.934 137.067L120.132 162.933L120.132 132.533Z"/>
</mask>
<path d="M120.132 132.533L164.934 106.667L164.934 137.067L120.132 162.933L120.132 132.533Z" fill="white"/>
<path d="M164.934 106.667L170.477 103.467L170.477 97.0665L164.934 100.267L164.934 106.667ZM164.934 137.067L164.934 143.467L170.477 140.267L170.477 133.867L164.934 137.067ZM120.132 138.933L164.934 113.067L164.934 100.267L120.132 126.133L120.132 138.933ZM159.392 109.867L159.392 140.267L170.477 133.867L170.477 103.467L159.392 109.867ZM164.934 130.667L120.132 156.533L120.132 169.333L164.934 143.467L164.934 130.667Z" fill="#1019EF" mask="url(#path-2-inside-1_787_2057)"/>
<path d="M104.665 138.665L150.729 110.933L148.132 125.066L104.665 151.208L104.665 138.665Z" fill="white"/>
<path d="M99.6762 145.693L99.6762 126.937L99.3333 127.135L94.2826 134.371L94.2826 128.467L100.393 119.647L104.727 117.145L104.727 142.777L99.6762 145.693ZM117.123 109.304C118.869 108.296 120.417 107.786 121.768 107.774C123.14 107.726 124.2 108.158 124.948 109.07C125.717 109.97 126.102 111.26 126.102 112.94C126.102 113.972 125.904 115.178 125.509 116.558C125.114 117.938 124.553 119.426 123.826 121.022L117.123 135.584L111.386 138.896L117.247 126.296C116.894 126.62 116.541 126.92 116.187 127.196C115.855 127.436 115.533 127.646 115.221 127.826C113.808 128.642 112.55 129.02 111.448 128.96C110.368 128.888 109.515 128.408 108.892 127.52C108.268 126.608 107.957 125.36 107.957 123.776C107.957 121.976 108.341 120.158 109.11 118.322C109.9 116.474 110.981 114.77 112.353 113.21C113.745 111.638 115.335 110.336 117.123 109.304ZM116.967 114.218C116.239 114.638 115.585 115.196 115.003 115.892C114.421 116.588 113.963 117.368 113.631 118.232C113.298 119.072 113.132 119.924 113.132 120.788C113.132 121.628 113.298 122.276 113.631 122.732C113.963 123.164 114.421 123.404 115.003 123.452C115.585 123.476 116.239 123.278 116.967 122.858C117.715 122.426 118.391 121.856 118.993 121.148C119.617 120.428 120.095 119.648 120.427 118.808C120.76 117.968 120.926 117.128 120.926 116.288C120.926 115.424 120.76 114.752 120.427 114.272C120.095 113.792 119.617 113.564 118.993 113.588C118.391 113.576 117.715 113.786 116.967 114.218ZM136.871 124.902C135.229 125.85 133.733 126.294 132.382 126.234C131.052 126.138 129.992 125.586 129.202 124.578C128.433 123.534 128.017 122.094 127.955 120.258L132.756 117.486C132.756 118.47 132.933 119.244 133.286 119.808C133.639 120.372 134.117 120.708 134.72 120.816C135.344 120.888 136.04 120.702 136.809 120.258C137.557 119.826 138.222 119.262 138.804 118.566C139.386 117.87 139.843 117.114 140.176 116.298C140.509 115.458 140.675 114.642 140.675 113.85C140.675 113.058 140.498 112.44 140.145 111.996C139.812 111.54 139.345 111.306 138.742 111.294C138.16 111.246 137.505 111.432 136.778 111.852C136.466 112.032 136.133 112.272 135.78 112.572C135.427 112.848 135.136 113.112 134.907 113.364L133.785 110.592L138.337 102.636L138.337 102.276L129.358 107.46L129.358 102.924L144.728 94.05L144.728 97.542L139.459 106.812C140.623 106.356 141.662 106.248 142.577 106.488C143.512 106.692 144.239 107.232 144.759 108.108C145.299 108.948 145.57 110.052 145.57 111.42C145.57 113.028 145.196 114.696 144.447 116.424C143.72 118.116 142.691 119.718 141.361 121.23C140.031 122.718 138.534 123.942 136.871 124.902Z" fill="black"/>
</svg>
