<svg width="256" height="256" viewBox="0 0 256 256" fill="none" xmlns="http://www.w3.org/2000/svg">
<path d="M154.461 100.267C154.461 122.064 139.159 148.568 120.282 159.467C101.405 170.365 86.1028 161.53 86.1028 139.733C86.1028 117.937 101.405 91.4318 120.282 80.5334C139.159 69.6349 154.461 78.4698 154.461 100.267Z" fill="white" stroke="#1019EF" stroke-width="6.4"/>
<mask id="path-2-inside-1_787_463" fill="white">
<path d="M120.132 132.533L164.934 106.667L164.934 137.067L120.132 162.933L120.132 132.533Z"/>
</mask>
<path d="M120.132 132.533L164.934 106.667L164.934 137.067L120.132 162.933L120.132 132.533Z" fill="white"/>
<path d="M164.934 106.667L170.477 103.467L170.477 97.0666L164.934 100.267L164.934 106.667ZM164.934 137.067L164.934 143.467L170.477 140.267L170.477 133.867L164.934 137.067ZM120.132 138.933L164.934 113.067L164.934 100.267L120.132 126.133L120.132 138.933ZM159.391 109.867L159.391 140.267L170.477 133.867L170.477 103.467L159.391 109.867ZM164.934 130.667L120.132 156.533L120.132 169.333L164.934 143.467L164.934 130.667Z" fill="#1019EF" mask="url(#path-2-inside-1_787_463)"/>
<path d="M104.665 138.665L150.729 110.933L148.132 125.067L104.665 151.209L104.665 138.665Z" fill="white"/>
<path d="M107.031 146.929L107.031 119.142L106.523 119.436L99.0404 130.156L99.0404 121.409L108.093 108.342L114.513 104.636L114.513 142.609L107.031 146.929ZM132.462 133.26C130.029 134.664 127.828 135.331 125.857 135.26C123.886 135.153 122.316 134.353 121.146 132.86C119.976 131.366 119.344 129.295 119.252 126.646L126.365 122.54C126.365 123.891 126.627 124.966 127.15 125.766C127.704 126.549 128.428 127.02 129.321 127.18C130.245 127.286 131.261 127.02 132.369 126.38C133.478 125.74 134.463 124.904 135.325 123.873C136.218 122.824 136.911 121.678 137.404 120.433C137.896 119.189 138.143 117.998 138.143 116.86C138.143 115.615 137.881 114.664 137.358 114.006C136.834 113.349 136.08 113.038 135.094 113.073C134.109 113.109 132.954 113.509 131.63 114.273L121.838 119.926L123.363 99.5265L142.808 88.2998L142.808 95.0198L128.951 103.02L128.351 110.193L133.616 107.153C135.926 105.82 137.958 105.18 139.713 105.233C141.499 105.269 142.885 105.962 143.87 107.313C144.855 108.629 145.348 110.495 145.348 112.913C145.348 115.366 144.794 117.891 143.685 120.486C142.577 123.082 141.037 125.518 139.067 127.793C137.127 130.015 134.925 131.838 132.462 133.26Z" fill="black"/>
</svg>
