<svg width="256" height="256" viewBox="0 0 256 256" fill="none" xmlns="http://www.w3.org/2000/svg">
<path d="M154.461 100.267C154.461 122.064 139.159 148.568 120.282 159.467C101.405 170.365 86.1028 161.53 86.1028 139.733C86.1028 117.937 101.405 91.4318 120.282 80.5334C139.159 69.6349 154.461 78.4698 154.461 100.267Z" fill="white" stroke="#1019EF" stroke-width="6.4"/>
<mask id="path-2-inside-1_787_562" fill="white">
<path d="M120.132 132.533L164.934 106.667L164.934 137.067L120.132 162.933L120.132 132.533Z"/>
</mask>
<path d="M120.132 132.533L164.934 106.667L164.934 137.067L120.132 162.933L120.132 132.533Z" fill="white"/>
<path d="M164.934 106.667L170.477 103.467L170.477 97.0666L164.934 100.267L164.934 106.667ZM164.934 137.067L164.934 143.467L170.477 140.267L170.477 133.867L164.934 137.067ZM120.132 138.933L164.934 113.067L164.934 100.267L120.132 126.133L120.132 138.933ZM159.391 109.867L159.391 140.267L170.477 133.867L170.477 103.467L159.391 109.867ZM164.934 130.667L120.132 156.533L120.132 169.333L164.934 143.467L164.934 130.667Z" fill="#1019EF" mask="url(#path-2-inside-1_787_562)"/>
<path d="M104.665 138.665L150.729 110.933L148.132 125.067L104.665 151.209L104.665 138.665Z" fill="white"/>
<path d="M94.6781 154.061L94.6781 149.154L108.396 127.208C108.488 127.048 108.581 126.888 108.673 126.728C108.796 126.55 108.904 126.381 108.996 126.221C110.29 124.123 111.213 122.452 111.768 121.208C112.353 119.945 112.645 118.728 112.645 117.554C112.645 116.488 112.414 115.661 111.952 115.074C111.49 114.452 110.875 114.114 110.105 114.061C109.335 114.008 108.473 114.257 107.518 114.808C106.41 115.448 105.409 116.345 104.516 117.501C103.654 118.639 102.961 119.945 102.438 121.421C101.945 122.843 101.668 124.337 101.606 125.901L94.7704 129.848C94.7704 129.705 94.7704 129.563 94.7704 129.421C94.7704 126.79 95.2939 124.07 96.3408 121.261C97.3877 118.452 98.8966 115.839 100.867 113.421C102.838 111.003 105.086 109.065 107.611 107.608C109.92 106.274 111.999 105.608 113.846 105.608C115.694 105.572 117.141 106.177 118.188 107.421C119.235 108.63 119.758 110.39 119.758 112.701C119.758 114.834 119.219 117.137 118.142 119.608C117.064 122.079 115.432 125.03 113.246 128.461L105.625 140.488L105.625 141.021L119.019 133.288L119.019 140.008L94.6781 154.061ZM136.07 131.177C133.484 132.67 131.174 133.452 129.142 133.523C127.14 133.541 125.57 132.883 124.431 131.55C123.322 130.199 122.768 128.261 122.768 125.737C122.768 124.208 123.06 122.421 123.646 120.377C124.231 118.332 125.077 116.119 126.186 113.737L136.07 92.1899L144.569 87.2833L135.885 105.95C136.409 105.47 136.917 105.052 137.41 104.697C137.933 104.288 138.426 103.95 138.888 103.683C140.981 102.474 142.829 101.941 144.43 102.083C146.062 102.172 147.34 102.874 148.264 104.19C149.187 105.505 149.649 107.354 149.649 109.737C149.649 112.403 149.064 115.105 147.894 117.843C146.755 120.563 145.154 123.088 143.091 125.417C141.058 127.728 138.718 129.648 136.07 131.177ZM136.301 123.897C137.41 123.257 138.395 122.421 139.257 121.39C140.119 120.323 140.781 119.177 141.243 117.95C141.736 116.67 141.982 115.39 141.982 114.11C141.982 112.865 141.736 111.923 141.243 111.283C140.781 110.59 140.119 110.225 139.257 110.19C138.395 110.154 137.41 110.457 136.301 111.097C135.193 111.737 134.176 112.59 133.253 113.657C132.36 114.67 131.667 115.799 131.174 117.043C130.681 118.288 130.435 119.532 130.435 120.777C130.435 122.057 130.681 123.052 131.174 123.763C131.667 124.474 132.36 124.839 133.253 124.857C134.176 124.857 135.193 124.537 136.301 123.897Z" fill="black"/>
</svg>
