<svg width="256" height="256" viewBox="0 0 256 256" fill="none" xmlns="http://www.w3.org/2000/svg">
<path d="M154.461 100.267C154.461 122.064 139.159 148.568 120.282 159.467C101.405 170.365 86.1028 161.53 86.1028 139.733C86.1028 117.937 101.405 91.4318 120.282 80.5334C139.159 69.635 154.461 78.4699 154.461 100.267Z" fill="white" stroke="#1019EF" stroke-width="6.4"/>
<mask id="path-2-inside-1_787_1202" fill="white">
<path d="M120.132 132.533L164.934 106.667L164.934 137.067L120.132 162.933L120.132 132.533Z"/>
</mask>
<path d="M120.132 132.533L164.934 106.667L164.934 137.067L120.132 162.933L120.132 132.533Z" fill="white"/>
<path d="M164.934 106.667L170.477 103.467L170.477 97.0668L164.934 100.267L164.934 106.667ZM164.934 137.067L164.934 143.467L170.477 140.267L170.477 133.867L164.934 137.067ZM120.132 138.933L164.934 113.067L164.934 100.267L120.132 126.133L120.132 138.933ZM159.392 109.867L159.392 140.267L170.477 133.867L170.477 103.467L159.392 109.867ZM164.934 130.667L120.132 156.533L120.132 169.333L164.934 143.467L164.934 130.667Z" fill="#1019EF" mask="url(#path-2-inside-1_787_1202)"/>
<path d="M104.665 138.666L150.729 110.933L148.132 125.067L104.665 151.209L104.665 138.666Z" fill="white"/>
<path d="M98.7694 146.216L98.7694 127.46L98.4265 127.658L93.3758 134.894L93.3758 128.99L99.4865 120.17L103.82 117.668L103.82 143.3L98.7694 146.216ZM117.494 136.089C115.52 137.229 113.763 137.679 112.225 137.439C110.708 137.163 109.523 136.251 108.671 134.703C107.819 133.131 107.393 131.037 107.393 128.421C107.393 125.805 107.819 123.231 108.671 120.699C109.523 118.143 110.708 115.863 112.225 113.859C113.763 111.819 115.52 110.229 117.494 109.089C119.448 107.961 121.194 107.529 122.732 107.793C124.27 108.033 125.465 108.939 126.317 110.511C127.169 112.059 127.595 114.141 127.595 116.757C127.595 119.373 127.169 121.959 126.317 124.515C125.465 127.047 124.27 129.333 122.732 131.373C121.194 133.389 119.448 134.961 117.494 136.089ZM117.494 130.941C118.471 130.377 119.323 129.537 120.051 128.421C120.799 127.293 121.381 125.973 121.797 124.461C122.212 122.949 122.42 121.377 122.42 119.745C122.42 118.113 122.212 116.781 121.797 115.749C121.381 114.717 120.799 114.069 120.051 113.805C119.323 113.529 118.471 113.673 117.494 114.237C116.517 114.801 115.655 115.647 114.906 116.775C114.158 117.903 113.576 119.223 113.161 120.735C112.766 122.235 112.568 123.801 112.568 125.433C112.568 127.065 112.766 128.403 113.161 129.447C113.576 130.479 114.158 131.127 114.906 131.391C115.655 131.655 116.517 131.505 117.494 130.941ZM130.319 128.001L130.319 124.689L139.578 109.875C139.641 109.767 139.703 109.659 139.765 109.551C139.849 109.431 139.921 109.317 139.984 109.209C140.857 107.793 141.48 106.665 141.854 105.825C142.249 104.973 142.447 104.151 142.447 103.359C142.447 102.639 142.291 102.081 141.979 101.685C141.667 101.265 141.251 101.037 140.732 101.001C140.212 100.965 139.63 101.133 138.986 101.505C138.238 101.937 137.562 102.543 136.959 103.323C136.377 104.091 135.91 104.973 135.556 105.969C135.224 106.929 135.037 107.937 134.995 108.993L130.381 111.657C130.381 111.561 130.381 111.465 130.381 111.369C130.381 109.593 130.734 107.757 131.441 105.861C132.148 103.965 133.166 102.201 134.496 100.569C135.827 98.937 137.344 97.629 139.048 96.645C140.607 95.745 142.01 95.295 143.257 95.295C144.504 95.271 145.481 95.679 146.188 96.519C146.894 97.335 147.248 98.523 147.248 100.083C147.248 101.523 146.884 103.077 146.157 104.745C145.429 106.413 144.328 108.405 142.852 110.721L137.708 118.839L137.708 119.199L146.749 113.979L146.749 118.515L130.319 128.001Z" fill="black"/>
</svg>
