<svg width="256" height="256" viewBox="0 0 256 256" fill="none" xmlns="http://www.w3.org/2000/svg">
<path d="M154.461 100.267C154.461 122.064 139.159 148.568 120.282 159.467C101.405 170.365 86.1028 161.53 86.1028 139.733C86.1028 117.937 101.405 91.4318 120.282 80.5334C139.159 69.635 154.461 78.4699 154.461 100.267Z" fill="white" stroke="#1019EF" stroke-width="6.4"/>
<mask id="path-2-inside-1_787_1220" fill="white">
<path d="M120.132 132.533L164.934 106.667L164.934 137.067L120.132 162.933L120.132 132.533Z"/>
</mask>
<path d="M120.132 132.533L164.934 106.667L164.934 137.067L120.132 162.933L120.132 132.533Z" fill="white"/>
<path d="M164.934 106.667L170.477 103.467L170.477 97.0668L164.934 100.267L164.934 106.667ZM164.934 137.067L164.934 143.467L170.477 140.267L170.477 133.867L164.934 137.067ZM120.132 138.933L164.934 113.067L164.934 100.267L120.132 126.133L120.132 138.933ZM159.391 109.867L159.391 140.267L170.477 133.867L170.477 103.467L159.391 109.867ZM164.934 130.667L120.132 156.533L120.132 169.333L164.934 143.467L164.934 130.667Z" fill="#1019EF" mask="url(#path-2-inside-1_787_1220)"/>
<path d="M104.665 138.666L150.729 110.933L148.132 125.067L104.665 151.209L104.665 138.666Z" fill="white"/>
<path d="M98.7694 146.216L98.7694 127.46L98.4265 127.658L93.3758 134.894L93.3758 128.99L99.4865 120.17L103.82 117.668L103.82 143.3L98.7694 146.216ZM107.393 141.237L107.393 137.925L116.652 123.111C116.715 123.003 116.777 122.895 116.839 122.787C116.923 122.667 116.995 122.553 117.058 122.445C117.931 121.029 118.554 119.901 118.928 119.061C119.323 118.209 119.521 117.387 119.521 116.595C119.521 115.875 119.365 115.317 119.053 114.921C118.741 114.501 118.325 114.273 117.806 114.237C117.286 114.201 116.704 114.369 116.06 114.741C115.312 115.173 114.636 115.779 114.033 116.559C113.451 117.327 112.984 118.209 112.63 119.205C112.298 120.165 112.111 121.173 112.069 122.229L107.455 124.893C107.455 124.797 107.455 124.701 107.455 124.605C107.455 122.829 107.808 120.993 108.515 119.097C109.222 117.201 110.24 115.437 111.57 113.805C112.901 112.173 114.418 110.865 116.122 109.881C117.681 108.981 119.084 108.531 120.331 108.531C121.578 108.507 122.555 108.915 123.262 109.755C123.969 110.571 124.322 111.759 124.322 113.319C124.322 114.759 123.958 116.313 123.231 117.981C122.503 119.649 121.402 121.641 119.926 123.957L114.782 132.075L114.782 132.435L123.823 127.215L123.823 131.751L107.393 141.237ZM136.767 124.962C134.792 126.102 133.036 126.552 131.498 126.312C129.98 126.036 128.796 125.124 127.943 123.576C127.091 122.004 126.665 119.91 126.665 117.294C126.665 114.678 127.091 112.104 127.943 109.572C128.796 107.016 129.98 104.736 131.498 102.732C133.036 100.692 134.792 99.1023 136.767 97.9623C138.72 96.8343 140.466 96.4023 142.004 96.6663C143.542 96.9063 144.737 97.8123 145.59 99.3843C146.442 100.932 146.868 103.014 146.868 105.63C146.868 108.246 146.442 110.832 145.59 113.388C144.737 115.92 143.542 118.206 142.004 120.246C140.466 122.262 138.72 123.834 136.767 124.962ZM136.767 119.814C137.743 119.25 138.596 118.41 139.323 117.294C140.071 116.166 140.653 114.846 141.069 113.334C141.485 111.822 141.692 110.25 141.692 108.618C141.692 106.986 141.485 105.654 141.069 104.622C140.653 103.59 140.071 102.942 139.323 102.678C138.596 102.402 137.743 102.546 136.767 103.11C135.79 103.674 134.927 104.52 134.179 105.648C133.431 106.776 132.849 108.096 132.433 109.608C132.038 111.108 131.841 112.674 131.841 114.306C131.841 115.938 132.038 117.276 132.433 118.32C132.849 119.352 133.431 120 134.179 120.264C134.927 120.528 135.79 120.378 136.767 119.814Z" fill="black"/>
</svg>
