<svg width="256" height="256" viewBox="0 0 256 256" fill="none" xmlns="http://www.w3.org/2000/svg">
<path d="M154.461 100.267C154.461 122.064 139.159 148.568 120.282 159.467C101.405 170.365 86.1028 161.53 86.1028 139.733C86.1028 117.937 101.405 91.4318 120.282 80.5334C139.159 69.635 154.461 78.4699 154.461 100.267Z" fill="white" stroke="#1019EF" stroke-width="6.4"/>
<mask id="path-2-inside-1_787_1229" fill="white">
<path d="M120.132 132.533L164.934 106.667L164.934 137.067L120.132 162.933L120.132 132.533Z"/>
</mask>
<path d="M120.132 132.533L164.934 106.667L164.934 137.067L120.132 162.933L120.132 132.533Z" fill="white"/>
<path d="M164.934 106.667L170.477 103.467L170.477 97.0668L164.934 100.267L164.934 106.667ZM164.934 137.067L164.934 143.467L170.477 140.267L170.477 133.867L164.934 137.067ZM120.132 138.933L164.934 113.067L164.934 100.267L120.132 126.133L120.132 138.933ZM159.391 109.867L159.391 140.267L170.477 133.867L170.477 103.467L159.391 109.867ZM164.934 130.667L120.132 156.533L120.132 169.333L164.934 143.467L164.934 130.667Z" fill="#1019EF" mask="url(#path-2-inside-1_787_1229)"/>
<path d="M104.665 138.666L150.729 110.933L148.132 125.067L104.665 151.209L104.665 138.666Z" fill="white"/>
<path d="M99.6912 145.684L99.6912 126.928L99.3483 127.126L94.2976 134.362L94.2976 128.458L100.408 119.638L104.742 117.136L104.742 142.768L99.6912 145.684ZM108.315 140.705L108.315 137.393L117.574 122.579C117.636 122.471 117.699 122.363 117.761 122.255C117.844 122.135 117.917 122.021 117.979 121.913C118.852 120.497 119.476 119.369 119.85 118.529C120.245 117.677 120.442 116.855 120.442 116.063C120.442 115.343 120.286 114.785 119.975 114.389C119.663 113.969 119.247 113.741 118.728 113.705C118.208 113.669 117.626 113.837 116.982 114.209C116.233 114.641 115.558 115.247 114.955 116.027C114.373 116.795 113.906 117.677 113.552 118.673C113.22 119.633 113.033 120.641 112.991 121.697L108.377 124.361C108.377 124.265 108.377 124.169 108.377 124.073C108.377 122.297 108.73 120.461 109.437 118.565C110.144 116.669 111.162 114.905 112.492 113.273C113.822 111.641 115.34 110.333 117.044 109.349C118.603 108.449 120.006 107.999 121.253 107.999C122.5 107.975 123.477 108.383 124.184 109.223C124.89 110.039 125.244 111.227 125.244 112.787C125.244 114.227 124.88 115.781 124.152 117.449C123.425 119.117 122.323 121.109 120.848 123.425L115.703 131.543L115.703 131.903L124.745 126.683L124.745 131.219L108.315 140.705ZM136.41 98.1681C138.156 97.1601 139.704 96.6501 141.055 96.6381C142.427 96.5901 143.487 97.0221 144.235 97.9341C145.005 98.8341 145.389 100.124 145.389 101.804C145.389 102.836 145.192 104.042 144.797 105.422C144.402 106.802 143.841 108.29 143.113 109.886L136.41 124.448L130.674 127.76L136.535 115.16C136.181 115.484 135.828 115.784 135.475 116.06C135.142 116.3 134.82 116.51 134.508 116.69C133.095 117.506 131.837 117.884 130.736 117.824C129.655 117.752 128.803 117.272 128.179 116.384C127.556 115.472 127.244 114.224 127.244 112.64C127.244 110.84 127.629 109.022 128.398 107.186C129.187 105.338 130.268 103.634 131.64 102.074C133.033 100.502 134.623 99.2001 136.41 98.1681ZM136.254 103.082C135.527 103.502 134.872 104.06 134.29 104.756C133.708 105.452 133.251 106.232 132.918 107.096C132.586 107.936 132.419 108.788 132.419 109.652C132.419 110.492 132.586 111.14 132.918 111.596C133.251 112.028 133.708 112.268 134.29 112.316C134.872 112.34 135.527 112.142 136.254 111.722C137.002 111.29 137.678 110.72 138.281 110.012C138.904 109.292 139.382 108.512 139.715 107.672C140.047 106.832 140.214 105.992 140.214 105.152C140.214 104.288 140.047 103.616 139.715 103.136C139.382 102.656 138.904 102.428 138.281 102.452C137.678 102.44 137.002 102.65 136.254 103.082Z" fill="black"/>
</svg>
