<svg width="256" height="256" viewBox="0 0 256 256" fill="none" xmlns="http://www.w3.org/2000/svg">
<path d="M154.461 100.267C154.461 122.063 139.159 148.568 120.282 159.467C101.405 170.365 86.1028 161.53 86.1028 139.733C86.1028 117.936 101.405 91.4317 120.282 80.5333C139.159 69.6349 154.461 78.4698 154.461 100.267Z" fill="white" stroke="#1019EF" stroke-width="6.4"/>
<mask id="path-2-inside-1_787_418" fill="white">
<path d="M120.132 132.533L164.934 106.667L164.934 137.067L120.132 162.933L120.132 132.533Z"/>
</mask>
<path d="M120.132 132.533L164.934 106.667L164.934 137.067L120.132 162.933L120.132 132.533Z" fill="white"/>
<path d="M164.934 106.667L170.477 103.467L170.477 97.0666L164.934 100.267L164.934 106.667ZM164.934 137.067L164.934 143.467L170.477 140.267L170.477 133.867L164.934 137.067ZM120.132 138.933L164.934 113.067L164.934 100.267L120.132 126.133L120.132 138.933ZM159.391 109.867L159.391 140.267L170.477 133.867L170.477 103.467L159.391 109.867ZM164.934 130.667L120.132 156.533L120.132 169.333L164.934 143.467L164.934 130.667Z" fill="#1019EF" mask="url(#path-2-inside-1_787_418)"/>
<path d="M104.665 138.665L150.729 110.933L148.132 125.067L104.665 151.209L104.665 138.665Z" fill="white"/>
<path d="M104.64 148.309L104.64 120.523L104.132 120.816L96.6497 131.536L96.6497 122.789L105.703 109.723L112.123 106.016L112.123 143.989L104.64 148.309ZM132.38 133.307C129.455 134.996 126.853 135.662 124.575 135.307C122.327 134.898 120.572 133.547 119.309 131.253C118.047 128.924 117.416 125.822 117.416 121.947C117.416 118.071 118.047 114.258 119.309 110.507C120.572 106.72 122.327 103.342 124.575 100.373C126.853 97.3511 129.455 94.9956 132.38 93.3067C135.275 91.6356 137.861 90.9956 140.14 91.3867C142.419 91.7422 144.189 93.0845 145.452 95.4134C146.714 97.7067 147.345 100.791 147.345 104.667C147.345 108.542 146.714 112.373 145.452 116.16C144.189 119.911 142.419 123.298 140.14 126.32C137.861 129.307 135.275 131.636 132.38 133.307ZM132.38 125.68C133.828 124.844 135.09 123.6 136.168 121.947C137.276 120.276 138.139 118.32 138.754 116.08C139.37 113.84 139.678 111.511 139.678 109.093C139.678 106.676 139.37 104.702 138.754 103.173C138.139 101.644 137.276 100.684 136.168 100.293C135.09 99.8845 133.828 100.098 132.38 100.933C130.933 101.769 129.655 103.022 128.547 104.693C127.438 106.364 126.576 108.32 125.96 110.56C125.375 112.782 125.083 115.102 125.083 117.52C125.083 119.938 125.375 121.92 125.96 123.467C126.576 124.996 127.438 125.956 128.547 126.347C129.655 126.738 130.933 126.516 132.38 125.68Z" fill="black"/>
</svg>
