<svg width="256" height="256" viewBox="0 0 256 256" fill="none" xmlns="http://www.w3.org/2000/svg">
<path d="M154.461 100.267C154.461 122.063 139.159 148.568 120.282 159.467C101.405 170.365 86.1028 161.53 86.1028 139.733C86.1028 117.936 101.405 91.4317 120.282 80.5333C139.159 69.6349 154.461 78.4698 154.461 100.267Z" fill="white" stroke="#1019EF" stroke-width="6.4"/>
<mask id="path-2-inside-1_787_634" fill="white">
<path d="M120.132 132.533L164.934 106.667L164.934 137.067L120.132 162.933L120.132 132.533Z"/>
</mask>
<path d="M120.132 132.533L164.934 106.667L164.934 137.067L120.132 162.933L120.132 132.533Z" fill="white"/>
<path d="M164.934 106.667L170.477 103.467L170.477 97.0665L164.934 100.267L164.934 106.667ZM164.934 137.067L164.934 143.467L170.477 140.267L170.477 133.867L164.934 137.067ZM120.132 138.933L164.934 113.067L164.934 100.267L120.132 126.133L120.132 138.933ZM159.391 109.867L159.391 140.267L170.477 133.867L170.477 103.467L159.391 109.867ZM164.934 130.667L120.132 156.533L120.132 169.333L164.934 143.467L164.934 130.667Z" fill="#1019EF" mask="url(#path-2-inside-1_787_634)"/>
<path d="M104.665 138.665L150.729 110.933L148.132 125.067L104.665 151.209L104.665 138.665Z" fill="white"/>
<path d="M107.237 147.823C104.804 149.228 102.587 149.886 100.586 149.797C98.6151 149.655 97.0447 148.837 95.8746 147.343C94.7353 145.797 94.1195 143.663 94.0271 140.943L101.14 136.837C101.14 138.295 101.402 139.441 101.925 140.277C102.449 141.112 103.157 141.61 104.05 141.77C104.974 141.877 106.005 141.601 107.144 140.943C108.253 140.303 109.238 139.468 110.101 138.437C110.963 137.406 111.64 136.286 112.133 135.077C112.625 133.832 112.872 132.623 112.872 131.45C112.872 130.277 112.61 129.361 112.087 128.703C111.594 128.028 110.901 127.681 110.008 127.663C109.146 127.592 108.176 127.868 107.098 128.49C106.636 128.757 106.144 129.112 105.62 129.557C105.097 129.966 104.666 130.357 104.327 130.73L102.664 126.623L109.408 114.837L109.408 114.303L96.1055 121.983L96.1055 115.263L118.876 102.117L118.876 107.29L111.07 121.023C112.795 120.348 114.334 120.188 115.689 120.543C117.075 120.846 118.153 121.646 118.922 122.943C119.723 124.188 120.123 125.823 120.123 127.85C120.123 130.232 119.569 132.703 118.461 135.263C117.383 137.77 115.859 140.143 113.888 142.383C111.917 144.588 109.7 146.401 107.237 147.823ZM138.005 129.046L138.005 121.206L122.254 130.3L122.254 125.446L134.771 92.9397L145.672 86.6464L145.672 110.113L149.505 107.9L149.505 114.566L145.672 116.78L145.672 124.62L138.005 129.046ZM129.691 119.34L137.958 114.566L137.958 98.4597L137.496 98.7264L129.691 119.34Z" fill="black"/>
</svg>
