<svg width="256" height="256" viewBox="0 0 256 256" fill="none" xmlns="http://www.w3.org/2000/svg">
<path d="M154.461 100.267C154.461 122.063 139.159 148.568 120.282 159.467C101.405 170.365 86.1028 161.53 86.1028 139.733C86.1028 117.936 101.405 91.4317 120.282 80.5333C139.159 69.6349 154.461 78.4698 154.461 100.267Z" fill="white" stroke="#1019EF" stroke-width="6.4"/>
<mask id="path-2-inside-1_787_776" fill="white">
<path d="M120.132 132.533L164.934 106.667L164.934 137.067L120.132 162.933L120.132 132.533Z"/>
</mask>
<path d="M120.132 132.533L164.934 106.667L164.934 137.067L120.132 162.933L120.132 132.533Z" fill="white"/>
<path d="M164.934 106.667L170.477 103.467L170.477 97.0665L164.934 100.267L164.934 106.667ZM164.934 137.067L164.934 143.467L170.477 140.267L170.477 133.867L164.934 137.067ZM120.132 138.933L164.934 113.067L164.934 100.267L120.132 126.133L120.132 138.933ZM159.391 109.867L159.391 140.267L170.477 133.867L170.477 103.467L159.391 109.867ZM164.934 130.667L120.132 156.533L120.132 169.333L164.934 143.467L164.934 130.667Z" fill="#1019EF" mask="url(#path-2-inside-1_787_776)"/>
<path d="M104.665 138.665L150.729 110.933L148.132 125.067L104.665 151.209L104.665 138.665Z" fill="white"/>
<path d="M106.702 148.132C104.269 149.537 102.068 150.203 100.097 150.132C98.1263 150.026 96.5559 149.226 95.3858 147.732C94.2157 146.239 93.5845 144.168 93.4921 141.519L100.605 137.412C100.605 138.763 100.867 139.839 101.39 140.639C101.945 141.421 102.668 141.892 103.561 142.052C104.485 142.159 105.501 141.892 106.61 141.252C107.718 140.612 108.703 139.777 109.566 138.746C110.459 137.697 111.151 136.55 111.644 135.306C112.137 134.061 112.383 132.87 112.383 131.732C112.383 130.488 112.121 129.537 111.598 128.879C111.074 128.221 110.32 127.91 109.335 127.946C108.349 127.981 107.195 128.381 105.871 129.146L96.0787 134.799L97.6029 114.399L117.048 103.172L117.048 109.892L103.192 117.892L102.591 125.066L107.857 122.026C110.166 120.692 112.198 120.052 113.953 120.106C115.739 120.141 117.125 120.834 118.11 122.186C119.096 123.501 119.588 125.368 119.588 127.786C119.588 130.239 119.034 132.763 117.926 135.359C116.817 137.954 115.277 140.39 113.307 142.666C111.367 144.888 109.165 146.71 106.702 148.132ZM136.532 130.857C133.822 132.421 131.451 133.328 129.419 133.577C127.417 133.772 125.847 133.345 124.708 132.297C123.599 131.23 123.045 129.594 123.045 127.39C123.045 125.008 123.645 122.634 124.846 120.27C126.047 117.905 127.587 115.914 129.465 114.297L129.465 113.763C127.987 113.941 126.771 113.594 125.816 112.723C124.892 111.799 124.431 110.359 124.431 108.403C124.431 106.305 124.923 104.172 125.909 102.003C126.925 99.8166 128.341 97.7721 130.158 95.8699C132.005 93.9499 134.13 92.2966 136.532 90.9099C138.872 89.5588 140.95 88.8033 142.767 88.6433C144.584 88.4832 146 88.9099 147.016 89.9232C148.063 90.8832 148.587 92.3944 148.587 94.4566C148.587 96.4121 148.11 98.3944 147.155 100.403C146.231 102.359 145.015 104.11 143.506 105.657L143.506 106.19C145.415 105.621 146.97 105.825 148.171 106.803C149.372 107.781 149.972 109.461 149.972 111.843C149.972 114.048 149.403 116.332 148.264 118.697C147.155 121.043 145.585 123.283 143.552 125.417C141.52 127.514 139.18 129.328 136.532 130.857ZM136.532 107.337C137.456 106.803 138.287 106.128 139.026 105.31C139.796 104.439 140.396 103.523 140.827 102.563C141.258 101.568 141.474 100.608 141.474 99.6832C141.474 98.7944 141.258 98.1188 140.827 97.6566C140.396 97.1588 139.796 96.9366 139.026 96.9899C138.287 96.9899 137.456 97.2566 136.532 97.7899C135.546 98.3588 134.669 99.0788 133.899 99.9499C133.16 100.768 132.575 101.674 132.144 102.67C131.744 103.612 131.543 104.528 131.543 105.417C131.543 106.341 131.744 107.061 132.144 107.577C132.575 108.039 133.175 108.261 133.945 108.243C134.715 108.19 135.577 107.888 136.532 107.337ZM136.532 123.923C137.548 123.337 138.487 122.581 139.349 121.657C140.211 120.697 140.873 119.674 141.335 118.59C141.797 117.47 142.028 116.394 142.028 115.363C142.028 114.297 141.782 113.497 141.289 112.963C140.827 112.412 140.165 112.154 139.303 112.19C138.472 112.208 137.548 112.51 136.532 113.097C135.454 113.719 134.499 114.501 133.668 115.443C132.837 116.385 132.175 117.408 131.682 118.51C131.22 119.594 130.989 120.67 130.989 121.737C130.989 122.768 131.22 123.577 131.682 124.163C132.175 124.697 132.837 124.954 133.668 124.937C134.499 124.883 135.454 124.545 136.532 123.923Z" fill="black"/>
</svg>
