<svg width="256" height="256" viewBox="0 0 256 256" fill="none" xmlns="http://www.w3.org/2000/svg">
<path d="M154.461 100.267C154.461 122.064 139.159 148.568 120.282 159.467C101.405 170.365 86.1028 161.53 86.1028 139.733C86.1028 117.937 101.405 91.4318 120.282 80.5334C139.159 69.635 154.461 78.4699 154.461 100.267Z" fill="white" stroke="#1019EF" stroke-width="6.4"/>
<mask id="path-2-inside-1_787_1196" fill="white">
<path d="M120.132 132.533L164.934 106.667L164.934 137.067L120.132 162.933L120.132 132.533Z"/>
</mask>
<path d="M120.132 132.533L164.934 106.667L164.934 137.067L120.132 162.933L120.132 132.533Z" fill="white"/>
<path d="M164.934 106.667L170.477 103.467L170.477 97.0668L164.934 100.267L164.934 106.667ZM164.934 137.067L164.934 143.467L170.477 140.267L170.477 133.867L164.934 137.067ZM120.132 138.933L164.934 113.067L164.934 100.267L120.132 126.133L120.132 138.933ZM159.391 109.867L159.391 140.267L170.477 133.867L170.477 103.467L159.391 109.867ZM164.934 130.667L120.132 156.533L120.132 169.333L164.934 143.467L164.934 130.667Z" fill="#1019EF" mask="url(#path-2-inside-1_787_1196)"/>
<path d="M104.665 138.666L150.729 110.933L148.132 125.067L104.665 151.209L104.665 138.666Z" fill="white"/>
<path d="M108.588 107.043C111.175 105.55 113.469 104.794 115.47 104.777C117.502 104.705 119.073 105.345 120.181 106.697C121.321 108.03 121.89 109.941 121.89 112.43C121.89 113.959 121.598 115.745 121.013 117.79C120.428 119.834 119.596 122.039 118.519 124.403L108.588 145.977L100.09 150.883L108.773 132.217C108.249 132.697 107.726 133.141 107.203 133.55C106.71 133.905 106.233 134.217 105.771 134.483C103.677 135.692 101.814 136.252 100.182 136.163C98.5808 136.057 97.3183 135.345 96.3945 134.03C95.4708 132.679 95.0089 130.83 95.0089 128.483C95.0089 125.817 95.5785 123.123 96.7178 120.403C97.8879 117.665 99.4891 115.141 101.521 112.83C103.584 110.501 105.94 108.572 108.588 107.043ZM108.357 114.323C107.279 114.945 106.31 115.772 105.447 116.803C104.585 117.834 103.908 118.99 103.415 120.27C102.922 121.514 102.676 122.777 102.676 124.057C102.676 125.301 102.922 126.261 103.415 126.937C103.908 127.577 104.585 127.932 105.447 128.003C106.31 128.039 107.279 127.745 108.357 127.123C109.466 126.483 110.466 125.639 111.359 124.59C112.283 123.523 112.991 122.368 113.484 121.123C113.977 119.879 114.223 118.634 114.223 117.39C114.223 116.11 113.977 115.114 113.484 114.403C112.991 113.692 112.283 113.354 111.359 113.39C110.466 113.372 109.466 113.683 108.357 114.323ZM136.097 131.161C133.511 132.654 131.201 133.437 129.169 133.508C127.167 133.525 125.597 132.868 124.458 131.534C123.349 130.183 122.795 128.245 122.795 125.721C122.795 124.192 123.087 122.405 123.673 120.361C124.258 118.317 125.104 116.103 126.213 113.721L136.097 92.1743L144.596 87.2676L135.912 105.934C136.436 105.454 136.944 105.037 137.437 104.681C137.96 104.272 138.453 103.934 138.915 103.668C141.008 102.459 142.856 101.925 144.457 102.068C146.089 102.157 147.367 102.859 148.291 104.174C149.214 105.49 149.676 107.339 149.676 109.721C149.676 112.388 149.091 115.09 147.921 117.828C146.782 120.548 145.181 123.072 143.118 125.401C141.085 127.712 138.745 129.632 136.097 131.161ZM136.328 123.881C137.437 123.241 138.422 122.405 139.284 121.374C140.146 120.308 140.808 119.161 141.27 117.934C141.763 116.654 142.009 115.374 142.009 114.094C142.009 112.85 141.763 111.908 141.27 111.268C140.808 110.574 140.146 110.21 139.284 110.174C138.422 110.139 137.437 110.441 136.328 111.081C135.22 111.721 134.203 112.574 133.28 113.641C132.387 114.654 131.694 115.783 131.201 117.028C130.708 118.272 130.462 119.517 130.462 120.761C130.462 122.041 130.708 123.037 131.201 123.748C131.694 124.459 132.387 124.823 133.28 124.841C134.203 124.841 135.22 124.521 136.328 123.881Z" fill="black"/>
</svg>
