<svg width="256" height="256" viewBox="0 0 256 256" fill="none" xmlns="http://www.w3.org/2000/svg">
<path d="M154.461 100.267C154.461 122.063 139.159 148.568 120.282 159.467C101.405 170.365 86.1028 161.53 86.1028 139.733C86.1028 117.936 101.405 91.4317 120.282 80.5333C139.159 69.6349 154.461 78.4698 154.461 100.267Z" fill="white" stroke="#1019EF" stroke-width="6.4"/>
<mask id="path-2-inside-1_787_625" fill="white">
<path d="M120.132 132.533L164.934 106.667L164.934 137.067L120.132 162.933L120.132 132.533Z"/>
</mask>
<path d="M120.132 132.533L164.934 106.667L164.934 137.067L120.132 162.933L120.132 132.533Z" fill="white"/>
<path d="M164.934 106.667L170.477 103.467L170.477 97.0665L164.934 100.267L164.934 106.667ZM164.934 137.067L164.934 143.467L170.477 140.267L170.477 133.867L164.934 137.067ZM120.132 138.933L164.934 113.067L164.934 100.267L120.132 126.133L120.132 138.933ZM159.392 109.867L159.392 140.267L170.477 133.867L170.477 103.467L159.392 109.867ZM164.934 130.667L120.132 156.533L120.132 169.333L164.934 143.467L164.934 130.667Z" fill="#1019EF" mask="url(#path-2-inside-1_787_625)"/>
<path d="M104.665 138.665L150.729 110.933L148.132 125.067L104.665 151.209L104.665 138.665Z" fill="white"/>
<path d="M108.166 147.287C105.733 148.691 103.516 149.349 101.515 149.26C99.5442 149.118 97.9738 148.3 96.8037 146.807C95.6644 145.26 95.0486 143.127 94.9562 140.407L102.069 136.3C102.069 137.758 102.331 138.905 102.854 139.74C103.378 140.576 104.086 141.074 104.979 141.234C105.903 141.34 106.934 141.065 108.074 140.407C109.182 139.767 110.167 138.931 111.03 137.9C111.892 136.869 112.569 135.749 113.062 134.54C113.555 133.296 113.801 132.087 113.801 130.914C113.801 129.74 113.539 128.825 113.016 128.167C112.523 127.491 111.83 127.145 110.937 127.127C110.075 127.056 109.105 127.331 108.027 127.954C107.566 128.22 107.073 128.576 106.549 129.02C106.026 129.429 105.595 129.82 105.256 130.194L103.593 126.087L110.337 114.3L110.337 113.767L97.0347 121.447L97.0347 114.727L119.805 101.58L119.805 106.754L112 120.487C113.724 119.811 115.264 119.651 116.618 120.007C118.004 120.309 119.082 121.109 119.852 122.407C120.652 123.651 121.052 125.287 121.052 127.314C121.052 129.696 120.498 132.167 119.39 134.727C118.312 137.234 116.788 139.607 114.817 141.847C112.846 144.051 110.629 145.865 108.166 147.287ZM136.763 130.777C134.33 132.181 132.113 132.839 130.112 132.75C128.141 132.608 126.571 131.79 125.401 130.297C124.261 128.75 123.645 126.617 123.553 123.897L130.666 119.79C130.666 121.248 130.928 122.394 131.451 123.23C131.975 124.065 132.683 124.563 133.576 124.723C134.5 124.83 135.531 124.554 136.67 123.897C137.779 123.257 138.764 122.421 139.626 121.39C140.489 120.359 141.166 119.239 141.659 118.03C142.151 116.785 142.398 115.577 142.398 114.403C142.398 113.23 142.136 112.314 141.613 111.657C141.12 110.981 140.427 110.634 139.534 110.617C138.672 110.545 137.702 110.821 136.624 111.443C136.162 111.71 135.67 112.065 135.146 112.51C134.623 112.919 134.192 113.31 133.853 113.683L132.19 109.577L138.934 97.7899L138.934 97.2566L125.632 104.937L125.632 98.2166L148.402 85.0699L148.402 90.2433L140.596 103.977C142.321 103.301 143.86 103.141 145.215 103.497C146.601 103.799 147.679 104.599 148.448 105.897C149.249 107.141 149.649 108.777 149.649 110.803C149.649 113.185 149.095 115.657 147.987 118.217C146.909 120.723 145.385 123.097 143.414 125.337C141.443 127.541 139.226 129.354 136.763 130.777Z" fill="black"/>
</svg>
