<svg width="256" height="256" viewBox="0 0 256 256" fill="none" xmlns="http://www.w3.org/2000/svg">
<path d="M154.461 100.267C154.461 122.063 139.159 148.568 120.282 159.467C101.405 170.365 86.1028 161.53 86.1028 139.733C86.1028 117.936 101.405 91.4316 120.282 80.5332C139.159 69.6348 154.461 78.4697 154.461 100.267Z" fill="white" stroke="#1019EF" stroke-width="6.4"/>
<mask id="path-2-inside-1_787_1647" fill="white">
<path d="M120.132 132.533L164.934 106.667L164.934 137.067L120.132 162.933L120.132 132.533Z"/>
</mask>
<path d="M120.132 132.533L164.934 106.667L164.934 137.067L120.132 162.933L120.132 132.533Z" fill="white"/>
<path d="M164.934 106.667L170.477 103.467L170.477 97.0665L164.934 100.267L164.934 106.667ZM164.934 137.067L164.934 143.467L170.477 140.267L170.477 133.867L164.934 137.067ZM120.132 138.933L164.934 113.067L164.934 100.267L120.132 126.133L120.132 138.933ZM159.391 109.867L159.391 140.267L170.477 133.867L170.477 103.467L159.391 109.867ZM164.934 130.667L120.132 156.533L120.132 169.333L164.934 143.467L164.934 130.667Z" fill="#1019EF" mask="url(#path-2-inside-1_787_1647)"/>
<path d="M104.665 138.665L150.729 110.933L148.132 125.066L104.665 151.208L104.665 138.665Z" fill="white"/>
<path d="M99.4629 145.816L99.4629 127.06L99.1199 127.258L94.0693 134.494L94.0693 128.59L100.18 119.77L104.514 117.268L104.514 142.9L99.4629 145.816ZM116.753 136.517C115.007 137.525 113.449 138.053 112.077 138.101C110.726 138.113 109.666 137.669 108.897 136.769C108.149 135.857 107.774 134.549 107.774 132.845C107.774 131.813 107.972 130.607 108.367 129.227C108.762 127.847 109.333 126.353 110.082 124.745L116.753 110.201L122.49 106.889L116.629 119.489C116.982 119.165 117.325 118.883 117.658 118.643C118.011 118.367 118.343 118.139 118.655 117.959C120.069 117.143 121.316 116.783 122.396 116.879C123.498 116.939 124.361 117.413 124.984 118.301C125.608 119.189 125.919 120.437 125.919 122.045C125.919 123.845 125.525 125.669 124.735 127.517C123.966 129.353 122.885 131.057 121.492 132.629C120.121 134.189 118.541 135.485 116.753 136.517ZM116.909 131.603C117.658 131.171 118.323 130.607 118.905 129.911C119.487 129.191 119.933 128.417 120.245 127.589C120.578 126.725 120.744 125.861 120.744 124.997C120.744 124.157 120.578 123.521 120.245 123.089C119.933 122.621 119.487 122.375 118.905 122.351C118.323 122.327 117.658 122.531 116.909 122.963C116.161 123.395 115.475 123.971 114.852 124.691C114.249 125.375 113.781 126.137 113.449 126.977C113.116 127.817 112.95 128.657 112.95 129.497C112.95 130.361 113.116 131.033 113.449 131.513C113.781 131.993 114.249 132.239 114.852 132.251C115.475 132.251 116.161 132.035 116.909 131.603ZM136.875 124.899C135.233 125.847 133.747 126.297 132.417 126.249C131.087 126.177 130.027 125.637 129.237 124.629C128.447 123.621 128.021 122.223 127.959 120.435L132.76 117.663C132.76 118.575 132.937 119.301 133.29 119.841C133.664 120.369 134.153 120.687 134.755 120.795C135.379 120.867 136.065 120.687 136.813 120.255C137.561 119.823 138.226 119.259 138.808 118.563C139.411 117.855 139.879 117.081 140.211 116.241C140.544 115.401 140.71 114.597 140.71 113.829C140.71 112.989 140.534 112.347 140.18 111.903C139.827 111.459 139.318 111.249 138.652 111.273C137.987 111.297 137.208 111.567 136.314 112.083L129.705 115.899L130.734 102.129L143.859 94.5514L143.859 99.0874L134.506 104.487L134.101 109.329L137.655 107.277C139.214 106.377 140.585 105.945 141.77 105.981C142.976 106.005 143.911 106.473 144.576 107.385C145.241 108.273 145.574 109.533 145.574 111.165C145.574 112.821 145.2 114.525 144.451 116.277C143.703 118.029 142.664 119.673 141.334 121.209C140.024 122.709 138.538 123.939 136.875 124.899Z" fill="black"/>
</svg>
