<svg width="256" height="256" viewBox="0 0 256 256" fill="none" xmlns="http://www.w3.org/2000/svg">
<path d="M154.461 100.267C154.461 122.063 139.159 148.568 120.282 159.467C101.405 170.365 86.1028 161.53 86.1028 139.733C86.1028 117.936 101.405 91.4317 120.282 80.5333C139.159 69.6349 154.461 78.4698 154.461 100.267Z" fill="white" stroke="#1019EF" stroke-width="6.4"/>
<mask id="path-2-inside-1_787_783" fill="white">
<path d="M120.132 132.533L164.934 106.667L164.934 137.067L120.132 162.933L120.132 132.533Z"/>
</mask>
<path d="M120.132 132.533L164.934 106.667L164.934 137.067L120.132 162.933L120.132 132.533Z" fill="white"/>
<path d="M164.934 106.667L170.477 103.467L170.477 97.0665L164.934 100.267L164.934 106.667ZM164.934 137.067L164.934 143.467L170.477 140.267L170.477 133.867L164.934 137.067ZM120.132 138.933L164.934 113.067L164.934 100.267L120.132 126.133L120.132 138.933ZM159.391 109.867L159.391 140.267L170.477 133.867L170.477 103.467L159.391 109.867ZM164.934 130.667L120.132 156.533L120.132 169.333L164.934 143.467L164.934 130.667Z" fill="#1019EF" mask="url(#path-2-inside-1_787_783)"/>
<path d="M104.665 138.665L150.729 110.933L148.132 125.067L104.665 151.209L104.665 138.665Z" fill="white"/>
<path d="M107.636 147.593C105.049 149.087 102.74 149.869 100.707 149.94C98.7059 149.958 97.1355 149.3 95.9962 147.967C94.8877 146.615 94.3334 144.678 94.3334 142.153C94.3334 140.624 94.626 138.838 95.211 136.793C95.7961 134.749 96.6428 132.535 97.7514 130.153L107.636 108.607L116.134 103.7L107.451 122.367C107.974 121.887 108.482 121.469 108.975 121.113C109.499 120.704 109.991 120.367 110.453 120.1C112.547 118.891 114.394 118.358 115.996 118.5C117.628 118.589 118.905 119.291 119.829 120.607C120.753 121.922 121.215 123.771 121.215 126.153C121.215 128.82 120.63 131.522 119.46 134.26C118.32 136.98 116.719 139.504 114.656 141.833C112.624 144.144 110.284 146.064 107.636 147.593ZM107.867 140.313C108.975 139.673 109.96 138.838 110.823 137.807C111.685 136.74 112.347 135.593 112.809 134.367C113.301 133.087 113.548 131.807 113.548 130.527C113.548 129.282 113.301 128.34 112.809 127.7C112.347 127.007 111.685 126.642 110.823 126.607C109.96 126.571 108.975 126.873 107.867 127.513C106.758 128.153 105.742 129.007 104.818 130.073C103.925 131.087 103.232 132.215 102.74 133.46C102.247 134.704 102.001 135.949 102.001 137.193C102.001 138.473 102.247 139.469 102.74 140.18C103.232 140.891 103.925 141.255 104.818 141.273C105.742 141.273 106.758 140.953 107.867 140.313ZM137.446 130.382C135.013 131.787 132.812 132.453 130.841 132.382C128.87 132.276 127.3 131.476 126.13 129.982C124.96 128.489 124.329 126.418 124.236 123.769L131.349 119.662C131.349 121.013 131.611 122.089 132.134 122.889C132.689 123.671 133.412 124.142 134.305 124.302C135.229 124.409 136.245 124.142 137.354 123.502C138.462 122.862 139.447 122.027 140.31 120.996C141.203 119.947 141.895 118.8 142.388 117.556C142.881 116.311 143.127 115.12 143.127 113.982C143.127 112.738 142.865 111.787 142.342 111.129C141.818 110.471 141.064 110.16 140.079 110.196C139.093 110.231 137.939 110.631 136.615 111.396L126.823 117.049L128.347 96.6489L147.792 85.4222L147.792 92.1422L133.936 100.142L133.335 107.316L138.601 104.276C140.91 102.942 142.942 102.302 144.697 102.356C146.483 102.391 147.869 103.084 148.854 104.436C149.84 105.751 150.332 107.618 150.332 110.036C150.332 112.489 149.778 115.013 148.67 117.609C147.561 120.204 146.022 122.64 144.051 124.916C142.111 127.138 139.909 128.96 137.446 130.382Z" fill="black"/>
</svg>
