<svg width="256" height="256" viewBox="0 0 256 256" fill="none" xmlns="http://www.w3.org/2000/svg">
<path d="M154.461 100.267C154.461 122.064 139.159 148.568 120.282 159.467C101.405 170.365 86.1028 161.53 86.1028 139.733C86.1028 117.937 101.405 91.4318 120.282 80.5334C139.159 69.6349 154.461 78.4698 154.461 100.267Z" fill="white" stroke="#1019EF" stroke-width="6.4"/>
<mask id="path-2-inside-1_787_589" fill="white">
<path d="M120.132 132.533L164.934 106.667L164.934 137.067L120.132 162.933L120.132 132.533Z"/>
</mask>
<path d="M120.132 132.533L164.934 106.667L164.934 137.067L120.132 162.933L120.132 132.533Z" fill="white"/>
<path d="M164.934 106.667L170.477 103.467L170.477 97.0666L164.934 100.267L164.934 106.667ZM164.934 137.067L164.934 143.467L170.477 140.267L170.477 133.867L164.934 137.067ZM120.132 138.933L164.934 113.067L164.934 100.267L120.132 126.133L120.132 138.933ZM159.391 109.867L159.391 140.267L170.477 133.867L170.477 103.467L159.391 109.867ZM164.934 130.667L120.132 156.533L120.132 169.333L164.934 143.467L164.934 130.667Z" fill="#1019EF" mask="url(#path-2-inside-1_787_589)"/>
<path d="M104.665 138.665L150.729 110.933L148.132 125.067L104.665 151.209L104.665 138.665Z" fill="white"/>
<path d="M94.7006 154.048L94.7006 149.141L108.418 127.195C108.511 127.035 108.603 126.875 108.696 126.715C108.819 126.537 108.927 126.368 109.019 126.208C110.312 124.11 111.236 122.439 111.79 121.195C112.375 119.932 112.668 118.715 112.668 117.541C112.668 116.475 112.437 115.648 111.975 115.061C111.513 114.439 110.897 114.101 110.127 114.048C109.358 113.995 108.495 114.243 107.541 114.795C106.432 115.435 105.432 116.332 104.539 117.488C103.676 118.626 102.984 119.932 102.46 121.408C101.968 122.83 101.69 124.323 101.629 125.888L94.793 129.835C94.793 129.692 94.793 129.55 94.793 129.408C94.793 126.777 95.3164 124.057 96.3634 121.248C97.4103 118.439 98.9191 115.826 100.89 113.408C102.86 110.99 105.108 109.052 107.633 107.595C109.943 106.261 112.021 105.595 113.869 105.595C115.716 105.559 117.163 106.163 118.21 107.408C119.257 108.617 119.781 110.377 119.781 112.688C119.781 114.821 119.242 117.123 118.164 119.595C117.086 122.066 115.454 125.017 113.268 128.448L105.647 140.475L105.647 141.008L119.042 133.275L119.042 139.995L94.7006 154.048ZM136.324 91.0302C138.91 89.5369 141.204 88.7813 143.206 88.7636C145.238 88.6925 146.808 89.3325 147.917 90.6836C149.056 92.0169 149.626 93.928 149.626 96.4169C149.626 97.9458 149.333 99.7324 148.748 101.777C148.163 103.821 147.332 106.026 146.254 108.39L136.324 129.964L127.825 134.87L136.508 116.204C135.985 116.684 135.461 117.128 134.938 117.537C134.445 117.892 133.968 118.204 133.506 118.47C131.412 119.679 129.549 120.239 127.917 120.15C126.316 120.044 125.054 119.332 124.13 118.017C123.206 116.666 122.744 114.817 122.744 112.47C122.744 109.804 123.314 107.11 124.453 104.39C125.623 101.652 127.225 99.128 129.257 96.8169C131.32 94.488 133.675 92.5591 136.324 91.0302ZM136.093 98.3102C135.015 98.9325 134.045 99.7591 133.183 100.79C132.321 101.821 131.643 102.977 131.151 104.257C130.658 105.501 130.412 106.764 130.412 108.044C130.412 109.288 130.658 110.248 131.151 110.924C131.643 111.564 132.321 111.919 133.183 111.99C134.045 112.026 135.015 111.732 136.093 111.11C137.201 110.47 138.202 109.626 139.095 108.577C140.019 107.51 140.727 106.355 141.219 105.11C141.712 103.866 141.959 102.621 141.959 101.377C141.959 100.097 141.712 99.1013 141.219 98.3902C140.727 97.6791 140.019 97.3413 139.095 97.3769C138.202 97.3591 137.201 97.6702 136.093 98.3102Z" fill="black"/>
</svg>
