<svg width="256" height="256" viewBox="0 0 256 256" fill="none" xmlns="http://www.w3.org/2000/svg">
<path d="M154.461 100.267C154.461 122.063 139.159 148.568 120.282 159.467C101.405 170.365 86.1028 161.53 86.1028 139.733C86.1028 117.936 101.405 91.4316 120.282 80.5332C139.159 69.6348 154.461 78.4697 154.461 100.267Z" fill="white" stroke="#1019EF" stroke-width="6.4"/>
<mask id="path-2-inside-1_787_1660" fill="white">
<path d="M120.132 132.533L164.934 106.667L164.934 137.067L120.132 162.933L120.132 132.533Z"/>
</mask>
<path d="M120.132 132.533L164.934 106.667L164.934 137.067L120.132 162.933L120.132 132.533Z" fill="white"/>
<path d="M164.934 106.667L170.477 103.467L170.477 97.0665L164.934 100.267L164.934 106.667ZM164.934 137.067L164.934 143.467L170.477 140.267L170.477 133.867L164.934 137.067ZM120.132 138.933L164.934 113.067L164.934 100.267L120.132 126.133L120.132 138.933ZM159.391 109.867L159.391 140.267L170.477 133.867L170.477 103.467L159.391 109.867ZM164.934 130.667L120.132 156.533L120.132 169.333L164.934 143.467L164.934 130.667Z" fill="#1019EF" mask="url(#path-2-inside-1_787_1660)"/>
<path d="M104.665 138.665L150.729 110.933L148.132 125.066L104.665 151.208L104.665 138.665Z" fill="white"/>
<path d="M101.114 144.862L101.114 126.106L100.771 126.304L95.7203 133.54L95.7203 127.636L101.831 118.816L106.165 116.314L106.165 141.946L101.114 144.862ZM111.514 138.858L118.903 113.784L108.864 119.58L108.864 114.756L124.733 105.594L124.733 109.086L116.877 135.762L111.514 138.858ZM135.553 125.627C133.724 126.683 132.123 127.295 130.752 127.463C129.401 127.595 128.341 127.307 127.572 126.599C126.823 125.879 126.449 124.775 126.449 123.287C126.449 121.679 126.855 120.077 127.665 118.481C128.476 116.885 129.515 115.541 130.783 114.449L130.783 114.089C129.785 114.209 128.964 113.975 128.32 113.387C127.696 112.763 127.385 111.791 127.385 110.471C127.385 109.055 127.717 107.615 128.382 106.151C129.068 104.675 130.024 103.295 131.25 102.011C132.498 100.715 133.932 99.5991 135.553 98.6631C137.133 97.7511 138.535 97.2411 139.762 97.1331C140.988 97.0251 141.944 97.3131 142.63 97.9971C143.337 98.6451 143.69 99.6651 143.69 101.057C143.69 102.377 143.368 103.715 142.724 105.071C142.1 106.391 141.279 107.573 140.261 108.617L140.261 108.977C141.549 108.593 142.599 108.731 143.409 109.391C144.22 110.051 144.625 111.185 144.625 112.793C144.625 114.281 144.241 115.823 143.472 117.419C142.724 119.003 141.664 120.515 140.292 121.955C138.92 123.371 137.34 124.595 135.553 125.627ZM135.553 109.751C136.176 109.391 136.738 108.935 137.236 108.383C137.756 107.795 138.161 107.177 138.452 106.529C138.743 105.857 138.889 105.209 138.889 104.585C138.889 103.985 138.743 103.529 138.452 103.217C138.161 102.881 137.756 102.731 137.236 102.767C136.738 102.767 136.176 102.947 135.553 103.307C134.888 103.691 134.295 104.177 133.776 104.765C133.277 105.317 132.882 105.929 132.591 106.601C132.321 107.237 132.186 107.855 132.186 108.455C132.186 109.079 132.321 109.565 132.591 109.913C132.882 110.225 133.287 110.375 133.807 110.363C134.327 110.327 134.909 110.123 135.553 109.751ZM135.553 120.947C136.239 120.551 136.873 120.041 137.455 119.417C138.037 118.769 138.484 118.079 138.795 117.347C139.107 116.591 139.263 115.865 139.263 115.169C139.263 114.449 139.097 113.909 138.764 113.549C138.452 113.177 138.005 113.003 137.424 113.027C136.862 113.039 136.239 113.243 135.553 113.639C134.825 114.059 134.181 114.587 133.62 115.223C133.059 115.859 132.612 116.549 132.279 117.293C131.968 118.025 131.812 118.751 131.812 119.471C131.812 120.167 131.968 120.713 132.279 121.109C132.612 121.469 133.059 121.643 133.62 121.631C134.181 121.595 134.825 121.367 135.553 120.947Z" fill="black"/>
</svg>
