<svg width="256" height="256" viewBox="0 0 256 256" fill="none" xmlns="http://www.w3.org/2000/svg">
<path d="M154.461 100.267C154.461 122.064 139.159 148.568 120.282 159.467C101.405 170.365 86.1028 161.53 86.1028 139.733C86.1028 117.937 101.405 91.4318 120.282 80.5334C139.159 69.6349 154.461 78.4698 154.461 100.267Z" fill="white" stroke="#1019EF" stroke-width="6.4"/>
<mask id="path-2-inside-1_787_526" fill="white">
<path d="M120.132 132.533L164.934 106.667L164.934 137.067L120.132 162.933L120.132 132.533Z"/>
</mask>
<path d="M120.132 132.533L164.934 106.667L164.934 137.067L120.132 162.933L120.132 132.533Z" fill="white"/>
<path d="M164.934 106.667L170.477 103.467L170.477 97.0666L164.934 100.267L164.934 106.667ZM164.934 137.067L164.934 143.467L170.477 140.267L170.477 133.867L164.934 137.067ZM120.132 138.933L164.934 113.067L164.934 100.267L120.132 126.133L120.132 138.933ZM159.392 109.867L159.392 140.267L170.477 133.867L170.477 103.467L159.392 109.867ZM164.934 130.667L120.132 156.533L120.132 169.333L164.934 143.467L164.934 130.667Z" fill="#1019EF" mask="url(#path-2-inside-1_787_526)"/>
<path d="M104.665 138.665L150.729 110.933L148.132 125.067L104.665 151.209L104.665 138.665Z" fill="white"/>
<path d="M95.3997 153.644L95.3997 148.738L109.118 126.791C109.21 126.631 109.302 126.471 109.395 126.311C109.518 126.133 109.626 125.964 109.718 125.804C111.011 123.707 111.935 122.035 112.489 120.791C113.074 119.529 113.367 118.311 113.367 117.138C113.367 116.071 113.136 115.244 112.674 114.658C112.212 114.035 111.596 113.698 110.826 113.644C110.057 113.591 109.194 113.84 108.24 114.391C107.131 115.031 106.131 115.929 105.238 117.084C104.376 118.222 103.683 119.529 103.159 121.004C102.667 122.427 102.389 123.92 102.328 125.484L95.4921 129.431C95.4921 129.289 95.4921 129.147 95.4921 129.004C95.4921 126.373 96.0155 123.653 97.0624 120.844C98.1094 118.035 99.6182 115.422 101.589 113.004C103.56 110.587 105.807 108.649 108.332 107.191C110.642 105.858 112.72 105.191 114.568 105.191C116.415 105.155 117.862 105.76 118.909 107.004C119.956 108.213 120.48 109.973 120.48 112.284C120.48 114.418 119.941 116.72 118.863 119.191C117.785 121.662 116.153 124.613 113.967 128.044L106.346 140.071L106.346 140.604L119.741 132.871L119.741 139.591L95.3997 153.644ZM123.951 137.16L123.951 132.253L137.669 110.307C137.762 110.147 137.854 109.987 137.946 109.827C138.07 109.649 138.177 109.48 138.27 109.32C139.563 107.222 140.487 105.551 141.041 104.307C141.626 103.044 141.919 101.827 141.919 100.653C141.919 99.5866 141.688 98.7599 141.226 98.1732C140.764 97.551 140.148 97.2133 139.378 97.1599C138.608 97.1066 137.746 97.3555 136.792 97.9066C135.683 98.5466 134.682 99.4444 133.789 100.6C132.927 101.738 132.234 103.044 131.711 104.52C131.218 105.942 130.941 107.435 130.88 109L124.044 112.947C124.044 112.804 124.044 112.662 124.044 112.52C124.044 109.889 124.567 107.169 125.614 104.36C126.661 101.551 128.17 98.9377 130.141 96.5199C132.111 94.1021 134.359 92.1644 136.884 90.7066C139.193 89.3733 141.272 88.7066 143.119 88.7066C144.967 88.671 146.414 89.2755 147.461 90.5199C148.508 91.7288 149.032 93.4888 149.032 95.7999C149.032 97.9332 148.493 100.235 147.415 102.707C146.337 105.178 144.705 108.129 142.519 111.56L134.898 123.587L134.898 124.12L148.293 116.387L148.293 123.107L123.951 137.16Z" fill="black"/>
</svg>
