<svg width="256" height="256" viewBox="0 0 256 256" fill="none" xmlns="http://www.w3.org/2000/svg">
<path d="M154.461 100.267C154.461 122.063 139.159 148.568 120.282 159.467C101.405 170.365 86.1028 161.53 86.1028 139.733C86.1028 117.936 101.405 91.4316 120.282 80.5332C139.159 69.6348 154.461 78.4697 154.461 100.267Z" fill="white" stroke="#1019EF" stroke-width="6.4"/>
<mask id="path-2-inside-1_787_2065" fill="white">
<path d="M120.132 132.533L164.934 106.667L164.934 137.067L120.132 162.933L120.132 132.533Z"/>
</mask>
<path d="M120.132 132.533L164.934 106.667L164.934 137.067L120.132 162.933L120.132 132.533Z" fill="white"/>
<path d="M164.934 106.667L170.477 103.467L170.477 97.0665L164.934 100.267L164.934 106.667ZM164.934 137.067L164.934 143.467L170.477 140.267L170.477 133.867L164.934 137.067ZM120.132 138.933L164.934 113.067L164.934 100.267L120.132 126.133L120.132 138.933ZM159.392 109.867L159.392 140.267L170.477 133.867L170.477 103.467L159.392 109.867ZM164.934 130.667L120.132 156.533L120.132 169.333L164.934 143.467L164.934 130.667Z" fill="#1019EF" mask="url(#path-2-inside-1_787_2065)"/>
<path d="M104.665 138.665L150.729 110.933L148.132 125.066L104.665 151.208L104.665 138.665Z" fill="white"/>
<path d="M93.8747 149.042L93.8747 145.73L103.134 130.916C103.197 130.808 103.259 130.7 103.321 130.592C103.404 130.472 103.477 130.358 103.54 130.25C104.412 128.834 105.036 127.706 105.41 126.866C105.805 126.014 106.002 125.192 106.002 124.4C106.002 123.68 105.847 123.122 105.535 122.726C105.223 122.306 104.807 122.078 104.288 122.042C103.768 122.006 103.186 122.174 102.542 122.546C101.794 122.978 101.118 123.584 100.515 124.364C99.9334 125.132 99.4657 126.014 99.1124 127.01C98.7798 127.97 98.5928 128.978 98.5512 130.034L93.937 132.698C93.937 132.602 93.937 132.506 93.937 132.41C93.937 130.634 94.2904 128.798 94.997 126.902C95.7037 125.006 96.7222 123.242 98.0524 121.61C99.3826 119.978 100.9 118.67 102.604 117.686C104.163 116.786 105.566 116.336 106.813 116.336C108.06 116.312 109.037 116.72 109.744 117.56C110.45 118.376 110.804 119.564 110.804 121.124C110.804 122.564 110.44 124.118 109.713 125.786C108.985 127.454 107.883 129.446 106.408 131.762L101.264 139.88L101.264 140.24L110.305 135.02L110.305 139.556L93.8747 149.042ZM123.248 132.767C121.274 133.907 119.518 134.357 117.98 134.117C116.462 133.841 115.278 132.929 114.425 131.381C113.573 129.809 113.147 127.715 113.147 125.099C113.147 122.483 113.573 119.909 114.425 117.377C115.278 114.821 116.462 112.541 117.98 110.537C119.518 108.497 121.274 106.907 123.248 105.767C125.202 104.639 126.948 104.207 128.486 104.471C130.024 104.711 131.219 105.617 132.071 107.189C132.924 108.737 133.35 110.819 133.35 113.435C133.35 116.051 132.924 118.637 132.071 121.193C131.219 123.725 130.024 126.011 128.486 128.051C126.948 130.067 125.202 131.639 123.248 132.767ZM123.248 127.619C124.225 127.055 125.077 126.215 125.805 125.099C126.553 123.971 127.135 122.651 127.551 121.139C127.967 119.627 128.174 118.055 128.174 116.423C128.174 114.791 127.967 113.459 127.551 112.427C127.135 111.395 126.553 110.747 125.805 110.483C125.077 110.207 124.225 110.351 123.248 110.915C122.272 111.479 121.409 112.325 120.661 113.453C119.912 114.581 119.331 115.901 118.915 117.413C118.52 118.913 118.322 120.479 118.322 122.111C118.322 123.743 118.52 125.081 118.915 126.125C119.331 127.157 119.912 127.805 120.661 128.069C121.409 128.333 122.272 128.183 123.248 127.619ZM140.968 121.853L140.968 103.097L140.625 103.295L135.574 110.531L135.574 104.627L141.685 95.8067L146.019 93.3047L146.019 118.937L140.968 121.853Z" fill="black"/>
</svg>
