<svg width="256" height="256" viewBox="0 0 256 256" fill="none" xmlns="http://www.w3.org/2000/svg">
<path d="M154.461 100.267C154.461 122.063 139.159 148.568 120.282 159.467C101.405 170.365 86.1028 161.53 86.1028 139.733C86.1028 117.936 101.405 91.4317 120.282 80.5333C139.159 69.6349 154.461 78.4698 154.461 100.267Z" fill="white" stroke="#1019EF" stroke-width="6.4"/>
<mask id="path-2-inside-1_787_772" fill="white">
<path d="M120.132 132.533L164.934 106.667L164.934 137.067L120.132 162.933L120.132 132.533Z"/>
</mask>
<path d="M120.132 132.533L164.934 106.667L164.934 137.067L120.132 162.933L120.132 132.533Z" fill="white"/>
<path d="M164.934 106.667L170.477 103.467L170.477 97.0665L164.934 100.267L164.934 106.667ZM164.934 137.067L164.934 143.467L170.477 140.267L170.477 133.867L164.934 137.067ZM120.132 138.933L164.934 113.067L164.934 100.267L120.132 126.133L120.132 138.933ZM159.391 109.867L159.391 140.267L170.477 133.867L170.477 103.467L159.391 109.867ZM164.934 130.667L120.132 156.533L120.132 169.333L164.934 143.467L164.934 130.667Z" fill="#1019EF" mask="url(#path-2-inside-1_787_772)"/>
<path d="M104.665 138.665L150.729 110.933L148.132 125.067L104.665 151.209L104.665 138.665Z" fill="white"/>
<path d="M107.221 147.833C104.788 149.237 102.587 149.904 100.616 149.833C98.6452 149.726 97.0748 148.926 95.9047 147.433C94.7346 145.939 94.1034 143.868 94.011 141.219L101.124 137.113C101.124 138.464 101.386 139.539 101.909 140.339C102.463 141.122 103.187 141.593 104.08 141.753C105.004 141.859 106.02 141.593 107.128 140.953C108.237 140.313 109.222 139.477 110.084 138.446C110.977 137.397 111.67 136.251 112.163 135.006C112.656 133.762 112.902 132.571 112.902 131.433C112.902 130.188 112.64 129.237 112.117 128.579C111.593 127.922 110.839 127.611 109.854 127.646C108.868 127.682 107.713 128.082 106.389 128.846L96.5976 134.499L98.1218 114.099L117.567 102.873L117.567 109.593L103.711 117.593L103.11 124.766L108.375 121.726C110.685 120.393 112.717 119.753 114.472 119.806C116.258 119.842 117.644 120.535 118.629 121.886C119.615 123.202 120.107 125.068 120.107 127.486C120.107 129.939 119.553 132.464 118.444 135.059C117.336 137.655 115.796 140.091 113.826 142.366C111.886 144.588 109.684 146.411 107.221 147.833ZM138.298 128.877L138.298 121.037L122.548 130.13L122.548 125.277L135.065 92.7704L145.965 86.4771L145.965 109.944L149.799 107.73L149.799 114.397L145.965 116.61L145.965 124.45L138.298 128.877ZM129.984 119.17L138.252 114.397L138.252 98.2904L137.79 98.5571L129.984 119.17Z" fill="black"/>
</svg>
