<svg width="256" height="256" viewBox="0 0 256 256" fill="none" xmlns="http://www.w3.org/2000/svg">
<path d="M154.461 100.267C154.461 122.063 139.159 148.568 120.282 159.467C101.405 170.365 86.1028 161.53 86.1028 139.733C86.1028 117.936 101.405 91.4316 120.282 80.5332C139.159 69.6348 154.461 78.4697 154.461 100.267Z" fill="white" stroke="#1019EF" stroke-width="6.4"/>
<mask id="path-2-inside-1_787_1669" fill="white">
<path d="M120.132 132.533L164.934 106.667L164.934 137.067L120.132 162.933L120.132 132.533Z"/>
</mask>
<path d="M120.132 132.533L164.934 106.667L164.934 137.067L120.132 162.933L120.132 132.533Z" fill="white"/>
<path d="M164.934 106.667L170.477 103.467L170.477 97.0665L164.934 100.267L164.934 106.667ZM164.934 137.067L164.934 143.467L170.477 140.267L170.477 133.867L164.934 137.067ZM120.132 138.933L164.934 113.067L164.934 100.267L120.132 126.133L120.132 138.933ZM159.391 109.867L159.391 140.267L170.477 133.867L170.477 103.467L159.391 109.867ZM164.934 130.667L120.132 156.533L120.132 169.333L164.934 143.467L164.934 130.667Z" fill="#1019EF" mask="url(#path-2-inside-1_787_1669)"/>
<path d="M104.665 138.665L150.729 110.933L148.132 125.066L104.665 151.208L104.665 138.665Z" fill="white"/>
<path d="M101.114 144.862L101.114 126.106L100.771 126.304L95.7203 133.54L95.7203 127.636L101.831 118.816L106.165 116.314L106.165 141.946L101.114 144.862ZM118.716 135.348C116.887 136.404 115.287 137.016 113.915 137.184C112.564 137.316 111.504 137.028 110.735 136.32C109.987 135.6 109.612 134.496 109.612 133.008C109.612 131.4 110.018 129.798 110.828 128.202C111.639 126.606 112.678 125.262 113.946 124.17L113.946 123.81C112.948 123.93 112.127 123.696 111.483 123.108C110.86 122.484 110.548 121.512 110.548 120.192C110.548 118.776 110.88 117.336 111.545 115.872C112.231 114.396 113.187 113.016 114.414 111.732C115.661 110.436 117.095 109.32 118.716 108.384C120.296 107.472 121.699 106.962 122.925 106.854C124.151 106.746 125.107 107.034 125.793 107.718C126.5 108.366 126.853 109.386 126.853 110.778C126.853 112.098 126.531 113.436 125.887 114.792C125.263 116.112 124.442 117.294 123.424 118.338L123.424 118.698C124.713 118.314 125.762 118.452 126.573 119.112C127.383 119.772 127.789 120.906 127.789 122.514C127.789 124.002 127.404 125.544 126.635 127.14C125.887 128.724 124.827 130.236 123.455 131.676C122.083 133.092 120.504 134.316 118.716 135.348ZM118.716 119.472C119.34 119.112 119.901 118.656 120.4 118.104C120.919 117.516 121.325 116.898 121.616 116.25C121.907 115.578 122.052 114.93 122.052 114.306C122.052 113.706 121.907 113.25 121.616 112.938C121.325 112.602 120.919 112.452 120.4 112.488C119.901 112.488 119.34 112.668 118.716 113.028C118.051 113.412 117.459 113.898 116.939 114.486C116.44 115.038 116.045 115.65 115.754 116.322C115.484 116.958 115.349 117.576 115.349 118.176C115.349 118.8 115.484 119.286 115.754 119.634C116.045 119.946 116.451 120.096 116.97 120.084C117.49 120.048 118.072 119.844 118.716 119.472ZM118.716 130.668C119.402 130.272 120.036 129.762 120.618 129.138C121.2 128.49 121.647 127.8 121.959 127.068C122.27 126.312 122.426 125.586 122.426 124.89C122.426 124.17 122.26 123.63 121.927 123.27C121.616 122.898 121.169 122.724 120.587 122.748C120.026 122.76 119.402 122.964 118.716 123.36C117.989 123.78 117.344 124.308 116.783 124.944C116.222 125.58 115.775 126.27 115.443 127.014C115.131 127.746 114.975 128.472 114.975 129.192C114.975 129.888 115.131 130.434 115.443 130.83C115.775 131.19 116.222 131.364 116.783 131.352C117.344 131.316 117.989 131.088 118.716 130.668ZM132.187 126.922L139.576 101.848L129.537 107.644L129.537 102.82L145.406 93.6582L145.406 97.1502L137.55 123.826L132.187 126.922Z" fill="black"/>
</svg>
