<svg width="256" height="256" viewBox="0 0 256 256" fill="none" xmlns="http://www.w3.org/2000/svg">
<path d="M154.461 100.267C154.461 122.063 139.159 148.568 120.282 159.467C101.405 170.365 86.1028 161.53 86.1028 139.733C86.1028 117.936 101.405 91.4316 120.282 80.5332C139.159 69.6348 154.461 78.4697 154.461 100.267Z" fill="white" stroke="#1019EF" stroke-width="6.4"/>
<mask id="path-2-inside-1_787_1646" fill="white">
<path d="M120.132 132.533L164.934 106.667L164.934 137.067L120.132 162.933L120.132 132.533Z"/>
</mask>
<path d="M120.132 132.533L164.934 106.667L164.934 137.067L120.132 162.933L120.132 132.533Z" fill="white"/>
<path d="M164.934 106.667L170.477 103.467L170.477 97.0665L164.934 100.267L164.934 106.667ZM164.934 137.067L164.934 143.467L170.477 140.267L170.477 133.867L164.934 137.067ZM120.132 138.933L164.934 113.067L164.934 100.267L120.132 126.133L120.132 138.933ZM159.391 109.867L159.391 140.267L170.477 133.867L170.477 103.467L159.391 109.867ZM164.934 130.667L120.132 156.533L120.132 169.333L164.934 143.467L164.934 130.667Z" fill="#1019EF" mask="url(#path-2-inside-1_787_1646)"/>
<path d="M104.665 138.665L150.729 110.933L148.132 125.066L104.665 151.208L104.665 138.665Z" fill="white"/>
<path d="M99.7589 145.645L99.7589 126.889L99.4159 127.087L94.3653 134.323L94.3653 128.419L100.476 119.599L104.81 117.097L104.81 142.729L99.7589 145.645ZM117.049 136.346C115.303 137.354 113.745 137.882 112.373 137.93C111.022 137.942 109.962 137.498 109.193 136.598C108.445 135.686 108.07 134.378 108.07 132.674C108.07 131.642 108.268 130.436 108.663 129.056C109.058 127.676 109.629 126.182 110.378 124.574L117.049 110.03L122.786 106.718L116.925 119.318C117.278 118.994 117.621 118.712 117.954 118.472C118.307 118.196 118.639 117.968 118.951 117.788C120.365 116.972 121.612 116.612 122.692 116.708C123.794 116.768 124.657 117.242 125.28 118.13C125.904 119.018 126.215 120.266 126.215 121.874C126.215 123.674 125.821 125.498 125.031 127.346C124.262 129.182 123.181 130.886 121.788 132.458C120.417 134.018 118.837 135.314 117.049 136.346ZM117.205 131.432C117.954 131 118.619 130.436 119.201 129.74C119.783 129.02 120.229 128.246 120.541 127.418C120.874 126.554 121.04 125.69 121.04 124.826C121.04 123.986 120.874 123.35 120.541 122.918C120.229 122.45 119.783 122.204 119.201 122.18C118.619 122.156 117.954 122.36 117.205 122.792C116.457 123.224 115.771 123.8 115.148 124.52C114.545 125.204 114.077 125.966 113.745 126.806C113.412 127.646 113.246 128.486 113.246 129.326C113.246 130.19 113.412 130.862 113.745 131.342C114.077 131.822 114.545 132.068 115.148 132.08C115.771 132.08 116.457 131.864 117.205 131.432ZM138.45 123.307L138.45 118.015L127.818 124.153L127.818 120.877L136.267 98.9345L143.625 94.6865L143.625 110.527L146.213 109.033L146.213 113.533L143.625 115.027L143.625 120.319L138.45 123.307ZM132.838 116.755L138.418 113.533L138.418 102.661L138.107 102.841L132.838 116.755Z" fill="black"/>
</svg>
