<svg width="256" height="256" viewBox="0 0 256 256" fill="none" xmlns="http://www.w3.org/2000/svg">
<path d="M154.461 100.267C154.461 122.064 139.159 148.568 120.282 159.467C101.405 170.365 86.1028 161.53 86.1028 139.733C86.1028 117.937 101.405 91.4318 120.282 80.5334C139.159 69.635 154.461 78.4699 154.461 100.267Z" fill="white" stroke="#1019EF" stroke-width="6.4"/>
<mask id="path-2-inside-1_787_1236" fill="white">
<path d="M120.132 132.533L164.934 106.667L164.934 137.067L120.132 162.933L120.132 132.533Z"/>
</mask>
<path d="M120.132 132.533L164.934 106.667L164.934 137.067L120.132 162.933L120.132 132.533Z" fill="white"/>
<path d="M164.934 106.667L170.477 103.467L170.477 97.0668L164.934 100.267L164.934 106.667ZM164.934 137.067L164.934 143.467L170.477 140.267L170.477 133.867L164.934 137.067ZM120.132 138.933L164.934 113.067L164.934 100.267L120.132 126.133L120.132 138.933ZM159.391 109.867L159.391 140.267L170.477 133.867L170.477 103.467L159.391 109.867ZM164.934 130.667L120.132 156.533L120.132 169.333L164.934 143.467L164.934 130.667Z" fill="#1019EF" mask="url(#path-2-inside-1_787_1236)"/>
<path d="M104.665 138.666L150.729 110.933L148.132 125.067L104.665 151.209L104.665 138.666Z" fill="white"/>
<path d="M99.6608 145.701L99.6608 126.945L99.3178 127.143L94.2672 134.379L94.2672 128.475L100.378 119.655L104.711 117.153L104.711 142.785L99.6608 145.701ZM116.64 136.583C114.998 137.531 113.501 137.975 112.15 137.915C110.82 137.819 109.76 137.267 108.97 136.259C108.201 135.215 107.785 133.775 107.723 131.939L112.524 129.167C112.524 130.151 112.701 130.925 113.054 131.489C113.408 132.053 113.886 132.389 114.488 132.497C115.112 132.569 115.808 132.383 116.577 131.939C117.325 131.507 117.991 130.943 118.572 130.247C119.154 129.551 119.612 128.795 119.944 127.979C120.277 127.139 120.443 126.323 120.443 125.531C120.443 124.739 120.266 124.121 119.913 123.677C119.581 123.221 119.113 122.987 118.51 122.975C117.928 122.927 117.273 123.113 116.546 123.533C116.234 123.713 115.902 123.953 115.548 124.253C115.195 124.529 114.904 124.793 114.675 125.045L113.553 122.273L118.105 114.317L118.105 113.957L109.126 119.141L109.126 114.605L124.496 105.731L124.496 109.223L119.227 118.493C120.391 118.037 121.43 117.929 122.345 118.169C123.28 118.373 124.008 118.913 124.527 119.789C125.068 120.629 125.338 121.733 125.338 123.101C125.338 124.709 124.964 126.377 124.216 128.105C123.488 129.797 122.459 131.399 121.129 132.911C119.799 134.399 118.302 135.623 116.64 136.583ZM136.254 125.258C134.508 126.266 132.949 126.794 131.578 126.842C130.227 126.854 129.167 126.41 128.398 125.51C127.649 124.598 127.275 123.29 127.275 121.586C127.275 120.554 127.473 119.348 127.868 117.968C128.263 116.588 128.834 115.094 129.582 113.486L136.254 98.9421L141.991 95.6301L136.129 108.23C136.483 107.906 136.826 107.624 137.158 107.384C137.512 107.108 137.844 106.88 138.156 106.7C139.569 105.884 140.816 105.524 141.897 105.62C142.999 105.68 143.861 106.154 144.485 107.042C145.108 107.93 145.42 109.178 145.42 110.786C145.42 112.586 145.025 114.41 144.235 116.258C143.466 118.094 142.386 119.798 140.993 121.37C139.621 122.93 138.042 124.226 136.254 125.258ZM136.41 120.344C137.158 119.912 137.823 119.348 138.405 118.652C138.987 117.932 139.434 117.158 139.746 116.33C140.079 115.466 140.245 114.602 140.245 113.738C140.245 112.898 140.079 112.262 139.746 111.83C139.434 111.362 138.987 111.116 138.405 111.092C137.823 111.068 137.158 111.272 136.41 111.704C135.662 112.136 134.976 112.712 134.352 113.432C133.75 114.116 133.282 114.878 132.949 115.718C132.617 116.558 132.451 117.398 132.451 118.238C132.451 119.102 132.617 119.774 132.949 120.254C133.282 120.734 133.75 120.98 134.352 120.992C134.976 120.992 135.662 120.776 136.41 120.344Z" fill="black"/>
</svg>
