<svg width="256" height="256" viewBox="0 0 256 256" fill="none" xmlns="http://www.w3.org/2000/svg">
<path d="M154.461 100.267C154.461 122.063 139.159 148.568 120.282 159.467C101.405 170.365 86.1028 161.53 86.1028 139.733C86.1028 117.936 101.405 91.4316 120.282 80.5332C139.159 69.6348 154.461 78.4697 154.461 100.267Z" fill="white" stroke="#1019EF" stroke-width="6.4"/>
<mask id="path-2-inside-1_787_1635" fill="white">
<path d="M120.132 132.533L164.934 106.667L164.934 137.067L120.132 162.933L120.132 132.533Z"/>
</mask>
<path d="M120.132 132.533L164.934 106.667L164.934 137.067L120.132 162.933L120.132 132.533Z" fill="white"/>
<path d="M164.934 106.667L170.477 103.467L170.477 97.0665L164.934 100.267L164.934 106.667ZM164.934 137.067L164.934 143.467L170.477 140.267L170.477 133.867L164.934 137.067ZM120.132 138.933L164.934 113.067L164.934 100.267L120.132 126.133L120.132 138.933ZM159.392 109.867L159.392 140.267L170.477 133.867L170.477 103.467L159.392 109.867ZM164.934 130.667L120.132 156.533L120.132 169.333L164.934 143.467L164.934 130.667Z" fill="#1019EF" mask="url(#path-2-inside-1_787_1635)"/>
<path d="M104.665 138.665L150.729 110.933L148.132 125.066L104.665 151.208L104.665 138.665Z" fill="white"/>
<path d="M100.368 145.293L100.368 126.537L100.025 126.735L94.9741 133.971L94.9741 128.067L101.085 119.247L105.418 116.745L105.418 142.377L100.368 145.293ZM117.534 136.066C115.892 137.014 114.405 137.464 113.075 137.416C111.745 137.344 110.685 136.804 109.895 135.796C109.105 134.788 108.679 133.39 108.617 131.602L113.418 128.83C113.418 129.742 113.595 130.468 113.948 131.008C114.322 131.536 114.811 131.854 115.414 131.962C116.037 132.034 116.723 131.854 117.471 131.422C118.219 130.99 118.885 130.426 119.467 129.73C120.069 129.022 120.537 128.248 120.869 127.408C121.202 126.568 121.368 125.764 121.368 124.996C121.368 124.156 121.192 123.514 120.838 123.07C120.485 122.626 119.976 122.416 119.311 122.44C118.646 122.464 117.866 122.734 116.972 123.25L110.363 127.066L111.392 113.296L124.517 105.718L124.517 110.254L115.164 115.654L114.759 120.496L118.313 118.444C119.872 117.544 121.244 117.112 122.428 117.148C123.634 117.172 124.569 117.64 125.234 118.552C125.899 119.44 126.232 120.7 126.232 122.332C126.232 123.988 125.858 125.692 125.11 127.444C124.361 129.196 123.322 130.84 121.992 132.376C120.682 133.876 119.196 135.106 117.534 136.066ZM137.045 124.801C135.403 125.749 133.907 126.193 132.556 126.133C131.226 126.037 130.165 125.485 129.376 124.477C128.607 123.433 128.191 121.993 128.129 120.157L132.93 117.385C132.93 118.369 133.107 119.143 133.46 119.707C133.813 120.271 134.291 120.607 134.894 120.715C135.518 120.787 136.214 120.601 136.983 120.157C137.731 119.725 138.396 119.161 138.978 118.465C139.56 117.769 140.017 117.013 140.35 116.197C140.682 115.357 140.849 114.541 140.849 113.749C140.849 112.957 140.672 112.339 140.319 111.895C139.986 111.439 139.519 111.205 138.916 111.193C138.334 111.145 137.679 111.331 136.952 111.751C136.64 111.931 136.307 112.171 135.954 112.471C135.601 112.747 135.31 113.011 135.081 113.263L133.959 110.491L138.511 102.535L138.511 102.175L129.532 107.359L129.532 102.823L144.902 93.9494L144.902 97.4414L139.633 106.711C140.797 106.255 141.836 106.147 142.751 106.387C143.686 106.591 144.413 107.131 144.933 108.007C145.473 108.847 145.744 109.951 145.744 111.319C145.744 112.927 145.369 114.595 144.621 116.323C143.894 118.015 142.865 119.617 141.535 121.129C140.204 122.617 138.708 123.841 137.045 124.801Z" fill="black"/>
</svg>
