<svg width="256" height="256" viewBox="0 0 256 256" fill="none" xmlns="http://www.w3.org/2000/svg">
<path d="M154.461 100.267C154.461 122.063 139.159 148.568 120.282 159.467C101.405 170.365 86.1028 161.53 86.1028 139.733C86.1028 117.936 101.405 91.4316 120.282 80.5332C139.159 69.6348 154.461 78.4697 154.461 100.267Z" fill="white" stroke="#1019EF" stroke-width="6.4"/>
<mask id="path-2-inside-1_787_2088" fill="white">
<path d="M120.132 132.533L164.934 106.667L164.934 137.067L120.132 162.933L120.132 132.533Z"/>
</mask>
<path d="M120.132 132.533L164.934 106.667L164.934 137.067L120.132 162.933L120.132 132.533Z" fill="white"/>
<path d="M164.934 106.667L170.477 103.467L170.477 97.0665L164.934 100.267L164.934 106.667ZM164.934 137.067L164.934 143.467L170.477 140.267L170.477 133.867L164.934 137.067ZM120.132 138.933L164.934 113.067L164.934 100.267L120.132 126.133L120.132 138.933ZM159.391 109.867L159.391 140.267L170.477 133.867L170.477 103.467L159.391 109.867ZM164.934 130.667L120.132 156.533L120.132 169.333L164.934 143.467L164.934 130.667Z" fill="#1019EF" mask="url(#path-2-inside-1_787_2088)"/>
<path d="M104.665 138.665L150.729 110.933L148.132 125.066L104.665 151.208L104.665 138.665Z" fill="white"/>
<path d="M92.0412 150.101L92.0412 146.789L101.301 131.975C101.363 131.867 101.425 131.759 101.488 131.651C101.571 131.531 101.644 131.417 101.706 131.309C102.579 129.893 103.203 128.765 103.577 127.925C103.972 127.073 104.169 126.251 104.169 125.459C104.169 124.739 104.013 124.181 103.701 123.785C103.39 123.365 102.974 123.137 102.454 123.101C101.935 123.065 101.353 123.233 100.708 123.605C99.9602 124.037 99.2847 124.643 98.6819 125.423C98.1 126.191 97.6323 127.073 97.279 128.069C96.9464 129.029 96.7593 130.037 96.7178 131.093L92.1036 133.757C92.1036 133.661 92.1036 133.565 92.1036 133.469C92.1036 131.693 92.4569 129.857 93.1636 127.961C93.8703 126.065 94.8887 124.301 96.2189 122.669C97.5492 121.037 99.0664 119.729 100.771 118.745C102.33 117.845 103.733 117.395 104.98 117.395C106.227 117.371 107.204 117.779 107.91 118.619C108.617 119.435 108.97 120.623 108.97 122.183C108.97 123.623 108.607 125.177 107.879 126.845C107.152 128.513 106.05 130.505 104.574 132.821L99.4302 140.939L99.4302 141.299L108.471 136.079L108.471 140.615L92.0412 150.101ZM111.314 138.974L111.314 135.662L120.573 120.848C120.636 120.74 120.698 120.632 120.76 120.524C120.843 120.404 120.916 120.29 120.979 120.182C121.851 118.766 122.475 117.638 122.849 116.798C123.244 115.946 123.442 115.124 123.442 114.332C123.442 113.612 123.286 113.054 122.974 112.658C122.662 112.238 122.246 112.01 121.727 111.974C121.207 111.938 120.625 112.106 119.981 112.478C119.233 112.91 118.557 113.516 117.954 114.296C117.372 115.064 116.905 115.946 116.551 116.942C116.219 117.902 116.032 118.91 115.99 119.966L111.376 122.63C111.376 122.534 111.376 122.438 111.376 122.342C111.376 120.566 111.729 118.73 112.436 116.834C113.143 114.938 114.161 113.174 115.491 111.542C116.822 109.91 118.339 108.602 120.043 107.618C121.602 106.718 123.005 106.268 124.252 106.268C125.499 106.244 126.476 106.652 127.183 107.492C127.889 108.308 128.243 109.496 128.243 111.056C128.243 112.496 127.879 114.05 127.152 115.718C126.424 117.386 125.323 119.378 123.847 121.694L118.703 129.812L118.703 130.172L127.744 124.952L127.744 129.488L111.314 138.974ZM140.407 122.177L140.407 116.885L129.776 123.023L129.776 119.747L138.224 97.8047L145.582 93.5567L145.582 109.397L148.17 107.903L148.17 112.403L145.582 113.897L145.582 119.189L140.407 122.177ZM134.795 115.625L140.376 112.403L140.376 101.531L140.064 101.711L134.795 115.625Z" fill="black"/>
</svg>
