<svg width="256" height="256" viewBox="0 0 256 256" fill="none" xmlns="http://www.w3.org/2000/svg">
<path d="M154.461 100.267C154.461 122.064 139.159 148.568 120.282 159.467C101.405 170.365 86.1028 161.53 86.1028 139.733C86.1028 117.937 101.405 91.4318 120.282 80.5334C139.159 69.635 154.461 78.4699 154.461 100.267Z" fill="white" stroke="#1019EF" stroke-width="6.4"/>
<mask id="path-2-inside-1_787_1230" fill="white">
<path d="M120.132 132.533L164.934 106.667L164.934 137.067L120.132 162.933L120.132 132.533Z"/>
</mask>
<path d="M120.132 132.533L164.934 106.667L164.934 137.067L120.132 162.933L120.132 132.533Z" fill="white"/>
<path d="M164.934 106.667L170.477 103.467L170.477 97.0668L164.934 100.267L164.934 106.667ZM164.934 137.067L164.934 143.467L170.477 140.267L170.477 133.867L164.934 137.067ZM120.132 138.933L164.934 113.067L164.934 100.267L120.132 126.133L120.132 138.933ZM159.391 109.867L159.391 140.267L170.477 133.867L170.477 103.467L159.391 109.867ZM164.934 130.667L120.132 156.533L120.132 169.333L164.934 143.467L164.934 130.667Z" fill="#1019EF" mask="url(#path-2-inside-1_787_1230)"/>
<path d="M104.665 138.666L150.729 110.933L148.132 125.067L104.665 151.209L104.665 138.666Z" fill="white"/>
<path d="M98.7542 146.225L98.7542 127.469L98.4113 127.667L93.3606 134.903L93.3606 128.999L99.4713 120.179L103.805 117.677L103.805 143.309L98.7542 146.225ZM115.733 137.106C114.091 138.054 112.594 138.498 111.243 138.438C109.913 138.342 108.853 137.79 108.063 136.782C107.294 135.738 106.879 134.298 106.816 132.462L111.618 129.69C111.618 130.674 111.794 131.448 112.148 132.012C112.501 132.576 112.979 132.912 113.582 133.02C114.205 133.092 114.902 132.906 115.671 132.462C116.419 132.03 117.084 131.466 117.666 130.77C118.248 130.074 118.705 129.318 119.038 128.502C119.37 127.662 119.537 126.846 119.537 126.054C119.537 125.262 119.36 124.644 119.007 124.2C118.674 123.744 118.206 123.51 117.604 123.498C117.022 123.45 116.367 123.636 115.639 124.056C115.328 124.236 114.995 124.476 114.642 124.776C114.288 125.052 113.997 125.316 113.769 125.568L112.646 122.796L117.198 114.84L117.198 114.48L108.219 119.664L108.219 115.128L123.59 106.254L123.59 109.746L118.321 119.016C119.485 118.56 120.524 118.452 121.438 118.692C122.374 118.896 123.101 119.436 123.621 120.312C124.161 121.152 124.431 122.256 124.431 123.624C124.431 125.232 124.057 126.9 123.309 128.628C122.581 130.32 121.553 131.922 120.222 133.434C118.892 134.922 117.396 136.146 115.733 137.106ZM136.782 124.954C134.807 126.094 133.051 126.544 131.513 126.304C129.996 126.028 128.811 125.116 127.959 123.568C127.107 121.996 126.68 119.902 126.68 117.286C126.68 114.67 127.107 112.096 127.959 109.564C128.811 107.008 129.996 104.728 131.513 102.724C133.051 100.684 134.807 99.0935 136.782 97.9535C138.736 96.8255 140.481 96.3935 142.019 96.6575C143.558 96.8975 144.753 97.8035 145.605 99.3755C146.457 100.924 146.883 103.006 146.883 105.622C146.883 108.238 146.457 110.824 145.605 113.38C144.753 115.912 143.558 118.198 142.019 120.238C140.481 122.254 138.736 123.826 136.782 124.954ZM136.782 119.806C137.759 119.242 138.611 118.402 139.338 117.286C140.087 116.158 140.668 114.838 141.084 113.326C141.5 111.814 141.708 110.242 141.708 108.61C141.708 106.978 141.5 105.646 141.084 104.614C140.668 103.582 140.087 102.934 139.338 102.67C138.611 102.394 137.759 102.538 136.782 103.102C135.805 103.666 134.942 104.512 134.194 105.64C133.446 106.768 132.864 108.088 132.448 109.6C132.053 111.1 131.856 112.666 131.856 114.298C131.856 115.93 132.053 117.268 132.448 118.312C132.864 119.344 133.446 119.992 134.194 120.256C134.942 120.52 135.805 120.37 136.782 119.806Z" fill="black"/>
</svg>
