<svg width="256" height="256" viewBox="0 0 256 256" fill="none" xmlns="http://www.w3.org/2000/svg">
<path d="M154.461 100.267C154.461 122.063 139.159 148.568 120.282 159.467C101.405 170.365 86.1028 161.53 86.1028 139.733C86.1028 117.936 101.405 91.4317 120.282 80.5333C139.159 69.6349 154.461 78.4698 154.461 100.267Z" fill="white" stroke="#1019EF" stroke-width="6.4"/>
<mask id="path-2-inside-1_787_777" fill="white">
<path d="M120.132 132.533L164.934 106.667L164.934 137.067L120.132 162.933L120.132 132.533Z"/>
</mask>
<path d="M120.132 132.533L164.934 106.667L164.934 137.067L120.132 162.933L120.132 132.533Z" fill="white"/>
<path d="M164.934 106.667L170.477 103.467L170.477 97.0665L164.934 100.267L164.934 106.667ZM164.934 137.067L164.934 143.467L170.477 140.267L170.477 133.867L164.934 137.067ZM120.132 138.933L164.934 113.067L164.934 100.267L120.132 126.133L120.132 138.933ZM159.391 109.867L159.391 140.267L170.477 133.867L170.477 103.467L159.391 109.867ZM164.934 130.667L120.132 156.533L120.132 169.333L164.934 143.467L164.934 130.667Z" fill="#1019EF" mask="url(#path-2-inside-1_787_777)"/>
<path d="M104.665 138.665L150.729 110.933L148.132 125.067L104.665 151.209L104.665 138.665Z" fill="white"/>
<path d="M107.473 147.687C105.041 149.091 102.839 149.758 100.869 149.687C98.8978 149.58 97.3274 148.78 96.1573 147.287C94.9872 145.794 94.356 143.722 94.2636 141.074L101.377 136.967C101.377 138.318 101.638 139.394 102.162 140.194C102.716 140.976 103.44 141.447 104.333 141.607C105.256 141.714 106.272 141.447 107.381 140.807C108.49 140.167 109.475 139.331 110.337 138.3C111.23 137.251 111.923 136.105 112.416 134.86C112.908 133.616 113.155 132.425 113.155 131.287C113.155 130.042 112.893 129.091 112.369 128.434C111.846 127.776 111.091 127.465 110.106 127.5C109.121 127.536 107.966 127.936 106.642 128.7L96.8501 134.354L98.3743 113.954L117.819 102.727L117.819 109.447L103.963 117.447L103.363 124.62L108.628 121.58C110.937 120.247 112.97 119.607 114.725 119.66C116.511 119.696 117.896 120.389 118.882 121.74C119.867 123.056 120.36 124.922 120.36 127.34C120.36 129.794 119.806 132.318 118.697 134.914C117.589 137.509 116.049 139.945 114.078 142.22C112.138 144.442 109.937 146.265 107.473 147.687ZM137.072 90.5979C139.659 89.1046 141.953 88.3491 143.954 88.3313C145.987 88.2602 147.557 88.9002 148.666 90.2513C149.805 91.5846 150.374 93.4957 150.374 95.9846C150.374 97.5135 150.082 99.3002 149.497 101.345C148.912 103.389 148.08 105.593 147.003 107.958L137.072 129.531L128.574 134.438L137.257 115.771C136.734 116.251 136.21 116.696 135.687 117.105C135.194 117.46 134.717 117.771 134.255 118.038C132.161 119.247 130.298 119.807 128.666 119.718C127.065 119.611 125.802 118.9 124.879 117.585C123.955 116.233 123.493 114.385 123.493 112.038C123.493 109.371 124.063 106.678 125.202 103.958C126.372 101.22 127.973 98.6957 130.006 96.3846C132.069 94.0557 134.424 92.1268 137.072 90.5979ZM136.841 97.8779C135.764 98.5002 134.794 99.3268 133.932 100.358C133.069 101.389 132.392 102.545 131.899 103.825C131.407 105.069 131.16 106.331 131.16 107.611C131.16 108.856 131.407 109.816 131.899 110.491C132.392 111.131 133.069 111.487 133.932 111.558C134.794 111.593 135.764 111.3 136.841 110.678C137.95 110.038 138.951 109.193 139.844 108.145C140.767 107.078 141.476 105.922 141.968 104.678C142.461 103.433 142.707 102.189 142.707 100.945C142.707 99.6646 142.461 98.669 141.968 97.9579C141.476 97.2468 140.767 96.909 139.844 96.9446C138.951 96.9268 137.95 97.2379 136.841 97.8779Z" fill="black"/>
</svg>
