<svg width="256" height="256" viewBox="0 0 256 256" fill="none" xmlns="http://www.w3.org/2000/svg">
<path d="M154.461 100.267C154.461 122.063 139.159 148.568 120.282 159.467C101.405 170.365 86.1028 161.53 86.1028 139.733C86.1028 117.936 101.405 91.4316 120.282 80.5332C139.159 69.6348 154.461 78.4697 154.461 100.267Z" fill="white" stroke="#1019EF" stroke-width="6.4"/>
<mask id="path-2-inside-1_787_2063" fill="white">
<path d="M120.132 132.533L164.934 106.667L164.934 137.067L120.132 162.933L120.132 132.533Z"/>
</mask>
<path d="M120.132 132.533L164.934 106.667L164.934 137.067L120.132 162.933L120.132 132.533Z" fill="white"/>
<path d="M164.934 106.667L170.477 103.467L170.477 97.0665L164.934 100.267L164.934 106.667ZM164.934 137.067L164.934 143.467L170.477 140.267L170.477 133.867L164.934 137.067ZM120.132 138.933L164.934 113.067L164.934 100.267L120.132 126.133L120.132 138.933ZM159.391 109.867L159.391 140.267L170.477 133.867L170.477 103.467L159.391 109.867ZM164.934 130.667L120.132 156.533L120.132 169.333L164.934 143.467L164.934 130.667Z" fill="#1019EF" mask="url(#path-2-inside-1_787_2063)"/>
<path d="M104.665 138.665L150.729 110.933L148.132 125.066L104.665 151.208L104.665 138.665Z" fill="white"/>
<path d="M99.6523 145.706L99.6523 126.95L99.3094 127.148L94.2587 134.384L94.2587 128.48L100.369 119.66L104.703 117.158L104.703 142.79L99.6523 145.706ZM117.099 109.318C118.845 108.31 120.393 107.8 121.744 107.788C123.116 107.74 124.176 108.172 124.924 109.084C125.693 109.984 126.078 111.274 126.078 112.954C126.078 113.986 125.88 115.192 125.485 116.572C125.09 117.952 124.529 119.44 123.802 121.036L117.099 135.598L111.362 138.91L117.223 126.31C116.87 126.634 116.517 126.934 116.163 127.21C115.831 127.45 115.509 127.66 115.197 127.84C113.784 128.656 112.526 129.034 111.425 128.974C110.344 128.902 109.492 128.422 108.868 127.534C108.244 126.622 107.933 125.374 107.933 123.79C107.933 121.99 108.317 120.172 109.086 118.336C109.876 116.488 110.957 114.784 112.329 113.224C113.721 111.652 115.311 110.35 117.099 109.318ZM116.943 114.232C116.215 114.652 115.561 115.21 114.979 115.906C114.397 116.602 113.939 117.382 113.607 118.246C113.274 119.086 113.108 119.938 113.108 120.802C113.108 121.642 113.274 122.29 113.607 122.746C113.939 123.178 114.397 123.418 114.979 123.466C115.561 123.49 116.215 123.292 116.943 122.872C117.691 122.44 118.367 121.87 118.969 121.162C119.593 120.442 120.071 119.662 120.403 118.822C120.736 117.982 120.902 117.142 120.902 116.302C120.902 115.438 120.736 114.766 120.403 114.286C120.071 113.806 119.593 113.578 118.969 113.602C118.367 113.59 117.691 113.8 116.943 114.232ZM137.315 97.6456C139.061 96.6376 140.609 96.1276 141.96 96.1156C143.332 96.0676 144.392 96.4996 145.14 97.4116C145.909 98.3116 146.294 99.6016 146.294 101.282C146.294 102.314 146.096 103.52 145.702 104.9C145.307 106.28 144.745 107.768 144.018 109.364L137.315 123.926L131.578 127.238L137.44 114.638C137.086 114.962 136.733 115.262 136.38 115.538C136.047 115.778 135.725 115.988 135.413 116.168C134 116.984 132.742 117.362 131.641 117.302C130.56 117.23 129.708 116.75 129.084 115.862C128.461 114.95 128.149 113.702 128.149 112.118C128.149 110.318 128.534 108.5 129.303 106.664C130.092 104.816 131.173 103.112 132.545 101.552C133.938 99.9796 135.528 98.6776 137.315 97.6456ZM137.159 102.56C136.432 102.98 135.777 103.538 135.195 104.234C134.613 104.93 134.156 105.71 133.823 106.574C133.491 107.414 133.324 108.266 133.324 109.13C133.324 109.97 133.491 110.618 133.823 111.074C134.156 111.506 134.613 111.746 135.195 111.794C135.777 111.818 136.432 111.62 137.159 111.2C137.907 110.768 138.583 110.198 139.186 109.49C139.809 108.77 140.287 107.99 140.62 107.15C140.952 106.31 141.119 105.47 141.119 104.63C141.119 103.766 140.952 103.094 140.62 102.614C140.287 102.134 139.809 101.906 139.186 101.93C138.583 101.918 137.907 102.128 137.159 102.56Z" fill="black"/>
</svg>
