<svg width="256" height="256" viewBox="0 0 256 256" fill="none" xmlns="http://www.w3.org/2000/svg">
<path d="M154.461 100.267C154.461 122.064 139.159 148.568 120.282 159.467C101.405 170.365 86.1028 161.53 86.1028 139.733C86.1028 117.937 101.405 91.4318 120.282 80.5334C139.159 69.635 154.461 78.4699 154.461 100.267Z" fill="white" stroke="#1019EF" stroke-width="6.4"/>
<mask id="path-2-inside-1_787_1195" fill="white">
<path d="M120.132 132.533L164.934 106.667L164.934 137.067L120.132 162.933L120.132 132.533Z"/>
</mask>
<path d="M120.132 132.533L164.934 106.667L164.934 137.067L120.132 162.933L120.132 132.533Z" fill="white"/>
<path d="M164.934 106.667L170.477 103.467L170.477 97.0668L164.934 100.267L164.934 106.667ZM164.934 137.067L164.934 143.467L170.477 140.267L170.477 133.867L164.934 137.067ZM120.132 138.933L164.934 113.067L164.934 100.267L120.132 126.133L120.132 138.933ZM159.391 109.867L159.391 140.267L170.477 133.867L170.477 103.467L159.391 109.867ZM164.934 130.667L120.132 156.533L120.132 169.333L164.934 143.467L164.934 130.667Z" fill="#1019EF" mask="url(#path-2-inside-1_787_1195)"/>
<path d="M104.665 138.666L150.729 110.933L148.132 125.067L104.665 151.209L104.665 138.666Z" fill="white"/>
<path d="M107.889 107.447C110.476 105.954 112.77 105.198 114.771 105.18C116.803 105.109 118.374 105.749 119.482 107.1C120.622 108.434 121.191 110.345 121.191 112.834C121.191 114.362 120.899 116.149 120.314 118.194C119.729 120.238 118.897 122.442 117.819 124.807L107.889 146.38L99.3905 151.287L108.074 132.62C107.55 133.1 107.027 133.545 106.503 133.954C106.011 134.309 105.533 134.62 105.072 134.887C102.978 136.096 101.115 136.656 99.4829 136.567C97.8817 136.46 96.6192 135.749 95.6954 134.434C94.7717 133.082 94.3098 131.234 94.3098 128.887C94.3098 126.22 94.8795 123.527 96.0188 120.807C97.1889 118.069 98.79 115.545 100.822 113.234C102.885 110.905 105.241 108.976 107.889 107.447ZM107.658 114.727C106.58 115.349 105.61 116.176 104.748 117.207C103.886 118.238 103.209 119.394 102.716 120.674C102.223 121.918 101.977 123.18 101.977 124.46C101.977 125.705 102.223 126.665 102.716 127.34C103.209 127.98 103.886 128.336 104.748 128.407C105.61 128.442 106.58 128.149 107.658 127.527C108.767 126.887 109.767 126.042 110.66 124.994C111.584 123.927 112.292 122.771 112.785 121.527C113.278 120.282 113.524 119.038 113.524 117.794C113.524 116.514 113.278 115.518 112.785 114.807C112.292 114.096 111.584 113.758 110.66 113.794C109.767 113.776 108.767 114.087 107.658 114.727ZM137.423 130.395C134.991 131.8 132.789 132.466 130.819 132.395C128.848 132.289 127.277 131.489 126.107 129.995C124.937 128.502 124.306 126.431 124.214 123.782L131.327 119.675C131.327 121.026 131.588 122.102 132.112 122.902C132.666 123.684 133.39 124.155 134.283 124.315C135.206 124.422 136.223 124.155 137.331 123.515C138.44 122.875 139.425 122.04 140.287 121.009C141.18 119.96 141.873 118.813 142.366 117.569C142.858 116.324 143.105 115.133 143.105 113.995C143.105 112.751 142.843 111.8 142.319 111.142C141.796 110.484 141.041 110.173 140.056 110.209C139.071 110.244 137.916 110.644 136.592 111.409L126.8 117.062L128.324 96.6619L147.77 85.4352L147.77 92.1552L133.913 100.155L133.313 107.329L138.578 104.289C140.888 102.955 142.92 102.315 144.675 102.369C146.461 102.404 147.847 103.097 148.832 104.449C149.817 105.764 150.31 107.631 150.31 110.049C150.31 112.502 149.756 115.026 148.647 117.622C147.539 120.217 145.999 122.653 144.028 124.929C142.088 127.151 139.887 128.973 137.423 130.395Z" fill="black"/>
</svg>
