<svg width="256" height="256" viewBox="0 0 256 256" fill="none" xmlns="http://www.w3.org/2000/svg">
<path d="M154.461 100.267C154.461 122.063 139.159 148.568 120.282 159.467C101.405 170.365 86.1028 161.53 86.1028 139.733C86.1028 117.936 101.405 91.4316 120.282 80.5332C139.159 69.6348 154.461 78.4697 154.461 100.267Z" fill="white" stroke="#1019EF" stroke-width="6.4"/>
<mask id="path-2-inside-1_787_1641" fill="white">
<path d="M120.132 132.533L164.934 106.667L164.934 137.067L120.132 162.933L120.132 132.533Z"/>
</mask>
<path d="M120.132 132.533L164.934 106.667L164.934 137.067L120.132 162.933L120.132 132.533Z" fill="white"/>
<path d="M164.934 106.667L170.477 103.467L170.477 97.0665L164.934 100.267L164.934 106.667ZM164.934 137.067L164.934 143.467L170.477 140.267L170.477 133.867L164.934 137.067ZM120.132 138.933L164.934 113.067L164.934 100.267L120.132 126.133L120.132 138.933ZM159.391 109.867L159.391 140.267L170.477 133.867L170.477 103.467L159.391 109.867ZM164.934 130.667L120.132 156.533L120.132 169.333L164.934 143.467L164.934 130.667Z" fill="#1019EF" mask="url(#path-2-inside-1_787_1641)"/>
<path d="M104.665 138.665L150.729 110.933L148.132 125.066L104.665 151.208L104.665 138.665Z" fill="white"/>
<path d="M99.4781 145.807L99.4781 127.051L99.1352 127.249L94.0845 134.485L94.0845 128.581L100.195 119.761L104.529 117.259L104.529 142.891L99.4781 145.807ZM116.644 136.58C115.002 137.528 113.516 137.978 112.186 137.93C110.855 137.858 109.795 137.318 109.006 136.31C108.216 135.302 107.79 133.904 107.727 132.116L112.529 129.344C112.529 130.256 112.705 130.982 113.059 131.522C113.433 132.05 113.921 132.368 114.524 132.476C115.147 132.548 115.833 132.368 116.582 131.936C117.33 131.504 117.995 130.94 118.577 130.244C119.18 129.536 119.647 128.762 119.98 127.922C120.312 127.082 120.479 126.278 120.479 125.51C120.479 124.67 120.302 124.028 119.949 123.584C119.595 123.14 119.086 122.93 118.421 122.954C117.756 122.978 116.976 123.248 116.083 123.764L109.473 127.58L110.502 113.81L123.628 106.232L123.628 110.768L114.274 116.168L113.869 121.01L117.423 118.958C118.982 118.058 120.354 117.626 121.539 117.662C122.744 117.686 123.68 118.154 124.345 119.066C125.01 119.954 125.342 121.214 125.342 122.846C125.342 124.502 124.968 126.206 124.22 127.958C123.472 129.71 122.432 131.354 121.102 132.89C119.793 134.39 118.307 135.62 116.644 136.58ZM136.623 98.0451C138.369 97.0371 139.918 96.5271 141.269 96.5151C142.64 96.4671 143.7 96.8991 144.449 97.8111C145.218 98.7111 145.602 100.001 145.602 101.681C145.602 102.713 145.405 103.919 145.01 105.299C144.615 106.679 144.054 108.167 143.326 109.763L136.623 124.325L130.887 127.637L136.748 115.037C136.395 115.361 136.041 115.661 135.688 115.937C135.355 116.177 135.033 116.387 134.721 116.567C133.308 117.383 132.051 117.761 130.949 117.701C129.868 117.629 129.016 117.149 128.392 116.261C127.769 115.349 127.457 114.101 127.457 112.517C127.457 110.717 127.842 108.899 128.611 107.063C129.401 105.215 130.481 103.511 131.853 101.951C133.246 100.379 134.836 99.0771 136.623 98.0451ZM136.467 102.959C135.74 103.379 135.085 103.937 134.503 104.633C133.921 105.329 133.464 106.109 133.131 106.973C132.799 107.813 132.633 108.665 132.633 109.529C132.633 110.369 132.799 111.017 133.131 111.473C133.464 111.905 133.921 112.145 134.503 112.193C135.085 112.217 135.74 112.019 136.467 111.599C137.216 111.167 137.891 110.597 138.494 109.889C139.117 109.169 139.595 108.389 139.928 107.549C140.261 106.709 140.427 105.869 140.427 105.029C140.427 104.165 140.261 103.493 139.928 103.013C139.595 102.533 139.117 102.305 138.494 102.329C137.891 102.317 137.216 102.527 136.467 102.959Z" fill="black"/>
</svg>
