<svg width="256" height="256" viewBox="0 0 256 256" fill="none" xmlns="http://www.w3.org/2000/svg">
<path d="M154.461 100.267C154.461 122.063 139.159 148.568 120.282 159.467C101.405 170.365 86.1028 161.53 86.1028 139.733C86.1028 117.936 101.405 91.4316 120.282 80.5332C139.159 69.6348 154.461 78.4697 154.461 100.267Z" fill="white" stroke="#1019EF" stroke-width="6.4"/>
<mask id="path-2-inside-1_787_1664" fill="white">
<path d="M120.132 132.533L164.934 106.667L164.934 137.067L120.132 162.933L120.132 132.533Z"/>
</mask>
<path d="M120.132 132.533L164.934 106.667L164.934 137.067L120.132 162.933L120.132 132.533Z" fill="white"/>
<path d="M164.934 106.667L170.477 103.467L170.477 97.0665L164.934 100.267L164.934 106.667ZM164.934 137.067L164.934 143.467L170.477 140.267L170.477 133.867L164.934 137.067ZM120.132 138.933L164.934 113.067L164.934 100.267L120.132 126.133L120.132 138.933ZM159.392 109.867L159.392 140.267L170.477 133.867L170.477 103.467L159.392 109.867ZM164.934 130.667L120.132 156.533L120.132 169.333L164.934 143.467L164.934 130.667Z" fill="#1019EF" mask="url(#path-2-inside-1_787_1664)"/>
<path d="M104.665 138.665L150.729 110.933L148.132 125.066L104.665 151.208L104.665 138.665Z" fill="white"/>
<path d="M99.4631 145.816L99.4631 127.06L99.1202 127.258L94.0695 134.494L94.0695 128.59L100.18 119.77L104.514 117.268L104.514 142.9L99.4631 145.816ZM117.065 136.301C115.236 137.357 113.636 137.969 112.264 138.137C110.913 138.269 109.853 137.981 109.084 137.273C108.336 136.553 107.962 135.449 107.962 133.961C107.962 132.353 108.367 130.751 109.178 129.155C109.988 127.559 111.027 126.215 112.295 125.123L112.295 124.763C111.298 124.883 110.477 124.649 109.832 124.061C109.209 123.437 108.897 122.465 108.897 121.145C108.897 119.729 109.23 118.289 109.895 116.825C110.581 115.349 111.537 113.969 112.763 112.685C114.01 111.389 115.444 110.273 117.065 109.337C118.645 108.425 120.048 107.915 121.274 107.807C122.501 107.699 123.457 107.987 124.143 108.671C124.849 109.319 125.203 110.339 125.203 111.731C125.203 113.051 124.88 114.389 124.236 115.745C123.613 117.065 122.792 118.247 121.773 119.291L121.773 119.651C123.062 119.267 124.111 119.405 124.922 120.065C125.733 120.725 126.138 121.859 126.138 123.467C126.138 124.955 125.753 126.497 124.984 128.093C124.236 129.677 123.176 131.189 121.804 132.629C120.433 134.045 118.853 135.269 117.065 136.301ZM117.065 120.425C117.689 120.065 118.25 119.609 118.749 119.057C119.269 118.469 119.674 117.851 119.965 117.203C120.256 116.531 120.401 115.883 120.401 115.259C120.401 114.659 120.256 114.203 119.965 113.891C119.674 113.555 119.269 113.405 118.749 113.441C118.25 113.441 117.689 113.621 117.065 113.981C116.4 114.365 115.808 114.851 115.288 115.439C114.789 115.991 114.395 116.603 114.104 117.275C113.833 117.911 113.698 118.529 113.698 119.129C113.698 119.753 113.833 120.239 114.104 120.587C114.395 120.899 114.8 121.049 115.32 121.037C115.839 121.001 116.421 120.797 117.065 120.425ZM117.065 131.621C117.751 131.225 118.385 130.715 118.967 130.091C119.549 129.443 119.996 128.753 120.308 128.021C120.62 127.265 120.775 126.539 120.775 125.843C120.775 125.123 120.609 124.583 120.277 124.223C119.965 123.851 119.518 123.677 118.936 123.701C118.375 123.713 117.751 123.917 117.065 124.313C116.338 124.733 115.694 125.261 115.132 125.897C114.571 126.533 114.124 127.223 113.792 127.967C113.48 128.699 113.324 129.425 113.324 130.145C113.324 130.841 113.48 131.387 113.792 131.783C114.124 132.143 114.571 132.317 115.132 132.305C115.694 132.269 116.338 132.041 117.065 131.621ZM128.759 128.901L128.759 125.589L138.019 110.775C138.081 110.667 138.144 110.559 138.206 110.451C138.289 110.331 138.362 110.217 138.424 110.109C139.297 108.693 139.921 107.565 140.295 106.725C140.69 105.873 140.887 105.051 140.887 104.259C140.887 103.539 140.731 102.981 140.42 102.585C140.108 102.165 139.692 101.937 139.173 101.901C138.653 101.865 138.071 102.033 137.427 102.405C136.678 102.837 136.003 103.443 135.4 104.223C134.818 104.991 134.35 105.873 133.997 106.869C133.665 107.829 133.478 108.837 133.436 109.893L128.822 112.557C128.822 112.461 128.822 112.365 128.822 112.269C128.822 110.493 129.175 108.657 129.882 106.761C130.588 104.865 131.607 103.101 132.937 101.469C134.267 99.8373 135.785 98.5293 137.489 97.5453C139.048 96.6453 140.451 96.1953 141.698 96.1953C142.945 96.1713 143.922 96.5793 144.628 97.4193C145.335 98.2353 145.688 99.4233 145.688 100.983C145.688 102.423 145.325 103.977 144.597 105.645C143.87 107.313 142.768 109.305 141.293 111.621L136.148 119.739L136.148 120.099L145.19 114.879L145.19 119.415L128.759 128.901Z" fill="black"/>
</svg>
