<svg width="256" height="256" viewBox="0 0 256 256" fill="none" xmlns="http://www.w3.org/2000/svg">
<path d="M154.461 100.267C154.461 122.064 139.159 148.568 120.282 159.467C101.405 170.365 86.1028 161.53 86.1028 139.733C86.1028 117.937 101.405 91.4318 120.282 80.5334C139.159 69.635 154.461 78.4699 154.461 100.267Z" fill="white" stroke="#1019EF" stroke-width="6.4"/>
<mask id="path-2-inside-1_787_1231" fill="white">
<path d="M120.132 132.533L164.934 106.667L164.934 137.067L120.132 162.933L120.132 132.533Z"/>
</mask>
<path d="M120.132 132.533L164.934 106.667L164.934 137.067L120.132 162.933L120.132 132.533Z" fill="white"/>
<path d="M164.934 106.667L170.477 103.467L170.477 97.0668L164.934 100.267L164.934 106.667ZM164.934 137.067L164.934 143.467L170.477 140.267L170.477 133.867L164.934 137.067ZM120.132 138.933L164.934 113.067L164.934 100.267L120.132 126.133L120.132 138.933ZM159.392 109.867L159.392 140.267L170.477 133.867L170.477 103.467L159.392 109.867ZM164.934 130.667L120.132 156.533L120.132 169.333L164.934 143.467L164.934 130.667Z" fill="#1019EF" mask="url(#path-2-inside-1_787_1231)"/>
<path d="M104.665 138.666L150.729 110.933L148.132 125.067L104.665 151.209L104.665 138.666Z" fill="white"/>
<path d="M103.025 143.759L103.025 125.003L102.682 125.201L97.6315 132.437L97.6315 126.533L103.742 117.713L108.076 115.211L108.076 140.843L103.025 143.759ZM120.004 134.64C118.362 135.588 116.865 136.032 115.514 135.972C114.184 135.876 113.124 135.324 112.334 134.316C111.565 133.272 111.15 131.832 111.087 129.996L115.888 127.224C115.888 128.208 116.065 128.982 116.418 129.546C116.772 130.11 117.25 130.446 117.853 130.554C118.476 130.626 119.172 130.44 119.941 129.996C120.69 129.564 121.355 129 121.937 128.304C122.519 127.608 122.976 126.852 123.309 126.036C123.641 125.196 123.807 124.38 123.807 123.588C123.807 122.796 123.631 122.178 123.277 121.734C122.945 121.278 122.477 121.044 121.874 121.032C121.292 120.984 120.638 121.17 119.91 121.59C119.599 121.77 119.266 122.01 118.913 122.31C118.559 122.586 118.268 122.85 118.04 123.102L116.917 120.33L121.469 112.374L121.469 112.014L112.49 117.198L112.49 112.662L127.86 103.788L127.86 107.28L122.592 116.55C123.755 116.094 124.795 115.986 125.709 116.226C126.645 116.43 127.372 116.97 127.892 117.846C128.432 118.686 128.702 119.79 128.702 121.158C128.702 122.766 128.328 124.434 127.58 126.162C126.852 127.854 125.824 129.456 124.493 130.968C123.163 132.456 121.667 133.68 120.004 134.64ZM135.846 124.81L135.846 106.054L135.503 106.252L130.452 113.488L130.452 107.584L136.563 98.7637L140.897 96.2617L140.897 121.894L135.846 124.81Z" fill="black"/>
</svg>
