<svg width="256" height="256" viewBox="0 0 256 256" fill="none" xmlns="http://www.w3.org/2000/svg">
<path d="M154.461 100.267C154.461 122.063 139.159 148.568 120.282 159.467C101.405 170.365 86.1028 161.53 86.1028 139.733C86.1028 117.936 101.405 91.4316 120.282 80.5332C139.159 69.6348 154.461 78.4697 154.461 100.267Z" fill="white" stroke="#1019EF" stroke-width="6.4"/>
<mask id="path-2-inside-1_787_2096" fill="white">
<path d="M120.132 132.533L164.934 106.667L164.934 137.067L120.132 162.933L120.132 132.533Z"/>
</mask>
<path d="M120.132 132.533L164.934 106.667L164.934 137.067L120.132 162.933L120.132 132.533Z" fill="white"/>
<path d="M164.934 106.667L170.477 103.467L170.477 97.0665L164.934 100.267L164.934 106.667ZM164.934 137.067L164.934 143.467L170.477 140.267L170.477 133.867L164.934 137.067ZM120.132 138.933L164.934 113.067L164.934 100.267L120.132 126.133L120.132 138.933ZM159.392 109.867L159.392 140.267L170.477 133.867L170.477 103.467L159.392 109.867ZM164.934 130.667L120.132 156.533L120.132 169.333L164.934 143.467L164.934 130.667Z" fill="#1019EF" mask="url(#path-2-inside-1_787_2096)"/>
<path d="M104.665 138.665L150.729 110.933L148.132 125.066L104.665 151.208L104.665 138.665Z" fill="white"/>
<path d="M92.8094 149.657L92.8093 146.345L102.069 131.531C102.131 131.423 102.194 131.315 102.256 131.207C102.339 131.087 102.412 130.973 102.474 130.865C103.347 129.449 103.971 128.321 104.345 127.481C104.74 126.629 104.937 125.807 104.937 125.015C104.937 124.295 104.781 123.737 104.47 123.341C104.158 122.921 103.742 122.693 103.222 122.657C102.703 122.621 102.121 122.789 101.477 123.161C100.728 123.593 100.053 124.199 99.45 124.979C98.8681 125.747 98.4004 126.629 98.0471 127.625C97.7145 128.585 97.5275 129.593 97.4859 130.649L92.8717 133.313C92.8717 133.217 92.8717 133.121 92.8717 133.025C92.8717 131.249 93.225 129.413 93.9317 127.517C94.6384 125.621 95.6568 123.857 96.9871 122.225C98.3173 120.593 99.8345 119.285 101.539 118.301C103.098 117.401 104.501 116.951 105.748 116.951C106.995 116.927 107.972 117.335 108.678 118.175C109.385 118.991 109.738 120.179 109.738 121.739C109.738 123.179 109.375 124.733 108.647 126.401C107.92 128.069 106.818 130.061 105.342 132.377L100.198 140.495L100.198 140.855L109.24 135.635L109.24 140.171L92.8094 149.657ZM120.437 134.39C118.795 135.338 117.299 135.782 115.948 135.722C114.618 135.626 113.558 135.074 112.768 134.066C111.999 133.022 111.583 131.582 111.521 129.746L116.322 126.974C116.322 127.958 116.499 128.732 116.852 129.296C117.205 129.86 117.683 130.196 118.286 130.304C118.91 130.376 119.606 130.19 120.375 129.746C121.123 129.314 121.788 128.75 122.37 128.054C122.952 127.358 123.409 126.602 123.742 125.786C124.075 124.946 124.241 124.13 124.241 123.338C124.241 122.546 124.064 121.928 123.711 121.484C123.378 121.028 122.911 120.794 122.308 120.782C121.726 120.734 121.071 120.92 120.344 121.34C120.032 121.52 119.699 121.76 119.346 122.06C118.993 122.336 118.702 122.6 118.473 122.852L117.351 120.08L121.903 112.124L121.903 111.764L112.924 116.948L112.924 112.412L128.294 103.538L128.294 107.03L123.025 116.3C124.189 115.844 125.228 115.736 126.143 115.976C127.078 116.18 127.805 116.72 128.325 117.596C128.865 118.436 129.136 119.54 129.136 120.908C129.136 122.516 128.761 124.184 128.013 125.912C127.286 127.604 126.257 129.206 124.927 130.718C123.596 132.206 122.1 133.43 120.437 134.39ZM131.385 127.386L131.385 124.074L140.644 109.26C140.707 109.152 140.769 109.044 140.831 108.936C140.914 108.816 140.987 108.702 141.05 108.594C141.922 107.178 142.546 106.05 142.92 105.21C143.315 104.358 143.513 103.536 143.513 102.744C143.513 102.024 143.357 101.466 143.045 101.07C142.733 100.65 142.317 100.422 141.798 100.386C141.278 100.35 140.696 100.518 140.052 100.89C139.304 101.322 138.628 101.928 138.025 102.708C137.443 103.476 136.976 104.358 136.622 105.354C136.29 106.314 136.103 107.322 136.061 108.378L131.447 111.042C131.447 110.946 131.447 110.85 131.447 110.754C131.447 108.978 131.8 107.142 132.507 105.246C133.214 103.35 134.232 101.586 135.562 99.9537C136.893 98.3217 138.41 97.0137 140.114 96.0297C141.673 95.1297 143.076 94.6797 144.323 94.6797C145.57 94.6557 146.547 95.0637 147.254 95.9037C147.96 96.7197 148.314 97.9077 148.314 99.4677C148.314 100.908 147.95 102.462 147.223 104.13C146.495 105.798 145.394 107.79 143.918 110.106L138.774 118.224L138.774 118.584L147.815 113.364L147.815 117.9L131.385 127.386Z" fill="black"/>
</svg>
