<svg width="256" height="256" viewBox="0 0 256 256" fill="none" xmlns="http://www.w3.org/2000/svg">
<path d="M154.461 100.267C154.461 122.064 139.159 148.568 120.282 159.467C101.405 170.365 86.1028 161.53 86.1028 139.733C86.1028 117.937 101.405 91.4318 120.282 80.5334C139.159 69.6349 154.461 78.4698 154.461 100.267Z" fill="white" stroke="#1019EF" stroke-width="6.4"/>
<mask id="path-2-inside-1_787_436" fill="white">
<path d="M120.132 132.533L164.934 106.667L164.934 137.067L120.132 162.933L120.132 132.533Z"/>
</mask>
<path d="M120.132 132.533L164.934 106.667L164.934 137.067L120.132 162.933L120.132 132.533Z" fill="white"/>
<path d="M164.934 106.667L170.477 103.467L170.477 97.0666L164.934 100.267L164.934 106.667ZM164.934 137.067L164.934 143.467L170.477 140.267L170.477 133.867L164.934 137.067ZM120.132 138.933L164.934 113.067L164.934 100.267L120.132 126.133L120.132 138.933ZM159.392 109.867L159.392 140.267L170.477 133.867L170.477 103.467L159.392 109.867ZM164.934 130.667L120.132 156.533L120.132 169.333L164.934 143.467L164.934 130.667Z" fill="#1019EF" mask="url(#path-2-inside-1_787_436)"/>
<path d="M104.665 138.665L150.729 110.933L148.132 125.067L104.665 151.209L104.665 138.665Z" fill="white"/>
<path d="M107.347 146.747L107.347 118.96L106.839 119.253L99.3561 129.973L99.3561 121.227L108.409 108.16L114.829 104.453L114.829 142.427L107.347 146.747ZM120.122 139.371L120.122 134.464L133.84 112.518C133.932 112.358 134.025 112.198 134.117 112.038C134.24 111.86 134.348 111.691 134.44 111.531C135.733 109.433 136.657 107.762 137.211 106.518C137.797 105.255 138.089 104.038 138.089 102.864C138.089 101.798 137.858 100.971 137.396 100.384C136.934 99.762 136.319 99.4242 135.549 99.3709C134.779 99.3175 133.917 99.5664 132.962 100.118C131.854 100.758 130.853 101.655 129.96 102.811C129.098 103.949 128.405 105.255 127.882 106.731C127.389 108.153 127.112 109.646 127.05 111.211L120.214 115.158C120.214 115.015 120.214 114.873 120.214 114.731C120.214 112.1 120.738 109.38 121.785 106.571C122.832 103.762 124.34 101.149 126.311 98.7309C128.282 96.3131 130.53 94.3753 133.055 92.9175C135.364 91.5842 137.442 90.9175 139.29 90.9175C141.137 90.882 142.585 91.4864 143.632 92.7309C144.679 93.9397 145.202 95.6997 145.202 98.0109C145.202 100.144 144.663 102.446 143.585 104.918C142.508 107.389 140.876 110.34 138.69 113.771L131.068 125.798L131.068 126.331L144.463 118.598L144.463 125.318L120.122 139.371Z" fill="black"/>
</svg>
