<svg width="256" height="256" viewBox="0 0 256 256" fill="none" xmlns="http://www.w3.org/2000/svg">
<path d="M154.461 100.267C154.461 122.064 139.159 148.568 120.282 159.467C101.405 170.365 86.1028 161.53 86.1028 139.733C86.1028 117.937 101.405 91.4318 120.282 80.5334C139.159 69.635 154.461 78.4699 154.461 100.267Z" fill="white" stroke="#1019EF" stroke-width="6.4"/>
<mask id="path-2-inside-1_787_1241" fill="white">
<path d="M120.132 132.533L164.934 106.667L164.934 137.067L120.132 162.933L120.132 132.533Z"/>
</mask>
<path d="M120.132 132.533L164.934 106.667L164.934 137.067L120.132 162.933L120.132 132.533Z" fill="white"/>
<path d="M164.934 106.667L170.477 103.467L170.477 97.0668L164.934 100.267L164.934 106.667ZM164.934 137.067L164.934 143.467L170.477 140.267L170.477 133.867L164.934 137.067ZM120.132 138.933L164.934 113.067L164.934 100.267L120.132 126.133L120.132 138.933ZM159.392 109.867L159.392 140.267L170.477 133.867L170.477 103.467L159.392 109.867ZM164.934 130.667L120.132 156.533L120.132 169.333L164.934 143.467L164.934 130.667Z" fill="#1019EF" mask="url(#path-2-inside-1_787_1241)"/>
<path d="M104.665 138.666L150.729 110.933L148.132 125.067L104.665 151.209L104.665 138.666Z" fill="white"/>
<path d="M103.123 143.702L103.123 124.946L102.78 125.144L97.7296 132.38L97.7296 126.476L103.84 117.656L108.174 115.154L108.174 140.786L103.123 143.702ZM121.567 133.054L121.567 127.762L110.936 133.9L110.936 130.624L119.385 108.682L126.743 104.434L126.743 120.274L129.33 118.78L129.33 123.28L126.743 124.774L126.743 130.066L121.567 133.054ZM115.955 126.502L121.536 123.28L121.536 112.408L121.224 112.588L115.955 126.502ZM136.614 124.366L136.614 105.61L136.271 105.808L131.22 113.044L131.22 107.14L137.331 98.3204L141.665 95.8184L141.665 121.45L136.614 124.366Z" fill="black"/>
</svg>
