<svg width="256" height="256" viewBox="0 0 256 256" fill="none" xmlns="http://www.w3.org/2000/svg">
<path d="M154.461 100.267C154.461 122.063 139.159 148.568 120.282 159.467C101.405 170.365 86.1028 161.53 86.1028 139.733C86.1028 117.936 101.405 91.4316 120.282 80.5332C139.159 69.6348 154.461 78.4697 154.461 100.267Z" fill="white" stroke="#1019EF" stroke-width="6.4"/>
<mask id="path-2-inside-1_787_1638" fill="white">
<path d="M120.132 132.533L164.934 106.667L164.934 137.067L120.132 162.933L120.132 132.533Z"/>
</mask>
<path d="M120.132 132.533L164.934 106.667L164.934 137.067L120.132 162.933L120.132 132.533Z" fill="white"/>
<path d="M164.934 106.667L170.477 103.467L170.477 97.0665L164.934 100.267L164.934 106.667ZM164.934 137.067L164.934 143.467L170.477 140.267L170.477 133.867L164.934 137.067ZM120.132 138.933L164.934 113.067L164.934 100.267L120.132 126.133L120.132 138.933ZM159.391 109.867L159.391 140.267L170.477 133.867L170.477 103.467L159.391 109.867ZM164.934 130.667L120.132 156.533L120.132 169.333L164.934 143.467L164.934 130.667Z" fill="#1019EF" mask="url(#path-2-inside-1_787_1638)"/>
<path d="M104.665 138.665L150.729 110.933L148.132 125.066L104.665 151.208L104.665 138.665Z" fill="white"/>
<path d="M99.4629 145.816L99.4629 127.06L99.1199 127.258L94.0693 134.494L94.0693 128.59L100.18 119.77L104.514 117.268L104.514 142.9L99.4629 145.816ZM116.629 136.589C114.987 137.537 113.501 137.987 112.17 137.939C110.84 137.867 109.78 137.327 108.99 136.319C108.201 135.311 107.774 133.913 107.712 132.125L112.513 129.353C112.513 130.265 112.69 130.991 113.043 131.531C113.417 132.059 113.906 132.377 114.509 132.485C115.132 132.557 115.818 132.377 116.566 131.945C117.315 131.513 117.98 130.949 118.562 130.253C119.164 129.545 119.632 128.771 119.965 127.931C120.297 127.091 120.463 126.287 120.463 125.519C120.463 124.679 120.287 124.037 119.933 123.593C119.58 123.149 119.071 122.939 118.406 122.963C117.741 122.987 116.961 123.257 116.068 123.773L109.458 127.589L110.487 113.819L123.612 106.241L123.612 110.777L114.259 116.177L113.854 121.019L117.408 118.967C118.967 118.067 120.339 117.635 121.523 117.671C122.729 117.695 123.664 118.163 124.329 119.075C124.994 119.963 125.327 121.223 125.327 122.855C125.327 124.511 124.953 126.215 124.205 127.967C123.456 129.719 122.417 131.363 121.087 132.899C119.778 134.399 118.291 135.629 116.629 136.589ZM136.452 125.144C134.706 126.152 133.147 126.68 131.776 126.728C130.425 126.74 129.365 126.296 128.596 125.396C127.847 124.484 127.473 123.176 127.473 121.472C127.473 120.44 127.671 119.234 128.065 117.854C128.46 116.474 129.032 114.98 129.78 113.372L136.452 98.8278L142.189 95.5158L136.327 108.116C136.681 107.792 137.024 107.51 137.356 107.27C137.71 106.994 138.042 106.766 138.354 106.586C139.767 105.77 141.014 105.41 142.095 105.506C143.197 105.566 144.059 106.04 144.683 106.928C145.306 107.816 145.618 109.064 145.618 110.672C145.618 112.472 145.223 114.296 144.433 116.144C143.664 117.98 142.584 119.684 141.191 121.256C139.819 122.816 138.24 124.112 136.452 125.144ZM136.608 120.23C137.356 119.798 138.021 119.234 138.603 118.538C139.185 117.818 139.632 117.044 139.944 116.216C140.276 115.352 140.443 114.488 140.443 113.624C140.443 112.784 140.276 112.148 139.944 111.716C139.632 111.248 139.185 111.002 138.603 110.978C138.021 110.954 137.356 111.158 136.608 111.59C135.86 112.022 135.174 112.598 134.55 113.318C133.948 114.002 133.48 114.764 133.147 115.604C132.815 116.444 132.649 117.284 132.649 118.124C132.649 118.988 132.815 119.66 133.147 120.14C133.48 120.62 133.948 120.866 134.55 120.878C135.174 120.878 135.86 120.662 136.608 120.23Z" fill="black"/>
</svg>
