<svg width="256" height="256" viewBox="0 0 256 256" fill="none" xmlns="http://www.w3.org/2000/svg">
<path d="M154.461 100.267C154.461 122.063 139.159 148.568 120.282 159.467C101.405 170.365 86.1028 161.53 86.1028 139.733C86.1028 117.936 101.405 91.4316 120.282 80.5332C139.159 69.6348 154.461 78.4697 154.461 100.267Z" fill="white" stroke="#1019EF" stroke-width="6.4"/>
<mask id="path-2-inside-1_787_1650" fill="white">
<path d="M120.132 132.533L164.934 106.667L164.934 137.067L120.132 162.933L120.132 132.533Z"/>
</mask>
<path d="M120.132 132.533L164.934 106.667L164.934 137.067L120.132 162.933L120.132 132.533Z" fill="white"/>
<path d="M164.934 106.667L170.477 103.467L170.477 97.0665L164.934 100.267L164.934 106.667ZM164.934 137.067L164.934 143.467L170.477 140.267L170.477 133.867L164.934 137.067ZM120.132 138.933L164.934 113.067L164.934 100.267L120.132 126.133L120.132 138.933ZM159.391 109.867L159.391 140.267L170.477 133.867L170.477 103.467L159.391 109.867ZM164.934 130.667L120.132 156.533L120.132 169.333L164.934 143.467L164.934 130.667Z" fill="#1019EF" mask="url(#path-2-inside-1_787_1650)"/>
<path d="M104.665 138.665L150.729 110.933L148.132 125.066L104.665 151.208L104.665 138.665Z" fill="white"/>
<path d="M99.4088 145.847L99.4088 127.091L99.0658 127.289L94.0151 134.525L94.0151 128.621L100.126 119.801L104.459 117.299L104.459 142.931L99.4088 145.847ZM116.699 136.548C114.953 137.556 113.395 138.084 112.023 138.132C110.672 138.144 109.612 137.7 108.843 136.8C108.094 135.888 107.72 134.58 107.72 132.876C107.72 131.844 107.918 130.638 108.313 129.258C108.708 127.878 109.279 126.384 110.027 124.776L116.699 110.232L122.436 106.92L116.575 119.52C116.928 119.196 117.271 118.914 117.603 118.674C117.957 118.398 118.289 118.17 118.601 117.99C120.014 117.174 121.261 116.814 122.342 116.91C123.444 116.97 124.306 117.444 124.93 118.332C125.554 119.22 125.865 120.468 125.865 122.076C125.865 123.876 125.47 125.7 124.681 127.548C123.912 129.384 122.831 131.088 121.438 132.66C120.066 134.22 118.487 135.516 116.699 136.548ZM116.855 131.634C117.603 131.202 118.269 130.638 118.85 129.942C119.432 129.222 119.879 128.448 120.191 127.62C120.524 126.756 120.69 125.892 120.69 125.028C120.69 124.188 120.524 123.552 120.191 123.12C119.879 122.652 119.432 122.406 118.85 122.382C118.269 122.358 117.603 122.562 116.855 122.994C116.107 123.426 115.421 124.002 114.797 124.722C114.195 125.406 113.727 126.168 113.395 127.008C113.062 127.848 112.896 128.688 112.896 129.528C112.896 130.392 113.062 131.064 113.395 131.544C113.727 132.024 114.195 132.27 114.797 132.282C115.421 132.282 116.107 132.066 116.855 131.634ZM137.258 124.643C135.429 125.699 133.828 126.311 132.457 126.479C131.106 126.611 130.046 126.323 129.276 125.615C128.528 124.895 128.154 123.791 128.154 122.303C128.154 120.695 128.559 119.093 129.37 117.497C130.181 115.901 131.22 114.557 132.488 113.465L132.488 113.105C131.49 113.225 130.669 112.991 130.025 112.403C129.401 111.779 129.089 110.807 129.089 109.487C129.089 108.071 129.422 106.631 130.087 105.167C130.773 103.691 131.729 102.311 132.955 101.027C134.202 99.7307 135.637 98.6147 137.258 97.6787C138.837 96.7667 140.24 96.2567 141.467 96.1487C142.693 96.0407 143.649 96.3287 144.335 97.0127C145.042 97.6607 145.395 98.6807 145.395 100.073C145.395 101.393 145.073 102.731 144.428 104.087C143.805 105.407 142.984 106.589 141.965 107.633L141.965 107.993C143.254 107.609 144.304 107.747 145.114 108.407C145.925 109.067 146.33 110.201 146.33 111.809C146.33 113.297 145.946 114.839 145.177 116.435C144.428 118.019 143.368 119.531 141.997 120.971C140.625 122.387 139.045 123.611 137.258 124.643ZM137.258 108.767C137.881 108.407 138.442 107.951 138.941 107.399C139.461 106.811 139.866 106.193 140.157 105.545C140.448 104.873 140.594 104.225 140.594 103.601C140.594 103.001 140.448 102.545 140.157 102.233C139.866 101.897 139.461 101.747 138.941 101.783C138.442 101.783 137.881 101.963 137.258 102.323C136.593 102.707 136 103.193 135.481 103.781C134.982 104.333 134.587 104.945 134.296 105.617C134.026 106.253 133.891 106.871 133.891 107.471C133.891 108.095 134.026 108.581 134.296 108.929C134.587 109.241 134.992 109.391 135.512 109.379C136.031 109.343 136.613 109.139 137.258 108.767ZM137.258 119.963C137.944 119.567 138.578 119.057 139.16 118.433C139.742 117.785 140.188 117.095 140.5 116.363C140.812 115.607 140.968 114.881 140.968 114.185C140.968 113.465 140.802 112.925 140.469 112.565C140.157 112.193 139.71 112.019 139.128 112.043C138.567 112.055 137.944 112.259 137.258 112.655C136.53 113.075 135.886 113.603 135.325 114.239C134.764 114.875 134.317 115.565 133.984 116.309C133.672 117.041 133.517 117.767 133.517 118.487C133.517 119.183 133.672 119.729 133.984 120.125C134.317 120.485 134.764 120.659 135.325 120.647C135.886 120.611 136.53 120.383 137.258 119.963Z" fill="black"/>
</svg>
