<svg width="256" height="256" viewBox="0 0 256 256" fill="none" xmlns="http://www.w3.org/2000/svg">
<path d="M154.461 100.267C154.461 122.063 139.159 148.568 120.282 159.467C101.405 170.365 86.1028 161.53 86.1028 139.733C86.1028 117.936 101.405 91.4317 120.282 80.5333C139.159 69.6349 154.461 78.4698 154.461 100.267Z" fill="white" stroke="#1019EF" stroke-width="6.4"/>
<mask id="path-2-inside-1_787_661" fill="white">
<path d="M120.132 132.533L164.934 106.667L164.934 137.067L120.132 162.933L120.132 132.533Z"/>
</mask>
<path d="M120.132 132.533L164.934 106.667L164.934 137.067L120.132 162.933L120.132 132.533Z" fill="white"/>
<path d="M164.934 106.667L170.477 103.467L170.477 97.0665L164.934 100.267L164.934 106.667ZM164.934 137.067L164.934 143.467L170.477 140.267L170.477 133.867L164.934 137.067ZM120.132 138.933L164.934 113.067L164.934 100.267L120.132 126.133L120.132 138.933ZM159.391 109.867L159.391 140.267L170.477 133.867L170.477 103.467L159.391 109.867ZM164.934 130.667L120.132 156.533L120.132 169.333L164.934 143.467L164.934 130.667Z" fill="#1019EF" mask="url(#path-2-inside-1_787_661)"/>
<path d="M104.665 138.665L150.729 110.933L148.132 125.067L104.665 151.209L104.665 138.665Z" fill="white"/>
<path d="M109.56 146.482C107.127 147.887 104.91 148.545 102.909 148.456C100.938 148.313 99.3675 147.496 98.1974 146.002C97.0581 144.456 96.4422 142.322 96.3498 139.602L103.463 135.496C103.463 136.953 103.725 138.1 104.248 138.936C104.771 139.771 105.48 140.269 106.373 140.429C107.296 140.536 108.328 140.26 109.467 139.602C110.576 138.962 111.561 138.127 112.423 137.096C113.285 136.065 113.963 134.945 114.456 133.736C114.948 132.491 115.195 131.282 115.195 130.109C115.195 128.936 114.933 128.02 114.409 127.362C113.917 126.687 113.224 126.34 112.331 126.322C111.469 126.251 110.499 126.527 109.421 127.149C108.959 127.416 108.466 127.771 107.943 128.216C107.42 128.625 106.988 129.016 106.65 129.389L104.987 125.282L111.73 113.496L111.73 112.962L98.4283 120.642L98.4283 113.922L121.199 100.776L121.199 105.949L113.393 119.682C115.118 119.007 116.657 118.847 118.012 119.202C119.398 119.505 120.475 120.305 121.245 121.602C122.046 122.847 122.446 124.482 122.446 126.509C122.446 128.891 121.892 131.362 120.783 133.922C119.706 136.429 118.181 138.802 116.211 141.042C114.24 143.247 112.023 145.06 109.56 146.482ZM128.411 134.585L139.357 97.4386L124.485 106.025L124.485 98.8786L147.995 85.3052L147.995 90.4786L136.355 129.999L128.411 134.585Z" fill="black"/>
</svg>
