<svg width="256" height="256" viewBox="0 0 256 256" fill="none" xmlns="http://www.w3.org/2000/svg">
<path d="M154.461 100.267C154.461 122.063 139.159 148.568 120.282 159.467C101.405 170.365 86.1028 161.53 86.1028 139.733C86.1028 117.936 101.405 91.4316 120.282 80.5332C139.159 69.6348 154.461 78.4697 154.461 100.267Z" fill="white" stroke="#1019EF" stroke-width="6.4"/>
<mask id="path-2-inside-1_787_2476" fill="white">
<path d="M120.132 132.533L164.934 106.667L164.934 137.067L120.132 162.933L120.132 132.533Z"/>
</mask>
<path d="M120.132 132.533L164.934 106.667L164.934 137.067L120.132 162.933L120.132 132.533Z" fill="white"/>
<path d="M164.934 106.667L170.477 103.467L170.477 97.0665L164.934 100.267L164.934 106.667ZM164.934 137.067L164.934 143.467L170.477 140.267L170.477 133.867L164.934 137.067ZM120.132 138.933L164.934 113.067L164.934 100.267L120.132 126.133L120.132 138.933ZM159.391 109.867L159.391 140.267L170.477 133.867L170.477 103.467L159.391 109.867ZM164.934 130.667L120.132 156.533L120.132 169.333L164.934 143.467L164.934 130.667Z" fill="#1019EF" mask="url(#path-2-inside-1_787_2476)"/>
<path d="M104.665 138.665L150.729 110.933L148.132 125.066L104.665 151.208L104.665 138.665Z" fill="white"/>
<path d="M91.889 150.188L91.889 146.876L101.149 132.062C101.211 131.954 101.273 131.846 101.336 131.738C101.419 131.618 101.492 131.504 101.554 131.396C102.427 129.98 103.05 128.852 103.424 128.012C103.819 127.16 104.017 126.338 104.017 125.546C104.017 124.826 103.861 124.268 103.549 123.872C103.237 123.452 102.822 123.224 102.302 123.188C101.782 123.152 101.201 123.32 100.556 123.692C99.8079 124.124 99.1324 124.73 98.5297 125.51C97.9477 126.278 97.4801 127.16 97.1267 128.156C96.7942 129.116 96.6071 130.124 96.5655 131.18L91.9514 133.844C91.9514 133.748 91.9514 133.652 91.9514 133.556C91.9514 131.78 92.3047 129.944 93.0114 128.048C93.7181 126.152 94.7365 124.388 96.0667 122.756C97.3969 121.124 98.9142 119.816 100.619 118.832C102.177 117.932 103.58 117.482 104.827 117.482C106.075 117.458 107.051 117.866 107.758 118.706C108.465 119.522 108.818 120.71 108.818 122.27C108.818 123.71 108.454 125.264 107.727 126.932C106.999 128.6 105.898 130.592 104.422 132.908L99.2779 141.026L99.2779 141.386L108.319 136.166L108.319 140.702L91.889 150.188ZM119.517 134.922C117.875 135.87 116.378 136.314 115.027 136.254C113.697 136.158 112.637 135.606 111.847 134.598C111.078 133.554 110.663 132.114 110.6 130.278L115.402 127.506C115.402 128.49 115.578 129.264 115.932 129.828C116.285 130.392 116.763 130.728 117.366 130.836C117.989 130.908 118.685 130.722 119.455 130.278C120.203 129.846 120.868 129.282 121.45 128.586C122.032 127.89 122.489 127.134 122.822 126.318C123.154 125.478 123.32 124.662 123.32 123.87C123.32 123.078 123.144 122.46 122.79 122.016C122.458 121.56 121.99 121.326 121.387 121.314C120.806 121.266 120.151 121.452 119.423 121.872C119.112 122.052 118.779 122.292 118.426 122.592C118.072 122.868 117.781 123.132 117.553 123.384L116.43 120.612L120.982 112.656L120.982 112.296L112.003 117.48L112.003 112.944L127.373 104.07L127.373 107.562L122.105 116.832C123.268 116.376 124.308 116.268 125.222 116.508C126.158 116.712 126.885 117.252 127.405 118.128C127.945 118.968 128.215 120.072 128.215 121.44C128.215 123.048 127.841 124.716 127.093 126.444C126.365 128.136 125.337 129.738 124.006 131.25C122.676 132.738 121.18 133.962 119.517 134.922ZM139.132 123.597C137.386 124.605 135.827 125.133 134.455 125.181C133.104 125.193 132.044 124.749 131.275 123.849C130.527 122.937 130.153 121.629 130.153 119.925C130.153 118.893 130.35 117.687 130.745 116.307C131.14 114.927 131.711 113.433 132.46 111.825L139.132 97.281L144.868 93.969L139.007 106.569C139.36 106.245 139.703 105.963 140.036 105.723C140.389 105.447 140.722 105.219 141.033 105.039C142.447 104.223 143.694 103.863 144.775 103.959C145.876 104.019 146.739 104.493 147.362 105.381C147.986 106.269 148.298 107.517 148.298 109.125C148.298 110.925 147.903 112.749 147.113 114.597C146.344 116.433 145.263 118.137 143.87 119.709C142.499 121.269 140.919 122.565 139.132 123.597ZM139.287 118.683C140.036 118.251 140.701 117.687 141.283 116.991C141.865 116.271 142.312 115.497 142.623 114.669C142.956 113.805 143.122 112.941 143.122 112.077C143.122 111.237 142.956 110.601 142.623 110.169C142.312 109.701 141.865 109.455 141.283 109.431C140.701 109.407 140.036 109.611 139.287 110.043C138.539 110.475 137.853 111.051 137.23 111.771C136.627 112.455 136.159 113.217 135.827 114.057C135.494 114.897 135.328 115.737 135.328 116.577C135.328 117.441 135.494 118.113 135.827 118.593C136.159 119.073 136.627 119.319 137.23 119.331C137.853 119.331 138.539 119.115 139.287 118.683Z" fill="black"/>
</svg>
