<svg width="256" height="256" viewBox="0 0 256 256" fill="none" xmlns="http://www.w3.org/2000/svg">
<path d="M154.461 100.267C154.461 122.064 139.159 148.568 120.282 159.467C101.405 170.365 86.1028 161.53 86.1028 139.733C86.1028 117.937 101.405 91.4318 120.282 80.5334C139.159 69.635 154.461 78.4699 154.461 100.267Z" fill="white" stroke="#1019EF" stroke-width="6.4"/>
<mask id="path-2-inside-1_787_1204" fill="white">
<path d="M120.132 132.533L164.934 106.667L164.934 137.067L120.132 162.933L120.132 132.533Z"/>
</mask>
<path d="M120.132 132.533L164.934 106.667L164.934 137.067L120.132 162.933L120.132 132.533Z" fill="white"/>
<path d="M164.934 106.667L170.477 103.467L170.477 97.0668L164.934 100.267L164.934 106.667ZM164.934 137.067L164.934 143.467L170.477 140.267L170.477 133.867L164.934 137.067ZM120.132 138.933L164.934 113.067L164.934 100.267L120.132 126.133L120.132 138.933ZM159.391 109.867L159.391 140.267L170.477 133.867L170.477 103.467L159.391 109.867ZM164.934 130.667L120.132 156.533L120.132 169.333L164.934 143.467L164.934 130.667Z" fill="#1019EF" mask="url(#path-2-inside-1_787_1204)"/>
<path d="M104.665 138.666L150.729 110.933L148.132 125.067L104.665 151.209L104.665 138.666Z" fill="white"/>
<path d="M97.9864 146.668L97.9864 127.912L97.6434 128.11L92.5927 135.346L92.5927 129.442L98.7034 120.622L103.037 118.12L103.037 143.752L97.9864 146.668ZM116.711 136.541C114.736 137.681 112.98 138.131 111.442 137.891C109.925 137.615 108.74 136.703 107.888 135.155C107.036 133.583 106.61 131.489 106.61 128.873C106.61 126.257 107.036 123.683 107.888 121.151C108.74 118.595 109.925 116.315 111.442 114.311C112.98 112.271 114.736 110.681 116.711 109.541C118.665 108.413 120.411 107.981 121.949 108.245C123.487 108.485 124.682 109.391 125.534 110.963C126.386 112.511 126.812 114.593 126.812 117.209C126.812 119.825 126.386 122.411 125.534 124.967C124.682 127.499 123.487 129.785 121.949 131.825C120.411 133.841 118.665 135.413 116.711 136.541ZM116.711 131.393C117.688 130.829 118.54 129.989 119.268 128.873C120.016 127.745 120.598 126.425 121.013 124.913C121.429 123.401 121.637 121.829 121.637 120.197C121.637 118.565 121.429 117.233 121.013 116.201C120.598 115.169 120.016 114.521 119.268 114.257C118.54 113.981 117.688 114.125 116.711 114.689C115.734 115.253 114.872 116.099 114.123 117.227C113.375 118.355 112.793 119.675 112.377 121.187C111.983 122.687 111.785 124.253 111.785 125.885C111.785 127.517 111.983 128.855 112.377 129.899C112.793 130.931 113.375 131.579 114.123 131.843C114.872 132.107 115.734 131.957 116.711 131.393ZM139.356 122.783L139.356 117.491L128.725 123.629L128.725 120.353L137.174 98.4111L144.532 94.1631L144.532 110.003L147.119 108.509L147.119 113.009L144.532 114.503L144.532 119.795L139.356 122.783ZM133.745 116.231L139.325 113.009L139.325 102.137L139.013 102.317L133.745 116.231Z" fill="black"/>
</svg>
