<svg width="256" height="256" viewBox="0 0 256 256" fill="none" xmlns="http://www.w3.org/2000/svg">
<path d="M154.461 100.267C154.461 122.063 139.159 148.568 120.282 159.467C101.405 170.365 86.1028 161.53 86.1028 139.733C86.1028 117.936 101.405 91.4316 120.282 80.5332C139.159 69.6348 154.461 78.4697 154.461 100.267Z" fill="white" stroke="#1019EF" stroke-width="6.4"/>
<mask id="path-2-inside-1_787_1642" fill="white">
<path d="M120.132 132.533L164.934 106.667L164.934 137.067L120.132 162.933L120.132 132.533Z"/>
</mask>
<path d="M120.132 132.533L164.934 106.667L164.934 137.067L120.132 162.933L120.132 132.533Z" fill="white"/>
<path d="M164.934 106.667L170.477 103.467L170.477 97.0665L164.934 100.267L164.934 106.667ZM164.934 137.067L164.934 143.467L170.477 140.267L170.477 133.867L164.934 137.067ZM120.132 138.933L164.934 113.067L164.934 100.267L120.132 126.133L120.132 138.933ZM159.391 109.867L159.391 140.267L170.477 133.867L170.477 103.467L159.391 109.867ZM164.934 130.667L120.132 156.533L120.132 169.333L164.934 143.467L164.934 130.667Z" fill="#1019EF" mask="url(#path-2-inside-1_787_1642)"/>
<path d="M104.665 138.665L150.729 110.933L148.132 125.066L104.665 151.208L104.665 138.665Z" fill="white"/>
<path d="M97.8493 146.747L97.8493 127.991L97.5064 128.189L92.4557 135.425L92.4557 129.521L98.5664 120.701L102.9 118.199L102.9 143.831L97.8493 146.747ZM115.14 137.449C113.394 138.457 111.835 138.985 110.463 139.033C109.112 139.045 108.052 138.601 107.283 137.701C106.535 136.789 106.161 135.481 106.161 133.777C106.161 132.745 106.358 131.539 106.753 130.159C107.148 128.779 107.72 127.285 108.468 125.677L115.14 111.133L120.876 107.821L115.015 120.421C115.368 120.097 115.711 119.815 116.044 119.575C116.397 119.299 116.73 119.071 117.042 118.891C118.455 118.075 119.702 117.715 120.783 117.811C121.884 117.871 122.747 118.345 123.371 119.233C123.994 120.121 124.306 121.369 124.306 122.977C124.306 124.777 123.911 126.601 123.121 128.449C122.352 130.285 121.271 131.989 119.879 133.561C118.507 135.121 116.927 136.417 115.14 137.449ZM115.296 132.535C116.044 132.103 116.709 131.539 117.291 130.843C117.873 130.123 118.32 129.349 118.632 128.521C118.964 127.657 119.131 126.793 119.131 125.929C119.131 125.089 118.964 124.453 118.632 124.021C118.32 123.553 117.873 123.307 117.291 123.283C116.709 123.259 116.044 123.463 115.296 123.895C114.548 124.327 113.862 124.903 113.238 125.623C112.635 126.307 112.168 127.069 111.835 127.909C111.503 128.749 111.336 129.589 111.336 130.429C111.336 131.293 111.503 131.965 111.835 132.445C112.168 132.925 112.635 133.171 113.238 133.183C113.862 133.183 114.548 132.967 115.296 132.535ZM136.821 124.931C134.846 126.071 133.09 126.521 131.552 126.281C130.035 126.005 128.85 125.093 127.998 123.545C127.145 121.973 126.719 119.879 126.719 117.263C126.719 114.647 127.145 112.073 127.998 109.541C128.85 106.985 130.035 104.705 131.552 102.701C133.09 100.661 134.846 99.0711 136.821 97.9311C138.774 96.8031 140.52 96.3711 142.058 96.6351C143.597 96.8751 144.792 97.7811 145.644 99.3531C146.496 100.901 146.922 102.983 146.922 105.599C146.922 108.215 146.496 110.801 145.644 113.357C144.792 115.889 143.597 118.175 142.058 120.215C140.52 122.231 138.774 123.803 136.821 124.931ZM136.821 119.783C137.798 119.219 138.65 118.379 139.377 117.263C140.125 116.135 140.707 114.815 141.123 113.303C141.539 111.791 141.747 110.219 141.747 108.587C141.747 106.955 141.539 105.623 141.123 104.591C140.707 103.559 140.125 102.911 139.377 102.647C138.65 102.371 137.798 102.515 136.821 103.079C135.844 103.643 134.981 104.489 134.233 105.617C133.485 106.745 132.903 108.065 132.487 109.577C132.092 111.077 131.895 112.643 131.895 114.275C131.895 115.907 132.092 117.245 132.487 118.289C132.903 119.321 133.485 119.969 134.233 120.233C134.981 120.497 135.844 120.347 136.821 119.783Z" fill="black"/>
</svg>
