<svg width="256" height="256" viewBox="0 0 256 256" fill="none" xmlns="http://www.w3.org/2000/svg">
<path d="M154.461 100.267C154.461 122.063 139.159 148.568 120.282 159.467C101.405 170.365 86.1028 161.53 86.1028 139.733C86.1028 117.936 101.405 91.4316 120.282 80.5332C139.159 69.6348 154.461 78.4697 154.461 100.267Z" fill="white" stroke="#1019EF" stroke-width="6.4"/>
<mask id="path-2-inside-1_787_1640" fill="white">
<path d="M120.132 132.533L164.934 106.667L164.934 137.067L120.132 162.933L120.132 132.533Z"/>
</mask>
<path d="M120.132 132.533L164.934 106.667L164.934 137.067L120.132 162.933L120.132 132.533Z" fill="white"/>
<path d="M164.934 106.667L170.477 103.467L170.477 97.0665L164.934 100.267L164.934 106.667ZM164.934 137.067L164.934 143.467L170.477 140.267L170.477 133.867L164.934 137.067ZM120.132 138.933L164.934 113.067L164.934 100.267L120.132 126.133L120.132 138.933ZM159.391 109.867L159.391 140.267L170.477 133.867L170.477 103.467L159.391 109.867ZM164.934 130.667L120.132 156.533L120.132 169.333L164.934 143.467L164.934 130.667Z" fill="#1019EF" mask="url(#path-2-inside-1_787_1640)"/>
<path d="M104.665 138.665L150.729 110.933L148.132 125.066L104.665 151.208L104.665 138.665Z" fill="white"/>
<path d="M99.6828 145.689L99.6828 126.933L99.3398 127.131L94.2892 134.367L94.2892 128.463L100.4 119.643L104.733 117.141L104.733 142.773L99.6828 145.689ZM116.849 136.462C115.207 137.41 113.72 137.86 112.39 137.812C111.06 137.74 110 137.2 109.21 136.192C108.42 135.184 107.994 133.786 107.932 131.998L112.733 129.226C112.733 130.138 112.91 130.864 113.263 131.404C113.637 131.932 114.126 132.25 114.729 132.358C115.352 132.43 116.038 132.25 116.786 131.818C117.534 131.386 118.2 130.822 118.782 130.126C119.384 129.418 119.852 128.644 120.185 127.804C120.517 126.964 120.683 126.16 120.683 125.392C120.683 124.552 120.507 123.91 120.153 123.466C119.8 123.022 119.291 122.812 118.626 122.836C117.961 122.86 117.181 123.13 116.287 123.646L109.678 127.462L110.707 113.692L123.832 106.114L123.832 110.65L114.479 116.05L114.074 120.892L117.628 118.84C119.187 117.94 120.559 117.508 121.743 117.544C122.949 117.568 123.884 118.036 124.549 118.948C125.214 119.836 125.547 121.096 125.547 122.728C125.547 124.384 125.173 126.088 124.425 127.84C123.676 129.592 122.637 131.236 121.307 132.772C119.997 134.272 118.511 135.502 116.849 136.462ZM136.984 124.801C135.155 125.857 133.554 126.469 132.183 126.637C130.832 126.769 129.771 126.481 129.002 125.773C128.254 125.053 127.88 123.949 127.88 122.461C127.88 120.853 128.285 119.251 129.096 117.655C129.907 116.059 130.946 114.715 132.214 113.623L132.214 113.263C131.216 113.383 130.395 113.149 129.751 112.561C129.127 111.937 128.815 110.965 128.815 109.645C128.815 108.229 129.148 106.789 129.813 105.325C130.499 103.849 131.455 102.469 132.681 101.185C133.928 99.8889 135.363 98.7729 136.984 97.8369C138.563 96.9249 139.966 96.4149 141.193 96.3069C142.419 96.1989 143.375 96.4869 144.061 97.1709C144.768 97.8189 145.121 98.8389 145.121 100.231C145.121 101.551 144.799 102.889 144.154 104.245C143.531 105.565 142.71 106.747 141.691 107.791L141.691 108.151C142.98 107.767 144.03 107.905 144.84 108.565C145.651 109.225 146.056 110.359 146.056 111.967C146.056 113.455 145.672 114.997 144.903 116.593C144.154 118.177 143.094 119.689 141.723 121.129C140.351 122.545 138.771 123.769 136.984 124.801ZM136.984 108.925C137.607 108.565 138.168 108.109 138.667 107.557C139.187 106.969 139.592 106.351 139.883 105.703C140.174 105.031 140.32 104.383 140.32 103.759C140.32 103.159 140.174 102.703 139.883 102.391C139.592 102.055 139.187 101.905 138.667 101.941C138.168 101.941 137.607 102.121 136.984 102.481C136.319 102.865 135.726 103.351 135.207 103.939C134.708 104.491 134.313 105.103 134.022 105.775C133.752 106.411 133.617 107.029 133.617 107.629C133.617 108.253 133.752 108.739 134.022 109.087C134.313 109.399 134.718 109.549 135.238 109.537C135.757 109.501 136.339 109.297 136.984 108.925ZM136.984 120.121C137.67 119.725 138.304 119.215 138.886 118.591C139.468 117.943 139.914 117.253 140.226 116.521C140.538 115.765 140.694 115.039 140.694 114.343C140.694 113.623 140.528 113.083 140.195 112.723C139.883 112.351 139.436 112.177 138.854 112.201C138.293 112.213 137.67 112.417 136.984 112.813C136.256 113.233 135.612 113.761 135.051 114.397C134.49 115.033 134.043 115.723 133.71 116.467C133.398 117.199 133.243 117.925 133.243 118.645C133.243 119.341 133.398 119.887 133.71 120.283C134.043 120.643 134.49 120.817 135.051 120.805C135.612 120.769 136.256 120.541 136.984 120.121Z" fill="black"/>
</svg>
