<svg width="256" height="256" viewBox="0 0 256 256" fill="none" xmlns="http://www.w3.org/2000/svg">
<path d="M154.461 100.267C154.461 122.063 139.159 148.568 120.282 159.467C101.405 170.365 86.1028 161.53 86.1028 139.733C86.1028 117.936 101.405 91.4317 120.282 80.5333C139.159 69.6349 154.461 78.4698 154.461 100.267Z" fill="white" stroke="#1019EF" stroke-width="6.4"/>
<mask id="path-2-inside-1_787_769" fill="white">
<path d="M120.132 132.533L164.934 106.667L164.934 137.067L120.132 162.933L120.132 132.533Z"/>
</mask>
<path d="M120.132 132.533L164.934 106.667L164.934 137.067L120.132 162.933L120.132 132.533Z" fill="white"/>
<path d="M164.934 106.667L170.477 103.467L170.477 97.0665L164.934 100.267L164.934 106.667ZM164.934 137.067L164.934 143.467L170.477 140.267L170.477 133.867L164.934 137.067ZM120.132 138.933L164.934 113.067L164.934 100.267L120.132 126.133L120.132 138.933ZM159.392 109.867L159.392 140.267L170.477 133.867L170.477 103.467L159.392 109.867ZM164.934 130.667L120.132 156.533L120.132 169.333L164.934 143.467L164.934 130.667Z" fill="#1019EF" mask="url(#path-2-inside-1_787_769)"/>
<path d="M104.665 138.665L150.729 110.933L148.132 125.067L104.665 151.209L104.665 138.665Z" fill="white"/>
<path d="M112.435 144.822C110.002 146.227 107.801 146.893 105.83 146.822C103.859 146.716 102.289 145.916 101.119 144.422C99.9487 142.929 99.3175 140.858 99.2251 138.209L106.338 134.102C106.338 135.453 106.6 136.529 107.123 137.329C107.678 138.111 108.401 138.582 109.294 138.742C110.218 138.849 111.234 138.582 112.343 137.942C113.451 137.302 114.436 136.467 115.299 135.436C116.192 134.387 116.884 133.24 117.377 131.996C117.87 130.751 118.116 129.56 118.116 128.422C118.116 127.178 117.854 126.227 117.331 125.569C116.807 124.911 116.053 124.6 115.068 124.636C114.082 124.671 112.928 125.071 111.603 125.836L101.812 131.489L103.336 111.089L122.781 99.8623L122.781 106.582L108.925 114.582L108.324 121.756L113.59 118.716C115.899 117.382 117.931 116.742 119.686 116.796C121.472 116.831 122.858 117.525 123.843 118.876C124.829 120.191 125.321 122.058 125.321 124.476C125.321 126.929 124.767 129.453 123.659 132.049C122.55 134.645 121.01 137.08 119.04 139.356C117.1 141.578 114.898 143.4 112.435 144.822ZM136.214 130.08L136.214 102.293L135.706 102.587L128.224 113.307L128.224 104.56L137.276 91.4934L143.697 87.7867L143.697 125.76L136.214 130.08Z" fill="black"/>
</svg>
