<svg width="256" height="256" viewBox="0 0 256 256" fill="none" xmlns="http://www.w3.org/2000/svg">
<path d="M154.461 100.267C154.461 122.064 139.159 148.568 120.282 159.467C101.405 170.365 86.1028 161.53 86.1028 139.733C86.1028 117.937 101.405 91.4318 120.282 80.5334C139.159 69.635 154.461 78.4699 154.461 100.267Z" fill="white" stroke="#1019EF" stroke-width="6.4"/>
<mask id="path-2-inside-1_787_1200" fill="white">
<path d="M120.132 132.533L164.934 106.667L164.934 137.067L120.132 162.933L120.132 132.533Z"/>
</mask>
<path d="M120.132 132.533L164.934 106.667L164.934 137.067L120.132 162.933L120.132 132.533Z" fill="white"/>
<path d="M164.934 106.667L170.477 103.467L170.477 97.0668L164.934 100.267L164.934 106.667ZM164.934 137.067L164.934 143.467L170.477 140.267L170.477 133.867L164.934 137.067ZM120.132 138.933L164.934 113.067L164.934 100.267L120.132 126.133L120.132 138.933ZM159.391 109.867L159.391 140.267L170.477 133.867L170.477 103.467L159.391 109.867ZM164.934 130.667L120.132 156.533L120.132 169.333L164.934 143.467L164.934 130.667Z" fill="#1019EF" mask="url(#path-2-inside-1_787_1200)"/>
<path d="M104.665 138.666L150.729 110.933L148.132 125.067L104.665 151.209L104.665 138.666Z" fill="white"/>
<path d="M96.9428 147.271L96.9428 128.515L96.5998 128.713L91.5492 135.949L91.5492 130.045L97.6599 121.225L101.993 118.723L101.993 144.355L96.9428 147.271ZM115.667 137.144C113.693 138.284 111.937 138.734 110.399 138.494C108.881 138.218 107.697 137.306 106.844 135.758C105.992 134.186 105.566 132.092 105.566 129.476C105.566 126.86 105.992 124.286 106.844 121.754C107.697 119.198 108.881 116.918 110.399 114.914C111.937 112.874 113.693 111.284 115.667 110.144C117.621 109.016 119.367 108.584 120.905 108.848C122.443 109.088 123.638 109.994 124.491 111.566C125.343 113.114 125.769 115.196 125.769 117.812C125.769 120.428 125.343 123.014 124.491 125.57C123.638 128.102 122.443 130.388 120.905 132.428C119.367 134.444 117.621 136.016 115.667 137.144ZM115.667 131.996C116.644 131.432 117.496 130.592 118.224 129.476C118.972 128.348 119.554 127.028 119.97 125.516C120.386 124.004 120.593 122.432 120.593 120.8C120.593 119.168 120.386 117.836 119.97 116.804C119.554 115.772 118.972 115.124 118.224 114.86C117.496 114.584 116.644 114.728 115.667 115.292C114.691 115.856 113.828 116.702 113.08 117.83C112.332 118.958 111.75 120.278 111.334 121.79C110.939 123.29 110.741 124.856 110.741 126.488C110.741 128.12 110.939 129.458 111.334 130.502C111.75 131.534 112.332 132.182 113.08 132.446C113.828 132.71 114.691 132.56 115.667 131.996ZM138.593 123.908C136.619 125.048 134.863 125.498 133.325 125.258C131.807 124.982 130.623 124.07 129.77 122.522C128.918 120.95 128.492 118.856 128.492 116.24C128.492 113.624 128.918 111.05 129.77 108.518C130.623 105.962 131.807 103.682 133.325 101.678C134.863 99.6376 136.619 98.0476 138.593 96.9076C140.547 95.7796 142.293 95.3476 143.831 95.6116C145.369 95.8516 146.564 96.7576 147.416 98.3296C148.269 99.8776 148.695 101.96 148.695 104.576C148.695 107.192 148.269 109.778 147.416 112.334C146.564 114.866 145.369 117.152 143.831 119.192C142.293 121.208 140.547 122.78 138.593 123.908ZM138.593 118.76C139.57 118.196 140.422 117.356 141.15 116.24C141.898 115.112 142.48 113.792 142.896 112.28C143.312 110.768 143.519 109.196 143.519 107.564C143.519 105.932 143.312 104.6 142.896 103.568C142.48 102.536 141.898 101.888 141.15 101.624C140.422 101.348 139.57 101.492 138.593 102.056C137.617 102.62 136.754 103.466 136.006 104.594C135.258 105.722 134.676 107.042 134.26 108.554C133.865 110.054 133.667 111.62 133.667 113.252C133.667 114.884 133.865 116.222 134.26 117.266C134.676 118.298 135.258 118.946 136.006 119.21C136.754 119.474 137.617 119.324 138.593 118.76Z" fill="black"/>
</svg>
