<svg width="256" height="256" viewBox="0 0 256 256" fill="none" xmlns="http://www.w3.org/2000/svg">
<path d="M154.461 100.267C154.461 122.063 139.159 148.568 120.282 159.467C101.405 170.365 86.1028 161.53 86.1028 139.733C86.1028 117.936 101.405 91.4316 120.282 80.5332C139.159 69.6348 154.461 78.4697 154.461 100.267Z" fill="white" stroke="#1019EF" stroke-width="6.4"/>
<mask id="path-2-inside-1_787_2094" fill="white">
<path d="M120.132 132.533L164.934 106.667L164.934 137.067L120.132 162.933L120.132 132.533Z"/>
</mask>
<path d="M120.132 132.533L164.934 106.667L164.934 137.067L120.132 162.933L120.132 132.533Z" fill="white"/>
<path d="M164.934 106.667L170.477 103.467L170.477 97.0665L164.934 100.267L164.934 106.667ZM164.934 137.067L164.934 143.467L170.477 140.267L170.477 133.867L164.934 137.067ZM120.132 138.933L164.934 113.067L164.934 100.267L120.132 126.133L120.132 138.933ZM159.391 109.867L159.391 140.267L170.477 133.867L170.477 103.467L159.391 109.867ZM164.934 130.667L120.132 156.533L120.132 169.333L164.934 143.467L164.934 130.667Z" fill="#1019EF" mask="url(#path-2-inside-1_787_2094)"/>
<path d="M104.665 138.665L150.729 110.933L148.132 125.066L104.665 151.208L104.665 138.665Z" fill="white"/>
<path d="M90.5493 150.962L90.5493 147.65L99.8088 132.836C99.8711 132.728 99.9335 132.62 99.9959 132.512C100.079 132.392 100.152 132.278 100.214 132.17C101.087 130.754 101.711 129.626 102.085 128.786C102.48 127.934 102.677 127.112 102.677 126.32C102.677 125.6 102.521 125.042 102.209 124.646C101.898 124.226 101.482 123.998 100.962 123.962C100.443 123.926 99.8608 124.094 99.2164 124.466C98.4682 124.898 97.7927 125.504 97.1899 126.284C96.608 127.052 96.1403 127.934 95.787 128.93C95.4544 129.89 95.2674 130.898 95.2258 131.954L90.6116 134.618C90.6116 134.522 90.6116 134.426 90.6116 134.33C90.6116 132.554 90.9649 130.718 91.6716 128.822C92.3783 126.926 93.3967 125.162 94.727 123.53C96.0572 121.898 97.5744 120.59 99.2788 119.606C100.838 118.706 102.241 118.256 103.488 118.256C104.735 118.232 105.712 118.64 106.418 119.48C107.125 120.296 107.478 121.484 107.478 123.044C107.478 124.484 107.115 126.038 106.387 127.706C105.66 129.374 104.558 131.366 103.082 133.682L97.9382 141.8L97.9382 142.16L106.979 136.94L106.979 141.476L90.5493 150.962ZM118.177 135.695C116.535 136.643 115.039 137.087 113.688 137.027C112.357 136.931 111.297 136.379 110.508 135.371C109.739 134.327 109.323 132.887 109.261 131.051L114.062 128.279C114.062 129.263 114.238 130.037 114.592 130.601C114.945 131.165 115.423 131.501 116.026 131.609C116.649 131.681 117.346 131.495 118.115 131.051C118.863 130.619 119.528 130.055 120.11 129.359C120.692 128.663 121.149 127.907 121.482 127.091C121.814 126.251 121.981 125.435 121.981 124.643C121.981 123.851 121.804 123.233 121.451 122.789C121.118 122.333 120.65 122.099 120.048 122.087C119.466 122.039 118.811 122.225 118.084 122.645C117.772 122.825 117.439 123.065 117.086 123.365C116.733 123.641 116.442 123.905 116.213 124.157L115.091 121.385L119.642 113.429L119.642 113.069L110.663 118.253L110.663 113.717L126.034 104.843L126.034 108.335L120.765 117.605C121.929 117.149 122.968 117.041 123.882 117.281C124.818 117.485 125.545 118.025 126.065 118.901C126.605 119.741 126.875 120.845 126.875 122.213C126.875 123.821 126.501 125.489 125.753 127.217C125.026 128.909 123.997 130.511 122.667 132.023C121.336 133.511 119.84 134.735 118.177 135.695ZM139.226 123.542C137.251 124.682 135.495 125.132 133.957 124.892C132.44 124.616 131.255 123.704 130.403 122.156C129.551 120.584 129.125 118.49 129.125 115.874C129.125 113.258 129.551 110.684 130.403 108.152C131.255 105.596 132.44 103.316 133.957 101.312C135.495 99.2724 137.251 97.6824 139.226 96.5424C141.18 95.4144 142.926 94.9824 144.464 95.2464C146.002 95.4864 147.197 96.3924 148.049 97.9644C148.901 99.5124 149.327 101.594 149.327 104.21C149.327 106.826 148.901 109.412 148.049 111.968C147.197 114.5 146.002 116.786 144.464 118.826C142.926 120.842 141.18 122.414 139.226 123.542ZM139.226 118.394C140.203 117.83 141.055 116.99 141.782 115.874C142.531 114.746 143.113 113.426 143.528 111.914C143.944 110.402 144.152 108.83 144.152 107.198C144.152 105.566 143.944 104.234 143.528 103.202C143.113 102.17 142.531 101.522 141.782 101.258C141.055 100.982 140.203 101.126 139.226 101.69C138.249 102.254 137.386 103.1 136.638 104.228C135.89 105.356 135.308 106.676 134.892 108.188C134.497 109.688 134.3 111.254 134.3 112.886C134.3 114.518 134.497 115.856 134.892 116.9C135.308 117.932 135.89 118.58 136.638 118.844C137.386 119.108 138.249 118.958 139.226 118.394Z" fill="black"/>
</svg>
