<svg width="256" height="256" viewBox="0 0 256 256" fill="none" xmlns="http://www.w3.org/2000/svg">
<path d="M154.461 100.267C154.461 122.063 139.159 148.568 120.282 159.467C101.405 170.365 86.1028 161.53 86.1028 139.733C86.1028 117.936 101.405 91.4316 120.282 80.5332C139.159 69.6348 154.461 78.4697 154.461 100.267Z" fill="white" stroke="#1019EF" stroke-width="6.4"/>
<mask id="path-2-inside-1_787_2085" fill="white">
<path d="M120.132 132.533L164.934 106.667L164.934 137.067L120.132 162.933L120.132 132.533Z"/>
</mask>
<path d="M120.132 132.533L164.934 106.667L164.934 137.067L120.132 162.933L120.132 132.533Z" fill="white"/>
<path d="M164.934 106.667L170.477 103.467L170.477 97.0665L164.934 100.267L164.934 106.667ZM164.934 137.067L164.934 143.467L170.477 140.267L170.477 133.867L164.934 137.067ZM120.132 138.933L164.934 113.067L164.934 100.267L120.132 126.133L120.132 138.933ZM159.392 109.867L159.392 140.267L170.477 133.867L170.477 103.467L159.392 109.867ZM164.934 130.667L120.132 156.533L120.132 169.333L164.934 143.467L164.934 130.667Z" fill="#1019EF" mask="url(#path-2-inside-1_787_2085)"/>
<path d="M104.665 138.665L150.729 110.933L148.132 125.066L104.665 151.208L104.665 138.665Z" fill="white"/>
<path d="M95.7013 147.987L95.7013 144.675L104.961 129.861C105.023 129.753 105.086 129.645 105.148 129.537C105.231 129.417 105.304 129.303 105.366 129.195C106.239 127.779 106.863 126.651 107.237 125.811C107.632 124.959 107.829 124.137 107.829 123.345C107.829 122.625 107.673 122.067 107.361 121.671C107.05 121.251 106.634 121.023 106.114 120.987C105.595 120.951 105.013 121.119 104.369 121.491C103.62 121.923 102.945 122.529 102.342 123.309C101.76 124.077 101.292 124.959 100.939 125.955C100.606 126.915 100.419 127.923 100.378 128.979L95.7637 131.643C95.7637 131.547 95.7637 131.451 95.7637 131.355C95.7637 129.579 96.117 127.743 96.8237 125.847C97.5304 123.951 98.5488 122.187 99.879 120.555C101.209 118.923 102.727 117.615 104.431 116.631C105.99 115.731 107.393 115.281 108.64 115.281C109.887 115.257 110.864 115.665 111.57 116.505C112.277 117.321 112.63 118.509 112.63 120.069C112.63 121.509 112.267 123.063 111.539 124.731C110.812 126.399 109.71 128.391 108.234 130.707L103.09 138.825L103.09 139.185L112.132 133.965L112.132 138.501L95.7013 147.987ZM114.974 136.86L114.974 133.548L124.233 118.734C124.296 118.626 124.358 118.518 124.42 118.41C124.504 118.29 124.576 118.176 124.639 118.068C125.512 116.652 126.135 115.524 126.509 114.684C126.904 113.832 127.102 113.01 127.102 112.218C127.102 111.498 126.946 110.94 126.634 110.544C126.322 110.124 125.906 109.896 125.387 109.86C124.867 109.824 124.285 109.992 123.641 110.364C122.893 110.796 122.217 111.402 121.614 112.182C121.032 112.95 120.565 113.832 120.211 114.828C119.879 115.788 119.692 116.796 119.65 117.852L115.036 120.516C115.036 120.42 115.036 120.324 115.036 120.228C115.036 118.452 115.389 116.616 116.096 114.72C116.803 112.824 117.821 111.06 119.151 109.428C120.482 107.796 121.999 106.488 123.703 105.504C125.262 104.604 126.665 104.154 127.912 104.154C129.159 104.13 130.136 104.538 130.843 105.378C131.549 106.194 131.903 107.382 131.903 108.942C131.903 110.382 131.539 111.936 130.812 113.604C130.084 115.272 128.983 117.264 127.507 119.58L122.363 127.698L122.363 128.058L131.404 122.838L131.404 127.374L114.974 136.86ZM139.141 122.907L139.141 104.151L138.798 104.349L133.747 111.585L133.747 105.681L139.858 96.8614L144.192 94.3594L144.192 119.991L139.141 122.907Z" fill="black"/>
</svg>
