<svg width="256" height="256" viewBox="0 0 256 256" fill="none" xmlns="http://www.w3.org/2000/svg">
<path d="M154.461 100.267C154.461 122.063 139.159 148.568 120.282 159.467C101.405 170.365 86.1028 161.53 86.1028 139.733C86.1028 117.936 101.405 91.4316 120.282 80.5332C139.159 69.6348 154.461 78.4697 154.461 100.267Z" fill="white" stroke="#1019EF" stroke-width="6.4"/>
<mask id="path-2-inside-1_787_1661" fill="white">
<path d="M120.132 132.533L164.934 106.667L164.934 137.067L120.132 162.933L120.132 132.533Z"/>
</mask>
<path d="M120.132 132.533L164.934 106.667L164.934 137.067L120.132 162.933L120.132 132.533Z" fill="white"/>
<path d="M164.934 106.667L170.477 103.467L170.477 97.0665L164.934 100.267L164.934 106.667ZM164.934 137.067L164.934 143.467L170.477 140.267L170.477 133.867L164.934 137.067ZM120.132 138.933L164.934 113.067L164.934 100.267L120.132 126.133L120.132 138.933ZM159.391 109.867L159.391 140.267L170.477 133.867L170.477 103.467L159.391 109.867ZM164.934 130.667L120.132 156.533L120.132 169.333L164.934 143.467L164.934 130.667Z" fill="#1019EF" mask="url(#path-2-inside-1_787_1661)"/>
<path d="M104.665 138.665L150.729 110.933L148.132 125.066L104.665 151.208L104.665 138.665Z" fill="white"/>
<path d="M101.342 144.731L101.342 125.975L100.999 126.173L95.9486 133.409L95.9486 127.505L102.059 118.685L106.393 116.183L106.393 141.815L101.342 144.731ZM111.743 138.726L119.132 113.652L109.093 119.448L109.093 114.624L124.962 105.462L124.962 108.954L117.105 135.63L111.743 138.726ZM135.625 98.6212C137.371 97.6132 138.92 97.1032 140.271 97.0912C141.643 97.0432 142.703 97.4752 143.451 98.3872C144.22 99.2872 144.604 100.577 144.604 102.257C144.604 103.289 144.407 104.495 144.012 105.875C143.617 107.255 143.056 108.743 142.328 110.339L135.625 124.901L129.889 128.213L135.75 115.613C135.397 115.937 135.043 116.237 134.69 116.513C134.358 116.753 134.035 116.963 133.724 117.143C132.31 117.959 131.053 118.337 129.951 118.277C128.87 118.205 128.018 117.725 127.395 116.837C126.771 115.925 126.459 114.677 126.459 113.093C126.459 111.293 126.844 109.475 127.613 107.639C128.403 105.791 129.484 104.087 130.855 102.527C132.248 100.955 133.838 99.6532 135.625 98.6212ZM135.469 103.535C134.742 103.955 134.087 104.513 133.505 105.209C132.923 105.905 132.466 106.685 132.134 107.549C131.801 108.389 131.635 109.241 131.635 110.105C131.635 110.945 131.801 111.593 132.134 112.049C132.466 112.481 132.923 112.721 133.505 112.769C134.087 112.793 134.742 112.595 135.469 112.175C136.218 111.743 136.893 111.173 137.496 110.465C138.12 109.745 138.598 108.965 138.93 108.125C139.263 107.285 139.429 106.445 139.429 105.605C139.429 104.741 139.263 104.069 138.93 103.589C138.598 103.109 138.12 102.881 137.496 102.905C136.893 102.893 136.218 103.103 135.469 103.535Z" fill="black"/>
</svg>
