<svg width="256" height="256" viewBox="0 0 256 256" fill="none" xmlns="http://www.w3.org/2000/svg">
<path d="M154.461 100.267C154.461 122.063 139.159 148.568 120.282 159.467C101.405 170.365 86.1028 161.53 86.1028 139.733C86.1028 117.936 101.405 91.4316 120.282 80.5332C139.159 69.6348 154.461 78.4697 154.461 100.267Z" fill="white" stroke="#1019EF" stroke-width="6.4"/>
<mask id="path-2-inside-1_787_1633" fill="white">
<path d="M120.132 132.533L164.934 106.667L164.934 137.067L120.132 162.933L120.132 132.533Z"/>
</mask>
<path d="M120.132 132.533L164.934 106.667L164.934 137.067L120.132 162.933L120.132 132.533Z" fill="white"/>
<path d="M164.934 106.667L170.477 103.467L170.477 97.0665L164.934 100.267L164.934 106.667ZM164.934 137.067L164.934 143.467L170.477 140.267L170.477 133.867L164.934 137.067ZM120.132 138.933L164.934 113.067L164.934 100.267L120.132 126.133L120.132 138.933ZM159.392 109.867L159.392 140.267L170.477 133.867L170.477 103.467L159.392 109.867ZM164.934 130.667L120.132 156.533L120.132 169.333L164.934 143.467L164.934 130.667Z" fill="#1019EF" mask="url(#path-2-inside-1_787_1633)"/>
<path d="M104.665 138.665L150.729 110.933L148.132 125.066L104.665 151.208L104.665 138.665Z" fill="white"/>
<path d="M102.827 143.873L102.827 125.117L102.484 125.315L97.4336 132.551L97.4336 126.647L103.544 117.827L107.878 115.325L107.878 140.957L102.827 143.873ZM119.993 134.647C118.351 135.595 116.865 136.045 115.535 135.997C114.204 135.925 113.144 135.385 112.355 134.377C111.565 133.369 111.139 131.971 111.076 130.183L115.878 127.411C115.878 128.323 116.054 129.049 116.408 129.589C116.782 130.117 117.27 130.435 117.873 130.543C118.497 130.615 119.182 130.435 119.931 130.003C120.679 129.571 121.344 129.007 121.926 128.311C122.529 127.603 122.996 126.829 123.329 125.989C123.661 125.149 123.828 124.345 123.828 123.577C123.828 122.737 123.651 122.095 123.298 121.651C122.944 121.207 122.435 120.997 121.77 121.021C121.105 121.045 120.326 121.315 119.432 121.831L112.822 125.647L113.851 111.877L126.977 104.299L126.977 108.835L117.624 114.235L117.218 119.077L120.772 117.025C122.331 116.125 123.703 115.693 124.888 115.729C126.093 115.753 127.029 116.221 127.694 117.133C128.359 118.021 128.691 119.281 128.691 120.913C128.691 122.569 128.317 124.273 127.569 126.025C126.821 127.777 125.782 129.421 124.451 130.957C123.142 132.457 121.656 133.687 119.993 134.647ZM136.044 124.695L136.044 105.939L135.701 106.137L130.65 113.373L130.65 107.469L136.761 98.6495L141.095 96.1475L141.095 121.779L136.044 124.695Z" fill="black"/>
</svg>
