<svg width="256" height="256" viewBox="0 0 256 256" fill="none" xmlns="http://www.w3.org/2000/svg">
<path d="M154.461 100.267C154.461 122.063 139.159 148.568 120.282 159.467C101.405 170.365 86.1028 161.53 86.1028 139.733C86.1028 117.936 101.405 91.4316 120.282 80.5332C139.159 69.6348 154.461 78.4697 154.461 100.267Z" fill="white" stroke="#1019EF" stroke-width="6.4"/>
<mask id="path-2-inside-1_787_2095" fill="white">
<path d="M120.132 132.533L164.934 106.667L164.934 137.067L120.132 162.933L120.132 132.533Z"/>
</mask>
<path d="M120.132 132.533L164.934 106.667L164.934 137.067L120.132 162.933L120.132 132.533Z" fill="white"/>
<path d="M164.934 106.667L170.477 103.467L170.477 97.0665L164.934 100.267L164.934 106.667ZM164.934 137.067L164.934 143.467L170.477 140.267L170.477 133.867L164.934 137.067ZM120.132 138.933L164.934 113.067L164.934 100.267L120.132 126.133L120.132 138.933ZM159.392 109.867L159.392 140.267L170.477 133.867L170.477 103.467L159.392 109.867ZM164.934 130.667L120.132 156.533L120.132 169.333L164.934 143.467L164.934 130.667Z" fill="#1019EF" mask="url(#path-2-inside-1_787_2095)"/>
<path d="M104.665 138.665L150.729 110.933L148.132 125.066L104.665 151.208L104.665 138.665Z" fill="white"/>
<path d="M95.6861 147.996L95.6861 144.684L104.946 129.87C105.008 129.762 105.07 129.654 105.133 129.546C105.216 129.426 105.289 129.312 105.351 129.204C106.224 127.788 106.847 126.66 107.222 125.82C107.616 124.968 107.814 124.146 107.814 123.354C107.814 122.634 107.658 122.076 107.346 121.68C107.034 121.26 106.619 121.032 106.099 120.996C105.58 120.96 104.998 121.128 104.353 121.5C103.605 121.932 102.93 122.538 102.327 123.318C101.745 124.086 101.277 124.968 100.924 125.964C100.591 126.924 100.404 127.932 100.363 128.988L95.7484 131.652C95.7484 131.556 95.7484 131.46 95.7484 131.364C95.7484 129.588 96.1018 127.752 96.8085 125.856C97.5151 123.96 98.5336 122.196 99.8638 120.564C101.194 118.932 102.711 117.624 104.416 116.64C105.974 115.74 107.377 115.29 108.625 115.29C109.872 115.266 110.848 115.674 111.555 116.514C112.262 117.33 112.615 118.518 112.615 120.078C112.615 121.518 112.251 123.072 111.524 124.74C110.797 126.408 109.695 128.4 108.219 130.716L103.075 138.834L103.075 139.194L112.116 133.974L112.116 138.51L95.6861 147.996ZM123.314 132.729C121.672 133.677 120.175 134.121 118.824 134.061C117.494 133.965 116.434 133.413 115.644 132.405C114.875 131.361 114.46 129.921 114.397 128.085L119.199 125.313C119.199 126.297 119.375 127.071 119.729 127.635C120.082 128.199 120.56 128.535 121.163 128.643C121.786 128.715 122.483 128.529 123.252 128.085C124 127.653 124.665 127.089 125.247 126.393C125.829 125.697 126.286 124.941 126.619 124.125C126.951 123.285 127.118 122.469 127.118 121.677C127.118 120.885 126.941 120.267 126.588 119.823C126.255 119.367 125.787 119.133 125.185 119.121C124.603 119.073 123.948 119.259 123.22 119.679C122.909 119.859 122.576 120.099 122.223 120.399C121.869 120.675 121.578 120.939 121.35 121.191L120.227 118.419L124.779 110.463L124.779 110.103L115.8 115.287L115.8 110.751L131.171 101.877L131.171 105.369L125.902 114.639C127.066 114.183 128.105 114.075 129.019 114.315C129.955 114.519 130.682 115.059 131.202 115.935C131.742 116.775 132.012 117.879 132.012 119.247C132.012 120.855 131.638 122.523 130.89 124.251C130.162 125.943 129.134 127.545 127.803 129.057C126.473 130.545 124.977 131.769 123.314 132.729ZM139.156 122.899L139.156 104.143L138.813 104.341L133.763 111.577L133.763 105.673L139.873 96.8526L144.207 94.3506L144.207 119.983L139.156 122.899Z" fill="black"/>
</svg>
