<svg width="256" height="256" viewBox="0 0 256 256" fill="none" xmlns="http://www.w3.org/2000/svg">
<path d="M154.461 100.267C154.461 122.064 139.159 148.568 120.282 159.467C101.405 170.365 86.1028 161.53 86.1028 139.733C86.1028 117.937 101.405 91.4318 120.282 80.5334C139.159 69.635 154.461 78.4699 154.461 100.267Z" fill="white" stroke="#1019EF" stroke-width="6.4"/>
<mask id="path-2-inside-1_787_1205" fill="white">
<path d="M120.132 132.533L164.934 106.667L164.934 137.067L120.132 162.933L120.132 132.533Z"/>
</mask>
<path d="M120.132 132.533L164.934 106.667L164.934 137.067L120.132 162.933L120.132 132.533Z" fill="white"/>
<path d="M164.934 106.667L170.477 103.467L170.477 97.0668L164.934 100.267L164.934 106.667ZM164.934 137.067L164.934 143.467L170.477 140.267L170.477 133.867L164.934 137.067ZM120.132 138.933L164.934 113.067L164.934 100.267L120.132 126.133L120.132 138.933ZM159.391 109.867L159.391 140.267L170.477 133.867L170.477 103.467L159.391 109.867ZM164.934 130.667L120.132 156.533L120.132 169.333L164.934 143.467L164.934 130.667Z" fill="#1019EF" mask="url(#path-2-inside-1_787_1205)"/>
<path d="M104.665 138.666L150.729 110.933L148.132 125.067L104.665 151.209L104.665 138.666Z" fill="white"/>
<path d="M98.5563 146.339L98.5563 127.583L98.2134 127.781L93.1627 135.017L93.1627 129.113L99.2734 120.293L103.607 117.791L103.607 143.423L98.5563 146.339ZM117.281 136.212C115.306 137.352 113.55 137.802 112.012 137.562C110.495 137.286 109.31 136.374 108.458 134.826C107.606 133.254 107.18 131.16 107.18 128.544C107.18 125.928 107.606 123.354 108.458 120.822C109.31 118.266 110.495 115.986 112.012 113.982C113.55 111.942 115.306 110.352 117.281 109.212C119.235 108.084 120.981 107.652 122.519 107.916C124.057 108.156 125.252 109.062 126.104 110.634C126.956 112.182 127.382 114.264 127.382 116.88C127.382 119.496 126.956 122.082 126.104 124.638C125.252 127.17 124.057 129.456 122.519 131.496C120.981 133.512 119.235 135.084 117.281 136.212ZM117.281 131.064C118.258 130.5 119.11 129.66 119.837 128.544C120.586 127.416 121.168 126.096 121.583 124.584C121.999 123.072 122.207 121.5 122.207 119.868C122.207 118.236 121.999 116.904 121.583 115.872C121.168 114.84 120.586 114.192 119.837 113.928C119.11 113.652 118.258 113.796 117.281 114.36C116.304 114.924 115.442 115.77 114.693 116.898C113.945 118.026 113.363 119.346 112.947 120.858C112.552 122.358 112.355 123.924 112.355 125.556C112.355 127.188 112.552 128.526 112.947 129.57C113.363 130.602 113.945 131.25 114.693 131.514C115.442 131.778 116.304 131.628 117.281 131.064ZM138.648 123.876C137.006 124.824 135.52 125.274 134.19 125.226C132.86 125.154 131.8 124.614 131.01 123.606C130.22 122.598 129.794 121.2 129.732 119.412L134.533 116.64C134.533 117.552 134.709 118.278 135.063 118.818C135.437 119.346 135.925 119.664 136.528 119.772C137.152 119.844 137.838 119.664 138.586 119.232C139.334 118.8 139.999 118.236 140.581 117.54C141.184 116.832 141.651 116.058 141.984 115.218C142.317 114.378 142.483 113.574 142.483 112.806C142.483 111.966 142.306 111.324 141.953 110.88C141.6 110.436 141.09 110.226 140.425 110.25C139.76 110.274 138.981 110.544 138.087 111.06L131.477 114.876L132.506 101.106L145.632 93.528L145.632 98.064L136.279 103.464L135.873 108.306L139.428 106.254C140.986 105.354 142.358 104.922 143.543 104.958C144.748 104.982 145.684 105.45 146.349 106.362C147.014 107.25 147.346 108.51 147.346 110.142C147.346 111.798 146.972 113.502 146.224 115.254C145.476 117.006 144.437 118.65 143.106 120.186C141.797 121.686 140.311 122.916 138.648 123.876Z" fill="black"/>
</svg>
