<svg width="256" height="256" viewBox="0 0 256 256" fill="none" xmlns="http://www.w3.org/2000/svg">
<path d="M154.461 100.267C154.461 122.064 139.159 148.568 120.282 159.467C101.405 170.365 86.1028 161.53 86.1028 139.733C86.1028 117.937 101.405 91.4318 120.282 80.5334C139.159 69.635 154.461 78.4699 154.461 100.267Z" fill="white" stroke="#1019EF" stroke-width="6.4"/>
<mask id="path-2-inside-1_787_1215" fill="white">
<path d="M120.132 132.533L164.934 106.667L164.934 137.067L120.132 162.933L120.132 132.533Z"/>
</mask>
<path d="M120.132 132.533L164.934 106.667L164.934 137.067L120.132 162.933L120.132 132.533Z" fill="white"/>
<path d="M164.934 106.667L170.477 103.467L170.477 97.0668L164.934 100.267L164.934 106.667ZM164.934 137.067L164.934 143.467L170.477 140.267L170.477 133.867L164.934 137.067ZM120.132 138.933L164.934 113.067L164.934 100.267L120.132 126.133L120.132 138.933ZM159.391 109.867L159.391 140.267L170.477 133.867L170.477 103.467L159.391 109.867ZM164.934 130.667L120.132 156.533L120.132 169.333L164.934 143.467L164.934 130.667Z" fill="#1019EF" mask="url(#path-2-inside-1_787_1215)"/>
<path d="M104.665 138.666L150.729 110.933L148.132 125.067L104.665 151.209L104.665 138.666Z" fill="white"/>
<path d="M102.827 143.873L102.827 125.117L102.484 125.315L97.4336 132.551L97.4336 126.647L103.544 117.827L107.878 115.325L107.878 140.957L102.827 143.873ZM116.345 136.069L116.345 117.313L116.002 117.511L110.952 124.747L110.952 118.843L117.062 110.023L121.396 107.521L121.396 133.153L116.345 136.069ZM133.511 126.842C131.869 127.79 130.383 128.24 129.053 128.192C127.723 128.12 126.663 127.58 125.873 126.572C125.083 125.564 124.657 124.166 124.595 122.378L129.396 119.606C129.396 120.518 129.572 121.244 129.926 121.784C130.3 122.312 130.788 122.63 131.391 122.738C132.015 122.81 132.701 122.63 133.449 122.198C134.197 121.766 134.862 121.202 135.444 120.506C136.047 119.798 136.514 119.024 136.847 118.184C137.18 117.344 137.346 116.54 137.346 115.772C137.346 114.932 137.169 114.29 136.816 113.846C136.463 113.402 135.953 113.192 135.288 113.216C134.623 113.24 133.844 113.51 132.95 114.026L126.34 117.842L127.369 104.072L140.495 96.4938L140.495 101.03L131.142 106.43L130.736 111.272L134.291 109.22C135.849 108.32 137.221 107.888 138.406 107.924C139.611 107.948 140.547 108.416 141.212 109.328C141.877 110.216 142.209 111.476 142.209 113.108C142.209 114.764 141.835 116.468 141.087 118.22C140.339 119.972 139.3 121.616 137.969 123.152C136.66 124.652 135.174 125.882 133.511 126.842Z" fill="black"/>
</svg>
