<svg width="256" height="256" viewBox="0 0 256 256" fill="none" xmlns="http://www.w3.org/2000/svg">
<path d="M154.461 100.267C154.461 122.063 139.159 148.568 120.282 159.467C101.405 170.365 86.1028 161.53 86.1028 139.733C86.1028 117.936 101.405 91.4316 120.282 80.5332C139.159 69.6348 154.461 78.4697 154.461 100.267Z" fill="white" stroke="#1019EF" stroke-width="6.4"/>
<mask id="path-2-inside-1_787_1665" fill="white">
<path d="M120.132 132.533L164.934 106.667L164.934 137.067L120.132 162.933L120.132 132.533Z"/>
</mask>
<path d="M120.132 132.533L164.934 106.667L164.934 137.067L120.132 162.933L120.132 132.533Z" fill="white"/>
<path d="M164.934 106.667L170.477 103.467L170.477 97.0665L164.934 100.267L164.934 106.667ZM164.934 137.067L164.934 143.467L170.477 140.267L170.477 133.867L164.934 137.067ZM120.132 138.933L164.934 113.067L164.934 100.267L120.132 126.133L120.132 138.933ZM159.392 109.867L159.392 140.267L170.477 133.867L170.477 103.467L159.392 109.867ZM164.934 130.667L120.132 156.533L120.132 169.333L164.934 143.467L164.934 130.667Z" fill="#1019EF" mask="url(#path-2-inside-1_787_1665)"/>
<path d="M104.665 138.665L150.729 110.933L148.132 125.066L104.665 151.208L104.665 138.665Z" fill="white"/>
<path d="M99.4479 145.824L99.4479 127.068L99.105 127.266L94.0543 134.502L94.0543 128.598L100.165 119.778L104.499 117.276L104.499 142.908L99.4479 145.824ZM117.05 136.31C115.221 137.366 113.621 137.978 112.249 138.146C110.898 138.278 109.838 137.99 109.069 137.282C108.321 136.562 107.947 135.458 107.947 133.97C107.947 132.362 108.352 130.76 109.162 129.164C109.973 127.568 111.012 126.224 112.28 125.132L112.28 124.772C111.282 124.892 110.461 124.658 109.817 124.07C109.194 123.446 108.882 122.474 108.882 121.154C108.882 119.738 109.214 118.298 109.879 116.834C110.565 115.358 111.521 113.978 112.748 112.694C113.995 111.398 115.429 110.282 117.05 109.346C118.63 108.434 120.033 107.924 121.259 107.816C122.485 107.708 123.441 107.996 124.127 108.68C124.834 109.328 125.187 110.348 125.187 111.74C125.187 113.06 124.865 114.398 124.221 115.754C123.597 117.074 122.776 118.256 121.758 119.3L121.758 119.66C123.047 119.276 124.096 119.414 124.907 120.074C125.717 120.734 126.123 121.868 126.123 123.476C126.123 124.964 125.738 126.506 124.969 128.102C124.221 129.686 123.161 131.198 121.789 132.638C120.417 134.054 118.838 135.278 117.05 136.31ZM117.05 120.434C117.674 120.074 118.235 119.618 118.734 119.066C119.253 118.478 119.659 117.86 119.95 117.212C120.241 116.54 120.386 115.892 120.386 115.268C120.386 114.668 120.241 114.212 119.95 113.9C119.659 113.564 119.253 113.414 118.734 113.45C118.235 113.45 117.674 113.63 117.05 113.99C116.385 114.374 115.793 114.86 115.273 115.448C114.774 116 114.379 116.612 114.088 117.284C113.818 117.92 113.683 118.538 113.683 119.138C113.683 119.762 113.818 120.248 114.088 120.596C114.379 120.908 114.785 121.058 115.304 121.046C115.824 121.01 116.406 120.806 117.05 120.434ZM117.05 131.63C117.736 131.234 118.37 130.724 118.952 130.1C119.534 129.452 119.981 128.762 120.293 128.03C120.604 127.274 120.76 126.548 120.76 125.852C120.76 125.132 120.594 124.592 120.261 124.232C119.95 123.86 119.503 123.686 118.921 123.71C118.36 123.722 117.736 123.926 117.05 124.322C116.323 124.742 115.678 125.27 115.117 125.906C114.556 126.542 114.109 127.232 113.777 127.976C113.465 128.708 113.309 129.434 113.309 130.154C113.309 130.85 113.465 131.396 113.777 131.792C114.109 132.152 114.556 132.326 115.117 132.314C115.678 132.278 116.323 132.05 117.05 131.63ZM137.1 124.77C135.458 125.718 133.961 126.162 132.61 126.102C131.28 126.006 130.22 125.454 129.43 124.446C128.661 123.402 128.245 121.962 128.183 120.126L132.984 117.354C132.984 118.338 133.161 119.112 133.514 119.676C133.868 120.24 134.346 120.576 134.948 120.684C135.572 120.756 136.268 120.57 137.037 120.126C137.786 119.694 138.451 119.13 139.033 118.434C139.615 117.738 140.072 116.982 140.404 116.166C140.737 115.326 140.903 114.51 140.903 113.718C140.903 112.926 140.727 112.308 140.373 111.864C140.041 111.408 139.573 111.174 138.97 111.162C138.388 111.114 137.734 111.3 137.006 111.72C136.694 111.9 136.362 112.14 136.008 112.44C135.655 112.716 135.364 112.98 135.135 113.232L134.013 110.46L138.565 102.504L138.565 102.144L129.586 107.328L129.586 102.792L144.956 93.9181L144.956 97.4101L139.687 106.68C140.851 106.224 141.89 106.116 142.805 106.356C143.74 106.56 144.468 107.1 144.987 107.976C145.528 108.816 145.798 109.92 145.798 111.288C145.798 112.896 145.424 114.564 144.676 116.292C143.948 117.984 142.919 119.586 141.589 121.098C140.259 122.586 138.762 123.81 137.1 124.77Z" fill="black"/>
</svg>
