<svg width="256" height="256" viewBox="0 0 256 256" fill="none" xmlns="http://www.w3.org/2000/svg">
<path d="M154.461 100.267C154.461 122.063 139.159 148.568 120.282 159.467C101.405 170.365 86.1028 161.53 86.1028 139.733C86.1028 117.936 101.405 91.4316 120.282 80.5332C139.159 69.6348 154.461 78.4697 154.461 100.267Z" fill="white" stroke="#1019EF" stroke-width="6.4"/>
<mask id="path-2-inside-1_787_1670" fill="white">
<path d="M120.132 132.533L164.934 106.667L164.934 137.067L120.132 162.933L120.132 132.533Z"/>
</mask>
<path d="M120.132 132.533L164.934 106.667L164.934 137.067L120.132 162.933L120.132 132.533Z" fill="white"/>
<path d="M164.934 106.667L170.477 103.467L170.477 97.0665L164.934 100.267L164.934 106.667ZM164.934 137.067L164.934 143.467L170.477 140.267L170.477 133.867L164.934 137.067ZM120.132 138.933L164.934 113.067L164.934 100.267L120.132 126.133L120.132 138.933ZM159.391 109.867L159.391 140.267L170.477 133.867L170.477 103.467L159.391 109.867ZM164.934 130.667L120.132 156.533L120.132 169.333L164.934 143.467L164.934 130.667Z" fill="#1019EF" mask="url(#path-2-inside-1_787_1670)"/>
<path d="M104.665 138.665L150.729 110.933L148.132 125.066L104.665 151.208L104.665 138.665Z" fill="white"/>
<path d="M98.7627 146.22L98.7627 127.464L98.4197 127.662L93.3691 134.898L93.3691 128.994L99.4797 120.174L103.813 117.672L103.813 143.304L98.7627 146.22ZM116.365 136.705C114.536 137.761 112.936 138.373 111.564 138.541C110.213 138.673 109.153 138.385 108.384 137.677C107.635 136.957 107.261 135.853 107.261 134.365C107.261 132.757 107.667 131.155 108.477 129.559C109.288 127.963 110.327 126.619 111.595 125.527L111.595 125.167C110.597 125.287 109.776 125.053 109.132 124.465C108.508 123.841 108.197 122.869 108.197 121.549C108.197 120.133 108.529 118.693 109.194 117.229C109.88 115.753 110.836 114.373 112.063 113.089C113.31 111.793 114.744 110.677 116.365 109.741C117.945 108.829 119.348 108.319 120.574 108.211C121.8 108.103 122.756 108.391 123.442 109.075C124.149 109.723 124.502 110.743 124.502 112.135C124.502 113.455 124.18 114.793 123.536 116.149C122.912 117.469 122.091 118.651 121.073 119.695L121.073 120.055C122.361 119.671 123.411 119.809 124.222 120.469C125.032 121.129 125.437 122.263 125.437 123.871C125.437 125.359 125.053 126.901 124.284 128.497C123.536 130.081 122.476 131.593 121.104 133.033C119.732 134.449 118.152 135.673 116.365 136.705ZM116.365 120.829C116.989 120.469 117.55 120.013 118.049 119.461C118.568 118.873 118.973 118.255 119.264 117.607C119.555 116.935 119.701 116.287 119.701 115.663C119.701 115.063 119.555 114.607 119.264 114.295C118.973 113.959 118.568 113.809 118.049 113.845C117.55 113.845 116.988 114.025 116.365 114.385C115.7 114.769 115.107 115.255 114.588 115.843C114.089 116.395 113.694 117.007 113.403 117.679C113.133 118.315 112.998 118.933 112.998 119.533C112.998 120.157 113.133 120.643 113.403 120.991C113.694 121.303 114.099 121.453 114.619 121.441C115.139 121.405 115.721 121.201 116.365 120.829ZM116.365 132.025C117.051 131.629 117.685 131.119 118.267 130.495C118.849 129.847 119.296 129.157 119.607 128.425C119.919 127.669 120.075 126.943 120.075 126.247C120.075 125.527 119.909 124.987 119.576 124.627C119.264 124.255 118.818 124.081 118.236 124.105C117.674 124.117 117.051 124.321 116.365 124.717C115.638 125.137 114.993 125.665 114.432 126.301C113.871 126.937 113.424 127.627 113.091 128.371C112.78 129.103 112.624 129.829 112.624 130.549C112.624 131.245 112.78 131.791 113.091 132.187C113.424 132.547 113.871 132.721 114.432 132.709C114.993 132.673 115.638 132.445 116.365 132.025ZM137.038 124.77C135.209 125.826 133.608 126.438 132.237 126.606C130.886 126.738 129.826 126.45 129.057 125.742C128.308 125.022 127.934 123.918 127.934 122.43C127.934 120.822 128.34 119.22 129.15 117.624C129.961 116.028 131 114.684 132.268 113.592L132.268 113.232C131.27 113.352 130.449 113.118 129.805 112.53C129.181 111.906 128.87 110.934 128.87 109.614C128.87 108.198 129.202 106.758 129.867 105.294C130.553 103.818 131.509 102.438 132.736 101.154C133.983 99.8576 135.417 98.7416 137.038 97.8056C138.618 96.8936 140.021 96.3836 141.247 96.2756C142.473 96.1676 143.429 96.4556 144.115 97.1396C144.822 97.7876 145.175 98.8076 145.175 100.2C145.175 101.52 144.853 102.858 144.209 104.214C143.585 105.534 142.764 106.716 141.746 107.76L141.746 108.12C143.034 107.736 144.084 107.874 144.895 108.534C145.705 109.194 146.11 110.328 146.11 111.936C146.11 113.424 145.726 114.966 144.957 116.562C144.209 118.146 143.149 119.658 141.777 121.098C140.405 122.514 138.825 123.738 137.038 124.77ZM137.038 108.894C137.661 108.534 138.223 108.078 138.721 107.526C139.241 106.938 139.646 106.32 139.937 105.672C140.228 105 140.374 104.352 140.374 103.728C140.374 103.128 140.228 102.672 139.937 102.36C139.646 102.024 139.241 101.874 138.721 101.91C138.223 101.91 137.661 102.09 137.038 102.45C136.373 102.834 135.78 103.32 135.261 103.908C134.762 104.46 134.367 105.072 134.076 105.744C133.806 106.38 133.671 106.998 133.671 107.598C133.671 108.222 133.806 108.708 134.076 109.056C134.367 109.368 134.772 109.518 135.292 109.506C135.812 109.47 136.394 109.266 137.038 108.894ZM137.038 120.09C137.724 119.694 138.358 119.184 138.94 118.56C139.522 117.912 139.969 117.222 140.28 116.49C140.592 115.734 140.748 115.008 140.748 114.312C140.748 113.592 140.582 113.052 140.249 112.692C139.937 112.32 139.491 112.146 138.909 112.17C138.347 112.182 137.724 112.386 137.038 112.782C136.31 113.202 135.666 113.73 135.105 114.366C134.544 115.002 134.097 115.692 133.764 116.436C133.453 117.168 133.297 117.894 133.297 118.614C133.297 119.31 133.453 119.856 133.764 120.252C134.097 120.612 134.544 120.786 135.105 120.774C135.666 120.738 136.31 120.51 137.038 120.09Z" fill="black"/>
</svg>
