<svg width="256" height="256" viewBox="0 0 256 256" fill="none" xmlns="http://www.w3.org/2000/svg">
<path d="M154.461 100.267C154.461 122.064 139.159 148.568 120.282 159.467C101.405 170.365 86.1028 161.53 86.1028 139.733C86.1028 117.937 101.405 91.4318 120.282 80.5334C139.159 69.635 154.461 78.4699 154.461 100.267Z" fill="white" stroke="#1019EF" stroke-width="6.4"/>
<mask id="path-2-inside-1_787_1201" fill="white">
<path d="M120.132 132.533L164.934 106.667L164.934 137.067L120.132 162.933L120.132 132.533Z"/>
</mask>
<path d="M120.132 132.533L164.934 106.667L164.934 137.067L120.132 162.933L120.132 132.533Z" fill="white"/>
<path d="M164.934 106.667L170.477 103.467L170.477 97.0668L164.934 100.267L164.934 106.667ZM164.934 137.067L164.934 143.467L170.477 140.267L170.477 133.867L164.934 137.067ZM120.132 138.933L164.934 113.067L164.934 100.267L120.132 126.133L120.132 138.933ZM159.392 109.867L159.392 140.267L170.477 133.867L170.477 103.467L159.392 109.867ZM164.934 130.667L120.132 156.533L120.132 169.333L164.934 143.467L164.934 130.667Z" fill="#1019EF" mask="url(#path-2-inside-1_787_1201)"/>
<path d="M104.665 138.666L150.729 110.933L148.132 125.067L104.665 151.209L104.665 138.666Z" fill="white"/>
<path d="M101.214 144.805L101.214 126.049L100.871 126.247L95.8201 133.483L95.8201 127.579L101.931 118.759L106.264 116.257L106.264 141.889L101.214 144.805ZM119.938 134.678C117.964 135.818 116.207 136.268 114.669 136.028C113.152 135.752 111.967 134.84 111.115 133.292C110.263 131.72 109.837 129.626 109.837 127.01C109.837 124.394 110.263 121.82 111.115 119.288C111.967 116.732 113.152 114.452 114.669 112.448C116.207 110.408 117.964 108.818 119.938 107.678C121.892 106.55 123.638 106.118 125.176 106.382C126.714 106.622 127.909 107.528 128.761 109.1C129.614 110.648 130.04 112.73 130.04 115.346C130.04 117.962 129.614 120.548 128.761 123.104C127.909 125.636 126.714 127.922 125.176 129.962C123.638 131.978 121.892 133.55 119.938 134.678ZM119.938 129.53C120.915 128.966 121.767 128.126 122.495 127.01C123.243 125.882 123.825 124.562 124.241 123.05C124.656 121.538 124.864 119.966 124.864 118.334C124.864 116.702 124.656 115.37 124.241 114.338C123.825 113.306 123.243 112.658 122.495 112.394C121.767 112.118 120.915 112.262 119.938 112.826C118.961 113.39 118.099 114.236 117.351 115.364C116.602 116.492 116.02 117.812 115.605 119.324C115.21 120.824 115.012 122.39 115.012 124.022C115.012 125.654 115.21 126.992 115.605 128.036C116.02 129.068 116.602 129.716 117.351 129.98C118.099 130.244 118.961 130.094 119.938 129.53ZM137.658 123.764L137.658 105.008L137.315 105.206L132.264 112.442L132.264 106.538L138.375 97.7178L142.708 95.2158L142.708 120.848L137.658 123.764Z" fill="black"/>
</svg>
