<svg width="256" height="256" viewBox="0 0 256 256" fill="none" xmlns="http://www.w3.org/2000/svg">
<path d="M154.461 100.267C154.461 122.064 139.159 148.568 120.282 159.467C101.405 170.365 86.1028 161.53 86.1028 139.733C86.1028 117.937 101.405 91.4318 120.282 80.5334C139.159 69.6349 154.461 78.4698 154.461 100.267Z" fill="white" stroke="#1019EF" stroke-width="6.4"/>
<mask id="path-2-inside-1_787_490" fill="white">
<path d="M120.132 132.533L164.934 106.667L164.934 137.067L120.132 162.933L120.132 132.533Z"/>
</mask>
<path d="M120.132 132.533L164.934 106.667L164.934 137.067L120.132 162.933L120.132 132.533Z" fill="white"/>
<path d="M164.934 106.667L170.477 103.467L170.477 97.0666L164.934 100.267L164.934 106.667ZM164.934 137.067L164.934 143.467L170.477 140.267L170.477 133.867L164.934 137.067ZM120.132 138.933L164.934 113.067L164.934 100.267L120.132 126.133L120.132 138.933ZM159.391 109.867L159.391 140.267L170.477 133.867L170.477 103.467L159.391 109.867ZM164.934 130.667L120.132 156.533L120.132 169.333L164.934 143.467L164.934 130.667Z" fill="#1019EF" mask="url(#path-2-inside-1_787_490)"/>
<path d="M104.665 138.665L150.729 110.933L148.132 125.067L104.665 151.209L104.665 138.665Z" fill="white"/>
<path d="M106.309 147.346L106.309 119.559L105.801 119.852L98.3187 130.572L98.3187 121.826L107.372 108.759L113.792 105.052L113.792 143.026L106.309 147.346ZM132.387 133.25C129.677 134.814 127.306 135.721 125.274 135.97C123.272 136.165 121.702 135.739 120.563 134.69C119.454 133.623 118.9 131.988 118.9 129.783C118.9 127.401 119.5 125.028 120.701 122.663C121.902 120.299 123.442 118.308 125.32 116.69L125.32 116.156C123.842 116.334 122.626 115.988 121.671 115.116C120.747 114.192 120.285 112.752 120.285 110.796C120.285 108.699 120.778 106.565 121.763 104.396C122.78 102.21 124.196 100.165 126.013 98.2632C127.86 96.3432 129.985 94.6898 132.387 93.3032C134.727 91.952 136.805 91.1965 138.622 91.0365C140.439 90.8765 141.855 91.3031 142.871 92.3165C143.918 93.2765 144.442 94.7876 144.442 96.8498C144.442 98.8054 143.965 100.788 143.01 102.796C142.086 104.752 140.87 106.503 139.361 108.05L139.361 108.583C141.27 108.014 142.825 108.219 144.026 109.196C145.227 110.174 145.827 111.854 145.827 114.236C145.827 116.441 145.258 118.725 144.118 121.09C143.01 123.436 141.44 125.676 139.407 127.81C137.375 129.908 135.035 131.721 132.387 133.25ZM132.387 109.73C133.31 109.196 134.142 108.521 134.881 107.703C135.651 106.832 136.251 105.916 136.682 104.956C137.113 103.961 137.329 103.001 137.329 102.076C137.329 101.188 137.113 100.512 136.682 100.05C136.251 99.552 135.651 99.3298 134.881 99.3831C134.142 99.3831 133.31 99.6498 132.387 100.183C131.401 100.752 130.524 101.472 129.754 102.343C129.015 103.161 128.43 104.068 127.999 105.063C127.599 106.005 127.398 106.921 127.398 107.81C127.398 108.734 127.599 109.454 127.999 109.97C128.43 110.432 129.03 110.654 129.8 110.636C130.57 110.583 131.432 110.281 132.387 109.73ZM132.387 126.316C133.403 125.73 134.342 124.974 135.204 124.05C136.066 123.09 136.728 122.068 137.19 120.983C137.652 119.863 137.883 118.788 137.883 117.756C137.883 116.69 137.637 115.89 137.144 115.356C136.682 114.805 136.02 114.548 135.158 114.583C134.327 114.601 133.403 114.903 132.387 115.49C131.309 116.112 130.354 116.894 129.523 117.836C128.692 118.779 128.03 119.801 127.537 120.903C127.075 121.988 126.844 123.063 126.844 124.13C126.844 125.161 127.075 125.97 127.537 126.556C128.03 127.09 128.692 127.348 129.523 127.33C130.354 127.276 131.309 126.939 132.387 126.316Z" fill="black"/>
</svg>
