<svg width="256" height="256" viewBox="0 0 256 256" fill="none" xmlns="http://www.w3.org/2000/svg">
<path d="M154.461 100.267C154.461 122.063 139.159 148.568 120.282 159.467C101.405 170.365 86.1028 161.53 86.1028 139.733C86.1028 117.936 101.405 91.4316 120.282 80.5332C139.159 69.6348 154.461 78.4697 154.461 100.267Z" fill="white" stroke="#1019EF" stroke-width="6.4"/>
<mask id="path-2-inside-1_787_1658" fill="white">
<path d="M120.132 132.533L164.934 106.667L164.934 137.067L120.132 162.933L120.132 132.533Z"/>
</mask>
<path d="M120.132 132.533L164.934 106.667L164.934 137.067L120.132 162.933L120.132 132.533Z" fill="white"/>
<path d="M164.934 106.667L170.477 103.467L170.477 97.0665L164.934 100.267L164.934 106.667ZM164.934 137.067L164.934 143.467L170.477 140.267L170.477 133.867L164.934 137.067ZM120.132 138.933L164.934 113.067L164.934 100.267L120.132 126.133L120.132 138.933ZM159.391 109.867L159.391 140.267L170.477 133.867L170.477 103.467L159.391 109.867ZM164.934 130.667L120.132 156.533L120.132 169.333L164.934 143.467L164.934 130.667Z" fill="#1019EF" mask="url(#path-2-inside-1_787_1658)"/>
<path d="M104.665 138.665L150.729 110.933L148.132 125.066L104.665 151.208L104.665 138.665Z" fill="white"/>
<path d="M102.073 144.309L102.073 125.553L101.73 125.751L96.6793 132.987L96.6793 127.083L102.79 118.263L107.124 115.761L107.124 141.393L102.073 144.309ZM112.473 138.304L119.862 113.23L109.823 119.026L109.823 114.202L125.692 105.04L125.692 108.532L117.836 135.208L112.473 138.304ZM134.708 126.151C132.962 127.159 131.404 127.687 130.032 127.735C128.681 127.747 127.621 127.303 126.852 126.403C126.103 125.491 125.729 124.183 125.729 122.479C125.729 121.447 125.927 120.241 126.322 118.861C126.717 117.481 127.288 115.987 128.036 114.379L134.708 99.8347L140.445 96.5227L134.584 109.123C134.937 108.799 135.28 108.517 135.612 108.277C135.966 108.001 136.298 107.773 136.61 107.593C138.023 106.777 139.27 106.417 140.351 106.513C141.453 106.573 142.315 107.047 142.939 107.935C143.563 108.823 143.874 110.071 143.874 111.679C143.874 113.479 143.479 115.303 142.69 117.151C141.921 118.987 140.84 120.691 139.447 122.263C138.075 123.823 136.496 125.119 134.708 126.151ZM134.864 121.237C135.612 120.805 136.278 120.241 136.859 119.545C137.441 118.825 137.888 118.051 138.2 117.223C138.533 116.359 138.699 115.495 138.699 114.631C138.699 113.791 138.533 113.155 138.2 112.723C137.888 112.255 137.441 112.009 136.859 111.985C136.278 111.961 135.612 112.165 134.864 112.597C134.116 113.029 133.43 113.605 132.806 114.325C132.204 115.009 131.736 115.771 131.404 116.611C131.071 117.451 130.905 118.291 130.905 119.131C130.905 119.995 131.071 120.667 131.404 121.147C131.736 121.627 132.204 121.873 132.806 121.885C133.43 121.885 134.116 121.669 134.864 121.237Z" fill="black"/>
</svg>
