<svg width="256" height="256" viewBox="0 0 256 256" fill="none" xmlns="http://www.w3.org/2000/svg">
<path d="M154.461 100.267C154.461 122.063 139.159 148.568 120.282 159.467C101.405 170.365 86.1028 161.53 86.1028 139.733C86.1028 117.936 101.405 91.4317 120.282 80.5333C139.159 69.6349 154.461 78.4698 154.461 100.267Z" fill="white" stroke="#1019EF" stroke-width="6.4"/>
<mask id="path-2-inside-1_787_775" fill="white">
<path d="M120.132 132.533L164.934 106.667L164.934 137.067L120.132 162.933L120.132 132.533Z"/>
</mask>
<path d="M120.132 132.533L164.934 106.667L164.934 137.067L120.132 162.933L120.132 132.533Z" fill="white"/>
<path d="M164.934 106.667L170.477 103.467L170.477 97.0665L164.934 100.267L164.934 106.667ZM164.934 137.067L164.934 143.467L170.477 140.267L170.477 133.867L164.934 137.067ZM120.132 138.933L164.934 113.067L164.934 100.267L120.132 126.133L120.132 138.933ZM159.391 109.867L159.391 140.267L170.477 133.867L170.477 103.467L159.391 109.867ZM164.934 130.667L120.132 156.533L120.132 169.333L164.934 143.467L164.934 130.667Z" fill="#1019EF" mask="url(#path-2-inside-1_787_775)"/>
<path d="M104.665 138.665L150.729 110.933L148.132 125.067L104.665 151.209L104.665 138.665Z" fill="white"/>
<path d="M109.977 146.242C107.544 147.646 105.342 148.313 103.372 148.242C101.401 148.135 99.8306 147.335 98.6605 145.842C97.4904 144.348 96.8592 142.277 96.7668 139.628L103.88 135.522C103.88 136.873 104.141 137.948 104.665 138.748C105.219 139.53 105.943 140.002 106.836 140.162C107.76 140.268 108.776 140.002 109.884 139.362C110.993 138.722 111.978 137.886 112.84 136.855C113.733 135.806 114.426 134.659 114.919 133.415C115.411 132.17 115.658 130.979 115.658 129.842C115.658 128.597 115.396 127.646 114.872 126.988C114.349 126.33 113.595 126.019 112.609 126.055C111.624 126.09 110.469 126.49 109.145 127.255L99.3533 132.908L100.878 112.508L120.323 101.282L120.323 108.002L106.466 116.002L105.866 123.175L111.131 120.135C113.441 118.802 115.473 118.162 117.228 118.215C119.014 118.25 120.4 118.944 121.385 120.295C122.37 121.61 122.863 123.477 122.863 125.895C122.863 128.348 122.309 130.873 121.2 133.468C120.092 136.064 118.552 138.499 116.581 140.775C114.642 142.997 112.44 144.819 109.977 146.242ZM129.137 134.166L140.084 97.0193L125.211 105.606L125.211 98.4593L148.721 84.886L148.721 90.0593L137.081 129.579L129.137 134.166Z" fill="black"/>
</svg>
