<svg width="256" height="256" viewBox="0 0 256 256" fill="none" xmlns="http://www.w3.org/2000/svg">
<path d="M154.461 100.267C154.461 122.063 139.159 148.568 120.282 159.467C101.405 170.365 86.1028 161.53 86.1028 139.733C86.1028 117.936 101.405 91.4317 120.282 80.5333C139.159 69.6349 154.461 78.4698 154.461 100.267Z" fill="white" stroke="#1019EF" stroke-width="6.4"/>
<mask id="path-2-inside-1_787_771" fill="white">
<path d="M120.132 132.533L164.934 106.667L164.934 137.067L120.132 162.933L120.132 132.533Z"/>
</mask>
<path d="M120.132 132.533L164.934 106.667L164.934 137.067L120.132 162.933L120.132 132.533Z" fill="white"/>
<path d="M164.934 106.667L170.477 103.467L170.477 97.0665L164.934 100.267L164.934 106.667ZM164.934 137.067L164.934 143.467L170.477 140.267L170.477 133.867L164.934 137.067ZM120.132 138.933L164.934 113.067L164.934 100.267L120.132 126.133L120.132 138.933ZM159.392 109.867L159.392 140.267L170.477 133.867L170.477 103.467L159.392 109.867ZM164.934 130.667L120.132 156.533L120.132 169.333L164.934 143.467L164.934 130.667Z" fill="#1019EF" mask="url(#path-2-inside-1_787_771)"/>
<path d="M104.665 138.665L150.729 110.933L148.132 125.067L104.665 151.209L104.665 138.665Z" fill="white"/>
<path d="M108.15 147.296C105.717 148.701 103.516 149.367 101.545 149.296C99.5743 149.19 98.0039 148.39 96.8338 146.896C95.6638 145.403 95.0325 143.332 94.9401 140.683L102.053 136.576C102.053 137.927 102.315 139.003 102.838 139.803C103.393 140.585 104.116 141.056 105.009 141.216C105.933 141.323 106.949 141.056 108.058 140.416C109.166 139.776 110.151 138.941 111.014 137.91C111.907 136.861 112.599 135.714 113.092 134.47C113.585 133.225 113.831 132.034 113.831 130.896C113.831 129.652 113.569 128.701 113.046 128.043C112.522 127.385 111.768 127.074 110.783 127.11C109.797 127.145 108.643 127.545 107.319 128.31L97.5267 133.963L99.0509 113.563L118.496 102.336L118.496 109.056L104.64 117.056L104.039 124.23L109.305 121.19C111.614 119.856 113.646 119.216 115.401 119.27C117.187 119.305 118.573 119.998 119.558 121.35C120.544 122.665 121.036 124.532 121.036 126.95C121.036 129.403 120.482 131.927 119.374 134.523C118.265 137.118 116.725 139.554 114.755 141.83C112.815 144.052 110.613 145.874 108.15 147.296ZM137.056 130.607C134.623 132.012 132.406 132.67 130.405 132.581C128.434 132.438 126.864 131.621 125.694 130.127C124.554 128.581 123.939 126.447 123.846 123.727L130.959 119.621C130.959 121.078 131.221 122.225 131.744 123.061C132.268 123.896 132.976 124.394 133.869 124.554C134.793 124.661 135.824 124.385 136.964 123.727C138.072 123.087 139.057 122.252 139.92 121.221C140.782 120.19 141.459 119.07 141.952 117.861C142.445 116.616 142.691 115.407 142.691 114.234C142.691 113.061 142.429 112.145 141.906 111.487C141.413 110.812 140.72 110.465 139.827 110.447C138.965 110.376 137.995 110.652 136.917 111.274C136.456 111.541 135.963 111.896 135.439 112.341C134.916 112.75 134.485 113.141 134.146 113.514L132.483 109.407L139.227 97.6206L139.227 97.0873L125.925 104.767L125.925 98.0473L148.695 84.9006L148.695 90.074L140.89 103.807C142.614 103.132 144.154 102.972 145.508 103.327C146.894 103.63 147.972 104.43 148.742 105.727C149.542 106.972 149.942 108.607 149.942 110.634C149.942 113.016 149.388 115.487 148.28 118.047C147.202 120.554 145.678 122.927 143.707 125.167C141.736 127.372 139.519 129.185 137.056 130.607Z" fill="black"/>
</svg>
