<svg width="256" height="256" viewBox="0 0 256 256" fill="none" xmlns="http://www.w3.org/2000/svg">
<path d="M154.461 100.267C154.461 122.064 139.159 148.568 120.282 159.467C101.405 170.365 86.1028 161.53 86.1028 139.733C86.1028 117.937 101.405 91.4318 120.282 80.5334C139.159 69.6349 154.461 78.4698 154.461 100.267Z" fill="white" stroke="#1019EF" stroke-width="6.4"/>
<mask id="path-2-inside-1_787_472" fill="white">
<path d="M120.132 132.533L164.934 106.667L164.934 137.067L120.132 162.933L120.132 132.533Z"/>
</mask>
<path d="M120.132 132.533L164.934 106.667L164.934 137.067L120.132 162.933L120.132 132.533Z" fill="white"/>
<path d="M164.934 106.667L170.477 103.467L170.477 97.0666L164.934 100.267L164.934 106.667ZM164.934 137.067L164.934 143.467L170.477 140.267L170.477 133.867L164.934 137.067ZM120.132 138.933L164.934 113.067L164.934 100.267L120.132 126.133L120.132 138.933ZM159.391 109.867L159.391 140.267L170.477 133.867L170.477 103.467L159.391 109.867ZM164.934 130.667L120.132 156.533L120.132 169.333L164.934 143.467L164.934 130.667Z" fill="#1019EF" mask="url(#path-2-inside-1_787_472)"/>
<path d="M104.665 138.665L150.729 110.933L148.132 125.067L104.665 151.209L104.665 138.665Z" fill="white"/>
<path d="M106.192 147.413L106.192 119.627L105.684 119.92L98.2015 130.64L98.2015 121.893L107.254 108.827L113.674 105.12L113.674 143.093L106.192 147.413ZM131.808 133.638C129.221 135.131 126.912 135.913 124.879 135.984C122.878 136.002 121.307 135.344 120.168 134.011C119.06 132.66 118.505 130.722 118.505 128.198C118.505 126.669 118.798 124.882 119.383 122.838C119.968 120.793 120.815 118.58 121.923 116.198L131.808 94.6509L140.306 89.7442L131.623 108.411C132.146 107.931 132.654 107.513 133.147 107.158C133.67 106.749 134.163 106.411 134.625 106.144C136.719 104.935 138.566 104.402 140.168 104.544C141.8 104.633 143.077 105.335 144.001 106.651C144.925 107.966 145.387 109.815 145.387 112.198C145.387 114.864 144.802 117.566 143.632 120.304C142.492 123.024 140.891 125.549 138.828 127.878C136.796 130.189 134.456 132.109 131.808 133.638ZM132.038 126.358C133.147 125.718 134.132 124.882 134.995 123.851C135.857 122.784 136.519 121.638 136.981 120.411C137.473 119.131 137.72 117.851 137.72 116.571C137.72 115.326 137.473 114.384 136.981 113.744C136.519 113.051 135.857 112.686 134.995 112.651C134.132 112.615 133.147 112.918 132.038 113.558C130.93 114.198 129.914 115.051 128.99 116.118C128.097 117.131 127.404 118.26 126.912 119.504C126.419 120.749 126.173 121.993 126.173 123.238C126.173 124.518 126.419 125.513 126.912 126.224C127.404 126.935 128.097 127.3 128.99 127.318C129.914 127.318 130.93 126.998 132.038 126.358Z" fill="black"/>
</svg>
