<svg width="256" height="256" viewBox="0 0 256 256" fill="none" xmlns="http://www.w3.org/2000/svg">
<path d="M154.461 100.267C154.461 122.064 139.159 148.568 120.282 159.467C101.405 170.365 86.1028 161.53 86.1028 139.733C86.1028 117.937 101.405 91.4318 120.282 80.5334C139.159 69.635 154.461 78.4699 154.461 100.267Z" fill="white" stroke="#1019EF" stroke-width="6.4"/>
<mask id="path-2-inside-1_787_1216" fill="white">
<path d="M120.132 132.533L164.934 106.667L164.934 137.067L120.132 162.933L120.132 132.533Z"/>
</mask>
<path d="M120.132 132.533L164.934 106.667L164.934 137.067L120.132 162.933L120.132 132.533Z" fill="white"/>
<path d="M164.934 106.667L170.477 103.467L170.477 97.0668L164.934 100.267L164.934 106.667ZM164.934 137.067L164.934 143.467L170.477 140.267L170.477 133.867L164.934 137.067ZM120.132 138.933L164.934 113.067L164.934 100.267L120.132 126.133L120.132 138.933ZM159.391 109.867L159.391 140.267L170.477 133.867L170.477 103.467L159.391 109.867ZM164.934 130.667L120.132 156.533L120.132 169.333L164.934 143.467L164.934 130.667Z" fill="#1019EF" mask="url(#path-2-inside-1_787_1216)"/>
<path d="M104.665 138.666L150.729 110.933L148.132 125.067L104.665 151.209L104.665 138.666Z" fill="white"/>
<path d="M102.986 143.781L102.986 125.025L102.643 125.223L97.5926 132.459L97.5926 126.555L103.703 117.735L108.037 115.233L108.037 140.865L102.986 143.781ZM116.504 135.977L116.504 117.221L116.161 117.419L111.111 124.655L111.111 118.751L117.221 109.931L121.555 107.429L121.555 133.061L116.504 135.977ZM133.795 126.678C132.049 127.686 130.49 128.214 129.118 128.262C127.767 128.274 126.707 127.83 125.938 126.93C125.19 126.018 124.816 124.71 124.816 123.006C124.816 121.974 125.013 120.768 125.408 119.388C125.803 118.008 126.375 116.514 127.123 114.906L133.795 100.362L139.531 97.05L133.67 109.65C134.023 109.326 134.366 109.044 134.699 108.804C135.052 108.528 135.385 108.3 135.697 108.12C137.11 107.304 138.357 106.944 139.438 107.04C140.539 107.1 141.402 107.574 142.026 108.462C142.649 109.35 142.961 110.598 142.961 112.206C142.961 114.006 142.566 115.83 141.776 117.678C141.007 119.514 139.926 121.218 138.534 122.79C137.162 124.35 135.582 125.646 133.795 126.678ZM133.951 121.764C134.699 121.332 135.364 120.768 135.946 120.072C136.528 119.352 136.975 118.578 137.287 117.75C137.619 116.886 137.785 116.022 137.785 115.158C137.785 114.318 137.619 113.682 137.287 113.25C136.975 112.782 136.528 112.536 135.946 112.512C135.364 112.488 134.699 112.692 133.951 113.124C133.202 113.556 132.517 114.132 131.893 114.852C131.29 115.536 130.823 116.298 130.49 117.138C130.158 117.978 129.991 118.818 129.991 119.658C129.991 120.522 130.158 121.194 130.49 121.674C130.823 122.154 131.29 122.4 131.893 122.412C132.517 122.412 133.202 122.196 133.951 121.764Z" fill="black"/>
</svg>
