<svg width="256" height="256" viewBox="0 0 256 256" fill="none" xmlns="http://www.w3.org/2000/svg">
<path d="M154.461 100.267C154.461 122.063 139.159 148.568 120.282 159.467C101.405 170.365 86.1028 161.53 86.1028 139.733C86.1028 117.936 101.405 91.4317 120.282 80.5333C139.159 69.6349 154.461 78.4698 154.461 100.267Z" fill="white" stroke="#1019EF" stroke-width="6.4"/>
<mask id="path-2-inside-1_787_679" fill="white">
<path d="M120.132 132.533L164.934 106.667L164.934 137.067L120.132 162.933L120.132 132.533Z"/>
</mask>
<path d="M120.132 132.533L164.934 106.667L164.934 137.067L120.132 162.933L120.132 132.533Z" fill="white"/>
<path d="M164.934 106.667L170.477 103.467L170.477 97.0665L164.934 100.267L164.934 106.667ZM164.934 137.067L164.934 143.467L170.477 140.267L170.477 133.867L164.934 137.067ZM120.132 138.933L164.934 113.067L164.934 100.267L120.132 126.133L120.132 138.933ZM159.391 109.867L159.391 140.267L170.477 133.867L170.477 103.467L159.391 109.867ZM164.934 130.667L120.132 156.533L120.132 169.333L164.934 143.467L164.934 130.667Z" fill="#1019EF" mask="url(#path-2-inside-1_787_679)"/>
<path d="M104.665 138.665L150.729 110.933L148.132 125.067L104.665 151.209L104.665 138.665Z" fill="white"/>
<path d="M107.056 147.928C104.624 149.332 102.407 149.99 100.405 149.901C98.4347 149.759 96.8643 148.941 95.6942 147.448C94.5549 145.901 93.939 143.768 93.8467 141.048L100.96 136.941C100.96 138.399 101.221 139.545 101.745 140.381C102.268 141.217 102.976 141.714 103.869 141.874C104.793 141.981 105.825 141.705 106.964 141.048C108.073 140.408 109.058 139.572 109.92 138.541C110.782 137.51 111.46 136.39 111.952 135.181C112.445 133.937 112.691 132.728 112.691 131.554C112.691 130.381 112.43 129.465 111.906 128.808C111.413 128.132 110.721 127.785 109.828 127.768C108.966 127.697 107.996 127.972 106.918 128.594C106.456 128.861 105.963 129.217 105.44 129.661C104.916 130.07 104.485 130.461 104.147 130.834L102.484 126.728L109.227 114.941L109.227 114.408L95.9251 122.088L95.9251 115.368L118.696 102.221L118.696 107.394L110.89 121.128C112.614 120.452 114.154 120.292 115.509 120.648C116.894 120.95 117.972 121.75 118.742 123.048C119.543 124.292 119.943 125.928 119.943 127.954C119.943 130.337 119.389 132.808 118.28 135.368C117.202 137.874 115.678 140.248 113.708 142.488C111.737 144.692 109.52 146.505 107.056 147.928ZM136.346 91.0172C138.933 89.5239 141.227 88.7683 143.228 88.7505C145.26 88.6794 146.831 89.3194 147.939 90.6705C149.079 92.0039 149.648 93.915 149.648 96.4039C149.648 97.9328 149.356 99.7194 148.771 101.764C148.186 103.808 147.354 106.013 146.277 108.377L136.346 129.951L127.848 134.857L136.531 116.191C136.007 116.671 135.484 117.115 134.96 117.524C134.468 117.879 133.991 118.191 133.529 118.457C131.435 119.666 129.572 120.226 127.94 120.137C126.339 120.031 125.076 119.319 124.152 118.004C123.229 116.653 122.767 114.804 122.767 112.457C122.767 109.791 123.336 107.097 124.476 104.377C125.646 101.639 127.247 99.115 129.279 96.8039C131.342 94.475 133.698 92.5461 136.346 91.0172ZM136.115 98.2972C135.037 98.9194 134.068 99.7461 133.205 100.777C132.343 101.808 131.666 102.964 131.173 104.244C130.68 105.488 130.434 106.751 130.434 108.031C130.434 109.275 130.68 110.235 131.173 110.911C131.666 111.551 132.343 111.906 133.205 111.977C134.068 112.013 135.037 111.719 136.115 111.097C137.224 110.457 138.224 109.613 139.117 108.564C140.041 107.497 140.749 106.342 141.242 105.097C141.735 103.853 141.981 102.608 141.981 101.364C141.981 100.084 141.735 99.0883 141.242 98.3772C140.749 97.6661 140.041 97.3283 139.117 97.3639C138.224 97.3461 137.224 97.6572 136.115 98.2972Z" fill="black"/>
</svg>
