<svg width="256" height="256" viewBox="0 0 256 256" fill="none" xmlns="http://www.w3.org/2000/svg">
<path d="M154.461 100.267C154.461 122.064 139.159 148.568 120.282 159.467C101.405 170.365 86.1028 161.53 86.1028 139.733C86.1028 117.937 101.405 91.4318 120.282 80.5334C139.159 69.635 154.461 78.4699 154.461 100.267Z" fill="white" stroke="#1019EF" stroke-width="6.4"/>
<mask id="path-2-inside-1_787_1234" fill="white">
<path d="M120.132 132.533L164.934 106.667L164.934 137.067L120.132 162.933L120.132 132.533Z"/>
</mask>
<path d="M120.132 132.533L164.934 106.667L164.934 137.067L120.132 162.933L120.132 132.533Z" fill="white"/>
<path d="M164.934 106.667L170.477 103.467L170.477 97.0668L164.934 100.267L164.934 106.667ZM164.934 137.067L164.934 143.467L170.477 140.267L170.477 133.867L164.934 137.067ZM120.132 138.933L164.934 113.067L164.934 100.267L120.132 126.133L120.132 138.933ZM159.391 109.867L159.391 140.267L170.477 133.867L170.477 103.467L159.391 109.867ZM164.934 130.667L120.132 156.533L120.132 169.333L164.934 143.467L164.934 130.667Z" fill="#1019EF" mask="url(#path-2-inside-1_787_1234)"/>
<path d="M104.665 138.666L150.729 110.933L148.132 125.067L104.665 151.209L104.665 138.666Z" fill="white"/>
<path d="M100.231 145.372L100.231 126.616L99.888 126.814L94.8374 134.05L94.8374 128.146L100.948 119.326L105.282 116.824L105.282 142.456L100.231 145.372ZM117.21 136.254C115.568 137.202 114.071 137.646 112.72 137.586C111.39 137.49 110.33 136.938 109.54 135.93C108.771 134.886 108.355 133.446 108.293 131.61L113.094 128.838C113.094 129.822 113.271 130.596 113.624 131.16C113.978 131.724 114.456 132.06 115.059 132.168C115.682 132.24 116.378 132.054 117.147 131.61C117.896 131.178 118.561 130.614 119.143 129.918C119.725 129.222 120.182 128.466 120.514 127.65C120.847 126.81 121.013 125.994 121.013 125.202C121.013 124.41 120.837 123.792 120.483 123.348C120.151 122.892 119.683 122.658 119.08 122.646C118.498 122.598 117.844 122.784 117.116 123.204C116.804 123.384 116.472 123.624 116.119 123.924C115.765 124.2 115.474 124.464 115.246 124.716L114.123 121.944L118.675 113.988L118.675 113.628L109.696 118.812L109.696 114.276L125.066 105.402L125.066 108.894L119.797 118.164C120.961 117.708 122.001 117.6 122.915 117.84C123.85 118.044 124.578 118.584 125.097 119.46C125.638 120.3 125.908 121.404 125.908 122.772C125.908 124.38 125.534 126.048 124.786 127.776C124.058 129.468 123.029 131.07 121.699 132.582C120.369 134.07 118.873 135.294 117.21 136.254ZM137.978 123.579L137.978 118.287L127.347 124.425L127.347 121.149L135.796 99.207L143.153 94.959L143.153 110.799L145.741 109.305L145.741 113.805L143.153 115.299L143.153 120.591L137.978 123.579ZM132.366 117.027L137.947 113.805L137.947 102.933L137.635 103.113L132.366 117.027Z" fill="black"/>
</svg>
