<svg width="256" height="256" viewBox="0 0 256 256" fill="none" xmlns="http://www.w3.org/2000/svg">
<path d="M154.461 100.267C154.461 122.064 139.159 148.568 120.282 159.467C101.405 170.365 86.1028 161.53 86.1028 139.733C86.1028 117.936 101.405 91.4317 120.282 80.5333C139.159 69.6349 154.461 78.4698 154.461 100.267Z" fill="white" stroke="#1019EF" stroke-width="6.4"/>
<mask id="path-2-inside-1_1442_2648" fill="white">
<path d="M120.132 132.533L164.934 106.667L164.934 137.067L120.132 162.933L120.132 132.533Z"/>
</mask>
<path d="M120.132 132.533L164.934 106.667L164.934 137.067L120.132 162.933L120.132 132.533Z" fill="white"/>
<path d="M164.934 106.667L170.477 103.467L170.477 97.0666L164.934 100.267L164.934 106.667ZM164.934 137.067L164.934 143.467L170.477 140.267L170.477 133.867L164.934 137.067ZM120.132 138.933L164.934 113.067L164.934 100.267L120.132 126.133L120.132 138.933ZM159.392 109.867L159.392 140.267L170.477 133.867L170.477 103.467L159.392 109.867ZM164.934 130.667L120.132 156.533L120.132 169.333L164.934 143.467L164.934 130.667Z" fill="#1019EF" mask="url(#path-2-inside-1_1442_2648)"/>
<path d="M104.665 138.665L150.729 110.933L148.132 125.067L104.665 151.209L104.665 138.665Z" fill="white"/>
<path d="M121.934 139.338C119.009 141.027 116.407 141.693 114.128 141.338C111.881 140.929 110.125 139.578 108.863 137.285C107.6 134.956 106.969 131.853 106.969 127.978C106.969 124.102 107.6 120.289 108.863 116.538C110.125 112.751 111.881 109.374 114.128 106.405C116.407 103.382 119.009 101.027 121.934 99.3379C124.829 97.6668 127.415 97.0268 129.694 97.4179C131.972 97.7735 133.743 99.1157 135.005 101.445C136.268 103.738 136.899 106.822 136.899 110.698C136.899 114.573 136.268 118.405 135.005 122.191C133.743 125.942 131.972 129.329 129.694 132.351C127.415 135.338 124.829 137.667 121.934 139.338ZM121.934 131.711C123.381 130.876 124.644 129.631 125.722 127.978C126.83 126.307 127.692 124.351 128.308 122.111C128.924 119.871 129.232 117.542 129.232 115.125C129.232 112.707 128.924 110.733 128.308 109.205C127.692 107.676 126.83 106.716 125.722 106.325C124.644 105.916 123.381 106.129 121.934 106.965C120.487 107.8 119.209 109.053 118.101 110.725C116.992 112.396 116.13 114.351 115.514 116.591C114.929 118.813 114.636 121.133 114.636 123.551C114.636 125.969 114.929 127.951 115.514 129.498C116.13 131.027 116.992 131.987 118.101 132.378C119.209 132.769 120.487 132.547 121.934 131.711Z" fill="black"/>
</svg>
