<svg width="256" height="256" viewBox="0 0 256 256" fill="none" xmlns="http://www.w3.org/2000/svg">
<path d="M154.461 100.267C154.461 122.063 139.159 148.568 120.282 159.467C101.405 170.365 86.1028 161.53 86.1028 139.733C86.1028 117.936 101.405 91.4317 120.282 80.5333C139.159 69.6349 154.461 78.4698 154.461 100.267Z" fill="white" stroke="#1019EF" stroke-width="6.4"/>
<mask id="path-2-inside-1_787_715" fill="white">
<path d="M120.132 132.533L164.934 106.667L164.934 137.067L120.132 162.933L120.132 132.533Z"/>
</mask>
<path d="M120.132 132.533L164.934 106.667L164.934 137.067L120.132 162.933L120.132 132.533Z" fill="white"/>
<path d="M164.934 106.667L170.477 103.467L170.477 97.0665L164.934 100.267L164.934 106.667ZM164.934 137.067L164.934 143.467L170.477 140.267L170.477 133.867L164.934 137.067ZM120.132 138.933L164.934 113.067L164.934 100.267L120.132 126.133L120.132 138.933ZM159.392 109.867L159.392 140.267L170.477 133.867L170.477 103.467L159.392 109.867ZM164.934 130.667L120.132 156.533L120.132 169.333L164.934 143.467L164.934 130.667Z" fill="#1019EF" mask="url(#path-2-inside-1_787_715)"/>
<path d="M104.665 138.665L150.729 110.933L148.132 125.067L104.665 151.209L104.665 138.665Z" fill="white"/>
<path d="M109.407 145.557L109.407 137.717L93.6573 146.81L93.6573 141.957L106.174 109.45L117.075 103.157L117.075 126.623L120.908 124.41L120.908 131.077L117.075 133.29L117.075 141.13L109.407 145.557ZM101.094 135.85L109.361 131.077L109.361 114.97L108.899 115.237L101.094 135.85ZM136.826 130.74C134.393 132.145 132.176 132.802 130.175 132.713C128.204 132.571 126.634 131.753 125.464 130.26C124.324 128.713 123.708 126.58 123.616 123.86L130.729 119.753C130.729 121.211 130.991 122.358 131.514 123.193C132.038 124.029 132.746 124.527 133.639 124.687C134.563 124.793 135.594 124.518 136.733 123.86C137.842 123.22 138.827 122.385 139.689 121.353C140.552 120.322 141.229 119.202 141.722 117.993C142.214 116.749 142.461 115.54 142.461 114.367C142.461 113.193 142.199 112.278 141.676 111.62C141.183 110.945 140.49 110.598 139.597 110.58C138.735 110.509 137.765 110.785 136.687 111.407C136.225 111.673 135.733 112.029 135.209 112.473C134.686 112.882 134.255 113.273 133.916 113.647L132.253 109.54L138.997 97.7535L138.997 97.2201L125.694 104.9L125.694 98.1801L148.465 85.0335L148.465 90.2068L140.659 103.94C142.384 103.265 143.923 103.105 145.278 103.46C146.664 103.762 147.742 104.562 148.511 105.86C149.312 107.105 149.712 108.74 149.712 110.767C149.712 113.149 149.158 115.62 148.049 118.18C146.972 120.687 145.448 123.06 143.477 125.3C141.506 127.505 139.289 129.318 136.826 130.74Z" fill="black"/>
</svg>
