<svg width="256" height="256" viewBox="0 0 256 256" fill="none" xmlns="http://www.w3.org/2000/svg">
<path d="M154.461 100.267C154.461 122.063 139.159 148.568 120.282 159.467C101.405 170.365 86.1028 161.53 86.1028 139.733C86.1028 117.936 101.405 91.4316 120.282 80.5332C139.159 69.6348 154.461 78.4697 154.461 100.267Z" fill="white" stroke="#1019EF" stroke-width="6.4"/>
<mask id="path-2-inside-1_787_2069" fill="white">
<path d="M120.132 132.533L164.934 106.667L164.934 137.067L120.132 162.933L120.132 132.533Z"/>
</mask>
<path d="M120.132 132.533L164.934 106.667L164.934 137.067L120.132 162.933L120.132 132.533Z" fill="white"/>
<path d="M164.934 106.667L170.477 103.467L170.477 97.0665L164.934 100.267L164.934 106.667ZM164.934 137.067L164.934 143.467L170.477 140.267L170.477 133.867L164.934 137.067ZM120.132 138.933L164.934 113.067L164.934 100.267L120.132 126.133L120.132 138.933ZM159.391 109.867L159.391 140.267L170.477 133.867L170.477 103.467L159.391 109.867ZM164.934 130.667L120.132 156.533L120.132 169.333L164.934 143.467L164.934 130.667Z" fill="#1019EF" mask="url(#path-2-inside-1_787_2069)"/>
<path d="M104.665 138.665L150.729 110.933L148.132 125.066L104.665 151.208L104.665 138.665Z" fill="white"/>
<path d="M90.3514 151.076L90.3514 147.764L99.6109 132.95C99.6732 132.842 99.7356 132.734 99.798 132.626C99.8811 132.506 99.9538 132.392 100.016 132.284C100.889 130.868 101.513 129.74 101.887 128.9C102.282 128.048 102.479 127.226 102.479 126.434C102.479 125.714 102.323 125.156 102.012 124.76C101.7 124.34 101.284 124.112 100.764 124.076C100.245 124.04 99.6629 124.208 99.0185 124.58C98.2703 125.012 97.5948 125.618 96.992 126.398C96.4101 127.166 95.9424 128.048 95.5891 129.044C95.2565 130.004 95.0695 131.012 95.0279 132.068L90.4137 134.732C90.4137 134.636 90.4137 134.54 90.4137 134.444C90.4137 132.668 90.767 130.832 91.4737 128.936C92.1804 127.04 93.1988 125.276 94.5291 123.644C95.8593 122.012 97.3765 120.704 99.0809 119.72C100.64 118.82 102.043 118.37 103.29 118.37C104.537 118.346 105.514 118.754 106.22 119.594C106.927 120.41 107.28 121.598 107.28 123.158C107.28 124.598 106.917 126.152 106.189 127.82C105.462 129.488 104.36 131.48 102.884 133.796L97.7403 141.914L97.7403 142.274L106.782 137.054L106.782 141.59L90.3514 151.076ZM119.725 134.801C117.751 135.941 115.994 136.391 114.456 136.151C112.939 135.875 111.754 134.963 110.902 133.415C110.05 131.843 109.624 129.749 109.624 127.133C109.624 124.517 110.05 121.943 110.902 119.411C111.754 116.855 112.939 114.575 114.456 112.571C115.994 110.531 117.751 108.941 119.725 107.801C121.679 106.673 123.425 106.241 124.963 106.505C126.501 106.745 127.696 107.651 128.548 109.223C129.4 110.771 129.826 112.853 129.826 115.469C129.826 118.085 129.4 120.671 128.548 123.227C127.696 125.759 126.501 128.045 124.963 130.085C123.425 132.101 121.679 133.673 119.725 134.801ZM119.725 129.653C120.702 129.089 121.554 128.249 122.282 127.133C123.03 126.005 123.612 124.685 124.028 123.173C124.443 121.661 124.651 120.089 124.651 118.457C124.651 116.825 124.443 115.493 124.028 114.461C123.612 113.429 123.03 112.781 122.282 112.517C121.554 112.241 120.702 112.385 119.725 112.949C118.748 113.513 117.886 114.359 117.137 115.487C116.389 116.615 115.807 117.935 115.392 119.447C114.997 120.947 114.799 122.513 114.799 124.145C114.799 125.777 114.997 127.115 115.392 128.159C115.807 129.191 116.389 129.839 117.137 130.103C117.886 130.367 118.748 130.217 119.725 129.653ZM141.092 122.465C139.45 123.413 137.964 123.863 136.634 123.815C135.304 123.743 134.244 123.203 133.454 122.195C132.664 121.187 132.238 119.789 132.176 118.001L136.977 115.229C136.977 116.141 137.154 116.867 137.507 117.407C137.881 117.935 138.369 118.253 138.972 118.361C139.596 118.433 140.282 118.253 141.03 117.821C141.778 117.389 142.443 116.825 143.025 116.129C143.628 115.421 144.096 114.647 144.428 113.807C144.761 112.967 144.927 112.163 144.927 111.395C144.927 110.555 144.75 109.913 144.397 109.469C144.044 109.025 143.534 108.815 142.869 108.839C142.204 108.863 141.425 109.133 140.531 109.649L133.922 113.465L134.95 99.6949L148.076 92.1169L148.076 96.6529L138.723 102.053L138.318 106.895L141.872 104.843C143.431 103.943 144.802 103.511 145.987 103.547C147.193 103.571 148.128 104.039 148.793 104.951C149.458 105.839 149.791 107.099 149.791 108.731C149.791 110.387 149.416 112.091 148.668 113.843C147.92 115.595 146.881 117.239 145.551 118.775C144.241 120.275 142.755 121.505 141.092 122.465Z" fill="black"/>
</svg>
