<svg width="256" height="256" viewBox="0 0 256 256" fill="none" xmlns="http://www.w3.org/2000/svg">
<path d="M154.461 100.267C154.461 122.063 139.159 148.568 120.282 159.467C101.405 170.365 86.1028 161.53 86.1028 139.733C86.1028 117.936 101.405 91.4316 120.282 80.5332C139.159 69.6348 154.461 78.4697 154.461 100.267Z" fill="white" stroke="#1019EF" stroke-width="6.4"/>
<mask id="path-2-inside-1_787_2478" fill="white">
<path d="M120.132 132.533L164.934 106.667L164.934 137.067L120.132 162.933L120.132 132.533Z"/>
</mask>
<path d="M120.132 132.533L164.934 106.667L164.934 137.067L120.132 162.933L120.132 132.533Z" fill="white"/>
<path d="M164.934 106.667L170.477 103.467L170.477 97.0665L164.934 100.267L164.934 106.667ZM164.934 137.067L164.934 143.467L170.477 140.267L170.477 133.867L164.934 137.067ZM120.132 138.933L164.934 113.067L164.934 100.267L120.132 126.133L120.132 138.933ZM159.391 109.867L159.391 140.267L170.477 133.867L170.477 103.467L159.391 109.867ZM164.934 130.667L120.132 156.533L120.132 169.333L164.934 143.467L164.934 130.667Z" fill="#1019EF" mask="url(#path-2-inside-1_787_2478)"/>
<path d="M104.665 138.665L150.729 110.933L148.132 125.066L104.665 151.208L104.665 138.665Z" fill="white"/>
<path d="M92.1089 150.062L92.1089 146.75L101.368 131.936C101.431 131.828 101.493 131.72 101.556 131.612C101.639 131.492 101.711 131.378 101.774 131.27C102.647 129.854 103.27 128.726 103.644 127.886C104.039 127.034 104.237 126.212 104.237 125.42C104.237 124.7 104.081 124.142 103.769 123.746C103.457 123.326 103.042 123.098 102.522 123.062C102.002 123.026 101.42 123.194 100.776 123.566C100.028 123.998 99.3523 124.604 98.7496 125.384C98.1676 126.152 97.7 127.034 97.3466 128.03C97.0141 128.99 96.827 129.998 96.7854 131.054L92.1713 133.718C92.1713 133.622 92.1713 133.526 92.1713 133.43C92.1713 131.654 92.5246 129.818 93.2313 127.922C93.9379 126.026 94.9564 124.262 96.2866 122.63C97.6168 120.998 99.1341 119.69 100.838 118.706C102.397 117.806 103.8 117.356 105.047 117.356C106.294 117.332 107.271 117.74 107.978 118.58C108.685 119.396 109.038 120.584 109.038 122.144C109.038 123.584 108.674 125.138 107.947 126.806C107.219 128.474 106.118 130.466 104.642 132.782L99.4978 140.9L99.4978 141.26L108.539 136.04L108.539 140.576L92.1089 150.062ZM119.737 134.795C118.095 135.743 116.598 136.187 115.247 136.127C113.917 136.031 112.857 135.479 112.067 134.471C111.298 133.427 110.883 131.987 110.82 130.151L115.621 127.379C115.621 128.363 115.798 129.137 116.151 129.701C116.505 130.265 116.983 130.601 117.586 130.709C118.209 130.781 118.905 130.595 119.674 130.151C120.423 129.719 121.088 129.155 121.67 128.459C122.252 127.763 122.709 127.007 123.042 126.191C123.374 125.351 123.54 124.535 123.54 123.743C123.54 122.951 123.364 122.333 123.01 121.889C122.678 121.433 122.21 121.199 121.607 121.187C121.025 121.139 120.371 121.325 119.643 121.745C119.331 121.925 118.999 122.165 118.646 122.465C118.292 122.741 118.001 123.005 117.773 123.257L116.65 120.485L121.202 112.529L121.202 112.169L112.223 117.353L112.223 112.817L127.593 103.943L127.593 107.435L122.324 116.705C123.488 116.249 124.528 116.141 125.442 116.381C126.377 116.585 127.105 117.125 127.625 118.001C128.165 118.841 128.435 119.945 128.435 121.313C128.435 122.921 128.061 124.589 127.313 126.317C126.585 128.009 125.556 129.611 124.226 131.123C122.896 132.611 121.4 133.835 119.737 134.795ZM139.663 123.254C137.834 124.31 136.234 124.922 134.862 125.09C133.511 125.222 132.451 124.934 131.682 124.226C130.934 123.506 130.56 122.402 130.56 120.914C130.56 119.306 130.965 117.704 131.775 116.108C132.586 114.512 133.625 113.168 134.893 112.076L134.893 111.716C133.895 111.836 133.074 111.602 132.43 111.014C131.807 110.39 131.495 109.418 131.495 108.098C131.495 106.682 131.827 105.242 132.492 103.778C133.178 102.302 134.134 100.922 135.361 99.638C136.608 98.342 138.042 97.226 139.663 96.29C141.243 95.378 142.646 94.868 143.872 94.76C145.098 94.652 146.054 94.94 146.74 95.624C147.447 96.272 147.8 97.292 147.8 98.684C147.8 100.004 147.478 101.342 146.834 102.698C146.21 104.018 145.389 105.2 144.371 106.244L144.371 106.604C145.66 106.22 146.709 106.358 147.52 107.018C148.33 107.678 148.736 108.812 148.736 110.42C148.736 111.908 148.351 113.45 147.582 115.046C146.834 116.63 145.774 118.142 144.402 119.582C143.03 120.998 141.451 122.222 139.663 123.254ZM139.663 107.378C140.287 107.018 140.848 106.562 141.347 106.01C141.866 105.422 142.272 104.804 142.563 104.156C142.854 103.484 142.999 102.836 142.999 102.212C142.999 101.612 142.854 101.156 142.563 100.844C142.272 100.508 141.866 100.358 141.347 100.394C140.848 100.394 140.287 100.574 139.663 100.934C138.998 101.318 138.406 101.804 137.886 102.392C137.387 102.944 136.992 103.556 136.701 104.228C136.431 104.864 136.296 105.482 136.296 106.082C136.296 106.706 136.431 107.192 136.701 107.54C136.992 107.852 137.398 108.002 137.917 107.99C138.437 107.954 139.019 107.75 139.663 107.378ZM139.663 118.574C140.349 118.178 140.983 117.668 141.565 117.044C142.147 116.396 142.594 115.706 142.906 114.974C143.217 114.218 143.373 113.492 143.373 112.796C143.373 112.076 143.207 111.536 142.874 111.176C142.563 110.804 142.116 110.63 141.534 110.654C140.973 110.666 140.349 110.87 139.663 111.266C138.936 111.686 138.291 112.214 137.73 112.85C137.169 113.486 136.722 114.176 136.39 114.92C136.078 115.652 135.922 116.378 135.922 117.098C135.922 117.794 136.078 118.34 136.39 118.736C136.722 119.096 137.169 119.27 137.73 119.258C138.291 119.222 138.936 118.994 139.663 118.574Z" fill="black"/>
</svg>
