<svg width="256" height="256" viewBox="0 0 256 256" fill="none" xmlns="http://www.w3.org/2000/svg">
<path d="M154.461 100.267C154.461 122.063 139.159 148.568 120.282 159.467C101.405 170.365 86.1028 161.53 86.1028 139.733C86.1028 117.936 101.405 91.4317 120.282 80.5333C139.159 69.6349 154.461 78.4698 154.461 100.267Z" fill="white" stroke="#1019EF" stroke-width="6.4"/>
<mask id="path-2-inside-1_787_785" fill="white">
<path d="M120.132 132.533L164.934 106.667L164.934 137.067L120.132 162.933L120.132 132.533Z"/>
</mask>
<path d="M120.132 132.533L164.934 106.667L164.934 137.067L120.132 162.933L120.132 132.533Z" fill="white"/>
<path d="M164.934 106.667L170.477 103.467L170.477 97.0665L164.934 100.267L164.934 106.667ZM164.934 137.067L164.934 143.467L170.477 140.267L170.477 133.867L164.934 137.067ZM120.132 138.933L164.934 113.067L164.934 100.267L120.132 126.133L120.132 138.933ZM159.391 109.867L159.391 140.267L170.477 133.867L170.477 103.467L159.391 109.867ZM164.934 130.667L120.132 156.533L120.132 169.333L164.934 143.467L164.934 130.667Z" fill="#1019EF" mask="url(#path-2-inside-1_787_785)"/>
<path d="M104.665 138.665L150.729 110.933L148.132 125.067L104.665 151.209L104.665 138.665Z" fill="white"/>
<path d="M109.322 146.619C106.736 148.113 104.426 148.895 102.394 148.966C100.393 148.984 98.8223 148.326 97.683 146.993C96.5745 145.642 96.0203 143.704 96.0203 141.179C96.0203 139.65 96.3128 137.864 96.8978 135.819C97.4829 133.775 98.3297 131.562 99.4382 129.179L109.322 107.633L117.821 102.726L109.138 121.393C109.661 120.913 110.169 120.495 110.662 120.139C111.185 119.73 111.678 119.393 112.14 119.126C114.234 117.917 116.081 117.384 117.682 117.526C119.314 117.615 120.592 118.317 121.516 119.633C122.44 120.948 122.902 122.797 122.902 125.179C122.902 127.846 122.317 130.548 121.147 133.286C120.007 136.006 118.406 138.53 116.343 140.859C114.311 143.17 111.971 145.09 109.322 146.619ZM109.553 139.339C110.662 138.699 111.647 137.864 112.509 136.833C113.372 135.766 114.034 134.619 114.495 133.393C114.988 132.113 115.234 130.833 115.234 129.553C115.234 128.308 114.988 127.366 114.495 126.726C114.034 126.033 113.372 125.668 112.509 125.633C111.647 125.597 110.662 125.899 109.553 126.539C108.445 127.179 107.429 128.033 106.505 129.099C105.612 130.113 104.919 131.242 104.426 132.486C103.934 133.73 103.687 134.975 103.687 136.219C103.687 137.499 103.934 138.495 104.426 139.206C104.919 139.917 105.612 140.282 106.505 140.299C107.429 140.299 108.445 139.979 109.553 139.339ZM129.11 134.182L140.057 97.0349L125.184 105.622L125.184 98.4749L148.694 84.9016L148.694 90.0749L137.054 129.595L129.11 134.182Z" fill="black"/>
</svg>
