<svg width="256" height="256" viewBox="0 0 256 256" fill="none" xmlns="http://www.w3.org/2000/svg">
<path d="M154.461 100.267C154.461 122.063 139.159 148.568 120.282 159.467C101.405 170.365 86.1028 161.53 86.1028 139.733C86.1028 117.936 101.405 91.4317 120.282 80.5333C139.159 69.6349 154.461 78.4698 154.461 100.267Z" fill="white" stroke="#1019EF" stroke-width="6.4"/>
<mask id="path-2-inside-1_787_787" fill="white">
<path d="M120.132 132.533L164.934 106.667L164.934 137.067L120.132 162.933L120.132 132.533Z"/>
</mask>
<path d="M120.132 132.533L164.934 106.667L164.934 137.067L120.132 162.933L120.132 132.533Z" fill="white"/>
<path d="M164.934 106.667L170.477 103.467L170.477 97.0665L164.934 100.267L164.934 106.667ZM164.934 137.067L164.934 143.467L170.477 140.267L170.477 133.867L164.934 137.067ZM120.132 138.933L164.934 113.067L164.934 100.267L120.132 126.133L120.132 138.933ZM159.391 109.867L159.391 140.267L170.477 133.867L170.477 103.467L159.391 109.867ZM164.934 130.667L120.132 156.533L120.132 169.333L164.934 143.467L164.934 130.667Z" fill="#1019EF" mask="url(#path-2-inside-1_787_787)"/>
<path d="M104.665 138.665L150.729 110.933L148.132 125.067L104.665 151.209L104.665 138.665Z" fill="white"/>
<path d="M106.819 148.065C104.232 149.558 101.923 150.34 99.8908 150.411C97.8893 150.429 96.3189 149.771 95.1796 148.438C94.0711 147.087 93.5168 145.149 93.5168 142.625C93.5168 141.096 93.8094 139.309 94.3944 137.265C94.9795 135.22 95.8262 133.007 96.9348 130.625L106.819 109.078L115.318 104.171L106.634 122.838C107.158 122.358 107.666 121.94 108.158 121.585C108.682 121.176 109.175 120.838 109.636 120.571C111.73 119.362 113.578 118.829 115.179 118.971C116.811 119.06 118.089 119.762 119.013 121.078C119.936 122.393 120.398 124.242 120.398 126.625C120.398 129.291 119.813 131.993 118.643 134.731C117.504 137.451 115.903 139.976 113.84 142.305C111.807 144.616 109.467 146.536 106.819 148.065ZM107.05 140.785C108.158 140.145 109.144 139.309 110.006 138.278C110.868 137.211 111.53 136.065 111.992 134.838C112.485 133.558 112.731 132.278 112.731 130.998C112.731 129.753 112.485 128.811 111.992 128.171C111.53 127.478 110.868 127.113 110.006 127.078C109.144 127.042 108.158 127.345 107.05 127.985C105.941 128.625 104.925 129.478 104.002 130.545C103.109 131.558 102.416 132.687 101.923 133.931C101.43 135.176 101.184 136.42 101.184 137.665C101.184 138.945 101.43 139.94 101.923 140.651C102.416 141.362 103.109 141.727 104.002 141.745C104.925 141.745 105.941 141.425 107.05 140.785ZM137.045 90.6136C139.632 89.1202 141.926 88.3647 143.927 88.3469C145.959 88.2758 147.53 88.9158 148.638 90.2669C149.778 91.6002 150.347 93.5113 150.347 96.0002C150.347 97.5291 150.055 99.3158 149.47 101.36C148.885 103.405 148.053 105.609 146.975 107.974L137.045 129.547L128.546 134.454L137.23 115.787C136.706 116.267 136.183 116.711 135.659 117.12C135.167 117.476 134.689 117.787 134.228 118.054C132.134 119.262 130.271 119.822 128.639 119.734C127.038 119.627 125.775 118.916 124.851 117.6C123.928 116.249 123.466 114.4 123.466 112.054C123.466 109.387 124.035 106.694 125.175 103.974C126.345 101.236 127.946 98.7113 129.978 96.4002C132.041 94.0713 134.397 92.1425 137.045 90.6136ZM136.814 97.8936C135.736 98.5158 134.766 99.3425 133.904 100.374C133.042 101.405 132.365 102.56 131.872 103.84C131.379 105.085 131.133 106.347 131.133 107.627C131.133 108.871 131.379 109.831 131.872 110.507C132.365 111.147 133.042 111.502 133.904 111.574C134.766 111.609 135.736 111.316 136.814 110.694C137.923 110.054 138.923 109.209 139.816 108.16C140.74 107.094 141.448 105.938 141.941 104.694C142.434 103.449 142.68 102.205 142.68 100.96C142.68 99.6802 142.434 98.6847 141.941 97.9736C141.448 97.2625 140.74 96.9247 139.816 96.9602C138.923 96.9425 137.923 97.2536 136.814 97.8936Z" fill="black"/>
</svg>
