<svg width="256" height="256" viewBox="0 0 256 256" fill="none" xmlns="http://www.w3.org/2000/svg">
<path d="M154.461 100.267C154.461 122.063 139.159 148.568 120.282 159.467C101.405 170.365 86.1028 161.53 86.1028 139.733C86.1028 117.936 101.405 91.4316 120.282 80.5332C139.159 69.6348 154.461 78.4697 154.461 100.267Z" fill="white" stroke="#1019EF" stroke-width="6.4"/>
<mask id="path-2-inside-1_787_2098" fill="white">
<path d="M120.132 132.533L164.934 106.667L164.934 137.067L120.132 162.933L120.132 132.533Z"/>
</mask>
<path d="M120.132 132.533L164.934 106.667L164.934 137.067L120.132 162.933L120.132 132.533Z" fill="white"/>
<path d="M164.934 106.667L170.477 103.467L170.477 97.0665L164.934 100.267L164.934 106.667ZM164.934 137.067L164.934 143.467L170.477 140.267L170.477 133.867L164.934 137.067ZM120.132 138.933L164.934 113.067L164.934 100.267L120.132 126.133L120.132 138.933ZM159.391 109.867L159.391 140.267L170.477 133.867L170.477 103.467L159.391 109.867ZM164.934 130.667L120.132 156.533L120.132 169.333L164.934 143.467L164.934 130.667Z" fill="#1019EF" mask="url(#path-2-inside-1_787_2098)"/>
<path d="M104.665 138.665L150.729 110.933L148.132 125.066L104.665 151.208L104.665 138.665Z" fill="white"/>
<path d="M92.026 150.109L92.026 146.797L101.286 131.983C101.348 131.875 101.41 131.767 101.473 131.659C101.556 131.539 101.629 131.425 101.691 131.317C102.564 129.901 103.187 128.773 103.561 127.933C103.956 127.081 104.154 126.259 104.154 125.467C104.154 124.747 103.998 124.189 103.686 123.793C103.374 123.373 102.959 123.145 102.439 123.109C101.919 123.073 101.338 123.241 100.693 123.613C99.945 124.045 99.2695 124.651 98.6667 125.431C98.0847 126.199 97.6171 127.081 97.2637 128.077C96.9312 129.037 96.7441 130.045 96.7026 131.101L92.0884 133.765C92.0884 133.669 92.0884 133.573 92.0884 133.477C92.0884 131.701 92.4417 129.865 93.1484 127.969C93.8551 126.073 94.8735 124.309 96.2037 122.677C97.5339 121.045 99.0512 119.737 100.756 118.753C102.314 117.853 103.717 117.403 104.964 117.403C106.212 117.379 107.188 117.787 107.895 118.627C108.602 119.443 108.955 120.631 108.955 122.191C108.955 123.631 108.591 125.185 107.864 126.853C107.136 128.521 106.035 130.513 104.559 132.829L99.4149 140.947L99.4149 141.307L108.456 136.087L108.456 140.623L92.026 150.109ZM119.654 134.842C118.012 135.79 116.515 136.234 115.164 136.174C113.834 136.078 112.774 135.526 111.984 134.518C111.215 133.474 110.8 132.034 110.737 130.198L115.539 127.426C115.539 128.41 115.715 129.184 116.069 129.748C116.422 130.312 116.9 130.648 117.503 130.756C118.126 130.828 118.822 130.642 119.592 130.198C120.34 129.766 121.005 129.202 121.587 128.506C122.169 127.81 122.626 127.054 122.959 126.238C123.291 125.398 123.457 124.582 123.457 123.79C123.457 122.998 123.281 122.38 122.927 121.936C122.595 121.48 122.127 121.246 121.524 121.234C120.943 121.186 120.288 121.372 119.56 121.792C119.249 121.972 118.916 122.212 118.563 122.512C118.209 122.788 117.918 123.052 117.69 123.304L116.567 120.532L121.119 112.576L121.119 112.216L112.14 117.4L112.14 112.864L127.51 103.99L127.51 107.482L122.242 116.752C123.405 116.296 124.445 116.188 125.359 116.428C126.295 116.632 127.022 117.172 127.542 118.048C128.082 118.888 128.352 119.992 128.352 121.36C128.352 122.968 127.978 124.636 127.23 126.364C126.502 128.056 125.474 129.658 124.143 131.17C122.813 132.658 121.317 133.882 119.654 134.842ZM140.422 122.168L140.422 116.876L129.791 123.014L129.791 119.738L138.24 97.7959L145.597 93.5479L145.597 109.388L148.185 107.894L148.185 112.394L145.597 113.888L145.597 119.18L140.422 122.168ZM134.81 115.616L140.391 112.394L140.391 101.522L140.079 101.702L134.81 115.616Z" fill="black"/>
</svg>
