<svg width="256" height="256" viewBox="0 0 256 256" fill="none" xmlns="http://www.w3.org/2000/svg">
<path d="M154.461 100.267C154.461 122.063 139.159 148.568 120.282 159.467C101.405 170.365 86.1028 161.53 86.1028 139.733C86.1028 117.936 101.405 91.4316 120.282 80.5332C139.159 69.6348 154.461 78.4697 154.461 100.267Z" fill="white" stroke="#1019EF" stroke-width="6.4"/>
<mask id="path-2-inside-1_787_2093" fill="white">
<path d="M120.132 132.533L164.934 106.667L164.934 137.067L120.132 162.933L120.132 132.533Z"/>
</mask>
<path d="M120.132 132.533L164.934 106.667L164.934 137.067L120.132 162.933L120.132 132.533Z" fill="white"/>
<path d="M164.934 106.667L170.477 103.467L170.477 97.0665L164.934 100.267L164.934 106.667ZM164.934 137.067L164.934 143.467L170.477 140.267L170.477 133.867L164.934 137.067ZM120.132 138.933L164.934 113.067L164.934 100.267L120.132 126.133L120.132 138.933ZM159.391 109.867L159.391 140.267L170.477 133.867L170.477 103.467L159.391 109.867ZM164.934 130.667L120.132 156.533L120.132 169.333L164.934 143.467L164.934 130.667Z" fill="#1019EF" mask="url(#path-2-inside-1_787_2093)"/>
<path d="M104.665 138.665L150.729 110.933L148.132 125.066L104.665 151.208L104.665 138.665Z" fill="white"/>
<path d="M91.9195 150.171L91.9195 146.859L101.179 132.045C101.241 131.937 101.304 131.829 101.366 131.721C101.449 131.601 101.522 131.487 101.584 131.379C102.457 129.963 103.081 128.835 103.455 127.995C103.85 127.143 104.047 126.321 104.047 125.529C104.047 124.809 103.891 124.251 103.58 123.855C103.268 123.435 102.852 123.207 102.333 123.171C101.813 123.135 101.231 123.303 100.587 123.675C99.8384 124.107 99.1629 124.713 98.5601 125.493C97.9782 126.261 97.5105 127.143 97.1572 128.139C96.8246 129.099 96.6376 130.107 96.596 131.163L91.9818 133.827C91.9818 133.731 91.9818 133.635 91.9818 133.539C91.9818 131.763 92.3352 129.927 93.0418 128.031C93.7485 126.135 94.7669 124.371 96.0972 122.739C97.4274 121.107 98.9447 119.799 100.649 118.815C102.208 117.915 103.611 117.465 104.858 117.465C106.105 117.441 107.082 117.849 107.789 118.689C108.495 119.505 108.849 120.693 108.849 122.253C108.849 123.693 108.485 125.247 107.757 126.915C107.03 128.583 105.928 130.575 104.453 132.891L99.3084 141.009L99.3084 141.369L108.35 136.149L108.35 140.685L91.9195 150.171ZM111.192 139.044L111.192 135.732L120.451 120.918C120.514 120.81 120.576 120.702 120.639 120.594C120.722 120.474 120.794 120.36 120.857 120.252C121.73 118.836 122.353 117.708 122.727 116.868C123.122 116.016 123.32 115.194 123.32 114.402C123.32 113.682 123.164 113.124 122.852 112.728C122.54 112.308 122.125 112.08 121.605 112.044C121.085 112.008 120.503 112.176 119.859 112.548C119.111 112.98 118.435 113.586 117.833 114.366C117.251 115.134 116.783 116.016 116.43 117.012C116.097 117.972 115.91 118.98 115.868 120.036L111.254 122.7C111.254 122.604 111.254 122.508 111.254 122.412C111.254 120.636 111.608 118.8 112.314 116.904C113.021 115.008 114.039 113.244 115.37 111.612C116.7 109.98 118.217 108.672 119.921 107.688C121.48 106.788 122.883 106.338 124.13 106.338C125.377 106.314 126.354 106.722 127.061 107.562C127.768 108.378 128.121 109.566 128.121 111.126C128.121 112.566 127.757 114.12 127.03 115.788C126.302 117.456 125.201 119.448 123.725 121.764L118.581 129.882L118.581 130.242L127.622 125.022L127.622 129.558L111.192 139.044ZM139.287 96.507C141.033 95.499 142.582 94.989 143.933 94.977C145.305 94.929 146.365 95.361 147.113 96.273C147.882 97.173 148.266 98.463 148.266 100.143C148.266 101.175 148.069 102.381 147.674 103.761C147.279 105.141 146.718 106.629 145.99 108.225L139.287 122.787L133.551 126.099L139.412 113.499C139.059 113.823 138.705 114.123 138.352 114.399C138.02 114.639 137.697 114.849 137.386 115.029C135.972 115.845 134.715 116.223 133.613 116.163C132.532 116.091 131.68 115.611 131.057 114.723C130.433 113.811 130.121 112.563 130.121 110.979C130.121 109.179 130.506 107.361 131.275 105.525C132.065 103.677 133.146 101.973 134.517 100.413C135.91 98.841 137.5 97.539 139.287 96.507ZM139.132 101.421C138.404 101.841 137.749 102.399 137.167 103.095C136.585 103.791 136.128 104.571 135.796 105.435C135.463 106.275 135.297 107.127 135.297 107.991C135.297 108.831 135.463 109.479 135.796 109.935C136.128 110.367 136.585 110.607 137.167 110.655C137.749 110.679 138.404 110.481 139.132 110.061C139.88 109.629 140.555 109.059 141.158 108.351C141.782 107.631 142.26 106.851 142.592 106.011C142.925 105.171 143.091 104.331 143.091 103.491C143.091 102.627 142.925 101.955 142.592 101.475C142.26 100.995 141.782 100.767 141.158 100.791C140.555 100.779 139.88 100.989 139.132 101.421Z" fill="black"/>
</svg>
