<svg width="256" height="256" viewBox="0 0 256 256" fill="none" xmlns="http://www.w3.org/2000/svg">
<path d="M154.461 100.267C154.461 122.064 139.159 148.568 120.282 159.467C101.405 170.365 86.1028 161.53 86.1028 139.733C86.1028 117.937 101.405 91.4318 120.282 80.5334C139.159 69.635 154.461 78.4699 154.461 100.267Z" fill="white" stroke="#1019EF" stroke-width="6.4"/>
<mask id="path-2-inside-1_787_810" fill="white">
<path d="M120.132 132.533L164.934 106.667L164.934 137.067L120.132 162.933L120.132 132.533Z"/>
</mask>
<path d="M120.132 132.533L164.934 106.667L164.934 137.067L120.132 162.933L120.132 132.533Z" fill="white"/>
<path d="M164.934 106.667L170.477 103.467L170.477 97.0668L164.934 100.267L164.934 106.667ZM164.934 137.067L164.934 143.467L170.477 140.267L170.477 133.867L164.934 137.067ZM120.132 138.933L164.934 113.067L164.934 100.267L120.132 126.133L120.132 138.933ZM159.392 109.867L159.392 140.267L170.477 133.867L170.477 103.467L159.392 109.867ZM164.934 130.667L120.132 156.533L120.132 169.333L164.934 143.467L164.934 130.667Z" fill="#1019EF" mask="url(#path-2-inside-1_787_810)"/>
<path d="M104.665 138.666L150.729 110.933L148.132 125.067L104.665 151.209L104.665 138.666Z" fill="white"/>
<path d="M107.772 107.515C110.358 106.021 112.652 105.266 114.654 105.248C116.686 105.177 118.256 105.817 119.365 107.168C120.504 108.501 121.074 110.412 121.074 112.901C121.074 114.43 120.781 116.217 120.196 118.261C119.611 120.306 118.78 122.51 117.702 124.875L107.772 146.448L99.273 151.355L107.956 132.688C107.433 133.168 106.909 133.612 106.386 134.021C105.893 134.377 105.416 134.688 104.954 134.955C102.86 136.163 100.997 136.723 99.3653 136.635C97.7642 136.528 96.5017 135.817 95.5779 134.501C94.6542 133.15 94.1923 131.301 94.1923 128.955C94.1923 126.288 94.7619 123.595 95.9012 120.875C97.0713 118.137 98.6725 115.612 100.705 113.301C102.768 110.972 105.123 109.044 107.772 107.515ZM107.541 114.795C106.463 115.417 105.493 116.243 104.631 117.275C103.769 118.306 103.091 119.461 102.599 120.741C102.106 121.986 101.859 123.248 101.859 124.528C101.859 125.772 102.106 126.732 102.599 127.408C103.091 128.048 103.769 128.403 104.631 128.475C105.493 128.51 106.463 128.217 107.541 127.595C108.649 126.955 109.65 126.11 110.543 125.061C111.467 123.995 112.175 122.839 112.667 121.595C113.16 120.35 113.406 119.106 113.406 117.861C113.406 116.581 113.16 115.586 112.667 114.875C112.175 114.163 111.467 113.826 110.543 113.861C109.65 113.843 108.649 114.155 107.541 114.795ZM124.65 136.756L124.65 131.85L138.368 109.903C138.461 109.743 138.553 109.583 138.645 109.423C138.769 109.245 138.876 109.076 138.969 108.916C140.262 106.818 141.186 105.147 141.74 103.903C142.325 102.641 142.618 101.423 142.618 100.25C142.618 99.1829 142.387 98.3563 141.925 97.7696C141.463 97.1474 140.847 96.8096 140.077 96.7563C139.307 96.7029 138.445 96.9518 137.491 97.5029C136.382 98.1429 135.381 99.0407 134.488 100.196C133.626 101.334 132.933 102.641 132.41 104.116C131.917 105.538 131.64 107.032 131.579 108.596L124.743 112.543C124.743 112.401 124.743 112.258 124.743 112.116C124.743 109.485 125.266 106.765 126.313 103.956C127.36 101.147 128.869 98.534 130.84 96.1163C132.81 93.6985 135.058 91.7607 137.583 90.3029C139.892 88.9696 141.971 88.3029 143.818 88.3029C145.666 88.2674 147.113 88.8718 148.16 90.1163C149.207 91.3252 149.73 93.0852 149.73 95.3963C149.73 97.5296 149.192 99.8318 148.114 102.303C147.036 104.774 145.404 107.725 143.218 111.156L135.597 123.183L135.597 123.716L148.991 115.983L148.991 122.703L124.65 136.756Z" fill="black"/>
</svg>
