<svg width="256" height="256" viewBox="0 0 256 256" fill="none" xmlns="http://www.w3.org/2000/svg">
<path d="M154.461 100.267C154.461 122.064 139.159 148.568 120.282 159.467C101.405 170.365 86.1028 161.53 86.1028 139.733C86.1028 117.937 101.405 91.4318 120.282 80.5334C139.159 69.635 154.461 78.4699 154.461 100.267Z" fill="white" stroke="#1019EF" stroke-width="6.4"/>
<mask id="path-2-inside-1_787_1222" fill="white">
<path d="M120.132 132.533L164.934 106.667L164.934 137.067L120.132 162.933L120.132 132.533Z"/>
</mask>
<path d="M120.132 132.533L164.934 106.667L164.934 137.067L120.132 162.933L120.132 132.533Z" fill="white"/>
<path d="M164.934 106.667L170.477 103.467L170.477 97.0668L164.934 100.267L164.934 106.667ZM164.934 137.067L164.934 143.467L170.477 140.267L170.477 133.867L164.934 137.067ZM120.132 138.933L164.934 113.067L164.934 100.267L120.132 126.133L120.132 138.933ZM159.392 109.867L159.392 140.267L170.477 133.867L170.477 103.467L159.392 109.867ZM164.934 130.667L120.132 156.533L120.132 169.333L164.934 143.467L164.934 130.667Z" fill="#1019EF" mask="url(#path-2-inside-1_787_1222)"/>
<path d="M104.665 138.666L150.729 110.933L148.132 125.067L104.665 151.209L104.665 138.666Z" fill="white"/>
<path d="M100.596 145.161L100.596 126.405L100.253 126.603L95.2025 133.839L95.2025 127.935L101.313 119.115L105.647 116.613L105.647 142.245L100.596 145.161ZM109.219 140.183L109.219 136.871L118.479 122.057C118.541 121.949 118.604 121.841 118.666 121.733C118.749 121.613 118.822 121.499 118.884 121.391C119.757 119.975 120.381 118.847 120.755 118.007C121.15 117.155 121.347 116.333 121.347 115.541C121.347 114.821 121.191 114.263 120.88 113.867C120.568 113.447 120.152 113.219 119.633 113.183C119.113 113.147 118.531 113.315 117.887 113.687C117.138 114.119 116.463 114.725 115.86 115.505C115.278 116.273 114.81 117.155 114.457 118.151C114.125 119.111 113.938 120.119 113.896 121.175L109.282 123.839C109.282 123.743 109.282 123.647 109.282 123.551C109.282 121.775 109.635 119.939 110.342 118.043C111.048 116.147 112.067 114.383 113.397 112.751C114.727 111.119 116.245 109.811 117.949 108.827C119.508 107.927 120.911 107.477 122.158 107.477C123.405 107.453 124.382 107.861 125.088 108.701C125.795 109.517 126.148 110.705 126.148 112.265C126.148 113.705 125.785 115.259 125.057 116.927C124.33 118.595 123.228 120.587 121.753 122.903L116.608 131.021L116.608 131.381L125.65 126.161L125.65 130.697L109.219 140.183ZM128.492 129.056L128.492 125.744L137.751 110.93C137.814 110.822 137.876 110.714 137.938 110.606C138.022 110.486 138.094 110.372 138.157 110.264C139.03 108.848 139.653 107.72 140.027 106.88C140.422 106.028 140.62 105.206 140.62 104.414C140.62 103.694 140.464 103.136 140.152 102.74C139.84 102.32 139.425 102.092 138.905 102.056C138.385 102.02 137.803 102.188 137.159 102.56C136.411 102.992 135.735 103.598 135.133 104.378C134.551 105.146 134.083 106.028 133.73 107.024C133.397 107.984 133.21 108.992 133.168 110.048L128.554 112.712C128.554 112.616 128.554 112.52 128.554 112.424C128.554 110.648 128.908 108.812 129.614 106.916C130.321 105.02 131.339 103.256 132.67 101.624C134 99.9916 135.517 98.6836 137.221 97.6996C138.78 96.7996 140.183 96.3496 141.43 96.3496C142.677 96.3256 143.654 96.7336 144.361 97.5736C145.068 98.3896 145.421 99.5776 145.421 101.138C145.421 102.578 145.057 104.132 144.33 105.8C143.602 107.468 142.501 109.46 141.025 111.776L135.881 119.894L135.881 120.254L144.922 115.034L144.922 119.57L128.492 129.056Z" fill="black"/>
</svg>
