<svg width="256" height="256" viewBox="0 0 256 256" fill="none" xmlns="http://www.w3.org/2000/svg">
<path d="M154.461 100.267C154.461 122.064 139.159 148.568 120.282 159.467C101.405 170.365 86.1028 161.53 86.1028 139.733C86.1028 117.937 101.405 91.4318 120.282 80.5334C139.159 69.6349 154.461 78.4698 154.461 100.267Z" fill="white" stroke="#1019EF" stroke-width="6.4"/>
<mask id="path-2-inside-1_787_517" fill="white">
<path d="M120.132 132.533L164.934 106.667L164.934 137.067L120.132 162.933L120.132 132.533Z"/>
</mask>
<path d="M120.132 132.533L164.934 106.667L164.934 137.067L120.132 162.933L120.132 132.533Z" fill="white"/>
<path d="M164.934 106.667L170.477 103.467L170.477 97.0666L164.934 100.267L164.934 106.667ZM164.934 137.067L164.934 143.467L170.477 140.267L170.477 133.867L164.934 137.067ZM120.132 138.933L164.934 113.067L164.934 100.267L120.132 126.133L120.132 138.933ZM159.392 109.867L159.392 140.267L170.477 133.867L170.477 103.467L159.392 109.867ZM164.934 130.667L120.132 156.533L120.132 169.333L164.934 143.467L164.934 130.667Z" fill="#1019EF" mask="url(#path-2-inside-1_787_517)"/>
<path d="M104.665 138.665L150.729 110.933L148.132 125.067L104.665 151.209L104.665 138.665Z" fill="white"/>
<path d="M100.095 150.933L100.095 146.027L113.813 124.08C113.905 123.92 113.998 123.76 114.09 123.6C114.213 123.422 114.321 123.253 114.413 123.093C115.707 120.996 116.63 119.324 117.185 118.08C117.77 116.818 118.062 115.6 118.062 114.427C118.062 113.36 117.831 112.533 117.369 111.947C116.908 111.324 116.292 110.987 115.522 110.933C114.752 110.88 113.89 111.129 112.935 111.68C111.827 112.32 110.826 113.218 109.933 114.373C109.071 115.511 108.378 116.818 107.855 118.293C107.362 119.716 107.085 121.209 107.023 122.773L100.187 126.72C100.187 126.578 100.187 126.436 100.187 126.293C100.187 123.662 100.711 120.942 101.758 118.133C102.805 115.324 104.314 112.711 106.284 110.293C108.255 107.876 110.503 105.938 113.028 104.48C115.337 103.147 117.416 102.48 119.263 102.48C121.111 102.444 122.558 103.049 123.605 104.293C124.652 105.502 125.175 107.262 125.175 109.573C125.175 111.707 124.636 114.009 123.559 116.48C122.481 118.951 120.849 121.902 118.663 125.333L111.042 137.36L111.042 137.893L124.436 130.16L124.436 136.88L100.095 150.933ZM135.898 130.262L135.898 102.476L135.39 102.769L127.908 113.489L127.908 104.742L136.961 91.6756L143.381 87.969L143.381 125.942L135.898 130.262Z" fill="black"/>
</svg>
