<svg width="256" height="256" viewBox="0 0 256 256" fill="none" xmlns="http://www.w3.org/2000/svg">
<path d="M154.461 100.267C154.461 122.063 139.159 148.568 120.282 159.467C101.405 170.365 86.1028 161.53 86.1028 139.733C86.1028 117.936 101.405 91.4316 120.282 80.5332C139.159 69.6348 154.461 78.4697 154.461 100.267Z" fill="white" stroke="#1019EF" stroke-width="6.4"/>
<mask id="path-2-inside-1_787_2073" fill="white">
<path d="M120.132 132.533L164.934 106.667L164.934 137.067L120.132 162.933L120.132 132.533Z"/>
</mask>
<path d="M120.132 132.533L164.934 106.667L164.934 137.067L120.132 162.933L120.132 132.533Z" fill="white"/>
<path d="M164.934 106.667L170.477 103.467L170.477 97.0665L164.934 100.267L164.934 106.667ZM164.934 137.067L164.934 143.467L170.477 140.267L170.477 133.867L164.934 137.067ZM120.132 138.933L164.934 113.067L164.934 100.267L120.132 126.133L120.132 138.933ZM159.391 109.867L159.391 140.267L170.477 133.867L170.477 103.467L159.391 109.867ZM164.934 130.667L120.132 156.533L120.132 169.333L164.934 143.467L164.934 130.667Z" fill="#1019EF" mask="url(#path-2-inside-1_787_2073)"/>
<path d="M104.665 138.665L150.729 110.933L148.132 125.066L104.665 151.208L104.665 138.665Z" fill="white"/>
<path d="M90.5256 150.976L90.5256 147.664L99.7851 132.85C99.8475 132.742 99.9098 132.634 99.9722 132.526C100.055 132.406 100.128 132.292 100.19 132.184C101.063 130.768 101.687 129.64 102.061 128.8C102.456 127.948 102.653 127.126 102.653 126.334C102.653 125.614 102.498 125.056 102.186 124.66C101.874 124.24 101.458 124.012 100.939 123.976C100.419 123.94 99.8371 124.108 99.1928 124.48C98.4445 124.912 97.769 125.518 97.1663 126.298C96.5843 127.066 96.1166 127.948 95.7633 128.944C95.4307 129.904 95.2437 130.912 95.2021 131.968L90.5879 134.632C90.5879 134.536 90.5879 134.44 90.5879 134.344C90.5879 132.568 90.9413 130.732 91.6479 128.836C92.3546 126.94 93.3731 125.176 94.7033 123.544C96.0335 121.912 97.5508 120.604 99.2551 119.62C100.814 118.72 102.217 118.27 103.464 118.27C104.711 118.246 105.688 118.654 106.395 119.494C107.101 120.31 107.455 121.498 107.455 123.058C107.455 124.498 107.091 126.052 106.363 127.72C105.636 129.388 104.534 131.38 103.059 133.696L97.9145 141.814L97.9145 142.174L106.956 136.954L106.956 141.49L90.5256 150.976ZM119.899 134.701C117.925 135.841 116.168 136.291 114.63 136.051C113.113 135.775 111.928 134.863 111.076 133.315C110.224 131.743 109.798 129.649 109.798 127.033C109.798 124.417 110.224 121.843 111.076 119.311C111.928 116.755 113.113 114.475 114.63 112.471C116.168 110.431 117.925 108.841 119.899 107.701C121.853 106.573 123.599 106.141 125.137 106.405C126.675 106.645 127.87 107.551 128.722 109.123C129.575 110.671 130.001 112.753 130.001 115.369C130.001 117.985 129.575 120.571 128.722 123.127C127.87 125.659 126.675 127.945 125.137 129.985C123.599 132.001 121.853 133.573 119.899 134.701ZM119.899 129.553C120.876 128.989 121.728 128.149 122.456 127.033C123.204 125.905 123.786 124.585 124.202 123.073C124.617 121.561 124.825 119.989 124.825 118.357C124.825 116.725 124.617 115.393 124.202 114.361C123.786 113.329 123.204 112.681 122.456 112.417C121.728 112.141 120.876 112.285 119.899 112.849C118.922 113.413 118.06 114.259 117.312 115.387C116.563 116.515 115.981 117.835 115.566 119.347C115.171 120.847 114.973 122.413 114.973 124.045C114.973 125.677 115.171 127.015 115.566 128.059C115.981 129.091 116.563 129.739 117.312 130.003C118.06 130.267 118.922 130.117 119.899 129.553ZM141.547 95.2023C143.293 94.1943 144.841 93.6843 146.192 93.6723C147.564 93.6243 148.624 94.0563 149.372 94.9683C150.142 95.8683 150.526 97.1583 150.526 98.8383C150.526 99.8703 150.329 101.076 149.934 102.456C149.539 103.836 148.978 105.324 148.25 106.92L141.547 121.482L135.811 124.794L141.672 112.194C141.318 112.518 140.965 112.818 140.612 113.094C140.279 113.334 139.957 113.544 139.645 113.724C138.232 114.54 136.974 114.918 135.873 114.858C134.792 114.786 133.94 114.306 133.316 113.418C132.693 112.506 132.381 111.258 132.381 109.674C132.381 107.874 132.766 106.056 133.535 104.22C134.324 102.372 135.405 100.668 136.777 99.1083C138.17 97.5363 139.76 96.2343 141.547 95.2023ZM141.391 100.116C140.664 100.536 140.009 101.094 139.427 101.79C138.845 102.486 138.388 103.266 138.055 104.13C137.723 104.97 137.556 105.822 137.556 106.686C137.556 107.526 137.723 108.174 138.055 108.63C138.388 109.062 138.845 109.302 139.427 109.35C140.009 109.374 140.664 109.176 141.391 108.756C142.139 108.324 142.815 107.754 143.418 107.046C144.041 106.326 144.519 105.546 144.852 104.706C145.184 103.866 145.351 103.026 145.351 102.186C145.351 101.322 145.184 100.65 144.852 100.17C144.519 99.6903 144.041 99.4623 143.418 99.4863C142.815 99.4743 142.139 99.6843 141.391 100.116Z" fill="black"/>
</svg>
