<svg width="256" height="256" viewBox="0 0 256 256" fill="none" xmlns="http://www.w3.org/2000/svg">
<path d="M154.461 100.267C154.461 122.063 139.159 148.568 120.282 159.467C101.405 170.365 86.1028 161.53 86.1028 139.733C86.1028 117.936 101.405 91.4316 120.282 80.5332C139.159 69.6348 154.461 78.4697 154.461 100.267Z" fill="white" stroke="#1019EF" stroke-width="6.4"/>
<mask id="path-2-inside-1_787_1643" fill="white">
<path d="M120.132 132.533L164.934 106.667L164.934 137.067L120.132 162.933L120.132 132.533Z"/>
</mask>
<path d="M120.132 132.533L164.934 106.667L164.934 137.067L120.132 162.933L120.132 132.533Z" fill="white"/>
<path d="M164.934 106.667L170.477 103.467L170.477 97.0665L164.934 100.267L164.934 106.667ZM164.934 137.067L164.934 143.467L170.477 140.267L170.477 133.867L164.934 137.067ZM120.132 138.933L164.934 113.067L164.934 100.267L120.132 126.133L120.132 138.933ZM159.392 109.867L159.392 140.267L170.477 133.867L170.477 103.467L159.392 109.867ZM164.934 130.667L120.132 156.533L120.132 169.333L164.934 143.467L164.934 130.667Z" fill="#1019EF" mask="url(#path-2-inside-1_787_1643)"/>
<path d="M104.665 138.665L150.729 110.933L148.132 125.066L104.665 151.208L104.665 138.665Z" fill="white"/>
<path d="M103.169 143.676L103.169 124.92L102.826 125.118L97.7753 132.354L97.7753 126.45L103.886 117.63L108.22 115.128L108.22 140.76L103.169 143.676ZM120.459 134.377C118.713 135.385 117.155 135.913 115.783 135.961C114.432 135.973 113.372 135.529 112.603 134.629C111.855 133.717 111.48 132.409 111.48 130.705C111.48 129.673 111.678 128.467 112.073 127.087C112.468 125.707 113.039 124.213 113.788 122.605L120.459 108.061L126.196 104.749L120.335 117.349C120.688 117.025 121.031 116.743 121.364 116.503C121.717 116.227 122.049 115.999 122.361 115.819C123.775 115.003 125.022 114.643 126.102 114.739C127.204 114.799 128.067 115.273 128.69 116.161C129.314 117.049 129.625 118.297 129.625 119.905C129.625 121.705 129.23 123.529 128.441 125.377C127.672 127.213 126.591 128.917 125.198 130.489C123.826 132.049 122.247 133.345 120.459 134.377ZM120.615 129.463C121.364 129.031 122.029 128.467 122.611 127.771C123.193 127.051 123.639 126.277 123.951 125.449C124.284 124.585 124.45 123.721 124.45 122.857C124.45 122.017 124.284 121.381 123.951 120.949C123.639 120.481 123.193 120.235 122.611 120.211C122.029 120.187 121.364 120.391 120.615 120.823C119.867 121.255 119.181 121.831 118.558 122.551C117.955 123.235 117.487 123.997 117.155 124.837C116.822 125.677 116.656 126.517 116.656 127.357C116.656 128.221 116.822 128.893 117.155 129.373C117.487 129.853 117.955 130.099 118.558 130.111C119.181 130.111 119.867 129.895 120.615 129.463ZM136.568 124.393L136.568 105.637L136.225 105.835L131.175 113.071L131.175 107.167L137.285 98.3467L141.619 95.8447L141.619 121.477L136.568 124.393Z" fill="black"/>
</svg>
