<svg width="256" height="256" viewBox="0 0 256 256" fill="none" xmlns="http://www.w3.org/2000/svg">
<path d="M154.461 100.267C154.461 122.063 139.159 148.568 120.282 159.467C101.405 170.365 86.1028 161.53 86.1028 139.733C86.1028 117.936 101.405 91.4317 120.282 80.5333C139.159 69.6349 154.461 78.4698 154.461 100.267Z" fill="white" stroke="#1019EF" stroke-width="6.4"/>
<mask id="path-2-inside-1_787_774" fill="white">
<path d="M120.132 132.533L164.934 106.667L164.934 137.067L120.132 162.933L120.132 132.533Z"/>
</mask>
<path d="M120.132 132.533L164.934 106.667L164.934 137.067L120.132 162.933L120.132 132.533Z" fill="white"/>
<path d="M164.934 106.667L170.477 103.467L170.477 97.0665L164.934 100.267L164.934 106.667ZM164.934 137.067L164.934 143.467L170.477 140.267L170.477 133.867L164.934 137.067ZM120.132 138.933L164.934 113.067L164.934 100.267L120.132 126.133L120.132 138.933ZM159.391 109.867L159.391 140.267L170.477 133.867L170.477 103.467L159.391 109.867ZM164.934 130.667L120.132 156.533L120.132 169.333L164.934 143.467L164.934 130.667Z" fill="#1019EF" mask="url(#path-2-inside-1_787_774)"/>
<path d="M104.665 138.665L150.729 110.933L148.132 125.067L104.665 151.209L104.665 138.665Z" fill="white"/>
<path d="M107.451 147.7C105.018 149.104 102.817 149.771 100.846 149.7C98.8753 149.593 97.3049 148.793 96.1348 147.3C94.9647 145.807 94.3334 143.735 94.2411 141.087L101.354 136.98C101.354 138.331 101.616 139.407 102.139 140.207C102.693 140.989 103.417 141.46 104.31 141.62C105.234 141.727 106.25 141.46 107.358 140.82C108.467 140.18 109.452 139.344 110.314 138.313C111.207 137.264 111.9 136.118 112.393 134.873C112.886 133.629 113.132 132.438 113.132 131.3C113.132 130.055 112.87 129.104 112.347 128.447C111.823 127.789 111.069 127.478 110.084 127.513C109.098 127.549 107.944 127.949 106.619 128.713L96.8276 134.367L98.3518 113.967L117.797 102.74L117.797 109.46L103.941 117.46L103.34 124.633L108.606 121.593C110.915 120.26 112.947 119.62 114.702 119.673C116.488 119.709 117.874 120.402 118.859 121.753C119.845 123.069 120.337 124.935 120.337 127.353C120.337 129.807 119.783 132.331 118.675 134.927C117.566 137.522 116.026 139.958 114.056 142.233C112.116 144.455 109.914 146.278 107.451 147.7ZM136.819 130.744C134.232 132.238 131.923 133.02 129.891 133.091C127.889 133.109 126.319 132.451 125.179 131.118C124.071 129.767 123.517 127.829 123.517 125.304C123.517 123.775 123.809 121.989 124.394 119.944C124.979 117.9 125.826 115.687 126.935 113.304L136.819 91.7576L145.317 86.851L136.634 105.518C137.158 105.038 137.666 104.62 138.158 104.264C138.682 103.855 139.174 103.518 139.636 103.251C141.73 102.042 143.578 101.509 145.179 101.651C146.811 101.74 148.089 102.442 149.012 103.758C149.936 105.073 150.398 106.922 150.398 109.304C150.398 111.971 149.813 114.673 148.643 117.411C147.504 120.131 145.902 122.655 143.839 124.984C141.807 127.295 139.467 129.215 136.819 130.744ZM137.05 123.464C138.158 122.824 139.144 121.989 140.006 120.958C140.868 119.891 141.53 118.744 141.992 117.518C142.485 116.238 142.731 114.958 142.731 113.678C142.731 112.433 142.485 111.491 141.992 110.851C141.53 110.158 140.868 109.793 140.006 109.758C139.144 109.722 138.158 110.024 137.05 110.664C135.941 111.304 134.925 112.158 134.001 113.224C133.108 114.238 132.416 115.367 131.923 116.611C131.43 117.855 131.184 119.1 131.184 120.344C131.184 121.624 131.43 122.62 131.923 123.331C132.416 124.042 133.108 124.407 134.001 124.424C134.925 124.424 135.941 124.104 137.05 123.464Z" fill="black"/>
</svg>
