<svg width="256" height="256" viewBox="0 0 256 256" fill="none" xmlns="http://www.w3.org/2000/svg">
<path d="M154.461 100.267C154.461 122.063 139.159 148.568 120.282 159.467C101.405 170.365 86.1028 161.53 86.1028 139.733C86.1028 117.936 101.405 91.4316 120.282 80.5332C139.159 69.6348 154.461 78.4697 154.461 100.267Z" fill="white" stroke="#1019EF" stroke-width="6.4"/>
<mask id="path-2-inside-1_787_2071" fill="white">
<path d="M120.132 132.533L164.934 106.667L164.934 137.067L120.132 162.933L120.132 132.533Z"/>
</mask>
<path d="M120.132 132.533L164.934 106.667L164.934 137.067L120.132 162.933L120.132 132.533Z" fill="white"/>
<path d="M164.934 106.667L170.477 103.467L170.477 97.0665L164.934 100.267L164.934 106.667ZM164.934 137.067L164.934 143.467L170.477 140.267L170.477 133.867L164.934 137.067ZM120.132 138.933L164.934 113.067L164.934 100.267L120.132 126.133L120.132 138.933ZM159.391 109.867L159.391 140.267L170.477 133.867L170.477 103.467L159.391 109.867ZM164.934 130.667L120.132 156.533L120.132 169.333L164.934 143.467L164.934 130.667Z" fill="#1019EF" mask="url(#path-2-inside-1_787_2071)"/>
<path d="M104.665 138.665L150.729 110.933L148.132 125.066L104.665 151.208L104.665 138.665Z" fill="white"/>
<path d="M92.2155 150L92.2155 146.688L101.475 131.874C101.537 131.766 101.6 131.658 101.662 131.55C101.745 131.43 101.818 131.316 101.88 131.208C102.753 129.792 103.377 128.664 103.751 127.824C104.146 126.972 104.343 126.15 104.343 125.358C104.343 124.638 104.187 124.08 103.876 123.684C103.564 123.264 103.148 123.036 102.629 123C102.109 122.964 101.527 123.132 100.883 123.504C100.134 123.936 99.4589 124.542 98.8561 125.322C98.2742 126.09 97.8065 126.972 97.4532 127.968C97.1206 128.928 96.9336 129.936 96.892 130.992L92.2778 133.656C92.2778 133.56 92.2778 133.464 92.2778 133.368C92.2778 131.592 92.6312 129.756 93.3378 127.86C94.0445 125.964 95.063 124.2 96.3932 122.568C97.7234 120.936 99.2407 119.628 100.945 118.644C102.504 117.744 103.907 117.294 105.154 117.294C106.401 117.27 107.378 117.678 108.085 118.518C108.791 119.334 109.145 120.522 109.145 122.082C109.145 123.522 108.781 125.076 108.053 126.744C107.326 128.412 106.224 130.404 104.749 132.72L99.6044 140.838L99.6044 141.198L108.646 135.978L108.646 140.514L92.2155 150ZM121.589 133.725C119.615 134.865 117.858 135.315 116.32 135.075C114.803 134.799 113.618 133.887 112.766 132.339C111.914 130.767 111.488 128.673 111.488 126.057C111.488 123.441 111.914 120.867 112.766 118.335C113.618 115.779 114.803 113.499 116.32 111.495C117.858 109.455 119.615 107.865 121.589 106.725C123.543 105.597 125.289 105.165 126.827 105.429C128.365 105.669 129.56 106.575 130.412 108.147C131.264 109.695 131.691 111.777 131.691 114.393C131.691 117.009 131.264 119.595 130.412 122.151C129.56 124.683 128.365 126.969 126.827 129.009C125.289 131.025 123.543 132.597 121.589 133.725ZM121.589 128.577C122.566 128.013 123.418 127.173 124.146 126.057C124.894 124.929 125.476 123.609 125.892 122.097C126.307 120.585 126.515 119.013 126.515 117.381C126.515 115.749 126.307 114.417 125.892 113.385C125.476 112.353 124.894 111.705 124.146 111.441C123.418 111.165 122.566 111.309 121.589 111.873C120.612 112.437 119.75 113.283 119.002 114.411C118.253 115.539 117.671 116.859 117.256 118.371C116.861 119.871 116.663 121.437 116.663 123.069C116.663 124.701 116.861 126.039 117.256 127.083C117.671 128.115 118.253 128.763 119.002 129.027C119.75 129.291 120.612 129.141 121.589 128.577ZM136.191 124.611L143.58 99.5367L133.541 105.333L133.541 100.509L149.41 91.3467L149.41 94.8387L141.553 121.515L136.191 124.611Z" fill="black"/>
</svg>
