<svg width="256" height="256" viewBox="0 0 256 256" fill="none" xmlns="http://www.w3.org/2000/svg">
<path d="M154.461 100.267C154.461 122.064 139.159 148.568 120.282 159.467C101.405 170.365 86.1028 161.53 86.1028 139.733C86.1028 117.937 101.405 91.4318 120.282 80.5334C139.159 69.635 154.461 78.4699 154.461 100.267Z" fill="white" stroke="#1019EF" stroke-width="6.4"/>
<mask id="path-2-inside-1_787_806" fill="white">
<path d="M120.132 132.533L164.934 106.667L164.934 137.067L120.132 162.933L120.132 132.533Z"/>
</mask>
<path d="M120.132 132.533L164.934 106.667L164.934 137.067L120.132 162.933L120.132 132.533Z" fill="white"/>
<path d="M164.934 106.667L170.477 103.467L170.477 97.0668L164.934 100.267L164.934 106.667ZM164.934 137.067L164.934 143.467L170.477 140.267L170.477 133.867L164.934 137.067ZM120.132 138.933L164.934 113.067L164.934 100.267L120.132 126.133L120.132 138.933ZM159.391 109.867L159.391 140.267L170.477 133.867L170.477 103.467L159.391 109.867ZM164.934 130.667L120.132 156.533L120.132 169.333L164.934 143.467L164.934 130.667Z" fill="#1019EF" mask="url(#path-2-inside-1_787_806)"/>
<path d="M104.665 138.666L150.729 110.933L148.132 125.067L104.665 151.209L104.665 138.666Z" fill="white"/>
<path d="M107.06 147.872C104.35 149.437 101.979 150.343 99.9469 150.592C97.9454 150.788 96.375 150.361 95.2357 149.312C94.1272 148.246 93.573 146.61 93.573 144.406C93.573 142.023 94.1734 139.65 95.3743 137.286C96.5752 134.921 98.1148 132.93 99.9931 131.312L99.9931 130.779C98.5151 130.957 97.2988 130.61 96.3442 129.739C95.4205 128.814 94.9586 127.374 94.9586 125.419C94.9586 123.321 95.4513 121.188 96.4366 119.019C97.4528 116.832 98.8692 114.788 100.686 112.886C102.533 110.966 104.658 109.312 107.06 107.926C109.4 106.574 111.479 105.819 113.295 105.659C115.112 105.499 116.528 105.926 117.545 106.939C118.591 107.899 119.115 109.41 119.115 111.472C119.115 113.428 118.638 115.41 117.683 117.419C116.759 119.374 115.543 121.126 114.034 122.672L114.034 123.206C115.943 122.637 117.498 122.841 118.699 123.819C119.9 124.797 120.501 126.477 120.501 128.859C120.501 131.063 119.931 133.348 118.792 135.712C117.683 138.059 116.113 140.299 114.08 142.432C112.048 144.53 109.708 146.343 107.06 147.872ZM107.06 124.352C107.984 123.819 108.815 123.143 109.554 122.326C110.324 121.454 110.924 120.539 111.355 119.579C111.786 118.583 112.002 117.623 112.002 116.699C112.002 115.81 111.786 115.134 111.355 114.672C110.924 114.174 110.324 113.952 109.554 114.006C108.815 114.006 107.984 114.272 107.06 114.806C106.075 115.374 105.197 116.094 104.427 116.966C103.688 117.783 103.103 118.69 102.672 119.686C102.272 120.628 102.072 121.543 102.072 122.432C102.072 123.357 102.272 124.077 102.672 124.592C103.103 125.054 103.704 125.277 104.473 125.259C105.243 125.206 106.105 124.903 107.06 124.352ZM107.06 140.939C108.076 140.352 109.015 139.597 109.877 138.672C110.74 137.712 111.402 136.69 111.863 135.606C112.325 134.486 112.556 133.41 112.556 132.379C112.556 131.312 112.31 130.512 111.817 129.979C111.355 129.428 110.693 129.17 109.831 129.206C109 129.223 108.076 129.526 107.06 130.112C105.982 130.734 105.028 131.517 104.196 132.459C103.365 133.401 102.703 134.423 102.21 135.526C101.748 136.61 101.517 137.686 101.517 138.752C101.517 139.783 101.748 140.592 102.21 141.179C102.703 141.712 103.365 141.97 104.196 141.952C105.028 141.899 105.982 141.561 107.06 140.939ZM137.686 130.19C134.977 131.754 132.606 132.661 130.574 132.91C128.572 133.105 127.002 132.679 125.862 131.63C124.754 130.563 124.2 128.928 124.2 126.723C124.2 124.341 124.8 121.968 126.001 119.603C127.202 117.239 128.741 115.248 130.62 113.63L130.62 113.097C129.142 113.274 127.925 112.928 126.971 112.057C126.047 111.132 125.585 109.692 125.585 107.737C125.585 105.639 126.078 103.505 127.063 101.337C128.079 99.1499 129.496 97.1055 131.313 95.2033C133.16 93.2833 135.285 91.6299 137.686 90.2433C140.027 88.8921 142.105 88.1366 143.922 87.9766C145.739 87.8166 147.155 88.2432 148.171 89.2566C149.218 90.2166 149.742 91.7277 149.742 93.7899C149.742 95.7455 149.264 97.7277 148.31 99.7366C147.386 101.692 146.17 103.443 144.661 104.99L144.661 105.523C146.57 104.954 148.125 105.159 149.326 106.137C150.527 107.114 151.127 108.794 151.127 111.177C151.127 113.381 150.558 115.665 149.418 118.03C148.31 120.377 146.739 122.617 144.707 124.75C142.675 126.848 140.335 128.661 137.686 130.19ZM137.686 106.67C138.61 106.137 139.442 105.461 140.181 104.643C140.95 103.772 141.551 102.857 141.982 101.897C142.413 100.901 142.629 99.941 142.629 99.0166C142.629 98.1277 142.413 97.4521 141.982 96.9899C141.551 96.4921 140.95 96.2699 140.181 96.3232C139.442 96.3232 138.61 96.5899 137.686 97.1232C136.701 97.6921 135.824 98.4121 135.054 99.2833C134.315 100.101 133.73 101.008 133.299 102.003C132.898 102.945 132.698 103.861 132.698 104.75C132.698 105.674 132.898 106.394 133.299 106.91C133.73 107.372 134.33 107.594 135.1 107.577C135.87 107.523 136.732 107.221 137.686 106.67ZM137.686 123.257C138.703 122.67 139.642 121.914 140.504 120.99C141.366 120.03 142.028 119.008 142.49 117.923C142.952 116.803 143.183 115.728 143.183 114.697C143.183 113.63 142.937 112.83 142.444 112.297C141.982 111.745 141.32 111.488 140.458 111.523C139.626 111.541 138.703 111.843 137.686 112.43C136.609 113.052 135.654 113.834 134.823 114.777C133.991 115.719 133.329 116.741 132.837 117.843C132.375 118.928 132.144 120.003 132.144 121.07C132.144 122.101 132.375 122.91 132.837 123.497C133.329 124.03 133.991 124.288 134.823 124.27C135.654 124.217 136.609 123.879 137.686 123.257Z" fill="black"/>
</svg>
