<svg width="256" height="256" viewBox="0 0 256 256" fill="none" xmlns="http://www.w3.org/2000/svg">
<path d="M154.461 100.267C154.461 122.063 139.159 148.568 120.282 159.467C101.405 170.365 86.1028 161.53 86.1028 139.733C86.1028 117.936 101.405 91.4316 120.282 80.5332C139.159 69.6348 154.461 78.4697 154.461 100.267Z" fill="white" stroke="#1019EF" stroke-width="6.4"/>
<mask id="path-2-inside-1_787_2068" fill="white">
<path d="M120.132 132.533L164.934 106.667L164.934 137.067L120.132 162.933L120.132 132.533Z"/>
</mask>
<path d="M120.132 132.533L164.934 106.667L164.934 137.067L120.132 162.933L120.132 132.533Z" fill="white"/>
<path d="M164.934 106.667L170.477 103.467L170.477 97.0665L164.934 100.267L164.934 106.667ZM164.934 137.067L164.934 143.467L170.477 140.267L170.477 133.867L164.934 137.067ZM120.132 138.933L164.934 113.067L164.934 100.267L120.132 126.133L120.132 138.933ZM159.391 109.867L159.391 140.267L170.477 133.867L170.477 103.467L159.391 109.867ZM164.934 130.667L120.132 156.533L120.132 169.333L164.934 143.467L164.934 130.667Z" fill="#1019EF" mask="url(#path-2-inside-1_787_2068)"/>
<path d="M104.665 138.665L150.729 110.933L148.132 125.066L104.665 151.208L104.665 138.665Z" fill="white"/>
<path d="M90.2143 151.155L90.2143 147.843L99.4739 133.029C99.5362 132.921 99.5986 132.813 99.6609 132.705C99.7441 132.585 99.8168 132.471 99.8792 132.363C100.752 130.947 101.376 129.819 101.75 128.979C102.145 128.127 102.342 127.305 102.342 126.513C102.342 125.793 102.186 125.235 101.875 124.839C101.563 124.419 101.147 124.191 100.627 124.155C100.108 124.119 99.5258 124.287 98.8815 124.659C98.1333 125.091 97.4578 125.697 96.855 126.477C96.2731 127.245 95.8054 128.127 95.4521 129.123C95.1195 130.083 94.9324 131.091 94.8909 132.147L90.2767 134.811C90.2767 134.715 90.2767 134.619 90.2767 134.523C90.2767 132.747 90.63 130.911 91.3367 129.015C92.0434 127.119 93.0618 125.355 94.392 123.723C95.7223 122.091 97.2395 120.783 98.9439 119.799C100.503 118.899 101.906 118.449 103.153 118.449C104.4 118.425 105.377 118.833 106.083 119.673C106.79 120.489 107.143 121.677 107.143 123.237C107.143 124.677 106.78 126.231 106.052 127.899C105.325 129.567 104.223 131.559 102.747 133.875L97.6033 141.993L97.6033 142.353L106.645 137.133L106.645 141.669L90.2143 151.155ZM119.588 134.88C117.614 136.02 115.857 136.47 114.319 136.23C112.802 135.954 111.617 135.042 110.765 133.494C109.913 131.922 109.487 129.828 109.487 127.212C109.487 124.596 109.913 122.022 110.765 119.49C111.617 116.934 112.802 114.654 114.319 112.65C115.857 110.61 117.614 109.02 119.588 107.88C121.542 106.752 123.288 106.32 124.826 106.584C126.364 106.824 127.559 107.73 128.411 109.302C129.263 110.85 129.689 112.932 129.689 115.548C129.689 118.164 129.263 120.75 128.411 123.306C127.559 125.838 126.364 128.124 124.826 130.164C123.288 132.18 121.542 133.752 119.588 134.88ZM119.588 129.732C120.565 129.168 121.417 128.328 122.145 127.212C122.893 126.084 123.475 124.764 123.891 123.252C124.306 121.74 124.514 120.168 124.514 118.536C124.514 116.904 124.306 115.572 123.891 114.54C123.475 113.508 122.893 112.86 122.145 112.596C121.417 112.32 120.565 112.464 119.588 113.028C118.611 113.592 117.749 114.438 117 115.566C116.252 116.694 115.67 118.014 115.255 119.526C114.86 121.026 114.662 122.592 114.662 124.224C114.662 125.856 114.86 127.194 115.255 128.238C115.67 129.27 116.252 129.918 117 130.182C117.749 130.446 118.611 130.296 119.588 129.732ZM142.234 121.122L142.234 115.83L131.602 121.968L131.602 118.692L140.051 96.75L147.409 92.502L147.409 108.342L149.997 106.848L149.997 111.348L147.409 112.842L147.409 118.134L142.234 121.122ZM136.622 114.57L142.202 111.348L142.202 100.476L141.891 100.656L136.622 114.57Z" fill="black"/>
</svg>
