<svg width="256" height="256" viewBox="0 0 256 256" fill="none" xmlns="http://www.w3.org/2000/svg">
<path d="M154.461 100.267C154.461 122.063 139.159 148.568 120.282 159.467C101.405 170.365 86.1028 161.53 86.1028 139.733C86.1028 117.936 101.405 91.4316 120.282 80.5332C139.159 69.6348 154.461 78.4697 154.461 100.267Z" fill="white" stroke="#1019EF" stroke-width="6.4"/>
<mask id="path-2-inside-1_787_2076" fill="white">
<path d="M120.132 132.533L164.934 106.667L164.934 137.067L120.132 162.933L120.132 132.533Z"/>
</mask>
<path d="M120.132 132.533L164.934 106.667L164.934 137.067L120.132 162.933L120.132 132.533Z" fill="white"/>
<path d="M164.934 106.667L170.477 103.467L170.477 97.0665L164.934 100.267L164.934 106.667ZM164.934 137.067L164.934 143.467L170.477 140.267L170.477 133.867L164.934 137.067ZM120.132 138.933L164.934 113.067L164.934 100.267L120.132 126.133L120.132 138.933ZM159.392 109.867L159.392 140.267L170.477 133.867L170.477 103.467L159.392 109.867ZM164.934 130.667L120.132 156.533L120.132 169.333L164.934 143.467L164.934 130.667Z" fill="#1019EF" mask="url(#path-2-inside-1_787_2076)"/>
<path d="M104.665 138.665L150.729 110.933L148.132 125.066L104.665 151.208L104.665 138.665Z" fill="white"/>
<path d="M95.7013 147.987L95.7013 144.675L104.961 129.861C105.023 129.753 105.086 129.645 105.148 129.537C105.231 129.417 105.304 129.303 105.366 129.195C106.239 127.779 106.863 126.651 107.237 125.811C107.632 124.959 107.829 124.137 107.829 123.345C107.829 122.625 107.673 122.067 107.361 121.671C107.05 121.251 106.634 121.023 106.114 120.987C105.595 120.951 105.013 121.119 104.369 121.491C103.62 121.923 102.945 122.529 102.342 123.309C101.76 124.077 101.292 124.959 100.939 125.955C100.606 126.915 100.419 127.923 100.378 128.979L95.7637 131.643C95.7637 131.547 95.7637 131.451 95.7637 131.355C95.7637 129.579 96.117 127.743 96.8237 125.847C97.5304 123.951 98.5488 122.187 99.879 120.555C101.209 118.923 102.727 117.615 104.431 116.631C105.99 115.731 107.393 115.281 108.64 115.281C109.887 115.257 110.864 115.665 111.57 116.505C112.277 117.321 112.63 118.509 112.63 120.069C112.63 121.509 112.267 123.063 111.539 124.731C110.812 126.399 109.71 128.391 108.234 130.707L103.09 138.825L103.09 139.185L112.132 133.965L112.132 138.501L95.7013 147.987ZM119.869 134.034L119.869 115.278L119.526 115.476L114.475 122.712L114.475 116.808L120.586 107.988L124.919 105.486L124.919 131.118L119.869 134.034ZM128.492 129.056L128.492 125.744L137.751 110.93C137.814 110.822 137.876 110.714 137.938 110.606C138.022 110.486 138.094 110.372 138.157 110.264C139.03 108.848 139.653 107.72 140.027 106.88C140.422 106.028 140.62 105.206 140.62 104.414C140.62 103.694 140.464 103.136 140.152 102.74C139.84 102.32 139.425 102.092 138.905 102.056C138.385 102.02 137.803 102.188 137.159 102.56C136.411 102.992 135.735 103.598 135.133 104.378C134.551 105.146 134.083 106.028 133.73 107.024C133.397 107.984 133.21 108.992 133.168 110.048L128.554 112.712C128.554 112.616 128.554 112.52 128.554 112.424C128.554 110.648 128.908 108.812 129.614 106.916C130.321 105.02 131.339 103.256 132.67 101.624C134 99.9916 135.517 98.6836 137.221 97.6996C138.78 96.7996 140.183 96.3496 141.43 96.3496C142.677 96.3256 143.654 96.7336 144.361 97.5736C145.068 98.3896 145.421 99.5776 145.421 101.138C145.421 102.578 145.057 104.132 144.33 105.8C143.602 107.468 142.501 109.46 141.025 111.776L135.881 119.894L135.881 120.254L144.922 115.034L144.922 119.57L128.492 129.056Z" fill="black"/>
</svg>
