<svg width="256" height="256" viewBox="0 0 256 256" fill="none" xmlns="http://www.w3.org/2000/svg">
<path d="M154.461 100.267C154.461 122.063 139.159 148.568 120.282 159.467C101.405 170.365 86.1028 161.53 86.1028 139.733C86.1028 117.936 101.405 91.4316 120.282 80.5332C139.159 69.6348 154.461 78.4697 154.461 100.267Z" fill="white" stroke="#1019EF" stroke-width="6.4"/>
<mask id="path-2-inside-1_787_1662" fill="white">
<path d="M120.132 132.533L164.934 106.667L164.934 137.067L120.132 162.933L120.132 132.533Z"/>
</mask>
<path d="M120.132 132.533L164.934 106.667L164.934 137.067L120.132 162.933L120.132 132.533Z" fill="white"/>
<path d="M164.934 106.667L170.477 103.467L170.477 97.0665L164.934 100.267L164.934 106.667ZM164.934 137.067L164.934 143.467L170.477 140.267L170.477 133.867L164.934 137.067ZM120.132 138.933L164.934 113.067L164.934 100.267L120.132 126.133L120.132 138.933ZM159.391 109.867L159.391 140.267L170.477 133.867L170.477 103.467L159.391 109.867ZM164.934 130.667L120.132 156.533L120.132 169.333L164.934 143.467L164.934 130.667Z" fill="#1019EF" mask="url(#path-2-inside-1_787_1662)"/>
<path d="M104.665 138.665L150.729 110.933L148.132 125.066L104.665 151.208L104.665 138.665Z" fill="white"/>
<path d="M97.6362 146.87L97.6362 128.114L97.2933 128.312L92.2426 135.548L92.2426 129.644L98.3533 120.824L102.687 118.322L102.687 143.954L97.6362 146.87ZM115.239 137.356C113.409 138.412 111.809 139.024 110.437 139.192C109.086 139.324 108.026 139.036 107.257 138.328C106.509 137.608 106.135 136.504 106.135 135.016C106.135 133.408 106.54 131.806 107.351 130.21C108.161 128.614 109.201 127.27 110.468 126.178L110.468 125.818C109.471 125.938 108.65 125.704 108.005 125.116C107.382 124.492 107.07 123.52 107.07 122.2C107.07 120.784 107.403 119.344 108.068 117.88C108.754 116.404 109.71 115.024 110.936 113.74C112.183 112.444 113.617 111.328 115.239 110.392C116.818 109.48 118.221 108.97 119.447 108.862C120.674 108.754 121.63 109.042 122.316 109.726C123.022 110.374 123.376 111.394 123.376 112.786C123.376 114.106 123.054 115.444 122.409 116.8C121.786 118.12 120.965 119.302 119.946 120.346L119.946 120.706C121.235 120.322 122.284 120.46 123.095 121.12C123.906 121.78 124.311 122.914 124.311 124.522C124.311 126.01 123.926 127.552 123.157 129.148C122.409 130.732 121.349 132.244 119.977 133.684C118.606 135.1 117.026 136.324 115.239 137.356ZM115.239 121.48C115.862 121.12 116.423 120.664 116.922 120.112C117.442 119.524 117.847 118.906 118.138 118.258C118.429 117.586 118.574 116.938 118.574 116.314C118.574 115.714 118.429 115.258 118.138 114.946C117.847 114.61 117.442 114.46 116.922 114.496C116.423 114.496 115.862 114.676 115.239 115.036C114.573 115.42 113.981 115.906 113.461 116.494C112.963 117.046 112.568 117.658 112.277 118.33C112.007 118.966 111.871 119.584 111.871 120.184C111.871 120.808 112.007 121.294 112.277 121.642C112.568 121.954 112.973 122.104 113.493 122.092C114.012 122.056 114.594 121.852 115.239 121.48ZM115.239 132.676C115.924 132.28 116.558 131.77 117.14 131.146C117.722 130.498 118.169 129.808 118.481 129.076C118.793 128.32 118.949 127.594 118.949 126.898C118.949 126.178 118.782 125.638 118.45 125.278C118.138 124.906 117.691 124.732 117.109 124.756C116.548 124.768 115.924 124.972 115.239 125.368C114.511 125.788 113.867 126.316 113.306 126.952C112.744 127.588 112.297 128.278 111.965 129.022C111.653 129.754 111.497 130.48 111.497 131.2C111.497 131.896 111.653 132.442 111.965 132.838C112.297 133.198 112.744 133.372 113.306 133.36C113.867 133.324 114.511 133.096 115.239 132.676ZM137.034 124.808C135.059 125.948 133.303 126.398 131.765 126.158C130.248 125.882 129.063 124.97 128.211 123.422C127.359 121.85 126.933 119.756 126.933 117.14C126.933 114.524 127.359 111.95 128.211 109.418C129.063 106.862 130.248 104.582 131.765 102.578C133.303 100.538 135.059 98.948 137.034 97.808C138.988 96.68 140.734 96.248 142.272 96.512C143.81 96.752 145.005 97.658 145.857 99.23C146.709 100.778 147.135 102.86 147.135 105.476C147.135 108.092 146.709 110.678 145.857 113.234C145.005 115.766 143.81 118.052 142.272 120.092C140.734 122.108 138.988 123.68 137.034 124.808ZM137.034 119.66C138.011 119.096 138.863 118.256 139.59 117.14C140.339 116.012 140.921 114.692 141.336 113.18C141.752 111.668 141.96 110.096 141.96 108.464C141.96 106.832 141.752 105.5 141.336 104.468C140.921 103.436 140.339 102.788 139.59 102.524C138.863 102.248 138.011 102.392 137.034 102.956C136.057 103.52 135.194 104.366 134.446 105.494C133.698 106.622 133.116 107.942 132.7 109.454C132.305 110.954 132.108 112.52 132.108 114.152C132.108 115.784 132.305 117.122 132.7 118.166C133.116 119.198 133.698 119.846 134.446 120.11C135.194 120.374 136.057 120.224 137.034 119.66Z" fill="black"/>
</svg>
