<svg width="256" height="256" viewBox="0 0 256 256" fill="none" xmlns="http://www.w3.org/2000/svg">
<path d="M154.461 100.267C154.461 122.064 139.159 148.568 120.282 159.467C101.405 170.365 86.1028 161.53 86.1028 139.733C86.1028 117.937 101.405 91.4318 120.282 80.5334C139.159 69.635 154.461 78.4699 154.461 100.267Z" fill="white" stroke="#1019EF" stroke-width="6.4"/>
<mask id="path-2-inside-1_787_1631" fill="white">
<path d="M120.132 132.533L164.934 106.667L164.934 137.067L120.132 162.933L120.132 132.533Z"/>
</mask>
<path d="M120.132 132.533L164.934 106.667L164.934 137.067L120.132 162.933L120.132 132.533Z" fill="white"/>
<path d="M164.934 106.667L170.477 103.467L170.477 97.0668L164.934 100.267L164.934 106.667ZM164.934 137.067L164.934 143.467L170.477 140.267L170.477 133.867L164.934 137.067ZM120.132 138.933L164.934 113.067L164.934 100.267L120.132 126.133L120.132 138.933ZM159.391 109.867L159.391 140.267L170.477 133.867L170.477 103.467L159.391 109.867ZM164.934 130.667L120.132 156.533L120.132 169.333L164.934 143.467L164.934 130.667Z" fill="#1019EF" mask="url(#path-2-inside-1_787_1631)"/>
<path d="M104.665 138.666L150.729 110.933L148.132 125.067L104.665 151.209L104.665 138.666Z" fill="white"/>
<path d="M99.7741 145.636L99.7741 126.88L99.4312 127.078L94.3805 134.314L94.3805 128.41L100.491 119.59L104.825 117.088L104.825 142.72L99.7741 145.636ZM118.218 134.987L118.218 129.695L107.587 135.833L107.587 132.557L116.036 110.615L123.394 106.367L123.394 122.207L125.981 120.713L125.981 125.213L123.394 126.707L123.394 131.999L118.218 134.987ZM112.606 128.435L118.187 125.213L118.187 114.341L117.875 114.521L112.606 128.435ZM137.193 97.716C138.939 96.708 140.488 96.198 141.839 96.186C143.21 96.138 144.27 96.57 145.019 97.482C145.788 98.382 146.172 99.672 146.172 101.352C146.172 102.384 145.975 103.59 145.58 104.97C145.185 106.35 144.624 107.838 143.896 109.434L137.193 123.996L131.457 127.308L137.318 114.708C136.965 115.032 136.611 115.332 136.258 115.608C135.925 115.848 135.603 116.058 135.291 116.238C133.878 117.054 132.621 117.432 131.519 117.372C130.438 117.3 129.586 116.82 128.963 115.932C128.339 115.02 128.027 113.772 128.027 112.188C128.027 110.388 128.412 108.57 129.181 106.734C129.971 104.886 131.051 103.182 132.423 101.622C133.816 100.05 135.406 98.748 137.193 97.716ZM137.037 102.63C136.31 103.05 135.655 103.608 135.073 104.304C134.491 105 134.034 105.78 133.701 106.644C133.369 107.484 133.203 108.336 133.203 109.2C133.203 110.04 133.369 110.688 133.701 111.144C134.034 111.576 134.491 111.816 135.073 111.864C135.655 111.888 136.31 111.69 137.037 111.27C137.786 110.838 138.461 110.268 139.064 109.56C139.687 108.84 140.165 108.06 140.498 107.22C140.831 106.38 140.997 105.54 140.997 104.7C140.997 103.836 140.831 103.164 140.498 102.684C140.165 102.204 139.687 101.976 139.064 102C138.461 101.988 137.786 102.198 137.037 102.63Z" fill="black"/>
</svg>
