<svg width="256" height="256" viewBox="0 0 256 256" fill="none" xmlns="http://www.w3.org/2000/svg">
<path d="M154.461 100.267C154.461 122.063 139.159 148.568 120.282 159.467C101.405 170.365 86.1028 161.53 86.1028 139.733C86.1028 117.936 101.405 91.4316 120.282 80.5332C139.159 69.6348 154.461 78.4697 154.461 100.267Z" fill="white" stroke="#1019EF" stroke-width="6.4"/>
<mask id="path-2-inside-1_787_2064" fill="white">
<path d="M120.132 132.533L164.934 106.667L164.934 137.067L120.132 162.933L120.132 132.533Z"/>
</mask>
<path d="M120.132 132.533L164.934 106.667L164.934 137.067L120.132 162.933L120.132 132.533Z" fill="white"/>
<path d="M164.934 106.667L170.477 103.467L170.477 97.0665L164.934 100.267L164.934 106.667ZM164.934 137.067L164.934 143.467L170.477 140.267L170.477 133.867L164.934 137.067ZM120.132 138.933L164.934 113.067L164.934 100.267L120.132 126.133L120.132 138.933ZM159.391 109.867L159.391 140.267L170.477 133.867L170.477 103.467L159.391 109.867ZM164.934 130.667L120.132 156.533L120.132 169.333L164.934 143.467L164.934 130.667Z" fill="#1019EF" mask="url(#path-2-inside-1_787_2064)"/>
<path d="M104.665 138.665L150.729 110.933L148.132 125.066L104.665 151.208L104.665 138.665Z" fill="white"/>
<path d="M88.7378 152.008L88.7378 148.696L97.9974 133.882C98.0597 133.774 98.1221 133.666 98.1844 133.558C98.2676 133.438 98.3403 133.324 98.4027 133.216C99.2756 131.8 99.8992 130.672 100.273 129.832C100.668 128.98 100.866 128.158 100.866 127.366C100.866 126.646 100.71 126.088 100.398 125.692C100.086 125.272 99.6705 125.044 99.1509 125.008C98.6313 124.972 98.0493 125.14 97.405 125.512C96.6568 125.944 95.9813 126.55 95.3785 127.33C94.7965 128.098 94.3289 128.98 93.9755 129.976C93.643 130.936 93.4559 131.944 93.4144 133L88.8002 135.664C88.8002 135.568 88.8002 135.472 88.8002 135.376C88.8002 133.6 89.1535 131.764 89.8602 129.868C90.5669 127.972 91.5853 126.208 92.9155 124.576C94.2457 122.944 95.763 121.636 97.4674 120.652C99.0262 119.752 100.429 119.302 101.676 119.302C102.923 119.278 103.9 119.686 104.607 120.526C105.314 121.342 105.667 122.53 105.667 124.09C105.667 125.53 105.303 127.084 104.576 128.752C103.848 130.42 102.747 132.412 101.271 134.728L96.1267 142.846L96.1267 143.206L105.168 137.986L105.168 142.522L88.7378 152.008ZM118.112 135.733C116.137 136.873 114.381 137.323 112.843 137.083C111.325 136.807 110.141 135.895 109.289 134.347C108.436 132.775 108.01 130.681 108.01 128.065C108.01 125.449 108.436 122.875 109.289 120.343C110.141 117.787 111.325 115.507 112.843 113.503C114.381 111.463 116.137 109.873 118.112 108.733C120.065 107.605 121.811 107.173 123.349 107.437C124.887 107.677 126.082 108.583 126.935 110.155C127.787 111.703 128.213 113.785 128.213 116.401C128.213 119.017 127.787 121.603 126.935 124.159C126.082 126.691 124.887 128.977 123.349 131.017C121.811 133.033 120.065 134.605 118.112 135.733ZM118.112 130.585C119.088 130.021 119.941 129.181 120.668 128.065C121.416 126.937 121.998 125.617 122.414 124.105C122.83 122.593 123.038 121.021 123.038 119.389C123.038 117.757 122.83 116.425 122.414 115.393C121.998 114.361 121.416 113.713 120.668 113.449C119.941 113.173 119.088 113.317 118.112 113.881C117.135 114.445 116.272 115.291 115.524 116.419C114.776 117.547 114.194 118.867 113.778 120.379C113.383 121.879 113.186 123.445 113.186 125.077C113.186 126.709 113.383 128.047 113.778 129.091C114.194 130.123 114.776 130.771 115.524 131.035C116.272 131.299 117.135 131.149 118.112 130.585ZM141.038 122.497C139.063 123.637 137.307 124.087 135.769 123.847C134.251 123.571 133.067 122.659 132.215 121.111C131.362 119.539 130.936 117.445 130.936 114.829C130.936 112.213 131.362 109.639 132.215 107.107C133.067 104.551 134.251 102.271 135.769 100.267C137.307 98.2265 139.063 96.6365 141.038 95.4965C142.991 94.3685 144.737 93.9365 146.275 94.2005C147.813 94.4405 149.008 95.3465 149.861 96.9185C150.713 98.4665 151.139 100.549 151.139 103.165C151.139 105.781 150.713 108.367 149.861 110.923C149.008 113.455 147.813 115.741 146.275 117.781C144.737 119.797 142.991 121.369 141.038 122.497ZM141.038 117.349C142.014 116.785 142.867 115.945 143.594 114.829C144.342 113.701 144.924 112.381 145.34 110.869C145.756 109.357 145.964 107.785 145.964 106.153C145.964 104.521 145.756 103.189 145.34 102.157C144.924 101.125 144.342 100.477 143.594 100.213C142.867 99.9365 142.014 100.081 141.038 100.645C140.061 101.209 139.198 102.055 138.45 103.183C137.702 104.311 137.12 105.631 136.704 107.143C136.309 108.643 136.112 110.209 136.112 111.841C136.112 113.473 136.309 114.811 136.704 115.855C137.12 116.887 137.702 117.535 138.45 117.799C139.198 118.063 140.061 117.913 141.038 117.349Z" fill="black"/>
</svg>
