<svg width="256" height="256" viewBox="0 0 256 256" fill="none" xmlns="http://www.w3.org/2000/svg">
<path d="M154.461 100.267C154.461 122.063 139.159 148.568 120.282 159.467C101.405 170.365 86.1028 161.53 86.1028 139.733C86.1028 117.936 101.405 91.4316 120.282 80.5332C139.159 69.6348 154.461 78.4697 154.461 100.267Z" fill="white" stroke="#1019EF" stroke-width="6.4"/>
<mask id="path-2-inside-1_787_2480" fill="white">
<path d="M120.132 132.533L164.934 106.667L164.934 137.067L120.132 162.933L120.132 132.533Z"/>
</mask>
<path d="M120.132 132.533L164.934 106.667L164.934 137.067L120.132 162.933L120.132 132.533Z" fill="white"/>
<path d="M164.934 106.667L170.477 103.467L170.477 97.0665L164.934 100.267L164.934 106.667ZM164.934 137.067L164.934 143.467L170.477 140.267L170.477 133.867L164.934 137.067ZM120.132 138.933L164.934 113.067L164.934 100.267L120.132 126.133L120.132 138.933ZM159.391 109.867L159.391 140.267L170.477 133.867L170.477 103.467L159.391 109.867ZM164.934 130.667L120.132 156.533L120.132 169.333L164.934 143.467L164.934 130.667Z" fill="#1019EF" mask="url(#path-2-inside-1_787_2480)"/>
<path d="M104.665 138.665L150.729 110.933L148.132 125.066L104.665 151.208L104.665 138.665Z" fill="white"/>
<path d="M90.2143 151.155L90.2143 147.843L99.4739 133.029C99.5362 132.921 99.5986 132.813 99.6609 132.705C99.7441 132.585 99.8168 132.471 99.8792 132.363C100.752 130.947 101.376 129.819 101.75 128.979C102.145 128.127 102.342 127.305 102.342 126.513C102.342 125.793 102.186 125.235 101.875 124.839C101.563 124.419 101.147 124.191 100.627 124.155C100.108 124.119 99.5258 124.287 98.8815 124.659C98.1333 125.091 97.4578 125.697 96.855 126.477C96.2731 127.245 95.8054 128.127 95.4521 129.123C95.1195 130.083 94.9324 131.091 94.8909 132.147L90.2767 134.811C90.2767 134.715 90.2767 134.619 90.2767 134.523C90.2767 132.747 90.63 130.911 91.3367 129.015C92.0434 127.119 93.0618 125.355 94.392 123.723C95.7223 122.091 97.2395 120.783 98.9439 119.799C100.503 118.899 101.906 118.449 103.153 118.449C104.4 118.425 105.377 118.833 106.083 119.673C106.79 120.489 107.143 121.677 107.143 123.237C107.143 124.677 106.78 126.231 106.052 127.899C105.325 129.567 104.223 131.559 102.747 133.875L97.6033 141.993L97.6033 142.353L106.645 137.133L106.645 141.669L90.2143 151.155ZM119.308 134.358L119.308 129.066L108.676 135.204L108.676 131.928L117.125 109.986L124.483 105.738L124.483 121.578L127.071 120.084L127.071 124.584L124.483 126.078L124.483 131.37L119.308 134.358ZM113.696 127.806L119.276 124.584L119.276 113.712L118.965 113.892L113.696 127.806ZM139.561 123.349C137.586 124.489 135.83 124.939 134.292 124.699C132.775 124.423 131.59 123.511 130.738 121.963C129.886 120.391 129.459 118.297 129.459 115.681C129.459 113.065 129.886 110.491 130.738 107.959C131.59 105.403 132.775 103.123 134.292 101.119C135.83 99.079 137.586 97.489 139.561 96.349C141.515 95.221 143.26 94.789 144.799 95.053C146.337 95.293 147.532 96.199 148.384 97.771C149.236 99.319 149.662 101.401 149.662 104.017C149.662 106.633 149.236 109.219 148.384 111.775C147.532 114.307 146.337 116.593 144.799 118.633C143.26 120.649 141.515 122.221 139.561 123.349ZM139.561 118.201C140.538 117.637 141.39 116.797 142.117 115.681C142.866 114.553 143.448 113.233 143.863 111.721C144.279 110.209 144.487 108.637 144.487 107.005C144.487 105.373 144.279 104.041 143.863 103.009C143.448 101.977 142.866 101.329 142.117 101.065C141.39 100.789 140.538 100.933 139.561 101.497C138.584 102.061 137.721 102.907 136.973 104.035C136.225 105.163 135.643 106.483 135.227 107.995C134.832 109.495 134.635 111.061 134.635 112.693C134.635 114.325 134.832 115.663 135.227 116.707C135.643 117.739 136.225 118.387 136.973 118.651C137.721 118.915 138.584 118.765 139.561 118.201Z" fill="black"/>
</svg>
