<svg width="256" height="256" viewBox="0 0 256 256" fill="none" xmlns="http://www.w3.org/2000/svg">
<path d="M154.461 100.267C154.461 122.064 139.159 148.568 120.282 159.467C101.405 170.365 86.1028 161.53 86.1028 139.733C86.1028 117.937 101.405 91.4318 120.282 80.5334C139.159 69.635 154.461 78.4699 154.461 100.267Z" fill="white" stroke="#1019EF" stroke-width="6.4"/>
<mask id="path-2-inside-1_787_1210" fill="white">
<path d="M120.132 132.533L164.934 106.667L164.934 137.067L120.132 162.933L120.132 132.533Z"/>
</mask>
<path d="M120.132 132.533L164.934 106.667L164.934 137.067L120.132 162.933L120.132 132.533Z" fill="white"/>
<path d="M164.934 106.667L170.477 103.467L170.477 97.0668L164.934 100.267L164.934 106.667ZM164.934 137.067L164.934 143.467L170.477 140.267L170.477 133.867L164.934 137.067ZM120.132 138.933L164.934 113.067L164.934 100.267L120.132 126.133L120.132 138.933ZM159.391 109.867L159.391 140.267L170.477 133.867L170.477 103.467L159.391 109.867ZM164.934 130.667L120.132 156.533L120.132 169.333L164.934 143.467L164.934 130.667Z" fill="#1019EF" mask="url(#path-2-inside-1_787_1210)"/>
<path d="M104.665 138.666L150.729 110.933L148.132 125.067L104.665 151.209L104.665 138.666Z" fill="white"/>
<path d="M101.214 144.805L101.214 126.049L100.871 126.247L95.8201 133.483L95.8201 127.579L101.931 118.759L106.264 116.257L106.264 141.889L101.214 144.805ZM114.732 137L114.732 118.244L114.389 118.442L109.338 125.678L109.338 119.774L115.449 110.954L119.782 108.452L119.782 134.084L114.732 137ZM133.456 126.873C131.482 128.013 129.726 128.463 128.188 128.223C126.67 127.947 125.486 127.035 124.633 125.487C123.781 123.915 123.355 121.821 123.355 119.205C123.355 116.589 123.781 114.015 124.633 111.483C125.486 108.927 126.67 106.647 128.188 104.643C129.726 102.603 131.482 101.013 133.456 99.8735C135.41 98.7455 137.156 98.3135 138.694 98.5775C140.232 98.8175 141.427 99.7235 142.279 101.295C143.132 102.843 143.558 104.925 143.558 107.541C143.558 110.157 143.132 112.743 142.279 115.299C141.427 117.831 140.232 120.117 138.694 122.157C137.156 124.173 135.41 125.745 133.456 126.873ZM133.456 121.725C134.433 121.161 135.285 120.321 136.013 119.205C136.761 118.077 137.343 116.757 137.759 115.245C138.175 113.733 138.382 112.161 138.382 110.529C138.382 108.897 138.175 107.565 137.759 106.533C137.343 105.501 136.761 104.853 136.013 104.589C135.285 104.313 134.433 104.457 133.456 105.021C132.48 105.585 131.617 106.431 130.869 107.559C130.121 108.687 129.539 110.007 129.123 111.519C128.728 113.019 128.53 114.585 128.53 116.217C128.53 117.849 128.728 119.187 129.123 120.231C129.539 121.263 130.121 121.911 130.869 122.175C131.617 122.439 132.48 122.289 133.456 121.725Z" fill="black"/>
</svg>
