<svg width="256" height="256" viewBox="0 0 256 256" fill="none" xmlns="http://www.w3.org/2000/svg">
<path d="M154.461 100.267C154.461 122.064 139.159 148.568 120.282 159.467C101.405 170.365 86.1028 161.53 86.1028 139.733C86.1028 117.937 101.405 91.4318 120.282 80.5334C139.159 69.635 154.461 78.4699 154.461 100.267Z" fill="white" stroke="#1019EF" stroke-width="6.4"/>
<mask id="path-2-inside-1_787_797" fill="white">
<path d="M120.132 132.533L164.934 106.667L164.934 137.067L120.132 162.933L120.132 132.533Z"/>
</mask>
<path d="M120.132 132.533L164.934 106.667L164.934 137.067L120.132 162.933L120.132 132.533Z" fill="white"/>
<path d="M164.934 106.667L170.477 103.467L170.477 97.0668L164.934 100.267L164.934 106.667ZM164.934 137.067L164.934 143.467L170.477 140.267L170.477 133.867L164.934 137.067ZM120.132 138.933L164.934 113.067L164.934 100.267L120.132 126.133L120.132 138.933ZM159.391 109.867L159.391 140.267L170.477 133.867L170.477 103.467L159.391 109.867ZM164.934 130.667L120.132 156.533L120.132 169.333L164.934 143.467L164.934 130.667Z" fill="#1019EF" mask="url(#path-2-inside-1_787_797)"/>
<path d="M104.665 138.666L150.729 110.933L148.132 125.067L104.665 151.209L104.665 138.666Z" fill="white"/>
<path d="M99.1374 151.486L110.084 114.34L95.2114 122.926L95.2114 115.78L118.721 102.206L118.721 107.38L107.082 146.9L99.1374 151.486ZM134.519 92.0719C137.106 90.5786 139.4 89.823 141.401 89.8052C143.434 89.7341 145.004 90.3741 146.112 91.7252C147.252 93.0586 147.821 94.9697 147.821 97.4586C147.821 98.9874 147.529 100.774 146.944 102.819C146.359 104.863 145.527 107.067 144.45 109.432L134.519 131.005L126.021 135.912L134.704 117.245C134.181 117.725 133.657 118.17 133.134 118.579C132.641 118.934 132.164 119.245 131.702 119.512C129.608 120.721 127.745 121.281 126.113 121.192C124.512 121.085 123.249 120.374 122.326 119.059C121.402 117.707 120.94 115.859 120.94 113.512C120.94 110.845 121.51 108.152 122.649 105.432C123.819 102.694 125.42 100.17 127.452 97.8586C129.516 95.5297 131.871 93.6008 134.519 92.0719ZM134.288 99.3519C133.211 99.9741 132.241 100.801 131.378 101.832C130.516 102.863 129.839 104.019 129.346 105.299C128.854 106.543 128.607 107.805 128.607 109.085C128.607 110.33 128.854 111.29 129.346 111.965C129.839 112.605 130.516 112.961 131.378 113.032C132.241 113.067 133.211 112.774 134.288 112.152C135.397 111.512 136.398 110.667 137.291 109.619C138.214 108.552 138.922 107.396 139.415 106.152C139.908 104.907 140.154 103.663 140.154 102.419C140.154 101.139 139.908 100.143 139.415 99.4319C138.922 98.7208 138.214 98.383 137.291 98.4186C136.398 98.4008 135.397 98.7119 134.288 99.3519Z" fill="black"/>
</svg>
