<svg width="256" height="256" viewBox="0 0 256 256" fill="none" xmlns="http://www.w3.org/2000/svg">
<path d="M154.461 100.267C154.461 122.063 139.159 148.568 120.282 159.467C101.405 170.365 86.1028 161.53 86.1028 139.733C86.1028 117.936 101.405 91.4316 120.282 80.5332C139.159 69.6348 154.461 78.4697 154.461 100.267Z" fill="white" stroke="#1019EF" stroke-width="6.4"/>
<mask id="path-2-inside-1_787_1648" fill="white">
<path d="M120.132 132.533L164.934 106.667L164.934 137.067L120.132 162.933L120.132 132.533Z"/>
</mask>
<path d="M120.132 132.533L164.934 106.667L164.934 137.067L120.132 162.933L120.132 132.533Z" fill="white"/>
<path d="M164.934 106.667L170.477 103.467L170.477 97.0665L164.934 100.267L164.934 106.667ZM164.934 137.067L164.934 143.467L170.477 140.267L170.477 133.867L164.934 137.067ZM120.132 138.933L164.934 113.067L164.934 100.267L120.132 126.133L120.132 138.933ZM159.391 109.867L159.391 140.267L170.477 133.867L170.477 103.467L159.391 109.867ZM164.934 130.667L120.132 156.533L120.132 169.333L164.934 143.467L164.934 130.667Z" fill="#1019EF" mask="url(#path-2-inside-1_787_1648)"/>
<path d="M104.665 138.665L150.729 110.933L148.132 125.066L104.665 151.208L104.665 138.665Z" fill="white"/>
<path d="M99.6219 145.724L99.6219 126.968L99.2789 127.166L94.2283 134.402L94.2283 128.498L100.339 119.678L104.673 117.176L104.673 142.808L99.6219 145.724ZM116.912 136.425C115.166 137.433 113.608 137.961 112.236 138.009C110.885 138.021 109.825 137.577 109.056 136.677C108.308 135.765 107.933 134.457 107.933 132.753C107.933 131.721 108.131 130.515 108.526 129.135C108.921 127.755 109.492 126.261 110.241 124.653L116.912 110.109L122.649 106.797L116.788 119.397C117.141 119.073 117.484 118.791 117.817 118.551C118.17 118.275 118.502 118.047 118.814 117.867C120.228 117.051 121.475 116.691 122.555 116.787C123.657 116.847 124.52 117.321 125.143 118.209C125.767 119.097 126.078 120.345 126.078 121.953C126.078 123.753 125.683 125.577 124.894 127.425C124.125 129.261 123.044 130.965 121.651 132.537C120.28 134.097 118.7 135.393 116.912 136.425ZM117.068 131.511C117.817 131.079 118.482 130.515 119.064 129.819C119.646 129.099 120.092 128.325 120.404 127.497C120.737 126.633 120.903 125.769 120.903 124.905C120.903 124.065 120.737 123.429 120.404 122.997C120.092 122.529 119.646 122.283 119.064 122.259C118.482 122.235 117.817 122.439 117.068 122.871C116.32 123.303 115.634 123.879 115.011 124.599C114.408 125.283 113.94 126.045 113.608 126.885C113.275 127.725 113.109 128.565 113.109 129.405C113.109 130.269 113.275 130.941 113.608 131.421C113.94 131.901 114.408 132.147 115.011 132.159C115.634 132.159 116.32 131.943 117.068 131.511ZM137.159 124.736C135.413 125.744 133.854 126.272 132.483 126.32C131.132 126.332 130.072 125.888 129.303 124.988C128.554 124.076 128.18 122.768 128.18 121.064C128.18 120.032 128.378 118.826 128.773 117.446C129.167 116.066 129.739 114.572 130.487 112.964L137.159 98.4196L142.896 95.1076L137.034 107.708C137.388 107.384 137.731 107.102 138.063 106.862C138.417 106.586 138.749 106.358 139.061 106.178C140.474 105.362 141.721 105.002 142.802 105.098C143.904 105.158 144.766 105.632 145.39 106.52C146.013 107.408 146.325 108.656 146.325 110.264C146.325 112.064 145.93 113.888 145.14 115.736C144.371 117.572 143.291 119.276 141.898 120.848C140.526 122.408 138.947 123.704 137.159 124.736ZM137.315 119.822C138.063 119.39 138.728 118.826 139.31 118.13C139.892 117.41 140.339 116.636 140.651 115.808C140.983 114.944 141.15 114.08 141.15 113.216C141.15 112.376 140.983 111.74 140.651 111.308C140.339 110.84 139.892 110.594 139.31 110.57C138.728 110.546 138.063 110.75 137.315 111.182C136.567 111.614 135.881 112.19 135.257 112.91C134.655 113.594 134.187 114.356 133.854 115.196C133.522 116.036 133.356 116.876 133.356 117.716C133.356 118.58 133.522 119.252 133.854 119.732C134.187 120.212 134.655 120.458 135.257 120.47C135.881 120.47 136.567 120.254 137.315 119.822Z" fill="black"/>
</svg>
