<svg width="256" height="256" viewBox="0 0 256 256" fill="none" xmlns="http://www.w3.org/2000/svg">
<path d="M154.461 100.267C154.461 122.063 139.159 148.568 120.282 159.467C101.405 170.365 86.1028 161.53 86.1028 139.733C86.1028 117.936 101.405 91.4316 120.282 80.5332C139.159 69.6348 154.461 78.4697 154.461 100.267Z" fill="white" stroke="#1019EF" stroke-width="6.4"/>
<mask id="path-2-inside-1_787_2081" fill="white">
<path d="M120.132 132.533L164.934 106.667L164.934 137.067L120.132 162.933L120.132 132.533Z"/>
</mask>
<path d="M120.132 132.533L164.934 106.667L164.934 137.067L120.132 162.933L120.132 132.533Z" fill="white"/>
<path d="M164.934 106.667L170.477 103.467L170.477 97.0665L164.934 100.267L164.934 106.667ZM164.934 137.067L164.934 143.467L170.477 140.267L170.477 133.867L164.934 137.067ZM120.132 138.933L164.934 113.067L164.934 100.267L120.132 126.133L120.132 138.933ZM159.391 109.867L159.391 140.267L170.477 133.867L170.477 103.467L159.391 109.867ZM164.934 130.667L120.132 156.533L120.132 169.333L164.934 143.467L164.934 130.667Z" fill="#1019EF" mask="url(#path-2-inside-1_787_2081)"/>
<path d="M104.665 138.665L150.729 110.933L148.132 125.066L104.665 151.208L104.665 138.665Z" fill="white"/>
<path d="M96.4863 147.534L96.4863 144.222L105.746 129.408C105.808 129.3 105.871 129.192 105.933 129.084C106.016 128.964 106.089 128.85 106.151 128.742C107.024 127.326 107.648 126.198 108.022 125.358C108.417 124.506 108.614 123.684 108.614 122.892C108.614 122.172 108.458 121.614 108.147 121.218C107.835 120.798 107.419 120.57 106.899 120.534C106.38 120.498 105.798 120.666 105.154 121.038C104.405 121.47 103.73 122.076 103.127 122.856C102.545 123.624 102.077 124.506 101.724 125.502C101.392 126.462 101.204 127.47 101.163 128.526L96.5487 131.19C96.5487 131.094 96.5487 130.998 96.5487 130.902C96.5487 129.126 96.902 127.29 97.6087 125.394C98.3154 123.498 99.3338 121.734 100.664 120.102C101.994 118.47 103.512 117.162 105.216 116.178C106.775 115.278 108.178 114.828 109.425 114.828C110.672 114.804 111.649 115.212 112.355 116.052C113.062 116.868 113.415 118.056 113.415 119.616C113.415 121.056 113.052 122.61 112.324 124.278C111.597 125.946 110.495 127.938 109.019 130.254L103.875 138.372L103.875 138.732L112.917 133.512L112.917 138.048L96.4863 147.534ZM120.654 133.581L120.654 114.825L120.311 115.023L115.26 122.259L115.26 116.355L121.371 107.535L125.704 105.033L125.704 130.665L120.654 133.581ZM131.054 127.577L138.443 102.503L128.404 108.299L128.404 103.475L144.273 94.3125L144.273 97.8045L136.416 124.481L131.054 127.577Z" fill="black"/>
</svg>
