<svg width="256" height="256" viewBox="0 0 256 256" fill="none" xmlns="http://www.w3.org/2000/svg">
<path d="M154.461 100.267C154.461 122.064 139.159 148.568 120.282 159.467C101.405 170.365 86.1028 161.53 86.1028 139.733C86.1028 117.937 101.405 91.4318 120.282 80.5334C139.159 69.635 154.461 78.4699 154.461 100.267Z" fill="white" stroke="#1019EF" stroke-width="6.4"/>
<mask id="path-2-inside-1_787_812" fill="white">
<path d="M120.132 132.533L164.934 106.667L164.934 137.067L120.132 162.933L120.132 132.533Z"/>
</mask>
<path d="M120.132 132.533L164.934 106.667L164.934 137.067L120.132 162.933L120.132 132.533Z" fill="white"/>
<path d="M164.934 106.667L170.477 103.467L170.477 97.0668L164.934 100.267L164.934 106.667ZM164.934 137.067L164.934 143.467L170.477 140.267L170.477 133.867L164.934 137.067ZM120.132 138.933L164.934 113.067L164.934 100.267L120.132 126.133L120.132 138.933ZM159.391 109.867L159.391 140.267L170.477 133.867L170.477 103.467L159.391 109.867ZM164.934 130.667L120.132 156.533L120.132 169.333L164.934 143.467L164.934 130.667Z" fill="#1019EF" mask="url(#path-2-inside-1_787_812)"/>
<path d="M104.665 138.666L150.729 110.933L148.132 125.067L104.665 151.209L104.665 138.666Z" fill="white"/>
<path d="M107.686 107.564C110.273 106.071 112.567 105.315 114.568 105.297C116.6 105.226 118.171 105.866 119.279 107.217C120.419 108.551 120.988 110.462 120.988 112.951C120.988 114.48 120.696 116.266 120.111 118.311C119.526 120.355 118.694 122.56 117.617 124.924L107.686 146.497L99.1875 151.404L107.871 132.737C107.347 133.217 106.824 133.662 106.3 134.071C105.808 134.426 105.331 134.737 104.869 135.004C102.775 136.213 100.912 136.773 99.2799 136.684C97.6787 136.577 96.4162 135.866 95.4925 134.551C94.5687 133.2 94.1068 131.351 94.1068 129.004C94.1068 126.337 94.6765 123.644 95.8158 120.924C96.9859 118.186 98.5871 115.662 100.619 113.351C102.682 111.022 105.038 109.093 107.686 107.564ZM107.455 114.844C106.377 115.466 105.407 116.293 104.545 117.324C103.683 118.355 103.006 119.511 102.513 120.791C102.02 122.035 101.774 123.297 101.774 124.577C101.774 125.822 102.02 126.782 102.513 127.457C103.006 128.097 103.683 128.453 104.545 128.524C105.407 128.56 106.377 128.266 107.455 127.644C108.564 127.004 109.564 126.16 110.457 125.111C111.381 124.044 112.089 122.889 112.582 121.644C113.075 120.4 113.321 119.155 113.321 117.911C113.321 116.631 113.075 115.635 112.582 114.924C112.089 114.213 111.381 113.875 110.457 113.911C109.564 113.893 108.564 114.204 107.455 114.844ZM139.114 128.406L139.114 120.566L123.364 129.659L123.364 124.806L135.881 92.2991L146.781 86.0058L146.781 109.472L150.615 107.259L150.615 113.926L146.781 116.139L146.781 123.979L139.114 128.406ZM130.8 118.699L139.068 113.926L139.068 97.8191L138.606 98.0858L130.8 118.699Z" fill="black"/>
</svg>
