<svg width="256" height="256" viewBox="0 0 256 256" fill="none" xmlns="http://www.w3.org/2000/svg">
<path d="M154.461 100.267C154.461 122.064 139.159 148.568 120.282 159.467C101.405 170.365 86.1028 161.53 86.1028 139.733C86.1028 117.937 101.405 91.4318 120.282 80.5334C139.159 69.635 154.461 78.4699 154.461 100.267Z" fill="white" stroke="#1019EF" stroke-width="6.4"/>
<mask id="path-2-inside-1_787_1206" fill="white">
<path d="M120.132 132.533L164.934 106.667L164.934 137.067L120.132 162.933L120.132 132.533Z"/>
</mask>
<path d="M120.132 132.533L164.934 106.667L164.934 137.067L120.132 162.933L120.132 132.533Z" fill="white"/>
<path d="M164.934 106.667L170.477 103.467L170.477 97.0668L164.934 100.267L164.934 106.667ZM164.934 137.067L164.934 143.467L170.477 140.267L170.477 133.867L164.934 137.067ZM120.132 138.933L164.934 113.067L164.934 100.267L120.132 126.133L120.132 138.933ZM159.391 109.867L159.391 140.267L170.477 133.867L170.477 103.467L159.391 109.867ZM164.934 130.667L120.132 156.533L120.132 169.333L164.934 143.467L164.934 130.667Z" fill="#1019EF" mask="url(#path-2-inside-1_787_1206)"/>
<path d="M104.665 138.666L150.729 110.933L148.132 125.067L104.665 151.209L104.665 138.666Z" fill="white"/>
<path d="M97.8493 146.747L97.8493 127.991L97.5064 128.189L92.4557 135.425L92.4557 129.521L98.5664 120.701L102.9 118.199L102.9 143.831L97.8493 146.747ZM116.574 136.621C114.599 137.761 112.843 138.211 111.305 137.971C109.788 137.695 108.603 136.783 107.751 135.235C106.899 133.663 106.473 131.569 106.473 128.953C106.473 126.337 106.899 123.763 107.751 121.231C108.603 118.675 109.788 116.395 111.305 114.391C112.843 112.351 114.599 110.761 116.574 109.621C118.528 108.493 120.274 108.061 121.812 108.325C123.35 108.565 124.545 109.471 125.397 111.043C126.249 112.591 126.675 114.673 126.675 117.289C126.675 119.905 126.249 122.491 125.397 125.047C124.545 127.579 123.35 129.865 121.812 131.905C120.274 133.921 118.528 135.493 116.574 136.621ZM116.574 131.473C117.551 130.909 118.403 130.069 119.131 128.953C119.879 127.825 120.461 126.505 120.876 124.993C121.292 123.481 121.5 121.909 121.5 120.277C121.5 118.645 121.292 117.313 120.876 116.281C120.461 115.249 119.879 114.601 119.131 114.337C118.403 114.061 117.551 114.205 116.574 114.769C115.597 115.333 114.735 116.179 113.986 117.307C113.238 118.435 112.656 119.755 112.24 121.267C111.846 122.767 111.648 124.333 111.648 125.965C111.648 127.597 111.846 128.935 112.24 129.979C112.656 131.011 113.238 131.659 113.986 131.923C114.735 132.187 115.597 132.037 116.574 131.473ZM138.066 124.212C136.32 125.22 134.761 125.748 133.389 125.796C132.038 125.808 130.978 125.364 130.209 124.464C129.461 123.552 129.087 122.244 129.087 120.54C129.087 119.508 129.284 118.302 129.679 116.922C130.074 115.542 130.646 114.048 131.394 112.44L138.066 97.8962L143.802 94.5842L137.941 107.184C138.294 106.86 138.637 106.578 138.97 106.338C139.323 106.062 139.656 105.834 139.968 105.654C141.381 104.838 142.628 104.478 143.709 104.574C144.81 104.634 145.673 105.108 146.297 105.996C146.92 106.884 147.232 108.132 147.232 109.74C147.232 111.54 146.837 113.364 146.047 115.212C145.278 117.048 144.197 118.752 142.805 120.324C141.433 121.884 139.853 123.18 138.066 124.212ZM138.222 119.298C138.97 118.866 139.635 118.302 140.217 117.606C140.799 116.886 141.246 116.112 141.558 115.284C141.89 114.42 142.056 113.556 142.056 112.692C142.056 111.852 141.89 111.216 141.558 110.784C141.246 110.316 140.799 110.07 140.217 110.046C139.635 110.022 138.97 110.226 138.222 110.658C137.473 111.09 136.788 111.666 136.164 112.386C135.561 113.07 135.094 113.832 134.761 114.672C134.429 115.512 134.262 116.352 134.262 117.192C134.262 118.056 134.429 118.728 134.761 119.208C135.094 119.688 135.561 119.934 136.164 119.946C136.788 119.946 137.473 119.73 138.222 119.298Z" fill="black"/>
</svg>
