<svg width="256" height="256" viewBox="0 0 256 256" fill="none" xmlns="http://www.w3.org/2000/svg">
<path d="M154.461 100.267C154.461 122.063 139.159 148.568 120.282 159.467C101.405 170.365 86.1028 161.53 86.1028 139.733C86.1028 117.936 101.405 91.4316 120.282 80.5332C139.159 69.6348 154.461 78.4697 154.461 100.267Z" fill="white" stroke="#1019EF" stroke-width="6.4"/>
<mask id="path-2-inside-1_787_2070" fill="white">
<path d="M120.132 132.533L164.934 106.667L164.934 137.067L120.132 162.933L120.132 132.533Z"/>
</mask>
<path d="M120.132 132.533L164.934 106.667L164.934 137.067L120.132 162.933L120.132 132.533Z" fill="white"/>
<path d="M164.934 106.667L170.477 103.467L170.477 97.0665L164.934 100.267L164.934 106.667ZM164.934 137.067L164.934 143.467L170.477 140.267L170.477 133.867L164.934 137.067ZM120.132 138.933L164.934 113.067L164.934 100.267L120.132 126.133L120.132 138.933ZM159.391 109.867L159.391 140.267L170.477 133.867L170.477 103.467L159.391 109.867ZM164.934 130.667L120.132 156.533L120.132 169.333L164.934 143.467L164.934 130.667Z" fill="#1019EF" mask="url(#path-2-inside-1_787_2070)"/>
<path d="M104.665 138.665L150.729 110.933L148.132 125.066L104.665 151.208L104.665 138.665Z" fill="white"/>
<path d="M90.5103 150.984L90.5103 147.672L99.7699 132.858C99.8322 132.75 99.8946 132.642 99.957 132.534C100.04 132.414 100.113 132.3 100.175 132.192C101.048 130.776 101.672 129.648 102.046 128.808C102.441 127.956 102.638 127.134 102.638 126.342C102.638 125.622 102.482 125.064 102.171 124.668C101.859 124.248 101.443 124.02 100.923 123.984C100.404 123.948 99.8219 124.116 99.1775 124.488C98.4293 124.92 97.7538 125.526 97.151 126.306C96.5691 127.074 96.1014 127.956 95.7481 128.952C95.4155 129.912 95.2285 130.92 95.1869 131.976L90.5727 134.64C90.5727 134.544 90.5727 134.448 90.5727 134.352C90.5727 132.576 90.926 130.74 91.6327 128.844C92.3394 126.948 93.3578 125.184 94.6881 123.552C96.0183 121.92 97.5355 120.612 99.2399 119.628C100.799 118.728 102.202 118.278 103.449 118.278C104.696 118.254 105.673 118.662 106.379 119.502C107.086 120.318 107.439 121.506 107.439 123.066C107.439 124.506 107.076 126.06 106.348 127.728C105.621 129.396 104.519 131.388 103.043 133.704L97.8993 141.822L97.8993 142.182L106.941 136.962L106.941 141.498L90.5103 150.984ZM119.884 134.709C117.91 135.849 116.153 136.299 114.615 136.059C113.098 135.783 111.913 134.871 111.061 133.323C110.209 131.751 109.783 129.657 109.783 127.041C109.783 124.425 110.209 121.851 111.061 119.319C111.913 116.763 113.098 114.483 114.615 112.479C116.153 110.439 117.91 108.849 119.884 107.709C121.838 106.581 123.584 106.149 125.122 106.413C126.66 106.653 127.855 107.559 128.707 109.131C129.559 110.679 129.985 112.761 129.985 115.377C129.985 117.993 129.559 120.579 128.707 123.135C127.855 125.667 126.66 127.953 125.122 129.993C123.584 132.009 121.838 133.581 119.884 134.709ZM119.884 129.561C120.861 128.997 121.713 128.157 122.441 127.041C123.189 125.913 123.771 124.593 124.187 123.081C124.602 121.569 124.81 119.997 124.81 118.365C124.81 116.733 124.602 115.401 124.187 114.369C123.771 113.337 123.189 112.689 122.441 112.425C121.713 112.149 120.861 112.293 119.884 112.857C118.907 113.421 118.045 114.267 117.296 115.395C116.548 116.523 115.966 117.843 115.551 119.355C115.156 120.855 114.958 122.421 114.958 124.053C114.958 125.685 115.156 127.023 115.551 128.067C115.966 129.099 116.548 129.747 117.296 130.011C118.045 130.275 118.907 130.125 119.884 129.561ZM141.376 122.301C139.63 123.309 138.071 123.837 136.699 123.885C135.348 123.897 134.288 123.453 133.519 122.553C132.771 121.641 132.397 120.333 132.397 118.629C132.397 117.597 132.594 116.391 132.989 115.011C133.384 113.631 133.956 112.137 134.704 110.529L141.376 95.9851L147.113 92.6731L141.251 105.273C141.605 104.949 141.948 104.667 142.28 104.427C142.633 104.151 142.966 103.923 143.278 103.743C144.691 102.927 145.938 102.567 147.019 102.663C148.121 102.723 148.983 103.197 149.607 104.085C150.23 104.973 150.542 106.221 150.542 107.829C150.542 109.629 150.147 111.453 149.357 113.301C148.588 115.137 147.507 116.841 146.115 118.413C144.743 119.973 143.163 121.269 141.376 122.301ZM141.532 117.387C142.28 116.955 142.945 116.391 143.527 115.695C144.109 114.975 144.556 114.201 144.868 113.373C145.2 112.509 145.367 111.645 145.367 110.781C145.367 109.941 145.2 109.305 144.868 108.873C144.556 108.405 144.109 108.159 143.527 108.135C142.945 108.111 142.28 108.315 141.532 108.747C140.784 109.179 140.098 109.755 139.474 110.475C138.871 111.159 138.404 111.921 138.071 112.761C137.739 113.601 137.572 114.441 137.572 115.281C137.572 116.145 137.739 116.817 138.071 117.297C138.404 117.777 138.871 118.023 139.474 118.035C140.098 118.035 140.784 117.819 141.532 117.387Z" fill="black"/>
</svg>
