<svg width="256" height="256" viewBox="0 0 256 256" fill="none" xmlns="http://www.w3.org/2000/svg">
<path d="M154.461 100.267C154.461 122.064 139.159 148.568 120.282 159.467C101.405 170.365 86.1028 161.53 86.1028 139.733C86.1028 117.937 101.405 91.4318 120.282 80.5334C139.159 69.635 154.461 78.4699 154.461 100.267Z" fill="white" stroke="#1019EF" stroke-width="6.4"/>
<mask id="path-2-inside-1_787_1239" fill="white">
<path d="M120.132 132.533L164.934 106.667L164.934 137.067L120.132 162.933L120.132 132.533Z"/>
</mask>
<path d="M120.132 132.533L164.934 106.667L164.934 137.067L120.132 162.933L120.132 132.533Z" fill="white"/>
<path d="M164.934 106.667L170.477 103.467L170.477 97.0668L164.934 100.267L164.934 106.667ZM164.934 137.067L164.934 143.467L170.477 140.267L170.477 133.867L164.934 137.067ZM120.132 138.933L164.934 113.067L164.934 100.267L120.132 126.133L120.132 138.933ZM159.391 109.867L159.391 140.267L170.477 133.867L170.477 103.467L159.391 109.867ZM164.934 130.667L120.132 156.533L120.132 169.333L164.934 143.467L164.934 130.667Z" fill="#1019EF" mask="url(#path-2-inside-1_787_1239)"/>
<path d="M104.665 138.666L150.729 110.933L148.132 125.067L104.665 151.209L104.665 138.666Z" fill="white"/>
<path d="M99.676 145.693L99.676 126.937L99.3331 127.135L94.2824 134.371L94.2824 128.467L100.393 119.647L104.727 117.145L104.727 142.777L99.676 145.693ZM116.655 136.574C115.013 137.522 113.516 137.966 112.165 137.906C110.835 137.81 109.775 137.258 108.985 136.25C108.216 135.206 107.801 133.766 107.738 131.93L112.539 129.158C112.539 130.142 112.716 130.916 113.069 131.48C113.423 132.044 113.901 132.38 114.504 132.488C115.127 132.56 115.823 132.374 116.592 131.93C117.341 131.498 118.006 130.934 118.588 130.238C119.17 129.542 119.627 128.786 119.96 127.97C120.292 127.13 120.458 126.314 120.458 125.522C120.458 124.73 120.282 124.112 119.928 123.668C119.596 123.212 119.128 122.978 118.525 122.966C117.943 122.918 117.289 123.104 116.561 123.524C116.249 123.704 115.917 123.944 115.564 124.244C115.21 124.52 114.919 124.784 114.691 125.036L113.568 122.264L118.12 114.308L118.12 113.948L109.141 119.132L109.141 114.596L124.511 105.722L124.511 109.214L119.242 118.484C120.406 118.028 121.446 117.92 122.36 118.16C123.295 118.364 124.023 118.904 124.543 119.78C125.083 120.62 125.353 121.724 125.353 123.092C125.353 124.7 124.979 126.368 124.231 128.096C123.503 129.788 122.474 131.39 121.144 132.902C119.814 134.39 118.318 135.614 116.655 136.574ZM136.425 98.1593C138.171 97.1513 139.72 96.6413 141.071 96.6293C142.442 96.5813 143.502 97.0133 144.251 97.9253C145.02 98.8253 145.404 100.115 145.404 101.795C145.404 102.827 145.207 104.033 144.812 105.413C144.417 106.793 143.856 108.281 143.128 109.877L136.425 124.439L130.689 127.751L136.55 115.151C136.197 115.475 135.843 115.775 135.49 116.051C135.157 116.291 134.835 116.501 134.524 116.681C133.11 117.497 131.853 117.875 130.751 117.815C129.67 117.743 128.818 117.263 128.195 116.375C127.571 115.463 127.259 114.215 127.259 112.631C127.259 110.831 127.644 109.013 128.413 107.177C129.203 105.329 130.283 103.625 131.655 102.065C133.048 100.493 134.638 99.1913 136.425 98.1593ZM136.269 103.073C135.542 103.493 134.887 104.051 134.305 104.747C133.723 105.443 133.266 106.223 132.933 107.087C132.601 107.927 132.435 108.779 132.435 109.643C132.435 110.483 132.601 111.131 132.933 111.587C133.266 112.019 133.723 112.259 134.305 112.307C134.887 112.331 135.542 112.133 136.269 111.713C137.018 111.281 137.693 110.711 138.296 110.003C138.919 109.283 139.397 108.503 139.73 107.663C140.063 106.823 140.229 105.983 140.229 105.143C140.229 104.279 140.063 103.607 139.73 103.127C139.397 102.647 138.919 102.419 138.296 102.443C137.693 102.431 137.018 102.641 136.269 103.073Z" fill="black"/>
</svg>
