<svg width="256" height="256" viewBox="0 0 256 256" fill="none" xmlns="http://www.w3.org/2000/svg">
<path d="M154.461 100.267C154.461 122.063 139.159 148.568 120.282 159.467C101.405 170.365 86.1028 161.53 86.1028 139.733C86.1028 117.936 101.405 91.4317 120.282 80.5333C139.159 69.6349 154.461 78.4698 154.461 100.267Z" fill="white" stroke="#1019EF" stroke-width="6.4"/>
<mask id="path-2-inside-1_787_400" fill="white">
<path d="M120.132 132.533L164.934 106.667L164.934 137.067L120.132 162.933L120.132 132.533Z"/>
</mask>
<path d="M120.132 132.533L164.934 106.667L164.934 137.067L120.132 162.933L120.132 132.533Z" fill="white"/>
<path d="M164.934 106.667L170.477 103.467L170.477 97.0666L164.934 100.267L164.934 106.667ZM164.934 137.067L164.934 143.467L170.477 140.267L170.477 133.867L164.934 137.067ZM120.132 138.933L164.934 113.067L164.934 100.267L120.132 126.133L120.132 138.933ZM159.391 109.867L159.391 140.267L170.477 133.867L170.477 103.467L159.391 109.867ZM164.934 130.667L120.132 156.533L120.132 169.333L164.934 143.467L164.934 130.667Z" fill="#1019EF" mask="url(#path-2-inside-1_787_400)"/>
<path d="M104.665 138.665L150.729 110.933L148.132 125.067L104.665 151.209L104.665 138.665Z" fill="white"/>
<path d="M121.94 139.281C119.23 140.846 116.859 141.752 114.827 142.001C112.826 142.197 111.255 141.77 110.116 140.721C109.007 139.654 108.453 138.019 108.453 135.814C108.453 133.432 109.054 131.059 110.255 128.694C111.455 126.33 112.995 124.339 114.873 122.721L114.873 122.188C113.395 122.366 112.179 122.019 111.225 121.148C110.301 120.223 109.839 118.783 109.839 116.828C109.839 114.73 110.332 112.597 111.317 110.428C112.333 108.241 113.749 106.197 115.566 104.294C117.414 102.374 119.538 100.721 121.94 99.3344C124.28 97.9833 126.359 97.2277 128.176 97.0677C129.992 96.9077 131.409 97.3344 132.425 98.3477C133.472 99.3077 133.995 100.819 133.995 102.881C133.995 104.837 133.518 106.819 132.563 108.828C131.64 110.783 130.423 112.534 128.915 114.081L128.915 114.614C130.824 114.046 132.379 114.25 133.58 115.228C134.78 116.206 135.381 117.886 135.381 120.268C135.381 122.472 134.811 124.757 133.672 127.121C132.563 129.468 130.993 131.708 128.961 133.841C126.928 135.939 124.588 137.752 121.94 139.281ZM121.94 115.761C122.864 115.228 123.695 114.552 124.434 113.734C125.204 112.863 125.805 111.948 126.236 110.988C126.667 109.992 126.882 109.032 126.882 108.108C126.882 107.219 126.667 106.543 126.236 106.081C125.805 105.583 125.204 105.361 124.434 105.414C123.695 105.414 122.864 105.681 121.94 106.214C120.955 106.783 120.077 107.503 119.307 108.374C118.568 109.192 117.983 110.099 117.552 111.094C117.152 112.037 116.952 112.952 116.952 113.841C116.952 114.766 117.152 115.486 117.552 116.001C117.983 116.463 118.584 116.686 119.354 116.668C120.123 116.614 120.986 116.312 121.94 115.761ZM121.94 132.348C122.956 131.761 123.895 131.006 124.758 130.081C125.62 129.121 126.282 128.099 126.744 127.014C127.206 125.894 127.437 124.819 127.437 123.788C127.437 122.721 127.19 121.921 126.697 121.388C126.236 120.837 125.574 120.579 124.711 120.614C123.88 120.632 122.956 120.934 121.94 121.521C120.862 122.143 119.908 122.926 119.076 123.868C118.245 124.81 117.583 125.832 117.09 126.934C116.629 128.019 116.398 129.094 116.398 130.161C116.398 131.192 116.629 132.001 117.09 132.588C117.583 133.121 118.245 133.379 119.076 133.361C119.908 133.308 120.862 132.97 121.94 132.348Z" fill="black"/>
</svg>
