<svg width="256" height="256" viewBox="0 0 256 256" fill="none" xmlns="http://www.w3.org/2000/svg">
<path d="M154.461 100.267C154.461 122.063 139.159 148.568 120.282 159.467C101.405 170.365 86.1028 161.53 86.1028 139.733C86.1028 117.936 101.405 91.4317 120.282 80.5333C139.159 69.6349 154.461 78.4698 154.461 100.267Z" fill="white" stroke="#1019EF" stroke-width="6.4"/>
<mask id="path-2-inside-1_787_355" fill="white">
<path d="M120.132 132.533L164.934 106.667L164.934 137.067L120.132 162.933L120.132 132.533Z"/>
</mask>
<path d="M120.132 132.533L164.934 106.667L164.934 137.067L120.132 162.933L120.132 132.533Z" fill="white"/>
<path d="M164.934 106.667L170.477 103.467L170.477 97.0666L164.934 100.267L164.934 106.667ZM164.934 137.067L164.934 143.467L170.477 140.267L170.477 133.867L164.934 137.067ZM120.132 138.933L164.934 113.067L164.934 100.267L120.132 126.133L120.132 138.933ZM159.392 109.867L159.392 140.267L170.477 133.867L170.477 103.467L159.392 109.867ZM164.934 130.667L120.132 156.533L120.132 169.333L164.934 143.467L164.934 130.667Z" fill="#1019EF" mask="url(#path-2-inside-1_787_355)"/>
<path d="M104.665 138.665L150.729 110.933L148.132 125.067L104.665 151.209L104.665 138.665Z" fill="white"/>
<path d="M122.031 139.282C119.599 140.686 117.382 141.344 115.38 141.255C113.41 141.113 111.839 140.295 110.669 138.802C109.53 137.255 108.914 135.122 108.822 132.402L115.935 128.295C115.935 129.753 116.196 130.9 116.72 131.735C117.243 132.571 117.951 133.068 118.844 133.228C119.768 133.335 120.8 133.06 121.939 132.402C123.048 131.762 124.033 130.926 124.895 129.895C125.757 128.864 126.435 127.744 126.927 126.535C127.42 125.291 127.666 124.082 127.666 122.908C127.666 121.735 127.405 120.82 126.881 120.162C126.388 119.486 125.696 119.14 124.803 119.122C123.941 119.051 122.971 119.326 121.893 119.948C121.431 120.215 120.938 120.571 120.415 121.015C119.891 121.424 119.46 121.815 119.122 122.188L117.459 118.082L124.202 106.295L124.202 105.762L110.9 113.442L110.9 106.722L133.671 93.5751L133.671 98.7485L125.865 112.482C127.589 111.806 129.129 111.646 130.484 112.002C131.869 112.304 132.947 113.104 133.717 114.402C134.518 115.646 134.918 117.282 134.918 119.308C134.918 121.691 134.364 124.162 133.255 126.722C132.177 129.228 130.653 131.602 128.683 133.842C126.712 136.046 124.495 137.86 122.031 139.282Z" fill="black"/>
</svg>
