<svg width="256" height="256" viewBox="0 0 256 256" fill="none" xmlns="http://www.w3.org/2000/svg">
<path d="M154.461 100.267C154.461 122.063 139.159 148.568 120.282 159.467C101.405 170.365 86.1028 161.53 86.1028 139.733C86.1028 117.936 101.405 91.4317 120.282 80.5333C139.159 69.6349 154.461 78.4698 154.461 100.267Z" fill="white" stroke="#1019EF" stroke-width="6.4"/>
<mask id="path-2-inside-1_787_346" fill="white">
<path d="M120.132 132.533L164.934 106.667L164.934 137.067L120.132 162.933L120.132 132.533Z"/>
</mask>
<path d="M120.132 132.533L164.934 106.667L164.934 137.067L120.132 162.933L120.132 132.533Z" fill="white"/>
<path d="M164.934 106.667L170.477 103.467L170.477 97.0666L164.934 100.267L164.934 106.667ZM164.934 137.067L164.934 143.467L170.477 140.267L170.477 133.867L164.934 137.067ZM120.132 138.933L164.934 113.067L164.934 100.267L120.132 126.133L120.132 138.933ZM159.392 109.867L159.392 140.267L170.477 133.867L170.477 103.467L159.392 109.867ZM164.934 130.667L120.132 156.533L120.132 169.333L164.934 143.467L164.934 130.667Z" fill="#1019EF" mask="url(#path-2-inside-1_787_346)"/>
<path d="M104.665 138.665L150.729 110.933L148.132 125.067L104.665 151.209L104.665 138.665Z" fill="white"/>
<path d="M110.108 145.152L110.108 140.245L123.826 118.299C123.919 118.139 124.011 117.979 124.103 117.819C124.226 117.641 124.334 117.472 124.427 117.312C125.72 115.214 126.644 113.543 127.198 112.299C127.783 111.037 128.075 109.819 128.075 108.645C128.075 107.579 127.845 106.752 127.383 106.165C126.921 105.543 126.305 105.205 125.535 105.152C124.765 105.099 123.903 105.348 122.949 105.899C121.84 106.539 120.839 107.437 119.946 108.592C119.084 109.73 118.391 111.037 117.868 112.512C117.375 113.934 117.098 115.428 117.037 116.992L110.201 120.939C110.201 120.797 110.201 120.654 110.201 120.512C110.201 117.881 110.724 115.161 111.771 112.352C112.818 109.543 114.327 106.93 116.298 104.512C118.268 102.094 120.516 100.157 123.041 98.6988C125.35 97.3654 127.429 96.6988 129.276 96.6988C131.124 96.6632 132.571 97.2677 133.618 98.5121C134.665 99.721 135.188 101.481 135.188 103.792C135.188 105.925 134.65 108.228 133.572 110.699C132.494 113.17 130.862 116.121 128.676 119.552L121.055 131.579L121.055 132.112L134.449 124.379L134.449 131.099L110.108 145.152Z" fill="black"/>
</svg>
