<svg width="256" height="256" viewBox="0 0 256 256" fill="none" xmlns="http://www.w3.org/2000/svg">
<path d="M154.461 100.267C154.461 122.064 139.159 148.568 120.282 159.467C101.405 170.365 86.1028 161.53 86.1028 139.733C86.1028 117.937 101.405 91.4318 120.282 80.5334C139.159 69.635 154.461 78.4699 154.461 100.267Z" fill="white" stroke="#1019EF" stroke-width="6.4"/>
<mask id="path-2-inside-1_787_794" fill="white">
<path d="M120.132 132.533L164.934 106.667L164.934 137.067L120.132 162.933L120.132 132.533Z"/>
</mask>
<path d="M120.132 132.533L164.934 106.667L164.934 137.067L120.132 162.933L120.132 132.533Z" fill="white"/>
<path d="M164.934 106.667L170.477 103.467L170.477 97.0668L164.934 100.267L164.934 106.667ZM164.934 137.067L164.934 143.467L170.477 140.267L170.477 133.867L164.934 137.067ZM120.132 138.933L164.934 113.067L164.934 100.267L120.132 126.133L120.132 138.933ZM159.391 109.867L159.391 140.267L170.477 133.867L170.477 103.467L159.391 109.867ZM164.934 130.667L120.132 156.533L120.132 169.333L164.934 143.467L164.934 130.667Z" fill="#1019EF" mask="url(#path-2-inside-1_787_794)"/>
<path d="M104.665 138.666L150.729 110.933L148.132 125.067L104.665 151.209L104.665 138.666Z" fill="white"/>
<path d="M100.653 150.611L111.6 113.465L96.7271 122.051L96.7271 114.905L120.237 101.331L120.237 106.505L108.597 146.025L100.653 150.611ZM133.594 132.606C131.007 134.1 128.698 134.882 126.666 134.953C124.664 134.971 123.094 134.313 121.954 132.98C120.846 131.628 120.292 129.691 120.292 127.166C120.292 125.637 120.584 123.851 121.169 121.806C121.754 119.762 122.601 117.548 123.71 115.166L133.594 93.6196L142.092 88.7129L133.409 107.38C133.933 106.9 134.441 106.482 134.933 106.126C135.457 105.717 135.949 105.38 136.411 105.113C138.505 103.904 140.353 103.371 141.954 103.513C143.586 103.602 144.864 104.304 145.787 105.62C146.711 106.935 147.173 108.784 147.173 111.166C147.173 113.833 146.588 116.535 145.418 119.273C144.279 121.993 142.677 124.517 140.614 126.846C138.582 129.157 136.242 131.077 133.594 132.606ZM133.825 125.326C134.933 124.686 135.919 123.851 136.781 122.82C137.643 121.753 138.305 120.606 138.767 119.38C139.26 118.1 139.506 116.82 139.506 115.54C139.506 114.295 139.26 113.353 138.767 112.713C138.305 112.02 137.643 111.655 136.781 111.62C135.919 111.584 134.933 111.886 133.825 112.526C132.716 113.166 131.7 114.02 130.776 115.086C129.883 116.1 129.191 117.228 128.698 118.473C128.205 119.717 127.959 120.962 127.959 122.206C127.959 123.486 128.205 124.482 128.698 125.193C129.191 125.904 129.883 126.268 130.776 126.286C131.7 126.286 132.716 125.966 133.825 125.326Z" fill="black"/>
</svg>
