<svg width="256" height="256" viewBox="0 0 256 256" fill="none" xmlns="http://www.w3.org/2000/svg">
<path d="M154.461 100.267C154.461 122.064 139.159 148.568 120.282 159.467C101.405 170.365 86.1028 161.53 86.1028 139.733C86.1028 117.937 101.405 91.4318 120.282 80.5334C139.159 69.6349 154.461 78.4698 154.461 100.267Z" fill="white" stroke="#1019EF" stroke-width="6.4"/>
<mask id="path-2-inside-1_787_535" fill="white">
<path d="M120.132 132.533L164.934 106.667L164.934 137.067L120.132 162.933L120.132 132.533Z"/>
</mask>
<path d="M120.132 132.533L164.934 106.667L164.934 137.067L120.132 162.933L120.132 132.533Z" fill="white"/>
<path d="M164.934 106.667L170.477 103.467L170.477 97.0666L164.934 100.267L164.934 106.667ZM164.934 137.067L164.934 143.467L170.477 140.267L170.477 133.867L164.934 137.067ZM120.132 138.933L164.934 113.067L164.934 100.267L120.132 126.133L120.132 138.933ZM159.392 109.867L159.392 140.267L170.477 133.867L170.477 103.467L159.392 109.867ZM164.934 130.667L120.132 156.533L120.132 169.333L164.934 143.467L164.934 130.667Z" fill="#1019EF" mask="url(#path-2-inside-1_787_535)"/>
<path d="M104.665 138.665L150.729 110.933L148.132 125.067L104.665 151.209L104.665 138.665Z" fill="white"/>
<path d="M95.3771 153.657L95.3771 148.751L109.095 126.804C109.187 126.644 109.28 126.484 109.372 126.324C109.495 126.146 109.603 125.977 109.695 125.817C110.989 123.72 111.912 122.048 112.467 120.804C113.052 119.542 113.344 118.324 113.344 117.151C113.344 116.084 113.113 115.257 112.651 114.671C112.19 114.048 111.574 113.711 110.804 113.657C110.034 113.604 109.172 113.853 108.217 114.404C107.109 115.044 106.108 115.942 105.215 117.097C104.353 118.235 103.66 119.542 103.137 121.017C102.644 122.44 102.367 123.933 102.305 125.497L95.4695 129.444C95.4695 129.302 95.4695 129.16 95.4695 129.017C95.4695 126.386 95.993 123.666 97.0399 120.857C98.0868 118.048 99.5956 115.435 101.566 113.017C103.537 110.6 105.785 108.662 108.31 107.204C110.619 105.871 112.698 105.204 114.545 105.204C116.393 105.168 117.84 105.773 118.887 107.017C119.934 108.226 120.457 109.986 120.457 112.297C120.457 114.431 119.918 116.733 118.841 119.204C117.763 121.675 116.131 124.626 113.945 128.057L106.324 140.084L106.324 140.617L119.718 132.884L119.718 139.604L95.3771 153.657ZM136.307 131.04C133.875 132.444 131.658 133.102 129.656 133.013C127.686 132.871 126.115 132.053 124.945 130.56C123.806 129.013 123.19 126.88 123.098 124.16L130.21 120.053C130.21 121.511 130.472 122.657 130.996 123.493C131.519 124.328 132.227 124.826 133.12 124.986C134.044 125.093 135.076 124.817 136.215 124.16C137.323 123.52 138.309 122.684 139.171 121.653C140.033 120.622 140.711 119.502 141.203 118.293C141.696 117.048 141.942 115.84 141.942 114.666C141.942 113.493 141.68 112.577 141.157 111.92C140.664 111.244 139.972 110.897 139.079 110.88C138.216 110.808 137.246 111.084 136.169 111.706C135.707 111.973 135.214 112.328 134.691 112.773C134.167 113.182 133.736 113.573 133.397 113.946L131.735 109.84L138.478 98.0529L138.478 97.5196L125.176 105.2L125.176 98.4796L147.947 85.3329L147.947 90.5063L140.141 104.24C141.865 103.564 143.405 103.404 144.76 103.76C146.145 104.062 147.223 104.862 147.993 106.16C148.793 107.404 149.194 109.04 149.194 111.066C149.194 113.448 148.639 115.92 147.531 118.48C146.453 120.986 144.929 123.36 142.958 125.6C140.988 127.804 138.771 129.617 136.307 131.04Z" fill="black"/>
</svg>
