<svg width="256" height="256" viewBox="0 0 256 256" fill="none" xmlns="http://www.w3.org/2000/svg">
<path d="M154.461 100.267C154.461 122.063 139.159 148.568 120.282 159.467C101.405 170.365 86.1028 161.53 86.1028 139.733C86.1028 117.936 101.405 91.4316 120.282 80.5332C139.159 69.6348 154.461 78.4697 154.461 100.267Z" fill="white" stroke="#1019EF" stroke-width="6.4"/>
<mask id="path-2-inside-1_787_2479" fill="white">
<path d="M120.132 132.533L164.934 106.667L164.934 137.067L120.132 162.933L120.132 132.533Z"/>
</mask>
<path d="M120.132 132.533L164.934 106.667L164.934 137.067L120.132 162.933L120.132 132.533Z" fill="white"/>
<path d="M164.934 106.667L170.477 103.467L170.477 97.0665L164.934 100.267L164.934 106.667ZM164.934 137.067L164.934 143.467L170.477 140.267L170.477 133.867L164.934 137.067ZM120.132 138.933L164.934 113.067L164.934 100.267L120.132 126.133L120.132 138.933ZM159.391 109.867L159.391 140.267L170.477 133.867L170.477 103.467L159.391 109.867ZM164.934 130.667L120.132 156.533L120.132 169.333L164.934 143.467L164.934 130.667Z" fill="#1019EF" mask="url(#path-2-inside-1_787_2479)"/>
<path d="M104.665 138.665L150.729 110.933L148.132 125.066L104.665 151.208L104.665 138.665Z" fill="white"/>
<path d="M91.9042 150.18L91.9042 146.868L101.164 132.054C101.226 131.946 101.288 131.838 101.351 131.73C101.434 131.61 101.507 131.496 101.569 131.388C102.442 129.972 103.066 128.844 103.44 128.004C103.835 127.152 104.032 126.33 104.032 125.538C104.032 124.818 103.876 124.26 103.564 123.864C103.253 123.444 102.837 123.216 102.317 123.18C101.798 123.144 101.216 123.312 100.571 123.684C99.8232 124.116 99.1477 124.722 98.5449 125.502C97.9629 126.27 97.4953 127.152 97.142 128.148C96.8094 129.108 96.6223 130.116 96.5808 131.172L91.9666 133.836C91.9666 133.74 91.9666 133.644 91.9666 133.548C91.9666 131.772 92.3199 129.936 93.0266 128.04C93.7333 126.144 94.7517 124.38 96.0819 122.748C97.4122 121.116 98.9294 119.808 100.634 118.824C102.193 117.924 103.596 117.474 104.843 117.474C106.09 117.45 107.067 117.858 107.773 118.698C108.48 119.514 108.833 120.702 108.833 122.262C108.833 123.702 108.47 125.256 107.742 126.924C107.015 128.592 105.913 130.584 104.437 132.9L99.2932 141.018L99.2932 141.378L108.334 136.158L108.334 140.694L91.9042 150.18ZM119.532 134.913C117.89 135.861 116.394 136.305 115.043 136.245C113.712 136.149 112.652 135.597 111.863 134.589C111.094 133.545 110.678 132.105 110.615 130.269L115.417 127.497C115.417 128.481 115.593 129.255 115.947 129.819C116.3 130.383 116.778 130.719 117.381 130.827C118.004 130.899 118.701 130.713 119.47 130.269C120.218 129.837 120.883 129.273 121.465 128.577C122.047 127.881 122.504 127.125 122.837 126.309C123.169 125.469 123.336 124.653 123.336 123.861C123.336 123.069 123.159 122.451 122.806 122.007C122.473 121.551 122.005 121.317 121.403 121.305C120.821 121.257 120.166 121.443 119.439 121.863C119.127 122.043 118.794 122.283 118.441 122.583C118.088 122.859 117.797 123.123 117.568 123.375L116.446 120.603L120.997 112.647L120.997 112.287L112.018 117.471L112.018 112.935L127.389 104.061L127.389 107.553L122.12 116.823C123.284 116.367 124.323 116.259 125.237 116.499C126.173 116.703 126.9 117.243 127.42 118.119C127.96 118.959 128.23 120.063 128.23 121.431C128.23 123.039 127.856 124.707 127.108 126.435C126.381 128.127 125.352 129.729 124.022 131.241C122.691 132.729 121.195 133.953 119.532 134.913ZM139.303 96.4982C141.049 95.4902 142.597 94.9802 143.948 94.9682C145.32 94.9202 146.38 95.3522 147.128 96.2642C147.897 97.1642 148.282 98.4542 148.282 100.134C148.282 101.166 148.084 102.372 147.689 103.752C147.294 105.132 146.733 106.62 146.006 108.216L139.303 122.778L133.566 126.09L139.427 113.49C139.074 113.814 138.721 114.114 138.367 114.39C138.035 114.63 137.713 114.84 137.401 115.02C135.987 115.836 134.73 116.214 133.628 116.154C132.548 116.082 131.695 115.602 131.072 114.714C130.448 113.802 130.137 112.554 130.137 110.97C130.137 109.17 130.521 107.352 131.29 105.516C132.08 103.668 133.161 101.964 134.533 100.404C135.925 98.8322 137.515 97.5302 139.303 96.4982ZM139.147 101.412C138.419 101.832 137.765 102.39 137.183 103.086C136.601 103.782 136.143 104.562 135.811 105.426C135.478 106.266 135.312 107.118 135.312 107.982C135.312 108.822 135.478 109.47 135.811 109.926C136.143 110.358 136.601 110.598 137.183 110.646C137.765 110.67 138.419 110.472 139.147 110.052C139.895 109.62 140.57 109.05 141.173 108.342C141.797 107.622 142.275 106.842 142.607 106.002C142.94 105.162 143.106 104.322 143.106 103.482C143.106 102.618 142.94 101.946 142.607 101.466C142.275 100.986 141.797 100.758 141.173 100.782C140.57 100.77 139.895 100.98 139.147 101.412Z" fill="black"/>
</svg>
