<svg width="256" height="256" viewBox="0 0 256 256" fill="none" xmlns="http://www.w3.org/2000/svg">
<path d="M154.461 100.267C154.461 122.063 139.159 148.568 120.282 159.467C101.405 170.365 86.1028 161.53 86.1028 139.733C86.1028 117.936 101.405 91.4317 120.282 80.5333C139.159 69.6349 154.461 78.4698 154.461 100.267Z" fill="white" stroke="#1019EF" stroke-width="6.4"/>
<mask id="path-2-inside-1_787_770" fill="white">
<path d="M120.132 132.533L164.934 106.667L164.934 137.067L120.132 162.933L120.132 132.533Z"/>
</mask>
<path d="M120.132 132.533L164.934 106.667L164.934 137.067L120.132 162.933L120.132 132.533Z" fill="white"/>
<path d="M164.934 106.667L170.477 103.467L170.477 97.0665L164.934 100.267L164.934 106.667ZM164.934 137.067L164.934 143.467L170.477 140.267L170.477 133.867L164.934 137.067ZM120.132 138.933L164.934 113.067L164.934 100.267L120.132 126.133L120.132 138.933ZM159.392 109.867L159.392 140.267L170.477 133.867L170.477 103.467L159.392 109.867ZM164.934 130.667L120.132 156.533L120.132 169.333L164.934 143.467L164.934 130.667Z" fill="#1019EF" mask="url(#path-2-inside-1_787_770)"/>
<path d="M104.665 138.665L150.729 110.933L148.132 125.067L104.665 151.209L104.665 138.665Z" fill="white"/>
<path d="M108.172 147.283C105.74 148.688 103.538 149.354 101.568 149.283C99.5969 149.177 98.0265 148.377 96.8564 146.883C95.6863 145.39 95.0551 143.319 94.9627 140.67L102.076 136.563C102.076 137.914 102.337 138.99 102.861 139.79C103.415 140.572 104.139 141.043 105.032 141.203C105.955 141.31 106.972 141.043 108.08 140.403C109.189 139.763 110.174 138.928 111.036 137.897C111.929 136.848 112.622 135.701 113.115 134.457C113.607 133.212 113.854 132.021 113.854 130.883C113.854 129.639 113.592 128.688 113.068 128.03C112.545 127.372 111.791 127.061 110.805 127.097C109.82 127.132 108.665 127.532 107.341 128.297L97.5492 133.95L99.0734 113.55L118.519 102.323L118.519 109.043L104.662 117.043L104.062 124.217L109.327 121.177C111.637 119.843 113.669 119.203 115.424 119.257C117.21 119.292 118.596 119.985 119.581 121.337C120.566 122.652 121.059 124.519 121.059 126.937C121.059 129.39 120.505 131.914 119.396 134.51C118.288 137.105 116.748 139.541 114.777 141.817C112.837 144.039 110.636 145.861 108.172 147.283ZM124.7 136.728L124.7 131.821L138.418 109.874C138.51 109.714 138.603 109.554 138.695 109.394C138.818 109.217 138.926 109.048 139.018 108.888C140.312 106.79 141.235 105.119 141.79 103.874C142.375 102.612 142.667 101.394 142.667 100.221C142.667 99.1543 142.436 98.3276 141.975 97.741C141.513 97.1187 140.897 96.781 140.127 96.7276C139.357 96.6743 138.495 96.9232 137.54 97.4743C136.432 98.1143 135.431 99.0121 134.538 100.168C133.676 101.305 132.983 102.612 132.46 104.088C131.967 105.51 131.69 107.003 131.628 108.568L124.793 112.514C124.793 112.372 124.793 112.23 124.793 112.088C124.793 109.457 125.316 106.737 126.363 103.928C127.41 101.119 128.919 98.5054 130.889 96.0876C132.86 93.6698 135.108 91.7321 137.633 90.2743C139.942 88.941 142.021 88.2743 143.868 88.2743C145.716 88.2387 147.163 88.8432 148.21 90.0876C149.257 91.2965 149.78 93.0565 149.78 95.3676C149.78 97.501 149.241 99.8032 148.164 102.274C147.086 104.745 145.454 107.697 143.268 111.128L135.647 123.154L135.647 123.688L149.041 115.954L149.041 122.674L124.7 136.728Z" fill="black"/>
</svg>
