<svg width="256" height="256" viewBox="0 0 256 256" fill="none" xmlns="http://www.w3.org/2000/svg">
<path d="M154.461 100.267C154.461 122.063 139.159 148.568 120.282 159.467C101.405 170.365 86.1028 161.53 86.1028 139.733C86.1028 117.936 101.405 91.4317 120.282 80.5333C139.159 69.6349 154.461 78.4698 154.461 100.267Z" fill="white" stroke="#1019EF" stroke-width="6.4"/>
<mask id="path-2-inside-1_787_782" fill="white">
<path d="M120.132 132.533L164.934 106.667L164.934 137.067L120.132 162.933L120.132 132.533Z"/>
</mask>
<path d="M120.132 132.533L164.934 106.667L164.934 137.067L120.132 162.933L120.132 132.533Z" fill="white"/>
<path d="M164.934 106.667L170.477 103.467L170.477 97.0665L164.934 100.267L164.934 106.667ZM164.934 137.067L164.934 143.467L170.477 140.267L170.477 133.867L164.934 137.067ZM120.132 138.933L164.934 113.067L164.934 100.267L120.132 126.133L120.132 138.933ZM159.391 109.867L159.391 140.267L170.477 133.867L170.477 103.467L159.391 109.867ZM164.934 130.667L120.132 156.533L120.132 169.333L164.934 143.467L164.934 130.667Z" fill="#1019EF" mask="url(#path-2-inside-1_787_782)"/>
<path d="M104.665 138.665L150.729 110.933L148.132 125.067L104.665 151.209L104.665 138.665Z" fill="white"/>
<path d="M107.433 147.71C104.846 149.204 102.537 149.986 100.504 150.057C98.5029 150.075 96.9325 149.417 95.7932 148.084C94.6847 146.733 94.1305 144.795 94.1305 142.27C94.1305 140.742 94.423 138.955 95.008 136.91C95.5931 134.866 96.4399 132.653 97.5484 130.27L107.433 108.724L115.931 103.817L107.248 122.484C107.771 122.004 108.279 121.586 108.772 121.23C109.296 120.822 109.788 120.484 110.25 120.217C112.344 119.008 114.191 118.475 115.793 118.617C117.425 118.706 118.702 119.408 119.626 120.724C120.55 122.039 121.012 123.888 121.012 126.27C121.012 128.937 120.427 131.639 119.257 134.377C118.117 137.097 116.516 139.622 114.453 141.95C112.421 144.262 110.081 146.182 107.433 147.71ZM107.664 140.43C108.772 139.79 109.757 138.955 110.62 137.924C111.482 136.857 112.144 135.71 112.606 134.484C113.098 133.204 113.345 131.924 113.345 130.644C113.345 129.399 113.098 128.457 112.606 127.817C112.144 127.124 111.482 126.759 110.62 126.724C109.757 126.688 108.772 126.99 107.664 127.63C106.555 128.27 105.539 129.124 104.615 130.19C103.722 131.204 103.029 132.333 102.537 133.577C102.044 134.822 101.798 136.066 101.798 137.31C101.798 138.59 102.044 139.586 102.537 140.297C103.029 141.008 103.722 141.373 104.615 141.39C105.539 141.39 106.555 141.07 107.664 140.43ZM139.137 128.393L139.137 120.553L123.387 129.646L123.387 124.793L135.904 92.2861L146.804 85.9927L146.804 109.459L150.638 107.246L150.638 113.913L146.804 116.126L146.804 123.966L139.137 128.393ZM130.823 118.686L139.091 113.913L139.091 97.8061L138.629 98.0727L130.823 118.686Z" fill="black"/>
</svg>
