<svg width="256" height="256" viewBox="0 0 256 256" fill="none" xmlns="http://www.w3.org/2000/svg">
<path d="M154.461 100.267C154.461 122.063 139.159 148.568 120.282 159.467C101.405 170.365 86.1028 161.53 86.1028 139.733C86.1028 117.936 101.405 91.4316 120.282 80.5332C139.159 69.6348 154.461 78.4697 154.461 100.267Z" fill="white" stroke="#1019EF" stroke-width="6.4"/>
<mask id="path-2-inside-1_787_2079" fill="white">
<path d="M120.132 132.533L164.934 106.667L164.934 137.067L120.132 162.933L120.132 132.533Z"/>
</mask>
<path d="M120.132 132.533L164.934 106.667L164.934 137.067L120.132 162.933L120.132 132.533Z" fill="white"/>
<path d="M164.934 106.667L170.477 103.467L170.477 97.0665L164.934 100.267L164.934 106.667ZM164.934 137.067L164.934 143.467L170.477 140.267L170.477 133.867L164.934 137.067ZM120.132 138.933L164.934 113.067L164.934 100.267L120.132 126.133L120.132 138.933ZM159.391 109.867L159.391 140.267L170.477 133.867L170.477 103.467L159.391 109.867ZM164.934 130.667L120.132 156.533L120.132 169.333L164.934 143.467L164.934 130.667Z" fill="#1019EF" mask="url(#path-2-inside-1_787_2079)"/>
<path d="M104.665 138.665L150.729 110.933L148.132 125.066L104.665 151.208L104.665 138.665Z" fill="white"/>
<path d="M95.4884 148.11L95.4884 144.798L104.748 129.984C104.81 129.876 104.873 129.768 104.935 129.66C105.018 129.54 105.091 129.426 105.153 129.318C106.026 127.902 106.65 126.774 107.024 125.934C107.419 125.082 107.616 124.26 107.616 123.468C107.616 122.748 107.46 122.19 107.149 121.794C106.837 121.374 106.421 121.146 105.902 121.11C105.382 121.074 104.8 121.242 104.156 121.614C103.407 122.046 102.732 122.652 102.129 123.432C101.547 124.2 101.079 125.082 100.726 126.078C100.394 127.038 100.207 128.046 100.165 129.102L95.5508 131.766C95.5508 131.67 95.5508 131.574 95.5508 131.478C95.5508 129.702 95.9041 127.866 96.6108 125.97C97.3175 124.074 98.3359 122.31 99.6661 120.678C100.996 119.046 102.514 117.738 104.218 116.754C105.777 115.854 107.18 115.404 108.427 115.404C109.674 115.38 110.651 115.788 111.357 116.628C112.064 117.444 112.418 118.632 112.418 120.192C112.418 121.632 112.054 123.186 111.326 124.854C110.599 126.522 109.497 128.514 108.022 130.83L102.877 138.948L102.877 139.308L111.919 134.088L111.919 138.624L95.4884 148.11ZM119.656 134.157L119.656 115.401L119.313 115.599L114.262 122.835L114.262 116.931L120.373 108.111L124.706 105.609L124.706 131.241L119.656 134.157ZM136.821 124.931C135.179 125.879 133.693 126.329 132.363 126.281C131.033 126.209 129.973 125.669 129.183 124.661C128.393 123.653 127.967 122.255 127.905 120.467L132.706 117.695C132.706 118.607 132.883 119.333 133.236 119.873C133.61 120.401 134.099 120.719 134.701 120.827C135.325 120.899 136.011 120.719 136.759 120.287C137.507 119.855 138.172 119.291 138.754 118.595C139.357 117.887 139.825 117.113 140.157 116.273C140.49 115.433 140.656 114.629 140.656 113.861C140.656 113.021 140.48 112.379 140.126 111.935C139.773 111.491 139.264 111.281 138.599 111.305C137.933 111.329 137.154 111.599 136.26 112.115L129.651 115.931L130.68 102.161L143.805 94.5827L143.805 99.1187L134.452 104.519L134.047 109.361L137.601 107.309C139.16 106.409 140.532 105.977 141.716 106.013C142.922 106.037 143.857 106.505 144.522 107.417C145.187 108.305 145.52 109.565 145.52 111.197C145.52 112.853 145.146 114.557 144.397 116.309C143.649 118.061 142.61 119.705 141.28 121.241C139.97 122.741 138.484 123.971 136.821 124.931Z" fill="black"/>
</svg>
