<svg width="256" height="256" viewBox="0 0 256 256" fill="none" xmlns="http://www.w3.org/2000/svg">
<path d="M154.461 100.267C154.461 122.063 139.159 148.568 120.282 159.467C101.405 170.365 86.1028 161.53 86.1028 139.733C86.1028 117.936 101.405 91.4316 120.282 80.5332C139.159 69.6348 154.461 78.4697 154.461 100.267Z" fill="white" stroke="#1019EF" stroke-width="6.4"/>
<mask id="path-2-inside-1_787_2477" fill="white">
<path d="M120.132 132.533L164.934 106.667L164.934 137.067L120.132 162.933L120.132 132.533Z"/>
</mask>
<path d="M120.132 132.533L164.934 106.667L164.934 137.067L120.132 162.933L120.132 132.533Z" fill="white"/>
<path d="M164.934 106.667L170.477 103.467L170.477 97.0665L164.934 100.267L164.934 106.667ZM164.934 137.067L164.934 143.467L170.477 140.267L170.477 133.867L164.934 137.067ZM120.132 138.933L164.934 113.067L164.934 100.267L120.132 126.133L120.132 138.933ZM159.391 109.867L159.391 140.267L170.477 133.867L170.477 103.467L159.391 109.867ZM164.934 130.667L120.132 156.533L120.132 169.333L164.934 143.467L164.934 130.667Z" fill="#1019EF" mask="url(#path-2-inside-1_787_2477)"/>
<path d="M104.665 138.665L150.729 110.933L148.132 125.066L104.665 151.208L104.665 138.665Z" fill="white"/>
<path d="M93.5939 149.204L93.5939 145.892L102.853 131.078C102.916 130.97 102.978 130.862 103.04 130.754C103.124 130.634 103.196 130.52 103.259 130.412C104.132 128.996 104.755 127.868 105.129 127.028C105.524 126.176 105.722 125.354 105.722 124.562C105.722 123.842 105.566 123.284 105.254 122.888C104.942 122.468 104.527 122.24 104.007 122.204C103.487 122.168 102.905 122.336 102.261 122.708C101.513 123.14 100.837 123.746 100.235 124.526C99.6526 125.294 99.1849 126.176 98.8316 127.172C98.499 128.132 98.312 129.14 98.2704 130.196L93.6562 132.86C93.6562 132.764 93.6562 132.668 93.6562 132.572C93.6562 130.796 94.0096 128.96 94.7163 127.064C95.4229 125.168 96.4414 123.404 97.7716 121.772C99.1018 120.14 100.619 118.832 102.323 117.848C103.882 116.948 105.285 116.498 106.532 116.498C107.779 116.474 108.756 116.882 109.463 117.722C110.17 118.538 110.523 119.726 110.523 121.286C110.523 122.726 110.159 124.28 109.432 125.948C108.704 127.616 107.603 129.608 106.127 131.924L100.983 140.042L100.983 140.402L110.024 135.182L110.024 139.718L93.5939 149.204ZM121.222 133.937C119.58 134.885 118.083 135.329 116.732 135.269C115.402 135.173 114.342 134.621 113.552 133.613C112.783 132.569 112.367 131.129 112.305 129.293L117.106 126.521C117.106 127.505 117.283 128.279 117.636 128.843C117.99 129.407 118.468 129.743 119.071 129.851C119.694 129.923 120.39 129.737 121.159 129.293C121.908 128.861 122.573 128.297 123.155 127.601C123.737 126.905 124.194 126.149 124.526 125.333C124.859 124.493 125.025 123.677 125.025 122.885C125.025 122.093 124.849 121.475 124.495 121.031C124.163 120.575 123.695 120.341 123.092 120.329C122.51 120.281 121.856 120.467 121.128 120.887C120.816 121.067 120.484 121.307 120.131 121.607C119.777 121.883 119.486 122.147 119.258 122.399L118.135 119.627L122.687 111.671L122.687 111.311L113.708 116.495L113.708 111.959L129.078 103.085L129.078 106.577L123.809 115.847C124.973 115.391 126.013 115.283 126.927 115.523C127.862 115.727 128.59 116.267 129.109 117.143C129.65 117.983 129.92 119.087 129.92 120.455C129.92 122.063 129.546 123.731 128.798 125.459C128.07 127.151 127.041 128.753 125.711 130.265C124.381 131.753 122.885 132.977 121.222 133.937ZM133.946 125.907L141.335 100.833L131.296 106.629L131.296 101.805L147.165 92.6426L147.165 96.1346L139.309 122.811L133.946 125.907Z" fill="black"/>
</svg>
