<svg width="256" height="256" viewBox="0 0 256 256" fill="none" xmlns="http://www.w3.org/2000/svg">
<path d="M154.461 100.267C154.461 122.063 139.159 148.568 120.282 159.467C101.405 170.365 86.1028 161.53 86.1028 139.733C86.1028 117.936 101.405 91.4316 120.282 80.5332C139.159 69.6348 154.461 78.4697 154.461 100.267Z" fill="white" stroke="#1019EF" stroke-width="6.4"/>
<mask id="path-2-inside-1_787_2097" fill="white">
<path d="M120.132 132.533L164.934 106.667L164.934 137.067L120.132 162.933L120.132 132.533Z"/>
</mask>
<path d="M120.132 132.533L164.934 106.667L164.934 137.067L120.132 162.933L120.132 132.533Z" fill="white"/>
<path d="M164.934 106.667L170.477 103.467L170.477 97.0665L164.934 100.267L164.934 106.667ZM164.934 137.067L164.934 143.467L170.477 140.267L170.477 133.867L164.934 137.067ZM120.132 138.933L164.934 113.067L164.934 100.267L120.132 126.133L120.132 138.933ZM159.392 109.867L159.392 140.267L170.477 133.867L170.477 103.467L159.392 109.867ZM164.934 130.667L120.132 156.533L120.132 169.333L164.934 143.467L164.934 130.667Z" fill="#1019EF" mask="url(#path-2-inside-1_787_2097)"/>
<path d="M104.665 138.665L150.729 110.933L148.132 125.066L104.665 151.208L104.665 138.665Z" fill="white"/>
<path d="M92.7941 149.666L92.7941 146.354L102.054 131.54C102.116 131.432 102.178 131.324 102.241 131.216C102.324 131.096 102.397 130.982 102.459 130.874C103.332 129.458 103.955 128.33 104.33 127.49C104.724 126.638 104.922 125.816 104.922 125.024C104.922 124.304 104.766 123.746 104.454 123.35C104.143 122.93 103.727 122.702 103.207 122.666C102.688 122.63 102.106 122.798 101.461 123.17C100.713 123.602 100.038 124.208 99.4348 124.988C98.8528 125.756 98.3852 126.638 98.0318 127.634C97.6993 128.594 97.5122 129.602 97.4707 130.658L92.8565 133.322C92.8565 133.226 92.8565 133.13 92.8565 133.034C92.8565 131.258 93.2098 129.422 93.9165 127.526C94.6232 125.63 95.6416 123.866 96.9718 122.234C98.302 120.602 99.8193 119.294 101.524 118.31C103.083 117.41 104.485 116.96 105.733 116.96C106.98 116.936 107.956 117.344 108.663 118.184C109.37 119 109.723 120.188 109.723 121.748C109.723 123.188 109.359 124.742 108.632 126.41C107.905 128.078 106.803 130.07 105.327 132.386L100.183 140.504L100.183 140.864L109.224 135.644L109.224 140.18L92.7941 149.666ZM120.422 134.399C118.78 135.347 117.284 135.791 115.933 135.731C114.602 135.635 113.542 135.083 112.752 134.075C111.983 133.031 111.568 131.591 111.505 129.755L116.307 126.983C116.307 127.967 116.483 128.741 116.837 129.305C117.19 129.869 117.668 130.205 118.271 130.313C118.894 130.385 119.591 130.199 120.36 129.755C121.108 129.323 121.773 128.759 122.355 128.063C122.937 127.367 123.394 126.611 123.727 125.795C124.059 124.955 124.226 124.139 124.226 123.347C124.226 122.555 124.049 121.937 123.696 121.493C123.363 121.037 122.895 120.803 122.293 120.791C121.711 120.743 121.056 120.929 120.328 121.349C120.017 121.529 119.684 121.769 119.331 122.069C118.977 122.345 118.686 122.609 118.458 122.861L117.335 120.089L121.887 112.133L121.887 111.773L112.908 116.957L112.908 112.421L128.279 103.547L128.279 107.039L123.01 116.309C124.174 115.853 125.213 115.745 126.127 115.985C127.063 116.189 127.79 116.729 128.31 117.605C128.85 118.445 129.12 119.549 129.12 120.917C129.12 122.525 128.746 124.193 127.998 125.921C127.271 127.613 126.242 129.215 124.911 130.727C123.581 132.215 122.085 133.439 120.422 134.399ZM139.725 123.255C138.083 124.203 136.586 124.647 135.235 124.587C133.905 124.491 132.845 123.939 132.055 122.931C131.286 121.887 130.871 120.447 130.808 118.611L135.61 115.839C135.61 116.823 135.786 117.597 136.14 118.161C136.493 118.725 136.971 119.061 137.574 119.169C138.197 119.241 138.893 119.055 139.663 118.611C140.411 118.179 141.076 117.615 141.658 116.919C142.24 116.223 142.697 115.467 143.03 114.651C143.362 113.811 143.528 112.995 143.528 112.203C143.528 111.411 143.352 110.793 142.998 110.349C142.666 109.893 142.198 109.659 141.595 109.647C141.014 109.599 140.359 109.785 139.631 110.205C139.32 110.385 138.987 110.625 138.634 110.925C138.28 111.201 137.989 111.465 137.761 111.717L136.638 108.945L141.19 100.989L141.19 100.629L132.211 105.813L132.211 101.277L147.581 92.4025L147.581 95.8945L142.313 105.165C143.476 104.709 144.516 104.601 145.43 104.841C146.366 105.045 147.093 105.585 147.613 106.461C148.153 107.301 148.423 108.405 148.423 109.773C148.423 111.381 148.049 113.049 147.301 114.777C146.573 116.469 145.545 118.071 144.214 119.583C142.884 121.071 141.388 122.295 139.725 123.255Z" fill="black"/>
</svg>
