<svg width="256" height="256" viewBox="0 0 256 256" fill="none" xmlns="http://www.w3.org/2000/svg">
<path d="M154.461 100.267C154.461 122.064 139.159 148.568 120.282 159.467C101.405 170.365 86.1028 161.53 86.1028 139.733C86.1028 117.937 101.405 91.4318 120.282 80.5334C139.159 69.635 154.461 78.4699 154.461 100.267Z" fill="white" stroke="#1019EF" stroke-width="6.4"/>
<mask id="path-2-inside-1_787_804" fill="white">
<path d="M120.132 132.533L164.934 106.667L164.934 137.067L120.132 162.933L120.132 132.533Z"/>
</mask>
<path d="M120.132 132.533L164.934 106.667L164.934 137.067L120.132 162.933L120.132 132.533Z" fill="white"/>
<path d="M164.934 106.667L170.477 103.467L170.477 97.0668L164.934 100.267L164.934 106.667ZM164.934 137.067L164.934 143.467L170.477 140.267L170.477 133.867L164.934 137.067ZM120.132 138.933L164.934 113.067L164.934 100.267L120.132 126.133L120.132 138.933ZM159.391 109.867L159.391 140.267L170.477 133.867L170.477 103.467L159.391 109.867ZM164.934 130.667L120.132 156.533L120.132 169.333L164.934 143.467L164.934 130.667Z" fill="#1019EF" mask="url(#path-2-inside-1_787_804)"/>
<path d="M104.665 138.666L150.729 110.933L148.132 125.067L104.665 151.209L104.665 138.666Z" fill="white"/>
<path d="M106.943 147.94C104.233 149.504 101.862 150.411 99.8296 150.66C97.8281 150.855 96.2578 150.429 95.1185 149.38C94.0099 148.313 93.4557 146.678 93.4557 144.473C93.4557 142.091 94.0561 139.718 95.257 137.353C96.4579 134.989 97.9975 132.998 99.8758 131.38L99.8758 130.847C98.3978 131.024 97.1815 130.678 96.227 129.807C95.3032 128.882 94.8413 127.442 94.8413 125.487C94.8413 123.389 95.334 121.255 96.3193 119.087C97.3355 116.9 98.7519 114.855 100.569 112.953C102.416 111.033 104.541 109.38 106.943 107.993C109.283 106.642 111.361 105.887 113.178 105.727C114.995 105.567 116.411 105.993 117.427 107.007C118.474 107.967 118.998 109.478 118.998 111.54C118.998 113.495 118.52 115.478 117.566 117.487C116.642 119.442 115.426 121.193 113.917 122.74L113.917 123.273C115.826 122.704 117.381 122.909 118.582 123.887C119.783 124.864 120.383 126.544 120.383 128.927C120.383 131.131 119.814 133.415 118.674 135.78C117.566 138.127 115.995 140.367 113.963 142.5C111.931 144.598 109.591 146.411 106.943 147.94ZM106.943 124.42C107.866 123.887 108.698 123.211 109.437 122.393C110.207 121.522 110.807 120.607 111.238 119.647C111.669 118.651 111.885 117.691 111.885 116.767C111.885 115.878 111.669 115.202 111.238 114.74C110.807 114.242 110.207 114.02 109.437 114.073C108.698 114.073 107.866 114.34 106.943 114.873C105.957 115.442 105.08 116.162 104.31 117.033C103.571 117.851 102.986 118.758 102.555 119.753C102.154 120.695 101.954 121.611 101.954 122.5C101.954 123.424 102.154 124.144 102.555 124.66C102.986 125.122 103.586 125.344 104.356 125.327C105.126 125.273 105.988 124.971 106.943 124.42ZM106.943 141.007C107.959 140.42 108.898 139.664 109.76 138.74C110.622 137.78 111.284 136.758 111.746 135.673C112.208 134.553 112.439 133.478 112.439 132.447C112.439 131.38 112.193 130.58 111.7 130.047C111.238 129.495 110.576 129.238 109.714 129.273C108.882 129.291 107.959 129.593 106.943 130.18C105.865 130.802 104.91 131.584 104.079 132.527C103.248 133.469 102.586 134.491 102.093 135.593C101.631 136.678 101.4 137.753 101.4 138.82C101.4 139.851 101.631 140.66 102.093 141.247C102.586 141.78 103.248 142.038 104.079 142.02C104.91 141.967 105.865 141.629 106.943 141.007ZM137.107 130.578C134.521 132.071 132.211 132.853 130.179 132.924C128.178 132.942 126.607 132.284 125.468 130.951C124.359 129.6 123.805 127.662 123.805 125.138C123.805 123.609 124.098 121.822 124.683 119.778C125.268 117.733 126.115 115.52 127.223 113.138L137.107 91.591L145.606 86.6843L136.923 105.351C137.446 104.871 137.954 104.453 138.447 104.098C138.97 103.689 139.463 103.351 139.925 103.084C142.019 101.875 143.866 101.342 145.467 101.484C147.099 101.573 148.377 102.275 149.301 103.591C150.225 104.907 150.687 106.755 150.687 109.138C150.687 111.804 150.102 114.507 148.931 117.244C147.792 119.964 146.191 122.489 144.128 124.818C142.096 127.129 139.755 129.049 137.107 130.578ZM137.338 123.298C138.447 122.658 139.432 121.822 140.294 120.791C141.156 119.724 141.818 118.578 142.28 117.351C142.773 116.071 143.019 114.791 143.019 113.511C143.019 112.267 142.773 111.324 142.28 110.684C141.818 109.991 141.156 109.627 140.294 109.591C139.432 109.555 138.447 109.858 137.338 110.498C136.23 111.138 135.214 111.991 134.29 113.058C133.397 114.071 132.704 115.2 132.211 116.444C131.719 117.689 131.472 118.933 131.472 120.178C131.472 121.458 131.719 122.453 132.211 123.164C132.704 123.875 133.397 124.24 134.29 124.258C135.214 124.258 136.23 123.938 137.338 123.298Z" fill="black"/>
</svg>
