<svg width="256" height="256" viewBox="0 0 256 256" fill="none" xmlns="http://www.w3.org/2000/svg">
<path d="M154.461 100.267C154.461 122.063 139.159 148.568 120.282 159.467C101.405 170.365 86.1028 161.53 86.1028 139.733C86.1028 117.936 101.405 91.4317 120.282 80.5333C139.159 69.6349 154.461 78.4698 154.461 100.267Z" fill="white" stroke="#1019EF" stroke-width="6.4"/>
<mask id="path-2-inside-1_787_781" fill="white">
<path d="M120.132 132.533L164.934 106.667L164.934 137.067L120.132 162.933L120.132 132.533Z"/>
</mask>
<path d="M120.132 132.533L164.934 106.667L164.934 137.067L120.132 162.933L120.132 132.533Z" fill="white"/>
<path d="M164.934 106.667L170.477 103.467L170.477 97.0665L164.934 100.267L164.934 106.667ZM164.934 137.067L164.934 143.467L170.477 140.267L170.477 133.867L164.934 137.067ZM120.132 138.933L164.934 113.067L164.934 100.267L120.132 126.133L120.132 138.933ZM159.392 109.867L159.392 140.267L170.477 133.867L170.477 103.467L159.392 109.867ZM164.934 130.667L120.132 156.533L120.132 169.333L164.934 143.467L164.934 130.667Z" fill="#1019EF" mask="url(#path-2-inside-1_787_781)"/>
<path d="M104.665 138.665L150.729 110.933L148.132 125.067L104.665 151.209L104.665 138.665Z" fill="white"/>
<path d="M107.496 147.674C104.909 149.167 102.6 149.95 100.567 150.021C98.5658 150.038 96.9954 149.381 95.8561 148.047C94.7476 146.696 94.1934 144.758 94.1934 142.234C94.1934 140.705 94.4859 138.918 95.0709 136.874C95.656 134.83 96.5028 132.616 97.6113 130.234L107.496 108.687L115.994 103.781L107.311 122.447C107.834 121.967 108.342 121.55 108.835 121.194C109.358 120.785 109.851 120.447 110.313 120.181C112.407 118.972 114.254 118.438 115.856 118.581C117.488 118.67 118.765 119.372 119.689 120.687C120.613 122.003 121.075 123.852 121.075 126.234C121.075 128.901 120.49 131.603 119.32 134.341C118.18 137.061 116.579 139.585 114.516 141.914C112.484 144.225 110.144 146.145 107.496 147.674ZM107.726 140.394C108.835 139.754 109.82 138.918 110.682 137.887C111.545 136.821 112.207 135.674 112.669 134.447C113.161 133.167 113.408 131.887 113.408 130.607C113.408 129.363 113.161 128.421 112.669 127.781C112.207 127.087 111.545 126.723 110.682 126.687C109.82 126.652 108.835 126.954 107.726 127.594C106.618 128.234 105.602 129.087 104.678 130.154C103.785 131.167 103.092 132.296 102.6 133.541C102.107 134.785 101.861 136.03 101.861 137.274C101.861 138.554 102.107 139.55 102.6 140.261C103.092 140.972 103.785 141.336 104.678 141.354C105.602 141.354 106.618 141.034 107.726 140.394ZM137.029 130.623C134.596 132.027 132.379 132.685 130.378 132.596C128.407 132.454 126.837 131.636 125.667 130.143C124.527 128.596 123.911 126.463 123.819 123.743L130.932 119.636C130.932 121.094 131.194 122.241 131.717 123.076C132.241 123.912 132.949 124.41 133.842 124.57C134.766 124.676 135.797 124.401 136.936 123.743C138.045 123.103 139.03 122.267 139.892 121.236C140.755 120.205 141.432 119.085 141.925 117.876C142.417 116.632 142.664 115.423 142.664 114.25C142.664 113.076 142.402 112.161 141.879 111.503C141.386 110.827 140.693 110.481 139.8 110.463C138.938 110.392 137.968 110.667 136.89 111.29C136.428 111.556 135.936 111.912 135.412 112.356C134.889 112.765 134.458 113.156 134.119 113.53L132.456 109.423L139.2 97.6363L139.2 97.1029L125.897 104.783L125.897 98.0629L148.668 84.9163L148.668 90.0896L140.862 103.823C142.587 103.147 144.126 102.987 145.481 103.343C146.867 103.645 147.945 104.445 148.714 105.743C149.515 106.987 149.915 108.623 149.915 110.65C149.915 113.032 149.361 115.503 148.252 118.063C147.175 120.57 145.651 122.943 143.68 125.183C141.709 127.387 139.492 129.201 137.029 130.623Z" fill="black"/>
</svg>
