<svg width="256" height="256" viewBox="0 0 256 256" fill="none" xmlns="http://www.w3.org/2000/svg">
<path d="M154.461 100.267C154.461 122.063 139.159 148.568 120.282 159.467C101.405 170.365 86.1028 161.53 86.1028 139.733C86.1028 117.936 101.405 91.4317 120.282 80.5333C139.159 69.6349 154.461 78.4698 154.461 100.267Z" fill="white" stroke="#1019EF" stroke-width="6.4"/>
<mask id="path-2-inside-1_787_670" fill="white">
<path d="M120.132 132.533L164.934 106.667L164.934 137.067L120.132 162.933L120.132 132.533Z"/>
</mask>
<path d="M120.132 132.533L164.934 106.667L164.934 137.067L120.132 162.933L120.132 132.533Z" fill="white"/>
<path d="M164.934 106.667L170.477 103.467L170.477 97.0665L164.934 100.267L164.934 106.667ZM164.934 137.067L164.934 143.467L170.477 140.267L170.477 133.867L164.934 137.067ZM120.132 138.933L164.934 113.067L164.934 100.267L120.132 126.133L120.132 138.933ZM159.391 109.867L159.391 140.267L170.477 133.867L170.477 103.467L159.391 109.867ZM164.934 130.667L120.132 156.533L120.132 169.333L164.934 143.467L164.934 130.667Z" fill="#1019EF" mask="url(#path-2-inside-1_787_670)"/>
<path d="M104.665 138.665L150.729 110.933L148.132 125.067L104.665 151.209L104.665 138.665Z" fill="white"/>
<path d="M107.151 147.873C104.719 149.277 102.502 149.935 100.5 149.846C98.5294 149.704 96.959 148.886 95.7889 147.393C94.6496 145.846 94.0338 143.713 93.9414 140.993L101.054 136.886C101.054 138.344 101.316 139.491 101.84 140.326C102.363 141.162 103.071 141.66 103.964 141.82C104.888 141.926 105.919 141.651 107.059 140.993C108.167 140.353 109.153 139.517 110.015 138.486C110.877 137.455 111.554 136.335 112.047 135.126C112.54 133.882 112.786 132.673 112.786 131.5C112.786 130.326 112.524 129.411 112.001 128.753C111.508 128.077 110.815 127.731 109.922 127.713C109.06 127.642 108.09 127.917 107.013 128.54C106.551 128.806 106.058 129.162 105.535 129.606C105.011 130.015 104.58 130.406 104.241 130.78L102.579 126.673L109.322 114.886L109.322 114.353L96.0198 122.033L96.0198 115.313L118.791 102.166L118.791 107.34L110.985 121.073C112.709 120.397 114.249 120.237 115.604 120.593C116.989 120.895 118.067 121.695 118.837 122.993C119.637 124.237 120.038 125.873 120.038 127.9C120.038 130.282 119.483 132.753 118.375 135.313C117.297 137.82 115.773 140.193 113.802 142.433C111.832 144.637 109.615 146.451 107.151 147.873ZM136.672 130.776C133.962 132.34 131.591 133.247 129.559 133.496C127.557 133.691 125.987 133.265 124.848 132.216C123.739 131.149 123.185 129.514 123.185 127.309C123.185 124.927 123.785 122.554 124.986 120.189C126.187 117.825 127.727 115.834 129.605 114.216L129.605 113.683C128.127 113.86 126.911 113.514 125.956 112.643C125.032 111.718 124.571 110.278 124.571 108.323C124.571 106.225 125.063 104.091 126.049 101.923C127.065 99.7359 128.481 97.6914 130.298 95.7892C132.145 93.8692 134.27 92.2159 136.672 90.8292C139.012 89.4781 141.09 88.7225 142.907 88.5625C144.724 88.4025 146.14 88.8292 147.156 89.8425C148.203 90.8025 148.727 92.3136 148.727 94.3758C148.727 96.3314 148.25 98.3136 147.295 100.323C146.371 102.278 145.155 104.029 143.646 105.576L143.646 106.109C145.555 105.54 147.11 105.745 148.311 106.723C149.512 107.7 150.112 109.38 150.112 111.763C150.112 113.967 149.543 116.251 148.404 118.616C147.295 120.963 145.725 123.203 143.692 125.336C141.66 127.434 139.32 129.247 136.672 130.776ZM136.672 107.256C137.596 106.723 138.427 106.047 139.166 105.229C139.936 104.358 140.536 103.443 140.967 102.483C141.398 101.487 141.614 100.527 141.614 99.6025C141.614 98.7136 141.398 98.0381 140.967 97.5759C140.536 97.0781 139.936 96.8559 139.166 96.9092C138.427 96.9092 137.596 97.1759 136.672 97.7092C135.686 98.2781 134.809 98.9981 134.039 99.8692C133.3 100.687 132.715 101.594 132.284 102.589C131.884 103.531 131.683 104.447 131.683 105.336C131.683 106.26 131.884 106.98 132.284 107.496C132.715 107.958 133.315 108.18 134.085 108.163C134.855 108.109 135.717 107.807 136.672 107.256ZM136.672 123.843C137.688 123.256 138.627 122.5 139.489 121.576C140.351 120.616 141.013 119.594 141.475 118.509C141.937 117.389 142.168 116.314 142.168 115.283C142.168 114.216 141.922 113.416 141.429 112.883C140.967 112.331 140.305 112.074 139.443 112.109C138.612 112.127 137.688 112.429 136.672 113.016C135.594 113.638 134.64 114.42 133.808 115.363C132.977 116.305 132.315 117.327 131.822 118.429C131.36 119.514 131.129 120.589 131.129 121.656C131.129 122.687 131.36 123.496 131.822 124.083C132.315 124.616 132.977 124.874 133.808 124.856C134.64 124.803 135.594 124.465 136.672 123.843Z" fill="black"/>
</svg>
