<svg width="256" height="256" viewBox="0 0 256 256" fill="none" xmlns="http://www.w3.org/2000/svg">
<path d="M154.461 100.267C154.461 122.063 139.159 148.568 120.282 159.467C101.405 170.365 86.1028 161.53 86.1028 139.733C86.1028 117.936 101.405 91.4316 120.282 80.5332C139.159 69.6348 154.461 78.4697 154.461 100.267Z" fill="white" stroke="#1019EF" stroke-width="6.4"/>
<mask id="path-2-inside-1_787_2059" fill="white">
<path d="M120.132 132.533L164.934 106.667L164.934 137.067L120.132 162.933L120.132 132.533Z"/>
</mask>
<path d="M120.132 132.533L164.934 106.667L164.934 137.067L120.132 162.933L120.132 132.533Z" fill="white"/>
<path d="M164.934 106.667L170.477 103.467L170.477 97.0665L164.934 100.267L164.934 106.667ZM164.934 137.067L164.934 143.467L170.477 140.267L170.477 133.867L164.934 137.067ZM120.132 138.933L164.934 113.067L164.934 100.267L120.132 126.133L120.132 138.933ZM159.391 109.867L159.391 140.267L170.477 133.867L170.477 103.467L159.391 109.867ZM164.934 130.667L120.132 156.533L120.132 169.333L164.934 143.467L164.934 130.667Z" fill="#1019EF" mask="url(#path-2-inside-1_787_2059)"/>
<path d="M104.665 138.665L150.729 110.933L148.132 125.066L104.665 151.208L104.665 138.665Z" fill="white"/>
<path d="M99.4781 145.807L99.4781 127.051L99.1352 127.249L94.0845 134.485L94.0845 128.581L100.195 119.761L104.529 117.259L104.529 142.891L99.4781 145.807ZM116.925 109.418C118.67 108.41 120.219 107.9 121.57 107.888C122.942 107.84 124.002 108.272 124.75 109.184C125.519 110.084 125.903 111.374 125.903 113.054C125.903 114.086 125.706 115.292 125.311 116.672C124.916 118.052 124.355 119.54 123.628 121.136L116.925 135.698L111.188 139.01L117.049 126.41C116.696 126.734 116.343 127.034 115.989 127.31C115.657 127.55 115.334 127.76 115.023 127.94C113.609 128.756 112.352 129.134 111.25 129.074C110.17 129.002 109.317 128.522 108.694 127.634C108.07 126.722 107.758 125.474 107.758 123.89C107.758 122.09 108.143 120.272 108.912 118.436C109.702 116.588 110.783 114.884 112.154 113.324C113.547 111.752 115.137 110.45 116.925 109.418ZM116.769 114.332C116.041 114.752 115.386 115.31 114.804 116.006C114.223 116.702 113.765 117.482 113.433 118.346C113.1 119.186 112.934 120.038 112.934 120.902C112.934 121.742 113.1 122.39 113.433 122.846C113.765 123.278 114.223 123.518 114.804 123.566C115.386 123.59 116.041 123.392 116.769 122.972C117.517 122.54 118.192 121.97 118.795 121.262C119.419 120.542 119.897 119.762 120.229 118.922C120.562 118.082 120.728 117.242 120.728 116.402C120.728 115.538 120.562 114.866 120.229 114.386C119.897 113.906 119.419 113.678 118.795 113.702C118.192 113.69 117.517 113.9 116.769 114.332ZM136.86 124.908C135.218 125.856 133.732 126.306 132.402 126.258C131.072 126.186 130.012 125.646 129.222 124.638C128.432 123.63 128.006 122.232 127.944 120.444L132.745 117.672C132.745 118.584 132.922 119.31 133.275 119.85C133.649 120.378 134.137 120.696 134.74 120.804C135.364 120.876 136.05 120.696 136.798 120.264C137.546 119.832 138.211 119.268 138.793 118.572C139.396 117.864 139.864 117.09 140.196 116.25C140.529 115.41 140.695 114.606 140.695 113.838C140.695 112.998 140.518 112.356 140.165 111.912C139.812 111.468 139.302 111.258 138.637 111.282C137.972 111.306 137.193 111.576 136.299 112.092L129.69 115.908L130.718 102.138L143.844 94.5602L143.844 99.0962L134.491 104.496L134.085 109.338L137.64 107.286C139.198 106.386 140.57 105.954 141.755 105.99C142.96 106.014 143.896 106.482 144.561 107.394C145.226 108.282 145.559 109.542 145.559 111.174C145.559 112.83 145.184 114.534 144.436 116.286C143.688 118.038 142.649 119.682 141.318 121.218C140.009 122.718 138.523 123.948 136.86 124.908Z" fill="black"/>
</svg>
