<svg width="256" height="256" viewBox="0 0 256 256" fill="none" xmlns="http://www.w3.org/2000/svg">
<path d="M154.461 100.267C154.461 122.063 139.159 148.568 120.282 159.467C101.405 170.365 86.1028 161.53 86.1028 139.733C86.1028 117.936 101.405 91.4316 120.282 80.5332C139.159 69.6348 154.461 78.4697 154.461 100.267Z" fill="white" stroke="#1019EF" stroke-width="6.4"/>
<mask id="path-2-inside-1_787_1637" fill="white">
<path d="M120.132 132.533L164.934 106.667L164.934 137.067L120.132 162.933L120.132 132.533Z"/>
</mask>
<path d="M120.132 132.533L164.934 106.667L164.934 137.067L120.132 162.933L120.132 132.533Z" fill="white"/>
<path d="M164.934 106.667L170.477 103.467L170.477 97.0665L164.934 100.267L164.934 106.667ZM164.934 137.067L164.934 143.467L170.477 140.267L170.477 133.867L164.934 137.067ZM120.132 138.933L164.934 113.067L164.934 100.267L120.132 126.133L120.132 138.933ZM159.391 109.867L159.391 140.267L170.477 133.867L170.477 103.467L159.391 109.867ZM164.934 130.667L120.132 156.533L120.132 169.333L164.934 143.467L164.934 130.667Z" fill="#1019EF" mask="url(#path-2-inside-1_787_1637)"/>
<path d="M104.665 138.665L150.729 110.933L148.132 125.066L104.665 151.208L104.665 138.665Z" fill="white"/>
<path d="M99.7369 145.657L99.7369 126.901L99.3939 127.099L94.3433 134.335L94.3433 128.431L100.454 119.611L104.788 117.109L104.788 142.741L99.7369 145.657ZM116.903 136.431C115.261 137.379 113.775 137.829 112.444 137.781C111.114 137.709 110.054 137.169 109.264 136.161C108.475 135.153 108.048 133.755 107.986 131.967L112.787 129.195C112.787 130.107 112.964 130.833 113.317 131.373C113.691 131.901 114.18 132.219 114.783 132.327C115.406 132.399 116.092 132.219 116.84 131.787C117.589 131.355 118.254 130.791 118.836 130.095C119.438 129.387 119.906 128.613 120.239 127.773C120.571 126.933 120.737 126.129 120.737 125.361C120.737 124.521 120.561 123.879 120.207 123.435C119.854 122.991 119.345 122.781 118.68 122.805C118.015 122.829 117.235 123.099 116.342 123.615L109.732 127.431L110.761 113.661L123.886 106.083L123.886 110.619L114.533 116.019L114.128 120.861L117.682 118.809C119.241 117.909 120.613 117.477 121.797 117.513C123.003 117.537 123.938 118.005 124.603 118.917C125.269 119.805 125.601 121.065 125.601 122.697C125.601 124.353 125.227 126.057 124.479 127.809C123.73 129.561 122.691 131.205 121.361 132.741C120.052 134.241 118.565 135.471 116.903 136.431ZM136.601 125.058C134.959 126.006 133.473 126.456 132.143 126.408C130.813 126.336 129.753 125.796 128.963 124.788C128.173 123.78 127.747 122.382 127.685 120.594L132.486 117.822C132.486 118.734 132.663 119.46 133.016 120C133.39 120.528 133.879 120.846 134.481 120.954C135.105 121.026 135.791 120.846 136.539 120.414C137.287 119.982 137.952 119.418 138.534 118.722C139.137 118.014 139.605 117.24 139.937 116.4C140.27 115.56 140.436 114.756 140.436 113.988C140.436 113.148 140.259 112.506 139.906 112.062C139.553 111.618 139.044 111.408 138.378 111.432C137.713 111.456 136.934 111.726 136.04 112.242L129.431 116.058L130.46 102.288L143.585 94.7096L143.585 99.2456L134.232 104.646L133.827 109.488L137.381 107.436C138.94 106.536 140.311 106.104 141.496 106.14C142.702 106.164 143.637 106.632 144.302 107.544C144.967 108.432 145.3 109.692 145.3 111.324C145.3 112.98 144.926 114.684 144.177 116.436C143.429 118.188 142.39 119.832 141.06 121.368C139.75 122.868 138.264 124.098 136.601 125.058Z" fill="black"/>
</svg>
