<svg width="256" height="256" viewBox="0 0 256 256" fill="none" xmlns="http://www.w3.org/2000/svg">
<path d="M154.461 100.267C154.461 122.064 139.159 148.568 120.282 159.467C101.405 170.365 86.1028 161.53 86.1028 139.733C86.1028 117.937 101.405 91.4318 120.282 80.5334C139.159 69.635 154.461 78.4699 154.461 100.267Z" fill="white" stroke="#1019EF" stroke-width="6.4"/>
<mask id="path-2-inside-1_787_1233" fill="white">
<path d="M120.132 132.533L164.934 106.667L164.934 137.067L120.132 162.933L120.132 132.533Z"/>
</mask>
<path d="M120.132 132.533L164.934 106.667L164.934 137.067L120.132 162.933L120.132 132.533Z" fill="white"/>
<path d="M164.934 106.667L170.477 103.467L170.477 97.0668L164.934 100.267L164.934 106.667ZM164.934 137.067L164.934 143.467L170.477 140.267L170.477 133.867L164.934 137.067ZM120.132 138.933L164.934 113.067L164.934 100.267L120.132 126.133L120.132 138.933ZM159.392 109.867L159.392 140.267L170.477 133.867L170.477 103.467L159.392 109.867ZM164.934 130.667L120.132 156.533L120.132 169.333L164.934 143.467L164.934 130.667Z" fill="#1019EF" mask="url(#path-2-inside-1_787_1233)"/>
<path d="M104.665 138.666L150.729 110.933L148.132 125.067L104.665 151.209L104.665 138.666Z" fill="white"/>
<path d="M100.566 145.179L100.566 126.423L100.223 126.621L95.172 133.857L95.172 127.953L101.283 119.133L105.616 116.631L105.616 142.263L100.566 145.179ZM117.544 136.06C115.902 137.008 114.406 137.452 113.055 137.392C111.725 137.296 110.665 136.744 109.875 135.736C109.106 134.692 108.69 133.252 108.628 131.416L113.429 128.644C113.429 129.628 113.606 130.402 113.959 130.966C114.312 131.53 114.79 131.866 115.393 131.974C116.017 132.046 116.713 131.86 117.482 131.416C118.23 130.984 118.895 130.42 119.477 129.724C120.059 129.028 120.517 128.272 120.849 127.456C121.182 126.616 121.348 125.8 121.348 125.008C121.348 124.216 121.171 123.598 120.818 123.154C120.485 122.698 120.018 122.464 119.415 122.452C118.833 122.404 118.178 122.59 117.451 123.01C117.139 123.19 116.807 123.43 116.453 123.73C116.1 124.006 115.809 124.27 115.58 124.522L114.458 121.75L119.01 113.794L119.01 113.434L110.031 118.618L110.031 114.082L125.401 105.208L125.401 108.7L120.132 117.97C121.296 117.514 122.335 117.406 123.25 117.646C124.185 117.85 124.913 118.39 125.432 119.266C125.973 120.106 126.243 121.21 126.243 122.578C126.243 124.186 125.869 125.854 125.12 127.582C124.393 129.274 123.364 130.876 122.034 132.388C120.704 133.876 119.207 135.1 117.544 136.06ZM136.847 124.916C135.205 125.864 133.709 126.308 132.358 126.248C131.028 126.152 129.968 125.6 129.178 124.592C128.409 123.548 127.993 122.108 127.931 120.272L132.732 117.5C132.732 118.484 132.909 119.258 133.262 119.822C133.615 120.386 134.093 120.722 134.696 120.83C135.32 120.902 136.016 120.716 136.785 120.272C137.533 119.84 138.198 119.276 138.78 118.58C139.362 117.884 139.819 117.128 140.152 116.312C140.485 115.472 140.651 114.656 140.651 113.864C140.651 113.072 140.474 112.454 140.121 112.01C139.788 111.554 139.321 111.32 138.718 111.308C138.136 111.26 137.481 111.446 136.754 111.866C136.442 112.046 136.109 112.286 135.756 112.586C135.403 112.862 135.112 113.126 134.883 113.378L133.761 110.606L138.313 102.65L138.313 102.29L129.334 107.474L129.334 102.938L144.704 94.0636L144.704 97.5556L139.435 106.826C140.599 106.37 141.638 106.262 142.553 106.502C143.488 106.706 144.215 107.246 144.735 108.122C145.275 108.962 145.546 110.066 145.546 111.434C145.546 113.042 145.172 114.71 144.423 116.438C143.696 118.13 142.667 119.732 141.337 121.244C140.007 122.732 138.51 123.956 136.847 124.916Z" fill="black"/>
</svg>
