<svg width="256" height="256" viewBox="0 0 256 256" fill="none" xmlns="http://www.w3.org/2000/svg">
<path d="M154.461 100.267C154.461 122.064 139.159 148.568 120.282 159.467C101.405 170.365 86.1028 161.53 86.1028 139.733C86.1028 117.937 101.405 91.4318 120.282 80.5334C139.159 69.635 154.461 78.4699 154.461 100.267Z" fill="white" stroke="#1019EF" stroke-width="6.4"/>
<mask id="path-2-inside-1_787_1214" fill="white">
<path d="M120.132 132.533L164.934 106.667L164.934 137.067L120.132 162.933L120.132 132.533Z"/>
</mask>
<path d="M120.132 132.533L164.934 106.667L164.934 137.067L120.132 162.933L120.132 132.533Z" fill="white"/>
<path d="M164.934 106.667L170.477 103.467L170.477 97.0668L164.934 100.267L164.934 106.667ZM164.934 137.067L164.934 143.467L170.477 140.267L170.477 133.867L164.934 137.067ZM120.132 138.933L164.934 113.067L164.934 100.267L120.132 126.133L120.132 138.933ZM159.391 109.867L159.391 140.267L170.477 133.867L170.477 103.467L159.391 109.867ZM164.934 130.667L120.132 156.533L120.132 169.333L164.934 143.467L164.934 130.667Z" fill="#1019EF" mask="url(#path-2-inside-1_787_1214)"/>
<path d="M104.665 138.666L150.729 110.933L148.132 125.067L104.665 151.209L104.665 138.666Z" fill="white"/>
<path d="M103.123 143.702L103.123 124.946L102.78 125.144L97.7296 132.38L97.7296 126.476L103.84 117.656L108.174 115.154L108.174 140.786L103.123 143.702ZM116.641 135.898L116.641 117.142L116.298 117.34L111.248 124.576L111.248 118.672L117.358 109.852L121.692 107.35L121.692 132.982L116.641 135.898ZM135.085 125.249L135.085 119.957L124.454 126.095L124.454 122.819L132.903 100.877L140.261 96.6289L140.261 112.469L142.848 110.975L142.848 115.475L140.261 116.969L140.261 122.261L135.085 125.249ZM129.474 118.697L135.054 115.475L135.054 104.603L134.742 104.783L129.474 118.697Z" fill="black"/>
</svg>
