<svg width="256" height="256" viewBox="0 0 256 256" fill="none" xmlns="http://www.w3.org/2000/svg">
<path d="M154.461 100.267C154.461 122.063 139.159 148.568 120.282 159.467C101.405 170.365 86.1028 161.53 86.1028 139.733C86.1028 117.936 101.405 91.4317 120.282 80.5333C139.159 69.6349 154.461 78.4698 154.461 100.267Z" fill="white" stroke="#1019EF" stroke-width="6.4"/>
<mask id="path-2-inside-1_787_652" fill="white">
<path d="M120.132 132.533L164.934 106.667L164.934 137.067L120.132 162.933L120.132 132.533Z"/>
</mask>
<path d="M120.132 132.533L164.934 106.667L164.934 137.067L120.132 162.933L120.132 132.533Z" fill="white"/>
<path d="M164.934 106.667L170.477 103.467L170.477 97.0665L164.934 100.267L164.934 106.667ZM164.934 137.067L164.934 143.467L170.477 140.267L170.477 133.867L164.934 137.067ZM120.132 138.933L164.934 113.067L164.934 100.267L120.132 126.133L120.132 138.933ZM159.391 109.867L159.391 140.267L170.477 133.867L170.477 103.467L159.391 109.867ZM164.934 130.667L120.132 156.533L120.132 169.333L164.934 143.467L164.934 130.667Z" fill="#1019EF" mask="url(#path-2-inside-1_787_652)"/>
<path d="M104.665 138.665L150.729 110.933L148.132 125.067L104.665 151.209L104.665 138.665Z" fill="white"/>
<path d="M107.034 147.941C104.601 149.345 102.384 150.003 100.383 149.914C98.4121 149.772 96.8417 148.954 95.6716 147.461C94.5323 145.914 93.9165 143.781 93.8241 141.061L100.937 136.954C100.937 138.412 101.199 139.558 101.722 140.394C102.246 141.23 102.954 141.727 103.847 141.887C104.771 141.994 105.802 141.718 106.942 141.061C108.05 140.421 109.035 139.585 109.898 138.554C110.76 137.523 111.437 136.403 111.93 135.194C112.422 133.95 112.669 132.741 112.669 131.567C112.669 130.394 112.407 129.478 111.884 128.821C111.391 128.145 110.698 127.798 109.805 127.781C108.943 127.71 107.973 127.985 106.895 128.607C106.433 128.874 105.941 129.23 105.417 129.674C104.894 130.083 104.463 130.474 104.124 130.847L102.461 126.741L109.205 114.954L109.205 114.421L95.9026 122.101L95.9026 115.381L118.673 102.234L118.673 107.407L110.867 121.141C112.592 120.465 114.131 120.305 115.486 120.661C116.872 120.963 117.95 121.763 118.719 123.061C119.52 124.305 119.92 125.941 119.92 127.967C119.92 130.35 119.366 132.821 118.258 135.381C117.18 137.887 115.656 140.261 113.685 142.501C111.714 144.705 109.497 146.518 107.034 147.941ZM136.093 131.164C133.506 132.657 131.197 133.439 129.164 133.51C127.163 133.528 125.593 132.87 124.453 131.537C123.345 130.186 122.79 128.248 122.79 125.724C122.79 124.195 123.083 122.408 123.668 120.364C124.253 118.319 125.1 116.106 126.208 113.724L136.093 92.1769L144.591 87.2702L135.908 105.937C136.431 105.457 136.939 105.039 137.432 104.684C137.956 104.275 138.448 103.937 138.91 103.67C141.004 102.461 142.851 101.928 144.453 102.07C146.085 102.159 147.362 102.861 148.286 104.177C149.21 105.492 149.672 107.341 149.672 109.724C149.672 112.39 149.087 115.092 147.917 117.83C146.777 120.55 145.176 123.075 143.113 125.404C141.081 127.715 138.741 129.635 136.093 131.164ZM136.324 123.884C137.432 123.244 138.417 122.408 139.28 121.377C140.142 120.31 140.804 119.164 141.266 117.937C141.758 116.657 142.005 115.377 142.005 114.097C142.005 112.852 141.758 111.91 141.266 111.27C140.804 110.577 140.142 110.212 139.28 110.177C138.417 110.141 137.432 110.444 136.324 111.084C135.215 111.724 134.199 112.577 133.275 113.644C132.382 114.657 131.689 115.786 131.197 117.03C130.704 118.275 130.458 119.519 130.458 120.764C130.458 122.044 130.704 123.039 131.197 123.75C131.689 124.461 132.382 124.826 133.275 124.844C134.199 124.844 135.215 124.524 136.324 123.884Z" fill="black"/>
</svg>
