<svg width="256" height="256" viewBox="0 0 256 256" fill="none" xmlns="http://www.w3.org/2000/svg">
<path d="M154.461 100.267C154.461 122.064 139.159 148.568 120.282 159.467C101.405 170.365 86.1028 161.53 86.1028 139.733C86.1028 117.937 101.405 91.4318 120.282 80.5334C139.159 69.635 154.461 78.4699 154.461 100.267Z" fill="white" stroke="#1019EF" stroke-width="6.4"/>
<mask id="path-2-inside-1_787_1232" fill="white">
<path d="M120.132 132.533L164.934 106.667L164.934 137.067L120.132 162.933L120.132 132.533Z"/>
</mask>
<path d="M120.132 132.533L164.934 106.667L164.934 137.067L120.132 162.933L120.132 132.533Z" fill="white"/>
<path d="M164.934 106.667L170.477 103.467L170.477 97.0668L164.934 100.267L164.934 106.667ZM164.934 137.067L164.934 143.467L170.477 140.267L170.477 133.867L164.934 137.067ZM120.132 138.933L164.934 113.067L164.934 100.267L120.132 126.133L120.132 138.933ZM159.392 109.867L159.392 140.267L170.477 133.867L170.477 103.467L159.392 109.867ZM164.934 130.667L120.132 156.533L120.132 169.333L164.934 143.467L164.934 130.667Z" fill="#1019EF" mask="url(#path-2-inside-1_787_1232)"/>
<path d="M104.665 138.666L150.729 110.933L148.132 125.067L104.665 151.209L104.665 138.666Z" fill="white"/>
<path d="M100.581 145.17L100.581 126.414L100.238 126.612L95.1873 133.848L95.1873 127.944L101.298 119.124L105.632 116.622L105.632 142.254L100.581 145.17ZM117.56 136.051C115.918 136.999 114.421 137.443 113.07 137.383C111.74 137.287 110.68 136.735 109.89 135.727C109.121 134.683 108.705 133.243 108.643 131.407L113.444 128.635C113.444 129.619 113.621 130.393 113.974 130.957C114.328 131.521 114.806 131.857 115.408 131.965C116.032 132.037 116.728 131.851 117.497 131.407C118.246 130.975 118.911 130.411 119.493 129.715C120.075 129.019 120.532 128.263 120.864 127.447C121.197 126.607 121.363 125.791 121.363 124.999C121.363 124.207 121.187 123.589 120.833 123.145C120.501 122.689 120.033 122.455 119.43 122.443C118.848 122.395 118.194 122.581 117.466 123.001C117.154 123.181 116.822 123.421 116.468 123.721C116.115 123.997 115.824 124.261 115.595 124.513L114.473 121.741L119.025 113.785L119.025 113.425L110.046 118.609L110.046 114.073L125.416 105.199L125.416 108.691L120.147 117.961C121.311 117.505 122.35 117.397 123.265 117.637C124.2 117.841 124.928 118.381 125.447 119.257C125.988 120.097 126.258 121.201 126.258 122.569C126.258 124.177 125.884 125.845 125.136 127.573C124.408 129.265 123.379 130.867 122.049 132.379C120.719 133.867 119.222 135.091 117.56 136.051ZM128.507 129.047L128.507 125.735L137.767 110.921C137.829 110.813 137.891 110.705 137.954 110.597C138.037 110.477 138.11 110.363 138.172 110.255C139.045 108.839 139.668 107.711 140.043 106.871C140.437 106.019 140.635 105.197 140.635 104.405C140.635 103.685 140.479 103.127 140.167 102.731C139.855 102.311 139.44 102.083 138.92 102.047C138.401 102.011 137.819 102.179 137.174 102.551C136.426 102.983 135.751 103.589 135.148 104.369C134.566 105.137 134.098 106.019 133.745 107.015C133.412 107.975 133.225 108.983 133.184 110.039L128.569 112.703C128.569 112.607 128.569 112.511 128.569 112.415C128.569 110.639 128.923 108.803 129.629 106.907C130.336 105.011 131.355 103.247 132.685 101.615C134.015 99.9829 135.532 98.6749 137.237 97.6909C138.795 96.7909 140.198 96.3409 141.446 96.3409C142.693 96.3169 143.669 96.7249 144.376 97.5649C145.083 98.3809 145.436 99.5689 145.436 101.129C145.436 102.569 145.072 104.123 144.345 105.791C143.618 107.459 142.516 109.451 141.04 111.767L135.896 119.885L135.896 120.245L144.937 115.025L144.937 119.561L128.507 129.047Z" fill="black"/>
</svg>
