<svg width="256" height="256" viewBox="0 0 256 256" fill="none" xmlns="http://www.w3.org/2000/svg">
<path d="M154.461 100.267C154.461 122.064 139.159 148.568 120.282 159.467C101.405 170.365 86.1028 161.53 86.1028 139.733C86.1028 117.937 101.405 91.4318 120.282 80.5334C139.159 69.635 154.461 78.4699 154.461 100.267Z" fill="white" stroke="#1019EF" stroke-width="6.4"/>
<mask id="path-2-inside-1_787_790" fill="white">
<path d="M120.132 132.533L164.934 106.667L164.934 137.067L120.132 162.933L120.132 132.533Z"/>
</mask>
<path d="M120.132 132.533L164.934 106.667L164.934 137.067L120.132 162.933L120.132 132.533Z" fill="white"/>
<path d="M164.934 106.667L170.477 103.467L170.477 97.0668L164.934 100.267L164.934 106.667ZM164.934 137.067L164.934 143.467L170.477 140.267L170.477 133.867L164.934 137.067ZM120.132 138.933L164.934 113.067L164.934 100.267L120.132 126.133L120.132 138.933ZM159.392 109.867L159.392 140.267L170.477 133.867L170.477 103.467L159.392 109.867ZM164.934 130.667L120.132 156.533L120.132 169.333L164.934 143.467L164.934 130.667Z" fill="#1019EF" mask="url(#path-2-inside-1_787_790)"/>
<path d="M104.665 138.666L150.729 110.933L148.132 125.067L104.665 151.209L104.665 138.666Z" fill="white"/>
<path d="M99.8365 151.083L110.783 113.936L95.9105 122.523L95.9105 115.376L119.42 101.803L119.42 106.976L107.781 146.496L99.8365 151.083ZM122.147 138.202L122.147 133.295L135.865 111.348C135.957 111.188 136.05 111.028 136.142 110.868C136.265 110.69 136.373 110.522 136.465 110.362C137.759 108.264 138.682 106.593 139.237 105.348C139.822 104.086 140.114 102.868 140.114 101.695C140.114 100.628 139.883 99.8016 139.421 99.2149C138.96 98.5927 138.344 98.2549 137.574 98.2016C136.804 98.1483 135.942 98.3971 134.987 98.9483C133.879 99.5883 132.878 100.486 131.985 101.642C131.123 102.779 130.43 104.086 129.907 105.562C129.414 106.984 129.137 108.477 129.075 110.042L122.239 113.988C122.239 113.846 122.239 113.704 122.239 113.562C122.239 110.93 122.763 108.21 123.81 105.402C124.857 102.593 126.366 99.9794 128.336 97.5616C130.307 95.1438 132.555 93.206 135.08 91.7483C137.389 90.4149 139.468 89.7483 141.315 89.7483C143.163 89.7127 144.61 90.3171 145.657 91.5616C146.704 92.7705 147.227 94.5305 147.227 96.8416C147.227 98.9749 146.688 101.277 145.611 103.748C144.533 106.219 142.901 109.17 140.715 112.602L133.094 124.628L133.094 125.162L146.488 117.428L146.488 124.148L122.147 138.202Z" fill="black"/>
</svg>
