<svg width="256" height="256" viewBox="0 0 256 256" fill="none" xmlns="http://www.w3.org/2000/svg">
<path d="M154.461 100.267C154.461 122.063 139.159 148.568 120.282 159.467C101.405 170.365 86.1028 161.53 86.1028 139.733C86.1028 117.936 101.405 91.4316 120.282 80.5332C139.159 69.6348 154.461 78.4697 154.461 100.267Z" fill="white" stroke="#1019EF" stroke-width="6.4"/>
<mask id="path-2-inside-1_787_2060" fill="white">
<path d="M120.132 132.533L164.934 106.667L164.934 137.067L120.132 162.933L120.132 132.533Z"/>
</mask>
<path d="M120.132 132.533L164.934 106.667L164.934 137.067L120.132 162.933L120.132 132.533Z" fill="white"/>
<path d="M164.934 106.667L170.477 103.467L170.477 97.0665L164.934 100.267L164.934 106.667ZM164.934 137.067L164.934 143.467L170.477 140.267L170.477 133.867L164.934 137.067ZM120.132 138.933L164.934 113.067L164.934 100.267L120.132 126.133L120.132 138.933ZM159.391 109.867L159.391 140.267L170.477 133.867L170.477 103.467L159.391 109.867ZM164.934 130.667L120.132 156.533L120.132 169.333L164.934 143.467L164.934 130.667Z" fill="#1019EF" mask="url(#path-2-inside-1_787_2060)"/>
<path d="M104.665 138.665L150.729 110.933L148.132 125.066L104.665 151.208L104.665 138.665Z" fill="white"/>
<path d="M100.383 145.284L100.383 126.528L100.04 126.726L94.9896 133.962L94.9896 128.058L101.1 119.238L105.434 116.736L105.434 142.368L100.383 145.284ZM117.83 108.896C119.576 107.888 121.124 107.378 122.475 107.366C123.847 107.318 124.907 107.75 125.655 108.662C126.424 109.562 126.809 110.852 126.809 112.532C126.809 113.564 126.611 114.77 126.216 116.15C125.821 117.53 125.26 119.018 124.533 120.614L117.83 135.176L112.093 138.488L117.954 125.888C117.601 126.212 117.248 126.512 116.894 126.788C116.562 127.028 116.24 127.238 115.928 127.418C114.514 128.234 113.257 128.612 112.155 128.552C111.075 128.48 110.222 128 109.599 127.112C108.975 126.2 108.664 124.952 108.664 123.368C108.664 121.568 109.048 119.75 109.817 117.914C110.607 116.066 111.688 114.362 113.06 112.802C114.452 111.23 116.042 109.928 117.83 108.896ZM117.674 113.81C116.946 114.23 116.292 114.788 115.71 115.484C115.128 116.18 114.67 116.96 114.338 117.824C114.005 118.664 113.839 119.516 113.839 120.38C113.839 121.22 114.005 121.868 114.338 122.324C114.67 122.756 115.128 122.996 115.71 123.044C116.292 123.068 116.946 122.87 117.674 122.45C118.422 122.018 119.097 121.448 119.7 120.74C120.324 120.02 120.802 119.24 121.134 118.4C121.467 117.56 121.633 116.72 121.633 115.88C121.633 115.016 121.467 114.344 121.134 113.864C120.802 113.384 120.324 113.156 119.7 113.18C119.097 113.168 118.422 113.378 117.674 113.81ZM136.398 125.175C134.652 126.183 133.093 126.711 131.722 126.759C130.371 126.771 129.311 126.327 128.542 125.427C127.793 124.515 127.419 123.207 127.419 121.503C127.419 120.471 127.617 119.265 128.012 117.885C128.406 116.505 128.978 115.011 129.726 113.403L136.398 98.8591L142.135 95.5471L136.273 108.147C136.627 107.823 136.97 107.541 137.302 107.301C137.656 107.025 137.988 106.797 138.3 106.617C139.713 105.801 140.96 105.441 142.041 105.537C143.143 105.597 144.005 106.071 144.629 106.959C145.252 107.847 145.564 109.095 145.564 110.703C145.564 112.503 145.169 114.327 144.379 116.175C143.61 118.011 142.53 119.715 141.137 121.287C139.765 122.847 138.186 124.143 136.398 125.175ZM136.554 120.261C137.302 119.829 137.967 119.265 138.549 118.569C139.131 117.849 139.578 117.075 139.89 116.247C140.223 115.383 140.389 114.519 140.389 113.655C140.389 112.815 140.223 112.179 139.89 111.747C139.578 111.279 139.131 111.033 138.549 111.009C137.967 110.985 137.302 111.189 136.554 111.621C135.806 112.053 135.12 112.629 134.496 113.349C133.894 114.033 133.426 114.795 133.093 115.635C132.761 116.475 132.595 117.315 132.595 118.155C132.595 119.019 132.761 119.691 133.093 120.171C133.426 120.651 133.894 120.897 134.496 120.909C135.12 120.909 135.806 120.693 136.554 120.261Z" fill="black"/>
</svg>
