<svg width="256" height="256" viewBox="0 0 256 256" fill="none" xmlns="http://www.w3.org/2000/svg">
<path d="M154.461 100.267C154.461 122.063 139.159 148.568 120.282 159.467C101.405 170.365 86.1028 161.53 86.1028 139.733C86.1028 117.936 101.405 91.4317 120.282 80.5333C139.159 69.6349 154.461 78.4698 154.461 100.267Z" fill="white" stroke="#1019EF" stroke-width="6.4"/>
<mask id="path-2-inside-1_787_382" fill="white">
<path d="M120.132 132.533L164.934 106.667L164.934 137.067L120.132 162.933L120.132 132.533Z"/>
</mask>
<path d="M120.132 132.533L164.934 106.667L164.934 137.067L120.132 162.933L120.132 132.533Z" fill="white"/>
<path d="M164.934 106.667L170.477 103.467L170.477 97.0666L164.934 100.267L164.934 106.667ZM164.934 137.067L164.934 143.467L170.477 140.267L170.477 133.867L164.934 137.067ZM120.132 138.933L164.934 113.067L164.934 100.267L120.132 126.133L120.132 138.933ZM159.391 109.867L159.391 140.267L170.477 133.867L170.477 103.467L159.391 109.867ZM164.934 130.667L120.132 156.533L120.132 169.333L164.934 143.467L164.934 130.667Z" fill="#1019EF" mask="url(#path-2-inside-1_787_382)"/>
<path d="M104.665 138.665L150.729 110.933L148.132 125.067L104.665 151.209L104.665 138.665Z" fill="white"/>
<path d="M122.227 139.169C119.641 140.662 117.331 141.444 115.299 141.515C113.298 141.533 111.727 140.875 110.588 139.542C109.479 138.191 108.925 136.253 108.925 133.729C108.925 132.2 109.218 130.413 109.803 128.369C110.388 126.324 111.234 124.111 112.343 121.729L122.227 100.182L130.726 95.2754L122.042 113.942C122.566 113.462 123.074 113.044 123.567 112.689C124.09 112.28 124.583 111.942 125.045 111.675C127.139 110.467 128.986 109.933 130.587 110.075C132.219 110.164 133.497 110.867 134.421 112.182C135.345 113.498 135.806 115.347 135.806 117.729C135.806 120.395 135.221 123.098 134.051 125.835C132.912 128.555 131.311 131.08 129.248 133.409C127.215 135.72 124.875 137.64 122.227 139.169ZM122.458 131.889C123.567 131.249 124.552 130.413 125.414 129.382C126.276 128.315 126.938 127.169 127.4 125.942C127.893 124.662 128.139 123.382 128.139 122.102C128.139 120.858 127.893 119.915 127.4 119.275C126.938 118.582 126.276 118.218 125.414 118.182C124.552 118.147 123.567 118.449 122.458 119.089C121.35 119.729 120.333 120.582 119.41 121.649C118.517 122.662 117.824 123.791 117.331 125.035C116.839 126.28 116.592 127.524 116.592 128.769C116.592 130.049 116.839 131.044 117.331 131.755C117.824 132.467 118.517 132.831 119.41 132.849C120.333 132.849 121.35 132.529 122.458 131.889Z" fill="black"/>
</svg>
