<svg width="256" height="256" viewBox="0 0 256 256" fill="none" xmlns="http://www.w3.org/2000/svg">
<path d="M154.461 100.267C154.461 122.063 139.159 148.568 120.282 159.467C101.405 170.365 86.1028 161.53 86.1028 139.733C86.1028 117.936 101.405 91.4316 120.282 80.5332C139.159 69.6348 154.461 78.4697 154.461 100.267Z" fill="white" stroke="#1019EF" stroke-width="6.4"/>
<mask id="path-2-inside-1_787_2056" fill="white">
<path d="M120.132 132.533L164.934 106.667L164.934 137.067L120.132 162.933L120.132 132.533Z"/>
</mask>
<path d="M120.132 132.533L164.934 106.667L164.934 137.067L120.132 162.933L120.132 132.533Z" fill="white"/>
<path d="M164.934 106.667L170.477 103.467L170.477 97.0665L164.934 100.267L164.934 106.667ZM164.934 137.067L164.934 143.467L170.477 140.267L170.477 133.867L164.934 137.067ZM120.132 138.933L164.934 113.067L164.934 100.267L120.132 126.133L120.132 138.933ZM159.392 109.867L159.392 140.267L170.477 133.867L170.477 103.467L159.392 109.867ZM164.934 130.667L120.132 156.533L120.132 169.333L164.934 143.467L164.934 130.667Z" fill="#1019EF" mask="url(#path-2-inside-1_787_2056)"/>
<path d="M104.665 138.665L150.729 110.933L148.132 125.066L104.665 151.208L104.665 138.665Z" fill="white"/>
<path d="M99.6915 145.684L99.6915 126.928L99.3485 127.126L94.2979 134.362L94.2979 128.458L100.409 119.638L104.742 117.136L104.742 142.768L99.6915 145.684ZM117.138 109.295C118.884 108.287 120.432 107.777 121.783 107.765C123.155 107.717 124.215 108.149 124.963 109.061C125.732 109.961 126.117 111.251 126.117 112.931C126.117 113.963 125.919 115.169 125.524 116.549C125.13 117.929 124.568 119.417 123.841 121.013L117.138 135.575L111.401 138.887L117.263 126.287C116.909 126.611 116.556 126.911 116.203 127.187C115.87 127.427 115.548 127.637 115.236 127.817C113.823 128.633 112.565 129.011 111.464 128.951C110.383 128.879 109.531 128.399 108.907 127.511C108.284 126.599 107.972 125.351 107.972 123.767C107.972 121.967 108.356 120.149 109.125 118.313C109.915 116.465 110.996 114.761 112.368 113.201C113.76 111.629 115.35 110.327 117.138 109.295ZM116.982 114.209C116.255 114.629 115.6 115.187 115.018 115.883C114.436 116.579 113.979 117.359 113.646 118.223C113.314 119.063 113.147 119.915 113.147 120.779C113.147 121.619 113.314 122.267 113.646 122.723C113.979 123.155 114.436 123.395 115.018 123.443C115.6 123.467 116.255 123.269 116.982 122.849C117.73 122.417 118.406 121.847 119.008 121.139C119.632 120.419 120.11 119.639 120.443 118.799C120.775 117.959 120.941 117.119 120.941 116.279C120.941 115.415 120.775 114.743 120.443 114.263C120.11 113.783 119.632 113.555 119.008 113.579C118.406 113.567 117.73 113.777 116.982 114.209ZM128.531 129.033L128.531 125.721L137.791 110.907C137.853 110.799 137.915 110.691 137.978 110.583C138.061 110.463 138.134 110.349 138.196 110.241C139.069 108.825 139.692 107.697 140.067 106.857C140.461 106.005 140.659 105.183 140.659 104.391C140.659 103.671 140.503 103.113 140.191 102.717C139.879 102.297 139.464 102.069 138.944 102.033C138.425 101.997 137.843 102.165 137.198 102.537C136.45 102.969 135.775 103.575 135.172 104.355C134.59 105.123 134.122 106.005 133.769 107.001C133.436 107.961 133.249 108.969 133.208 110.025L128.593 112.689C128.593 112.593 128.593 112.497 128.593 112.401C128.593 110.625 128.947 108.789 129.653 106.893C130.36 104.997 131.379 103.233 132.709 101.601C134.039 99.9692 135.556 98.6612 137.261 97.6772C138.819 96.7772 140.222 96.3272 141.47 96.3272C142.717 96.3032 143.693 96.7112 144.4 97.5512C145.107 98.3672 145.46 99.5552 145.46 101.115C145.46 102.555 145.096 104.109 144.369 105.777C143.641 107.445 142.54 109.437 141.064 111.753L135.92 119.871L135.92 120.231L144.961 115.011L144.961 119.547L128.531 129.033Z" fill="black"/>
</svg>
