<svg width="256" height="256" viewBox="0 0 256 256" fill="none" xmlns="http://www.w3.org/2000/svg">
<path d="M154.461 100.267C154.461 122.063 139.159 148.568 120.282 159.467C101.405 170.365 86.1028 161.53 86.1028 139.733C86.1028 117.936 101.405 91.4316 120.282 80.5332C139.159 69.6348 154.461 78.4697 154.461 100.267Z" fill="white" stroke="#1019EF" stroke-width="6.4"/>
<mask id="path-2-inside-1_787_1654" fill="white">
<path d="M120.132 132.533L164.934 106.667L164.934 137.067L120.132 162.933L120.132 132.533Z"/>
</mask>
<path d="M120.132 132.533L164.934 106.667L164.934 137.067L120.132 162.933L120.132 132.533Z" fill="white"/>
<path d="M164.934 106.667L170.477 103.467L170.477 97.0665L164.934 100.267L164.934 106.667ZM164.934 137.067L164.934 143.467L170.477 140.267L170.477 133.867L164.934 137.067ZM120.132 138.933L164.934 113.067L164.934 100.267L120.132 126.133L120.132 138.933ZM159.392 109.867L159.392 140.267L170.477 133.867L170.477 103.467L159.392 109.867ZM164.934 130.667L120.132 156.533L120.132 169.333L164.934 143.467L164.934 130.667Z" fill="#1019EF" mask="url(#path-2-inside-1_787_1654)"/>
<path d="M104.665 138.665L150.729 110.933L148.132 125.066L104.665 151.208L104.665 138.665Z" fill="white"/>
<path d="M101.381 144.708L101.381 125.952L101.038 126.15L95.9875 133.386L95.9875 127.482L102.098 118.662L106.432 116.16L106.432 141.792L101.381 144.708ZM111.782 138.703L119.17 113.629L109.131 119.425L109.131 114.601L125.001 105.439L125.001 108.931L117.144 135.607L111.782 138.703ZM126.841 130.009L126.841 126.697L136.101 111.883C136.163 111.775 136.225 111.667 136.288 111.559C136.371 111.439 136.444 111.325 136.506 111.217C137.379 109.801 138.003 108.673 138.377 107.833C138.772 106.981 138.969 106.159 138.969 105.367C138.969 104.647 138.813 104.089 138.501 103.693C138.19 103.273 137.774 103.045 137.254 103.009C136.735 102.973 136.153 103.141 135.508 103.513C134.76 103.945 134.085 104.551 133.482 105.331C132.9 106.099 132.432 106.981 132.079 107.977C131.746 108.937 131.559 109.945 131.518 111.001L126.904 113.665C126.904 113.569 126.904 113.473 126.904 113.377C126.904 111.601 127.257 109.765 127.964 107.869C128.67 105.973 129.689 104.209 131.019 102.577C132.349 100.945 133.866 99.6368 135.571 98.6528C137.13 97.7528 138.533 97.3028 139.78 97.3028C141.027 97.2788 142.004 97.6868 142.71 98.5268C143.417 99.3428 143.77 100.531 143.77 102.091C143.77 103.531 143.407 105.085 142.679 106.753C141.952 108.421 140.85 110.413 139.374 112.729L134.23 120.847L134.23 121.207L143.271 115.987L143.271 120.523L126.841 130.009Z" fill="black"/>
</svg>
