<svg width="256" height="256" viewBox="0 0 256 256" fill="none" xmlns="http://www.w3.org/2000/svg">
<path d="M154.461 100.267C154.461 122.064 139.159 148.568 120.282 159.467C101.405 170.365 86.1028 161.53 86.1028 139.733C86.1028 117.937 101.405 91.4318 120.282 80.5334C139.159 69.6349 154.461 78.4698 154.461 100.267Z" fill="white" stroke="#1019EF" stroke-width="6.4"/>
<mask id="path-2-inside-1_787_571" fill="white">
<path d="M120.132 132.533L164.934 106.667L164.934 137.067L120.132 162.933L120.132 132.533Z"/>
</mask>
<path d="M120.132 132.533L164.934 106.667L164.934 137.067L120.132 162.933L120.132 132.533Z" fill="white"/>
<path d="M164.934 106.667L170.477 103.467L170.477 97.0666L164.934 100.267L164.934 106.667ZM164.934 137.067L164.934 143.467L170.477 140.267L170.477 133.867L164.934 137.067ZM120.132 138.933L164.934 113.067L164.934 100.267L120.132 126.133L120.132 138.933ZM159.391 109.867L159.391 140.267L170.477 133.867L170.477 103.467L159.391 109.867ZM164.934 130.667L120.132 156.533L120.132 169.333L164.934 143.467L164.934 130.667Z" fill="#1019EF" mask="url(#path-2-inside-1_787_571)"/>
<path d="M104.665 138.665L150.729 110.933L148.132 125.067L104.665 151.209L104.665 138.665Z" fill="white"/>
<path d="M97.2038 152.603L97.2038 147.696L110.922 125.749C111.014 125.589 111.106 125.429 111.199 125.269C111.322 125.092 111.43 124.923 111.522 124.763C112.815 122.665 113.739 120.994 114.293 119.749C114.878 118.487 115.171 117.269 115.171 116.096C115.171 115.029 114.94 114.203 114.478 113.616C114.016 112.994 113.4 112.656 112.631 112.603C111.861 112.549 110.999 112.798 110.044 113.349C108.936 113.989 107.935 114.887 107.042 116.043C106.18 117.18 105.487 118.487 104.963 119.963C104.471 121.385 104.194 122.878 104.132 124.443L97.2962 128.389C97.2962 128.247 97.2962 128.105 97.2962 127.963C97.2962 125.332 97.8196 122.612 98.8665 119.803C99.9135 116.994 101.422 114.38 103.393 111.963C105.364 109.545 107.611 107.607 110.136 106.149C112.446 104.816 114.524 104.149 116.372 104.149C118.219 104.114 119.667 104.718 120.713 105.963C121.76 107.172 122.284 108.932 122.284 111.243C122.284 113.376 121.745 115.678 120.667 118.149C119.59 120.62 117.958 123.572 115.771 127.003L108.15 139.029L108.15 139.563L121.545 131.829L121.545 138.549L97.2038 152.603ZM128.388 134.598L139.335 97.4516L124.462 106.038L124.462 98.8916L147.972 85.3183L147.972 90.4916L136.333 130.012L128.388 134.598Z" fill="black"/>
</svg>
