<svg width="256" height="256" viewBox="0 0 256 256" fill="none" xmlns="http://www.w3.org/2000/svg">
<path d="M154.461 100.267C154.461 122.063 139.159 148.568 120.282 159.467C101.405 170.365 86.1028 161.53 86.1028 139.733C86.1028 117.936 101.405 91.4316 120.282 80.5332C139.159 69.6348 154.461 78.4697 154.461 100.267Z" fill="white" stroke="#1019EF" stroke-width="6.4"/>
<mask id="path-2-inside-1_787_2058" fill="white">
<path d="M120.132 132.533L164.934 106.667L164.934 137.067L120.132 162.933L120.132 132.533Z"/>
</mask>
<path d="M120.132 132.533L164.934 106.667L164.934 137.067L120.132 162.933L120.132 132.533Z" fill="white"/>
<path d="M164.934 106.667L170.477 103.467L170.477 97.0665L164.934 100.267L164.934 106.667ZM164.934 137.067L164.934 143.467L170.477 140.267L170.477 133.867L164.934 137.067ZM120.132 138.933L164.934 113.067L164.934 100.267L120.132 126.133L120.132 138.933ZM159.391 109.867L159.391 140.267L170.477 133.867L170.477 103.467L159.391 109.867ZM164.934 130.667L120.132 156.533L120.132 169.333L164.934 143.467L164.934 130.667Z" fill="#1019EF" mask="url(#path-2-inside-1_787_2058)"/>
<path d="M104.665 138.665L150.729 110.933L148.132 125.066L104.665 151.208L104.665 138.665Z" fill="white"/>
<path d="M99.7741 145.636L99.7741 126.88L99.4312 127.078L94.3805 134.314L94.3805 128.41L100.491 119.59L104.825 117.088L104.825 142.72L99.7741 145.636ZM117.221 109.247C118.966 108.239 120.515 107.729 121.866 107.717C123.238 107.669 124.298 108.101 125.046 109.013C125.815 109.913 126.199 111.203 126.199 112.883C126.199 113.915 126.002 115.121 125.607 116.501C125.212 117.881 124.651 119.369 123.924 120.965L117.221 135.527L111.484 138.839L117.345 126.239C116.992 126.563 116.639 126.863 116.285 127.139C115.953 127.379 115.63 127.589 115.319 127.769C113.905 128.585 112.648 128.963 111.546 128.903C110.466 128.831 109.613 128.351 108.99 127.463C108.366 126.551 108.054 125.303 108.054 123.719C108.054 121.919 108.439 120.101 109.208 118.265C109.998 116.417 111.079 114.713 112.45 113.153C113.843 111.581 115.433 110.279 117.221 109.247ZM117.065 114.161C116.337 114.581 115.682 115.139 115.1 115.835C114.519 116.531 114.061 117.311 113.729 118.175C113.396 119.015 113.23 119.867 113.23 120.731C113.23 121.571 113.396 122.219 113.729 122.675C114.061 123.107 114.519 123.347 115.1 123.395C115.682 123.419 116.337 123.221 117.065 122.801C117.813 122.369 118.488 121.799 119.091 121.091C119.715 120.371 120.193 119.591 120.525 118.751C120.858 117.911 121.024 117.071 121.024 116.231C121.024 115.367 120.858 114.695 120.525 114.215C120.193 113.735 119.715 113.507 119.091 113.531C118.488 113.519 117.813 113.729 117.065 114.161ZM138.434 123.315L138.434 118.023L127.803 124.161L127.803 120.885L136.252 98.9433L143.61 94.6953L143.61 110.535L146.197 109.041L146.197 113.541L143.61 115.035L143.61 120.327L138.434 123.315ZM132.823 116.763L138.403 113.541L138.403 102.669L138.092 102.849L132.823 116.763Z" fill="black"/>
</svg>
