<svg width="256" height="256" viewBox="0 0 256 256" fill="none" xmlns="http://www.w3.org/2000/svg">
<path d="M154.461 100.267C154.461 122.063 139.159 148.568 120.282 159.467C101.405 170.365 86.1028 161.53 86.1028 139.733C86.1028 117.936 101.405 91.4316 120.282 80.5332C139.159 69.6348 154.461 78.4697 154.461 100.267Z" fill="white" stroke="#1019EF" stroke-width="6.4"/>
<mask id="path-2-inside-1_787_1639" fill="white">
<path d="M120.132 132.533L164.934 106.667L164.934 137.067L120.132 162.933L120.132 132.533Z"/>
</mask>
<path d="M120.132 132.533L164.934 106.667L164.934 137.067L120.132 162.933L120.132 132.533Z" fill="white"/>
<path d="M164.934 106.667L170.477 103.467L170.477 97.0665L164.934 100.267L164.934 106.667ZM164.934 137.067L164.934 143.467L170.477 140.267L170.477 133.867L164.934 137.067ZM120.132 138.933L164.934 113.067L164.934 100.267L120.132 126.133L120.132 138.933ZM159.391 109.867L159.391 140.267L170.477 133.867L170.477 103.467L159.391 109.867ZM164.934 130.667L120.132 156.533L120.132 169.333L164.934 143.467L164.934 130.667Z" fill="#1019EF" mask="url(#path-2-inside-1_787_1639)"/>
<path d="M104.665 138.665L150.729 110.933L148.132 125.066L104.665 151.208L104.665 138.665Z" fill="white"/>
<path d="M101.168 144.831L101.168 126.075L100.825 126.273L95.7744 133.509L95.7744 127.605L101.885 118.785L106.219 116.283L106.219 141.915L101.168 144.831ZM118.334 135.605C116.692 136.553 115.206 137.003 113.876 136.955C112.545 136.883 111.485 136.343 110.695 135.335C109.906 134.327 109.48 132.929 109.417 131.141L114.218 128.369C114.218 129.281 114.395 130.007 114.748 130.547C115.123 131.075 115.611 131.393 116.214 131.501C116.837 131.573 117.523 131.393 118.271 130.961C119.02 130.529 119.685 129.965 120.267 129.269C120.87 128.561 121.337 127.787 121.67 126.947C122.002 126.107 122.169 125.303 122.169 124.535C122.169 123.695 121.992 123.053 121.639 122.609C121.285 122.165 120.776 121.955 120.111 121.979C119.446 122.003 118.666 122.273 117.773 122.789L111.163 126.605L112.192 112.835L125.317 105.257L125.317 109.793L115.964 115.193L115.559 120.035L119.113 117.983C120.672 117.083 122.044 116.651 123.229 116.687C124.434 116.711 125.369 117.179 126.034 118.091C126.7 118.979 127.032 120.239 127.032 121.871C127.032 123.527 126.658 125.231 125.91 126.983C125.162 128.735 124.122 130.379 122.792 131.915C121.483 133.415 119.997 134.645 118.334 135.605ZM131.267 127.453L138.656 102.379L128.617 108.175L128.617 103.351L144.486 94.1895L144.486 97.6815L136.63 124.357L131.267 127.453Z" fill="black"/>
</svg>
