<svg width="256" height="256" viewBox="0 0 256 256" fill="none" xmlns="http://www.w3.org/2000/svg">
<path d="M154.461 100.267C154.461 122.063 139.159 148.568 120.282 159.467C101.405 170.365 86.1028 161.53 86.1028 139.733C86.1028 117.936 101.405 91.4316 120.282 80.5332C139.159 69.6348 154.461 78.4697 154.461 100.267Z" fill="white" stroke="#1019EF" stroke-width="6.4"/>
<mask id="path-2-inside-1_787_2091" fill="white">
<path d="M120.132 132.533L164.934 106.667L164.934 137.067L120.132 162.933L120.132 132.533Z"/>
</mask>
<path d="M120.132 132.533L164.934 106.667L164.934 137.067L120.132 162.933L120.132 132.533Z" fill="white"/>
<path d="M164.934 106.667L170.477 103.467L170.477 97.0665L164.934 100.267L164.934 106.667ZM164.934 137.067L164.934 143.467L170.477 140.267L170.477 133.867L164.934 137.067ZM120.132 138.933L164.934 113.067L164.934 100.267L120.132 126.133L120.132 138.933ZM159.391 109.867L159.391 140.267L170.477 133.867L170.477 103.467L159.391 109.867ZM164.934 130.667L120.132 156.533L120.132 169.333L164.934 143.467L164.934 130.667Z" fill="#1019EF" mask="url(#path-2-inside-1_787_2091)"/>
<path d="M104.665 138.665L150.729 110.933L148.132 125.066L104.665 151.208L104.665 138.665Z" fill="white"/>
<path d="M93.6091 149.195L93.6091 145.883L102.869 131.069C102.931 130.961 102.993 130.853 103.056 130.745C103.139 130.625 103.212 130.511 103.274 130.403C104.147 128.987 104.77 127.859 105.145 127.019C105.539 126.167 105.737 125.345 105.737 124.553C105.737 123.833 105.581 123.275 105.269 122.879C104.958 122.459 104.542 122.231 104.022 122.195C103.503 122.159 102.921 122.327 102.276 122.699C101.528 123.131 100.853 123.737 100.25 124.517C99.6678 125.285 99.2002 126.167 98.8468 127.163C98.5143 128.123 98.3272 129.131 98.2856 130.187L93.6715 132.851C93.6715 132.755 93.6715 132.659 93.6715 132.563C93.6715 130.787 94.0248 128.951 94.7315 127.055C95.4382 125.159 96.4566 123.395 97.7868 121.763C99.117 120.131 100.634 118.823 102.339 117.839C103.897 116.939 105.3 116.489 106.548 116.489C107.795 116.465 108.771 116.873 109.478 117.713C110.185 118.529 110.538 119.717 110.538 121.277C110.538 122.717 110.174 124.271 109.447 125.939C108.72 127.607 107.618 129.599 106.142 131.915L100.998 140.033L100.998 140.393L110.039 135.173L110.039 139.709L93.6091 149.195ZM112.882 138.068L112.882 134.756L122.141 119.942C122.203 119.834 122.266 119.726 122.328 119.618C122.411 119.498 122.484 119.384 122.546 119.276C123.419 117.86 124.043 116.732 124.417 115.892C124.812 115.04 125.009 114.218 125.009 113.426C125.009 112.706 124.853 112.148 124.542 111.752C124.23 111.332 123.814 111.104 123.295 111.068C122.775 111.032 122.193 111.2 121.549 111.572C120.8 112.004 120.125 112.61 119.522 113.39C118.94 114.158 118.473 115.04 118.119 116.036C117.787 116.996 117.6 118.004 117.558 119.06L112.944 121.724C112.944 121.628 112.944 121.532 112.944 121.436C112.944 119.66 113.297 117.824 114.004 115.928C114.711 114.032 115.729 112.268 117.059 110.636C118.389 109.004 119.907 107.696 121.611 106.712C123.17 105.812 124.573 105.362 125.82 105.362C127.067 105.338 128.044 105.746 128.751 106.586C129.457 107.402 129.811 108.59 129.811 110.15C129.811 111.59 129.447 113.144 128.719 114.812C127.992 116.48 126.89 118.472 125.415 120.788L120.27 128.906L120.27 129.266L129.312 124.046L129.312 128.582L112.882 138.068ZM133.931 125.915L141.32 100.841L131.281 106.637L131.281 101.813L147.15 92.6514L147.15 96.1434L139.294 122.819L133.931 125.915Z" fill="black"/>
</svg>
