<svg width="256" height="256" viewBox="0 0 256 256" fill="none" xmlns="http://www.w3.org/2000/svg">
<path d="M154.461 100.267C154.461 122.063 139.159 148.568 120.282 159.467C101.405 170.365 86.1028 161.53 86.1028 139.733C86.1028 117.936 101.405 91.4317 120.282 80.5333C139.159 69.6349 154.461 78.4698 154.461 100.267Z" fill="white" stroke="#1019EF" stroke-width="6.4"/>
<mask id="path-2-inside-1_787_767" fill="white">
<path d="M120.132 132.533L164.934 106.667L164.934 137.067L120.132 162.933L120.132 132.533Z"/>
</mask>
<path d="M120.132 132.533L164.934 106.667L164.934 137.067L120.132 162.933L120.132 132.533Z" fill="white"/>
<path d="M164.934 106.667L170.477 103.467L170.477 97.0665L164.934 100.267L164.934 106.667ZM164.934 137.067L164.934 143.467L170.477 140.267L170.477 133.867L164.934 137.067ZM120.132 138.933L164.934 113.067L164.934 100.267L120.132 126.133L120.132 138.933ZM159.391 109.867L159.391 140.267L170.477 133.867L170.477 103.467L159.391 109.867ZM164.934 130.667L120.132 156.533L120.132 169.333L164.934 143.467L164.934 130.667Z" fill="#1019EF" mask="url(#path-2-inside-1_787_767)"/>
<path d="M104.665 138.665L150.729 110.933L148.132 125.067L104.665 151.209L104.665 138.665Z" fill="white"/>
<path d="M109.164 145.697L109.164 137.857L93.414 146.951L93.414 142.097L105.931 109.591L116.831 103.297L116.831 126.764L120.665 124.551L120.665 131.217L116.831 133.431L116.831 141.271L109.164 145.697ZM100.85 135.991L109.118 131.217L109.118 115.111L108.656 115.377L100.85 135.991ZM137.275 90.4808C139.862 88.9874 142.156 88.2319 144.157 88.2141C146.19 88.143 147.76 88.783 148.868 90.1341C150.008 91.4674 150.577 93.3785 150.577 95.8674C150.577 97.3963 150.285 99.183 149.7 101.227C149.115 103.272 148.283 105.476 147.206 107.841L137.275 129.414L128.777 134.321L137.46 115.654C136.937 116.134 136.413 116.579 135.89 116.987C135.397 117.343 134.92 117.654 134.458 117.921C132.364 119.13 130.501 119.69 128.869 119.601C127.268 119.494 126.005 118.783 125.082 117.467C124.158 116.116 123.696 114.267 123.696 111.921C123.696 109.254 124.266 106.561 125.405 103.841C126.575 101.103 128.176 98.5785 130.209 96.2674C132.272 93.9385 134.627 92.0096 137.275 90.4808ZM137.044 97.7608C135.967 98.383 134.997 99.2096 134.135 100.241C133.272 101.272 132.595 102.427 132.102 103.707C131.61 104.952 131.363 106.214 131.363 107.494C131.363 108.739 131.61 109.699 132.102 110.374C132.595 111.014 133.272 111.37 134.135 111.441C134.997 111.476 135.967 111.183 137.044 110.561C138.153 109.921 139.154 109.076 140.047 108.027C140.97 106.961 141.679 105.805 142.171 104.561C142.664 103.316 142.91 102.072 142.91 100.827C142.91 99.5474 142.664 98.5519 142.171 97.8408C141.679 97.1296 140.97 96.7919 140.047 96.8274C139.154 96.8096 138.153 97.1208 137.044 97.7608Z" fill="black"/>
</svg>
