<svg width="256" height="256" viewBox="0 0 256 256" fill="none" xmlns="http://www.w3.org/2000/svg">
<path d="M154.461 100.267C154.461 122.064 139.159 148.568 120.282 159.467C101.405 170.365 86.1028 161.53 86.1028 139.733C86.1028 117.937 101.405 91.4318 120.282 80.5334C139.159 69.635 154.461 78.4699 154.461 100.267Z" fill="white" stroke="#1019EF" stroke-width="6.4"/>
<mask id="path-2-inside-1_787_1628" fill="white">
<path d="M120.132 132.533L164.934 106.667L164.934 137.067L120.132 162.933L120.132 132.533Z"/>
</mask>
<path d="M120.132 132.533L164.934 106.667L164.934 137.067L120.132 162.933L120.132 132.533Z" fill="white"/>
<path d="M164.934 106.667L170.477 103.467L170.477 97.0668L164.934 100.267L164.934 106.667ZM164.934 137.067L164.934 143.467L170.477 140.267L170.477 133.867L164.934 137.067ZM120.132 138.933L164.934 113.067L164.934 100.267L120.132 126.133L120.132 138.933ZM159.391 109.867L159.391 140.267L170.477 133.867L170.477 103.467L159.391 109.867ZM164.934 130.667L120.132 156.533L120.132 169.333L164.934 143.467L164.934 130.667Z" fill="#1019EF" mask="url(#path-2-inside-1_787_1628)"/>
<path d="M104.665 138.666L150.729 110.933L148.132 125.067L104.665 151.209L104.665 138.666Z" fill="white"/>
<path d="M99.7589 145.645L99.7589 126.889L99.4159 127.087L94.3653 134.323L94.3653 128.419L100.476 119.599L104.81 117.097L104.81 142.729L99.7589 145.645ZM118.203 134.996L118.203 129.704L107.572 135.842L107.572 132.566L116.021 110.624L123.378 106.376L123.378 122.216L125.966 120.722L125.966 125.222L123.378 126.716L123.378 132.008L118.203 134.996ZM112.591 128.444L118.172 125.222L118.172 114.35L117.86 114.53L112.591 128.444ZM137.022 124.815C135.276 125.823 133.717 126.351 132.346 126.399C130.995 126.411 129.935 125.967 129.166 125.067C128.417 124.155 128.043 122.847 128.043 121.143C128.043 120.111 128.241 118.905 128.636 117.525C129.03 116.145 129.602 114.651 130.35 113.043L137.022 98.4987L142.759 95.1867L136.897 107.787C137.251 107.463 137.594 107.181 137.926 106.941C138.28 106.665 138.612 106.437 138.924 106.257C140.337 105.441 141.584 105.081 142.665 105.177C143.767 105.237 144.629 105.711 145.253 106.599C145.876 107.487 146.188 108.735 146.188 110.343C146.188 112.143 145.793 113.967 145.003 115.815C144.234 117.651 143.154 119.355 141.761 120.927C140.389 122.487 138.81 123.783 137.022 124.815ZM137.178 119.901C137.926 119.469 138.591 118.905 139.173 118.209C139.755 117.489 140.202 116.715 140.514 115.887C140.846 115.023 141.013 114.159 141.013 113.295C141.013 112.455 140.846 111.819 140.514 111.387C140.202 110.919 139.755 110.673 139.173 110.649C138.591 110.625 137.926 110.829 137.178 111.261C136.43 111.693 135.744 112.269 135.12 112.989C134.518 113.673 134.05 114.435 133.717 115.275C133.385 116.115 133.219 116.955 133.219 117.795C133.219 118.659 133.385 119.331 133.717 119.811C134.05 120.291 134.518 120.537 135.12 120.549C135.744 120.549 136.43 120.333 137.178 119.901Z" fill="black"/>
</svg>
