<svg width="256" height="256" viewBox="0 0 256 256" fill="none" xmlns="http://www.w3.org/2000/svg">
<path d="M154.461 100.267C154.461 122.063 139.159 148.568 120.282 159.467C101.405 170.365 86.1028 161.53 86.1028 139.733C86.1028 117.936 101.405 91.4316 120.282 80.5332C139.159 69.6348 154.461 78.4697 154.461 100.267Z" fill="white" stroke="#1019EF" stroke-width="6.4"/>
<mask id="path-2-inside-1_787_2083" fill="white">
<path d="M120.132 132.533L164.934 106.667L164.934 137.067L120.132 162.933L120.132 132.533Z"/>
</mask>
<path d="M120.132 132.533L164.934 106.667L164.934 137.067L120.132 162.933L120.132 132.533Z" fill="white"/>
<path d="M164.934 106.667L170.477 103.467L170.477 97.0665L164.934 100.267L164.934 106.667ZM164.934 137.067L164.934 143.467L170.477 140.267L170.477 133.867L164.934 137.067ZM120.132 138.933L164.934 113.067L164.934 100.267L120.132 126.133L120.132 138.933ZM159.391 109.867L159.391 140.267L170.477 133.867L170.477 103.467L159.391 109.867ZM164.934 130.667L120.132 156.533L120.132 169.333L164.934 143.467L164.934 130.667Z" fill="#1019EF" mask="url(#path-2-inside-1_787_2083)"/>
<path d="M104.665 138.665L150.729 110.933L148.132 125.066L104.665 151.208L104.665 138.665Z" fill="white"/>
<path d="M94.7964 148.51L94.7964 145.198L104.056 130.384C104.118 130.276 104.181 130.168 104.243 130.06C104.326 129.94 104.399 129.826 104.461 129.718C105.334 128.302 105.958 127.174 106.332 126.334C106.727 125.482 106.924 124.66 106.924 123.868C106.924 123.148 106.768 122.59 106.457 122.194C106.145 121.774 105.729 121.546 105.21 121.51C104.69 121.474 104.108 121.642 103.464 122.014C102.715 122.446 102.04 123.052 101.437 123.832C100.855 124.6 100.388 125.482 100.034 126.478C99.7016 127.438 99.5146 128.446 99.473 129.502L94.8588 132.166C94.8588 132.07 94.8588 131.974 94.8588 131.878C94.8588 130.102 95.2121 128.266 95.9188 126.37C96.6255 124.474 97.6439 122.71 98.9742 121.078C100.304 119.446 101.822 118.138 103.526 117.154C105.085 116.254 106.488 115.804 107.735 115.804C108.982 115.78 109.959 116.188 110.665 117.028C111.372 117.844 111.726 119.032 111.726 120.592C111.726 122.032 111.362 123.586 110.634 125.254C109.907 126.922 108.805 128.914 107.33 131.23L102.185 139.348L102.185 139.708L111.227 134.488L111.227 139.024L94.7964 148.51ZM118.964 134.557L118.964 115.801L118.621 115.999L113.57 123.235L113.57 117.331L119.681 108.511L124.014 106.009L124.014 131.641L118.964 134.557ZM136.41 98.1681C138.156 97.1601 139.704 96.6501 141.055 96.6381C142.427 96.5901 143.487 97.0221 144.235 97.9341C145.005 98.8341 145.389 100.124 145.389 101.804C145.389 102.836 145.192 104.042 144.797 105.422C144.402 106.802 143.841 108.29 143.113 109.886L136.41 124.448L130.674 127.76L136.535 115.16C136.181 115.484 135.828 115.784 135.475 116.06C135.142 116.3 134.82 116.51 134.508 116.69C133.095 117.506 131.837 117.884 130.736 117.824C129.655 117.752 128.803 117.272 128.179 116.384C127.556 115.472 127.244 114.224 127.244 112.64C127.244 110.84 127.629 109.022 128.398 107.186C129.187 105.338 130.268 103.634 131.64 102.074C133.033 100.502 134.623 99.2001 136.41 98.1681ZM136.254 103.082C135.527 103.502 134.872 104.06 134.29 104.756C133.708 105.452 133.251 106.232 132.918 107.096C132.586 107.936 132.419 108.788 132.419 109.652C132.419 110.492 132.586 111.14 132.918 111.596C133.251 112.028 133.708 112.268 134.29 112.316C134.872 112.34 135.527 112.142 136.254 111.722C137.002 111.29 137.678 110.72 138.281 110.012C138.904 109.292 139.382 108.512 139.715 107.672C140.047 106.832 140.214 105.992 140.214 105.152C140.214 104.288 140.047 103.616 139.715 103.136C139.382 102.656 138.904 102.428 138.281 102.452C137.678 102.44 137.002 102.65 136.254 103.082Z" fill="black"/>
</svg>
