<svg width="256" height="256" viewBox="0 0 256 256" fill="none" xmlns="http://www.w3.org/2000/svg">
<path d="M154.461 100.267C154.461 122.063 139.159 148.568 120.282 159.467C101.405 170.365 86.1028 161.53 86.1028 139.733C86.1028 117.936 101.405 91.4316 120.282 80.5332C139.159 69.6348 154.461 78.4697 154.461 100.267Z" fill="white" stroke="#1019EF" stroke-width="6.4"/>
<mask id="path-2-inside-1_787_2074" fill="white">
<path d="M120.132 132.533L164.934 106.667L164.934 137.067L120.132 162.933L120.132 132.533Z"/>
</mask>
<path d="M120.132 132.533L164.934 106.667L164.934 137.067L120.132 162.933L120.132 132.533Z" fill="white"/>
<path d="M164.934 106.667L170.477 103.467L170.477 97.0665L164.934 100.267L164.934 106.667ZM164.934 137.067L164.934 143.467L170.477 140.267L170.477 133.867L164.934 137.067ZM120.132 138.933L164.934 113.067L164.934 100.267L120.132 126.133L120.132 138.933ZM159.391 109.867L159.391 140.267L170.477 133.867L170.477 103.467L159.391 109.867ZM164.934 130.667L120.132 156.533L120.132 169.333L164.934 143.467L164.934 130.667Z" fill="#1019EF" mask="url(#path-2-inside-1_787_2074)"/>
<path d="M104.665 138.665L150.729 110.933L148.132 125.066L104.665 151.208L104.665 138.665Z" fill="white"/>
<path d="M93.8747 149.042L93.8747 145.73L103.134 130.916C103.197 130.808 103.259 130.7 103.321 130.592C103.404 130.472 103.477 130.358 103.54 130.25C104.412 128.834 105.036 127.706 105.41 126.866C105.805 126.014 106.002 125.192 106.002 124.4C106.002 123.68 105.847 123.122 105.535 122.726C105.223 122.306 104.807 122.078 104.288 122.042C103.768 122.006 103.186 122.174 102.542 122.546C101.794 122.978 101.118 123.584 100.515 124.364C99.9334 125.132 99.4657 126.014 99.1124 127.01C98.7798 127.97 98.5928 128.978 98.5512 130.034L93.937 132.698C93.937 132.602 93.937 132.506 93.937 132.41C93.937 130.634 94.2904 128.798 94.997 126.902C95.7037 125.006 96.7222 123.242 98.0524 121.61C99.3826 119.978 100.9 118.67 102.604 117.686C104.163 116.786 105.566 116.336 106.813 116.336C108.06 116.312 109.037 116.72 109.744 117.56C110.45 118.376 110.804 119.564 110.804 121.124C110.804 122.564 110.44 124.118 109.713 125.786C108.985 127.454 107.883 129.446 106.408 131.762L101.264 139.88L101.264 140.24L110.305 135.02L110.305 139.556L93.8747 149.042ZM118.042 135.089L118.042 116.333L117.699 116.531L112.648 123.767L112.648 117.863L118.759 109.043L123.093 106.541L123.093 132.173L118.042 135.089ZM136.767 124.962C134.792 126.102 133.036 126.552 131.498 126.312C129.98 126.036 128.796 125.124 127.943 123.576C127.091 122.004 126.665 119.91 126.665 117.294C126.665 114.678 127.091 112.104 127.943 109.572C128.796 107.016 129.98 104.736 131.498 102.732C133.036 100.692 134.792 99.1023 136.767 97.9623C138.72 96.8343 140.466 96.4023 142.004 96.6663C143.542 96.9063 144.737 97.8123 145.59 99.3843C146.442 100.932 146.868 103.014 146.868 105.63C146.868 108.246 146.442 110.832 145.59 113.388C144.737 115.92 143.542 118.206 142.004 120.246C140.466 122.262 138.72 123.834 136.767 124.962ZM136.767 119.814C137.743 119.25 138.596 118.41 139.323 117.294C140.071 116.166 140.653 114.846 141.069 113.334C141.485 111.822 141.692 110.25 141.692 108.618C141.692 106.986 141.485 105.654 141.069 104.622C140.653 103.59 140.071 102.942 139.323 102.678C138.596 102.402 137.743 102.546 136.767 103.11C135.79 103.674 134.927 104.52 134.179 105.648C133.431 106.776 132.849 108.096 132.433 109.608C132.038 111.108 131.841 112.674 131.841 114.306C131.841 115.938 132.038 117.276 132.433 118.32C132.849 119.352 133.431 120 134.179 120.264C134.927 120.528 135.79 120.378 136.767 119.814Z" fill="black"/>
</svg>
