<svg width="256" height="256" viewBox="0 0 256 256" fill="none" xmlns="http://www.w3.org/2000/svg">
<path d="M154.461 100.267C154.461 122.064 139.159 148.568 120.282 159.467C101.405 170.365 86.1028 161.53 86.1028 139.733C86.1028 117.937 101.405 91.4318 120.282 80.5334C139.159 69.635 154.461 78.4699 154.461 100.267Z" fill="white" stroke="#1019EF" stroke-width="6.4"/>
<mask id="path-2-inside-1_787_1218" fill="white">
<path d="M120.132 132.533L164.934 106.667L164.934 137.067L120.132 162.933L120.132 132.533Z"/>
</mask>
<path d="M120.132 132.533L164.934 106.667L164.934 137.067L120.132 162.933L120.132 132.533Z" fill="white"/>
<path d="M164.934 106.667L170.477 103.467L170.477 97.0668L164.934 100.267L164.934 106.667ZM164.934 137.067L164.934 143.467L170.477 140.267L170.477 133.867L164.934 137.067ZM120.132 138.933L164.934 113.067L164.934 100.267L120.132 126.133L120.132 138.933ZM159.391 109.867L159.391 140.267L170.477 133.867L170.477 103.467L159.391 109.867ZM164.934 130.667L120.132 156.533L120.132 169.333L164.934 143.467L164.934 130.667Z" fill="#1019EF" mask="url(#path-2-inside-1_787_1218)"/>
<path d="M104.665 138.666L150.729 110.933L148.132 125.067L104.665 151.209L104.665 138.666Z" fill="white"/>
<path d="M102.34 144.154L102.34 125.398L101.997 125.596L96.9465 132.832L96.9465 126.928L103.057 118.108L107.391 115.606L107.391 141.238L102.34 144.154ZM115.858 136.35L115.858 117.594L115.515 117.792L110.465 125.028L110.465 119.124L116.575 110.304L120.909 107.802L120.909 133.434L115.858 136.35ZM133.461 126.835C131.631 127.891 130.031 128.503 128.659 128.671C127.308 128.803 126.248 128.515 125.479 127.807C124.731 127.087 124.357 125.983 124.357 124.495C124.357 122.887 124.762 121.285 125.573 119.689C126.383 118.093 127.423 116.749 128.69 115.657L128.69 115.297C127.693 115.417 126.872 115.183 126.227 114.595C125.604 113.971 125.292 112.999 125.292 111.679C125.292 110.263 125.625 108.823 126.29 107.359C126.976 105.883 127.932 104.503 129.158 103.219C130.405 101.923 131.839 100.807 133.461 99.8711C135.04 98.9591 136.443 98.4491 137.669 98.3411C138.896 98.2331 139.852 98.5211 140.538 99.2051C141.244 99.8531 141.598 100.873 141.598 102.265C141.598 103.585 141.276 104.923 140.631 106.279C140.008 107.599 139.187 108.781 138.168 109.825L138.168 110.185C139.457 109.801 140.506 109.939 141.317 110.599C142.128 111.259 142.533 112.393 142.533 114.001C142.533 115.489 142.148 117.031 141.379 118.627C140.631 120.211 139.571 121.723 138.199 123.163C136.828 124.579 135.248 125.803 133.461 126.835ZM133.461 110.959C134.084 110.599 134.645 110.143 135.144 109.591C135.664 109.003 136.069 108.385 136.36 107.737C136.651 107.065 136.796 106.417 136.796 105.793C136.796 105.193 136.651 104.737 136.36 104.425C136.069 104.089 135.664 103.939 135.144 103.975C134.645 103.975 134.084 104.155 133.461 104.515C132.795 104.899 132.203 105.385 131.683 105.973C131.185 106.525 130.79 107.137 130.499 107.809C130.229 108.445 130.093 109.063 130.093 109.663C130.093 110.287 130.229 110.773 130.499 111.121C130.79 111.433 131.195 111.583 131.715 111.571C132.234 111.535 132.816 111.331 133.461 110.959ZM133.461 122.155C134.146 121.759 134.78 121.249 135.362 120.625C135.944 119.977 136.391 119.287 136.703 118.555C137.015 117.799 137.171 117.073 137.171 116.377C137.171 115.657 137.004 115.117 136.672 114.757C136.36 114.385 135.913 114.211 135.331 114.235C134.77 114.247 134.146 114.451 133.461 114.847C132.733 115.267 132.089 115.795 131.528 116.431C130.966 117.067 130.519 117.757 130.187 118.501C129.875 119.233 129.719 119.959 129.719 120.679C129.719 121.375 129.875 121.921 130.187 122.317C130.519 122.677 130.966 122.851 131.528 122.839C132.089 122.803 132.733 122.575 133.461 122.155Z" fill="black"/>
</svg>
