<svg width="256" height="256" viewBox="0 0 256 256" fill="none" xmlns="http://www.w3.org/2000/svg">
<path d="M154.461 100.267C154.461 122.063 139.159 148.568 120.282 159.467C101.405 170.365 86.1028 161.53 86.1028 139.733C86.1028 117.936 101.405 91.4316 120.282 80.5332C139.159 69.6348 154.461 78.4697 154.461 100.267Z" fill="white" stroke="#1019EF" stroke-width="6.4"/>
<mask id="path-2-inside-1_787_2054" fill="white">
<path d="M120.132 132.533L164.934 106.667L164.934 137.067L120.132 162.933L120.132 132.533Z"/>
</mask>
<path d="M120.132 132.533L164.934 106.667L164.934 137.067L120.132 162.933L120.132 132.533Z" fill="white"/>
<path d="M164.934 106.667L170.477 103.467L170.477 97.0665L164.934 100.267L164.934 106.667ZM164.934 137.067L164.934 143.467L170.477 140.267L170.477 133.867L164.934 137.067ZM120.132 138.933L164.934 113.067L164.934 100.267L120.132 126.133L120.132 138.933ZM159.391 109.867L159.391 140.267L170.477 133.867L170.477 103.467L159.391 109.867ZM164.934 130.667L120.132 156.533L120.132 169.333L164.934 143.467L164.934 130.667Z" fill="#1019EF" mask="url(#path-2-inside-1_787_2054)"/>
<path d="M104.665 138.665L150.729 110.933L148.132 125.066L104.665 151.208L104.665 138.665Z" fill="white"/>
<path d="M97.8646 146.738L97.8646 127.982L97.5216 128.18L92.471 135.416L92.471 129.512L98.5816 120.692L102.915 118.19L102.915 143.822L97.8646 146.738ZM115.311 110.35C117.057 109.342 118.605 108.832 119.956 108.82C121.328 108.772 122.388 109.204 123.136 110.116C123.905 111.016 124.29 112.306 124.29 113.986C124.29 115.018 124.092 116.224 123.698 117.604C123.303 118.984 122.741 120.472 122.014 122.068L115.311 136.63L109.574 139.942L115.436 127.342C115.082 127.666 114.729 127.966 114.376 128.242C114.043 128.482 113.721 128.692 113.409 128.872C111.996 129.688 110.738 130.066 109.637 130.006C108.556 129.934 107.704 129.454 107.08 128.566C106.457 127.654 106.145 126.406 106.145 124.822C106.145 123.022 106.529 121.204 107.299 119.368C108.088 117.52 109.169 115.816 110.541 114.256C111.933 112.684 113.523 111.382 115.311 110.35ZM115.155 115.264C114.428 115.684 113.773 116.242 113.191 116.938C112.609 117.634 112.152 118.414 111.819 119.278C111.487 120.118 111.32 120.97 111.32 121.834C111.32 122.674 111.487 123.322 111.819 123.778C112.152 124.21 112.609 124.45 113.191 124.498C113.773 124.522 114.428 124.324 115.155 123.904C115.903 123.472 116.579 122.902 117.182 122.194C117.805 121.474 118.283 120.694 118.616 119.854C118.948 119.014 119.115 118.174 119.115 117.334C119.115 116.47 118.948 115.798 118.616 115.318C118.283 114.838 117.805 114.61 117.182 114.634C116.579 114.622 115.903 114.832 115.155 115.264ZM136.806 124.94C134.831 126.08 133.075 126.53 131.537 126.29C130.019 126.014 128.835 125.102 127.982 123.554C127.13 121.982 126.704 119.888 126.704 117.272C126.704 114.656 127.13 112.082 127.982 109.55C128.835 106.994 130.019 104.714 131.537 102.71C133.075 100.67 134.831 99.0799 136.806 97.9399C138.759 96.8119 140.505 96.3799 142.043 96.6439C143.581 96.8839 144.776 97.7899 145.629 99.3619C146.481 100.91 146.907 102.992 146.907 105.608C146.907 108.224 146.481 110.81 145.629 113.366C144.776 115.898 143.581 118.184 142.043 120.224C140.505 122.24 138.759 123.812 136.806 124.94ZM136.806 119.792C137.782 119.228 138.635 118.388 139.362 117.272C140.11 116.144 140.692 114.824 141.108 113.312C141.524 111.8 141.731 110.228 141.731 108.596C141.731 106.964 141.524 105.632 141.108 104.6C140.692 103.568 140.11 102.92 139.362 102.656C138.635 102.38 137.782 102.524 136.806 103.088C135.829 103.652 134.966 104.498 134.218 105.626C133.47 106.754 132.888 108.074 132.472 109.586C132.077 111.086 131.88 112.652 131.88 114.284C131.88 115.916 132.077 117.254 132.472 118.298C132.888 119.33 133.47 119.978 134.218 120.242C134.966 120.506 135.829 120.356 136.806 119.792Z" fill="black"/>
</svg>
