<svg width="256" height="256" viewBox="0 0 256 256" fill="none" xmlns="http://www.w3.org/2000/svg">
<path d="M154.461 100.267C154.461 122.063 139.159 148.568 120.282 159.467C101.405 170.365 86.1028 161.53 86.1028 139.733C86.1028 117.936 101.405 91.4317 120.282 80.5333C139.159 69.6349 154.461 78.4698 154.461 100.267Z" fill="white" stroke="#1019EF" stroke-width="6.4"/>
<mask id="path-2-inside-1_787_778" fill="white">
<path d="M120.132 132.533L164.934 106.667L164.934 137.067L120.132 162.933L120.132 132.533Z"/>
</mask>
<path d="M120.132 132.533L164.934 106.667L164.934 137.067L120.132 162.933L120.132 132.533Z" fill="white"/>
<path d="M164.934 106.667L170.477 103.467L170.477 97.0665L164.934 100.267L164.934 106.667ZM164.934 137.067L164.934 143.467L170.477 140.267L170.477 133.867L164.934 137.067ZM120.132 138.933L164.934 113.067L164.934 100.267L120.132 126.133L120.132 138.933ZM159.391 109.867L159.391 140.267L170.477 133.867L170.477 103.467L159.391 109.867ZM164.934 130.667L120.132 156.533L120.132 169.333L164.934 143.467L164.934 130.667Z" fill="#1019EF" mask="url(#path-2-inside-1_787_778)"/>
<path d="M104.665 138.665L150.729 110.933L148.132 125.067L104.665 151.209L104.665 138.665Z" fill="white"/>
<path d="M104.812 149.223C102.225 150.717 99.916 151.499 97.8837 151.57C95.8822 151.588 94.3118 150.93 93.1725 149.597C92.064 148.246 91.5098 146.308 91.5098 143.783C91.5098 142.255 91.8023 140.468 92.3873 138.423C92.9724 136.379 93.8192 134.166 94.9277 131.783L104.812 110.237L113.311 105.33L104.627 123.997C105.151 123.517 105.659 123.099 106.151 122.743C106.675 122.335 107.168 121.997 107.629 121.73C109.723 120.521 111.571 119.988 113.172 120.13C114.804 120.219 116.082 120.921 117.006 122.237C117.929 123.552 118.391 125.401 118.391 127.783C118.391 130.45 117.806 133.152 116.636 135.89C115.497 138.61 113.896 141.135 111.832 143.463C109.8 145.775 107.46 147.695 104.812 149.223ZM105.043 141.943C106.151 141.303 107.137 140.468 107.999 139.437C108.861 138.37 109.523 137.223 109.985 135.997C110.478 134.717 110.724 133.437 110.724 132.157C110.724 130.912 110.478 129.97 109.985 129.33C109.523 128.637 108.861 128.272 107.999 128.237C107.137 128.201 106.151 128.503 105.043 129.143C103.934 129.783 102.918 130.637 101.994 131.703C101.101 132.717 100.409 133.846 99.916 135.09C99.4233 136.335 99.177 137.579 99.177 138.823C99.177 140.103 99.4233 141.099 99.916 141.81C100.409 142.521 101.101 142.886 101.994 142.903C102.918 142.903 103.934 142.583 105.043 141.943ZM136.932 130.679C134.006 132.368 131.405 133.035 129.126 132.679C126.878 132.27 125.123 130.919 123.86 128.626C122.598 126.297 121.967 123.195 121.967 119.319C121.967 115.444 122.598 111.63 123.86 107.879C125.123 104.092 126.878 100.715 129.126 97.7458C131.405 94.7235 134.006 92.368 136.932 90.6791C139.826 89.008 142.413 88.368 144.691 88.7591C146.97 89.1146 148.74 90.4569 150.003 92.7857C151.265 95.0791 151.897 98.1635 151.897 102.039C151.897 105.915 151.265 109.746 150.003 113.532C148.74 117.284 146.97 120.67 144.691 123.692C142.413 126.679 139.826 129.008 136.932 130.679ZM136.932 123.052C138.379 122.217 139.641 120.972 140.719 119.319C141.828 117.648 142.69 115.692 143.306 113.452C143.921 111.212 144.229 108.884 144.229 106.466C144.229 104.048 143.921 102.075 143.306 100.546C142.69 99.0169 141.828 98.0569 140.719 97.6657C139.641 97.2569 138.379 97.4702 136.932 98.3057C135.484 99.1413 134.207 100.395 133.098 102.066C131.99 103.737 131.127 105.692 130.512 107.932C129.927 110.155 129.634 112.475 129.634 114.892C129.634 117.31 129.927 119.292 130.512 120.839C131.127 122.368 131.99 123.328 133.098 123.719C134.207 124.11 135.484 123.888 136.932 123.052Z" fill="black"/>
</svg>
