<svg width="256" height="256" viewBox="0 0 256 256" fill="none" xmlns="http://www.w3.org/2000/svg">
<path d="M154.461 100.267C154.461 122.064 139.159 148.568 120.282 159.467C101.405 170.365 86.1028 161.53 86.1028 139.733C86.1028 117.937 101.405 91.4318 120.282 80.5334C139.159 69.6349 154.461 78.4698 154.461 100.267Z" fill="white" stroke="#1019EF" stroke-width="6.4"/>
<mask id="path-2-inside-1_787_553" fill="white">
<path d="M120.132 132.533L164.934 106.667L164.934 137.067L120.132 162.933L120.132 132.533Z"/>
</mask>
<path d="M120.132 132.533L164.934 106.667L164.934 137.067L120.132 162.933L120.132 132.533Z" fill="white"/>
<path d="M164.934 106.667L170.477 103.467L170.477 97.0666L164.934 100.267L164.934 106.667ZM164.934 137.067L164.934 143.467L170.477 140.267L170.477 133.867L164.934 137.067ZM120.132 138.933L164.934 113.067L164.934 100.267L120.132 126.133L120.132 138.933ZM159.391 109.867L159.391 140.267L170.477 133.867L170.477 103.467L159.391 109.867ZM164.934 130.667L120.132 156.533L120.132 169.333L164.934 143.467L164.934 130.667Z" fill="#1019EF" mask="url(#path-2-inside-1_787_553)"/>
<path d="M104.665 138.665L150.729 110.933L148.132 125.067L104.665 151.209L104.665 138.665Z" fill="white"/>
<path d="M95.517 153.577L95.517 148.67L109.235 126.723C109.327 126.563 109.42 126.403 109.512 126.243C109.635 126.065 109.743 125.897 109.835 125.737C111.128 123.639 112.052 121.968 112.607 120.723C113.192 119.461 113.484 118.243 113.484 117.07C113.484 116.003 113.253 115.177 112.791 114.59C112.329 113.968 111.714 113.63 110.944 113.577C110.174 113.523 109.312 113.772 108.357 114.323C107.249 114.963 106.248 115.861 105.355 117.017C104.493 118.154 103.8 119.461 103.277 120.937C102.784 122.359 102.507 123.852 102.445 125.417L95.6093 129.363C95.6093 129.221 95.6093 129.079 95.6093 128.937C95.6093 126.305 96.1328 123.585 97.1797 120.777C98.2266 117.968 99.7355 115.354 101.706 112.937C103.677 110.519 105.925 108.581 108.45 107.123C110.759 105.79 112.837 105.123 114.685 105.123C116.532 105.088 117.98 105.692 119.027 106.937C120.074 108.145 120.597 109.905 120.597 112.217C120.597 114.35 120.058 116.652 118.98 119.123C117.903 121.594 116.271 124.545 114.085 127.977L106.464 140.003L106.464 140.537L119.858 132.803L119.858 139.523L95.517 153.577ZM136.724 130.799C134.292 132.203 132.09 132.87 130.119 132.799C128.149 132.692 126.578 131.892 125.408 130.399C124.238 128.906 123.607 126.834 123.514 124.186L130.627 120.079C130.627 121.43 130.889 122.506 131.413 123.306C131.967 124.088 132.69 124.559 133.583 124.719C134.507 124.826 135.523 124.559 136.632 123.919C137.74 123.279 138.726 122.443 139.588 121.412C140.481 120.363 141.174 119.217 141.666 117.972C142.159 116.728 142.405 115.537 142.405 114.399C142.405 113.154 142.144 112.203 141.62 111.546C141.097 110.888 140.342 110.577 139.357 110.612C138.372 110.648 137.217 111.048 135.893 111.812L126.101 117.466L127.625 97.0655L147.07 85.8389L147.07 92.5589L133.214 100.559L132.613 107.732L137.879 104.692C140.188 103.359 142.221 102.719 143.976 102.772C145.762 102.808 147.147 103.501 148.133 104.852C149.118 106.168 149.611 108.034 149.611 110.452C149.611 112.906 149.056 115.43 147.948 118.026C146.839 120.621 145.3 123.057 143.329 125.332C141.389 127.554 139.188 129.377 136.724 130.799Z" fill="black"/>
</svg>
