<svg width="256" height="256" viewBox="0 0 256 256" fill="none" xmlns="http://www.w3.org/2000/svg">
<path d="M154.461 100.267C154.461 122.064 139.159 148.568 120.282 159.467C101.405 170.365 86.1028 161.53 86.1028 139.733C86.1028 117.937 101.405 91.4318 120.282 80.5334C139.159 69.635 154.461 78.4699 154.461 100.267Z" fill="white" stroke="#1019EF" stroke-width="6.4"/>
<mask id="path-2-inside-1_787_798" fill="white">
<path d="M120.132 132.533L164.934 106.667L164.934 137.067L120.132 162.933L120.132 132.533Z"/>
</mask>
<path d="M120.132 132.533L164.934 106.667L164.934 137.067L120.132 162.933L120.132 132.533Z" fill="white"/>
<path d="M164.934 106.667L170.477 103.467L170.477 97.0668L164.934 100.267L164.934 106.667ZM164.934 137.067L164.934 143.467L170.477 140.267L170.477 133.867L164.934 137.067ZM120.132 138.933L164.934 113.067L164.934 100.267L120.132 126.133L120.132 138.933ZM159.391 109.867L159.391 140.267L170.477 133.867L170.477 103.467L159.391 109.867ZM164.934 130.667L120.132 156.533L120.132 169.333L164.934 143.467L164.934 130.667Z" fill="#1019EF" mask="url(#path-2-inside-1_787_798)"/>
<path d="M104.665 138.666L150.729 110.933L148.132 125.067L104.665 151.209L104.665 138.666Z" fill="white"/>
<path d="M105.391 148.836C102.681 150.4 100.31 151.307 98.2781 151.556C96.2766 151.751 94.7062 151.325 93.5669 150.276C92.4584 149.209 91.9042 147.574 91.9042 145.369C91.9042 142.987 92.5046 140.614 93.7055 138.249C94.9064 135.885 96.446 133.894 98.3243 132.276L98.3243 131.742C96.8463 131.92 95.63 131.574 94.6755 130.702C93.7517 129.778 93.2898 128.338 93.2898 126.382C93.2898 124.285 93.7825 122.151 94.7678 119.982C95.784 117.796 97.2004 115.751 99.0171 113.849C100.865 111.929 102.989 110.276 105.391 108.889C107.731 107.538 109.81 106.782 111.626 106.622C113.443 106.462 114.86 106.889 115.876 107.902C116.923 108.862 117.446 110.374 117.446 112.436C117.446 114.391 116.969 116.374 116.014 118.382C115.091 120.338 113.874 122.089 112.365 123.636L112.365 124.169C114.275 123.6 115.83 123.805 117.03 124.782C118.231 125.76 118.832 127.44 118.832 129.822C118.832 132.027 118.262 134.311 117.123 136.676C116.014 139.022 114.444 141.262 112.412 143.396C110.379 145.494 108.039 147.307 105.391 148.836ZM105.391 125.316C106.315 124.782 107.146 124.107 107.885 123.289C108.655 122.418 109.255 121.502 109.687 120.542C110.118 119.547 110.333 118.587 110.333 117.662C110.333 116.774 110.118 116.098 109.687 115.636C109.255 115.138 108.655 114.916 107.885 114.969C107.146 114.969 106.315 115.236 105.391 115.769C104.406 116.338 103.528 117.058 102.758 117.929C102.019 118.747 101.434 119.654 101.003 120.649C100.603 121.591 100.403 122.507 100.403 123.396C100.403 124.32 100.603 125.04 101.003 125.556C101.434 126.018 102.035 126.24 102.805 126.222C103.574 126.169 104.437 125.867 105.391 125.316ZM105.391 141.902C106.407 141.316 107.346 140.56 108.209 139.636C109.071 138.676 109.733 137.654 110.195 136.569C110.657 135.449 110.887 134.374 110.887 133.342C110.887 132.276 110.641 131.476 110.148 130.942C109.687 130.391 109.025 130.134 108.162 130.169C107.331 130.187 106.407 130.489 105.391 131.076C104.313 131.698 103.359 132.48 102.527 133.422C101.696 134.365 101.034 135.387 100.541 136.489C100.079 137.574 99.8485 138.649 99.8485 139.716C99.8485 140.747 100.079 141.556 100.541 142.142C101.034 142.676 101.696 142.934 102.527 142.916C103.359 142.862 104.313 142.525 105.391 141.902ZM137.68 130.247C134.755 131.936 132.153 132.602 129.875 132.247C127.627 131.838 125.872 130.487 124.609 128.193C123.347 125.865 122.716 122.762 122.716 118.887C122.716 115.011 123.347 111.198 124.609 107.447C125.872 103.66 127.627 100.282 129.875 97.3135C132.153 94.2912 134.755 91.9357 137.68 90.2468C140.575 88.5757 143.161 87.9357 145.44 88.3268C147.719 88.6823 149.489 90.0246 150.752 92.3535C152.014 94.6468 152.645 97.7312 152.645 101.607C152.645 105.482 152.014 109.313 150.752 113.1C149.489 116.851 147.719 120.238 145.44 123.26C143.161 126.247 140.575 128.576 137.68 130.247ZM137.68 122.62C139.128 121.785 140.39 120.54 141.468 118.887C142.576 117.216 143.439 115.26 144.054 113.02C144.67 110.78 144.978 108.451 144.978 106.033C144.978 103.616 144.67 101.642 144.054 100.113C143.439 98.5846 142.576 97.6246 141.468 97.2335C140.39 96.8246 139.128 97.0379 137.68 97.8735C136.233 98.709 134.955 99.9623 133.847 101.633C132.738 103.305 131.876 105.26 131.26 107.5C130.675 109.722 130.383 112.042 130.383 114.46C130.383 116.878 130.675 118.86 131.26 120.407C131.876 121.936 132.738 122.896 133.847 123.287C134.955 123.678 136.233 123.456 137.68 122.62Z" fill="black"/>
</svg>
