<svg width="256" height="256" viewBox="0 0 256 256" fill="none" xmlns="http://www.w3.org/2000/svg">
<path d="M154.461 100.267C154.461 122.063 139.159 148.568 120.282 159.467C101.405 170.365 86.1028 161.53 86.1028 139.733C86.1028 117.936 101.405 91.4317 120.282 80.5333C139.159 69.6349 154.461 78.4698 154.461 100.267Z" fill="white" stroke="#1019EF" stroke-width="6.4"/>
<mask id="path-2-inside-1_787_773" fill="white">
<path d="M120.132 132.533L164.934 106.667L164.934 137.067L120.132 162.933L120.132 132.533Z"/>
</mask>
<path d="M120.132 132.533L164.934 106.667L164.934 137.067L120.132 162.933L120.132 132.533Z" fill="white"/>
<path d="M164.934 106.667L170.477 103.467L170.477 97.0665L164.934 100.267L164.934 106.667ZM164.934 137.067L164.934 143.467L170.477 140.267L170.477 133.867L164.934 137.067ZM120.132 138.933L164.934 113.067L164.934 100.267L120.132 126.133L120.132 138.933ZM159.391 109.867L159.391 140.267L170.477 133.867L170.477 103.467L159.391 109.867ZM164.934 130.667L120.132 156.533L120.132 169.333L164.934 143.467L164.934 130.667Z" fill="#1019EF" mask="url(#path-2-inside-1_787_773)"/>
<path d="M104.665 138.665L150.729 110.933L148.132 125.067L104.665 151.209L104.665 138.665Z" fill="white"/>
<path d="M107.424 147.716C104.991 149.12 102.79 149.787 100.819 149.716C98.8482 149.609 97.2778 148.809 96.1077 147.316C94.9376 145.822 94.3064 143.751 94.214 141.102L101.327 136.996C101.327 138.347 101.589 139.422 102.112 140.222C102.666 141.004 103.39 141.476 104.283 141.636C105.207 141.742 106.223 141.476 107.331 140.836C108.44 140.196 109.425 139.36 110.287 138.329C111.18 137.28 111.873 136.133 112.366 134.889C112.859 133.644 113.105 132.453 113.105 131.316C113.105 130.071 112.843 129.12 112.32 128.462C111.796 127.804 111.042 127.493 110.056 127.529C109.071 127.564 107.916 127.964 106.592 128.729L96.8005 134.382L98.3247 113.982L117.77 102.756L117.77 109.476L103.913 117.476L103.313 124.649L108.578 121.609C110.888 120.276 112.92 119.636 114.675 119.689C116.461 119.724 117.847 120.418 118.832 121.769C119.818 123.084 120.31 124.951 120.31 127.369C120.31 129.822 119.756 132.347 118.647 134.942C117.539 137.538 115.999 139.973 114.029 142.249C112.089 144.471 109.887 146.293 107.424 147.716ZM136.607 130.867C134.174 132.271 131.973 132.938 130.002 132.867C128.031 132.76 126.461 131.96 125.291 130.467C124.121 128.973 123.49 126.902 123.397 124.253L130.51 120.147C130.51 121.498 130.772 122.573 131.295 123.373C131.85 124.155 132.573 124.627 133.466 124.787C134.39 124.893 135.406 124.627 136.515 123.987C137.623 123.347 138.608 122.511 139.471 121.48C140.364 120.431 141.056 119.284 141.549 118.04C142.042 116.795 142.288 115.604 142.288 114.467C142.288 113.222 142.026 112.271 141.503 111.613C140.979 110.955 140.225 110.644 139.24 110.68C138.254 110.715 137.1 111.115 135.776 111.88L125.984 117.533L127.508 97.1333L146.953 85.9066L146.953 92.6266L133.097 100.627L132.496 107.8L137.762 104.76C140.071 103.427 142.103 102.787 143.859 102.84C145.644 102.875 147.03 103.569 148.015 104.92C149.001 106.235 149.493 108.102 149.493 110.52C149.493 112.973 148.939 115.498 147.831 118.093C146.722 120.689 145.183 123.124 143.212 125.4C141.272 127.622 139.07 129.444 136.607 130.867Z" fill="black"/>
</svg>
