<svg width="256" height="256" viewBox="0 0 256 256" fill="none" xmlns="http://www.w3.org/2000/svg">
<path d="M154.461 100.267C154.461 122.063 139.159 148.568 120.282 159.467C101.405 170.365 86.1028 161.53 86.1028 139.733C86.1028 117.936 101.405 91.4316 120.282 80.5332C139.159 69.6348 154.461 78.4697 154.461 100.267Z" fill="white" stroke="#1019EF" stroke-width="6.4"/>
<mask id="path-2-inside-1_787_2061" fill="white">
<path d="M120.132 132.533L164.934 106.667L164.934 137.067L120.132 162.933L120.132 132.533Z"/>
</mask>
<path d="M120.132 132.533L164.934 106.667L164.934 137.067L120.132 162.933L120.132 132.533Z" fill="white"/>
<path d="M164.934 106.667L170.477 103.467L170.477 97.0665L164.934 100.267L164.934 106.667ZM164.934 137.067L164.934 143.467L170.477 140.267L170.477 133.867L164.934 137.067ZM120.132 138.933L164.934 113.067L164.934 100.267L120.132 126.133L120.132 138.933ZM159.391 109.867L159.391 140.267L170.477 133.867L170.477 103.467L159.391 109.867ZM164.934 130.667L120.132 156.533L120.132 169.333L164.934 143.467L164.934 130.667Z" fill="#1019EF" mask="url(#path-2-inside-1_787_2061)"/>
<path d="M104.665 138.665L150.729 110.933L148.132 125.066L104.665 151.208L104.665 138.665Z" fill="white"/>
<path d="M101.342 144.731L101.342 125.975L100.999 126.173L95.9486 133.409L95.9486 127.505L102.059 118.685L106.393 116.183L106.393 141.815L101.342 144.731ZM118.789 108.342C120.535 107.334 122.083 106.824 123.434 106.812C124.806 106.764 125.866 107.196 126.614 108.108C127.383 109.008 127.768 110.298 127.768 111.978C127.768 113.01 127.57 114.216 127.175 115.596C126.78 116.976 126.219 118.464 125.492 120.06L118.789 134.622L113.052 137.934L118.913 125.334C118.56 125.658 118.207 125.958 117.853 126.234C117.521 126.474 117.199 126.684 116.887 126.864C115.473 127.68 114.216 128.058 113.114 127.998C112.034 127.926 111.181 127.446 110.558 126.558C109.934 125.646 109.623 124.398 109.623 122.814C109.623 121.014 110.007 119.196 110.776 117.36C111.566 115.512 112.647 113.808 114.019 112.248C115.411 110.676 117.001 109.374 118.789 108.342ZM118.633 113.256C117.905 113.676 117.251 114.234 116.669 114.93C116.087 115.626 115.629 116.406 115.297 117.27C114.964 118.11 114.798 118.962 114.798 119.826C114.798 120.666 114.964 121.314 115.297 121.77C115.629 122.202 116.087 122.442 116.669 122.49C117.251 122.514 117.905 122.316 118.633 121.896C119.381 121.464 120.056 120.894 120.659 120.186C121.283 119.466 121.761 118.686 122.093 117.846C122.426 117.006 122.592 116.166 122.592 115.326C122.592 114.462 122.426 113.79 122.093 113.31C121.761 112.83 121.283 112.602 120.659 112.626C120.056 112.614 119.381 112.824 118.633 113.256ZM131.959 127.054L139.348 101.98L129.309 107.776L129.309 102.952L145.178 93.7901L145.178 97.2821L137.321 123.958L131.959 127.054Z" fill="black"/>
</svg>
