<svg width="256" height="256" viewBox="0 0 256 256" fill="none" xmlns="http://www.w3.org/2000/svg">
<path d="M154.461 100.267C154.461 122.064 139.159 148.568 120.282 159.467C101.405 170.365 86.1028 161.53 86.1028 139.733C86.1028 117.937 101.405 91.4318 120.282 80.5334C139.159 69.635 154.461 78.4699 154.461 100.267Z" fill="white" stroke="#1019EF" stroke-width="6.4"/>
<mask id="path-2-inside-1_787_1208" fill="white">
<path d="M120.132 132.533L164.934 106.667L164.934 137.067L120.132 162.933L120.132 132.533Z"/>
</mask>
<path d="M120.132 132.533L164.934 106.667L164.934 137.067L120.132 162.933L120.132 132.533Z" fill="white"/>
<path d="M164.934 106.667L170.477 103.467L170.477 97.0668L164.934 100.267L164.934 106.667ZM164.934 137.067L164.934 143.467L170.477 140.267L170.477 133.867L164.934 137.067ZM120.132 138.933L164.934 113.067L164.934 100.267L120.132 126.133L120.132 138.933ZM159.391 109.867L159.391 140.267L170.477 133.867L170.477 103.467L159.391 109.867ZM164.934 130.667L120.132 156.533L120.132 169.333L164.934 143.467L164.934 130.667Z" fill="#1019EF" mask="url(#path-2-inside-1_787_1208)"/>
<path d="M104.665 138.666L150.729 110.933L148.132 125.067L104.665 151.209L104.665 138.666Z" fill="white"/>
<path d="M97.6362 146.87L97.6362 128.114L97.2933 128.312L92.2426 135.548L92.2426 129.644L98.3533 120.824L102.687 118.322L102.687 143.954L97.6362 146.87ZM116.361 136.744C114.386 137.884 112.63 138.334 111.092 138.094C109.575 137.818 108.39 136.906 107.538 135.358C106.686 133.786 106.26 131.692 106.26 129.076C106.26 126.46 106.686 123.886 107.538 121.354C108.39 118.798 109.575 116.518 111.092 114.514C112.63 112.474 114.386 110.884 116.361 109.744C118.315 108.616 120.061 108.184 121.599 108.448C123.137 108.688 124.332 109.594 125.184 111.166C126.036 112.714 126.462 114.796 126.462 117.412C126.462 120.028 126.036 122.614 125.184 125.17C124.332 127.702 123.137 129.988 121.599 132.028C120.061 134.044 118.315 135.616 116.361 136.744ZM116.361 131.596C117.338 131.032 118.19 130.192 118.917 129.076C119.666 127.948 120.248 126.628 120.663 125.116C121.079 123.604 121.287 122.032 121.287 120.4C121.287 118.768 121.079 117.436 120.663 116.404C120.248 115.372 119.666 114.724 118.917 114.46C118.19 114.184 117.338 114.328 116.361 114.892C115.384 115.456 114.521 116.302 113.773 117.43C113.025 118.558 112.443 119.878 112.027 121.39C111.632 122.89 111.435 124.456 111.435 126.088C111.435 127.72 111.632 129.058 112.027 130.102C112.443 131.134 113.025 131.782 113.773 132.046C114.521 132.31 115.384 132.16 116.361 131.596ZM138.165 124.119C136.335 125.175 134.735 125.787 133.363 125.955C132.012 126.087 130.952 125.799 130.183 125.091C129.435 124.371 129.061 123.267 129.061 121.779C129.061 120.171 129.466 118.569 130.277 116.973C131.087 115.377 132.127 114.033 133.394 112.941L133.394 112.581C132.397 112.701 131.576 112.467 130.931 111.879C130.308 111.255 129.996 110.283 129.996 108.963C129.996 107.547 130.329 106.107 130.994 104.643C131.68 103.167 132.636 101.787 133.862 100.503C135.109 99.2073 136.543 98.0913 138.164 97.1553C139.744 96.2433 141.147 95.7333 142.373 95.6253C143.6 95.5172 144.556 95.8052 145.242 96.4892C145.948 97.1372 146.302 98.1572 146.302 99.5492C146.302 100.869 145.98 102.207 145.335 103.563C144.712 104.883 143.891 106.065 142.872 107.109L142.872 107.469C144.161 107.085 145.21 107.223 146.021 107.883C146.832 108.543 147.237 109.677 147.237 111.285C147.237 112.773 146.852 114.315 146.083 115.911C145.335 117.495 144.275 119.007 142.903 120.447C141.532 121.863 139.952 123.087 138.165 124.119ZM138.165 108.243C138.788 107.883 139.349 107.427 139.848 106.875C140.368 106.287 140.773 105.669 141.064 105.021C141.355 104.349 141.5 103.701 141.5 103.077C141.5 102.477 141.355 102.021 141.064 101.709C140.773 101.373 140.368 101.223 139.848 101.259C139.349 101.259 138.788 101.439 138.165 101.799C137.499 102.183 136.907 102.669 136.387 103.257C135.889 103.809 135.494 104.421 135.203 105.093C134.932 105.729 134.797 106.347 134.797 106.947C134.797 107.571 134.932 108.057 135.203 108.405C135.494 108.717 135.899 108.867 136.419 108.855C136.938 108.819 137.52 108.615 138.165 108.243ZM138.165 119.439C138.85 119.043 139.484 118.533 140.066 117.909C140.648 117.261 141.095 116.571 141.407 115.839C141.719 115.083 141.875 114.357 141.875 113.661C141.875 112.941 141.708 112.401 141.376 112.041C141.064 111.669 140.617 111.495 140.035 111.519C139.474 111.531 138.85 111.735 138.165 112.131C137.437 112.551 136.793 113.079 136.232 113.715C135.67 114.351 135.223 115.041 134.891 115.785C134.579 116.517 134.423 117.243 134.423 117.963C134.423 118.659 134.579 119.205 134.891 119.601C135.223 119.961 135.67 120.135 136.232 120.123C136.793 120.087 137.437 119.859 138.165 119.439Z" fill="black"/>
</svg>
