<svg width="256" height="256" viewBox="0 0 256 256" fill="none" xmlns="http://www.w3.org/2000/svg">
<path d="M154.461 100.267C154.461 122.064 139.159 148.568 120.282 159.467C101.405 170.365 86.1028 161.53 86.1028 139.733C86.1028 117.937 101.405 91.4318 120.282 80.5334C139.159 69.635 154.461 78.4699 154.461 100.267Z" fill="white" stroke="#1019EF" stroke-width="6.4"/>
<mask id="path-2-inside-1_787_1211" fill="white">
<path d="M120.132 132.533L164.934 106.667L164.934 137.067L120.132 162.933L120.132 132.533Z"/>
</mask>
<path d="M120.132 132.533L164.934 106.667L164.934 137.067L120.132 162.933L120.132 132.533Z" fill="white"/>
<path d="M164.934 106.667L170.477 103.467L170.477 97.0668L164.934 100.267L164.934 106.667ZM164.934 137.067L164.934 143.467L170.477 140.267L170.477 133.867L164.934 137.067ZM120.132 138.933L164.934 113.067L164.934 100.267L120.132 126.133L120.132 138.933ZM159.392 109.867L159.392 140.267L170.477 133.867L170.477 103.467L159.392 109.867ZM164.934 130.667L120.132 156.533L120.132 169.333L164.934 143.467L164.934 130.667Z" fill="#1019EF" mask="url(#path-2-inside-1_787_1211)"/>
<path d="M104.665 138.666L150.729 110.933L148.132 125.067L104.665 151.209L104.665 138.666Z" fill="white"/>
<path d="M106.351 141.839L106.351 123.083L106.008 123.281L100.957 130.517L100.957 124.613L107.068 115.793L111.401 113.291L111.401 138.923L106.351 141.839ZM119.869 134.034L119.869 115.278L119.526 115.476L114.475 122.712L114.475 116.808L120.586 107.988L124.92 105.486L124.92 131.118L119.869 134.034ZM133.387 126.23L133.387 107.474L133.044 107.672L127.993 114.908L127.993 109.004L134.104 100.184L138.438 97.6816L138.438 123.314L133.387 126.23Z" fill="black"/>
</svg>
