<svg width="256" height="256" viewBox="0 0 256 256" fill="none" xmlns="http://www.w3.org/2000/svg">
<path d="M154.461 100.267C154.461 122.063 139.159 148.568 120.282 159.467C101.405 170.365 86.1028 161.53 86.1028 139.733C86.1028 117.936 101.405 91.4317 120.282 80.5333C139.159 69.6349 154.461 78.4698 154.461 100.267Z" fill="white" stroke="#1019EF" stroke-width="6.4"/>
<mask id="path-2-inside-1_787_788" fill="white">
<path d="M120.132 132.533L164.934 106.667L164.934 137.067L120.132 162.933L120.132 132.533Z"/>
</mask>
<path d="M120.132 132.533L164.934 106.667L164.934 137.067L120.132 162.933L120.132 132.533Z" fill="white"/>
<path d="M164.934 106.667L170.477 103.467L170.477 97.0665L164.934 100.267L164.934 106.667ZM164.934 137.067L164.934 143.467L170.477 140.267L170.477 133.867L164.934 137.067ZM120.132 138.933L164.934 113.067L164.934 100.267L120.132 126.133L120.132 138.933ZM159.391 109.867L159.391 140.267L170.477 133.867L170.477 103.467L159.391 109.867ZM164.934 130.667L120.132 156.533L120.132 169.333L164.934 143.467L164.934 130.667Z" fill="#1019EF" mask="url(#path-2-inside-1_787_788)"/>
<path d="M104.665 138.665L150.729 110.933L148.132 125.067L104.665 151.209L104.665 138.665Z" fill="white"/>
<path d="M97.5634 152.395L108.51 115.248L93.6374 123.835L93.6374 116.688L117.147 103.115L117.147 108.288L105.508 147.808L97.5634 152.395ZM134.839 131.887C131.914 133.576 129.312 134.243 127.033 133.887C124.785 133.479 123.03 132.127 121.768 129.834C120.505 127.505 119.874 124.403 119.874 120.527C119.874 116.652 120.505 112.839 121.768 109.087C123.03 105.301 124.785 101.923 127.033 98.9541C129.312 95.9319 131.914 93.5763 134.839 91.8874C137.733 90.2163 140.32 89.5763 142.598 89.9674C144.877 90.323 146.648 91.6652 147.91 93.9941C149.173 96.2874 149.804 99.3719 149.804 103.247C149.804 107.123 149.173 110.954 147.91 114.741C146.648 118.492 144.877 121.879 142.598 124.901C140.32 127.887 137.733 130.216 134.839 131.887ZM134.839 124.261C136.286 123.425 137.549 122.181 138.626 120.527C139.735 118.856 140.597 116.901 141.213 114.661C141.829 112.421 142.137 110.092 142.137 107.674C142.137 105.256 141.829 103.283 141.213 101.754C140.597 100.225 139.735 99.2652 138.626 98.8741C137.549 98.4652 136.286 98.6785 134.839 99.5141C133.392 100.35 132.114 101.603 131.005 103.274C129.897 104.945 129.035 106.901 128.419 109.141C127.834 111.363 127.541 113.683 127.541 116.101C127.541 118.519 127.834 120.501 128.419 122.047C129.035 123.576 129.897 124.536 131.005 124.927C132.114 125.319 133.392 125.096 134.839 124.261Z" fill="black"/>
</svg>
