<svg width="256" height="256" viewBox="0 0 256 256" fill="none" xmlns="http://www.w3.org/2000/svg">
<path d="M154.461 100.267C154.461 122.064 139.159 148.568 120.282 159.467C101.405 170.365 86.1028 161.53 86.1028 139.733C86.1028 117.937 101.405 91.4318 120.282 80.5334C139.159 69.635 154.461 78.4699 154.461 100.267Z" fill="white" stroke="#1019EF" stroke-width="6.4"/>
<mask id="path-2-inside-1_787_801" fill="white">
<path d="M120.132 132.533L164.934 106.667L164.934 137.067L120.132 162.933L120.132 132.533Z"/>
</mask>
<path d="M120.132 132.533L164.934 106.667L164.934 137.067L120.132 162.933L120.132 132.533Z" fill="white"/>
<path d="M164.934 106.667L170.477 103.467L170.477 97.0668L164.934 100.267L164.934 106.667ZM164.934 137.067L164.934 143.467L170.477 140.267L170.477 133.867L164.934 137.067ZM120.132 138.933L164.934 113.067L164.934 100.267L120.132 126.133L120.132 138.933ZM159.392 109.867L159.392 140.267L170.477 133.867L170.477 103.467L159.392 109.867ZM164.934 130.667L120.132 156.533L120.132 169.333L164.934 143.467L164.934 130.667Z" fill="#1019EF" mask="url(#path-2-inside-1_787_801)"/>
<path d="M104.665 138.666L150.729 110.933L148.132 125.067L104.665 151.209L104.665 138.666Z" fill="white"/>
<path d="M108.075 147.286C105.365 148.851 102.994 149.757 100.962 150.006C98.9602 150.202 97.3898 149.775 96.2505 148.726C95.142 147.66 94.5878 146.024 94.5878 143.82C94.5878 141.437 95.1882 139.064 96.3891 136.7C97.59 134.335 99.1296 132.344 101.008 130.726L101.008 130.193C99.5299 130.371 98.3136 130.024 97.3591 129.153C96.4353 128.228 95.9734 126.788 95.9734 124.833C95.9734 122.735 96.4661 120.602 97.4514 118.433C98.4676 116.246 99.884 114.202 101.701 112.3C103.548 110.38 105.673 108.726 108.075 107.34C110.415 105.988 112.493 105.233 114.31 105.073C116.127 104.913 117.543 105.34 118.559 106.353C119.606 107.313 120.13 108.824 120.13 110.886C120.13 112.842 119.652 114.824 118.698 116.833C117.774 118.788 116.558 120.54 115.049 122.086L115.049 122.62C116.958 122.051 118.513 122.255 119.714 123.233C120.915 124.211 121.515 125.891 121.515 128.273C121.515 130.477 120.946 132.762 119.806 135.126C118.698 137.473 117.128 139.713 115.095 141.846C113.063 143.944 110.723 145.757 108.075 147.286ZM108.075 123.766C108.998 123.233 109.83 122.557 110.569 121.74C111.339 120.868 111.939 119.953 112.37 118.993C112.801 117.997 113.017 117.037 113.017 116.113C113.017 115.224 112.801 114.548 112.37 114.086C111.939 113.588 111.339 113.366 110.569 113.42C109.83 113.42 108.998 113.686 108.075 114.22C107.089 114.788 106.212 115.508 105.442 116.38C104.703 117.197 104.118 118.104 103.687 119.1C103.287 120.042 103.086 120.957 103.086 121.846C103.086 122.771 103.287 123.491 103.687 124.006C104.118 124.468 104.718 124.691 105.488 124.673C106.258 124.62 107.12 124.317 108.075 123.766ZM108.075 140.353C109.091 139.766 110.03 139.011 110.892 138.086C111.754 137.126 112.416 136.104 112.878 135.02C113.34 133.9 113.571 132.824 113.571 131.793C113.571 130.726 113.325 129.926 112.832 129.393C112.37 128.842 111.708 128.584 110.846 128.62C110.015 128.637 109.091 128.94 108.075 129.526C106.997 130.148 106.042 130.931 105.211 131.873C104.38 132.815 103.718 133.837 103.225 134.94C102.763 136.024 102.532 137.1 102.532 138.166C102.532 139.197 102.763 140.006 103.225 140.593C103.718 141.126 104.38 141.384 105.211 141.366C106.042 141.313 106.997 140.975 108.075 140.353ZM137.778 130.191C135.345 131.595 133.128 132.253 131.126 132.164C129.156 132.022 127.585 131.204 126.415 129.711C125.276 128.164 124.66 126.031 124.568 123.311L131.681 119.204C131.681 120.662 131.942 121.808 132.466 122.644C132.989 123.48 133.698 123.977 134.591 124.137C135.514 124.244 136.546 123.968 137.685 123.311C138.794 122.671 139.779 121.835 140.641 120.804C141.503 119.773 142.181 118.653 142.673 117.444C143.166 116.2 143.412 114.991 143.412 113.817C143.412 112.644 143.151 111.728 142.627 111.071C142.135 110.395 141.442 110.048 140.549 110.031C139.687 109.96 138.717 110.235 137.639 110.857C137.177 111.124 136.684 111.48 136.161 111.924C135.637 112.333 135.206 112.724 134.868 113.097L133.205 108.991L139.948 97.204L139.948 96.6706L126.646 104.351L126.646 97.6307L149.417 84.484L149.417 89.6573L141.611 103.391C143.335 102.715 144.875 102.555 146.23 102.911C147.616 103.213 148.693 104.013 149.463 105.311C150.264 106.555 150.664 108.191 150.664 110.217C150.664 112.6 150.11 115.071 149.001 117.631C147.923 120.137 146.399 122.511 144.429 124.751C142.458 126.955 140.241 128.768 137.778 130.191Z" fill="black"/>
</svg>
