<svg width="256" height="256" viewBox="0 0 256 256" fill="none" xmlns="http://www.w3.org/2000/svg">
<path d="M154.461 100.267C154.461 122.064 139.159 148.568 120.282 159.467C101.405 170.365 86.1028 161.53 86.1028 139.733C86.1028 117.937 101.405 91.4318 120.282 80.5334C139.159 69.635 154.461 78.4699 154.461 100.267Z" fill="white" stroke="#1019EF" stroke-width="6.4"/>
<mask id="path-2-inside-1_787_1213" fill="white">
<path d="M120.132 132.533L164.934 106.667L164.934 137.067L120.132 162.933L120.132 132.533Z"/>
</mask>
<path d="M120.132 132.533L164.934 106.667L164.934 137.067L120.132 162.933L120.132 132.533Z" fill="white"/>
<path d="M164.934 106.667L170.477 103.467L170.477 97.0668L164.934 100.267L164.934 106.667ZM164.934 137.067L164.934 143.467L170.477 140.267L170.477 133.867L164.934 137.067ZM120.132 138.933L164.934 113.067L164.934 100.267L120.132 126.133L120.132 138.933ZM159.392 109.867L159.392 140.267L170.477 133.867L170.477 103.467L159.392 109.867ZM164.934 130.667L120.132 156.533L120.132 169.333L164.934 143.467L164.934 130.667Z" fill="#1019EF" mask="url(#path-2-inside-1_787_1213)"/>
<path d="M104.665 138.666L150.729 110.933L148.132 125.067L104.665 151.209L104.665 138.666Z" fill="white"/>
<path d="M103.025 143.759L103.025 125.003L102.682 125.201L97.6315 132.437L97.6315 126.533L103.742 117.713L108.076 115.211L108.076 140.843L103.025 143.759ZM116.543 135.954L116.543 117.198L116.2 117.396L111.15 124.632L111.15 118.728L117.26 109.908L121.594 107.406L121.594 133.038L116.543 135.954ZM133.522 126.836C131.88 127.784 130.383 128.228 129.032 128.168C127.702 128.072 126.642 127.52 125.852 126.512C125.083 125.468 124.668 124.028 124.605 122.192L129.407 119.42C129.407 120.404 129.583 121.178 129.937 121.742C130.29 122.306 130.768 122.642 131.371 122.75C131.994 122.822 132.691 122.636 133.46 122.192C134.208 121.76 134.873 121.196 135.455 120.5C136.037 119.804 136.494 119.048 136.827 118.232C137.159 117.392 137.326 116.576 137.326 115.784C137.326 114.992 137.149 114.374 136.796 113.93C136.463 113.474 135.995 113.24 135.393 113.228C134.811 113.18 134.156 113.366 133.428 113.786C133.117 113.966 132.784 114.206 132.431 114.506C132.077 114.782 131.786 115.046 131.558 115.298L130.435 112.526L134.987 104.57L134.987 104.21L126.008 109.394L126.008 104.858L141.379 95.9836L141.379 99.4756L136.11 108.746C137.274 108.29 138.313 108.182 139.227 108.422C140.163 108.626 140.89 109.166 141.41 110.042C141.95 110.882 142.22 111.986 142.22 113.354C142.22 114.962 141.846 116.63 141.098 118.358C140.37 120.05 139.342 121.652 138.011 123.164C136.681 124.652 135.185 125.876 133.522 126.836Z" fill="black"/>
</svg>
