<svg width="256" height="256" viewBox="0 0 256 256" fill="none" xmlns="http://www.w3.org/2000/svg">
<path d="M154.461 100.267C154.461 122.063 139.159 148.568 120.282 159.467C101.405 170.365 86.1028 161.53 86.1028 139.733C86.1028 117.936 101.405 91.4316 120.282 80.5332C139.159 69.6348 154.461 78.4697 154.461 100.267Z" fill="white" stroke="#1019EF" stroke-width="6.4"/>
<mask id="path-2-inside-1_787_2075" fill="white">
<path d="M120.132 132.533L164.934 106.667L164.934 137.067L120.132 162.933L120.132 132.533Z"/>
</mask>
<path d="M120.132 132.533L164.934 106.667L164.934 137.067L120.132 162.933L120.132 132.533Z" fill="white"/>
<path d="M164.934 106.667L170.477 103.467L170.477 97.0665L164.934 100.267L164.934 106.667ZM164.934 137.067L164.934 143.467L170.477 140.267L170.477 133.867L164.934 137.067ZM120.132 138.933L164.934 113.067L164.934 100.267L120.132 126.133L120.132 138.933ZM159.392 109.867L159.392 140.267L170.477 133.867L170.477 103.467L159.392 109.867ZM164.934 130.667L120.132 156.533L120.132 169.333L164.934 143.467L164.934 130.667Z" fill="#1019EF" mask="url(#path-2-inside-1_787_2075)"/>
<path d="M104.665 138.665L150.729 110.933L148.132 125.066L104.665 151.208L104.665 138.665Z" fill="white"/>
<path d="M98.1455 146.576L98.1455 143.264L107.405 128.45C107.467 128.342 107.53 128.234 107.592 128.126C107.675 128.006 107.748 127.892 107.81 127.784C108.683 126.368 109.307 125.24 109.681 124.4C110.076 123.548 110.273 122.726 110.273 121.934C110.273 121.214 110.117 120.656 109.806 120.26C109.494 119.84 109.078 119.612 108.559 119.576C108.039 119.54 107.457 119.708 106.813 120.08C106.064 120.512 105.389 121.118 104.786 121.898C104.204 122.666 103.737 123.548 103.383 124.544C103.051 125.504 102.864 126.512 102.822 127.568L98.2079 130.232C98.2079 130.136 98.2079 130.04 98.2079 129.944C98.2079 128.168 98.5612 126.332 99.2679 124.436C99.9746 122.54 100.993 120.776 102.323 119.144C103.653 117.512 105.171 116.204 106.875 115.22C108.434 114.32 109.837 113.87 111.084 113.87C112.331 113.846 113.308 114.254 114.015 115.094C114.721 115.91 115.075 117.098 115.075 118.658C115.075 120.098 114.711 121.652 113.983 123.32C113.256 124.988 112.154 126.98 110.679 129.296L105.534 137.414L105.534 137.774L114.576 132.554L114.576 137.09L98.1455 146.576ZM122.313 132.623L122.313 113.867L121.97 114.065L116.919 121.301L116.919 115.397L123.03 106.577L127.363 104.075L127.363 129.707L122.313 132.623ZM135.831 124.819L135.831 106.063L135.488 106.261L130.437 113.497L130.437 107.593L136.548 98.7725L140.882 96.2705L140.882 121.903L135.831 124.819Z" fill="black"/>
</svg>
