<svg width="256" height="256" viewBox="0 0 256 256" fill="none" xmlns="http://www.w3.org/2000/svg">
<path d="M154.461 100.267C154.461 122.063 139.159 148.568 120.282 159.467C101.405 170.365 86.1028 161.53 86.1028 139.733C86.1028 117.936 101.405 91.4316 120.282 80.5332C139.159 69.6348 154.461 78.4697 154.461 100.267Z" fill="white" stroke="#1019EF" stroke-width="6.4"/>
<mask id="path-2-inside-1_787_2078" fill="white">
<path d="M120.132 132.533L164.934 106.667L164.934 137.067L120.132 162.933L120.132 132.533Z"/>
</mask>
<path d="M120.132 132.533L164.934 106.667L164.934 137.067L120.132 162.933L120.132 132.533Z" fill="white"/>
<path d="M164.934 106.667L170.477 103.467L170.477 97.0665L164.934 100.267L164.934 106.667ZM164.934 137.067L164.934 143.467L170.477 140.267L170.477 133.867L164.934 137.067ZM120.132 138.933L164.934 113.067L164.934 100.267L120.132 126.133L120.132 138.933ZM159.391 109.867L159.391 140.267L170.477 133.867L170.477 103.467L159.391 109.867ZM164.934 130.667L120.132 156.533L120.132 169.333L164.934 143.467L164.934 130.667Z" fill="#1019EF" mask="url(#path-2-inside-1_787_2078)"/>
<path d="M104.665 138.665L150.729 110.933L148.132 125.066L104.665 151.208L104.665 138.665Z" fill="white"/>
<path d="M95.3514 148.189L95.3514 144.877L104.611 130.063C104.673 129.955 104.736 129.847 104.798 129.739C104.881 129.619 104.954 129.505 105.016 129.397C105.889 127.981 106.513 126.853 106.887 126.013C107.282 125.161 107.479 124.339 107.479 123.547C107.479 122.827 107.323 122.269 107.012 121.873C106.7 121.453 106.284 121.225 105.765 121.189C105.245 121.153 104.663 121.321 104.019 121.693C103.27 122.125 102.595 122.731 101.992 123.511C101.41 124.279 100.942 125.161 100.589 126.157C100.257 127.117 100.07 128.125 100.028 129.181L95.4138 131.845C95.4138 131.749 95.4138 131.653 95.4138 131.557C95.4138 129.781 95.7671 127.945 96.4738 126.049C97.1805 124.153 98.1989 122.389 99.5291 120.757C100.859 119.125 102.377 117.817 104.081 116.833C105.64 115.933 107.043 115.483 108.29 115.483C109.537 115.459 110.514 115.867 111.22 116.707C111.927 117.523 112.28 118.711 112.28 120.271C112.28 121.711 111.917 123.265 111.189 124.933C110.462 126.601 109.36 128.593 107.885 130.909L102.74 139.027L102.74 139.387L111.782 134.167L111.782 138.703L95.3514 148.189ZM119.519 134.236L119.519 115.48L119.176 115.678L114.125 122.914L114.125 117.01L120.236 108.19L124.569 105.688L124.569 131.32L119.519 134.236ZM137.963 123.588L137.963 118.296L127.331 124.434L127.331 121.158L135.78 99.2158L143.138 94.9678L143.138 110.808L145.726 109.314L145.726 113.814L143.138 115.308L143.138 120.6L137.963 123.588ZM132.351 117.036L137.932 113.814L137.932 102.942L137.62 103.122L132.351 117.036Z" fill="black"/>
</svg>
