<svg width="256" height="256" viewBox="0 0 256 256" fill="none" xmlns="http://www.w3.org/2000/svg">
<path d="M154.461 100.267C154.461 122.063 139.159 148.568 120.282 159.467C101.405 170.365 86.1028 161.53 86.1028 139.733C86.1028 117.936 101.405 91.4316 120.282 80.5332C139.159 69.6348 154.461 78.4697 154.461 100.267Z" fill="white" stroke="#1019EF" stroke-width="6.4"/>
<mask id="path-2-inside-1_787_1656" fill="white">
<path d="M120.132 132.533L164.934 106.667L164.934 137.067L120.132 162.933L120.132 132.533Z"/>
</mask>
<path d="M120.132 132.533L164.934 106.667L164.934 137.067L120.132 162.933L120.132 132.533Z" fill="white"/>
<path d="M164.934 106.667L170.477 103.467L170.477 97.0665L164.934 100.267L164.934 106.667ZM164.934 137.067L164.934 143.467L170.477 140.267L170.477 133.867L164.934 137.067ZM120.132 138.933L164.934 113.067L164.934 100.267L120.132 126.133L120.132 138.933ZM159.391 109.867L159.391 140.267L170.477 133.867L170.477 103.467L159.391 109.867ZM164.934 130.667L120.132 156.533L120.132 169.333L164.934 143.467L164.934 130.667Z" fill="#1019EF" mask="url(#path-2-inside-1_787_1656)"/>
<path d="M104.665 138.665L150.729 110.933L148.132 125.066L104.665 151.208L104.665 138.665Z" fill="white"/>
<path d="M101.464 144.66L101.464 125.904L101.121 126.102L96.0704 133.338L96.0704 127.434L102.181 118.614L106.515 116.112L106.515 141.744L101.464 144.66ZM111.864 138.656L119.253 113.582L109.214 119.378L109.214 114.554L125.083 105.392L125.083 108.884L117.227 135.56L111.864 138.656ZM136.745 124.291L136.745 118.999L126.113 125.137L126.113 121.861L134.562 99.9189L141.92 95.6709L141.92 111.511L144.508 110.017L144.508 114.517L141.92 116.011L141.92 121.303L136.745 124.291ZM131.133 117.739L136.714 114.517L136.714 103.645L136.402 103.825L131.133 117.739Z" fill="black"/>
</svg>
