<svg width="256" height="256" viewBox="0 0 256 256" fill="none" xmlns="http://www.w3.org/2000/svg">
<path d="M154.461 100.267C154.461 122.063 139.159 148.568 120.282 159.467C101.405 170.365 86.1028 161.53 86.1028 139.733C86.1028 117.936 101.405 91.4316 120.282 80.5332C139.159 69.6348 154.461 78.4697 154.461 100.267Z" fill="white" stroke="#1019EF" stroke-width="6.4"/>
<mask id="path-2-inside-1_787_1644" fill="white">
<path d="M120.132 132.533L164.934 106.667L164.934 137.067L120.132 162.933L120.132 132.533Z"/>
</mask>
<path d="M120.132 132.533L164.934 106.667L164.934 137.067L120.132 162.933L120.132 132.533Z" fill="white"/>
<path d="M164.934 106.667L170.477 103.467L170.477 97.0665L164.934 100.267L164.934 106.667ZM164.934 137.067L164.934 143.467L170.477 140.267L170.477 133.867L164.934 137.067ZM120.132 138.933L164.934 113.067L164.934 100.267L120.132 126.133L120.132 138.933ZM159.392 109.867L159.392 140.267L170.477 133.867L170.477 103.467L159.392 109.867ZM164.934 130.667L120.132 156.533L120.132 169.333L164.934 143.467L164.934 130.667Z" fill="#1019EF" mask="url(#path-2-inside-1_787_1644)"/>
<path d="M104.665 138.665L150.729 110.933L148.132 125.066L104.665 151.208L104.665 138.665Z" fill="white"/>
<path d="M99.6762 145.693L99.6762 126.937L99.3333 127.135L94.2826 134.371L94.2826 128.467L100.393 119.647L104.727 117.145L104.727 142.777L99.6762 145.693ZM116.967 136.394C115.221 137.402 113.662 137.93 112.29 137.978C110.939 137.99 109.879 137.546 109.11 136.646C108.362 135.734 107.988 134.426 107.988 132.722C107.988 131.69 108.185 130.484 108.58 129.104C108.975 127.724 109.547 126.23 110.295 124.622L116.967 110.078L122.703 106.766L116.842 119.366C117.195 119.042 117.538 118.76 117.871 118.52C118.224 118.244 118.557 118.016 118.869 117.836C120.282 117.02 121.529 116.66 122.61 116.756C123.711 116.816 124.574 117.29 125.197 118.178C125.821 119.066 126.133 120.314 126.133 121.922C126.133 123.722 125.738 125.546 124.948 127.394C124.179 129.23 123.098 130.934 121.706 132.506C120.334 134.066 118.754 135.362 116.967 136.394ZM117.123 131.48C117.871 131.048 118.536 130.484 119.118 129.788C119.7 129.068 120.147 128.294 120.459 127.466C120.791 126.602 120.957 125.738 120.957 124.874C120.957 124.034 120.791 123.398 120.459 122.966C120.147 122.498 119.7 122.252 119.118 122.228C118.536 122.204 117.871 122.408 117.123 122.84C116.374 123.272 115.689 123.848 115.065 124.568C114.462 125.252 113.995 126.014 113.662 126.854C113.329 127.694 113.163 128.534 113.163 129.374C113.163 130.238 113.329 130.91 113.662 131.39C113.995 131.87 114.462 132.116 115.065 132.128C115.689 132.128 116.374 131.912 117.123 131.48ZM128.546 129.024L128.546 125.712L137.806 110.898C137.868 110.79 137.931 110.682 137.993 110.574C138.076 110.454 138.149 110.34 138.211 110.232C139.084 108.816 139.708 107.688 140.082 106.848C140.477 105.996 140.674 105.174 140.674 104.382C140.674 103.662 140.518 103.104 140.206 102.708C139.895 102.288 139.479 102.06 138.959 102.024C138.44 101.988 137.858 102.156 137.213 102.528C136.465 102.96 135.79 103.566 135.187 104.346C134.605 105.114 134.137 105.996 133.784 106.992C133.451 107.952 133.264 108.96 133.223 110.016L128.609 112.68C128.609 112.584 128.609 112.488 128.609 112.392C128.609 110.616 128.962 108.78 129.669 106.884C130.375 104.988 131.394 103.224 132.724 101.592C134.054 99.9604 135.572 98.6524 137.276 97.6684C138.835 96.7684 140.238 96.3184 141.485 96.3184C142.732 96.2944 143.709 96.7024 144.415 97.5424C145.122 98.3584 145.475 99.5464 145.475 101.106C145.475 102.546 145.112 104.1 144.384 105.768C143.657 107.436 142.555 109.428 141.079 111.744L135.935 119.862L135.935 120.222L144.977 115.002L144.977 119.538L128.546 129.024Z" fill="black"/>
</svg>
