<svg width="256" height="256" viewBox="0 0 256 256" fill="none" xmlns="http://www.w3.org/2000/svg">
<path d="M154.461 100.267C154.461 122.063 139.159 148.568 120.282 159.467C101.405 170.365 86.1028 161.53 86.1028 139.733C86.1028 117.936 101.405 91.4317 120.282 80.5333C139.159 69.6349 154.461 78.4698 154.461 100.267Z" fill="white" stroke="#1019EF" stroke-width="6.4"/>
<mask id="path-2-inside-1_787_409" fill="white">
<path d="M120.132 132.533L164.934 106.667L164.934 137.067L120.132 162.933L120.132 132.533Z"/>
</mask>
<path d="M120.132 132.533L164.934 106.667L164.934 137.067L120.132 162.933L120.132 132.533Z" fill="white"/>
<path d="M164.934 106.667L170.477 103.467L170.477 97.0666L164.934 100.267L164.934 106.667ZM164.934 137.067L164.934 143.467L170.477 140.267L170.477 133.867L164.934 137.067ZM120.132 138.933L164.934 113.067L164.934 100.267L120.132 126.133L120.132 138.933ZM159.391 109.867L159.391 140.267L170.477 133.867L170.477 103.467L159.391 109.867ZM164.934 130.667L120.132 156.533L120.132 169.333L164.934 143.467L164.934 130.667Z" fill="#1019EF" mask="url(#path-2-inside-1_787_409)"/>
<path d="M104.665 138.665L150.729 110.933L148.132 125.067L104.665 151.209L104.665 138.665Z" fill="white"/>
<path d="M122.481 99.0224C125.067 97.5291 127.361 96.7735 129.363 96.7558C131.395 96.6846 132.965 97.3246 134.074 98.6758C135.213 100.009 135.783 101.92 135.783 104.409C135.783 105.938 135.49 107.725 134.905 109.769C134.32 111.814 133.489 114.018 132.411 116.382L122.481 137.956L113.982 142.862L122.665 124.196C122.142 124.676 121.619 125.12 121.095 125.529C120.602 125.885 120.125 126.196 119.663 126.462C117.569 127.671 115.706 128.231 114.074 128.142C112.473 128.036 111.211 127.325 110.287 126.009C109.363 124.658 108.901 122.809 108.901 120.462C108.901 117.796 109.471 115.102 110.61 112.382C111.78 109.645 113.382 107.12 115.414 104.809C117.477 102.48 119.833 100.551 122.481 99.0224ZM122.25 106.302C121.172 106.925 120.202 107.751 119.34 108.782C118.478 109.814 117.8 110.969 117.308 112.249C116.815 113.494 116.569 114.756 116.569 116.036C116.569 117.28 116.815 118.24 117.308 118.916C117.8 119.556 118.478 119.911 119.34 119.982C120.202 120.018 121.172 119.725 122.25 119.102C123.358 118.462 124.359 117.618 125.252 116.569C126.176 115.502 126.884 114.347 127.377 113.102C127.869 111.858 128.116 110.614 128.116 109.369C128.116 108.089 127.869 107.094 127.377 106.382C126.884 105.671 126.176 105.334 125.252 105.369C124.359 105.351 123.358 105.662 122.25 106.302Z" fill="black"/>
</svg>
