<svg width="256" height="256" viewBox="0 0 256 256" fill="none" xmlns="http://www.w3.org/2000/svg">
<path d="M154.461 100.267C154.461 122.063 139.159 148.568 120.282 159.467C101.405 170.365 86.1028 161.53 86.1028 139.733C86.1028 117.936 101.405 91.4316 120.282 80.5332C139.159 69.6348 154.461 78.4697 154.461 100.267Z" fill="white" stroke="#1019EF" stroke-width="6.4"/>
<mask id="path-2-inside-1_787_2099" fill="white">
<path d="M120.132 132.533L164.934 106.667L164.934 137.067L120.132 162.933L120.132 132.533Z"/>
</mask>
<path d="M120.132 132.533L164.934 106.667L164.934 137.067L120.132 162.933L120.132 132.533Z" fill="white"/>
<path d="M164.934 106.667L170.477 103.467L170.477 97.0665L164.934 100.267L164.934 106.667ZM164.934 137.067L164.934 143.467L170.477 140.267L170.477 133.867L164.934 137.067ZM120.132 138.933L164.934 113.067L164.934 100.267L120.132 126.133L120.132 138.933ZM159.391 109.867L159.391 140.267L170.477 133.867L170.477 103.467L159.391 109.867ZM164.934 130.667L120.132 156.533L120.132 169.333L164.934 143.467L164.934 130.667Z" fill="#1019EF" mask="url(#path-2-inside-1_787_2099)"/>
<path d="M104.665 138.665L150.729 110.933L148.132 125.066L104.665 151.208L104.665 138.665Z" fill="white"/>
<path d="M92.163 150.03L92.163 146.718L101.423 131.904C101.485 131.796 101.547 131.688 101.61 131.58C101.693 131.46 101.766 131.346 101.828 131.238C102.701 129.822 103.324 128.694 103.698 127.854C104.093 127.002 104.291 126.18 104.291 125.388C104.291 124.668 104.135 124.11 103.823 123.714C103.511 123.294 103.096 123.066 102.576 123.03C102.057 122.994 101.475 123.162 100.83 123.534C100.082 123.966 99.4065 124.572 98.8037 125.352C98.2217 126.12 97.7541 127.002 97.4007 127.998C97.0682 128.958 96.8811 129.966 96.8396 131.022L92.2254 133.686C92.2254 133.59 92.2254 133.494 92.2254 133.398C92.2254 131.622 92.5787 129.786 93.2854 127.89C93.9921 125.994 95.0105 124.23 96.3407 122.598C97.6709 120.966 99.1882 119.658 100.893 118.674C102.451 117.774 103.854 117.324 105.101 117.324C106.349 117.3 107.325 117.708 108.032 118.548C108.739 119.364 109.092 120.552 109.092 122.112C109.092 123.552 108.728 125.106 108.001 126.774C107.273 128.442 106.172 130.434 104.696 132.75L99.552 140.868L99.552 141.228L108.593 136.008L108.593 140.544L92.163 150.03ZM119.791 134.763C118.149 135.711 116.652 136.155 115.301 136.095C113.971 135.999 112.911 135.447 112.121 134.439C111.352 133.395 110.937 131.955 110.874 130.119L115.676 127.347C115.676 128.331 115.852 129.105 116.206 129.669C116.559 130.233 117.037 130.569 117.64 130.677C118.263 130.749 118.96 130.563 119.729 130.119C120.477 129.687 121.142 129.123 121.724 128.427C122.306 127.731 122.763 126.975 123.096 126.159C123.428 125.319 123.594 124.503 123.594 123.711C123.594 122.919 123.418 122.301 123.064 121.857C122.732 121.401 122.264 121.167 121.661 121.155C121.08 121.107 120.425 121.293 119.697 121.713C119.386 121.893 119.053 122.133 118.7 122.433C118.346 122.709 118.055 122.973 117.827 123.225L116.704 120.453L121.256 112.497L121.256 112.137L112.277 117.321L112.277 112.785L127.647 103.911L127.647 107.403L122.379 116.673C123.543 116.217 124.582 116.109 125.496 116.349C126.432 116.553 127.159 117.093 127.679 117.969C128.219 118.809 128.489 119.913 128.489 121.281C128.489 122.889 128.115 124.557 127.367 126.285C126.639 127.977 125.611 129.579 124.28 131.091C122.95 132.579 121.454 133.803 119.791 134.763ZM139.281 123.511C137.639 124.459 136.153 124.909 134.823 124.861C133.492 124.789 132.432 124.249 131.642 123.241C130.853 122.233 130.427 120.835 130.364 119.047L135.165 116.275C135.165 117.187 135.342 117.913 135.695 118.453C136.07 118.981 136.558 119.299 137.161 119.407C137.784 119.479 138.47 119.299 139.218 118.867C139.967 118.435 140.632 117.871 141.214 117.175C141.817 116.467 142.284 115.693 142.617 114.853C142.949 114.013 143.116 113.209 143.116 112.441C143.116 111.601 142.939 110.959 142.586 110.515C142.232 110.071 141.723 109.861 141.058 109.885C140.393 109.909 139.613 110.179 138.72 110.695L132.11 114.511L133.139 100.741L146.264 93.1628L146.264 97.6988L136.911 103.099L136.506 107.941L140.06 105.889C141.619 104.989 142.991 104.557 144.176 104.593C145.381 104.617 146.316 105.085 146.982 105.997C147.647 106.885 147.979 108.145 147.979 109.777C147.979 111.433 147.605 113.137 146.857 114.889C146.109 116.641 145.069 118.285 143.739 119.821C142.43 121.321 140.944 122.551 139.281 123.511Z" fill="black"/>
</svg>
