<svg width="256" height="256" viewBox="0 0 256 256" fill="none" xmlns="http://www.w3.org/2000/svg">
<path d="M154.461 100.267C154.461 122.064 139.159 148.568 120.282 159.467C101.405 170.365 86.1028 161.53 86.1028 139.733C86.1028 117.937 101.405 91.4318 120.282 80.5334C139.159 69.635 154.461 78.4699 154.461 100.267Z" fill="white" stroke="#1019EF" stroke-width="6.4"/>
<mask id="path-2-inside-1_787_1235" fill="white">
<path d="M120.132 132.533L164.934 106.667L164.934 137.067L120.132 162.933L120.132 132.533Z"/>
</mask>
<path d="M120.132 132.533L164.934 106.667L164.934 137.067L120.132 162.933L120.132 132.533Z" fill="white"/>
<path d="M164.934 106.667L170.477 103.467L170.477 97.0668L164.934 100.267L164.934 106.667ZM164.934 137.067L164.934 143.467L170.477 140.267L170.477 133.867L164.934 137.067ZM120.132 138.933L164.934 113.067L164.934 100.267L120.132 126.133L120.132 138.933ZM159.391 109.867L159.391 140.267L170.477 133.867L170.477 103.467L159.391 109.867ZM164.934 130.667L120.132 156.533L120.132 169.333L164.934 143.467L164.934 130.667Z" fill="#1019EF" mask="url(#path-2-inside-1_787_1235)"/>
<path d="M104.665 138.666L150.729 110.933L148.132 125.067L104.665 151.209L104.665 138.666Z" fill="white"/>
<path d="M100.368 145.293L100.368 126.537L100.025 126.735L94.9744 133.971L94.9744 128.067L101.085 119.247L105.419 116.745L105.419 142.377L100.368 145.293ZM117.347 136.174C115.705 137.122 114.208 137.566 112.857 137.506C111.527 137.41 110.467 136.858 109.677 135.85C108.908 134.806 108.492 133.366 108.43 131.53L113.231 128.758C113.231 129.742 113.408 130.516 113.761 131.08C114.115 131.644 114.593 131.98 115.196 132.088C115.819 132.16 116.515 131.974 117.284 131.53C118.033 131.098 118.698 130.534 119.28 129.838C119.862 129.142 120.319 128.386 120.651 127.57C120.984 126.73 121.15 125.914 121.15 125.122C121.15 124.33 120.974 123.712 120.62 123.268C120.288 122.812 119.82 122.578 119.217 122.566C118.635 122.518 117.981 122.704 117.253 123.124C116.941 123.304 116.609 123.544 116.256 123.844C115.902 124.12 115.611 124.384 115.383 124.636L114.26 121.864L118.812 113.908L118.812 113.548L109.833 118.732L109.833 114.196L125.203 105.322L125.203 108.814L119.934 118.084C121.098 117.628 122.138 117.52 123.052 117.76C123.987 117.964 124.715 118.504 125.234 119.38C125.775 120.22 126.045 121.324 126.045 122.692C126.045 124.3 125.671 125.968 124.923 127.696C124.195 129.388 123.166 130.99 121.836 132.502C120.506 133.99 119.01 135.214 117.347 136.174ZM136.837 124.922C135.195 125.87 133.709 126.32 132.378 126.272C131.048 126.2 129.988 125.66 129.198 124.652C128.409 123.644 127.982 122.246 127.92 120.458L132.721 117.686C132.721 118.598 132.898 119.324 133.251 119.864C133.625 120.392 134.114 120.71 134.717 120.818C135.34 120.89 136.026 120.71 136.774 120.278C137.523 119.846 138.188 119.282 138.77 118.586C139.372 117.878 139.84 117.104 140.173 116.264C140.505 115.424 140.671 114.62 140.671 113.852C140.671 113.012 140.495 112.37 140.141 111.926C139.788 111.482 139.279 111.272 138.614 111.296C137.949 111.32 137.169 111.59 136.276 112.106L129.666 115.922L130.695 102.152L143.82 94.5739L143.82 99.1099L134.467 104.51L134.062 109.352L137.616 107.3C139.175 106.4 140.547 105.968 141.731 106.004C142.937 106.028 143.872 106.496 144.537 107.408C145.202 108.296 145.535 109.556 145.535 111.188C145.535 112.844 145.161 114.548 144.413 116.3C143.664 118.052 142.625 119.696 141.295 121.232C139.986 122.732 138.499 123.962 136.837 124.922Z" fill="black"/>
</svg>
