<svg width="256" height="256" viewBox="0 0 256 256" fill="none" xmlns="http://www.w3.org/2000/svg">
<path d="M154.461 100.267C154.461 122.064 139.159 148.568 120.282 159.467C101.405 170.365 86.1028 161.53 86.1028 139.733C86.1028 117.937 101.405 91.4318 120.282 80.5334C139.159 69.635 154.461 78.4699 154.461 100.267Z" fill="white" stroke="#1019EF" stroke-width="6.4"/>
<mask id="path-2-inside-1_787_1207" fill="white">
<path d="M120.132 132.533L164.934 106.667L164.934 137.067L120.132 162.933L120.132 132.533Z"/>
</mask>
<path d="M120.132 132.533L164.934 106.667L164.934 137.067L120.132 162.933L120.132 132.533Z" fill="white"/>
<path d="M164.934 106.667L170.477 103.467L170.477 97.0668L164.934 100.267L164.934 106.667ZM164.934 137.067L164.934 143.467L170.477 140.267L170.477 133.867L164.934 137.067ZM120.132 138.933L164.934 113.067L164.934 100.267L120.132 126.133L120.132 138.933ZM159.391 109.867L159.391 140.267L170.477 133.867L170.477 103.467L159.391 109.867ZM164.934 130.667L120.132 156.533L120.132 169.333L164.934 143.467L164.934 130.667Z" fill="#1019EF" mask="url(#path-2-inside-1_787_1207)"/>
<path d="M104.665 138.666L150.729 110.933L148.132 125.067L104.665 151.209L104.665 138.666Z" fill="white"/>
<path d="M99.5542 145.763L99.5542 127.007L99.2113 127.205L94.1606 134.441L94.1606 128.537L100.271 119.717L104.605 117.215L104.605 142.847L99.5542 145.763ZM118.279 135.636C116.304 136.776 114.548 137.226 113.01 136.986C111.493 136.71 110.308 135.798 109.456 134.25C108.604 132.678 108.178 130.584 108.178 127.968C108.178 125.352 108.604 122.778 109.456 120.246C110.308 117.69 111.493 115.41 113.01 113.406C114.548 111.366 116.304 109.776 118.279 108.636C120.233 107.508 121.979 107.076 123.517 107.34C125.055 107.58 126.25 108.486 127.102 110.058C127.954 111.606 128.38 113.688 128.38 116.304C128.38 118.92 127.954 121.506 127.102 124.062C126.25 126.594 125.055 128.88 123.517 130.92C121.979 132.936 120.233 134.508 118.279 135.636ZM118.279 130.488C119.256 129.924 120.108 129.084 120.835 127.968C121.584 126.84 122.166 125.52 122.581 124.008C122.997 122.496 123.205 120.924 123.205 119.292C123.205 117.66 122.997 116.328 122.581 115.296C122.166 114.264 121.584 113.616 120.835 113.352C120.108 113.076 119.256 113.22 118.279 113.784C117.302 114.348 116.439 115.194 115.691 116.322C114.943 117.45 114.361 118.77 113.945 120.282C113.55 121.782 113.353 123.348 113.353 124.98C113.353 126.612 113.55 127.95 113.945 128.994C114.361 130.026 114.943 130.674 115.691 130.938C116.439 131.202 117.302 131.052 118.279 130.488ZM132.881 126.522L140.27 101.448L130.231 107.244L130.231 102.42L146.1 93.2578L146.1 96.7498L138.243 123.426L132.881 126.522Z" fill="black"/>
</svg>
