<svg width="256" height="256" viewBox="0 0 256 256" fill="none" xmlns="http://www.w3.org/2000/svg">
<path d="M154.461 100.267C154.461 122.064 139.159 148.568 120.282 159.467C101.405 170.365 86.1028 161.53 86.1028 139.733C86.1028 117.937 101.405 91.4318 120.282 80.5334C139.159 69.6349 154.461 78.4698 154.461 100.267Z" fill="white" stroke="#1019EF" stroke-width="6.4"/>
<mask id="path-2-inside-1_787_598" fill="white">
<path d="M120.132 132.533L164.934 106.667L164.934 137.067L120.132 162.933L120.132 132.533Z"/>
</mask>
<path d="M120.132 132.533L164.934 106.667L164.934 137.067L120.132 162.933L120.132 132.533Z" fill="white"/>
<path d="M164.934 106.667L170.477 103.467L170.477 97.0666L164.934 100.267L164.934 106.667ZM164.934 137.067L164.934 143.467L170.477 140.267L170.477 133.867L164.934 137.067ZM120.132 138.933L164.934 113.067L164.934 100.267L120.132 126.133L120.132 138.933ZM159.391 109.867L159.391 140.267L170.477 133.867L170.477 103.467L159.391 109.867ZM164.934 130.667L120.132 156.533L120.132 169.333L164.934 143.467L164.934 130.667Z" fill="#1019EF" mask="url(#path-2-inside-1_787_598)"/>
<path d="M104.665 138.665L150.729 110.933L148.132 125.067L104.665 151.209L104.665 138.665Z" fill="white"/>
<path d="M105.482 148.836C103.05 150.241 100.833 150.899 98.8311 150.81C96.8604 150.668 95.29 149.85 94.1199 148.356C92.9806 146.81 92.3647 144.676 92.2724 141.956L99.3853 137.85C99.3853 139.308 99.647 140.454 100.171 141.29C100.694 142.125 101.402 142.623 102.295 142.783C103.219 142.89 104.25 142.614 105.39 141.956C106.498 141.316 107.484 140.481 108.346 139.45C109.208 138.419 109.885 137.299 110.378 136.09C110.871 134.845 111.117 133.636 111.117 132.463C111.117 131.29 110.855 130.374 110.332 129.716C109.839 129.041 109.146 128.694 108.253 128.676C107.391 128.605 106.421 128.881 105.344 129.503C104.882 129.77 104.389 130.125 103.866 130.57C103.342 130.979 102.911 131.37 102.572 131.743L100.91 127.636L107.653 115.85L107.653 115.316L94.3508 122.996L94.3508 116.276L117.121 103.13L117.121 108.303L109.316 122.036C111.04 121.361 112.58 121.201 113.935 121.556C115.32 121.859 116.398 122.659 117.168 123.956C117.968 125.201 118.369 126.836 118.369 128.863C118.369 131.245 117.814 133.716 116.706 136.276C115.628 138.783 114.104 141.156 112.133 143.396C110.163 145.601 107.945 147.414 105.482 148.836ZM136.666 130.833C133.74 132.522 131.138 133.188 128.86 132.833C126.612 132.424 124.857 131.073 123.594 128.779C122.332 126.451 121.701 123.348 121.701 119.473C121.701 115.597 122.332 111.784 123.594 108.033C124.857 104.246 126.612 100.868 128.86 97.8994C131.138 94.8772 133.74 92.5216 136.666 90.8327C139.56 89.1616 142.146 88.5216 144.425 88.9127C146.704 89.2683 148.474 90.6105 149.737 92.9394C150.999 95.2327 151.63 98.3172 151.63 102.193C151.63 106.068 150.999 109.899 149.737 113.686C148.474 117.437 146.704 120.824 144.425 123.846C142.146 126.833 139.56 129.162 136.666 130.833ZM136.666 123.206C138.113 122.37 139.375 121.126 140.453 119.473C141.561 117.802 142.424 115.846 143.039 113.606C143.655 111.366 143.963 109.037 143.963 106.619C143.963 104.202 143.655 102.228 143.039 100.699C142.424 99.1705 141.561 98.2105 140.453 97.8194C139.375 97.4105 138.113 97.6238 136.666 98.4594C135.218 99.295 133.94 100.548 132.832 102.219C131.723 103.891 130.861 105.846 130.245 108.086C129.66 110.308 129.368 112.628 129.368 115.046C129.368 117.464 129.66 119.446 130.245 120.993C130.861 122.522 131.723 123.482 132.832 123.873C133.94 124.264 135.218 124.042 136.666 123.206Z" fill="black"/>
</svg>
