<svg width="256" height="256" viewBox="0 0 256 256" fill="none" xmlns="http://www.w3.org/2000/svg">
<path d="M154.461 100.267C154.461 122.063 139.159 148.568 120.282 159.467C101.405 170.365 86.1028 161.53 86.1028 139.733C86.1028 117.936 101.405 91.4317 120.282 80.5333C139.159 69.6349 154.461 78.4698 154.461 100.267Z" fill="white" stroke="#1019EF" stroke-width="6.4"/>
<mask id="path-2-inside-1_787_742" fill="white">
<path d="M120.132 132.533L164.934 106.667L164.934 137.067L120.132 162.933L120.132 132.533Z"/>
</mask>
<path d="M120.132 132.533L164.934 106.667L164.934 137.067L120.132 162.933L120.132 132.533Z" fill="white"/>
<path d="M164.934 106.667L170.477 103.467L170.477 97.0665L164.934 100.267L164.934 106.667ZM164.934 137.067L164.934 143.467L170.477 140.267L170.477 133.867L164.934 137.067ZM120.132 138.933L164.934 113.067L164.934 100.267L120.132 126.133L120.132 138.933ZM159.391 109.867L159.391 140.267L170.477 133.867L170.477 103.467L159.391 109.867ZM164.934 130.667L120.132 156.533L120.132 169.333L164.934 143.467L164.934 130.667Z" fill="#1019EF" mask="url(#path-2-inside-1_787_742)"/>
<path d="M104.665 138.665L150.729 110.933L148.132 125.067L104.665 151.209L104.665 138.665Z" fill="white"/>
<path d="M109.142 145.71L109.142 137.87L93.3915 146.964L93.3915 142.11L105.908 109.604L116.809 103.31L116.809 126.777L120.642 124.564L120.642 131.23L116.809 133.444L116.809 141.284L109.142 145.71ZM100.828 136.004L109.095 131.23L109.095 115.124L108.633 115.39L100.828 136.004ZM137.022 130.627C134.435 132.12 132.126 132.903 130.094 132.974C128.092 132.992 126.522 132.334 125.382 131C124.274 129.649 123.72 127.712 123.72 125.187C123.72 123.658 124.012 121.872 124.597 119.827C125.182 117.783 126.029 115.569 127.138 113.187L137.022 91.6404L145.52 86.7338L136.837 105.4C137.361 104.92 137.869 104.503 138.361 104.147C138.885 103.738 139.377 103.4 139.839 103.134C141.933 101.925 143.781 101.392 145.382 101.534C147.014 101.623 148.292 102.325 149.215 103.64C150.139 104.956 150.601 106.805 150.601 109.187C150.601 111.854 150.016 114.556 148.846 117.294C147.707 120.014 146.105 122.538 144.042 124.867C142.01 127.178 139.67 129.098 137.022 130.627ZM137.253 123.347C138.361 122.707 139.347 121.872 140.209 120.84C141.071 119.774 141.733 118.627 142.195 117.4C142.688 116.12 142.934 114.84 142.934 113.56C142.934 112.316 142.688 111.374 142.195 110.734C141.733 110.04 141.071 109.676 140.209 109.64C139.347 109.605 138.361 109.907 137.253 110.547C136.144 111.187 135.128 112.04 134.204 113.107C133.311 114.12 132.619 115.249 132.126 116.494C131.633 117.738 131.387 118.983 131.387 120.227C131.387 121.507 131.633 122.503 132.126 123.214C132.619 123.925 133.311 124.289 134.204 124.307C135.128 124.307 136.144 123.987 137.253 123.347Z" fill="black"/>
</svg>
