<svg width="256" height="256" viewBox="0 0 256 256" fill="none" xmlns="http://www.w3.org/2000/svg">
<path d="M154.461 100.267C154.461 122.064 139.159 148.568 120.282 159.467C101.405 170.365 86.1028 161.53 86.1028 139.733C86.1028 117.937 101.405 91.4318 120.282 80.5334C139.159 69.6349 154.461 78.4698 154.461 100.267Z" fill="white" stroke="#1019EF" stroke-width="6.4"/>
<mask id="path-2-inside-1_787_508" fill="white">
<path d="M120.132 132.533L164.934 106.667L164.934 137.067L120.132 162.933L120.132 132.533Z"/>
</mask>
<path d="M120.132 132.533L164.934 106.667L164.934 137.067L120.132 162.933L120.132 132.533Z" fill="white"/>
<path d="M164.934 106.667L170.477 103.467L170.477 97.0666L164.934 100.267L164.934 106.667ZM164.934 137.067L164.934 143.467L170.477 140.267L170.477 133.867L164.934 137.067ZM120.132 138.933L164.934 113.067L164.934 100.267L120.132 126.133L120.132 138.933ZM159.391 109.867L159.391 140.267L170.477 133.867L170.477 103.467L159.391 109.867ZM164.934 130.667L120.132 156.533L120.132 169.333L164.934 143.467L164.934 130.667Z" fill="#1019EF" mask="url(#path-2-inside-1_787_508)"/>
<path d="M104.665 138.665L150.729 110.933L148.132 125.067L104.665 151.209L104.665 138.665Z" fill="white"/>
<path d="M93.1263 154.957L93.1263 150.05L106.844 128.103C106.937 127.943 107.029 127.783 107.121 127.623C107.244 127.446 107.352 127.277 107.445 127.117C108.738 125.019 109.662 123.348 110.216 122.103C110.801 120.841 111.093 119.623 111.093 118.45C111.093 117.383 110.862 116.557 110.401 115.97C109.939 115.348 109.323 115.01 108.553 114.957C107.783 114.903 106.921 115.152 105.967 115.703C104.858 116.343 103.857 117.241 102.964 118.397C102.102 119.535 101.409 120.841 100.886 122.317C100.393 123.739 100.116 125.232 100.054 126.797L93.2187 130.743C93.2187 130.601 93.2187 130.459 93.2187 130.317C93.2187 127.686 93.7421 124.966 94.7891 122.157C95.836 119.348 97.3448 116.735 99.3155 114.317C101.286 111.899 103.534 109.961 106.059 108.503C108.368 107.17 110.447 106.503 112.294 106.503C114.142 106.468 115.589 107.072 116.636 108.317C117.683 109.526 118.206 111.286 118.206 113.597C118.206 115.73 117.668 118.032 116.59 120.503C115.512 122.975 113.88 125.926 111.694 129.357L104.073 141.383L104.073 141.917L117.467 134.183L117.467 140.903L93.1263 154.957ZM136.643 130.846C133.718 132.535 131.116 133.201 128.837 132.846C126.589 132.437 124.834 131.086 123.572 128.792C122.309 126.464 121.678 123.361 121.678 119.486C121.678 115.61 122.309 111.797 123.572 108.046C124.834 104.259 126.589 100.881 128.837 97.9124C131.116 94.8902 133.718 92.5346 136.643 90.8458C139.537 89.1746 142.124 88.5346 144.403 88.9258C146.681 89.2813 148.452 90.6235 149.714 92.9524C150.977 95.2457 151.608 98.3302 151.608 102.206C151.608 106.081 150.977 109.912 149.714 113.699C148.452 117.45 146.681 120.837 144.403 123.859C142.124 126.846 139.537 129.175 136.643 130.846ZM136.643 123.219C138.09 122.384 139.353 121.139 140.43 119.486C141.539 117.815 142.401 115.859 143.017 113.619C143.633 111.379 143.941 109.05 143.941 106.632C143.941 104.215 143.633 102.241 143.017 100.712C142.401 99.1835 141.539 98.2235 140.43 97.8324C139.353 97.4235 138.09 97.6369 136.643 98.4724C135.196 99.308 133.918 100.561 132.809 102.232C131.701 103.904 130.839 105.859 130.223 108.099C129.638 110.321 129.345 112.641 129.345 115.059C129.345 117.477 129.638 119.459 130.223 121.006C130.839 122.535 131.701 123.495 132.809 123.886C133.918 124.277 135.196 124.055 136.643 123.219Z" fill="black"/>
</svg>
