<svg width="256" height="256" viewBox="0 0 256 256" fill="none" xmlns="http://www.w3.org/2000/svg">
<path d="M154.461 100.267C154.461 122.064 139.159 148.568 120.282 159.467C101.405 170.365 86.1028 161.53 86.1028 139.733C86.1028 117.937 101.405 91.4318 120.282 80.5334C139.159 69.635 154.461 78.4699 154.461 100.267Z" fill="white" stroke="#1019EF" stroke-width="6.4"/>
<mask id="path-2-inside-1_787_1632" fill="white">
<path d="M120.132 132.533L164.934 106.667L164.934 137.067L120.132 162.933L120.132 132.533Z"/>
</mask>
<path d="M120.132 132.533L164.934 106.667L164.934 137.067L120.132 162.933L120.132 132.533Z" fill="white"/>
<path d="M164.934 106.667L170.477 103.467L170.477 97.0668L164.934 100.267L164.934 106.667ZM164.934 137.067L164.934 143.467L170.477 140.267L170.477 133.867L164.934 137.067ZM120.132 138.933L164.934 113.067L164.934 100.267L120.132 126.133L120.132 138.933ZM159.391 109.867L159.391 140.267L170.477 133.867L170.477 103.467L159.391 109.867ZM164.934 130.667L120.132 156.533L120.132 169.333L164.934 143.467L164.934 130.667Z" fill="#1019EF" mask="url(#path-2-inside-1_787_1632)"/>
<path d="M104.665 138.666L150.729 110.933L148.132 125.067L104.665 151.209L104.665 138.666Z" fill="white"/>
<path d="M98.5563 146.339L98.5563 127.583L98.2134 127.781L93.1627 135.017L93.1627 129.113L99.2734 120.293L103.607 117.791L103.607 143.423L98.5563 146.339ZM115.722 137.112C114.08 138.06 112.594 138.51 111.264 138.462C109.934 138.39 108.874 137.85 108.084 136.842C107.294 135.834 106.868 134.436 106.806 132.648L111.607 129.876C111.607 130.788 111.783 131.514 112.137 132.054C112.511 132.582 112.999 132.9 113.602 133.008C114.226 133.08 114.912 132.9 115.66 132.468C116.408 132.036 117.073 131.472 117.655 130.776C118.258 130.068 118.726 129.294 119.058 128.454C119.391 127.614 119.557 126.81 119.557 126.042C119.557 125.202 119.38 124.56 119.027 124.116C118.674 123.672 118.164 123.462 117.499 123.486C116.834 123.51 116.055 123.78 115.161 124.296L108.551 128.112L109.58 114.342L122.706 106.764L122.706 111.3L113.353 116.7L112.947 121.542L116.502 119.49C118.06 118.59 119.432 118.158 120.617 118.194C121.822 118.218 122.758 118.686 123.423 119.598C124.088 120.486 124.42 121.746 124.42 123.378C124.42 125.034 124.046 126.738 123.298 128.49C122.55 130.242 121.511 131.886 120.18 133.422C118.871 134.922 117.385 136.152 115.722 137.112ZM136.98 124.839C135.005 125.979 133.249 126.429 131.711 126.189C130.193 125.913 129.009 125.001 128.157 123.453C127.304 121.881 126.878 119.787 126.878 117.171C126.878 114.555 127.304 111.981 128.157 109.449C129.009 106.893 130.193 104.613 131.711 102.609C133.249 100.569 135.005 98.9793 136.98 97.8393C138.933 96.7113 140.679 96.2793 142.217 96.5433C143.755 96.7833 144.951 97.6893 145.803 99.2613C146.655 100.809 147.081 102.891 147.081 105.507C147.081 108.123 146.655 110.709 145.803 113.265C144.951 115.797 143.755 118.083 142.217 120.123C140.679 122.139 138.933 123.711 136.98 124.839ZM136.98 119.691C137.957 119.127 138.809 118.287 139.536 117.171C140.284 116.043 140.866 114.723 141.282 113.211C141.698 111.699 141.906 110.127 141.906 108.495C141.906 106.863 141.698 105.531 141.282 104.499C140.866 103.467 140.284 102.819 139.536 102.555C138.809 102.279 137.957 102.423 136.98 102.987C136.003 103.551 135.14 104.397 134.392 105.525C133.644 106.653 133.062 107.973 132.646 109.485C132.251 110.985 132.054 112.551 132.054 114.183C132.054 115.815 132.251 117.153 132.646 118.197C133.062 119.229 133.644 119.877 134.392 120.141C135.14 120.405 136.003 120.255 136.98 119.691Z" fill="black"/>
</svg>
