<svg width="256" height="256" viewBox="0 0 256 256" fill="none" xmlns="http://www.w3.org/2000/svg">
<path d="M154.461 100.267C154.461 122.063 139.159 148.568 120.282 159.467C101.405 170.365 86.1028 161.53 86.1028 139.733C86.1028 117.936 101.405 91.4316 120.282 80.5332C139.159 69.6348 154.461 78.4697 154.461 100.267Z" fill="white" stroke="#1019EF" stroke-width="6.4"/>
<mask id="path-2-inside-1_787_1649" fill="white">
<path d="M120.132 132.533L164.934 106.667L164.934 137.067L120.132 162.933L120.132 132.533Z"/>
</mask>
<path d="M120.132 132.533L164.934 106.667L164.934 137.067L120.132 162.933L120.132 132.533Z" fill="white"/>
<path d="M164.934 106.667L170.477 103.467L170.477 97.0665L164.934 100.267L164.934 106.667ZM164.934 137.067L164.934 143.467L170.477 140.267L170.477 133.867L164.934 137.067ZM120.132 138.933L164.934 113.067L164.934 100.267L120.132 126.133L120.132 138.933ZM159.391 109.867L159.391 140.267L170.477 133.867L170.477 103.467L159.391 109.867ZM164.934 130.667L120.132 156.533L120.132 169.333L164.934 143.467L164.934 130.667Z" fill="#1019EF" mask="url(#path-2-inside-1_787_1649)"/>
<path d="M104.665 138.665L150.729 110.933L148.132 125.066L104.665 151.208L104.665 138.665Z" fill="white"/>
<path d="M101.327 144.739L101.327 125.983L100.984 126.181L95.9334 133.417L95.9334 127.513L102.044 118.693L106.378 116.191L106.378 141.823L101.327 144.739ZM118.618 135.441C116.872 136.449 115.313 136.977 113.941 137.025C112.59 137.037 111.53 136.593 110.761 135.693C110.013 134.781 109.639 133.473 109.639 131.769C109.639 130.737 109.836 129.531 110.231 128.151C110.626 126.771 111.197 125.277 111.946 123.669L118.618 109.125L124.354 105.813L118.493 118.413C118.846 118.089 119.189 117.807 119.522 117.567C119.875 117.291 120.208 117.063 120.519 116.883C121.933 116.067 123.18 115.707 124.261 115.803C125.362 115.863 126.225 116.337 126.848 117.225C127.472 118.113 127.784 119.361 127.784 120.969C127.784 122.769 127.389 124.593 126.599 126.441C125.83 128.277 124.749 129.981 123.356 131.553C121.985 133.113 120.405 134.409 118.618 135.441ZM118.773 130.527C119.522 130.095 120.187 129.531 120.769 128.835C121.351 128.115 121.798 127.341 122.109 126.513C122.442 125.649 122.608 124.785 122.608 123.921C122.608 123.081 122.442 122.445 122.109 122.013C121.798 121.545 121.351 121.299 120.769 121.275C120.187 121.251 119.522 121.455 118.773 121.887C118.025 122.319 117.339 122.895 116.716 123.615C116.113 124.299 115.645 125.061 115.313 125.901C114.98 126.741 114.814 127.581 114.814 128.421C114.814 129.285 114.98 129.957 115.313 130.437C115.645 130.917 116.113 131.163 116.716 131.175C117.339 131.175 118.025 130.959 118.773 130.527ZM131.974 127.045L139.363 101.971L129.324 107.767L129.324 102.943L145.193 93.7813L145.193 97.2733L137.337 123.949L131.974 127.045Z" fill="black"/>
</svg>
