<svg width="256" height="256" viewBox="0 0 256 256" fill="none" xmlns="http://www.w3.org/2000/svg">
<path d="M154.461 100.267C154.461 122.063 139.159 148.568 120.282 159.467C101.405 170.365 86.1028 161.53 86.1028 139.733C86.1028 117.936 101.405 91.4316 120.282 80.5332C139.159 69.6348 154.461 78.4697 154.461 100.267Z" fill="white" stroke="#1019EF" stroke-width="6.4"/>
<mask id="path-2-inside-1_787_2086" fill="white">
<path d="M120.132 132.533L164.934 106.667L164.934 137.067L120.132 162.933L120.132 132.533Z"/>
</mask>
<path d="M120.132 132.533L164.934 106.667L164.934 137.067L120.132 162.933L120.132 132.533Z" fill="white"/>
<path d="M164.934 106.667L170.477 103.467L170.477 97.0665L164.934 100.267L164.934 106.667ZM164.934 137.067L164.934 143.467L170.477 140.267L170.477 133.867L164.934 137.067ZM120.132 138.933L164.934 113.067L164.934 100.267L120.132 126.133L120.132 138.933ZM159.392 109.867L159.392 140.267L170.477 133.867L170.477 103.467L159.392 109.867ZM164.934 130.667L120.132 156.533L120.132 169.333L164.934 143.467L164.934 130.667Z" fill="#1019EF" mask="url(#path-2-inside-1_787_2086)"/>
<path d="M104.665 138.665L150.729 110.933L148.132 125.066L104.665 151.208L104.665 138.665Z" fill="white"/>
<path d="M92.8246 149.648L92.8246 146.336L102.084 131.522C102.146 131.414 102.209 131.306 102.271 131.198C102.354 131.078 102.427 130.964 102.489 130.856C103.362 129.44 103.986 128.312 104.36 127.472C104.755 126.62 104.952 125.798 104.952 125.006C104.952 124.286 104.797 123.728 104.485 123.332C104.173 122.912 103.757 122.684 103.238 122.648C102.718 122.612 102.136 122.78 101.492 123.152C100.744 123.584 100.068 124.19 99.4653 124.97C98.8833 125.738 98.4156 126.62 98.0623 127.616C97.7297 128.576 97.5427 129.584 97.5011 130.64L92.8869 133.304C92.8869 133.208 92.8869 133.112 92.8869 133.016C92.8869 131.24 93.2403 129.404 93.9469 127.508C94.6536 125.612 95.6721 123.848 97.0023 122.216C98.3325 120.584 99.8498 119.276 101.554 118.292C103.113 117.392 104.516 116.942 105.763 116.942C107.01 116.918 107.987 117.326 108.694 118.166C109.4 118.982 109.754 120.17 109.754 121.73C109.754 123.17 109.39 124.724 108.662 126.392C107.935 128.06 106.833 130.052 105.358 132.368L100.214 140.486L100.214 140.846L109.255 135.626L109.255 140.162L92.8246 149.648ZM112.097 138.521L112.097 135.209L121.357 120.395C121.419 120.287 121.481 120.179 121.544 120.071C121.627 119.951 121.7 119.837 121.762 119.729C122.635 118.313 123.258 117.185 123.632 116.345C124.027 115.493 124.225 114.671 124.225 113.879C124.225 113.159 124.069 112.601 123.757 112.205C123.445 111.785 123.03 111.557 122.51 111.521C121.99 111.485 121.409 111.653 120.764 112.025C120.016 112.457 119.34 113.063 118.738 113.843C118.156 114.611 117.688 115.493 117.335 116.489C117.002 117.449 116.815 118.457 116.774 119.513L112.159 122.177C112.159 122.081 112.159 121.985 112.159 121.889C112.159 120.113 112.513 118.277 113.219 116.381C113.926 114.485 114.945 112.721 116.275 111.089C117.605 109.457 119.122 108.149 120.827 107.165C122.385 106.265 123.788 105.815 125.035 105.815C126.283 105.791 127.259 106.199 127.966 107.039C128.673 107.855 129.026 109.043 129.026 110.603C129.026 112.043 128.662 113.597 127.935 115.265C127.207 116.933 126.106 118.925 124.63 121.241L119.486 129.359L119.486 129.719L128.527 124.499L128.527 129.035L112.097 138.521ZM131.369 127.395L131.369 124.083L140.629 109.269C140.691 109.161 140.754 109.053 140.816 108.945C140.899 108.825 140.972 108.711 141.034 108.603C141.907 107.187 142.531 106.059 142.905 105.219C143.3 104.367 143.497 103.545 143.497 102.753C143.497 102.033 143.341 101.475 143.03 101.079C142.718 100.659 142.302 100.431 141.783 100.395C141.263 100.359 140.681 100.527 140.037 100.899C139.288 101.331 138.613 101.937 138.01 102.717C137.428 103.485 136.961 104.367 136.607 105.363C136.275 106.323 136.088 107.331 136.046 108.387L131.432 111.051C131.432 110.955 131.432 110.859 131.432 110.763C131.432 108.987 131.785 107.151 132.492 105.255C133.199 103.359 134.217 101.595 135.547 99.9625C136.877 98.3305 138.395 97.0225 140.099 96.0385C141.658 95.1385 143.061 94.6885 144.308 94.6885C145.555 94.6645 146.532 95.0725 147.239 95.9125C147.945 96.7285 148.299 97.9165 148.299 99.4765C148.299 100.917 147.935 102.471 147.207 104.139C146.48 105.807 145.378 107.799 143.903 110.115L138.758 118.233L138.758 118.593L147.8 113.373L147.8 117.909L131.369 127.395Z" fill="black"/>
</svg>
