<svg width="256" height="256" viewBox="0 0 256 256" fill="none" xmlns="http://www.w3.org/2000/svg">
<path d="M154.461 100.267C154.461 122.064 139.159 148.568 120.282 159.467C101.405 170.365 86.1028 161.53 86.1028 139.733C86.1028 117.937 101.405 91.4318 120.282 80.5334C139.159 69.635 154.461 78.4699 154.461 100.267Z" fill="white" stroke="#1019EF" stroke-width="6.4"/>
<mask id="path-2-inside-1_787_1237" fill="white">
<path d="M120.132 132.533L164.934 106.667L164.934 137.067L120.132 162.933L120.132 132.533Z"/>
</mask>
<path d="M120.132 132.533L164.934 106.667L164.934 137.067L120.132 162.933L120.132 132.533Z" fill="white"/>
<path d="M164.934 106.667L170.477 103.467L170.477 97.0668L164.934 100.267L164.934 106.667ZM164.934 137.067L164.934 143.467L170.477 140.267L170.477 133.867L164.934 137.067ZM120.132 138.933L164.934 113.067L164.934 100.267L120.132 126.133L120.132 138.933ZM159.391 109.867L159.391 140.267L170.477 133.867L170.477 103.467L159.391 109.867ZM164.934 130.667L120.132 156.533L120.132 169.333L164.934 143.467L164.934 130.667Z" fill="#1019EF" mask="url(#path-2-inside-1_787_1237)"/>
<path d="M104.665 138.666L150.729 110.933L148.132 125.067L104.665 151.209L104.665 138.666Z" fill="white"/>
<path d="M101.366 144.717L101.366 125.961L101.023 126.159L95.9723 133.395L95.9723 127.491L102.083 118.671L106.417 116.169L106.417 141.801L101.366 144.717ZM118.345 135.598C116.703 136.546 115.206 136.99 113.855 136.93C112.525 136.834 111.465 136.282 110.675 135.274C109.906 134.23 109.49 132.79 109.428 130.954L114.229 128.182C114.229 129.166 114.406 129.94 114.759 130.504C115.113 131.068 115.591 131.404 116.193 131.512C116.817 131.584 117.513 131.398 118.282 130.954C119.031 130.522 119.696 129.958 120.278 129.262C120.86 128.566 121.317 127.81 121.649 126.994C121.982 126.154 122.148 125.338 122.148 124.546C122.148 123.754 121.972 123.136 121.618 122.692C121.286 122.236 120.818 122.002 120.215 121.99C119.633 121.942 118.979 122.128 118.251 122.548C117.939 122.728 117.607 122.968 117.253 123.268C116.9 123.544 116.609 123.808 116.38 124.06L115.258 121.288L119.81 113.332L119.81 112.972L110.831 118.156L110.831 113.62L126.201 104.746L126.201 108.238L120.932 117.508C122.096 117.052 123.135 116.944 124.05 117.184C124.985 117.388 125.713 117.928 126.232 118.804C126.773 119.644 127.043 120.748 127.043 122.116C127.043 123.724 126.669 125.392 125.921 127.12C125.193 128.812 124.164 130.414 122.834 131.926C121.504 133.414 120.007 134.638 118.345 135.598ZM131.069 127.568L138.458 102.494L128.419 108.29L128.419 103.466L144.288 94.3037L144.288 97.7957L136.432 124.472L131.069 127.568Z" fill="black"/>
</svg>
