<svg width="256" height="256" viewBox="0 0 256 256" fill="none" xmlns="http://www.w3.org/2000/svg">
<path d="M154.461 100.267C154.461 122.063 139.159 148.568 120.282 159.467C101.405 170.365 86.1028 161.53 86.1028 139.733C86.1028 117.936 101.405 91.4317 120.282 80.5333C139.159 69.6349 154.461 78.4698 154.461 100.267Z" fill="white" stroke="#1019EF" stroke-width="6.4"/>
<mask id="path-2-inside-1_787_643" fill="white">
<path d="M120.132 132.533L164.934 106.667L164.934 137.067L120.132 162.933L120.132 132.533Z"/>
</mask>
<path d="M120.132 132.533L164.934 106.667L164.934 137.067L120.132 162.933L120.132 132.533Z" fill="white"/>
<path d="M164.934 106.667L170.477 103.467L170.477 97.0665L164.934 100.267L164.934 106.667ZM164.934 137.067L164.934 143.467L170.477 140.267L170.477 133.867L164.934 137.067ZM120.132 138.933L164.934 113.067L164.934 100.267L120.132 126.133L120.132 138.933ZM159.391 109.867L159.391 140.267L170.477 133.867L170.477 103.467L159.391 109.867ZM164.934 130.667L120.132 156.533L120.132 169.333L164.934 143.467L164.934 130.667Z" fill="#1019EF" mask="url(#path-2-inside-1_787_643)"/>
<path d="M104.665 138.665L150.729 110.933L148.132 125.067L104.665 151.209L104.665 138.665Z" fill="white"/>
<path d="M107.873 147.456C105.44 148.861 103.223 149.518 101.222 149.43C99.251 149.287 97.6806 148.47 96.5105 146.976C95.3712 145.43 94.7554 143.296 94.663 140.576L101.776 136.47C101.776 137.927 102.038 139.074 102.561 139.91C103.085 140.745 103.793 141.243 104.686 141.403C105.61 141.51 106.641 141.234 107.78 140.576C108.889 139.936 109.874 139.101 110.736 138.07C111.599 137.038 112.276 135.918 112.769 134.71C113.261 133.465 113.508 132.256 113.508 131.083C113.508 129.91 113.246 128.994 112.723 128.336C112.23 127.661 111.537 127.314 110.644 127.296C109.782 127.225 108.812 127.501 107.734 128.123C107.272 128.39 106.78 128.745 106.256 129.19C105.733 129.598 105.302 129.99 104.963 130.363L103.3 126.256L110.044 114.47L110.044 113.936L96.7415 121.616L96.7415 114.896L119.512 101.75L119.512 106.923L111.706 120.656C113.431 119.981 114.97 119.821 116.325 120.176C117.711 120.478 118.789 121.278 119.558 122.576C120.359 123.821 120.759 125.456 120.759 127.483C120.759 129.865 120.205 132.336 119.096 134.896C118.019 137.403 116.495 139.776 114.524 142.016C112.553 144.221 110.336 146.034 107.873 147.456ZM136.747 130.786C134.314 132.19 132.113 132.857 130.142 132.786C128.171 132.679 126.601 131.879 125.431 130.386C124.261 128.893 123.629 126.821 123.537 124.173L130.65 120.066C130.65 121.417 130.912 122.493 131.435 123.293C131.989 124.075 132.713 124.546 133.606 124.706C134.53 124.813 135.546 124.546 136.654 123.906C137.763 123.266 138.748 122.43 139.61 121.399C140.503 120.35 141.196 119.204 141.689 117.959C142.182 116.715 142.428 115.524 142.428 114.386C142.428 113.141 142.166 112.19 141.643 111.533C141.119 110.875 140.365 110.564 139.379 110.599C138.394 110.635 137.239 111.035 135.915 111.799L126.124 117.453L127.648 97.0525L147.093 85.8259L147.093 92.5459L133.236 100.546L132.636 107.719L137.901 104.679C140.211 103.346 142.243 102.706 143.998 102.759C145.784 102.795 147.17 103.488 148.155 104.839C149.141 106.155 149.633 108.021 149.633 110.439C149.633 112.893 149.079 115.417 147.97 118.013C146.862 120.608 145.322 123.044 143.352 125.319C141.412 127.541 139.21 129.364 136.747 130.786Z" fill="black"/>
</svg>
