<svg width="256" height="256" viewBox="0 0 256 256" fill="none" xmlns="http://www.w3.org/2000/svg">
<path d="M154.461 100.267C154.461 122.063 139.159 148.568 120.282 159.467C101.405 170.365 86.1028 161.53 86.1028 139.733C86.1028 117.936 101.405 91.4317 120.282 80.5333C139.159 69.6349 154.461 78.4698 154.461 100.267Z" fill="white" stroke="#1019EF" stroke-width="6.4"/>
<mask id="path-2-inside-1_787_373" fill="white">
<path d="M120.132 132.533L164.934 106.667L164.934 137.067L120.132 162.933L120.132 132.533Z"/>
</mask>
<path d="M120.132 132.533L164.934 106.667L164.934 137.067L120.132 162.933L120.132 132.533Z" fill="white"/>
<path d="M164.934 106.667L170.477 103.467L170.477 97.0666L164.934 100.267L164.934 106.667ZM164.934 137.067L164.934 143.467L170.477 140.267L170.477 133.867L164.934 137.067ZM120.132 138.933L164.934 113.067L164.934 100.267L120.132 126.133L120.132 138.933ZM159.391 109.867L159.391 140.267L170.477 133.867L170.477 103.467L159.391 109.867ZM164.934 130.667L120.132 156.533L120.132 169.333L164.934 143.467L164.934 130.667Z" fill="#1019EF" mask="url(#path-2-inside-1_787_373)"/>
<path d="M104.665 138.665L150.729 110.933L148.132 125.067L104.665 151.209L104.665 138.665Z" fill="white"/>
<path d="M122.015 139.291C119.583 140.696 117.381 141.362 115.41 141.291C113.44 141.184 111.869 140.384 110.699 138.891C109.529 137.398 108.898 135.327 108.806 132.678L115.919 128.571C115.919 129.922 116.18 130.998 116.704 131.798C117.258 132.58 117.982 133.051 118.875 133.211C119.798 133.318 120.814 133.051 121.923 132.411C123.032 131.771 124.017 130.936 124.879 129.904C125.772 128.856 126.465 127.709 126.957 126.464C127.45 125.22 127.696 124.029 127.696 122.891C127.696 121.647 127.435 120.696 126.911 120.038C126.388 119.38 125.633 119.069 124.648 119.104C123.663 119.14 122.508 119.54 121.184 120.304L111.392 125.958L112.916 105.558L132.361 94.3311L132.361 101.051L118.505 109.051L117.905 116.224L123.17 113.184C125.479 111.851 127.512 111.211 129.267 111.264C131.053 111.3 132.438 111.993 133.424 113.344C134.409 114.66 134.902 116.527 134.902 118.944C134.902 121.398 134.348 123.922 133.239 126.518C132.131 129.113 130.591 131.549 128.62 133.824C126.68 136.047 124.479 137.869 122.015 139.291Z" fill="black"/>
</svg>
