<svg width="256" height="256" viewBox="0 0 256 256" fill="none" xmlns="http://www.w3.org/2000/svg">
<path d="M154.461 100.267C154.461 122.064 139.159 148.568 120.282 159.467C101.405 170.365 86.1028 161.53 86.1028 139.733C86.1028 117.937 101.405 91.4318 120.282 80.5334C139.159 69.635 154.461 78.4699 154.461 100.267Z" fill="white" stroke="#1019EF" stroke-width="6.4"/>
<mask id="path-2-inside-1_787_1209" fill="white">
<path d="M120.132 132.533L164.934 106.667L164.934 137.067L120.132 162.933L120.132 132.533Z"/>
</mask>
<path d="M120.132 132.533L164.934 106.667L164.934 137.067L120.132 162.933L120.132 132.533Z" fill="white"/>
<path d="M164.934 106.667L170.477 103.467L170.477 97.0668L164.934 100.267L164.934 106.667ZM164.934 137.067L164.934 143.467L170.477 140.267L170.477 133.867L164.934 137.067ZM120.132 138.933L164.934 113.067L164.934 100.267L120.132 126.133L120.132 138.933ZM159.391 109.867L159.391 140.267L170.477 133.867L170.477 103.467L159.391 109.867ZM164.934 130.667L120.132 156.533L120.132 169.333L164.934 143.467L164.934 130.667Z" fill="#1019EF" mask="url(#path-2-inside-1_787_1209)"/>
<path d="M104.665 138.666L150.729 110.933L148.132 125.067L104.665 151.209L104.665 138.666Z" fill="white"/>
<path d="M97.8646 146.738L97.8646 127.982L97.5216 128.18L92.471 135.416L92.471 129.512L98.5816 120.692L102.915 118.19L102.915 143.822L97.8646 146.738ZM116.589 136.612C114.615 137.752 112.858 138.202 111.32 137.962C109.803 137.686 108.618 136.774 107.766 135.226C106.914 133.654 106.488 131.56 106.488 128.944C106.488 126.328 106.914 123.754 107.766 121.222C108.618 118.666 109.803 116.386 111.32 114.382C112.858 112.342 114.615 110.752 116.589 109.612C118.543 108.484 120.289 108.052 121.827 108.316C123.365 108.556 124.56 109.462 125.412 111.034C126.264 112.582 126.691 114.664 126.691 117.28C126.691 119.896 126.264 122.482 125.412 125.038C124.56 127.57 123.365 129.856 121.827 131.896C120.289 133.912 118.543 135.484 116.589 136.612ZM116.589 131.464C117.566 130.9 118.418 130.06 119.146 128.944C119.894 127.816 120.476 126.496 120.892 124.984C121.307 123.472 121.515 121.9 121.515 120.268C121.515 118.636 121.307 117.304 120.892 116.272C120.476 115.24 119.894 114.592 119.146 114.328C118.418 114.052 117.566 114.196 116.589 114.76C115.612 115.324 114.75 116.17 114.002 117.298C113.253 118.426 112.671 119.746 112.256 121.258C111.861 122.758 111.663 124.324 111.663 125.956C111.663 127.588 111.861 128.926 112.256 129.97C112.671 131.002 113.253 131.65 114.002 131.914C114.75 132.178 115.612 132.028 116.589 131.464ZM138.237 97.1134C139.983 96.1054 141.531 95.5954 142.882 95.5834C144.254 95.5354 145.314 95.9674 146.062 96.8794C146.831 97.7794 147.216 99.0694 147.216 100.749C147.216 101.781 147.018 102.987 146.624 104.367C146.229 105.747 145.667 107.235 144.94 108.831L138.237 123.393L132.5 126.705L138.362 114.105C138.008 114.429 137.655 114.729 137.302 115.005C136.969 115.245 136.647 115.455 136.335 115.635C134.922 116.451 133.664 116.829 132.563 116.769C131.482 116.697 130.63 116.217 130.006 115.329C129.383 114.417 129.071 113.169 129.071 111.585C129.071 109.785 129.455 107.967 130.224 106.131C131.014 104.283 132.095 102.579 133.467 101.019C134.859 99.4474 136.449 98.1454 138.237 97.1134ZM138.081 102.027C137.354 102.447 136.699 103.005 136.117 103.701C135.535 104.397 135.078 105.177 134.745 106.041C134.413 106.881 134.246 107.733 134.246 108.597C134.246 109.437 134.413 110.085 134.745 110.541C135.078 110.973 135.535 111.213 136.117 111.261C136.699 111.285 137.354 111.087 138.081 110.667C138.829 110.235 139.505 109.665 140.108 108.957C140.731 108.237 141.209 107.457 141.542 106.617C141.874 105.777 142.041 104.937 142.041 104.097C142.041 103.233 141.874 102.561 141.542 102.081C141.209 101.601 140.731 101.373 140.108 101.397C139.505 101.385 138.829 101.595 138.081 102.027Z" fill="black"/>
</svg>
