<svg width="256" height="256" viewBox="0 0 256 256" fill="none" xmlns="http://www.w3.org/2000/svg">
<path d="M154.461 100.267C154.461 122.064 139.159 148.568 120.282 159.467C101.405 170.365 86.1028 161.53 86.1028 139.733C86.1028 117.937 101.405 91.4318 120.282 80.5334C139.159 69.635 154.461 78.4699 154.461 100.267Z" fill="white" stroke="#1019EF" stroke-width="6.4"/>
<mask id="path-2-inside-1_787_800" fill="white">
<path d="M120.132 132.533L164.934 106.667L164.934 137.067L120.132 162.933L120.132 132.533Z"/>
</mask>
<path d="M120.132 132.533L164.934 106.667L164.934 137.067L120.132 162.933L120.132 132.533Z" fill="white"/>
<path d="M164.934 106.667L170.477 103.467L170.477 97.0668L164.934 100.267L164.934 106.667ZM164.934 137.067L164.934 143.467L170.477 140.267L170.477 133.867L164.934 137.067ZM120.132 138.933L164.934 113.067L164.934 100.267L120.132 126.133L120.132 138.933ZM159.392 109.867L159.392 140.267L170.477 133.867L170.477 103.467L159.392 109.867ZM164.934 130.667L120.132 156.533L120.132 169.333L164.934 143.467L164.934 130.667Z" fill="#1019EF" mask="url(#path-2-inside-1_787_800)"/>
<path d="M104.665 138.666L150.729 110.933L148.132 125.067L104.665 151.209L104.665 138.666Z" fill="white"/>
<path d="M108.097 147.273C105.388 148.838 103.017 149.744 100.984 149.993C98.9828 150.189 97.4124 149.762 96.2731 148.713C95.1646 147.647 94.6103 146.011 94.6103 143.807C94.6103 141.424 95.2108 139.051 96.4117 136.687C97.6125 134.322 99.1521 132.331 101.03 130.713L101.03 130.18C99.5524 130.358 98.3362 130.011 97.3816 129.14C96.4578 128.215 95.996 126.775 95.996 124.82C95.996 122.722 96.4886 120.589 97.474 118.42C98.4901 116.233 99.9065 114.189 101.723 112.287C103.571 110.367 105.695 108.713 108.097 107.327C110.437 105.975 112.516 105.22 114.333 105.06C116.149 104.9 117.566 105.327 118.582 106.34C119.629 107.3 120.152 108.811 120.152 110.873C120.152 112.829 119.675 114.811 118.72 116.82C117.797 118.775 116.58 120.527 115.072 122.073L115.072 122.607C116.981 122.038 118.536 122.242 119.737 123.22C120.937 124.198 121.538 125.878 121.538 128.26C121.538 130.464 120.968 132.749 119.829 135.113C118.72 137.46 117.15 139.7 115.118 141.833C113.086 143.931 110.745 145.744 108.097 147.273ZM108.097 123.753C109.021 123.22 109.852 122.544 110.591 121.727C111.361 120.855 111.962 119.94 112.393 118.98C112.824 117.984 113.039 117.024 113.039 116.1C113.039 115.211 112.824 114.535 112.393 114.073C111.962 113.575 111.361 113.353 110.591 113.407C109.852 113.407 109.021 113.673 108.097 114.207C107.112 114.775 106.234 115.495 105.465 116.367C104.725 117.184 104.14 118.091 103.709 119.087C103.309 120.029 103.109 120.944 103.109 121.833C103.109 122.758 103.309 123.478 103.709 123.993C104.14 124.455 104.741 124.678 105.511 124.66C106.28 124.607 107.143 124.304 108.097 123.753ZM108.097 140.34C109.113 139.753 110.053 138.998 110.915 138.073C111.777 137.113 112.439 136.091 112.901 135.007C113.363 133.887 113.594 132.811 113.594 131.78C113.594 130.713 113.347 129.913 112.855 129.38C112.393 128.829 111.731 128.571 110.869 128.607C110.037 128.624 109.113 128.927 108.097 129.513C107.02 130.135 106.065 130.918 105.234 131.86C104.402 132.802 103.74 133.824 103.247 134.927C102.786 136.011 102.555 137.087 102.555 138.153C102.555 139.184 102.786 139.993 103.247 140.58C103.74 141.113 104.402 141.371 105.234 141.353C106.065 141.3 107.02 140.962 108.097 140.34ZM125.422 136.311L125.422 131.404L139.14 109.458C139.232 109.298 139.324 109.138 139.417 108.978C139.54 108.8 139.648 108.631 139.74 108.471C141.033 106.373 141.957 104.702 142.511 103.458C143.096 102.195 143.389 100.978 143.389 99.8043C143.389 98.7376 143.158 97.911 142.696 97.3243C142.234 96.7021 141.618 96.3643 140.848 96.311C140.079 96.2576 139.217 96.5065 138.262 97.0576C137.153 97.6976 136.153 98.5954 135.26 99.751C134.398 100.889 133.705 102.195 133.181 103.671C132.689 105.093 132.411 106.587 132.35 108.151L125.514 112.098C125.514 111.955 125.514 111.813 125.514 111.671C125.514 109.04 126.038 106.32 127.084 103.511C128.131 100.702 129.64 98.0887 131.611 95.671C133.582 93.2532 135.829 91.3154 138.354 89.8576C140.664 88.5243 142.742 87.8576 144.59 87.8576C146.437 87.8221 147.884 88.4265 148.931 89.671C149.978 90.8798 150.502 92.6398 150.502 94.951C150.502 97.0843 149.963 99.3865 148.885 101.858C147.807 104.329 146.175 107.28 143.989 110.711L136.368 122.738L136.368 123.271L149.763 115.538L149.763 122.258L125.422 136.311Z" fill="black"/>
</svg>
