<svg width="256" height="256" viewBox="0 0 256 256" fill="none" xmlns="http://www.w3.org/2000/svg">
<path d="M154.461 100.267C154.461 122.063 139.159 148.568 120.282 159.467C101.405 170.365 86.1028 161.53 86.1028 139.733C86.1028 117.936 101.405 91.4317 120.282 80.5333C139.159 69.6349 154.461 78.4698 154.461 100.267Z" fill="white" stroke="#1019EF" stroke-width="6.4"/>
<mask id="path-2-inside-1_787_607" fill="white">
<path d="M120.132 132.533L164.934 106.667L164.934 137.067L120.132 162.933L120.132 132.533Z"/>
</mask>
<path d="M120.132 132.533L164.934 106.667L164.934 137.067L120.132 162.933L120.132 132.533Z" fill="white"/>
<path d="M164.934 106.667L170.477 103.467L170.477 97.0665L164.934 100.267L164.934 106.667ZM164.934 137.067L164.934 143.467L170.477 140.267L170.477 133.867L164.934 137.067ZM120.132 138.933L164.934 113.067L164.934 100.267L120.132 126.133L120.132 138.933ZM159.392 109.867L159.392 140.267L170.477 133.867L170.477 103.467L159.392 109.867ZM164.934 130.667L120.132 156.533L120.132 169.333L164.934 143.467L164.934 130.667Z" fill="#1019EF" mask="url(#path-2-inside-1_787_607)"/>
<path d="M104.665 138.665L150.729 110.933L148.132 125.067L104.665 151.209L104.665 138.665Z" fill="white"/>
<path d="M112.451 144.813C110.018 146.217 107.801 146.875 105.8 146.786C103.829 146.644 102.259 145.826 101.089 144.333C99.9494 142.786 99.3335 140.653 99.2412 137.933L106.354 133.826C106.354 135.284 106.616 136.431 107.139 137.266C107.663 138.102 108.371 138.6 109.264 138.76C110.188 138.866 111.219 138.591 112.359 137.933C113.467 137.293 114.452 136.457 115.315 135.426C116.177 134.395 116.854 133.275 117.347 132.066C117.84 130.822 118.086 129.613 118.086 128.44C118.086 127.266 117.824 126.351 117.301 125.693C116.808 125.017 116.115 124.671 115.222 124.653C114.36 124.582 113.39 124.857 112.312 125.48C111.85 125.746 111.358 126.102 110.834 126.546C110.311 126.955 109.88 127.346 109.541 127.72L107.878 123.613L114.622 111.826L114.622 111.293L101.32 118.973L101.32 112.253L124.09 99.1064L124.09 104.28L116.285 118.013C118.009 117.337 119.548 117.177 120.903 117.533C122.289 117.835 123.367 118.635 124.137 119.933C124.937 121.177 125.337 122.813 125.337 124.84C125.337 127.222 124.783 129.693 123.675 132.253C122.597 134.76 121.073 137.133 119.102 139.373C117.131 141.577 114.914 143.391 112.451 144.813ZM135.921 130.249L135.921 102.463L135.413 102.756L127.93 113.476L127.93 104.729L136.983 91.6626L143.403 87.956L143.403 125.929L135.921 130.249Z" fill="black"/>
</svg>
