<svg width="256" height="256" viewBox="0 0 256 256" fill="none" xmlns="http://www.w3.org/2000/svg">
<path d="M154.461 100.267C154.461 122.064 139.159 148.568 120.282 159.467C101.405 170.365 86.1028 161.53 86.1028 139.733C86.1028 117.937 101.405 91.4318 120.282 80.5334C139.159 69.6349 154.461 78.4698 154.461 100.267Z" fill="white" stroke="#1019EF" stroke-width="6.4"/>
<mask id="path-2-inside-1_787_445" fill="white">
<path d="M120.132 132.533L164.934 106.667L164.934 137.067L120.132 162.933L120.132 132.533Z"/>
</mask>
<path d="M120.132 132.533L164.934 106.667L164.934 137.067L120.132 162.933L120.132 132.533Z" fill="white"/>
<path d="M164.934 106.667L170.477 103.467L170.477 97.0666L164.934 100.267L164.934 106.667ZM164.934 137.067L164.934 143.467L170.477 140.267L170.477 133.867L164.934 137.067ZM120.132 138.933L164.934 113.067L164.934 100.267L120.132 126.133L120.132 138.933ZM159.392 109.867L159.392 140.267L170.477 133.867L170.477 103.467L159.392 109.867ZM164.934 130.667L120.132 156.533L120.132 169.333L164.934 143.467L164.934 130.667Z" fill="#1019EF" mask="url(#path-2-inside-1_787_445)"/>
<path d="M104.665 138.665L150.729 110.933L148.132 125.067L104.665 151.209L104.665 138.665Z" fill="white"/>
<path d="M107.324 146.76L107.324 118.973L106.816 119.266L99.3335 129.986L99.3335 121.24L108.386 108.173L114.807 104.466L114.807 142.44L107.324 146.76ZM132.478 133.251C130.045 134.655 127.828 135.313 125.827 135.224C123.856 135.082 122.286 134.264 121.116 132.771C119.976 131.224 119.36 129.091 119.268 126.371L126.381 122.264C126.381 123.722 126.643 124.868 127.166 125.704C127.69 126.539 128.398 127.037 129.291 127.197C130.215 127.304 131.246 127.028 132.385 126.371C133.494 125.731 134.479 124.895 135.341 123.864C136.204 122.833 136.881 121.713 137.374 120.504C137.866 119.259 138.113 118.051 138.113 116.877C138.113 115.704 137.851 114.788 137.328 114.131C136.835 113.455 136.142 113.108 135.249 113.091C134.387 113.019 133.417 113.295 132.339 113.917C131.877 114.184 131.385 114.539 130.861 114.984C130.338 115.393 129.907 115.784 129.568 116.157L127.905 112.051L134.649 100.264L134.649 99.7305L121.346 107.411L121.346 100.691L144.117 87.5439L144.117 92.7172L136.311 106.451C138.036 105.775 139.575 105.615 140.93 105.971C142.316 106.273 143.394 107.073 144.163 108.371C144.964 109.615 145.364 111.251 145.364 113.277C145.364 115.659 144.81 118.131 143.701 120.691C142.624 123.197 141.1 125.571 139.129 127.811C137.158 130.015 134.941 131.828 132.478 133.251Z" fill="black"/>
</svg>
