<svg width="256" height="256" viewBox="0 0 256 256" fill="none" xmlns="http://www.w3.org/2000/svg">
<path d="M154.461 100.267C154.461 122.064 139.159 148.568 120.282 159.467C101.405 170.365 86.1028 161.53 86.1028 139.733C86.1028 117.937 101.405 91.4318 120.282 80.5334C139.159 69.635 154.461 78.4699 154.461 100.267Z" fill="white" stroke="#1019EF" stroke-width="6.4"/>
<mask id="path-2-inside-1_787_1630" fill="white">
<path d="M120.132 132.533L164.934 106.667L164.934 137.067L120.132 162.933L120.132 132.533Z"/>
</mask>
<path d="M120.132 132.533L164.934 106.667L164.934 137.067L120.132 162.933L120.132 132.533Z" fill="white"/>
<path d="M164.934 106.667L170.477 103.467L170.477 97.0668L164.934 100.267L164.934 106.667ZM164.934 137.067L164.934 143.467L170.477 140.267L170.477 133.867L164.934 137.067ZM120.132 138.933L164.934 113.067L164.934 100.267L120.132 126.133L120.132 138.933ZM159.391 109.867L159.391 140.267L170.477 133.867L170.477 103.467L159.391 109.867ZM164.934 130.667L120.132 156.533L120.132 169.333L164.934 143.467L164.934 130.667Z" fill="#1019EF" mask="url(#path-2-inside-1_787_1630)"/>
<path d="M104.665 138.666L150.729 110.933L148.132 125.067L104.665 151.209L104.665 138.666Z" fill="white"/>
<path d="M99.5458 145.768L99.5458 127.012L99.2028 127.21L94.1522 134.446L94.1522 128.542L100.263 119.722L104.596 117.22L104.596 142.852L99.5458 145.768ZM117.99 135.119L117.99 129.827L107.358 135.965L107.358 132.689L115.807 110.747L123.165 106.499L123.165 122.339L125.753 120.845L125.753 125.345L123.165 126.839L123.165 132.131L117.99 135.119ZM112.378 128.567L117.959 125.345L117.959 114.473L117.647 114.653L112.378 128.567ZM137.121 124.722C135.292 125.778 133.691 126.39 132.32 126.558C130.969 126.69 129.908 126.402 129.139 125.694C128.391 124.974 128.017 123.87 128.017 122.382C128.017 120.774 128.422 119.172 129.233 117.576C130.044 115.98 131.083 114.636 132.351 113.544L132.351 113.184C131.353 113.304 130.532 113.07 129.888 112.482C129.264 111.858 128.952 110.886 128.952 109.566C128.952 108.15 129.285 106.71 129.95 105.246C130.636 103.77 131.592 102.39 132.818 101.106C134.065 99.8098 135.5 98.6938 137.121 97.7578C138.7 96.8458 140.103 96.3358 141.33 96.2278C142.556 96.1198 143.512 96.4078 144.198 97.0918C144.905 97.7398 145.258 98.7598 145.258 100.152C145.258 101.472 144.936 102.81 144.291 104.166C143.668 105.486 142.847 106.668 141.828 107.712L141.828 108.072C143.117 107.688 144.167 107.826 144.977 108.486C145.788 109.146 146.193 110.28 146.193 111.888C146.193 113.376 145.809 114.918 145.04 116.514C144.291 118.098 143.231 119.61 141.86 121.05C140.488 122.466 138.908 123.69 137.121 124.722ZM137.121 108.846C137.744 108.486 138.305 108.03 138.804 107.478C139.324 106.89 139.729 106.272 140.02 105.624C140.311 104.952 140.457 104.304 140.457 103.68C140.457 103.08 140.311 102.624 140.02 102.312C139.729 101.976 139.324 101.826 138.804 101.862C138.305 101.862 137.744 102.042 137.121 102.402C136.456 102.786 135.863 103.272 135.344 103.86C134.845 104.412 134.45 105.024 134.159 105.696C133.889 106.332 133.754 106.95 133.754 107.55C133.754 108.174 133.889 108.66 134.159 109.008C134.45 109.32 134.855 109.47 135.375 109.458C135.894 109.422 136.476 109.218 137.121 108.846ZM137.121 120.042C137.807 119.646 138.441 119.136 139.023 118.512C139.605 117.864 140.051 117.174 140.363 116.442C140.675 115.686 140.831 114.96 140.831 114.264C140.831 113.544 140.665 113.004 140.332 112.644C140.02 112.272 139.573 112.098 138.991 112.122C138.43 112.134 137.807 112.338 137.121 112.734C136.393 113.154 135.749 113.682 135.188 114.318C134.627 114.954 134.18 115.644 133.847 116.388C133.535 117.12 133.38 117.846 133.38 118.566C133.38 119.262 133.535 119.808 133.847 120.204C134.18 120.564 134.627 120.738 135.188 120.726C135.749 120.69 136.393 120.462 137.121 120.042Z" fill="black"/>
</svg>
