<svg width="256" height="256" viewBox="0 0 256 256" fill="none" xmlns="http://www.w3.org/2000/svg">
<path d="M154.461 100.267C154.461 122.063 139.159 148.568 120.282 159.467C101.405 170.365 86.1028 161.53 86.1028 139.733C86.1028 117.936 101.405 91.4317 120.282 80.5333C139.159 69.6349 154.461 78.4698 154.461 100.267Z" fill="white" stroke="#1019EF" stroke-width="6.4"/>
<mask id="path-2-inside-1_787_724" fill="white">
<path d="M120.132 132.533L164.934 106.667L164.934 137.067L120.132 162.933L120.132 132.533Z"/>
</mask>
<path d="M120.132 132.533L164.934 106.667L164.934 137.067L120.132 162.933L120.132 132.533Z" fill="white"/>
<path d="M164.934 106.667L170.477 103.467L170.477 97.0665L164.934 100.267L164.934 106.667ZM164.934 137.067L164.934 143.467L170.477 140.267L170.477 133.867L164.934 137.067ZM120.132 138.933L164.934 113.067L164.934 100.267L120.132 126.133L120.132 138.933ZM159.391 109.867L159.391 140.267L170.477 133.867L170.477 103.467L159.391 109.867ZM164.934 130.667L120.132 156.533L120.132 169.333L164.934 143.467L164.934 130.667Z" fill="#1019EF" mask="url(#path-2-inside-1_787_724)"/>
<path d="M104.665 138.665L150.729 110.933L148.132 125.067L104.665 151.209L104.665 138.665Z" fill="white"/>
<path d="M109.345 145.593L109.345 137.753L93.5944 146.847L93.5944 141.993L106.111 109.487L117.012 103.193L117.012 126.66L120.845 124.447L120.845 131.113L117.012 133.327L117.012 141.167L109.345 145.593ZM101.031 135.887L109.298 131.113L109.298 115.007L108.836 115.273L101.031 135.887ZM138.934 128.51L138.934 120.67L123.184 129.763L123.184 124.91L135.701 92.4033L146.601 86.1099L146.601 109.577L150.435 107.363L150.435 114.03L146.601 116.243L146.601 124.083L138.934 128.51ZM130.62 118.803L138.888 114.03L138.888 97.9233L138.426 98.1899L130.62 118.803Z" fill="black"/>
</svg>
