<svg width="256" height="256" viewBox="0 0 256 256" fill="none" xmlns="http://www.w3.org/2000/svg">
<path d="M154.461 100.267C154.461 122.063 139.159 148.568 120.282 159.467C101.405 170.365 86.1028 161.53 86.1028 139.733C86.1028 117.936 101.405 91.4317 120.282 80.5333C139.159 69.6349 154.461 78.4698 154.461 100.267Z" fill="white" stroke="#1019EF" stroke-width="6.4"/>
<mask id="path-2-inside-1_787_784" fill="white">
<path d="M120.132 132.533L164.934 106.667L164.934 137.067L120.132 162.933L120.132 132.533Z"/>
</mask>
<path d="M120.132 132.533L164.934 106.667L164.934 137.067L120.132 162.933L120.132 132.533Z" fill="white"/>
<path d="M164.934 106.667L170.477 103.467L170.477 97.0665L164.934 100.267L164.934 106.667ZM164.934 137.067L164.934 143.467L170.477 140.267L170.477 133.867L164.934 137.067ZM120.132 138.933L164.934 113.067L164.934 100.267L120.132 126.133L120.132 138.933ZM159.391 109.867L159.391 140.267L170.477 133.867L170.477 103.467L159.391 109.867ZM164.934 130.667L120.132 156.533L120.132 169.333L164.934 143.467L164.934 130.667Z" fill="#1019EF" mask="url(#path-2-inside-1_787_784)"/>
<path d="M104.665 138.665L150.729 110.933L148.132 125.067L104.665 151.209L104.665 138.665Z" fill="white"/>
<path d="M106.796 148.078C104.21 149.571 101.901 150.353 99.8682 150.424C97.8668 150.442 96.2964 149.784 95.1571 148.451C94.0486 147.1 93.4943 145.162 93.4943 142.638C93.4943 141.109 93.7868 139.322 94.3719 137.278C94.9569 135.233 95.8037 133.02 96.9122 130.638L106.796 109.091L115.295 104.184L106.612 122.851C107.135 122.371 107.643 121.953 108.136 121.598C108.659 121.189 109.152 120.851 109.614 120.584C111.708 119.375 113.555 118.842 115.156 118.984C116.788 119.073 118.066 119.775 118.99 121.091C119.914 122.407 120.376 124.255 120.376 126.638C120.376 129.304 119.791 132.007 118.621 134.744C117.481 137.464 115.88 139.989 113.817 142.318C111.785 144.629 109.445 146.549 106.796 148.078ZM107.027 140.798C108.136 140.158 109.121 139.322 109.983 138.291C110.846 137.224 111.508 136.078 111.969 134.851C112.462 133.571 112.709 132.291 112.709 131.011C112.709 129.767 112.462 128.824 111.969 128.184C111.508 127.491 110.846 127.127 109.983 127.091C109.121 127.055 108.136 127.358 107.027 127.998C105.919 128.638 104.903 129.491 103.979 130.558C103.086 131.571 102.393 132.7 101.901 133.944C101.408 135.189 101.162 136.433 101.162 137.678C101.162 138.958 101.408 139.953 101.901 140.664C102.393 141.375 103.086 141.74 103.979 141.758C104.903 141.758 105.919 141.438 107.027 140.798ZM136.792 130.76C134.205 132.253 131.896 133.035 129.863 133.107C127.862 133.124 126.292 132.467 125.152 131.133C124.044 129.782 123.489 127.844 123.489 125.32C123.489 123.791 123.782 122.004 124.367 119.96C124.952 117.915 125.799 115.702 126.907 113.32L136.792 91.7733L145.29 86.8666L136.607 105.533C137.13 105.053 137.638 104.635 138.131 104.28C138.654 103.871 139.147 103.533 139.609 103.267C141.703 102.058 143.55 101.524 145.152 101.667C146.784 101.755 148.061 102.458 148.985 103.773C149.909 105.089 150.371 106.938 150.371 109.32C150.371 111.987 149.786 114.689 148.616 117.427C147.476 120.147 145.875 122.671 143.812 125C141.78 127.311 139.44 129.231 136.792 130.76ZM137.023 123.48C138.131 122.84 139.116 122.004 139.979 120.973C140.841 119.907 141.503 118.76 141.965 117.533C142.457 116.253 142.704 114.973 142.704 113.693C142.704 112.449 142.457 111.507 141.965 110.867C141.503 110.173 140.841 109.809 139.979 109.773C139.116 109.738 138.131 110.04 137.023 110.68C135.914 111.32 134.898 112.173 133.974 113.24C133.081 114.253 132.388 115.382 131.896 116.627C131.403 117.871 131.157 119.115 131.157 120.36C131.157 121.64 131.403 122.635 131.896 123.347C132.388 124.058 133.081 124.422 133.974 124.44C134.898 124.44 135.914 124.12 137.023 123.48Z" fill="black"/>
</svg>
