<svg width="256" height="256" viewBox="0 0 256 256" fill="none" xmlns="http://www.w3.org/2000/svg">
<path d="M154.461 100.267C154.461 122.063 139.159 148.568 120.282 159.467C101.405 170.365 86.1028 161.53 86.1028 139.733C86.1028 117.936 101.405 91.4316 120.282 80.5332C139.159 69.6348 154.461 78.4697 154.461 100.267Z" fill="white" stroke="#1019EF" stroke-width="6.4"/>
<mask id="path-2-inside-1_787_2090" fill="white">
<path d="M120.132 132.533L164.934 106.667L164.934 137.067L120.132 162.933L120.132 132.533Z"/>
</mask>
<path d="M120.132 132.533L164.934 106.667L164.934 137.067L120.132 162.933L120.132 132.533Z" fill="white"/>
<path d="M164.934 106.667L170.477 103.467L170.477 97.0665L164.934 100.267L164.934 106.667ZM164.934 137.067L164.934 143.467L170.477 140.267L170.477 133.867L164.934 137.067ZM120.132 138.933L164.934 113.067L164.934 100.267L120.132 126.133L120.132 138.933ZM159.391 109.867L159.391 140.267L170.477 133.867L170.477 103.467L159.391 109.867ZM164.934 130.667L120.132 156.533L120.132 169.333L164.934 143.467L164.934 130.667Z" fill="#1019EF" mask="url(#path-2-inside-1_787_2090)"/>
<path d="M104.665 138.665L150.729 110.933L148.132 125.066L104.665 151.208L104.665 138.665Z" fill="white"/>
<path d="M91.9042 150.18L91.9042 146.868L101.164 132.054C101.226 131.946 101.288 131.838 101.351 131.73C101.434 131.61 101.507 131.496 101.569 131.388C102.442 129.972 103.066 128.844 103.44 128.004C103.835 127.152 104.032 126.33 104.032 125.538C104.032 124.818 103.876 124.26 103.564 123.864C103.253 123.444 102.837 123.216 102.317 123.18C101.798 123.144 101.216 123.312 100.571 123.684C99.8232 124.116 99.1477 124.722 98.5449 125.502C97.9629 126.27 97.4953 127.152 97.142 128.148C96.8094 129.108 96.6223 130.116 96.5808 131.172L91.9666 133.836C91.9666 133.74 91.9666 133.644 91.9666 133.548C91.9666 131.772 92.3199 129.936 93.0266 128.04C93.7333 126.144 94.7517 124.38 96.0819 122.748C97.4122 121.116 98.9294 119.808 100.634 118.824C102.193 117.924 103.596 117.474 104.843 117.474C106.09 117.45 107.067 117.858 107.773 118.698C108.48 119.514 108.833 120.702 108.833 122.262C108.833 123.702 108.47 125.256 107.742 126.924C107.015 128.592 105.913 130.584 104.437 132.9L99.2932 141.018L99.2932 141.378L108.334 136.158L108.334 140.694L91.9042 150.18ZM111.177 139.053L111.177 135.741L120.436 120.927C120.499 120.819 120.561 120.711 120.623 120.603C120.706 120.483 120.779 120.369 120.842 120.261C121.714 118.845 122.338 117.717 122.712 116.877C123.107 116.025 123.304 115.203 123.304 114.411C123.304 113.691 123.149 113.133 122.837 112.737C122.525 112.317 122.109 112.089 121.59 112.053C121.07 112.017 120.488 112.185 119.844 112.557C119.096 112.989 118.42 113.595 117.817 114.375C117.235 115.143 116.768 116.025 116.414 117.021C116.082 117.981 115.895 118.989 115.853 120.045L111.239 122.709C111.239 122.613 111.239 122.517 111.239 122.421C111.239 120.645 111.592 118.809 112.299 116.913C113.006 115.017 114.024 113.253 115.354 111.621C116.685 109.989 118.202 108.681 119.906 107.697C121.465 106.797 122.868 106.347 124.115 106.347C125.362 106.323 126.339 106.731 127.046 107.571C127.752 108.387 128.106 109.575 128.106 111.135C128.106 112.575 127.742 114.129 127.015 115.797C126.287 117.465 125.186 119.457 123.71 121.773L118.566 129.891L118.566 130.251L127.607 125.031L127.607 129.567L111.177 139.053ZM139.116 123.606C137.37 124.614 135.812 125.142 134.44 125.19C133.089 125.202 132.029 124.758 131.26 123.858C130.511 122.946 130.137 121.638 130.137 119.934C130.137 118.902 130.335 117.696 130.73 116.316C131.125 114.936 131.696 113.442 132.444 111.834L139.116 97.2898L144.853 93.9778L138.992 106.578C139.345 106.254 139.688 105.972 140.02 105.732C140.374 105.456 140.706 105.228 141.018 105.048C142.431 104.232 143.679 103.872 144.759 103.968C145.861 104.028 146.723 104.502 147.347 105.39C147.971 106.278 148.282 107.526 148.282 109.134C148.282 110.934 147.887 112.758 147.098 114.606C146.329 116.442 145.248 118.146 143.855 119.718C142.483 121.278 140.904 122.574 139.116 123.606ZM139.272 118.692C140.02 118.26 140.686 117.696 141.268 117C141.849 116.28 142.296 115.506 142.608 114.678C142.941 113.814 143.107 112.95 143.107 112.086C143.107 111.246 142.941 110.61 142.608 110.178C142.296 109.71 141.849 109.464 141.268 109.44C140.686 109.416 140.02 109.62 139.272 110.052C138.524 110.484 137.838 111.06 137.215 111.78C136.612 112.464 136.144 113.226 135.812 114.066C135.479 114.906 135.313 115.746 135.313 116.586C135.313 117.45 135.479 118.122 135.812 118.602C136.144 119.082 136.612 119.328 137.215 119.34C137.838 119.34 138.524 119.124 139.272 118.692Z" fill="black"/>
</svg>
