<svg width="256" height="256" viewBox="0 0 256 256" fill="none" xmlns="http://www.w3.org/2000/svg">
<path d="M154.461 100.267C154.461 122.064 139.159 148.568 120.282 159.467C101.405 170.365 86.1028 161.53 86.1028 139.733C86.1028 117.937 101.405 91.4318 120.282 80.5334C139.159 69.635 154.461 78.4699 154.461 100.267Z" fill="white" stroke="#1019EF" stroke-width="6.4"/>
<mask id="path-2-inside-1_787_793" fill="white">
<path d="M120.132 132.533L164.934 106.667L164.934 137.067L120.132 162.933L120.132 132.533Z"/>
</mask>
<path d="M120.132 132.533L164.934 106.667L164.934 137.067L120.132 162.933L120.132 132.533Z" fill="white"/>
<path d="M164.934 106.667L170.477 103.467L170.477 97.0668L164.934 100.267L164.934 106.667ZM164.934 137.067L164.934 143.467L170.477 140.267L170.477 133.867L164.934 137.067ZM120.132 138.933L164.934 113.067L164.934 100.267L120.132 126.133L120.132 138.933ZM159.391 109.867L159.391 140.267L170.477 133.867L170.477 103.467L159.391 109.867ZM164.934 130.667L120.132 156.533L120.132 169.333L164.934 143.467L164.934 130.667Z" fill="#1019EF" mask="url(#path-2-inside-1_787_793)"/>
<path d="M104.665 138.666L150.729 110.933L148.132 125.067L104.665 151.209L104.665 138.666Z" fill="white"/>
<path d="M99.9538 151.015L110.9 113.868L96.0278 122.455L96.0278 115.308L119.537 101.735L119.537 106.908L107.898 146.428L99.9538 151.015ZM134.92 131.841C132.487 133.245 130.286 133.912 128.315 133.841C126.344 133.734 124.774 132.934 123.604 131.441C122.434 129.947 121.802 127.876 121.71 125.227L128.823 121.121C128.823 122.472 129.085 123.547 129.608 124.347C130.163 125.129 130.886 125.601 131.779 125.761C132.703 125.867 133.719 125.601 134.828 124.961C135.936 124.321 136.921 123.485 137.784 122.454C138.677 121.405 139.369 120.258 139.862 119.014C140.355 117.769 140.601 116.578 140.601 115.441C140.601 114.196 140.339 113.245 139.816 112.587C139.292 111.929 138.538 111.618 137.553 111.654C136.567 111.689 135.413 112.089 134.089 112.854L124.297 118.507L125.821 98.1072L145.266 86.8805L145.266 93.6005L131.41 101.601L130.809 108.774L136.075 105.734C138.384 104.401 140.416 103.761 142.171 103.814C143.957 103.849 145.343 104.543 146.328 105.894C147.314 107.209 147.806 109.076 147.806 111.494C147.806 113.947 147.252 116.472 146.144 119.067C145.035 121.663 143.495 124.098 141.525 126.374C139.585 128.596 137.383 130.418 134.92 131.841Z" fill="black"/>
</svg>
