<svg width="256" height="256" viewBox="0 0 256 256" fill="none" xmlns="http://www.w3.org/2000/svg">
<path d="M154.461 100.267C154.461 122.064 139.159 148.568 120.282 159.467C101.405 170.365 86.1028 161.53 86.1028 139.733C86.1028 117.937 101.405 91.4318 120.282 80.5334C139.159 69.635 154.461 78.4699 154.461 100.267Z" fill="white" stroke="#1019EF" stroke-width="6.4"/>
<mask id="path-2-inside-1_787_811" fill="white">
<path d="M120.132 132.533L164.934 106.667L164.934 137.067L120.132 162.933L120.132 132.533Z"/>
</mask>
<path d="M120.132 132.533L164.934 106.667L164.934 137.067L120.132 162.933L120.132 132.533Z" fill="white"/>
<path d="M164.934 106.667L170.477 103.467L170.477 97.0668L164.934 100.267L164.934 106.667ZM164.934 137.067L164.934 143.467L170.477 140.267L170.477 133.867L164.934 137.067ZM120.132 138.933L164.934 113.067L164.934 100.267L120.132 126.133L120.132 138.933ZM159.392 109.867L159.392 140.267L170.477 133.867L170.477 103.467L159.392 109.867ZM164.934 130.667L120.132 156.533L120.132 169.333L164.934 143.467L164.934 130.667Z" fill="#1019EF" mask="url(#path-2-inside-1_787_811)"/>
<path d="M104.665 138.666L150.729 110.933L148.132 125.067L104.665 151.209L104.665 138.666Z" fill="white"/>
<path d="M107.749 107.528C110.336 106.034 112.63 105.279 114.631 105.261C116.663 105.19 118.234 105.83 119.342 107.181C120.481 108.514 121.051 110.425 121.051 112.914C121.051 114.443 120.759 116.23 120.174 118.274C119.589 120.319 118.757 122.523 117.679 124.888L107.749 146.461L99.2504 151.368L107.934 132.701C107.41 133.181 106.887 133.625 106.363 134.034C105.871 134.39 105.393 134.701 104.932 134.968C102.838 136.177 100.975 136.737 99.3428 136.648C97.7416 136.541 96.4791 135.83 95.5554 134.514C94.6316 133.163 94.1697 131.314 94.1697 128.968C94.1697 126.301 94.7394 123.608 95.8787 120.888C97.0488 118.15 98.65 115.625 100.682 113.314C102.745 110.985 105.101 109.057 107.749 107.528ZM107.518 114.808C106.44 115.43 105.47 116.257 104.608 117.288C103.746 118.319 103.069 119.474 102.576 120.754C102.083 121.999 101.837 123.261 101.837 124.541C101.837 125.785 102.083 126.745 102.576 127.421C103.069 128.061 103.746 128.417 104.608 128.488C105.47 128.523 106.44 128.23 107.518 127.608C108.627 126.968 109.627 126.123 110.52 125.074C111.444 124.008 112.152 122.852 112.645 121.608C113.138 120.363 113.384 119.119 113.384 117.874C113.384 116.594 113.138 115.599 112.645 114.888C112.152 114.177 111.444 113.839 110.52 113.874C109.627 113.857 108.627 114.168 107.518 114.808ZM137.006 130.636C134.574 132.04 132.357 132.698 130.355 132.609C128.384 132.467 126.814 131.649 125.644 130.156C124.505 128.609 123.889 126.476 123.796 123.756L130.909 119.649C130.909 121.107 131.171 122.254 131.695 123.089C132.218 123.925 132.926 124.423 133.819 124.583C134.743 124.689 135.775 124.414 136.914 123.756C138.022 123.116 139.008 122.28 139.87 121.249C140.732 120.218 141.409 119.098 141.902 117.889C142.395 116.645 142.641 115.436 142.641 114.263C142.641 113.089 142.379 112.174 141.856 111.516C141.363 110.84 140.67 110.494 139.777 110.476C138.915 110.405 137.945 110.68 136.868 111.303C136.406 111.569 135.913 111.925 135.39 112.369C134.866 112.778 134.435 113.169 134.096 113.543L132.434 109.436L139.177 97.6493L139.177 97.116L125.875 104.796L125.875 98.076L148.646 84.9293L148.646 90.1026L140.84 103.836C142.564 103.16 144.104 103 145.459 103.356C146.844 103.658 147.922 104.458 148.692 105.756C149.492 107 149.893 108.636 149.893 110.663C149.893 113.045 149.338 115.516 148.23 118.076C147.152 120.583 145.628 122.956 143.657 125.196C141.687 127.4 139.47 129.214 137.006 130.636Z" fill="black"/>
</svg>
