<svg width="256" height="256" viewBox="0 0 256 256" fill="none" xmlns="http://www.w3.org/2000/svg">
<path d="M154.461 100.267C154.461 122.063 139.159 148.568 120.282 159.467C101.405 170.365 86.1028 161.53 86.1028 139.733C86.1028 117.936 101.405 91.4316 120.282 80.5332C139.159 69.6348 154.461 78.4697 154.461 100.267Z" fill="white" stroke="#1019EF" stroke-width="6.4"/>
<mask id="path-2-inside-1_787_1657" fill="white">
<path d="M120.132 132.533L164.934 106.667L164.934 137.067L120.132 162.933L120.132 132.533Z"/>
</mask>
<path d="M120.132 132.533L164.934 106.667L164.934 137.067L120.132 162.933L120.132 132.533Z" fill="white"/>
<path d="M164.934 106.667L170.477 103.467L170.477 97.0665L164.934 100.267L164.934 106.667ZM164.934 137.067L164.934 143.467L170.477 140.267L170.477 133.867L164.934 137.067ZM120.132 138.933L164.934 113.067L164.934 100.267L120.132 126.133L120.132 138.933ZM159.391 109.867L159.391 140.267L170.477 133.867L170.477 103.467L159.391 109.867ZM164.934 130.667L120.132 156.533L120.132 169.333L164.934 143.467L164.934 130.667Z" fill="#1019EF" mask="url(#path-2-inside-1_787_1657)"/>
<path d="M104.665 138.665L150.729 110.933L148.132 125.066L104.665 151.208L104.665 138.665Z" fill="white"/>
<path d="M101.168 144.831L101.168 126.075L100.825 126.273L95.7744 133.509L95.7744 127.605L101.885 118.785L106.219 116.283L106.219 141.915L101.168 144.831ZM111.568 138.827L118.957 113.753L108.918 119.549L108.918 114.725L124.787 105.563L124.787 109.055L116.931 135.731L111.568 138.827ZM135.171 125.884C133.529 126.832 132.042 127.282 130.712 127.234C129.382 127.162 128.322 126.622 127.532 125.614C126.742 124.606 126.316 123.208 126.254 121.42L131.055 118.648C131.055 119.56 131.232 120.286 131.585 120.826C131.959 121.354 132.448 121.672 133.051 121.78C133.674 121.852 134.36 121.672 135.108 121.24C135.856 120.808 136.522 120.244 137.104 119.548C137.706 118.84 138.174 118.066 138.506 117.226C138.839 116.386 139.005 115.582 139.005 114.814C139.005 113.974 138.829 113.332 138.475 112.888C138.122 112.444 137.613 112.234 136.948 112.258C136.283 112.282 135.503 112.552 134.609 113.068L128 116.884L129.029 103.114L142.154 95.5358L142.154 100.072L132.801 105.472L132.396 110.314L135.95 108.262C137.509 107.362 138.881 106.93 140.065 106.966C141.271 106.99 142.206 107.458 142.871 108.37C143.536 109.258 143.869 110.518 143.869 112.15C143.869 113.806 143.495 115.51 142.747 117.262C141.998 119.014 140.959 120.658 139.629 122.194C138.319 123.694 136.833 124.924 135.171 125.884Z" fill="black"/>
</svg>
