<svg width="256" height="256" viewBox="0 0 256 256" fill="none" xmlns="http://www.w3.org/2000/svg">
<path d="M154.461 100.267C154.461 122.064 139.159 148.568 120.282 159.467C101.405 170.365 86.1028 161.53 86.1028 139.733C86.1028 117.937 101.405 91.4318 120.282 80.5334C139.159 69.635 154.461 78.4699 154.461 100.267Z" fill="white" stroke="#1019EF" stroke-width="6.4"/>
<mask id="path-2-inside-1_787_1198" fill="white">
<path d="M120.132 132.533L164.934 106.667L164.934 137.067L120.132 162.933L120.132 132.533Z"/>
</mask>
<path d="M120.132 132.533L164.934 106.667L164.934 137.067L120.132 162.933L120.132 132.533Z" fill="white"/>
<path d="M164.934 106.667L170.477 103.467L170.477 97.0668L164.934 100.267L164.934 106.667ZM164.934 137.067L164.934 143.467L170.477 140.267L170.477 133.867L164.934 137.067ZM120.132 138.933L164.934 113.067L164.934 100.267L120.132 126.133L120.132 138.933ZM159.391 109.867L159.391 140.267L170.477 133.867L170.477 103.467L159.391 109.867ZM164.934 130.667L120.132 156.533L120.132 169.333L164.934 143.467L164.934 130.667Z" fill="#1019EF" mask="url(#path-2-inside-1_787_1198)"/>
<path d="M104.665 138.666L150.729 110.933L148.132 125.067L104.665 151.209L104.665 138.666Z" fill="white"/>
<path d="M106.734 108.114C109.321 106.62 111.615 105.865 113.616 105.847C115.648 105.776 117.219 106.416 118.327 107.767C119.467 109.1 120.036 111.011 120.036 113.5C120.036 115.029 119.744 116.816 119.159 118.86C118.574 120.905 117.742 123.109 116.665 125.474L106.734 147.047L98.2356 151.954L106.919 133.287C106.395 133.767 105.872 134.211 105.349 134.62C104.856 134.976 104.379 135.287 103.917 135.554C101.823 136.762 99.96 137.322 98.328 137.234C96.7268 137.127 95.4643 136.416 94.5406 135.1C93.6168 133.749 93.1549 131.9 93.1549 129.554C93.1549 126.887 93.7246 124.194 94.8639 121.474C96.034 118.736 97.6352 116.211 99.6674 113.9C101.73 111.571 104.086 109.642 106.734 108.114ZM106.503 115.394C105.426 116.016 104.456 116.842 103.593 117.874C102.731 118.905 102.054 120.06 101.561 121.34C101.068 122.585 100.822 123.847 100.822 125.127C100.822 126.371 101.068 127.331 101.561 128.007C102.054 128.647 102.731 129.002 103.593 129.074C104.456 129.109 105.426 128.816 106.503 128.194C107.612 127.554 108.613 126.709 109.505 125.66C110.429 124.594 111.137 123.438 111.63 122.194C112.123 120.949 112.369 119.705 112.369 118.46C112.369 117.18 112.123 116.185 111.63 115.474C111.137 114.762 110.429 114.425 109.505 114.46C108.613 114.442 107.612 114.754 106.503 115.394ZM136.915 130.635C134.205 132.2 131.834 133.106 129.802 133.355C127.801 133.551 126.23 133.124 125.091 132.075C123.983 131.009 123.428 129.373 123.428 127.169C123.428 124.786 124.029 122.413 125.23 120.049C126.43 117.684 127.97 115.693 129.848 114.075L129.848 113.542C128.37 113.72 127.154 113.373 126.2 112.502C125.276 111.577 124.814 110.137 124.814 108.182C124.814 106.084 125.307 103.951 126.292 101.782C127.308 99.5952 128.724 97.5508 130.541 95.6486C132.389 93.7286 134.513 92.0752 136.915 90.6886C139.255 89.3375 141.334 88.5819 143.151 88.4219C144.967 88.2619 146.384 88.6886 147.4 89.7019C148.447 90.6619 148.97 92.173 148.97 94.2352C148.97 96.1908 148.493 98.173 147.538 100.182C146.615 102.137 145.398 103.889 143.89 105.435L143.89 105.969C145.799 105.4 147.354 105.604 148.555 106.582C149.755 107.56 150.356 109.24 150.356 111.622C150.356 113.826 149.786 116.111 148.647 118.475C147.538 120.822 145.968 123.062 143.936 125.195C141.903 127.293 139.563 129.106 136.915 130.635ZM136.915 107.115C137.839 106.582 138.67 105.906 139.409 105.089C140.179 104.217 140.78 103.302 141.211 102.342C141.642 101.346 141.857 100.386 141.857 99.4619C141.857 98.573 141.642 97.8974 141.211 97.4352C140.78 96.9374 140.179 96.7152 139.409 96.7686C138.67 96.7686 137.839 97.0352 136.915 97.5686C135.93 98.1374 135.052 98.8574 134.282 99.7286C133.543 100.546 132.958 101.453 132.527 102.449C132.127 103.391 131.927 104.306 131.927 105.195C131.927 106.12 132.127 106.84 132.527 107.355C132.958 107.817 133.559 108.04 134.329 108.022C135.098 107.969 135.961 107.666 136.915 107.115ZM136.915 123.702C137.931 123.115 138.87 122.36 139.733 121.435C140.595 120.475 141.257 119.453 141.719 118.369C142.181 117.249 142.412 116.173 142.412 115.142C142.412 114.075 142.165 113.275 141.673 112.742C141.211 112.191 140.549 111.933 139.686 111.969C138.855 111.986 137.931 112.289 136.915 112.875C135.837 113.497 134.883 114.28 134.052 115.222C133.22 116.164 132.558 117.186 132.065 118.289C131.604 119.373 131.373 120.449 131.373 121.515C131.373 122.546 131.604 123.355 132.065 123.942C132.558 124.475 133.22 124.733 134.052 124.715C134.883 124.662 135.837 124.324 136.915 123.702Z" fill="black"/>
</svg>
