<svg width="256" height="256" viewBox="0 0 256 256" fill="none" xmlns="http://www.w3.org/2000/svg">
<path d="M154.461 100.267C154.461 122.064 139.159 148.568 120.282 159.467C101.405 170.365 86.1028 161.53 86.1028 139.733C86.1028 117.937 101.405 91.4318 120.282 80.5334C139.159 69.635 154.461 78.4699 154.461 100.267Z" fill="white" stroke="#1019EF" stroke-width="6.4"/>
<mask id="path-2-inside-1_787_803" fill="white">
<path d="M120.132 132.533L164.934 106.667L164.934 137.067L120.132 162.933L120.132 132.533Z"/>
</mask>
<path d="M120.132 132.533L164.934 106.667L164.934 137.067L120.132 162.933L120.132 132.533Z" fill="white"/>
<path d="M164.934 106.667L170.477 103.467L170.477 97.0668L164.934 100.267L164.934 106.667ZM164.934 137.067L164.934 143.467L170.477 140.267L170.477 133.867L164.934 137.067ZM120.132 138.933L164.934 113.067L164.934 100.267L120.132 126.133L120.132 138.933ZM159.391 109.867L159.391 140.267L170.477 133.867L170.477 103.467L159.391 109.867ZM164.934 130.667L120.132 156.533L120.132 169.333L164.934 143.467L164.934 130.667Z" fill="#1019EF" mask="url(#path-2-inside-1_787_803)"/>
<path d="M104.665 138.666L150.729 110.933L148.132 125.067L104.665 151.209L104.665 138.666Z" fill="white"/>
<path d="M107.349 147.706C104.639 149.27 102.268 150.177 100.236 150.426C98.2341 150.621 96.6637 150.194 95.5244 149.146C94.4159 148.079 93.8616 146.443 93.8616 144.239C93.8616 141.857 94.4621 139.483 95.663 137.119C96.8639 134.754 98.4035 132.763 100.282 131.146L100.282 130.612C98.8038 130.79 97.5875 130.443 96.6329 129.572C95.7092 128.648 95.2473 127.208 95.2473 125.252C95.2473 123.154 95.7399 121.021 96.7253 118.852C97.7414 116.666 99.1579 114.621 100.975 112.719C102.822 110.799 104.947 109.146 107.349 107.759C109.689 106.408 111.767 105.652 113.584 105.492C115.401 105.332 116.817 105.759 117.833 106.772C118.88 107.732 119.404 109.243 119.404 111.306C119.404 113.261 118.926 115.243 117.972 117.252C117.048 119.208 115.832 120.959 114.323 122.506L114.323 123.039C116.232 122.47 117.787 122.674 118.988 123.652C120.189 124.63 120.789 126.31 120.789 128.692C120.789 130.897 120.22 133.181 119.08 135.546C117.972 137.892 116.401 140.132 114.369 142.266C112.337 144.363 109.997 146.177 107.349 147.706ZM107.349 124.186C108.272 123.652 109.104 122.977 109.843 122.159C110.612 121.288 111.213 120.372 111.644 119.412C112.075 118.417 112.291 117.457 112.291 116.532C112.291 115.643 112.075 114.968 111.644 114.506C111.213 114.008 110.612 113.786 109.843 113.839C109.104 113.839 108.272 114.106 107.349 114.639C106.363 115.208 105.486 115.928 104.716 116.799C103.977 117.617 103.392 118.523 102.961 119.519C102.56 120.461 102.36 121.377 102.36 122.266C102.36 123.19 102.56 123.91 102.961 124.426C103.392 124.888 103.992 125.11 104.762 125.092C105.532 125.039 106.394 124.737 107.349 124.186ZM107.349 140.772C108.365 140.186 109.304 139.43 110.166 138.506C111.028 137.546 111.69 136.523 112.152 135.439C112.614 134.319 112.845 133.243 112.845 132.212C112.845 131.146 112.599 130.346 112.106 129.812C111.644 129.261 110.982 129.003 110.12 129.039C109.288 129.057 108.365 129.359 107.349 129.946C106.271 130.568 105.316 131.35 104.485 132.292C103.653 133.234 102.991 134.257 102.499 135.359C102.037 136.443 101.806 137.519 101.806 138.586C101.806 139.617 102.037 140.426 102.499 141.012C102.991 141.546 103.653 141.803 104.485 141.786C105.316 141.732 106.271 141.394 107.349 140.772ZM137.329 130.45C134.896 131.854 132.694 132.521 130.724 132.45C128.753 132.343 127.183 131.543 126.012 130.05C124.842 128.557 124.211 126.485 124.119 123.837L131.232 119.73C131.232 121.081 131.493 122.157 132.017 122.957C132.571 123.739 133.295 124.21 134.188 124.37C135.111 124.477 136.128 124.21 137.236 123.57C138.345 122.93 139.33 122.094 140.192 121.063C141.085 120.014 141.778 118.868 142.271 117.623C142.763 116.379 143.01 115.188 143.01 114.05C143.01 112.805 142.748 111.854 142.224 111.197C141.701 110.539 140.947 110.228 139.961 110.263C138.976 110.299 137.821 110.699 136.497 111.463L126.705 117.117L128.229 96.7166L147.675 85.4899L147.675 92.2099L133.818 100.21L133.218 107.383L138.483 104.343C140.793 103.01 142.825 102.37 144.58 102.423C146.366 102.459 147.752 103.152 148.737 104.503C149.722 105.819 150.215 107.685 150.215 110.103C150.215 112.557 149.661 115.081 148.552 117.677C147.444 120.272 145.904 122.708 143.933 124.983C141.993 127.205 139.792 129.028 137.329 130.45Z" fill="black"/>
</svg>
