<svg width="256" height="256" viewBox="0 0 256 256" fill="none" xmlns="http://www.w3.org/2000/svg">
<path d="M154.461 100.267C154.461 122.063 139.159 148.568 120.282 159.467C101.405 170.365 86.1028 161.53 86.1028 139.733C86.1028 117.936 101.405 91.4317 120.282 80.5333C139.159 69.6349 154.461 78.4698 154.461 100.267Z" fill="white" stroke="#1019EF" stroke-width="6.4"/>
<mask id="path-2-inside-1_787_779" fill="white">
<path d="M120.132 132.533L164.934 106.667L164.934 137.067L120.132 162.933L120.132 132.533Z"/>
</mask>
<path d="M120.132 132.533L164.934 106.667L164.934 137.067L120.132 162.933L120.132 132.533Z" fill="white"/>
<path d="M164.934 106.667L170.477 103.467L170.477 97.0665L164.934 100.267L164.934 106.667ZM164.934 137.067L164.934 143.467L170.477 140.267L170.477 133.867L164.934 137.067ZM120.132 138.933L164.934 113.067L164.934 100.267L120.132 126.133L120.132 138.933ZM159.392 109.867L159.392 140.267L170.477 133.867L170.477 103.467L159.392 109.867ZM164.934 130.667L120.132 156.533L120.132 169.333L164.934 143.467L164.934 130.667Z" fill="#1019EF" mask="url(#path-2-inside-1_787_779)"/>
<path d="M104.665 138.665L150.729 110.933L148.132 125.067L104.665 151.209L104.665 138.665Z" fill="white"/>
<path d="M112.051 145.044C109.465 146.537 107.155 147.319 105.123 147.39C103.121 147.408 101.551 146.75 100.412 145.417C99.3032 144.066 98.749 142.128 98.749 139.604C98.749 138.075 99.0415 136.288 99.6265 134.244C100.212 132.199 101.058 129.986 102.167 127.604L112.051 106.057L120.55 101.15L111.866 119.817C112.39 119.337 112.898 118.919 113.391 118.564C113.914 118.155 114.407 117.817 114.869 117.55C116.962 116.342 118.81 115.808 120.411 115.95C122.043 116.039 123.321 116.742 124.245 118.057C125.169 119.373 125.63 121.222 125.63 123.604C125.63 126.27 125.045 128.973 123.875 131.71C122.736 134.43 121.135 136.955 119.072 139.284C117.039 141.595 114.699 143.515 112.051 145.044ZM112.282 137.764C113.391 137.124 114.376 136.288 115.238 135.257C116.1 134.19 116.762 133.044 117.224 131.817C117.717 130.537 117.963 129.257 117.963 127.977C117.963 126.733 117.717 125.79 117.224 125.15C116.762 124.457 116.1 124.093 115.238 124.057C114.376 124.022 113.391 124.324 112.282 124.964C111.174 125.604 110.157 126.457 109.234 127.524C108.341 128.537 107.648 129.666 107.155 130.91C106.663 132.155 106.416 133.399 106.416 134.644C106.416 135.924 106.663 136.919 107.155 137.63C107.648 138.342 108.341 138.706 109.234 138.724C110.157 138.724 111.174 138.404 112.282 137.764ZM135.916 130.252L135.916 102.465L135.408 102.759L127.926 113.479L127.926 104.732L136.979 91.6652L143.399 87.9586L143.399 125.932L135.916 130.252Z" fill="black"/>
</svg>
