<svg width="256" height="256" viewBox="0 0 256 256" fill="none" xmlns="http://www.w3.org/2000/svg">
<path d="M154.461 100.267C154.461 122.063 139.159 148.568 120.282 159.467C101.405 170.365 86.1028 161.53 86.1028 139.733C86.1028 117.936 101.405 91.4316 120.282 80.5332C139.159 69.6348 154.461 78.4697 154.461 100.267Z" fill="white" stroke="#1019EF" stroke-width="6.4"/>
<mask id="path-2-inside-1_787_2084" fill="white">
<path d="M120.132 132.533L164.934 106.667L164.934 137.067L120.132 162.933L120.132 132.533Z"/>
</mask>
<path d="M120.132 132.533L164.934 106.667L164.934 137.067L120.132 162.933L120.132 132.533Z" fill="white"/>
<path d="M164.934 106.667L170.477 103.467L170.477 97.0665L164.934 100.267L164.934 106.667ZM164.934 137.067L164.934 143.467L170.477 140.267L170.477 133.867L164.934 137.067ZM120.132 138.933L164.934 113.067L164.934 100.267L120.132 126.133L120.132 138.933ZM159.391 109.867L159.391 140.267L170.477 133.867L170.477 103.467L159.391 109.867ZM164.934 130.667L120.132 156.533L120.132 169.333L164.934 143.467L164.934 130.667Z" fill="#1019EF" mask="url(#path-2-inside-1_787_2084)"/>
<path d="M104.665 138.665L150.729 110.933L148.132 125.066L104.665 151.208L104.665 138.665Z" fill="white"/>
<path d="M90.9977 150.703L90.9977 147.391L100.257 132.577C100.32 132.469 100.382 132.361 100.444 132.253C100.527 132.133 100.6 132.019 100.663 131.911C101.535 130.495 102.159 129.367 102.533 128.527C102.928 127.675 103.125 126.853 103.125 126.061C103.125 125.341 102.97 124.783 102.658 124.387C102.346 123.967 101.93 123.739 101.411 123.703C100.891 123.667 100.309 123.835 99.6649 124.207C98.9166 124.639 98.2411 125.245 97.6384 126.025C97.0564 126.793 96.5887 127.675 96.2354 128.671C95.9028 129.631 95.7158 130.639 95.6742 131.695L91.06 134.359C91.06 134.263 91.06 134.167 91.06 134.071C91.06 132.295 91.4134 130.459 92.12 128.563C92.8267 126.667 93.8452 124.903 95.1754 123.271C96.5056 121.639 98.0229 120.331 99.7272 119.347C101.286 118.447 102.689 117.997 103.936 117.997C105.183 117.973 106.16 118.381 106.867 119.221C107.573 120.037 107.927 121.225 107.927 122.785C107.927 124.225 107.563 125.779 106.836 127.447C106.108 129.115 105.006 131.107 103.531 133.423L98.3866 141.541L98.3866 141.901L107.428 136.681L107.428 141.217L90.9977 150.703ZM110.27 139.576L110.27 136.264L119.53 121.45C119.592 121.342 119.654 121.234 119.717 121.126C119.8 121.006 119.873 120.892 119.935 120.784C120.808 119.368 121.431 118.24 121.806 117.4C122.2 116.548 122.398 115.726 122.398 114.934C122.398 114.214 122.242 113.656 121.93 113.26C121.619 112.84 121.203 112.612 120.683 112.576C120.164 112.54 119.582 112.708 118.937 113.08C118.189 113.512 117.514 114.118 116.911 114.898C116.329 115.666 115.861 116.548 115.508 117.544C115.175 118.504 114.988 119.512 114.947 120.568L110.332 123.232C110.332 123.136 110.332 123.04 110.332 122.944C110.332 121.168 110.686 119.332 111.392 117.436C112.099 115.54 113.118 113.776 114.448 112.144C115.778 110.512 117.295 109.204 119 108.22C120.558 107.32 121.961 106.87 123.209 106.87C124.456 106.846 125.432 107.254 126.139 108.094C126.846 108.91 127.199 110.098 127.199 111.658C127.199 113.098 126.835 114.652 126.108 116.32C125.381 117.988 124.279 119.98 122.803 122.296L117.659 130.414L117.659 130.774L126.7 125.554L126.7 130.09L110.27 139.576ZM139.644 123.301C137.669 124.441 135.913 124.891 134.375 124.651C132.858 124.375 131.673 123.463 130.821 121.915C129.969 120.343 129.543 118.249 129.543 115.633C129.543 113.017 129.969 110.443 130.821 107.911C131.673 105.355 132.858 103.075 134.375 101.071C135.913 99.0312 137.669 97.4412 139.644 96.3012C141.598 95.1732 143.344 94.7412 144.882 95.0052C146.42 95.2452 147.615 96.1512 148.467 97.7232C149.319 99.2712 149.745 101.353 149.745 103.969C149.745 106.585 149.319 109.171 148.467 111.727C147.615 114.259 146.42 116.545 144.882 118.585C143.344 120.601 141.598 122.173 139.644 123.301ZM139.644 118.153C140.621 117.589 141.473 116.749 142.2 115.633C142.949 114.505 143.531 113.185 143.946 111.673C144.362 110.161 144.57 108.589 144.57 106.957C144.57 105.325 144.362 103.993 143.946 102.961C143.531 101.929 142.949 101.281 142.2 101.017C141.473 100.741 140.621 100.885 139.644 101.449C138.667 102.013 137.804 102.859 137.056 103.987C136.308 105.115 135.726 106.435 135.31 107.947C134.915 109.447 134.718 111.013 134.718 112.645C134.718 114.277 134.915 115.615 135.31 116.659C135.726 117.691 136.308 118.339 137.056 118.603C137.804 118.867 138.667 118.717 139.644 118.153Z" fill="black"/>
</svg>
