<svg width="256" height="256" viewBox="0 0 256 256" fill="none" xmlns="http://www.w3.org/2000/svg">
<path d="M154.461 100.267C154.461 122.063 139.159 148.568 120.282 159.467C101.405 170.365 86.1028 161.53 86.1028 139.733C86.1028 117.936 101.405 91.4316 120.282 80.5332C139.159 69.6348 154.461 78.4697 154.461 100.267Z" fill="white" stroke="#1019EF" stroke-width="6.4"/>
<mask id="path-2-inside-1_787_2087" fill="white">
<path d="M120.132 132.533L164.934 106.667L164.934 137.067L120.132 162.933L120.132 132.533Z"/>
</mask>
<path d="M120.132 132.533L164.934 106.667L164.934 137.067L120.132 162.933L120.132 132.533Z" fill="white"/>
<path d="M164.934 106.667L170.477 103.467L170.477 97.0665L164.934 100.267L164.934 106.667ZM164.934 137.067L164.934 143.467L170.477 140.267L170.477 133.867L164.934 137.067ZM120.132 138.933L164.934 113.067L164.934 100.267L120.132 126.133L120.132 138.933ZM159.392 109.867L159.392 140.267L170.477 133.867L170.477 103.467L159.392 109.867ZM164.934 130.667L120.132 156.533L120.132 169.333L164.934 143.467L164.934 130.667Z" fill="#1019EF" mask="url(#path-2-inside-1_787_2087)"/>
<path d="M104.665 138.665L150.729 110.933L148.132 125.066L104.665 151.208L104.665 138.665Z" fill="white"/>
<path d="M92.8094 149.657L92.8093 146.345L102.069 131.531C102.131 131.423 102.194 131.315 102.256 131.207C102.339 131.087 102.412 130.973 102.474 130.865C103.347 129.449 103.971 128.321 104.345 127.481C104.74 126.629 104.937 125.807 104.937 125.015C104.937 124.295 104.781 123.737 104.47 123.341C104.158 122.921 103.742 122.693 103.222 122.657C102.703 122.621 102.121 122.789 101.477 123.161C100.728 123.593 100.053 124.199 99.45 124.979C98.8681 125.747 98.4004 126.629 98.0471 127.625C97.7145 128.585 97.5275 129.593 97.4859 130.649L92.8717 133.313C92.8717 133.217 92.8717 133.121 92.8717 133.025C92.8717 131.249 93.225 129.413 93.9317 127.517C94.6384 125.621 95.6568 123.857 96.9871 122.225C98.3173 120.593 99.8345 119.285 101.539 118.301C103.098 117.401 104.501 116.951 105.748 116.951C106.995 116.927 107.972 117.335 108.678 118.175C109.385 118.991 109.738 120.179 109.738 121.739C109.738 123.179 109.375 124.733 108.647 126.401C107.92 128.069 106.818 130.061 105.342 132.377L100.198 140.495L100.198 140.855L109.24 135.635L109.24 140.171L92.8094 149.657ZM112.082 138.53L112.082 135.218L121.341 120.404C121.404 120.296 121.466 120.188 121.528 120.08C121.612 119.96 121.684 119.846 121.747 119.738C122.62 118.322 123.243 117.194 123.617 116.354C124.012 115.502 124.21 114.68 124.21 113.888C124.21 113.168 124.054 112.61 123.742 112.214C123.43 111.794 123.014 111.566 122.495 111.53C121.975 111.494 121.393 111.662 120.749 112.034C120.001 112.466 119.325 113.072 118.722 113.852C118.141 114.62 117.673 115.502 117.32 116.498C116.987 117.458 116.8 118.466 116.758 119.522L112.144 122.186C112.144 122.09 112.144 121.994 112.144 121.898C112.144 120.122 112.497 118.286 113.204 116.39C113.911 114.494 114.929 112.73 116.26 111.098C117.59 109.466 119.107 108.158 120.811 107.174C122.37 106.274 123.773 105.824 125.02 105.824C126.267 105.8 127.244 106.208 127.951 107.048C128.658 107.864 129.011 109.052 129.011 110.612C129.011 112.052 128.647 113.606 127.92 115.274C127.192 116.942 126.091 118.934 124.615 121.25L119.471 129.368L119.471 129.728L128.512 124.508L128.512 129.044L112.082 138.53ZM139.71 123.263C138.068 124.211 136.571 124.655 135.22 124.595C133.89 124.499 132.83 123.947 132.04 122.939C131.271 121.895 130.855 120.455 130.793 118.619L135.594 115.847C135.594 116.831 135.771 117.605 136.124 118.169C136.478 118.733 136.956 119.069 137.558 119.177C138.182 119.249 138.878 119.063 139.647 118.619C140.396 118.187 141.061 117.623 141.643 116.927C142.225 116.231 142.682 115.475 143.014 114.659C143.347 113.819 143.513 113.003 143.513 112.211C143.513 111.419 143.337 110.801 142.983 110.357C142.651 109.901 142.183 109.667 141.58 109.655C140.998 109.607 140.344 109.793 139.616 110.213C139.304 110.393 138.972 110.633 138.618 110.933C138.265 111.209 137.974 111.473 137.746 111.725L136.623 108.953L141.175 100.997L141.175 100.637L132.196 105.821L132.196 101.285L147.566 92.4113L147.566 95.9033L142.297 105.173C143.461 104.717 144.501 104.609 145.415 104.849C146.35 105.053 147.078 105.593 147.597 106.469C148.138 107.309 148.408 108.413 148.408 109.781C148.408 111.389 148.034 113.057 147.286 114.785C146.558 116.477 145.529 118.079 144.199 119.591C142.869 121.079 141.372 122.303 139.71 123.263Z" fill="black"/>
</svg>
