<svg width="256" height="256" viewBox="0 0 256 256" fill="none" xmlns="http://www.w3.org/2000/svg">
<path d="M154.461 100.267C154.461 122.064 139.159 148.568 120.282 159.467C101.405 170.365 86.1028 161.53 86.1028 139.733C86.1028 117.937 101.405 91.4318 120.282 80.5334C139.159 69.635 154.461 78.4699 154.461 100.267Z" fill="white" stroke="#1019EF" stroke-width="6.4"/>
<mask id="path-2-inside-1_787_1197" fill="white">
<path d="M120.132 132.533L164.934 106.667L164.934 137.067L120.132 162.933L120.132 132.533Z"/>
</mask>
<path d="M120.132 132.533L164.934 106.667L164.934 137.067L120.132 162.933L120.132 132.533Z" fill="white"/>
<path d="M164.934 106.667L170.477 103.467L170.477 97.0668L164.934 100.267L164.934 106.667ZM164.934 137.067L164.934 143.467L170.477 140.267L170.477 133.867L164.934 137.067ZM120.132 138.933L164.934 113.067L164.934 100.267L120.132 126.133L120.132 138.933ZM159.391 109.867L159.391 140.267L170.477 133.867L170.477 103.467L159.391 109.867ZM164.934 130.667L120.132 156.533L120.132 169.333L164.934 143.467L164.934 130.667Z" fill="#1019EF" mask="url(#path-2-inside-1_787_1197)"/>
<path d="M104.665 138.666L150.729 110.933L148.132 125.067L104.665 151.209L104.665 138.666Z" fill="white"/>
<path d="M109.576 106.473C112.162 104.98 114.456 104.224 116.458 104.206C118.49 104.135 120.061 104.775 121.169 106.126C122.308 107.46 122.878 109.371 122.878 111.86C122.878 113.388 122.586 115.175 122 117.22C121.415 119.264 120.584 121.468 119.506 123.833L109.576 145.406L101.077 150.313L109.761 131.646C109.237 132.126 108.714 132.571 108.19 132.98C107.698 133.335 107.22 133.646 106.758 133.913C104.665 135.122 102.802 135.682 101.17 135.593C99.5685 135.486 98.306 134.775 97.3823 133.46C96.4585 132.108 95.9966 130.26 95.9966 127.913C95.9966 125.246 96.5663 122.553 97.7056 119.833C98.8757 117.095 100.477 114.571 102.509 112.26C104.572 109.931 106.928 108.002 109.576 106.473ZM109.345 113.753C108.267 114.375 107.297 115.202 106.435 116.233C105.573 117.264 104.896 118.42 104.403 119.7C103.91 120.944 103.664 122.206 103.664 123.486C103.664 124.731 103.91 125.691 104.403 126.366C104.896 127.006 105.573 127.362 106.435 127.433C107.297 127.468 108.267 127.175 109.345 126.553C110.453 125.913 111.454 125.068 112.347 124.02C113.271 122.953 113.979 121.797 114.472 120.553C114.965 119.308 115.211 118.064 115.211 116.82C115.211 115.54 114.965 114.544 114.472 113.833C113.979 113.122 113.271 112.784 112.347 112.82C111.454 112.802 110.453 113.113 109.345 113.753ZM129.087 134.195L140.034 97.0479L125.161 105.635L125.161 98.4879L148.671 84.9146L148.671 90.0879L137.032 129.608L129.087 134.195Z" fill="black"/>
</svg>
