<svg width="256" height="256" viewBox="0 0 256 256" fill="none" xmlns="http://www.w3.org/2000/svg">
<path d="M154.461 100.267C154.461 122.064 139.159 148.568 120.282 159.467C101.405 170.365 86.1028 161.53 86.1028 139.733C86.1028 117.937 101.405 91.4318 120.282 80.5334C139.159 69.635 154.461 78.4699 154.461 100.267Z" fill="white" stroke="#1019EF" stroke-width="6.4"/>
<mask id="path-2-inside-1_787_1227" fill="white">
<path d="M120.132 132.533L164.934 106.667L164.934 137.067L120.132 162.933L120.132 132.533Z"/>
</mask>
<path d="M120.132 132.533L164.934 106.667L164.934 137.067L120.132 162.933L120.132 132.533Z" fill="white"/>
<path d="M164.934 106.667L170.477 103.467L170.477 97.0668L164.934 100.267L164.934 106.667ZM164.934 137.067L164.934 143.467L170.477 140.267L170.477 133.867L164.934 137.067ZM120.132 138.933L164.934 113.067L164.934 100.267L120.132 126.133L120.132 138.933ZM159.391 109.867L159.391 140.267L170.477 133.867L170.477 103.467L159.391 109.867ZM164.934 130.667L120.132 156.533L120.132 169.333L164.934 143.467L164.934 130.667Z" fill="#1019EF" mask="url(#path-2-inside-1_787_1227)"/>
<path d="M104.665 138.666L150.729 110.933L148.132 125.067L104.665 151.209L104.665 138.666Z" fill="white"/>
<path d="M101.381 144.708L101.381 125.952L101.038 126.15L95.9875 133.386L95.9875 127.482L102.098 118.662L106.432 116.16L106.432 141.792L101.381 144.708ZM110.004 139.729L110.004 136.417L119.264 121.603C119.326 121.495 119.389 121.387 119.451 121.279C119.534 121.159 119.607 121.045 119.669 120.937C120.542 119.521 121.166 118.393 121.54 117.553C121.935 116.701 122.132 115.879 122.132 115.087C122.132 114.367 121.976 113.809 121.665 113.413C121.353 112.993 120.937 112.765 120.418 112.729C119.898 112.693 119.316 112.861 118.672 113.233C117.923 113.665 117.248 114.271 116.645 115.051C116.063 115.819 115.596 116.701 115.242 117.697C114.91 118.657 114.723 119.665 114.681 120.721L110.067 123.385C110.067 123.289 110.067 123.193 110.067 123.097C110.067 121.321 110.42 119.485 111.127 117.589C111.833 115.693 112.852 113.929 114.182 112.297C115.512 110.665 117.03 109.357 118.734 108.373C120.293 107.473 121.696 107.023 122.943 107.023C124.19 106.999 125.167 107.407 125.874 108.247C126.58 109.063 126.934 110.251 126.934 111.811C126.934 113.251 126.57 114.805 125.842 116.473C125.115 118.141 124.013 120.133 122.538 122.449L117.393 130.567L117.393 130.927L126.435 125.707L126.435 130.243L110.004 139.729ZM131.054 127.577L138.443 102.503L128.404 108.299L128.404 103.475L144.273 94.3125L144.273 97.8045L136.416 124.481L131.054 127.577Z" fill="black"/>
</svg>
