<svg width="256" height="256" viewBox="0 0 256 256" fill="none" xmlns="http://www.w3.org/2000/svg">
<path d="M154.461 100.267C154.461 122.063 139.159 148.568 120.282 159.467C101.405 170.365 86.1028 161.53 86.1028 139.733C86.1028 117.936 101.405 91.4316 120.282 80.5332C139.159 69.6348 154.461 78.4697 154.461 100.267Z" fill="white" stroke="#1019EF" stroke-width="6.4"/>
<mask id="path-2-inside-1_787_1652" fill="white">
<path d="M120.132 132.533L164.934 106.667L164.934 137.067L120.132 162.933L120.132 132.533Z"/>
</mask>
<path d="M120.132 132.533L164.934 106.667L164.934 137.067L120.132 162.933L120.132 132.533Z" fill="white"/>
<path d="M164.934 106.667L170.477 103.467L170.477 97.0665L164.934 100.267L164.934 106.667ZM164.934 137.067L164.934 143.467L170.477 140.267L170.477 133.867L164.934 137.067ZM120.132 138.933L164.934 113.067L164.934 100.267L120.132 126.133L120.132 138.933ZM159.391 109.867L159.391 140.267L170.477 133.867L170.477 103.467L159.391 109.867ZM164.934 130.667L120.132 156.533L120.132 169.333L164.934 143.467L164.934 130.667Z" fill="#1019EF" mask="url(#path-2-inside-1_787_1652)"/>
<path d="M104.665 138.665L150.729 110.933L148.132 125.066L104.665 151.208L104.665 138.665Z" fill="white"/>
<path d="M99.5542 145.763L99.5542 127.007L99.2113 127.205L94.1606 134.441L94.1606 128.537L100.271 119.717L104.605 117.215L104.605 142.847L99.5542 145.763ZM109.955 139.758L117.344 114.684L107.305 120.48L107.305 115.656L123.174 106.494L123.174 109.986L115.317 136.662L109.955 139.758ZM135.116 125.915C133.141 127.055 131.385 127.505 129.847 127.265C128.329 126.989 127.145 126.077 126.293 124.529C125.44 122.957 125.014 120.863 125.014 118.247C125.014 115.631 125.44 113.057 126.293 110.525C127.145 107.969 128.329 105.689 129.847 103.685C131.385 101.645 133.141 100.055 135.116 98.9155C137.069 97.7875 138.815 97.3555 140.353 97.6195C141.891 97.8595 143.087 98.7655 143.939 100.337C144.791 101.885 145.217 103.967 145.217 106.583C145.217 109.199 144.791 111.785 143.939 114.341C143.087 116.873 141.891 119.159 140.353 121.199C138.815 123.215 137.069 124.787 135.116 125.915ZM135.116 120.767C136.092 120.203 136.945 119.363 137.672 118.247C138.42 117.119 139.002 115.799 139.418 114.287C139.834 112.775 140.042 111.203 140.042 109.571C140.042 107.939 139.834 106.607 139.418 105.575C139.002 104.543 138.42 103.895 137.672 103.631C136.945 103.355 136.092 103.499 135.116 104.063C134.139 104.627 133.276 105.473 132.528 106.601C131.78 107.729 131.198 109.049 130.782 110.561C130.387 112.061 130.19 113.627 130.19 115.259C130.19 116.891 130.387 118.229 130.782 119.273C131.198 120.305 131.78 120.953 132.528 121.217C133.276 121.481 134.139 121.331 135.116 120.767Z" fill="black"/>
</svg>
