<svg width="256" height="256" viewBox="0 0 256 256" fill="none" xmlns="http://www.w3.org/2000/svg">
<path d="M154.461 100.267C154.461 122.063 139.159 148.568 120.282 159.467C101.405 170.365 86.1028 161.53 86.1028 139.733C86.1028 117.936 101.405 91.4316 120.282 80.5332C139.159 69.6348 154.461 78.4697 154.461 100.267Z" fill="white" stroke="#1019EF" stroke-width="6.4"/>
<mask id="path-2-inside-1_787_2080" fill="white">
<path d="M120.132 132.533L164.934 106.667L164.934 137.067L120.132 162.933L120.132 132.533Z"/>
</mask>
<path d="M120.132 132.533L164.934 106.667L164.934 137.067L120.132 162.933L120.132 132.533Z" fill="white"/>
<path d="M164.934 106.667L170.477 103.467L170.477 97.0665L164.934 100.267L164.934 106.667ZM164.934 137.067L164.934 143.467L170.477 140.267L170.477 133.867L164.934 137.067ZM120.132 138.933L164.934 113.067L164.934 100.267L120.132 126.133L120.132 138.933ZM159.391 109.867L159.391 140.267L170.477 133.867L170.477 103.467L159.391 109.867ZM164.934 130.667L120.132 156.533L120.132 169.333L164.934 143.467L164.934 130.667Z" fill="#1019EF" mask="url(#path-2-inside-1_787_2080)"/>
<path d="M104.665 138.665L150.729 110.933L148.132 125.066L104.665 151.208L104.665 138.665Z" fill="white"/>
<path d="M94.7812 148.519L94.7812 145.207L104.041 130.393C104.103 130.285 104.165 130.177 104.228 130.069C104.311 129.949 104.384 129.835 104.446 129.727C105.319 128.311 105.943 127.183 106.317 126.343C106.712 125.491 106.909 124.669 106.909 123.877C106.909 123.157 106.753 122.599 106.441 122.203C106.13 121.783 105.714 121.555 105.194 121.519C104.675 121.483 104.093 121.651 103.448 122.023C102.7 122.455 102.025 123.061 101.422 123.841C100.84 124.609 100.372 125.491 100.019 126.487C99.6864 127.447 99.4993 128.455 99.4578 129.511L94.8436 132.175C94.8436 132.079 94.8436 131.983 94.8436 131.887C94.8436 130.111 95.1969 128.275 95.9036 126.379C96.6103 124.483 97.6287 122.719 98.9589 121.087C100.289 119.455 101.806 118.147 103.511 117.163C105.07 116.263 106.473 115.813 107.72 115.813C108.967 115.789 109.944 116.197 110.65 117.037C111.357 117.853 111.71 119.041 111.71 120.601C111.71 122.041 111.347 123.595 110.619 125.263C109.892 126.931 108.79 128.923 107.314 131.239L102.17 139.357L102.17 139.717L111.211 134.497L111.211 139.033L94.7812 148.519ZM118.948 134.566L118.948 115.81L118.605 116.008L113.555 123.244L113.555 117.34L119.666 108.52L123.999 106.018L123.999 131.65L118.948 134.566ZM136.239 125.267C134.493 126.275 132.934 126.803 131.562 126.851C130.211 126.863 129.151 126.419 128.382 125.519C127.634 124.607 127.26 123.299 127.26 121.595C127.26 120.563 127.457 119.357 127.852 117.977C128.247 116.597 128.819 115.103 129.567 113.495L136.239 98.9509L141.976 95.6389L136.114 108.239C136.468 107.915 136.811 107.633 137.143 107.393C137.496 107.117 137.829 106.889 138.141 106.709C139.554 105.893 140.801 105.533 141.882 105.629C142.984 105.689 143.846 106.163 144.47 107.051C145.093 107.939 145.405 109.187 145.405 110.795C145.405 112.595 145.01 114.419 144.22 116.267C143.451 118.103 142.37 119.807 140.978 121.379C139.606 122.939 138.026 124.235 136.239 125.267ZM136.395 120.353C137.143 119.921 137.808 119.357 138.39 118.661C138.972 117.941 139.419 117.167 139.731 116.339C140.063 115.475 140.23 114.611 140.23 113.747C140.23 112.907 140.063 112.271 139.731 111.839C139.419 111.371 138.972 111.125 138.39 111.101C137.808 111.077 137.143 111.281 136.395 111.713C135.647 112.145 134.961 112.721 134.337 113.441C133.734 114.125 133.267 114.887 132.934 115.727C132.602 116.567 132.435 117.407 132.435 118.247C132.435 119.111 132.602 119.783 132.934 120.263C133.267 120.743 133.734 120.989 134.337 121.001C134.961 121.001 135.647 120.785 136.395 120.353Z" fill="black"/>
</svg>
