<svg width="256" height="256" viewBox="0 0 256 256" fill="none" xmlns="http://www.w3.org/2000/svg">
<path d="M154.461 100.267C154.461 122.064 139.159 148.568 120.282 159.467C101.405 170.365 86.1028 161.53 86.1028 139.733C86.1028 117.937 101.405 91.4318 120.282 80.5334C139.159 69.635 154.461 78.4699 154.461 100.267Z" fill="white" stroke="#1019EF" stroke-width="6.4"/>
<mask id="path-2-inside-1_787_1627" fill="white">
<path d="M120.132 132.533L164.934 106.667L164.934 137.067L120.132 162.933L120.132 132.533Z"/>
</mask>
<path d="M120.132 132.533L164.934 106.667L164.934 137.067L120.132 162.933L120.132 132.533Z" fill="white"/>
<path d="M164.934 106.667L170.477 103.467L170.477 97.0668L164.934 100.267L164.934 106.667ZM164.934 137.067L164.934 143.467L170.477 140.267L170.477 133.867L164.934 137.067ZM120.132 138.933L164.934 113.067L164.934 100.267L120.132 126.133L120.132 138.933ZM159.391 109.867L159.391 140.267L170.477 133.867L170.477 103.467L159.391 109.867ZM164.934 130.667L120.132 156.533L120.132 169.333L164.934 143.467L164.934 130.667Z" fill="#1019EF" mask="url(#path-2-inside-1_787_1627)"/>
<path d="M104.665 138.666L150.729 110.933L148.132 125.067L104.665 151.209L104.665 138.666Z" fill="white"/>
<path d="M99.5999 145.736L99.5999 126.98L99.2569 127.178L94.2063 134.414L94.2063 128.51L100.317 119.69L104.651 117.188L104.651 142.82L99.5999 145.736ZM118.044 135.088L118.044 129.796L107.413 135.934L107.413 132.658L115.862 110.716L123.219 106.468L123.219 122.308L125.807 120.814L125.807 125.314L123.219 126.808L123.219 132.1L118.044 135.088ZM112.432 128.536L118.013 125.314L118.013 114.442L117.701 114.622L112.432 128.536ZM136.738 124.979C135.096 125.927 133.61 126.377 132.28 126.329C130.95 126.257 129.89 125.717 129.1 124.709C128.31 123.701 127.884 122.303 127.822 120.515L132.623 117.743C132.623 118.655 132.8 119.381 133.153 119.921C133.527 120.449 134.016 120.767 134.618 120.875C135.242 120.947 135.928 120.767 136.676 120.335C137.424 119.903 138.089 119.339 138.671 118.643C139.274 117.935 139.742 117.161 140.074 116.321C140.407 115.481 140.573 114.677 140.573 113.909C140.573 113.069 140.396 112.427 140.043 111.983C139.69 111.539 139.181 111.329 138.515 111.353C137.85 111.377 137.071 111.647 136.177 112.163L129.568 115.979L130.597 102.209L143.722 94.6305L143.722 99.1665L134.369 104.567L133.964 109.409L137.518 107.357C139.077 106.457 140.448 106.025 141.633 106.061C142.839 106.085 143.774 106.553 144.439 107.465C145.104 108.353 145.437 109.613 145.437 111.245C145.437 112.901 145.063 114.605 144.314 116.357C143.566 118.109 142.527 119.753 141.197 121.289C139.887 122.789 138.401 124.019 136.738 124.979Z" fill="black"/>
</svg>
