<svg width="256" height="256" viewBox="0 0 256 256" fill="none" xmlns="http://www.w3.org/2000/svg">
<path d="M154.461 100.267C154.461 122.063 139.159 148.568 120.282 159.467C101.405 170.365 86.1028 161.53 86.1028 139.733C86.1028 117.936 101.405 91.4316 120.282 80.5332C139.159 69.6348 154.461 78.4697 154.461 100.267Z" fill="white" stroke="#1019EF" stroke-width="6.4"/>
<mask id="path-2-inside-1_787_1651" fill="white">
<path d="M120.132 132.533L164.934 106.667L164.934 137.067L120.132 162.933L120.132 132.533Z"/>
</mask>
<path d="M120.132 132.533L164.934 106.667L164.934 137.067L120.132 162.933L120.132 132.533Z" fill="white"/>
<path d="M164.934 106.667L170.477 103.467L170.477 97.0665L164.934 100.267L164.934 106.667ZM164.934 137.067L164.934 143.467L170.477 140.267L170.477 133.867L164.934 137.067ZM120.132 138.933L164.934 113.067L164.934 100.267L120.132 126.133L120.132 138.933ZM159.391 109.867L159.391 140.267L170.477 133.867L170.477 103.467L159.391 109.867ZM164.934 130.667L120.132 156.533L120.132 169.333L164.934 143.467L164.934 130.667Z" fill="#1019EF" mask="url(#path-2-inside-1_787_1651)"/>
<path d="M104.665 138.665L150.729 110.933L148.132 125.066L104.665 151.208L104.665 138.665Z" fill="white"/>
<path d="M99.6371 145.715L99.6371 126.959L99.2942 127.157L94.2435 134.393L94.2435 128.489L100.354 119.669L104.688 117.167L104.688 142.799L99.6371 145.715ZM116.928 136.416C115.182 137.424 113.623 137.952 112.251 138C110.9 138.012 109.84 137.568 109.071 136.668C108.323 135.756 107.949 134.448 107.949 132.744C107.949 131.712 108.146 130.506 108.541 129.126C108.936 127.746 109.508 126.252 110.256 124.644L116.928 110.1L122.664 106.788L116.803 119.388C117.156 119.064 117.499 118.782 117.832 118.542C118.185 118.266 118.518 118.038 118.829 117.858C120.243 117.042 121.49 116.682 122.571 116.778C123.672 116.838 124.535 117.312 125.158 118.2C125.782 119.088 126.094 120.336 126.094 121.944C126.094 123.744 125.699 125.568 124.909 127.416C124.14 129.252 123.059 130.956 121.667 132.528C120.295 134.088 118.715 135.384 116.928 136.416ZM117.084 131.502C117.832 131.07 118.497 130.506 119.079 129.81C119.661 129.09 120.108 128.316 120.419 127.488C120.752 126.624 120.918 125.76 120.918 124.896C120.918 124.056 120.752 123.42 120.419 122.988C120.108 122.52 119.661 122.274 119.079 122.25C118.497 122.226 117.832 122.43 117.084 122.862C116.335 123.294 115.649 123.87 115.026 124.59C114.423 125.274 113.955 126.036 113.623 126.876C113.29 127.716 113.124 128.556 113.124 129.396C113.124 130.26 113.29 130.932 113.623 131.412C113.955 131.892 114.423 132.138 115.026 132.15C115.649 132.15 116.335 131.934 117.084 131.502ZM137.33 97.6369C139.076 96.6289 140.625 96.1189 141.976 96.1069C143.347 96.0589 144.407 96.4909 145.156 97.4029C145.925 98.3029 146.309 99.5929 146.309 101.273C146.309 102.305 146.112 103.511 145.717 104.891C145.322 106.271 144.761 107.759 144.033 109.355L137.33 123.917L131.594 127.229L137.455 114.629C137.102 114.953 136.748 115.253 136.395 115.529C136.062 115.769 135.74 115.979 135.428 116.159C134.015 116.975 132.758 117.353 131.656 117.293C130.575 117.221 129.723 116.741 129.1 115.853C128.476 114.941 128.164 113.693 128.164 112.109C128.164 110.309 128.549 108.491 129.318 106.655C130.108 104.807 131.188 103.103 132.56 101.543C133.953 99.9709 135.543 98.6689 137.33 97.6369ZM137.174 102.551C136.447 102.971 135.792 103.529 135.21 104.225C134.628 104.921 134.171 105.701 133.838 106.565C133.506 107.405 133.34 108.257 133.34 109.121C133.34 109.961 133.506 110.609 133.838 111.065C134.171 111.497 134.628 111.737 135.21 111.785C135.792 111.809 136.447 111.611 137.174 111.191C137.923 110.759 138.598 110.189 139.201 109.481C139.824 108.761 140.302 107.981 140.635 107.141C140.968 106.301 141.134 105.461 141.134 104.621C141.134 103.757 140.968 103.085 140.635 102.605C140.302 102.125 139.824 101.897 139.201 101.921C138.598 101.909 137.923 102.119 137.174 102.551Z" fill="black"/>
</svg>
