<svg width="256" height="256" viewBox="0 0 256 256" fill="none" xmlns="http://www.w3.org/2000/svg">
<path d="M154.461 100.267C154.461 122.064 139.159 148.568 120.282 159.467C101.405 170.365 86.1028 161.53 86.1028 139.733C86.1028 117.937 101.405 91.4318 120.282 80.5334C139.159 69.635 154.461 78.4699 154.461 100.267Z" fill="white" stroke="#1019EF" stroke-width="6.4"/>
<mask id="path-2-inside-1_787_808" fill="white">
<path d="M120.132 132.533L164.934 106.667L164.934 137.067L120.132 162.933L120.132 132.533Z"/>
</mask>
<path d="M120.132 132.533L164.934 106.667L164.934 137.067L120.132 162.933L120.132 132.533Z" fill="white"/>
<path d="M164.934 106.667L170.477 103.467L170.477 97.0668L164.934 100.267L164.934 106.667ZM164.934 137.067L164.934 143.467L170.477 140.267L170.477 133.867L164.934 137.067ZM120.132 138.933L164.934 113.067L164.934 100.267L120.132 126.133L120.132 138.933ZM159.391 109.867L159.391 140.267L170.477 133.867L170.477 103.467L159.391 109.867ZM164.934 130.667L120.132 156.533L120.132 169.333L164.934 143.467L164.934 130.667Z" fill="#1019EF" mask="url(#path-2-inside-1_787_808)"/>
<path d="M104.665 138.666L150.729 110.933L148.132 125.067L104.665 151.209L104.665 138.666Z" fill="white"/>
<path d="M105.065 109.077C107.652 107.584 109.946 106.828 111.947 106.81C113.98 106.739 115.55 107.379 116.659 108.73C117.798 110.064 118.368 111.975 118.368 114.464C118.368 115.993 118.075 117.779 117.49 119.824C116.905 121.868 116.074 124.073 114.996 126.437L105.065 148.01L96.5668 152.917L105.25 134.25C104.727 134.73 104.203 135.175 103.68 135.584C103.187 135.939 102.71 136.25 102.248 136.517C100.154 137.726 98.2912 138.286 96.6592 138.197C95.058 138.09 93.7955 137.379 92.8718 136.064C91.948 134.713 91.4861 132.864 91.4861 130.517C91.4861 127.85 92.0558 125.157 93.1951 122.437C94.3652 119.699 95.9664 117.175 97.9986 114.864C100.062 112.535 102.417 110.606 105.065 109.077ZM104.834 116.357C103.757 116.979 102.787 117.806 101.925 118.837C101.062 119.868 100.385 121.024 99.8924 122.304C99.3997 123.548 99.1533 124.81 99.1533 126.09C99.1533 127.335 99.3997 128.295 99.8924 128.97C100.385 129.61 101.062 129.966 101.925 130.037C102.787 130.073 103.757 129.779 104.834 129.157C105.943 128.517 106.944 127.673 107.837 126.624C108.76 125.557 109.469 124.402 109.961 123.157C110.454 121.913 110.7 120.668 110.7 119.424C110.7 118.144 110.454 117.148 109.961 116.437C109.469 115.726 108.76 115.388 107.837 115.424C106.944 115.406 105.943 115.717 104.834 116.357ZM136.909 130.692C133.984 132.381 131.382 133.048 129.103 132.692C126.856 132.283 125.1 130.932 123.838 128.639C122.575 126.31 121.944 123.208 121.944 119.332C121.944 115.457 122.575 111.643 123.838 107.892C125.1 104.105 126.856 100.728 129.103 97.7588C131.382 94.7366 133.984 92.381 136.909 90.6921C139.804 89.021 142.39 88.381 144.669 88.7721C146.947 89.1277 148.718 90.4699 149.98 92.7988C151.243 95.0921 151.874 98.1765 151.874 102.052C151.874 105.928 151.243 109.759 149.98 113.545C148.718 117.297 146.947 120.683 144.669 123.705C142.39 126.692 139.804 129.021 136.909 130.692ZM136.909 123.065C138.356 122.23 139.619 120.985 140.697 119.332C141.805 117.661 142.667 115.705 143.283 113.465C143.899 111.225 144.207 108.897 144.207 106.479C144.207 104.061 143.899 102.088 143.283 100.559C142.667 99.0299 141.805 98.0699 140.697 97.6788C139.619 97.2699 138.356 97.4832 136.909 98.3188C135.462 99.1543 134.184 100.408 133.076 102.079C131.967 103.75 131.105 105.705 130.489 107.945C129.904 110.168 129.611 112.488 129.611 114.905C129.611 117.323 129.904 119.305 130.489 120.852C131.105 122.381 131.967 123.341 133.076 123.732C134.184 124.123 135.462 123.901 136.909 123.065Z" fill="black"/>
</svg>
