<svg width="256" height="256" viewBox="0 0 256 256" fill="none" xmlns="http://www.w3.org/2000/svg">
<path d="M154.461 100.267C154.461 122.063 139.159 148.568 120.282 159.467C101.405 170.365 86.1028 161.53 86.1028 139.733C86.1028 117.936 101.405 91.4316 120.282 80.5332C139.159 69.6348 154.461 78.4697 154.461 100.267Z" fill="white" stroke="#1019EF" stroke-width="6.4"/>
<mask id="path-2-inside-1_787_2092" fill="white">
<path d="M120.132 132.533L164.934 106.667L164.934 137.067L120.132 162.933L120.132 132.533Z"/>
</mask>
<path d="M120.132 132.533L164.934 106.667L164.934 137.067L120.132 162.933L120.132 132.533Z" fill="white"/>
<path d="M164.934 106.667L170.477 103.467L170.477 97.0665L164.934 100.267L164.934 106.667ZM164.934 137.067L164.934 143.467L170.477 140.267L170.477 133.867L164.934 137.067ZM120.132 138.933L164.934 113.067L164.934 100.267L120.132 126.133L120.132 138.933ZM159.391 109.867L159.391 140.267L170.477 133.867L170.477 103.467L159.391 109.867ZM164.934 130.667L120.132 156.533L120.132 169.333L164.934 143.467L164.934 130.667Z" fill="#1019EF" mask="url(#path-2-inside-1_787_2092)"/>
<path d="M104.665 138.665L150.729 110.933L148.132 125.066L104.665 151.208L104.665 138.665Z" fill="white"/>
<path d="M92.1241 150.053L92.1241 146.741L101.384 131.927C101.446 131.819 101.508 131.711 101.571 131.603C101.654 131.483 101.727 131.369 101.789 131.261C102.662 129.845 103.285 128.717 103.66 127.877C104.054 127.025 104.252 126.203 104.252 125.411C104.252 124.691 104.096 124.133 103.784 123.737C103.473 123.317 103.057 123.089 102.537 123.053C102.018 123.017 101.436 123.185 100.791 123.557C100.043 123.989 99.3676 124.595 98.7648 125.375C98.1828 126.143 97.7152 127.025 97.3618 128.021C97.0293 128.981 96.8422 129.989 96.8007 131.045L92.1865 133.709C92.1865 133.613 92.1865 133.517 92.1865 133.421C92.1865 131.645 92.5398 129.809 93.2465 127.913C93.9532 126.017 94.9716 124.253 96.3018 122.621C97.632 120.989 99.1493 119.681 100.854 118.697C102.413 117.797 103.815 117.347 105.063 117.347C106.31 117.323 107.286 117.731 107.993 118.571C108.7 119.387 109.053 120.575 109.053 122.135C109.053 123.575 108.689 125.129 107.962 126.797C107.235 128.465 106.133 130.457 104.657 132.773L99.5131 140.891L99.5131 141.251L108.554 136.031L108.554 140.567L92.1241 150.053ZM111.397 138.926L111.397 135.614L120.656 120.8C120.718 120.692 120.781 120.584 120.843 120.476C120.926 120.356 120.999 120.242 121.061 120.134C121.934 118.718 122.558 117.59 122.932 116.75C123.327 115.898 123.524 115.076 123.524 114.284C123.524 113.564 123.369 113.006 123.057 112.61C122.745 112.19 122.329 111.962 121.81 111.926C121.29 111.89 120.708 112.058 120.064 112.43C119.316 112.862 118.64 113.468 118.037 114.248C117.455 115.016 116.988 115.898 116.634 116.894C116.302 117.854 116.115 118.862 116.073 119.918L111.459 122.582C111.459 122.486 111.459 122.39 111.459 122.294C111.459 120.518 111.812 118.682 112.519 116.786C113.226 114.89 114.244 113.126 115.574 111.494C116.904 109.862 118.422 108.554 120.126 107.57C121.685 106.67 123.088 106.22 124.335 106.22C125.582 106.196 126.559 106.604 127.266 107.444C127.972 108.26 128.326 109.448 128.326 111.008C128.326 112.448 127.962 114.002 127.234 115.67C126.507 117.338 125.405 119.33 123.93 121.646L118.785 129.764L118.785 130.124L127.827 124.904L127.827 129.44L111.397 138.926ZM139.648 123.263C137.819 124.319 136.219 124.931 134.847 125.099C133.496 125.231 132.436 124.943 131.667 124.235C130.918 123.515 130.544 122.411 130.544 120.923C130.544 119.315 130.95 117.713 131.76 116.117C132.571 114.521 133.61 113.177 134.878 112.085L134.878 111.725C133.88 111.845 133.059 111.611 132.415 111.023C131.791 110.399 131.48 109.427 131.48 108.107C131.48 106.691 131.812 105.251 132.477 103.787C133.163 102.311 134.119 100.931 135.346 99.6468C136.593 98.3508 138.027 97.2348 139.648 96.2988C141.228 95.3868 142.631 94.8768 143.857 94.7688C145.083 94.6608 146.039 94.9488 146.725 95.6328C147.432 96.2808 147.785 97.3008 147.785 98.6928C147.785 100.013 147.463 101.351 146.819 102.707C146.195 104.027 145.374 105.209 144.356 106.253L144.356 106.613C145.644 106.229 146.694 106.367 147.505 107.027C148.315 107.687 148.72 108.821 148.72 110.429C148.72 111.917 148.336 113.459 147.567 115.055C146.819 116.639 145.759 118.151 144.387 119.591C143.015 121.007 141.435 122.231 139.648 123.263ZM139.648 107.387C140.272 107.027 140.833 106.571 141.332 106.019C141.851 105.431 142.256 104.813 142.547 104.165C142.838 103.493 142.984 102.845 142.984 102.221C142.984 101.621 142.838 101.165 142.547 100.853C142.256 100.517 141.851 100.367 141.332 100.403C140.833 100.403 140.272 100.583 139.648 100.943C138.983 101.327 138.39 101.813 137.871 102.401C137.372 102.953 136.977 103.565 136.686 104.237C136.416 104.873 136.281 105.491 136.281 106.091C136.281 106.715 136.416 107.201 136.686 107.549C136.977 107.861 137.382 108.011 137.902 107.999C138.422 107.963 139.004 107.759 139.648 107.387ZM139.648 118.583C140.334 118.187 140.968 117.677 141.55 117.053C142.132 116.405 142.579 115.715 142.89 114.983C143.202 114.227 143.358 113.501 143.358 112.805C143.358 112.085 143.192 111.545 142.859 111.185C142.547 110.813 142.101 110.639 141.519 110.663C140.957 110.675 140.334 110.879 139.648 111.275C138.921 111.695 138.276 112.223 137.715 112.859C137.154 113.495 136.707 114.185 136.374 114.929C136.063 115.661 135.907 116.387 135.907 117.107C135.907 117.803 136.063 118.349 136.374 118.745C136.707 119.105 137.154 119.279 137.715 119.267C138.276 119.231 138.921 119.003 139.648 118.583Z" fill="black"/>
</svg>
