<svg width="256" height="256" viewBox="0 0 256 256" fill="none" xmlns="http://www.w3.org/2000/svg">
<path d="M154.461 100.267C154.461 122.064 139.159 148.568 120.282 159.467C101.405 170.365 86.1028 161.53 86.1028 139.733C86.1028 117.937 101.405 91.4318 120.282 80.5334C139.159 69.635 154.461 78.4699 154.461 100.267Z" fill="white" stroke="#1019EF" stroke-width="6.4"/>
<mask id="path-2-inside-1_787_796" fill="white">
<path d="M120.132 132.533L164.934 106.667L164.934 137.067L120.132 162.933L120.132 132.533Z"/>
</mask>
<path d="M120.132 132.533L164.934 106.667L164.934 137.067L120.132 162.933L120.132 132.533Z" fill="white"/>
<path d="M164.934 106.667L170.477 103.467L170.477 97.0668L164.934 100.267L164.934 106.667ZM164.934 137.067L164.934 143.467L170.477 140.267L170.477 133.867L164.934 137.067ZM120.132 138.933L164.934 113.067L164.934 100.267L120.132 126.133L120.132 138.933ZM159.391 109.867L159.391 140.267L170.477 133.867L170.477 103.467L159.391 109.867ZM164.934 130.667L120.132 156.533L120.132 169.333L164.934 143.467L164.934 130.667Z" fill="#1019EF" mask="url(#path-2-inside-1_787_796)"/>
<path d="M104.665 138.666L150.729 110.933L148.132 125.067L104.665 151.209L104.665 138.666Z" fill="white"/>
<path d="M99.2321 151.432L110.179 114.285L95.3062 122.872L95.3062 115.725L118.816 102.152L118.816 107.325L107.176 146.845L99.2321 151.432ZM134.845 131.831C132.135 133.395 129.764 134.302 127.732 134.551C125.73 134.746 124.16 134.319 123.021 133.271C121.912 132.204 121.358 130.568 121.358 128.364C121.358 125.982 121.958 123.608 123.159 121.244C124.36 118.879 125.9 116.888 127.778 115.271L127.778 114.737C126.3 114.915 125.084 114.568 124.129 113.697C123.206 112.773 122.744 111.333 122.744 109.377C122.744 107.279 123.236 105.146 124.222 102.977C125.238 100.791 126.654 98.7461 128.471 96.8439C130.318 94.9239 132.443 93.2705 134.845 91.8839C137.185 90.5328 139.264 89.7772 141.08 89.6172C142.897 89.4572 144.313 89.8839 145.33 90.8972C146.377 91.8572 146.9 93.3683 146.9 95.4305C146.9 97.3861 146.423 99.3683 145.468 101.377C144.544 103.333 143.328 105.084 141.819 106.631L141.819 107.164C143.728 106.595 145.283 106.799 146.484 107.777C147.685 108.755 148.286 110.435 148.286 112.817C148.286 115.022 147.716 117.306 146.577 119.671C145.468 122.017 143.898 124.257 141.865 126.391C139.833 128.488 137.493 130.302 134.845 131.831ZM134.845 108.311C135.769 107.777 136.6 107.102 137.339 106.284C138.109 105.413 138.709 104.497 139.14 103.537C139.571 102.542 139.787 101.582 139.787 100.657C139.787 99.7683 139.571 99.0928 139.14 98.6305C138.709 98.1328 138.109 97.9105 137.339 97.9639C136.6 97.9639 135.769 98.2305 134.845 98.7639C133.86 99.3328 132.982 100.053 132.212 100.924C131.473 101.742 130.888 102.648 130.457 103.644C130.057 104.586 129.857 105.502 129.857 106.391C129.857 107.315 130.057 108.035 130.457 108.551C130.888 109.013 131.489 109.235 132.258 109.217C133.028 109.164 133.89 108.862 134.845 108.311ZM134.845 124.897C135.861 124.311 136.8 123.555 137.662 122.631C138.525 121.671 139.187 120.648 139.648 119.564C140.11 118.444 140.341 117.368 140.341 116.337C140.341 115.271 140.095 114.471 139.602 113.937C139.14 113.386 138.478 113.128 137.616 113.164C136.785 113.182 135.861 113.484 134.845 114.071C133.767 114.693 132.813 115.475 131.981 116.417C131.15 117.359 130.488 118.382 129.995 119.484C129.533 120.568 129.302 121.644 129.302 122.711C129.302 123.742 129.533 124.551 129.995 125.137C130.488 125.671 131.15 125.928 131.981 125.911C132.813 125.857 133.767 125.519 134.845 124.897Z" fill="black"/>
</svg>
