<svg width="256" height="256" viewBox="0 0 256 256" fill="none" xmlns="http://www.w3.org/2000/svg">
<path d="M154.461 100.267C154.461 122.063 139.159 148.568 120.282 159.467C101.405 170.365 86.1028 161.53 86.1028 139.733C86.1028 117.936 101.405 91.4317 120.282 80.5333C139.159 69.6349 154.461 78.4698 154.461 100.267Z" fill="white" stroke="#1019EF" stroke-width="6.4"/>
<mask id="path-2-inside-1_787_766" fill="white">
<path d="M120.132 132.533L164.934 106.667L164.934 137.067L120.132 162.933L120.132 132.533Z"/>
</mask>
<path d="M120.132 132.533L164.934 106.667L164.934 137.067L120.132 162.933L120.132 132.533Z" fill="white"/>
<path d="M164.934 106.667L170.477 103.467L170.477 97.0665L164.934 100.267L164.934 106.667ZM164.934 137.067L164.934 143.467L170.477 140.267L170.477 133.867L164.934 137.067ZM120.132 138.933L164.934 113.067L164.934 100.267L120.132 126.133L120.132 138.933ZM159.391 109.867L159.391 140.267L170.477 133.867L170.477 103.467L159.391 109.867ZM164.934 130.667L120.132 156.533L120.132 169.333L164.934 143.467L164.934 130.667Z" fill="#1019EF" mask="url(#path-2-inside-1_787_766)"/>
<path d="M104.665 138.665L150.729 110.933L148.132 125.067L104.665 151.209L104.665 138.665Z" fill="white"/>
<path d="M108.393 146.143L108.393 138.303L92.6425 147.396L92.6425 142.543L105.159 110.036L116.06 103.743L116.06 127.209L119.893 124.996L119.893 131.663L116.06 133.876L116.06 141.716L108.393 146.143ZM100.079 136.436L108.346 131.663L108.346 115.556L107.885 115.823L100.079 136.436ZM136.735 130.739C134.025 132.304 131.654 133.21 129.622 133.459C127.62 133.655 126.05 133.228 124.911 132.179C123.802 131.113 123.248 129.477 123.248 127.273C123.248 124.891 123.848 122.517 125.049 120.153C126.25 117.788 127.79 115.797 129.668 114.179L129.668 113.646C128.19 113.824 126.974 113.477 126.019 112.606C125.095 111.682 124.633 110.242 124.633 108.286C124.633 106.188 125.126 104.055 126.112 101.886C127.128 99.6994 128.544 97.655 130.361 95.7527C132.208 93.8327 134.333 92.1794 136.735 90.7927C139.075 89.4416 141.153 88.6861 142.97 88.5261C144.787 88.3661 146.203 88.7927 147.219 89.8061C148.266 90.7661 148.79 92.2772 148.79 94.3394C148.79 96.2949 148.313 98.2772 147.358 100.286C146.434 102.242 145.218 103.993 143.709 105.539L143.709 106.073C145.618 105.504 147.173 105.708 148.374 106.686C149.575 107.664 150.175 109.344 150.175 111.726C150.175 113.93 149.606 116.215 148.466 118.579C147.358 120.926 145.788 123.166 143.755 125.299C141.723 127.397 139.383 129.21 136.735 130.739ZM136.735 107.219C137.659 106.686 138.49 106.011 139.229 105.193C139.999 104.322 140.599 103.406 141.03 102.446C141.461 101.451 141.677 100.491 141.677 99.5661C141.677 98.6772 141.461 98.0016 141.03 97.5394C140.599 97.0416 139.999 96.8194 139.229 96.8727C138.49 96.8727 137.659 97.1394 136.735 97.6727C135.749 98.2416 134.872 98.9616 134.102 99.8327C133.363 100.651 132.778 101.557 132.347 102.553C131.947 103.495 131.746 104.411 131.746 105.299C131.746 106.224 131.947 106.944 132.347 107.459C132.778 107.922 133.378 108.144 134.148 108.126C134.918 108.073 135.78 107.771 136.735 107.219ZM136.735 123.806C137.751 123.219 138.69 122.464 139.552 121.539C140.414 120.579 141.076 119.557 141.538 118.473C142 117.353 142.231 116.277 142.231 115.246C142.231 114.179 141.985 113.379 141.492 112.846C141.03 112.295 140.368 112.037 139.506 112.073C138.675 112.091 137.751 112.393 136.735 112.979C135.657 113.602 134.702 114.384 133.871 115.326C133.04 116.268 132.378 117.291 131.885 118.393C131.423 119.477 131.192 120.553 131.192 121.619C131.192 122.651 131.423 123.459 131.885 124.046C132.378 124.579 133.04 124.837 133.871 124.819C134.702 124.766 135.657 124.428 136.735 123.806Z" fill="black"/>
</svg>
