<svg width="256" height="256" viewBox="0 0 256 256" fill="none" xmlns="http://www.w3.org/2000/svg">
<path d="M154.461 100.267C154.461 122.064 139.159 148.568 120.282 159.467C101.405 170.365 86.1028 161.53 86.1028 139.733C86.1028 117.937 101.405 91.4318 120.282 80.5334C139.159 69.635 154.461 78.4699 154.461 100.267Z" fill="white" stroke="#1019EF" stroke-width="6.4"/>
<mask id="path-2-inside-1_787_1226" fill="white">
<path d="M120.132 132.533L164.934 106.667L164.934 137.067L120.132 162.933L120.132 132.533Z"/>
</mask>
<path d="M120.132 132.533L164.934 106.667L164.934 137.067L120.132 162.933L120.132 132.533Z" fill="white"/>
<path d="M164.934 106.667L170.477 103.467L170.477 97.0668L164.934 100.267L164.934 106.667ZM164.934 137.067L164.934 143.467L170.477 140.267L170.477 133.867L164.934 137.067ZM120.132 138.933L164.934 113.067L164.934 100.267L120.132 126.133L120.132 138.933ZM159.391 109.867L159.391 140.267L170.477 133.867L170.477 103.467L159.391 109.867ZM164.934 130.667L120.132 156.533L120.132 169.333L164.934 143.467L164.934 130.667Z" fill="#1019EF" mask="url(#path-2-inside-1_787_1226)"/>
<path d="M104.665 138.666L150.729 110.933L148.132 125.067L104.665 151.209L104.665 138.666Z" fill="white"/>
<path d="M99.676 145.693L99.676 126.937L99.3331 127.135L94.2824 134.371L94.2824 128.467L100.393 119.647L104.727 117.145L104.727 142.777L99.676 145.693ZM108.299 140.714L108.299 137.402L117.559 122.588C117.621 122.48 117.684 122.372 117.746 122.264C117.829 122.144 117.902 122.03 117.964 121.922C118.837 120.506 119.461 119.378 119.835 118.538C120.23 117.686 120.427 116.864 120.427 116.072C120.427 115.352 120.271 114.794 119.96 114.398C119.648 113.978 119.232 113.75 118.712 113.714C118.193 113.678 117.611 113.846 116.967 114.218C116.218 114.65 115.543 115.256 114.94 116.036C114.358 116.804 113.89 117.686 113.537 118.682C113.205 119.642 113.017 120.65 112.976 121.706L108.362 124.37C108.362 124.274 108.362 124.178 108.362 124.082C108.362 122.306 108.715 120.47 109.422 118.574C110.128 116.678 111.147 114.914 112.477 113.282C113.807 111.65 115.325 110.342 117.029 109.358C118.588 108.458 119.991 108.008 121.238 108.008C122.485 107.984 123.462 108.392 124.168 109.232C124.875 110.048 125.228 111.236 125.228 112.796C125.228 114.236 124.865 115.79 124.137 117.458C123.41 119.126 122.308 121.118 120.832 123.434L115.688 131.552L115.688 131.912L124.73 126.692L124.73 131.228L108.299 140.714ZM136.239 125.267C134.493 126.275 132.934 126.803 131.562 126.851C130.211 126.863 129.151 126.419 128.382 125.519C127.634 124.607 127.26 123.299 127.26 121.595C127.26 120.563 127.457 119.357 127.852 117.977C128.247 116.597 128.819 115.103 129.567 113.495L136.239 98.9509L141.976 95.6389L136.114 108.239C136.468 107.915 136.811 107.633 137.143 107.393C137.496 107.117 137.829 106.889 138.141 106.709C139.554 105.893 140.801 105.533 141.882 105.629C142.984 105.689 143.846 106.163 144.47 107.051C145.093 107.939 145.405 109.187 145.405 110.795C145.405 112.595 145.01 114.419 144.22 116.267C143.451 118.103 142.37 119.807 140.978 121.379C139.606 122.939 138.026 124.235 136.239 125.267ZM136.395 120.353C137.143 119.921 137.808 119.357 138.39 118.661C138.972 117.941 139.419 117.167 139.731 116.339C140.063 115.475 140.23 114.611 140.23 113.747C140.23 112.907 140.063 112.271 139.731 111.839C139.419 111.371 138.972 111.125 138.39 111.101C137.808 111.077 137.143 111.281 136.395 111.713C135.647 112.145 134.961 112.721 134.337 113.441C133.734 114.125 133.267 114.887 132.934 115.727C132.602 116.567 132.435 117.407 132.435 118.247C132.435 119.111 132.602 119.783 132.934 120.263C133.267 120.743 133.734 120.989 134.337 121.001C134.961 121.001 135.647 120.785 136.395 120.353Z" fill="black"/>
</svg>
