<svg width="256" height="256" viewBox="0 0 256 256" fill="none" xmlns="http://www.w3.org/2000/svg">
<path d="M154.461 100.267C154.461 122.064 139.159 148.568 120.282 159.467C101.405 170.365 86.1028 161.53 86.1028 139.733C86.1028 117.937 101.405 91.4318 120.282 80.5334C139.159 69.635 154.461 78.4699 154.461 100.267Z" fill="white" stroke="#1019EF" stroke-width="6.4"/>
<mask id="path-2-inside-1_787_1199" fill="white">
<path d="M120.132 132.533L164.934 106.667L164.934 137.067L120.132 162.933L120.132 132.533Z"/>
</mask>
<path d="M120.132 132.533L164.934 106.667L164.934 137.067L120.132 162.933L120.132 132.533Z" fill="white"/>
<path d="M164.934 106.667L170.477 103.467L170.477 97.0668L164.934 100.267L164.934 106.667ZM164.934 137.067L164.934 143.467L170.477 140.267L170.477 133.867L164.934 137.067ZM120.132 138.933L164.934 113.067L164.934 100.267L120.132 126.133L120.132 138.933ZM159.391 109.867L159.391 140.267L170.477 133.867L170.477 103.467L159.391 109.867ZM164.934 130.667L120.132 156.533L120.132 169.333L164.934 143.467L164.934 130.667Z" fill="#1019EF" mask="url(#path-2-inside-1_787_1199)"/>
<path d="M104.665 138.666L150.729 110.933L148.132 125.067L104.665 151.209L104.665 138.666Z" fill="white"/>
<path d="M107.072 107.918C109.659 106.425 111.953 105.669 113.954 105.652C115.987 105.58 117.557 106.22 118.666 107.572C119.805 108.905 120.375 110.816 120.375 113.305C120.375 114.834 120.082 116.62 119.497 118.665C118.912 120.709 118.081 122.914 117.003 125.278L107.072 146.852L98.5739 151.758L107.257 133.092C106.734 133.572 106.21 134.016 105.687 134.425C105.194 134.78 104.717 135.092 104.255 135.358C102.161 136.567 100.298 137.127 98.6663 137.038C97.0651 136.932 95.8026 136.22 94.8789 134.905C93.9551 133.554 93.4932 131.705 93.4932 129.358C93.4932 126.692 94.0629 123.998 95.2022 121.278C96.3723 118.54 97.9734 116.016 100.006 113.705C102.069 111.376 104.424 109.447 107.072 107.918ZM106.842 115.198C105.764 115.82 104.794 116.647 103.932 117.678C103.07 118.709 102.392 119.865 101.899 121.145C101.407 122.389 101.16 123.652 101.16 124.932C101.16 126.176 101.407 127.136 101.899 127.812C102.392 128.452 103.07 128.807 103.932 128.878C104.794 128.914 105.764 128.62 106.842 127.998C107.95 127.358 108.951 126.514 109.844 125.465C110.768 124.398 111.476 123.243 111.968 121.998C112.461 120.754 112.707 119.509 112.707 118.265C112.707 116.985 112.461 115.989 111.968 115.278C111.476 114.567 110.768 114.229 109.844 114.265C108.951 114.247 107.95 114.558 106.842 115.198ZM137.023 90.6266C139.609 89.1333 141.903 88.3777 143.905 88.3599C145.937 88.2888 147.507 88.9288 148.616 90.2799C149.755 91.6132 150.325 93.5244 150.325 96.0132C150.325 97.5421 150.032 99.3288 149.447 101.373C148.862 103.418 148.031 105.622 146.953 107.987L137.023 129.56L128.524 134.467L137.207 115.8C136.684 116.28 136.16 116.724 135.637 117.133C135.144 117.489 134.667 117.8 134.205 118.067C132.111 119.275 130.248 119.835 128.616 119.747C127.015 119.64 125.753 118.929 124.829 117.613C123.905 116.262 123.443 114.413 123.443 112.067C123.443 109.4 124.013 106.707 125.152 103.987C126.322 101.249 127.923 98.7244 129.956 96.4133C132.019 94.0844 134.374 92.1555 137.023 90.6266ZM136.792 97.9066C135.714 98.5288 134.744 99.3555 133.882 100.387C133.02 101.418 132.342 102.573 131.849 103.853C131.357 105.098 131.11 106.36 131.11 107.64C131.11 108.884 131.357 109.844 131.849 110.52C132.342 111.16 133.02 111.515 133.882 111.587C134.744 111.622 135.714 111.329 136.792 110.707C137.9 110.067 138.901 109.222 139.794 108.173C140.718 107.107 141.426 105.951 141.918 104.707C142.411 103.462 142.657 102.218 142.657 100.973C142.657 99.6932 142.411 98.6977 141.918 97.9866C141.426 97.2755 140.718 96.9377 139.794 96.9732C138.901 96.9555 137.9 97.2666 136.792 97.9066Z" fill="black"/>
</svg>
