<svg width="256" height="256" viewBox="0 0 256 256" fill="none" xmlns="http://www.w3.org/2000/svg">
<path d="M154.461 100.267C154.461 122.064 139.159 148.568 120.282 159.467C101.405 170.365 86.1028 161.53 86.1028 139.733C86.1028 117.937 101.405 91.4318 120.282 80.5334C139.159 69.635 154.461 78.4699 154.461 100.267Z" fill="white" stroke="#1019EF" stroke-width="6.4"/>
<mask id="path-2-inside-1_787_807" fill="white">
<path d="M120.132 132.533L164.934 106.667L164.934 137.067L120.132 162.933L120.132 132.533Z"/>
</mask>
<path d="M120.132 132.533L164.934 106.667L164.934 137.067L120.132 162.933L120.132 132.533Z" fill="white"/>
<path d="M164.934 106.667L170.477 103.467L170.477 97.0668L164.934 100.267L164.934 106.667ZM164.934 137.067L164.934 143.467L170.477 140.267L170.477 133.867L164.934 137.067ZM120.132 138.933L164.934 113.067L164.934 100.267L120.132 126.133L120.132 138.933ZM159.391 109.867L159.391 140.267L170.477 133.867L170.477 103.467L159.391 109.867ZM164.934 130.667L120.132 156.533L120.132 169.333L164.934 143.467L164.934 130.667Z" fill="#1019EF" mask="url(#path-2-inside-1_787_807)"/>
<path d="M104.665 138.666L150.729 110.933L148.132 125.067L104.665 151.209L104.665 138.666Z" fill="white"/>
<path d="M106.965 147.927C104.255 149.491 101.884 150.398 99.8522 150.647C97.8507 150.842 96.2803 150.416 95.141 149.367C94.0325 148.3 93.4782 146.665 93.4782 144.46C93.4782 142.078 94.0787 139.705 95.2796 137.34C96.4805 134.976 98.0201 132.985 99.8984 131.367L99.8984 130.834C98.4204 131.011 97.2041 130.665 96.2495 129.794C95.3258 128.869 94.8639 127.429 94.8639 125.474C94.8639 123.376 95.3566 121.242 96.3419 119.074C97.358 116.887 98.7745 114.842 100.591 112.94C102.439 111.02 104.563 109.367 106.965 107.98C109.305 106.629 111.384 105.874 113.201 105.714C115.017 105.554 116.434 105.98 117.45 106.994C118.497 107.954 119.02 109.465 119.02 111.527C119.02 113.482 118.543 115.465 117.588 117.474C116.665 119.429 115.448 121.18 113.94 122.727L113.94 123.26C115.849 122.691 117.404 122.896 118.605 123.874C119.805 124.851 120.406 126.531 120.406 128.914C120.406 131.118 119.836 133.402 118.697 135.767C117.588 138.114 116.018 140.354 113.986 142.487C111.953 144.585 109.613 146.398 106.965 147.927ZM106.965 124.407C107.889 123.874 108.72 123.198 109.459 122.38C110.229 121.509 110.83 120.594 111.261 119.634C111.692 118.638 111.907 117.678 111.907 116.754C111.907 115.865 111.692 115.189 111.261 114.727C110.83 114.229 110.229 114.007 109.459 114.06C108.72 114.06 107.889 114.327 106.965 114.86C105.98 115.429 105.102 116.149 104.332 117.02C103.593 117.838 103.008 118.745 102.577 119.74C102.177 120.682 101.977 121.598 101.977 122.487C101.977 123.411 102.177 124.131 102.577 124.647C103.008 125.109 103.609 125.331 104.379 125.314C105.148 125.26 106.011 124.958 106.965 124.407ZM106.965 140.994C107.981 140.407 108.92 139.651 109.783 138.727C110.645 137.767 111.307 136.745 111.769 135.66C112.231 134.54 112.462 133.465 112.462 132.434C112.462 131.367 112.215 130.567 111.723 130.034C111.261 129.482 110.599 129.225 109.736 129.26C108.905 129.278 107.981 129.58 106.965 130.167C105.887 130.789 104.933 131.571 104.101 132.514C103.27 133.456 102.608 134.478 102.115 135.58C101.654 136.665 101.423 137.74 101.423 138.807C101.423 139.838 101.654 140.647 102.115 141.234C102.608 141.767 103.27 142.025 104.101 142.007C104.933 141.954 105.887 141.616 106.965 140.994ZM137.361 90.4313C139.947 88.9379 142.241 88.1824 144.243 88.1646C146.275 88.0935 147.845 88.7335 148.954 90.0846C150.093 91.4179 150.663 93.329 150.663 95.8179C150.663 97.3468 150.37 99.1335 149.785 101.178C149.2 103.222 148.369 105.427 147.291 107.791L137.361 129.365L128.862 134.271L137.546 115.605C137.022 116.085 136.499 116.529 135.975 116.938C135.482 117.293 135.005 117.605 134.543 117.871C132.449 119.08 130.587 119.64 128.955 119.551C127.353 119.445 126.091 118.733 125.167 117.418C124.243 116.067 123.782 114.218 123.782 111.871C123.782 109.205 124.351 106.511 125.49 103.791C126.661 101.053 128.262 98.529 130.294 96.2179C132.357 93.8891 134.713 91.9602 137.361 90.4313ZM137.13 97.7113C136.052 98.3335 135.082 99.1602 134.22 100.191C133.358 101.222 132.68 102.378 132.188 103.658C131.695 104.902 131.449 106.165 131.449 107.445C131.449 108.689 131.695 109.649 132.188 110.325C132.68 110.965 133.358 111.32 134.22 111.391C135.082 111.427 136.052 111.133 137.13 110.511C138.238 109.871 139.239 109.027 140.132 107.978C141.056 106.911 141.764 105.756 142.257 104.511C142.749 103.267 142.996 102.022 142.996 100.778C142.996 99.4979 142.749 98.5024 142.257 97.7913C141.764 97.0802 141.056 96.7424 140.132 96.7779C139.239 96.7602 138.238 97.0713 137.13 97.7113Z" fill="black"/>
</svg>
