<svg width="256" height="256" viewBox="0 0 256 256" fill="none" xmlns="http://www.w3.org/2000/svg">
<path d="M154.461 100.267C154.461 122.064 139.159 148.568 120.282 159.467C101.405 170.365 86.1028 161.53 86.1028 139.733C86.1028 117.937 101.405 91.4318 120.282 80.5334C139.159 69.6349 154.461 78.4698 154.461 100.267Z" fill="white" stroke="#1019EF" stroke-width="6.4"/>
<mask id="path-2-inside-1_787_544" fill="white">
<path d="M120.132 132.533L164.934 106.667L164.934 137.067L120.132 162.933L120.132 132.533Z"/>
</mask>
<path d="M120.132 132.533L164.934 106.667L164.934 137.067L120.132 162.933L120.132 132.533Z" fill="white"/>
<path d="M164.934 106.667L170.477 103.467L170.477 97.0666L164.934 100.267L164.934 106.667ZM164.934 137.067L164.934 143.467L170.477 140.267L170.477 133.867L164.934 137.067ZM120.132 138.933L164.934 113.067L164.934 100.267L120.132 126.133L120.132 138.933ZM159.391 109.867L159.391 140.267L170.477 133.867L170.477 103.467L159.391 109.867ZM164.934 130.667L120.132 156.533L120.132 169.333L164.934 143.467L164.934 130.667Z" fill="#1019EF" mask="url(#path-2-inside-1_787_544)"/>
<path d="M104.665 138.665L150.729 110.933L148.132 125.067L104.665 151.209L104.665 138.665Z" fill="white"/>
<path d="M94.881 153.944L94.881 149.037L108.599 127.09C108.691 126.93 108.784 126.77 108.876 126.61C108.999 126.433 109.107 126.264 109.199 126.104C110.493 124.006 111.416 122.335 111.971 121.09C112.556 119.828 112.848 118.61 112.848 117.437C112.848 116.37 112.617 115.544 112.155 114.957C111.693 114.335 111.078 113.997 110.308 113.944C109.538 113.89 108.676 114.139 107.721 114.69C106.613 115.33 105.612 116.228 104.719 117.384C103.857 118.522 103.164 119.828 102.641 121.304C102.148 122.726 101.871 124.219 101.809 125.784L94.9734 129.73C94.9734 129.588 94.9734 129.446 94.9734 129.304C94.9734 126.673 95.4969 123.953 96.5438 121.144C97.5907 118.335 99.0995 115.722 101.07 113.304C103.041 110.886 105.289 108.948 107.814 107.49C110.123 106.157 112.202 105.49 114.049 105.49C115.897 105.455 117.344 106.059 118.391 107.304C119.438 108.513 119.961 110.273 119.961 112.584C119.961 114.717 119.422 117.019 118.345 119.49C117.267 121.962 115.635 124.913 113.449 128.344L105.828 140.37L105.828 140.904L119.222 133.17L119.222 139.89L94.881 153.944ZM137.982 129.059L137.982 121.219L122.232 130.313L122.232 125.459L134.749 92.9527L145.649 86.6594L145.649 110.126L149.483 107.913L149.483 114.579L145.649 116.793L145.649 124.633L137.982 129.059ZM129.668 119.353L137.936 114.579L137.936 98.4727L137.474 98.7394L129.668 119.353Z" fill="black"/>
</svg>
