<svg width="256" height="256" viewBox="0 0 256 256" fill="none" xmlns="http://www.w3.org/2000/svg">
<path d="M154.461 100.267C154.461 122.063 139.159 148.568 120.282 159.467C101.405 170.365 86.1028 161.53 86.1028 139.733C86.1028 117.936 101.405 91.4317 120.282 80.5333C139.159 69.6349 154.461 78.4698 154.461 100.267Z" fill="white" stroke="#1019EF" stroke-width="6.4"/>
<mask id="path-2-inside-1_787_616" fill="white">
<path d="M120.132 132.533L164.934 106.667L164.934 137.067L120.132 162.933L120.132 132.533Z"/>
</mask>
<path d="M120.132 132.533L164.934 106.667L164.934 137.067L120.132 162.933L120.132 132.533Z" fill="white"/>
<path d="M164.934 106.667L170.477 103.467L170.477 97.0665L164.934 100.267L164.934 106.667ZM164.934 137.067L164.934 143.467L170.477 140.267L170.477 133.867L164.934 137.067ZM120.132 138.933L164.934 113.067L164.934 100.267L120.132 126.133L120.132 138.933ZM159.392 109.867L159.392 140.267L170.477 133.867L170.477 103.467L159.392 109.867ZM164.934 130.667L120.132 156.533L120.132 169.333L164.934 143.467L164.934 130.667Z" fill="#1019EF" mask="url(#path-2-inside-1_787_616)"/>
<path d="M104.665 138.665L150.729 110.933L148.132 125.067L104.665 151.209L104.665 138.665Z" fill="white"/>
<path d="M107.756 147.524C105.323 148.928 103.106 149.586 101.104 149.497C99.1337 149.355 97.5634 148.537 96.3933 147.044C95.254 145.497 94.6381 143.364 94.5457 140.644L101.659 136.537C101.659 137.995 101.92 139.142 102.444 139.977C102.967 140.813 103.676 141.311 104.569 141.471C105.492 141.577 106.524 141.302 107.663 140.644C108.772 140.004 109.757 139.168 110.619 138.137C111.481 137.106 112.159 135.986 112.651 134.777C113.144 133.533 113.39 132.324 113.39 131.151C113.39 129.977 113.129 129.062 112.605 128.404C112.113 127.728 111.42 127.382 110.527 127.364C109.665 127.293 108.695 127.568 107.617 128.191C107.155 128.457 106.662 128.813 106.139 129.257C105.615 129.666 105.184 130.057 104.846 130.431L103.183 126.324L109.926 114.537L109.926 114.004L96.6242 121.684L96.6242 114.964L119.395 101.817L119.395 106.991L111.589 120.724C113.313 120.048 114.853 119.888 116.208 120.244C117.594 120.546 118.671 121.346 119.441 122.644C120.242 123.888 120.642 125.524 120.642 127.551C120.642 129.933 120.088 132.404 118.979 134.964C117.901 137.471 116.377 139.844 114.407 142.084C112.436 144.288 110.219 146.102 107.756 147.524ZM123.974 137.147L123.974 132.24L137.692 110.294C137.784 110.134 137.877 109.974 137.969 109.814C138.092 109.636 138.2 109.467 138.292 109.307C139.586 107.209 140.509 105.538 141.064 104.294C141.649 103.031 141.941 101.814 141.941 100.64C141.941 99.5736 141.71 98.7469 141.248 98.1602C140.786 97.538 140.171 97.2002 139.401 97.1469C138.631 97.0936 137.769 97.3425 136.814 97.8936C135.706 98.5336 134.705 99.4313 133.812 100.587C132.95 101.725 132.257 103.031 131.734 104.507C131.241 105.929 130.964 107.422 130.902 108.987L124.066 112.934C124.066 112.791 124.066 112.649 124.066 112.507C124.066 109.876 124.59 107.156 125.637 104.347C126.684 101.538 128.192 98.9247 130.163 96.5069C132.134 94.0891 134.382 92.1513 136.907 90.6936C139.216 89.3602 141.294 88.6936 143.142 88.6936C144.99 88.658 146.437 89.2625 147.484 90.5069C148.531 91.7158 149.054 93.4758 149.054 95.7869C149.054 97.9202 148.515 100.222 147.437 102.694C146.36 105.165 144.728 108.116 142.542 111.547L134.921 123.574L134.921 124.107L148.315 116.374L148.315 123.094L123.974 137.147Z" fill="black"/>
</svg>
