<svg width="256" height="256" viewBox="0 0 256 256" fill="none" xmlns="http://www.w3.org/2000/svg">
<path d="M154.461 100.267C154.461 122.063 139.159 148.568 120.282 159.467C101.405 170.365 86.1028 161.53 86.1028 139.733C86.1028 117.936 101.405 91.4316 120.282 80.5332C139.159 69.6348 154.461 78.4697 154.461 100.267Z" fill="white" stroke="#1019EF" stroke-width="6.4"/>
<mask id="path-2-inside-1_787_1668" fill="white">
<path d="M120.132 132.533L164.934 106.667L164.934 137.067L120.132 162.933L120.132 132.533Z"/>
</mask>
<path d="M120.132 132.533L164.934 106.667L164.934 137.067L120.132 162.933L120.132 132.533Z" fill="white"/>
<path d="M164.934 106.667L170.477 103.467L170.477 97.0665L164.934 100.267L164.934 106.667ZM164.934 137.067L164.934 143.467L170.477 140.267L170.477 133.867L164.934 137.067ZM120.132 138.933L164.934 113.067L164.934 100.267L120.132 126.133L120.132 138.933ZM159.391 109.867L159.391 140.267L170.477 133.867L170.477 103.467L159.391 109.867ZM164.934 130.667L120.132 156.533L120.132 169.333L164.934 143.467L164.934 130.667Z" fill="#1019EF" mask="url(#path-2-inside-1_787_1668)"/>
<path d="M104.665 138.665L150.729 110.933L148.132 125.066L104.665 151.208L104.665 138.665Z" fill="white"/>
<path d="M99.4088 145.847L99.4088 127.091L99.0658 127.289L94.0151 134.525L94.0151 128.621L100.126 119.801L104.459 117.299L104.459 142.931L99.4088 145.847ZM117.011 136.332C115.182 137.388 113.582 138 112.21 138.168C110.859 138.3 109.799 138.012 109.03 137.304C108.282 136.584 107.907 135.48 107.907 133.992C107.907 132.384 108.313 130.782 109.123 129.186C109.934 127.59 110.973 126.246 112.241 125.154L112.241 124.794C111.243 124.914 110.422 124.68 109.778 124.092C109.154 123.468 108.843 122.496 108.843 121.176C108.843 119.76 109.175 118.32 109.84 116.856C110.526 115.38 111.482 114 112.709 112.716C113.956 111.42 115.39 110.304 117.011 109.368C118.591 108.456 119.994 107.946 121.22 107.838C122.446 107.73 123.402 108.018 124.088 108.702C124.795 109.35 125.148 110.37 125.148 111.762C125.148 113.082 124.826 114.42 124.182 115.776C123.558 117.096 122.737 118.278 121.719 119.322L121.719 119.682C123.007 119.298 124.057 119.436 124.868 120.096C125.678 120.756 126.084 121.89 126.084 123.498C126.084 124.986 125.699 126.528 124.93 128.124C124.182 129.708 123.122 131.22 121.75 132.66C120.378 134.076 118.799 135.3 117.011 136.332ZM117.011 120.456C117.635 120.096 118.196 119.64 118.695 119.088C119.214 118.5 119.62 117.882 119.91 117.234C120.201 116.562 120.347 115.914 120.347 115.29C120.347 114.69 120.201 114.234 119.91 113.922C119.62 113.586 119.214 113.436 118.695 113.472C118.196 113.472 117.635 113.652 117.011 114.012C116.346 114.396 115.754 114.882 115.234 115.47C114.735 116.022 114.34 116.634 114.049 117.306C113.779 117.942 113.644 118.56 113.644 119.16C113.644 119.784 113.779 120.27 114.049 120.618C114.34 120.93 114.746 121.08 115.265 121.068C115.785 121.032 116.367 120.828 117.011 120.456ZM117.011 131.652C117.697 131.256 118.331 130.746 118.913 130.122C119.495 129.474 119.942 128.784 120.253 128.052C120.565 127.296 120.721 126.57 120.721 125.874C120.721 125.154 120.555 124.614 120.222 124.254C119.91 123.882 119.464 123.708 118.882 123.732C118.32 123.744 117.697 123.948 117.011 124.344C116.284 124.764 115.639 125.292 115.078 125.928C114.517 126.564 114.07 127.254 113.737 127.998C113.426 128.73 113.27 129.456 113.27 130.176C113.27 130.872 113.426 131.418 113.737 131.814C114.07 132.174 114.517 132.348 115.078 132.336C115.639 132.3 116.284 132.072 117.011 131.652ZM137.372 124.613C135.626 125.621 134.067 126.149 132.696 126.197C131.345 126.209 130.285 125.765 129.516 124.865C128.767 123.953 128.393 122.645 128.393 120.941C128.393 119.909 128.591 118.703 128.986 117.323C129.381 115.943 129.952 114.449 130.7 112.841L137.372 98.2966L143.109 94.9846L137.248 107.585C137.601 107.261 137.944 106.979 138.276 106.739C138.63 106.463 138.962 106.235 139.274 106.055C140.687 105.239 141.934 104.879 143.015 104.975C144.117 105.035 144.979 105.509 145.603 106.397C146.226 107.285 146.538 108.533 146.538 110.141C146.538 111.941 146.143 113.765 145.354 115.613C144.584 117.449 143.504 119.153 142.111 120.725C140.739 122.285 139.16 123.581 137.372 124.613ZM137.528 119.699C138.276 119.267 138.941 118.703 139.523 118.007C140.105 117.287 140.552 116.513 140.864 115.685C141.197 114.821 141.363 113.957 141.363 113.093C141.363 112.253 141.197 111.617 140.864 111.185C140.552 110.717 140.105 110.471 139.523 110.447C138.941 110.423 138.276 110.627 137.528 111.059C136.78 111.491 136.094 112.067 135.47 112.787C134.868 113.471 134.4 114.233 134.067 115.073C133.735 115.913 133.569 116.753 133.569 117.593C133.569 118.457 133.735 119.129 134.067 119.609C134.4 120.089 134.868 120.335 135.47 120.347C136.094 120.347 136.78 120.131 137.528 119.699Z" fill="black"/>
</svg>
