<svg width="256" height="256" viewBox="0 0 256 256" fill="none" xmlns="http://www.w3.org/2000/svg">
<path d="M154.461 100.267C154.461 122.063 139.159 148.568 120.282 159.467C101.405 170.365 86.1028 161.53 86.1028 139.733C86.1028 117.936 101.405 91.4316 120.282 80.5332C139.159 69.6348 154.461 78.4697 154.461 100.267Z" fill="white" stroke="#1019EF" stroke-width="6.4"/>
<mask id="path-2-inside-1_787_2066" fill="white">
<path d="M120.132 132.533L164.934 106.667L164.934 137.067L120.132 162.933L120.132 132.533Z"/>
</mask>
<path d="M120.132 132.533L164.934 106.667L164.934 137.067L120.132 162.933L120.132 132.533Z" fill="white"/>
<path d="M164.934 106.667L170.477 103.467L170.477 97.0665L164.934 100.267L164.934 106.667ZM164.934 137.067L164.934 143.467L170.477 140.267L170.477 133.867L164.934 137.067ZM120.132 138.933L164.934 113.067L164.934 100.267L120.132 126.133L120.132 138.933ZM159.392 109.867L159.392 140.267L170.477 133.867L170.477 103.467L159.392 109.867ZM164.934 130.667L120.132 156.533L120.132 169.333L164.934 143.467L164.934 130.667Z" fill="#1019EF" mask="url(#path-2-inside-1_787_2066)"/>
<path d="M104.665 138.665L150.729 110.933L148.132 125.066L104.665 151.208L104.665 138.665Z" fill="white"/>
<path d="M90.9974 150.703L90.9974 147.391L100.257 132.577C100.319 132.469 100.382 132.361 100.444 132.253C100.527 132.133 100.6 132.019 100.662 131.911C101.535 130.495 102.159 129.367 102.533 128.527C102.928 127.675 103.125 126.853 103.125 126.061C103.125 125.341 102.969 124.783 102.658 124.387C102.346 123.967 101.93 123.739 101.411 123.703C100.891 123.667 100.309 123.835 99.6646 124.207C98.9164 124.639 98.2409 125.245 97.6381 126.025C97.0561 126.793 96.5885 127.675 96.2352 128.671C95.9026 129.631 95.7155 130.639 95.674 131.695L91.0598 134.359C91.0598 134.263 91.0598 134.167 91.0598 134.071C91.0598 132.295 91.4131 130.459 92.1198 128.563C92.8265 126.667 93.8449 124.903 95.1751 123.271C96.5054 121.639 98.0226 120.331 99.727 119.347C101.286 118.447 102.689 117.997 103.936 117.997C105.183 117.973 106.16 118.381 106.866 119.221C107.573 120.037 107.926 121.225 107.926 122.785C107.926 124.225 107.563 125.779 106.835 127.447C106.108 129.115 105.006 131.107 103.531 133.423L98.3864 141.541L98.3864 141.901L107.428 136.681L107.428 141.217L90.9974 150.703ZM120.371 134.428C118.397 135.568 116.64 136.018 115.102 135.778C113.585 135.502 112.4 134.59 111.548 133.042C110.696 131.47 110.27 129.376 110.27 126.76C110.27 124.144 110.696 121.57 111.548 119.038C112.4 116.482 113.585 114.202 115.102 112.198C116.64 110.158 118.397 108.568 120.371 107.428C122.325 106.3 124.071 105.868 125.609 106.132C127.147 106.372 128.342 107.278 129.194 108.85C130.046 110.398 130.473 112.48 130.473 115.096C130.473 117.712 130.046 120.298 129.194 122.854C128.342 125.386 127.147 127.672 125.609 129.712C124.071 131.728 122.325 133.3 120.371 134.428ZM120.371 129.28C121.348 128.716 122.2 127.876 122.928 126.76C123.676 125.632 124.258 124.312 124.674 122.8C125.089 121.288 125.297 119.716 125.297 118.084C125.297 116.452 125.089 115.12 124.674 114.088C124.258 113.056 123.676 112.408 122.928 112.144C122.2 111.868 121.348 112.012 120.371 112.576C119.394 113.14 118.532 113.986 117.784 115.114C117.035 116.242 116.453 117.562 116.038 119.074C115.643 120.574 115.445 122.14 115.445 123.772C115.445 125.404 115.643 126.742 116.038 127.786C116.453 128.818 117.035 129.466 117.784 129.73C118.532 129.994 119.394 129.844 120.371 129.28ZM133.196 126.34L133.196 123.028L142.455 108.214C142.518 108.106 142.58 107.998 142.642 107.89C142.726 107.77 142.798 107.656 142.861 107.548C143.734 106.132 144.357 105.004 144.731 104.164C145.126 103.312 145.324 102.49 145.324 101.698C145.324 100.978 145.168 100.42 144.856 100.024C144.544 99.6038 144.129 99.3758 143.609 99.3398C143.089 99.3038 142.507 99.4718 141.863 99.8438C141.115 100.276 140.439 100.882 139.837 101.662C139.255 102.43 138.787 103.312 138.434 104.308C138.101 105.268 137.914 106.276 137.872 107.332L133.258 109.996C133.258 109.9 133.258 109.804 133.258 109.708C133.258 107.932 133.612 106.096 134.318 104.2C135.025 102.304 136.043 100.54 137.374 98.9078C138.704 97.2758 140.221 95.9678 141.925 94.9838C143.484 94.0838 144.887 93.6338 146.134 93.6338C147.381 93.6098 148.358 94.0178 149.065 94.8578C149.772 95.6738 150.125 96.8618 150.125 98.4218C150.125 99.8618 149.761 101.416 149.034 103.084C148.306 104.752 147.205 106.744 145.729 109.06L140.585 117.178L140.585 117.538L149.626 112.318L149.626 116.854L133.196 126.34Z" fill="black"/>
</svg>
