<svg width="256" height="256" viewBox="0 0 256 256" fill="none" xmlns="http://www.w3.org/2000/svg">
<path d="M154.461 100.267C154.461 122.063 139.159 148.568 120.282 159.467C101.405 170.365 86.1028 161.53 86.1028 139.733C86.1028 117.936 101.405 91.4316 120.282 80.5332C139.159 69.6348 154.461 78.4697 154.461 100.267Z" fill="white" stroke="#1019EF" stroke-width="6.4"/>
<mask id="path-2-inside-1_787_2062" fill="white">
<path d="M120.132 132.533L164.934 106.667L164.934 137.067L120.132 162.933L120.132 132.533Z"/>
</mask>
<path d="M120.132 132.533L164.934 106.667L164.934 137.067L120.132 162.933L120.132 132.533Z" fill="white"/>
<path d="M164.934 106.667L170.477 103.467L170.477 97.0665L164.934 100.267L164.934 106.667ZM164.934 137.067L164.934 143.467L170.477 140.267L170.477 133.867L164.934 137.067ZM120.132 138.933L164.934 113.067L164.934 100.267L120.132 126.133L120.132 138.933ZM159.391 109.867L159.391 140.267L170.477 133.867L170.477 103.467L159.391 109.867ZM164.934 130.667L120.132 156.533L120.132 169.333L164.934 143.467L164.934 130.667Z" fill="#1019EF" mask="url(#path-2-inside-1_787_2062)"/>
<path d="M104.665 138.665L150.729 110.933L148.132 125.066L104.665 151.208L104.665 138.665Z" fill="white"/>
<path d="M99.424 145.838L99.424 127.082L99.081 127.28L94.0304 134.516L94.0304 128.612L100.141 119.792L104.475 117.29L104.475 142.922L99.424 145.838ZM116.87 109.449C118.616 108.441 120.165 107.931 121.516 107.919C122.888 107.871 123.948 108.303 124.696 109.215C125.465 110.115 125.849 111.405 125.849 113.085C125.849 114.117 125.652 115.323 125.257 116.703C124.862 118.083 124.301 119.571 123.573 121.167L116.87 135.729L111.134 139.041L116.995 126.441C116.642 126.765 116.288 127.065 115.935 127.341C115.603 127.581 115.28 127.791 114.969 127.971C113.555 128.787 112.298 129.165 111.196 129.105C110.115 129.033 109.263 128.553 108.64 127.665C108.016 126.753 107.704 125.505 107.704 123.921C107.704 122.121 108.089 120.303 108.858 118.467C109.648 116.619 110.729 114.915 112.1 113.355C113.493 111.783 115.083 110.481 116.87 109.449ZM116.714 114.363C115.987 114.783 115.332 115.341 114.75 116.037C114.168 116.733 113.711 117.513 113.379 118.377C113.046 119.217 112.88 120.069 112.88 120.933C112.88 121.773 113.046 122.421 113.379 122.877C113.711 123.309 114.168 123.549 114.75 123.597C115.332 123.621 115.987 123.423 116.714 123.003C117.463 122.571 118.138 122.001 118.741 121.293C119.365 120.573 119.843 119.793 120.175 118.953C120.508 118.113 120.674 117.273 120.674 116.433C120.674 115.569 120.508 114.897 120.175 114.417C119.843 113.937 119.365 113.709 118.741 113.733C118.138 113.721 117.463 113.931 116.714 114.363ZM137.243 124.651C135.413 125.707 133.813 126.319 132.441 126.487C131.09 126.619 130.03 126.331 129.261 125.623C128.513 124.903 128.139 123.799 128.139 122.311C128.139 120.703 128.544 119.101 129.355 117.505C130.165 115.909 131.205 114.565 132.472 113.473L132.472 113.113C131.475 113.233 130.654 112.999 130.009 112.411C129.386 111.787 129.074 110.815 129.074 109.495C129.074 108.079 129.407 106.639 130.072 105.175C130.758 103.699 131.714 102.319 132.94 101.035C134.187 99.7395 135.621 98.6235 137.243 97.6875C138.822 96.7755 140.225 96.2655 141.451 96.1575C142.678 96.0495 143.634 96.3375 144.32 97.0215C145.026 97.6695 145.38 98.6895 145.38 100.081C145.38 101.401 145.058 102.739 144.413 104.095C143.79 105.415 142.969 106.597 141.95 107.641L141.95 108.001C143.239 107.617 144.289 107.755 145.099 108.415C145.91 109.075 146.315 110.209 146.315 111.817C146.315 113.305 145.931 114.847 145.161 116.443C144.413 118.027 143.353 119.539 141.981 120.979C140.61 122.395 139.03 123.619 137.243 124.651ZM137.243 108.775C137.866 108.415 138.427 107.959 138.926 107.407C139.446 106.819 139.851 106.201 140.142 105.553C140.433 104.881 140.578 104.233 140.578 103.609C140.578 103.009 140.433 102.553 140.142 102.241C139.851 101.905 139.446 101.755 138.926 101.791C138.427 101.791 137.866 101.971 137.243 102.331C136.577 102.715 135.985 103.201 135.465 103.789C134.967 104.341 134.572 104.953 134.281 105.625C134.011 106.261 133.875 106.879 133.875 107.479C133.875 108.103 134.011 108.589 134.281 108.937C134.572 109.249 134.977 109.399 135.497 109.387C136.016 109.351 136.598 109.147 137.243 108.775ZM137.243 119.971C137.928 119.575 138.562 119.065 139.144 118.441C139.726 117.793 140.173 117.103 140.485 116.371C140.797 115.615 140.953 114.889 140.953 114.193C140.953 113.473 140.786 112.933 140.454 112.573C140.142 112.201 139.695 112.027 139.113 112.051C138.552 112.063 137.928 112.267 137.243 112.663C136.515 113.083 135.871 113.611 135.31 114.247C134.748 114.883 134.302 115.573 133.969 116.317C133.657 117.049 133.501 117.775 133.501 118.495C133.501 119.191 133.657 119.737 133.969 120.133C134.302 120.493 134.748 120.667 135.31 120.655C135.871 120.619 136.515 120.391 137.243 119.971Z" fill="black"/>
</svg>
