<svg width="256" height="256" viewBox="0 0 256 256" fill="none" xmlns="http://www.w3.org/2000/svg">
<path d="M154.461 100.267C154.461 122.064 139.159 148.568 120.282 159.467C101.405 170.365 86.1028 161.53 86.1028 139.733C86.1028 117.937 101.405 91.4318 120.282 80.5334C139.159 69.635 154.461 78.4699 154.461 100.267Z" fill="white" stroke="#1019EF" stroke-width="6.4"/>
<mask id="path-2-inside-1_787_791" fill="white">
<path d="M120.132 132.533L164.934 106.667L164.934 137.067L120.132 162.933L120.132 132.533Z"/>
</mask>
<path d="M120.132 132.533L164.934 106.667L164.934 137.067L120.132 162.933L120.132 132.533Z" fill="white"/>
<path d="M164.934 106.667L170.477 103.467L170.477 97.0668L164.934 100.267L164.934 106.667ZM164.934 137.067L164.934 143.467L170.477 140.267L170.477 133.867L164.934 137.067ZM120.132 138.933L164.934 113.067L164.934 100.267L120.132 126.133L120.132 138.933ZM159.392 109.867L159.392 140.267L170.477 133.867L170.477 103.467L159.392 109.867ZM164.934 130.667L120.132 156.533L120.132 169.333L164.934 143.467L164.934 130.667Z" fill="#1019EF" mask="url(#path-2-inside-1_787_791)"/>
<path d="M104.665 138.666L150.729 110.933L148.132 125.067L104.665 151.209L104.665 138.666Z" fill="white"/>
<path d="M99.8139 151.096L110.76 113.949L95.888 122.536L95.888 115.389L119.398 101.816L119.398 106.989L107.758 146.509L99.8139 151.096ZM134.503 132.081C132.07 133.486 129.853 134.143 127.852 134.055C125.881 133.912 124.311 133.095 123.141 131.601C122.001 130.055 121.386 127.921 121.293 125.201L128.406 121.095C128.406 122.552 128.668 123.699 129.191 124.535C129.715 125.37 130.423 125.868 131.316 126.028C132.24 126.135 133.271 125.859 134.411 125.201C135.519 124.561 136.504 123.726 137.367 122.695C138.229 121.663 138.906 120.543 139.399 119.335C139.892 118.09 140.138 116.881 140.138 115.708C140.138 114.535 139.876 113.619 139.353 112.961C138.86 112.286 138.167 111.939 137.274 111.921C136.412 111.85 135.442 112.126 134.364 112.748C133.902 113.015 133.41 113.37 132.886 113.815C132.363 114.223 131.932 114.615 131.593 114.988L129.93 110.881L136.674 99.0946L136.674 98.5613L123.372 106.241L123.372 99.5213L146.142 86.3746L146.142 91.5479L138.337 105.281C140.061 104.606 141.6 104.446 142.955 104.801C144.341 105.103 145.419 105.903 146.188 107.201C146.989 108.446 147.389 110.081 147.389 112.108C147.389 114.49 146.835 116.961 145.727 119.521C144.649 122.028 143.125 124.401 141.154 126.641C139.183 128.846 136.966 130.659 134.503 132.081Z" fill="black"/>
</svg>
