<svg width="256" height="256" viewBox="0 0 256 256" fill="none" xmlns="http://www.w3.org/2000/svg">
<path d="M154.461 100.267C154.461 122.064 139.159 148.568 120.282 159.467C101.405 170.365 86.1028 161.53 86.1028 139.733C86.1028 117.937 101.405 91.4318 120.282 80.5334C139.159 69.635 154.461 78.4699 154.461 100.267Z" fill="white" stroke="#1019EF" stroke-width="6.4"/>
<mask id="path-2-inside-1_787_1238" fill="white">
<path d="M120.132 132.533L164.934 106.667L164.934 137.067L120.132 162.933L120.132 132.533Z"/>
</mask>
<path d="M120.132 132.533L164.934 106.667L164.934 137.067L120.132 162.933L120.132 132.533Z" fill="white"/>
<path d="M164.934 106.667L170.477 103.467L170.477 97.0668L164.934 100.267L164.934 106.667ZM164.934 137.067L164.934 143.467L170.477 140.267L170.477 133.867L164.934 137.067ZM120.132 138.933L164.934 113.067L164.934 100.267L120.132 126.133L120.132 138.933ZM159.391 109.867L159.391 140.267L170.477 133.867L170.477 103.467L159.391 109.867ZM164.934 130.667L120.132 156.533L120.132 169.333L164.934 143.467L164.934 130.667Z" fill="#1019EF" mask="url(#path-2-inside-1_787_1238)"/>
<path d="M104.665 138.666L150.729 110.933L148.132 125.067L104.665 151.209L104.665 138.666Z" fill="white"/>
<path d="M99.4477 145.824L99.4477 127.068L99.1047 127.266L94.054 134.502L94.054 128.598L100.165 119.778L104.498 117.276L104.498 142.908L99.4477 145.824ZM116.426 136.706C114.784 137.654 113.288 138.098 111.937 138.038C110.607 137.942 109.547 137.39 108.757 136.382C107.988 135.338 107.572 133.898 107.51 132.062L112.311 129.29C112.311 130.274 112.488 131.048 112.841 131.612C113.194 132.176 113.672 132.512 114.275 132.62C114.899 132.692 115.595 132.506 116.364 132.062C117.112 131.63 117.777 131.066 118.359 130.37C118.941 129.674 119.399 128.918 119.731 128.102C120.064 127.262 120.23 126.446 120.23 125.654C120.23 124.862 120.053 124.244 119.7 123.8C119.367 123.344 118.9 123.11 118.297 123.098C117.715 123.05 117.06 123.236 116.333 123.656C116.021 123.836 115.689 124.076 115.335 124.376C114.982 124.652 114.691 124.916 114.462 125.168L113.34 122.396L117.892 114.44L117.892 114.08L108.913 119.264L108.913 114.728L124.283 105.854L124.283 109.346L119.014 118.616C120.178 118.16 121.217 118.052 122.132 118.292C123.067 118.496 123.795 119.036 124.314 119.912C124.855 120.752 125.125 121.856 125.125 123.224C125.125 124.832 124.751 126.5 124.002 128.228C123.275 129.92 122.246 131.522 120.916 133.034C119.586 134.522 118.089 135.746 116.426 136.706ZM136.353 125.165C134.524 126.221 132.923 126.833 131.552 127.001C130.201 127.133 129.141 126.845 128.372 126.137C127.623 125.417 127.249 124.313 127.249 122.825C127.249 121.217 127.654 119.615 128.465 118.019C129.276 116.423 130.315 115.079 131.583 113.987L131.583 113.627C130.585 113.747 129.764 113.513 129.12 112.925C128.496 112.301 128.184 111.329 128.184 110.009C128.184 108.593 128.517 107.153 129.182 105.689C129.868 104.213 130.824 102.833 132.05 101.549C133.297 100.253 134.732 99.1372 136.353 98.2012C137.932 97.2892 139.335 96.7792 140.562 96.6711C141.788 96.5631 142.744 96.8511 143.43 97.5351C144.137 98.1831 144.49 99.2031 144.49 100.595C144.49 101.915 144.168 103.253 143.524 104.609C142.9 105.929 142.079 107.111 141.061 108.155L141.061 108.515C142.349 108.131 143.399 108.269 144.209 108.929C145.02 109.589 145.425 110.723 145.425 112.331C145.425 113.819 145.041 115.361 144.272 116.957C143.524 118.541 142.464 120.053 141.092 121.493C139.72 122.909 138.14 124.133 136.353 125.165ZM136.353 109.289C136.976 108.929 137.538 108.473 138.036 107.921C138.556 107.333 138.961 106.715 139.252 106.067C139.543 105.395 139.689 104.747 139.689 104.123C139.689 103.523 139.543 103.067 139.252 102.755C138.961 102.419 138.556 102.269 138.036 102.305C137.538 102.305 136.976 102.485 136.353 102.845C135.688 103.229 135.095 103.715 134.576 104.303C134.077 104.855 133.682 105.467 133.391 106.139C133.121 106.775 132.986 107.393 132.986 107.993C132.986 108.617 133.121 109.103 133.391 109.451C133.682 109.763 134.087 109.913 134.607 109.901C135.127 109.865 135.709 109.661 136.353 109.289ZM136.353 120.485C137.039 120.089 137.673 119.579 138.255 118.955C138.837 118.307 139.283 117.617 139.595 116.885C139.907 116.129 140.063 115.403 140.063 114.707C140.063 113.987 139.897 113.447 139.564 113.087C139.252 112.715 138.805 112.541 138.223 112.565C137.662 112.577 137.039 112.781 136.353 113.177C135.625 113.597 134.981 114.125 134.42 114.761C133.859 115.397 133.412 116.087 133.079 116.831C132.767 117.563 132.612 118.289 132.612 119.009C132.612 119.705 132.767 120.251 133.079 120.647C133.412 121.007 133.859 121.181 134.42 121.169C134.981 121.133 135.625 120.905 136.353 120.485Z" fill="black"/>
</svg>
