<svg width="256" height="256" viewBox="0 0 256 256" fill="none" xmlns="http://www.w3.org/2000/svg">
<path d="M154.461 100.267C154.461 122.064 139.159 148.568 120.282 159.467C101.405 170.365 86.1028 161.53 86.1028 139.733C86.1028 117.937 101.405 91.4318 120.282 80.5334C139.159 69.635 154.461 78.4699 154.461 100.267Z" fill="white" stroke="#1019EF" stroke-width="6.4"/>
<mask id="path-2-inside-1_787_802" fill="white">
<path d="M120.132 132.533L164.934 106.667L164.934 137.067L120.132 162.933L120.132 132.533Z"/>
</mask>
<path d="M120.132 132.533L164.934 106.667L164.934 137.067L120.132 162.933L120.132 132.533Z" fill="white"/>
<path d="M164.934 106.667L170.477 103.467L170.477 97.0668L164.934 100.267L164.934 106.667ZM164.934 137.067L164.934 143.467L170.477 140.267L170.477 133.867L164.934 137.067ZM120.132 138.933L164.934 113.067L164.934 100.267L120.132 126.133L120.132 138.933ZM159.391 109.867L159.391 140.267L170.477 133.867L170.477 103.467L159.391 109.867ZM164.934 130.667L120.132 156.533L120.132 169.333L164.934 143.467L164.934 130.667Z" fill="#1019EF" mask="url(#path-2-inside-1_787_802)"/>
<path d="M104.665 138.666L150.729 110.933L148.132 125.067L104.665 151.209L104.665 138.666Z" fill="white"/>
<path d="M107.146 147.823C104.436 149.387 102.065 150.294 100.033 150.543C98.0311 150.738 96.4607 150.312 95.3214 149.263C94.2129 148.196 93.6587 146.561 93.6587 144.356C93.6587 141.974 94.2591 139.601 95.46 137.236C96.6609 134.872 98.2005 132.881 100.079 131.263L100.079 130.729C98.6008 130.907 97.3845 130.561 96.4299 129.689C95.5062 128.765 95.0443 127.325 95.0443 125.369C95.0443 123.272 95.537 121.138 96.5223 118.969C97.5385 116.783 98.9549 114.738 100.772 112.836C102.619 110.916 104.744 109.263 107.146 107.876C109.486 106.525 111.564 105.769 113.381 105.609C115.198 105.449 116.614 105.876 117.63 106.889C118.677 107.849 119.201 109.361 119.201 111.423C119.201 113.378 118.723 115.361 117.769 117.369C116.845 119.325 115.629 121.076 114.12 122.623L114.12 123.156C116.029 122.587 117.584 122.792 118.785 123.769C119.986 124.747 120.586 126.427 120.586 128.809C120.586 131.014 120.017 133.298 118.877 135.663C117.769 138.009 116.198 140.249 114.166 142.383C112.134 144.481 109.794 146.294 107.146 147.823ZM107.146 124.303C108.069 123.769 108.901 123.094 109.64 122.276C110.41 121.405 111.01 120.489 111.441 119.529C111.872 118.534 112.088 117.574 112.088 116.649C112.088 115.761 111.872 115.085 111.441 114.623C111.01 114.125 110.41 113.903 109.64 113.956C108.901 113.956 108.069 114.223 107.146 114.756C106.16 115.325 105.283 116.045 104.513 116.916C103.774 117.734 103.189 118.641 102.758 119.636C102.357 120.578 102.157 121.494 102.157 122.383C102.157 123.307 102.357 124.027 102.758 124.543C103.189 125.005 103.789 125.227 104.559 125.209C105.329 125.156 106.191 124.854 107.146 124.303ZM107.146 140.889C108.162 140.303 109.101 139.547 109.963 138.623C110.825 137.663 111.487 136.641 111.949 135.556C112.411 134.436 112.642 133.361 112.642 132.329C112.642 131.263 112.396 130.463 111.903 129.929C111.441 129.378 110.779 129.121 109.917 129.156C109.085 129.174 108.162 129.476 107.146 130.063C106.068 130.685 105.113 131.467 104.282 132.409C103.451 133.352 102.788 134.374 102.296 135.476C101.834 136.561 101.603 137.636 101.603 138.703C101.603 139.734 101.834 140.543 102.296 141.129C102.788 141.663 103.451 141.921 104.282 141.903C105.113 141.849 106.068 141.512 107.146 140.889ZM139.019 128.46L139.019 120.62L123.269 129.714L123.269 124.86L135.786 92.3538L146.686 86.0604L146.686 109.527L150.52 107.314L150.52 113.98L146.686 116.194L146.686 124.034L139.019 128.46ZM130.705 118.754L138.973 113.98L138.973 97.8738L138.511 98.1404L130.705 118.754Z" fill="black"/>
</svg>
