<svg width="256" height="256" viewBox="0 0 256 256" fill="none" xmlns="http://www.w3.org/2000/svg">
<path d="M154.461 100.267C154.461 122.063 139.159 148.568 120.282 159.467C101.405 170.365 86.1028 161.53 86.1028 139.733C86.1028 117.936 101.405 91.4316 120.282 80.5332C139.159 69.6348 154.461 78.4697 154.461 100.267Z" fill="white" stroke="#1019EF" stroke-width="6.4"/>
<mask id="path-2-inside-1_787_2072" fill="white">
<path d="M120.132 132.533L164.934 106.667L164.934 137.067L120.132 162.933L120.132 132.533Z"/>
</mask>
<path d="M120.132 132.533L164.934 106.667L164.934 137.067L120.132 162.933L120.132 132.533Z" fill="white"/>
<path d="M164.934 106.667L170.477 103.467L170.477 97.0665L164.934 100.267L164.934 106.667ZM164.934 137.067L164.934 143.467L170.477 140.267L170.477 133.867L164.934 137.067ZM120.132 138.933L164.934 113.067L164.934 100.267L120.132 126.133L120.132 138.933ZM159.391 109.867L159.391 140.267L170.477 133.867L170.477 103.467L159.391 109.867ZM164.934 130.667L120.132 156.533L120.132 169.333L164.934 143.467L164.934 130.667Z" fill="#1019EF" mask="url(#path-2-inside-1_787_2072)"/>
<path d="M104.665 138.665L150.729 110.933L148.132 125.066L104.665 151.208L104.665 138.665Z" fill="white"/>
<path d="M90.2972 151.107L90.2972 147.795L99.5568 132.981C99.6191 132.873 99.6815 132.765 99.7438 132.657C99.827 132.537 99.8997 132.423 99.9621 132.315C100.835 130.899 101.459 129.771 101.833 128.931C102.228 128.079 102.425 127.257 102.425 126.465C102.425 125.745 102.269 125.187 101.957 124.791C101.646 124.371 101.23 124.143 100.71 124.107C100.191 124.071 99.6087 124.239 98.9644 124.611C98.2162 125.043 97.5407 125.649 96.9379 126.429C96.3559 127.197 95.8883 128.079 95.5349 129.075C95.2024 130.035 95.0153 131.043 94.9738 132.099L90.3596 134.763C90.3596 134.667 90.3596 134.571 90.3596 134.475C90.3596 132.699 90.7129 130.863 91.4196 128.967C92.1263 127.071 93.1447 125.307 94.4749 123.675C95.8051 122.043 97.3224 120.735 99.0268 119.751C100.586 118.851 101.989 118.401 103.236 118.401C104.483 118.377 105.46 118.785 106.166 119.625C106.873 120.441 107.226 121.629 107.226 123.189C107.226 124.629 106.863 126.183 106.135 127.851C105.408 129.519 104.306 131.511 102.83 133.827L97.6862 141.945L97.6862 142.305L106.727 137.085L106.727 141.621L90.2972 151.107ZM119.671 134.832C117.696 135.972 115.94 136.422 114.402 136.182C112.885 135.906 111.7 134.994 110.848 133.446C109.996 131.874 109.57 129.78 109.57 127.164C109.57 124.548 109.996 121.974 110.848 119.442C111.7 116.886 112.885 114.606 114.402 112.602C115.94 110.562 117.696 108.972 119.671 107.832C121.625 106.704 123.371 106.272 124.909 106.536C126.447 106.776 127.642 107.682 128.494 109.254C129.346 110.802 129.772 112.884 129.772 115.5C129.772 118.116 129.346 120.702 128.494 123.258C127.642 125.79 126.447 128.076 124.909 130.116C123.371 132.132 121.625 133.704 119.671 134.832ZM119.671 129.684C120.648 129.12 121.5 128.28 122.227 127.164C122.976 126.036 123.558 124.716 123.973 123.204C124.389 121.692 124.597 120.12 124.597 118.488C124.597 116.856 124.389 115.524 123.973 114.492C123.558 113.46 122.976 112.812 122.227 112.548C121.5 112.272 120.648 112.416 119.671 112.98C118.694 113.544 117.832 114.39 117.083 115.518C116.335 116.646 115.753 117.966 115.337 119.478C114.942 120.978 114.745 122.544 114.745 124.176C114.745 125.808 114.942 127.146 115.337 128.19C115.753 129.222 116.335 129.87 117.083 130.134C117.832 130.398 118.694 130.248 119.671 129.684ZM141.475 122.208C139.646 123.264 138.045 123.876 136.673 124.044C135.322 124.176 134.262 123.888 133.493 123.18C132.745 122.46 132.371 121.356 132.371 119.868C132.371 118.26 132.776 116.658 133.587 115.062C134.397 113.466 135.437 112.122 136.705 111.03L136.705 110.67C135.707 110.79 134.886 110.556 134.242 109.968C133.618 109.344 133.306 108.372 133.306 107.052C133.306 105.636 133.639 104.196 134.304 102.732C134.99 101.256 135.946 99.8761 137.172 98.5921C138.419 97.2961 139.853 96.1801 141.475 95.2441C143.054 94.3321 144.457 93.8221 145.683 93.7141C146.91 93.6061 147.866 93.8941 148.552 94.5781C149.258 95.2261 149.612 96.2461 149.612 97.6381C149.612 98.9581 149.29 100.296 148.645 101.652C148.022 102.972 147.201 104.154 146.182 105.198L146.182 105.558C147.471 105.174 148.521 105.312 149.331 105.972C150.142 106.632 150.547 107.766 150.547 109.374C150.547 110.862 150.163 112.404 149.394 114C148.645 115.584 147.585 117.096 146.214 118.536C144.842 119.952 143.262 121.176 141.475 122.208ZM141.475 106.332C142.098 105.972 142.659 105.516 143.158 104.964C143.678 104.376 144.083 103.758 144.374 103.11C144.665 102.438 144.811 101.79 144.811 101.166C144.811 100.566 144.665 100.11 144.374 99.7981C144.083 99.4621 143.678 99.3121 143.158 99.3481C142.659 99.3481 142.098 99.5281 141.475 99.8881C140.81 100.272 140.217 100.758 139.698 101.346C139.199 101.898 138.804 102.51 138.513 103.182C138.243 103.818 138.108 104.436 138.108 105.036C138.108 105.66 138.243 106.146 138.513 106.494C138.804 106.806 139.209 106.956 139.729 106.944C140.248 106.908 140.83 106.704 141.475 106.332ZM141.475 117.528C142.161 117.132 142.794 116.622 143.376 115.998C143.958 115.35 144.405 114.66 144.717 113.928C145.029 113.172 145.185 112.446 145.185 111.75C145.185 111.03 145.018 110.49 144.686 110.13C144.374 109.758 143.927 109.584 143.345 109.608C142.784 109.62 142.161 109.824 141.475 110.22C140.747 110.64 140.103 111.168 139.542 111.804C138.98 112.44 138.534 113.13 138.201 113.874C137.889 114.606 137.733 115.332 137.733 116.052C137.733 116.748 137.889 117.294 138.201 117.69C138.534 118.05 138.98 118.224 139.542 118.212C140.103 118.176 140.747 117.948 141.475 117.528Z" fill="black"/>
</svg>
