<svg width="256" height="256" viewBox="0 0 256 256" fill="none" xmlns="http://www.w3.org/2000/svg">
<path d="M154.461 100.267C154.461 122.064 139.159 148.568 120.282 159.467C101.405 170.365 86.1028 161.53 86.1028 139.733C86.1028 117.937 101.405 91.4318 120.282 80.5334C139.159 69.635 154.461 78.4699 154.461 100.267Z" fill="white" stroke="#1019EF" stroke-width="6.4"/>
<mask id="path-2-inside-1_787_1223" fill="white">
<path d="M120.132 132.533L164.934 106.667L164.934 137.067L120.132 162.933L120.132 132.533Z"/>
</mask>
<path d="M120.132 132.533L164.934 106.667L164.934 137.067L120.132 162.933L120.132 132.533Z" fill="white"/>
<path d="M164.934 106.667L170.477 103.467L170.477 97.0668L164.934 100.267L164.934 106.667ZM164.934 137.067L164.934 143.467L170.477 140.267L170.477 133.867L164.934 137.067ZM120.132 138.933L164.934 113.067L164.934 100.267L120.132 126.133L120.132 138.933ZM159.392 109.867L159.392 140.267L170.477 133.867L170.477 103.467L159.392 109.867ZM164.934 130.667L120.132 156.533L120.132 169.333L164.934 143.467L164.934 130.667Z" fill="#1019EF" mask="url(#path-2-inside-1_787_1223)"/>
<path d="M104.665 138.666L150.729 110.933L148.132 125.067L104.665 151.209L104.665 138.666Z" fill="white"/>
<path d="M100.581 145.17L100.581 126.414L100.238 126.612L95.1873 133.848L95.1873 127.944L101.298 119.124L105.632 116.622L105.632 142.254L100.581 145.17ZM109.204 140.191L109.204 136.879L118.464 122.065C118.526 121.957 118.588 121.849 118.651 121.741C118.734 121.621 118.807 121.507 118.869 121.399C119.742 119.983 120.366 118.855 120.74 118.015C121.135 117.163 121.332 116.341 121.332 115.549C121.332 114.829 121.176 114.271 120.864 113.875C120.553 113.455 120.137 113.227 119.617 113.191C119.098 113.155 118.516 113.323 117.871 113.695C117.123 114.127 116.448 114.733 115.845 115.513C115.263 116.281 114.795 117.163 114.442 118.159C114.109 119.119 113.922 120.127 113.881 121.183L109.267 123.847C109.267 123.751 109.267 123.655 109.267 123.559C109.267 121.783 109.62 119.947 110.327 118.051C111.033 116.155 112.052 114.391 113.382 112.759C114.712 111.127 116.229 109.819 117.934 108.835C119.493 107.935 120.896 107.485 122.143 107.485C123.39 107.461 124.367 107.869 125.073 108.709C125.78 109.525 126.133 110.713 126.133 112.273C126.133 113.713 125.77 115.267 125.042 116.935C124.315 118.603 123.213 120.595 121.737 122.911L116.593 131.029L116.593 131.389L125.634 126.169L125.634 130.705L109.204 140.191ZM136.832 124.924C135.19 125.872 133.694 126.316 132.343 126.256C131.012 126.16 129.952 125.608 129.163 124.6C128.394 123.556 127.978 122.116 127.915 120.28L132.717 117.508C132.717 118.492 132.893 119.266 133.247 119.83C133.6 120.394 134.078 120.73 134.681 120.838C135.304 120.91 136.001 120.724 136.77 120.28C137.518 119.848 138.183 119.284 138.765 118.588C139.347 117.892 139.804 117.136 140.137 116.32C140.469 115.48 140.636 114.664 140.636 113.872C140.636 113.08 140.459 112.462 140.106 112.018C139.773 111.562 139.305 111.328 138.703 111.316C138.121 111.268 137.466 111.454 136.739 111.874C136.427 112.054 136.094 112.294 135.741 112.594C135.388 112.87 135.097 113.134 134.868 113.386L133.746 110.614L138.297 102.658L138.297 102.298L129.318 107.482L129.318 102.946L144.689 94.0724L144.689 97.5644L139.42 106.834C140.584 106.378 141.623 106.27 142.537 106.51C143.473 106.714 144.2 107.254 144.72 108.13C145.26 108.97 145.53 110.074 145.53 111.442C145.53 113.05 145.156 114.718 144.408 116.446C143.681 118.138 142.652 119.74 141.322 121.252C139.991 122.74 138.495 123.964 136.832 124.924Z" fill="black"/>
</svg>
