<svg width="256" height="256" viewBox="0 0 256 256" fill="none" xmlns="http://www.w3.org/2000/svg">
<path d="M154.461 100.267C154.461 122.064 139.159 148.568 120.282 159.467C101.405 170.365 86.1028 161.53 86.1028 139.733C86.1028 117.936 101.405 91.4317 120.282 80.5333C139.159 69.6349 154.461 78.4698 154.461 100.267Z" fill="white" stroke="#E03131" stroke-width="6.4"/>
<mask id="path-2-inside-1_1465_2657" fill="white">
<path d="M120.132 132.533L164.934 106.667L164.934 137.067L120.132 162.933L120.132 132.533Z"/>
</mask>
<path d="M120.132 132.533L164.934 106.667L164.934 137.067L120.132 162.933L120.132 132.533Z" fill="white"/>
<path d="M164.934 106.667L170.477 103.467L170.477 97.0666L164.934 100.267L164.934 106.667ZM164.934 137.067L164.934 143.467L170.477 140.267L170.477 133.867L164.934 137.067ZM120.132 138.933L164.934 113.067L164.934 100.267L120.132 126.133L120.132 138.933ZM159.392 109.867L159.392 140.267L170.477 133.867L170.477 103.467L159.392 109.867ZM164.934 130.667L120.132 156.533L120.132 169.333L164.934 143.467L164.934 130.667Z" fill="#E03131" mask="url(#path-2-inside-1_1465_2657)"/>
<path d="M104.665 138.665L150.729 110.933L148.132 125.067L104.665 151.209L104.665 138.665Z" fill="white"/>
<path d="M114.759 143.48C111.926 145.116 109.386 145.907 107.138 145.854C104.89 145.8 103.15 144.903 101.919 143.16C100.687 141.418 100.071 138.947 100.071 135.747L100.071 112.974L107.738 108.547L107.738 131.107C107.738 132.885 108.031 134.298 108.616 135.347C109.201 136.36 110.033 136.947 111.11 137.107C112.188 137.231 113.404 136.903 114.759 136.12C116.114 135.338 117.33 134.263 118.408 132.894C119.486 131.489 120.317 129.943 120.902 128.254C121.487 126.529 121.78 124.778 121.78 123L121.78 100.44L129.447 96.0137L129.447 118.787C129.447 121.987 128.831 125.169 127.599 128.334C126.368 131.498 124.628 134.405 122.38 137.054C120.163 139.685 117.623 141.827 114.759 143.48ZM135.936 130.241L135.936 92.2674L143.603 87.8408L143.603 125.814L135.936 130.241Z" fill="black"/>
<line x1="100.096" y1="100.074" x2="152.096" y2="141.074" stroke="#E03131" stroke-width="10"/>
</svg>
