<svg width="50" height="65" viewBox="0 0 50 65" fill="none" xmlns="http://www.w3.org/2000/svg">
<rect width="27.5035" height="27.1634" rx="0.217328" transform="matrix(0.86955 0.493845 3.23654e-05 1 1.01575 23.4969)" stroke="white" stroke-width="0.869313"/>
<rect width="27.5035" height="27.1634" rx="0.217328" transform="matrix(0.86955 -0.493845 -3.23654e-05 1 25.1001 36.9712)" stroke="white" stroke-width="0.869313"/>
<rect width="27.5035" height="27.5035" rx="0.217328" transform="matrix(0.869581 -0.49379 0.869581 0.49379 1.01575 23.1688)" stroke="white" stroke-width="0.869313"/>
<path d="M36.1684 4.26331C36.1684 4.26571 36.1683 4.27293 36.1634 4.28858C36.1583 4.30534 36.1459 4.33685 36.117 4.38319C36.0564 4.48024 35.9347 4.62338 35.7098 4.79771C35.2525 5.15216 34.5094 5.52789 33.4744 5.86721C31.4187 6.54122 28.4966 6.97991 25.2097 6.97991C21.9228 6.97991 19.0006 6.54122 16.9449 5.86721C15.91 5.52789 15.1668 5.15216 14.7096 4.79771C14.4847 4.62338 14.3629 4.48024 14.3024 4.38319C14.2734 4.33685 14.2611 4.30534 14.2559 4.28858C14.2511 4.27293 14.251 4.26571 14.251 4.26331C14.251 4.26091 14.2511 4.25369 14.2559 4.23804C14.2611 4.22128 14.2734 4.18976 14.3024 4.14342C14.3629 4.04638 14.4847 3.90324 14.7096 3.72891C15.1668 3.37446 15.91 2.99873 16.9449 2.6594C19.0006 1.9854 21.9228 1.54671 25.2097 1.54671C28.4966 1.54671 31.4187 1.9854 33.4744 2.6594C34.5094 2.99873 35.2525 3.37446 35.7098 3.72891C35.9347 3.90324 36.0564 4.04638 36.117 4.14342C36.1459 4.18976 36.1583 4.22128 36.1634 4.23804C36.1683 4.25369 36.1684 4.26091 36.1684 4.26331Z" stroke="white" stroke-width="2.60794"/>
</svg>
