<svg width="16" height="16" viewBox="0 0 16 16" fill="none" xmlns="http://www.w3.org/2000/svg">
<path d="M8.64673 1.6991C8.64673 2.63748 7.92442 3.39819 7.03341 3.39819C6.1424 3.39819 5.42009 2.63748 5.42009 1.6991C5.42009 0.760711 6.1424 0 7.03341 0C7.92442 0 8.64673 0.760711 8.64673 1.6991Z" fill="white"/>
<path d="M6.10654 5.35255C5.87593 4.44614 6.38667 3.51446 7.24732 3.27159C8.10798 3.02872 8.99262 3.56662 9.22323 4.47303L9.91589 7.74476C9.49874 9.39733 9.7782 9.59352 8.91755 9.83639C8.0569 10.0793 7.17226 9.54136 6.94165 8.63495L6.10654 5.35255Z" fill="white"/>
<path fill-rule="evenodd" clip-rule="evenodd" d="M7.27185 3.94187C7.58075 4.15876 7.66422 4.59831 7.45828 4.92363L6.02583 7.18656L4.00584 8.40221C3.6835 8.5962 3.27288 8.47825 3.08868 8.13878C2.90449 7.7993 3.01648 7.36684 3.33882 7.17285L5.08324 6.12304L6.33965 4.13823C6.54559 3.8129 6.96294 3.72499 7.27185 3.94187Z" fill="white"/>
<path fill-rule="evenodd" clip-rule="evenodd" d="M7.80602 3.73397C8.00119 3.40136 8.41543 3.29836 8.73124 3.50391L10.881 4.90307L11.501 7.38439C11.5955 7.76251 11.3811 8.14971 11.022 8.24922C10.663 8.34873 10.2954 8.12288 10.2009 7.74476L9.71745 5.81027L8.02446 4.70838C7.70865 4.50283 7.61085 4.06657 7.80602 3.73397Z" fill="white"/>
<path fill-rule="evenodd" clip-rule="evenodd" d="M7.72963 7.94899C8.01621 8.19755 8.42289 9.07922 8.18688 9.38104L6.03374 11.2314L4.99544 15.4688C4.90267 15.8474 4.53605 16.0751 4.17657 15.9774C3.8171 15.8797 3.60089 15.4936 3.69365 15.115L4.80644 10.5737L6.94165 8.63495C7.17766 8.33313 7.44305 7.70044 7.72963 7.94899Z" fill="white"/>
<path fill-rule="evenodd" clip-rule="evenodd" d="M8.79122 7.50764C9.16075 7.46998 9.4893 7.75494 9.52506 8.14411L9.7959 11.0916L11.9067 14.8611C12.0953 15.1979 11.9889 15.6319 11.6692 15.8305C11.3494 16.0292 10.9372 15.9171 10.7487 15.5804L8.48643 11.5405L8.18688 8.2805C8.15112 7.89132 8.42169 7.5453 8.79122 7.50764Z" fill="white"/>
</svg>
