<svg width="110" height="97" viewBox="0 0 110 97" fill="none" xmlns="http://www.w3.org/2000/svg">
<g clip-path="url(#clip0_1713_35291)">
<path d="M90.7078 46.6261C90.0289 69.5028 72.604 88.7904 51.7883 89.7065C30.9727 90.6225 14.6486 72.8199 15.3276 49.9432C16.0065 27.0666 33.4314 7.77895 54.2471 6.86294C75.0627 5.94694 91.3868 23.7495 90.7078 46.6261Z" fill="white" stroke="white" stroke-width="6.72"/>
<path d="M51.4643 61.3555L100.869 59.1814L99.922 91.0873L50.5174 93.2614L51.4643 61.3555Z" fill="white"/>
<mask id="mask0_1713_35291" style="mask-type:luminance" maskUnits="userSpaceOnUse" x="50" y="59" width="51" height="35">
<path d="M51.4643 61.3555L100.869 59.1814L99.922 91.0873L50.5174 93.2614L51.4643 61.3555Z" fill="white"/>
</mask>
<g mask="url(#mask0_1713_35291)">
<path d="M100.869 59.1813L106.981 58.9124L107.18 52.1954L101.068 52.4643L100.869 59.1813ZM99.9222 91.0873L99.7228 97.8043L105.835 97.5354L106.034 90.8184L99.9222 91.0873ZM51.2651 68.0725L100.67 65.8983L101.068 52.4643L51.6639 54.6384L51.2651 68.0725ZM94.7572 59.4503L93.8103 91.3563L106.034 90.8184L106.981 58.9124L94.7572 59.4503ZM100.122 84.3702L50.7169 86.5443L50.3182 99.9784L99.7228 97.8043L100.122 84.3702Z" fill="white"/>
</g>
<path d="M34.8551 59.355L85.686 55.9262L82.4286 69.3119L34.4643 72.5198L34.8551 59.355Z" fill="white"/>
<path d="M53.2353 66.574C50.6951 66.6858 48.456 66.0946 46.5182 64.8005C44.6082 63.4758 43.142 61.5886 42.1198 59.139C41.0985 56.6599 40.6354 53.8188 40.7304 50.6156C40.8255 47.4124 41.4582 44.5377 42.6288 41.9916C43.8 39.416 45.3822 37.3948 47.3752 35.9277C49.3958 34.4301 51.6763 33.6254 54.2165 33.5136C56.73 33.4029 58.9552 34.0094 60.8921 35.3329C62.8298 36.627 64.3094 38.5136 65.3306 40.9926C66.3529 43.4423 66.8164 46.2687 66.7213 49.4719C66.6263 52.675 65.9931 55.5644 64.8217 58.1399C63.6513 60.6861 62.0558 62.708 60.0352 64.2057C58.0154 65.6739 55.7488 66.4633 53.2353 66.574ZM53.4224 60.2705C54.6792 60.2151 55.7881 59.7407 56.7493 58.8474C57.7373 57.9528 58.5217 56.715 59.1028 55.1339C59.6838 53.5529 60.0039 51.7632 60.0632 49.7649C60.1225 47.7665 59.9079 46.0004 59.4194 44.4664C58.9308 42.9325 58.2178 41.7605 57.2805 40.9506C56.3699 40.1396 55.2862 39.7617 54.0294 39.8171C52.7727 39.8723 51.6503 40.3472 50.6624 41.2418C49.6745 42.1364 48.89 43.3743 48.309 44.9553C47.7547 46.5352 47.448 48.3243 47.3887 50.3226C47.3294 52.3209 47.5305 54.0877 47.9924 55.6228C48.481 57.1568 49.1939 58.3287 50.1313 59.1385C51.0686 59.9484 52.1657 60.3257 53.4224 60.2705Z" fill="white"/>
<path d="M40.6596 70.9214C40.4162 70.9321 40.219 70.8586 40.0679 70.7009C39.917 70.5364 39.8454 70.3238 39.8532 70.0632C39.8609 69.8027 39.9452 69.5867 40.106 69.4152C40.2672 69.2369 40.4693 69.1425 40.7127 69.1318C40.9623 69.1208 41.1593 69.1977 41.304 69.3625C41.4551 69.5203 41.5268 69.7294 41.519 69.9899C41.5113 70.2505 41.4269 70.47 41.2659 70.6482C41.1112 70.8194 40.9092 70.9104 40.6596 70.9214ZM39.7891 76.9483L39.9454 71.6821L41.3305 71.6212L41.1742 76.8874L39.7891 76.9483ZM44.2248 76.9175C43.9066 76.9315 43.6312 76.8683 43.3985 76.7278C43.1661 76.5805 42.9886 76.3693 42.8659 76.0939C42.7433 75.8185 42.6873 75.4957 42.6983 75.1254L42.7713 72.6672L42.0975 72.6968L42.1305 71.586L42.8511 71.5543L43.1626 69.8765L44.2482 69.8288L44.1987 71.4949L45.2844 71.4472L45.2515 72.558L44.1657 72.6059L44.0946 75.0023C44.0881 75.2218 44.1391 75.3976 44.2473 75.5298C44.3555 75.6619 44.5063 75.7238 44.6997 75.7153C44.8745 75.7076 45.0436 75.6762 45.2073 75.6211L45.1749 76.7113C45.0362 76.7654 44.8792 76.81 44.7036 76.8451C44.5278 76.887 44.3682 76.9112 44.2248 76.9175ZM48.1026 76.7674C47.6347 76.788 47.2314 76.7269 46.893 76.5843C46.5545 76.4417 46.2991 76.2304 46.1267 75.9504C45.9543 75.6704 45.8741 75.328 45.8861 74.9235L47.1028 74.87C47.0945 75.1511 47.1844 75.3731 47.3727 75.5361C47.5672 75.6987 47.8331 75.7725 48.1699 75.7577C48.4382 75.746 48.6521 75.6783 48.8116 75.5549C48.971 75.4315 49.0536 75.2703 49.0595 75.0715C49.0638 74.9275 49.0265 74.8195 48.9477 74.7477C48.869 74.669 48.7647 74.6154 48.6346 74.5868C48.5047 74.5583 48.3247 74.5354 48.0946 74.5182C48.0823 74.5119 48.0668 74.5091 48.0481 74.51C48.0294 74.5107 48.0138 74.5115 48.0013 74.512L47.8241 74.4992C47.4637 74.4672 47.1537 74.4123 46.8943 74.3348C46.635 74.2571 46.4148 74.1127 46.2342 73.9015C46.0598 73.69 45.9785 73.3855 45.9903 72.9878C46.0009 72.6312 46.0974 72.3188 46.2798 72.0505C46.4687 71.7752 46.7244 71.5585 47.0469 71.4005C47.3755 71.2422 47.752 71.1537 48.1763 71.1351C48.6069 71.1162 48.9851 71.1748 49.3114 71.3111C49.644 71.4403 49.8999 71.6344 50.0792 71.8937C50.2584 72.1528 50.3428 72.4607 50.3322 72.8173L49.0687 72.8728C49.0694 72.6399 48.9845 72.4588 48.8138 72.3294C48.6496 72.1928 48.4272 72.1307 48.1464 72.143C47.8969 72.154 47.6892 72.2214 47.5235 72.3451C47.3641 72.4685 47.2816 72.6228 47.2761 72.8079C47.2719 72.952 47.3154 73.0596 47.4067 73.1309C47.4981 73.2022 47.615 73.2519 47.7575 73.2798C47.8999 73.3077 48.0987 73.3299 48.3537 73.346L48.5215 73.3592C48.5278 73.3589 48.531 73.3588 48.531 73.3588C48.531 73.3588 48.534 73.3586 48.5403 73.3584C48.5403 73.3584 48.5433 73.3583 48.5496 73.3579C48.5496 73.3579 48.5528 73.3578 48.559 73.3575C48.5652 73.3573 48.5714 73.3604 48.5773 73.367C48.9316 73.3993 49.2415 73.4576 49.5069 73.5418C49.7788 73.6188 50.0018 73.7665 50.1761 73.9849C50.3567 74.196 50.4413 74.4937 50.4299 74.8776C50.4189 75.2479 50.319 75.5707 50.1302 75.8461C49.9413 76.1215 49.6731 76.3388 49.3257 76.4978C48.9782 76.6569 48.5705 76.7468 48.1026 76.7674ZM55.9805 76.4001C55.4564 76.4232 54.9949 76.3306 54.5961 76.1221C54.2037 75.9066 53.9013 75.5946 53.6892 75.1862C53.4834 74.7706 53.3889 74.2817 53.4056 73.7195C53.4223 73.1572 53.546 72.6622 53.7768 72.2342C54.014 71.7993 54.3357 71.4598 54.7417 71.216C55.1479 70.9652 55.6161 70.8282 56.1466 70.8049C56.6706 70.7818 57.1289 70.8781 57.5213 71.0936C57.9201 71.302 58.2224 71.614 58.4281 72.0295C58.6403 72.438 58.7381 72.9233 58.7214 73.4856C58.7047 74.0478 58.5777 74.5465 58.3405 74.9815C58.1097 75.4094 57.7912 75.7487 57.385 75.9994C56.979 76.2433 56.5108 76.3768 55.9805 76.4001ZM56.019 75.1042C56.2622 75.0935 56.4826 75.0187 56.6799 74.8799C56.8771 74.7412 57.0322 74.5563 57.1449 74.3254C57.2639 74.0941 57.3277 73.8345 57.3362 73.5465C57.3448 73.2585 57.2963 73.0039 57.1907 72.7825C57.0914 72.5609 56.9469 72.3892 56.7574 72.2675C56.5678 72.1457 56.3514 72.0901 56.1081 72.1008C55.8585 72.1118 55.635 72.1867 55.4378 72.3255C55.2468 72.464 55.0917 72.6489 54.9727 72.8801C54.8599 73.111 54.7993 73.3705 54.7907 73.6585C54.7822 73.9465 54.8275 74.2014 54.9269 74.4229C55.0325 74.6443 55.177 74.816 55.3602 74.938C55.5498 75.0598 55.7694 75.1152 56.019 75.1042ZM59.4836 76.0817L59.7101 68.4499L61.0952 68.3889L60.9643 72.8014L61.0578 72.7973L62.6534 70.6829L64.3286 70.6091L62.2601 73.2271L64.2098 75.8737L62.5253 75.9478L61.0288 73.7743L60.9353 73.7785L60.8687 76.0207L59.4836 76.0817ZM66.1008 75.924C65.6079 75.9457 65.2126 75.8296 64.9148 75.5756C64.6234 75.3144 64.4846 74.9508 64.4984 74.4845C64.5131 73.9908 64.7121 73.5849 65.0955 73.2666C65.4788 72.9485 66.0494 72.7214 66.8075 72.5853L67.8315 72.4067L67.8379 72.1907C67.8455 71.937 67.7735 71.7381 67.6219 71.5942C67.4769 71.443 67.2671 71.3735 66.9925 71.3856C66.7368 71.3968 66.5287 71.4779 66.3685 71.6288C66.2144 71.7794 66.1338 71.9781 66.1265 72.225C66.1261 72.2387 66.1258 72.249 66.1256 72.2558L64.7685 72.3155C64.7797 71.9384 64.88 71.6018 65.0695 71.3059C65.2653 71.0097 65.5307 70.7789 65.8659 70.6134C66.2074 70.4409 66.5998 70.3449 67.0427 70.3254C67.4919 70.3056 67.8826 70.3706 68.2146 70.5204C68.5468 70.6632 68.799 70.8781 68.9712 71.165C69.1497 71.4516 69.2331 71.7904 69.2215 72.1812L69.1184 75.6577L67.7332 75.7186L67.7531 75.0501L67.6595 75.0542C67.5083 75.321 67.2965 75.5289 67.024 75.6779C66.758 75.8266 66.4501 75.9086 66.1008 75.924ZM66.5983 74.9058C66.8229 74.8958 67.0241 74.8391 67.2016 74.7354C67.3794 74.6248 67.5207 74.4816 67.6256 74.3059C67.7307 74.1231 67.7866 73.9221 67.7931 73.7027L67.8041 73.3324L66.8173 73.5093C66.4917 73.5648 66.2488 73.6644 66.0888 73.8085C65.9352 73.9454 65.8556 74.1098 65.8499 74.3018C65.844 74.5006 65.9079 74.6554 66.0418 74.7659C66.1757 74.8695 66.3613 74.9161 66.5983 74.9058ZM70.9258 77.951C70.7635 77.9582 70.5894 77.9487 70.4032 77.9227C70.2233 77.8963 70.0687 77.8586 69.9392 77.8095L69.9849 76.5852C70.0895 76.6285 70.207 76.661 70.3372 76.6826C70.4675 76.7042 70.5855 76.7127 70.6916 76.7081C70.8538 76.701 70.9953 76.6571 71.1162 76.5764C71.2367 76.5027 71.3362 76.4058 71.4145 76.2859C71.4926 76.1729 71.5719 76.0222 71.6522 75.8338C71.6722 75.7919 71.689 75.75 71.7027 75.7083C71.7164 75.6666 71.73 75.6283 71.7435 75.5935L69.6459 70.3752L71.1338 70.3097L72.3165 73.6063L72.4101 73.6022L73.5485 70.2035L74.9898 70.14L72.9749 75.6729C72.9682 75.6869 72.9616 75.7009 72.955 75.7148C72.9546 75.7286 72.951 75.7424 72.9443 75.7564C72.7612 76.2575 72.5812 76.6557 72.4042 76.9512C72.227 77.2535 72.0174 77.4921 71.7755 77.6671C71.5397 77.8417 71.2565 77.9364 70.9258 77.951ZM77.7352 75.2785L77.8915 70.0123L79.2766 69.9514L79.2546 70.692L79.3482 70.6878C79.5381 70.3781 79.7475 70.1464 79.9764 69.9925C80.2117 69.8315 80.476 69.7445 80.7693 69.7316C81.1186 69.7162 81.4278 69.7985 81.6965 69.9784C81.9719 70.1512 82.1794 70.4023 82.3191 70.7317C82.4591 71.0543 82.5229 71.4246 82.5105 71.843L82.4147 75.0725L81.0296 75.1335L81.119 72.1199C81.1288 71.7908 81.0555 71.5304 80.8991 71.3386C80.7493 71.1398 80.5339 71.0465 80.2532 71.0589C80.0723 71.0668 79.9023 71.1257 79.7432 71.2354C79.5844 71.3382 79.4555 71.4809 79.3566 71.6633C79.2642 71.8386 79.2147 72.0359 79.2082 72.2553L79.1203 75.2176L77.7352 75.2785ZM85.8393 75.0862C85.3151 75.1093 84.8537 75.0166 84.4549 74.8082C84.0625 74.5926 83.7602 74.2806 83.5479 73.8722C83.3423 73.4568 83.2476 72.9678 83.2643 72.4056C83.281 71.8432 83.4048 71.3482 83.6355 70.9203C83.8729 70.4853 84.1944 70.1459 84.6005 69.902C85.0067 69.6513 85.475 69.5143 86.0053 69.4909C86.5294 69.4678 86.9876 69.5641 87.3801 69.7797C87.7789 69.9881 88.0812 70.3 88.2869 70.7156C88.4992 71.124 88.5969 71.6093 88.5802 72.1716C88.5636 72.7339 88.4366 73.2325 88.1993 73.6675C87.9686 74.0955 87.6501 74.4347 87.2438 74.6854C86.8377 74.9293 86.3696 75.0629 85.8393 75.0862ZM85.8777 73.7902C86.1211 73.7795 86.3413 73.7048 86.5386 73.566C86.7359 73.4272 86.891 73.2423 87.0038 73.0114C87.1228 72.7802 87.1866 72.5206 87.1951 72.2326C87.2037 71.9445 87.1552 71.6899 87.0496 71.4686C86.9502 71.2469 86.8057 71.0752 86.6162 70.9535C86.4266 70.8317 86.2102 70.7762 85.9669 70.7869C85.7173 70.7978 85.4938 70.8727 85.2966 71.0116C85.1055 71.15 84.9505 71.3349 84.8315 71.5662C84.7188 71.7972 84.658 72.0566 84.6495 72.3445C84.6409 72.6326 84.6864 72.8874 84.7857 73.109C84.8912 73.3303 85.0357 73.502 85.2191 73.6241C85.4085 73.7459 85.6282 73.8012 85.8777 73.7902ZM91.0556 74.8567C90.7374 74.8707 90.4621 74.8075 90.2295 74.667C89.9971 74.5197 89.8195 74.3085 89.6967 74.0331C89.5741 73.7577 89.5183 73.4349 89.5293 73.0646L89.6022 70.6064L88.9283 70.636L88.9613 69.5252L89.682 69.4935L89.9935 67.8157L91.0791 67.768L91.0297 69.4341L92.1153 69.3864L92.0823 70.4972L90.9967 70.545L90.9256 72.9415C90.9191 73.161 90.9699 73.3368 91.0781 73.469C91.1864 73.6011 91.3372 73.663 91.5307 73.6545C91.7053 73.6468 91.8745 73.6153 92.0381 73.5603L92.0058 74.6505C91.8671 74.7045 91.71 74.7492 91.5344 74.7843C91.3588 74.8262 91.1992 74.8504 91.0556 74.8567ZM42.3538 85.9841C42.0356 85.9982 41.7602 85.9349 41.5276 85.7945C41.2952 85.6472 41.1176 85.4359 40.9949 85.1605C40.8723 84.8852 40.8164 84.5624 40.8274 84.192L40.9004 81.7338L40.2265 81.7634L40.2595 80.6526L40.9802 80.6209L41.2916 78.9432L42.3773 78.8954L42.3278 80.5616L43.4134 80.5138L43.3805 81.6246L42.2949 81.6724L42.2237 84.069C42.2172 84.2884 42.2681 84.4642 42.3763 84.5963C42.4845 84.7286 42.6353 84.7904 42.8287 84.782C43.0035 84.7742 43.1726 84.7428 43.3363 84.6877L43.3039 85.778C43.1652 85.832 43.0082 85.8766 42.8326 85.9117C42.657 85.9537 42.4973 85.9777 42.3538 85.9841ZM46.3958 85.8062C45.8716 85.8293 45.4102 85.7367 45.0114 85.5282C44.6189 85.3126 44.3166 85.0007 44.1044 84.5922C43.8986 84.1767 43.8041 83.6878 43.8208 83.1256C43.8375 82.5633 43.9612 82.0682 44.192 81.6403C44.4292 81.2053 44.7509 80.8659 45.157 80.622C45.5631 80.3713 46.0315 80.2343 46.5618 80.211C47.0859 80.1879 47.5441 80.2842 47.9366 80.4997C48.3354 80.7081 48.6376 81.0201 48.8434 81.4356C49.0556 81.844 49.1533 82.3294 49.1366 82.8916C49.1199 83.4539 48.993 83.9526 48.7558 84.3876C48.525 84.8155 48.2065 85.1548 47.8003 85.4054C47.3942 85.6493 46.9261 85.7829 46.3958 85.8062ZM46.4342 84.5103C46.6775 84.4996 46.8978 84.4248 47.0951 84.286C47.2924 84.1472 47.4475 83.9623 47.5602 83.7314C47.6793 83.5002 47.7431 83.2406 47.7516 82.9526C47.7602 82.6646 47.7116 82.41 47.6059 82.1886C47.5067 81.967 47.3622 81.7953 47.1726 81.6736C46.9831 81.5518 46.7666 81.4962 46.5234 81.5069C46.2738 81.5179 46.0503 81.5928 45.853 81.7315C45.662 81.8701 45.507 82.055 45.388 82.2862C45.2751 82.5171 45.2145 82.7766 45.206 83.0646C45.1974 83.3526 45.2428 83.6074 45.3422 83.829C45.4477 84.0503 45.5922 84.2221 45.7755 84.3441C45.965 84.4659 46.1846 84.5213 46.4342 84.5103ZM52.202 85.3864L52.4285 77.7545L53.8136 77.6936L53.7223 80.769L53.816 80.7648C54.0056 80.462 54.2181 80.2335 54.4531 80.0794C54.6883 79.9252 54.9493 79.8418 55.2364 79.8293C55.592 79.8136 55.9043 79.8957 56.1731 80.0757C56.442 80.2487 56.6466 80.4965 56.7866 80.819C56.9328 81.1413 56.9997 81.5116 56.9873 81.9298L56.8908 85.1801L55.5057 85.241L55.5957 82.2068C55.6053 81.8845 55.532 81.6241 55.3759 81.4255C55.2198 81.227 55.0013 81.1339 54.7206 81.1462C54.5397 81.1542 54.3697 81.213 54.2107 81.3227C54.0516 81.4324 53.9226 81.5785 53.8238 81.7609C53.7313 81.9361 53.6817 82.137 53.675 82.3633L53.5871 85.3255L52.202 85.3864ZM59.2214 85.211C58.7284 85.2327 58.3331 85.1166 58.0353 84.8626C57.744 84.6015 57.6052 84.2378 57.6191 83.7716C57.6337 83.2778 57.8328 82.8719 58.2161 82.5538C58.5994 82.2356 59.17 82.0084 59.928 81.8723L60.952 81.6937L60.9584 81.4777C60.966 81.224 60.894 81.0252 60.7425 80.8812C60.5974 80.7301 60.3877 80.6605 60.1131 80.6726C59.8574 80.6839 59.6493 80.765 59.489 80.9158C59.3351 81.0664 59.2543 81.2651 59.247 81.512C59.2466 81.5257 59.2463 81.536 59.2461 81.5429L57.8891 81.6025C57.9003 81.2254 58.0006 80.8888 58.1901 80.5929C58.3858 80.2967 58.6513 80.0659 58.9864 79.9004C59.328 79.7279 59.7203 79.6319 60.1632 79.6124C60.6125 79.5926 61.0031 79.6577 61.3351 79.8074C61.6675 79.9502 61.9196 80.1652 62.0918 80.452C62.2702 80.7386 62.3536 81.0773 62.342 81.4682L62.2389 84.9448L60.8537 85.0057L60.8736 84.3371L60.7801 84.3412C60.6288 84.6081 60.4169 84.816 60.1446 84.9649C59.8785 85.1136 59.5707 85.1956 59.2214 85.211ZM59.719 84.1928C59.9435 84.1828 60.1446 84.1261 60.3222 84.0224C60.4999 83.9118 60.6412 83.7686 60.7461 83.5929C60.8513 83.4102 60.9071 83.2092 60.9136 82.9897L60.9246 82.6194L59.938 82.7963C59.6122 82.8518 59.3695 82.9516 59.2093 83.0956C59.0558 83.2324 58.9761 83.3968 58.9704 83.5888C58.9645 83.7877 59.0284 83.9424 59.1623 84.0529C59.2963 84.1566 59.4818 84.2031 59.719 84.1928ZM64.2666 84.8555L62.757 79.6626L64.217 79.5984L65.2581 83.5689L65.3518 83.5648L66.641 79.4917L68.0916 79.4278L66.2694 84.7673L64.2666 84.8555ZM70.7708 84.7336C70.2593 84.7561 69.8041 84.6598 69.4055 84.4444C69.0133 84.222 68.7112 83.8998 68.4994 83.4776C68.2877 83.0556 68.19 82.5668 68.2065 82.0114C68.2226 81.4696 68.349 80.9882 68.5858 80.5668C68.8228 80.1387 69.1445 79.7992 69.5508 79.5486C69.9569 79.2978 70.4159 79.1612 70.9275 79.1388C71.4329 79.1164 71.8755 79.2134 72.2554 79.4296C72.6417 79.6453 72.9377 79.9576 73.1436 80.3663C73.3496 80.7749 73.4445 81.2535 73.4282 81.8021C73.426 81.8776 73.4204 81.9599 73.4114 82.0494C73.4088 82.1385 73.4036 82.2107 73.3957 82.2657L69.6241 82.4317C69.6541 82.6769 69.7257 82.8896 69.8388 83.0695C69.9519 83.2494 70.0942 83.3869 70.2658 83.4821C70.4439 83.5702 70.6452 83.6092 70.8699 83.5993C71.1257 83.5881 71.3554 83.5129 71.5589 83.3738C71.7686 83.2345 71.9299 83.0528 72.0424 82.8286L73.2118 83.106C73.1027 83.4258 72.9293 83.7038 72.6917 83.9403C72.4541 84.1768 72.1713 84.3639 71.8432 84.5015C71.5151 84.6392 71.1576 84.7165 70.7708 84.7336ZM72.0293 81.3809C72.0108 81.1626 71.9481 80.9667 71.8411 80.7934C71.7341 80.62 71.5947 80.4892 71.4228 80.4009C71.2574 80.3055 71.0687 80.2624 70.8566 80.2717C70.6506 80.2808 70.4651 80.337 70.3 80.4401C70.135 80.5432 69.9937 80.6863 69.8761 80.8696C69.7649 81.0457 69.6871 81.2511 69.6427 81.4859L72.0293 81.3809ZM78.9233 84.3749C78.3991 84.3979 77.9377 84.3052 77.5389 84.0968C77.1464 83.8812 76.8442 83.5692 76.632 83.1609C76.4262 82.7454 76.3316 82.2564 76.3483 81.6942C76.365 81.1319 76.4888 80.6368 76.7196 80.209C76.9569 79.7739 77.2784 79.4345 77.6845 79.1906C78.0907 78.9399 78.559 78.8029 79.0893 78.7795C79.6134 78.7565 80.0717 78.8527 80.4641 79.0683C80.8629 79.2768 81.1652 79.5888 81.3709 80.0042C81.5832 80.4126 81.6809 80.8979 81.6642 81.4602C81.6476 82.0225 81.5206 82.5212 81.2833 82.9561C81.0526 83.3841 80.734 83.7234 80.3278 83.974C79.9217 84.2179 79.4536 84.3515 78.9233 84.3749ZM78.9617 83.0788C79.2051 83.0682 79.4253 82.9934 79.6226 82.8546C79.8199 82.7158 79.9749 82.5309 80.0878 82.3C80.2068 82.0688 80.2706 81.8092 80.2791 81.5212C80.2877 81.2332 80.2391 80.9785 80.1336 80.7572C80.0342 80.5356 79.8897 80.3639 79.7001 80.2421C79.5106 80.1203 79.2942 80.0648 79.0509 80.0756C78.8013 80.0866 78.5779 80.1614 78.3806 80.3002C78.1895 80.4387 78.0345 80.6235 77.9155 80.8548C77.8027 81.0858 77.742 81.3452 77.7335 81.6333C77.7249 81.9212 77.7704 82.176 77.8697 82.3976C77.9752 82.619 78.1197 82.7906 78.3031 82.9127C78.4926 83.0345 78.7121 83.0898 78.9617 83.0788ZM82.4264 84.0563L82.5827 78.7902L83.9678 78.7292L83.9458 79.4698L84.0394 79.4657C84.2293 79.156 84.4387 78.9242 84.6675 78.7703C84.9029 78.6093 85.1672 78.5223 85.4604 78.5095C85.8098 78.4941 86.119 78.5764 86.3877 78.7562C86.6631 78.9291 86.8706 79.1801 87.0104 79.5095C87.1503 79.8321 87.2141 80.2025 87.2017 80.6208L87.1059 83.8504L85.7207 83.9114L85.8102 80.8977C85.8199 80.5686 85.7466 80.3082 85.5903 80.1165C85.4404 79.9176 85.2251 79.8244 84.9444 79.8367C84.7634 79.8447 84.5935 79.9035 84.4345 80.0132C84.2755 80.1161 84.1467 80.2587 84.0479 80.4412C83.9554 80.6164 83.9059 80.8137 83.8994 81.0332L83.8115 83.9954L82.4264 84.0563ZM90.5304 83.8641C90.0188 83.8866 89.5637 83.7902 89.165 83.5749C88.7729 83.3525 88.4709 83.0302 88.2591 82.6081C88.0473 82.186 87.9497 81.6973 87.9662 81.1418C87.9823 80.6001 88.1087 80.1186 88.3455 79.6973C88.5825 79.2692 88.9042 78.9298 89.3103 78.679C89.7166 78.4283 90.1755 78.2917 90.6872 78.2692C91.1925 78.2469 91.6352 78.3439 92.0151 78.56C92.4012 78.7758 92.6973 79.0881 92.9032 79.4967C93.1092 79.9054 93.204 80.3841 93.1877 80.9326C93.1855 81.008 93.18 81.0905 93.1711 81.1798C93.1684 81.269 93.1631 81.3412 93.1553 81.3963L89.3836 81.5622C89.4138 81.8074 89.4854 82.02 89.5985 82.1999C89.7115 82.3798 89.8538 82.5174 90.0255 82.6125C90.2036 82.7006 90.4049 82.7397 90.6295 82.7298C90.8854 82.7185 91.115 82.6434 91.3185 82.5043C91.5283 82.3649 91.6894 82.1832 91.8021 81.9592L92.9715 82.2364C92.8623 82.5562 92.6889 82.8344 92.4514 83.0708C92.2138 83.3072 91.9309 83.4943 91.6028 83.632C91.2748 83.7697 90.9173 83.847 90.5304 83.8641ZM91.789 80.5113C91.7705 80.293 91.7078 80.0972 91.6007 79.9239C91.4937 79.7505 91.3544 79.6198 91.1825 79.5314C91.0171 79.436 90.8283 79.3929 90.6161 79.4023C90.4102 79.4112 90.2248 79.4674 90.0597 79.5705C89.8946 79.6737 89.7532 79.8168 89.6357 80C89.5246 80.1761 89.4468 80.3816 89.4024 80.6164L91.789 80.5113Z" fill="white"/>
<path d="M23.1063 50.1727L23.3296 49.5793L24.5832 50.1675C24.6424 49.9518 24.7478 49.7791 24.8994 49.6492C25.0515 49.5123 25.2318 49.4434 25.4405 49.4427C25.6752 49.4419 25.8651 49.5309 26.0102 49.71C26.1493 49.8819 26.2102 50.1044 26.1929 50.3774C26.1762 50.6432 26.0871 50.8662 25.9259 51.0464C25.7585 51.2193 25.5574 51.3062 25.3228 51.307C25.1206 51.3077 24.9038 51.2331 24.672 51.083L23.1063 50.1727ZM23.2534 47.8449L23.4767 47.2515L24.7302 47.8397C24.7894 47.6241 24.8948 47.4512 25.0464 47.3215C25.1984 47.1844 25.3788 47.1155 25.5874 47.1148C25.8222 47.1141 26.0121 47.2032 26.1572 47.3822C26.2963 47.5542 26.3574 47.7731 26.3407 48.0389C26.3234 48.3119 26.2342 48.5384 26.0729 48.7185C25.9054 48.8915 25.7045 48.9784 25.4697 48.9793C25.2676 48.98 25.0507 48.9053 24.819 48.7553L23.2534 47.8449Z" fill="#7755FF"/>
<path d="M30.6389 46.2633L24.018 44.3688L24.6138 42.3637L30.0734 40.8665L30.1045 40.762L25.4828 39.4396L25.9731 37.7895L32.5942 39.684L31.9983 41.6891L26.548 43.189L26.5169 43.2934L31.1294 44.6133L30.6389 46.2633Z" fill="#7755FF"/>
<path d="M35.3255 35.4754C34.866 36.1731 34.3404 36.6993 33.7487 37.054C33.1517 37.4046 32.5333 37.5635 31.8934 37.5303C31.2536 37.4971 30.6425 37.2605 30.0603 36.8205C29.4833 36.3844 29.0729 35.849 28.8292 35.2143C28.5854 34.5796 28.5176 33.9022 28.6259 33.1822C28.7342 32.4622 29.018 31.7533 29.4776 31.0555C29.9371 30.3578 30.4653 29.8335 31.0621 29.4828C31.663 29.1261 32.2814 28.9673 32.9174 29.0065C33.5573 29.0397 34.1657 29.2743 34.7427 29.7104C35.3249 30.1504 35.7379 30.6878 35.9816 31.3225C36.2294 31.9511 36.2971 32.6285 36.185 33.3545C36.0714 34.0707 35.785 34.7776 35.3255 35.4754ZM34.2495 34.6621C34.5149 34.2591 34.6706 33.8452 34.7167 33.4206C34.7668 32.9899 34.7088 32.5813 34.5431 32.1947C34.3773 31.8081 34.115 31.4793 33.7564 31.2082C33.3977 30.9372 33.0205 30.7827 32.6249 30.7451C32.2294 30.7073 31.8506 30.7859 31.4887 30.9809C31.1306 31.1698 30.819 31.4658 30.5536 31.8688C30.2921 32.2658 30.1363 32.6796 30.0864 33.1103C30.0363 33.5409 30.0942 33.9496 30.26 34.3362C30.4297 34.7167 30.694 35.0426 31.0527 35.3136C31.4114 35.5847 31.7865 35.7421 32.1781 35.7858C32.5737 35.8236 32.9525 35.745 33.3143 35.55C33.6763 35.3551 33.988 35.0591 34.2495 34.6621Z" fill="#7755FF"/>
<path d="M39.3644 30.0664L38.1106 22.2048L40.1783 20.8091L45.5676 25.8793L44.1203 26.8563L43.1472 25.9599L40.597 27.6813L40.8118 29.0894L39.3644 30.0664ZM40.3364 26.3649L42.2663 25.0623L39.8517 22.7663L39.7656 22.8245L40.3364 26.3649Z" fill="#7755FF"/>
<path d="M46.0863 25.7274L44.8236 18.3015L47.398 17.577C48.1821 17.3563 48.8998 17.3183 49.5507 17.463C50.2005 17.6006 50.7371 17.905 51.1607 18.3759C51.5832 18.84 51.857 19.4405 51.9823 20.1775C52.1077 20.9145 52.0543 21.6108 51.8222 22.2662C51.5889 22.9147 51.2001 23.4795 50.6555 23.9606C50.1098 24.4348 49.4447 24.7822 48.6605 25.003L46.0863 25.7274ZM48.4301 23.647C48.8929 23.5168 49.285 23.3081 49.6066 23.0209C49.9336 22.7248 50.1632 22.3725 50.2957 21.9635C50.4335 21.546 50.4622 21.1007 50.3818 20.6279C50.3015 20.1551 50.1315 19.7694 49.872 19.4709C49.6176 19.1636 49.2945 18.9667 48.9026 18.8803C48.516 18.7851 48.0913 18.8027 47.6285 18.9329L46.6161 19.2178L47.4176 23.932L48.4301 23.647Z" fill="#7755FF"/>
<path d="M53.1695 23.8905L54.0626 16.2292L56.6586 16.3894C57.4494 16.4382 58.1274 16.6425 58.6926 17.0025C59.2586 17.3554 59.673 17.8325 59.9358 18.4339C60.1995 19.0282 60.2871 19.7055 60.1984 20.4659C60.1098 21.2263 59.8663 21.8868 59.468 22.4474C59.0704 23.001 58.5515 23.4204 57.9111 23.7061C57.2715 23.9845 56.5563 24.0994 55.7655 24.0506L53.1695 23.8905ZM55.9286 22.6518C56.3953 22.6806 56.8182 22.6092 57.1973 22.4374C57.5837 22.2589 57.8953 21.9928 58.1325 21.6389C58.3769 21.2783 58.5275 20.8541 58.5844 20.3663C58.6413 19.8786 58.5905 19.4456 58.4323 19.0673C58.2813 18.6822 58.0357 18.3817 57.6952 18.1656C57.3621 17.9428 56.9622 17.8169 56.4956 17.7882L55.4747 17.7252L54.9077 22.5888L55.9286 22.6518Z" fill="#7755FF"/>
<path d="M60.1281 24.4944L63.0027 17.2913L66.0401 18.5541C66.5284 18.757 66.9212 19.0344 67.2182 19.386C67.5154 19.7376 67.6939 20.1341 67.7538 20.5758C67.8196 21.0199 67.7596 21.4747 67.5739 21.9401C67.4177 22.3312 67.202 22.6543 66.9267 22.9094C66.6539 23.1578 66.3415 23.3228 65.9896 23.4045C65.6461 23.4819 65.297 23.4783 64.942 23.3936L64.8616 23.3601L65.8455 26.8714L64.1392 26.1619L63.3351 22.8788L62.6204 22.5818L61.611 25.111L60.1281 24.4944ZM64.4506 21.9626C64.8079 22.1112 65.1341 22.1289 65.4294 22.0157C65.7305 21.905 65.9482 21.6809 66.0828 21.3438C66.2175 21.0065 66.2135 20.6943 66.0713 20.4071C65.9376 20.1156 65.6921 19.8956 65.3348 19.7471L63.9769 19.1825L63.0927 21.3981L64.4506 21.9626Z" fill="#7755FF"/>
<path d="M66.0713 27.1837L70.5338 20.9432L74.4914 24.2353L73.6515 25.4098L70.9151 23.1335L69.9312 24.5096L72.4639 26.6165L71.7306 27.642L69.1979 25.535L68.1323 27.0251L70.944 29.364L70.1042 30.5385L66.0713 27.1837Z" fill="#7755FF"/>
<path d="M71.9472 33.4922C71.5916 32.9626 71.3621 32.4267 71.2588 31.8848C71.1608 31.3384 71.1915 30.8272 71.3509 30.3516C71.5194 29.8769 71.8046 29.4696 72.2065 29.1298L73.0935 30.4513C72.772 30.7232 72.6007 31.0559 72.5794 31.4498C72.5635 31.8391 72.6997 32.2484 72.9878 32.6777C73.1451 32.9119 73.3112 33.0905 73.4861 33.2136C73.661 33.3365 73.832 33.3973 73.9991 33.396C74.1752 33.3956 74.3383 33.332 74.4883 33.2051C74.6544 33.0647 74.7483 32.8979 74.7699 32.7048C74.8005 32.5128 74.782 32.3099 74.7142 32.0963C74.6464 31.8827 74.5404 31.6183 74.3961 31.3033C74.3886 31.2922 74.3811 31.2811 74.3737 31.2698C74.3715 31.2542 74.3685 31.2436 74.3648 31.238L74.2229 30.9515C73.9937 30.4723 73.827 30.0364 73.723 29.6436C73.619 29.2509 73.611 28.8512 73.6992 28.4444C73.7874 28.0377 74.027 27.669 74.4182 27.3382C74.7824 27.0301 75.1686 26.8609 75.5767 26.8306C75.9846 26.8003 76.3871 26.9057 76.7842 27.1468C77.1849 27.3935 77.5537 27.7677 77.8905 28.2697C78.2311 28.777 78.4456 29.2906 78.534 29.8101C78.6316 30.3307 78.5996 30.8211 78.4379 31.2812C78.2764 31.7412 77.9973 32.1388 77.6009 32.4741L76.7419 31.1945C76.7473 31.1899 76.7553 31.1832 76.766 31.1741C77.066 30.9204 77.2261 30.6146 77.2463 30.2566C77.2702 29.9043 77.1549 29.5386 76.9004 29.1594C76.7431 28.9252 76.5789 28.7494 76.4078 28.6319C76.2365 28.5145 76.0675 28.4566 75.9004 28.4579C75.7424 28.4603 75.5911 28.5227 75.4465 28.6451C75.2804 28.7855 75.1857 28.9573 75.1626 29.1605C75.1484 29.3648 75.179 29.5793 75.2543 29.804C75.335 30.0243 75.4568 30.3058 75.6198 30.6487L75.651 30.7141C75.8958 31.2414 76.0765 31.7047 76.1934 32.1041C76.314 32.509 76.3333 32.9255 76.2509 33.3534C76.1686 33.7814 75.9185 34.1721 75.5006 34.5255C75.1309 34.8382 74.7383 35.0041 74.3228 35.0233C73.9073 35.0425 73.4936 34.9203 73.0817 34.6569C72.6734 34.399 72.2952 34.0108 71.9472 33.4922Z" fill="#7755FF"/>
<path d="M74.8025 39.4718C74.6027 38.8432 74.523 38.2473 74.5633 37.6841C74.6099 37.1181 74.7685 36.6263 75.0392 36.2086C75.3182 35.7948 75.6897 35.4829 76.1538 35.273L76.6523 36.8411C76.281 37.009 76.0354 37.2829 75.9155 37.6626C75.8018 38.0396 75.8258 38.4827 75.9878 38.9922C76.0761 39.27 76.187 39.4962 76.3203 39.6706C76.4535 39.8448 76.5988 39.957 76.7562 40.0067C76.922 40.0605 77.0914 40.0481 77.2648 39.9697C77.4565 39.883 77.5871 39.7482 77.6564 39.5655C77.734 39.3866 77.7681 39.1819 77.7586 38.9516C77.7491 38.7213 77.7164 38.4295 77.6608 38.0763C77.6566 38.0631 77.6524 38.0499 77.6482 38.0366C77.6501 38.0206 77.6501 38.0093 77.648 38.0026L77.5872 37.6782C77.4934 37.1379 77.4473 36.6592 77.4493 36.2421C77.4511 35.8249 77.5452 35.4305 77.7312 35.0587C77.9174 34.6869 78.2363 34.3988 78.6881 34.1944C79.1088 34.004 79.5148 33.9565 79.9062 34.0519C80.2974 34.1473 80.6492 34.3742 80.9612 34.7325C81.2754 35.0974 81.5271 35.5775 81.7166 36.173C81.908 36.7752 81.9792 37.3446 81.9305 37.8813C81.89 38.4219 81.7354 38.8929 81.4667 39.2945C81.1979 39.6961 80.8346 40.0005 80.3768 40.2077L79.894 38.6892C79.9002 38.6864 79.9095 38.6822 79.9219 38.6766C80.2684 38.5198 80.4965 38.2689 80.6063 37.9242C80.7182 37.5859 80.7027 37.1919 80.5597 36.7419C80.4713 36.464 80.3615 36.2412 80.2303 36.0735C80.0992 35.9058 79.9549 35.7971 79.7975 35.7472C79.6483 35.7012 79.4902 35.7159 79.3231 35.7914C79.1314 35.8783 78.9987 36.0177 78.9253 36.2099C78.8603 36.4059 78.8345 36.6256 78.8482 36.8691C78.8682 37.1099 78.9112 37.4234 78.9774 37.8098L78.9902 37.8834C79.0865 38.4756 79.1388 38.9855 79.1473 39.413C79.1581 39.8472 79.0703 40.2615 78.8843 40.656C78.6982 41.0504 78.364 41.3568 77.8813 41.5752C77.4543 41.7684 77.0431 41.8108 76.6475 41.7021C76.252 41.5935 75.8941 41.3468 75.5736 40.962C75.2551 40.5839 74.9981 40.0871 74.8025 39.4718Z" fill="#7755FF"/>
<path d="M80.1879 42.8604L80.3127 42.2436L81.6625 42.6C81.6831 42.3804 81.759 42.19 81.8904 42.0291C82.0224 41.8752 82.1925 41.7792 82.4007 41.7409C82.6349 41.6978 82.8342 41.7475 82.9987 41.8901C83.1704 42.0384 83.2676 42.2437 83.2905 42.5058C83.314 42.775 83.2582 43.0084 83.1234 43.2059C82.9887 43.4034 82.8009 43.5243 82.5601 43.5686C82.3649 43.6045 82.1375 43.5744 81.8779 43.4781L80.1879 42.8604ZM80.3881 45.1557L80.5128 44.539L81.8617 44.8847C81.8823 44.665 81.9582 44.4746 82.0897 44.3138C82.2216 44.1599 82.3917 44.0638 82.6 44.0256C82.8341 43.9825 83.0336 44.0322 83.1981 44.1747C83.3696 44.3231 83.4671 44.5319 83.4906 44.8011C83.5135 45.0632 83.4575 45.2931 83.3228 45.4906C83.1885 45.6952 83.001 45.8197 82.7603 45.8639C82.5652 45.8999 82.3374 45.8661 82.0772 45.7628L80.3881 45.1557Z" fill="#7755FF"/>
<path d="M88.3165 47.3186C87.6699 69.1058 71.0749 87.4751 51.2503 88.3474C31.4259 89.2198 15.8793 72.265 16.5259 50.4777C17.1725 28.6905 33.7675 10.3212 53.592 9.44884C73.4165 8.57646 88.9631 25.5313 88.3165 47.3186Z" fill="white" stroke="#7755FF" stroke-width="6.4"/>
<path d="M51.8943 61.3468L98.9463 59.2762L98.0444 89.6629L50.9924 91.7334L51.8943 61.3468Z" fill="white"/>
<mask id="mask1_1713_35291" style="mask-type:luminance" maskUnits="userSpaceOnUse" x="50" y="59" width="49" height="33">
<path d="M51.8943 61.3468L98.9463 59.2762L98.0444 89.6629L50.9924 91.7334L51.8943 61.3468Z" fill="white"/>
</mask>
<g mask="url(#mask1_1713_35291)">
<path d="M98.9463 59.2762L104.767 59.0201L104.957 52.6229L99.1362 52.8791L98.9463 59.2762ZM98.0445 89.6629L97.8546 96.06L103.675 95.8039L103.865 89.4067L98.0445 89.6629ZM51.7045 67.744L98.7565 65.6734L99.1362 52.8791L52.0842 54.9496L51.7045 67.744ZM93.1255 59.5324L92.2236 89.919L103.865 89.4067L104.767 59.0201L93.1255 59.5324ZM98.2344 83.2657L51.1823 85.3362L50.8026 98.1306L97.8546 96.06L98.2344 83.2657Z" fill="#7755FF"/>
</g>
<path d="M36.0759 59.4413L84.4864 56.1758L81.384 68.9241L35.7038 71.9793L36.0759 59.4413Z" fill="white"/>
<path d="M53.3809 66.5158C50.9615 66.6223 48.8291 66.0593 46.9837 64.8268C45.1646 63.5651 43.7682 61.7679 42.7947 59.4349C41.822 57.0739 41.381 54.3681 41.4715 51.3174C41.5621 48.2667 42.1647 45.529 43.2794 43.1041C44.395 40.6512 45.9018 38.7261 47.7999 37.3289C49.7242 35.9025 51.896 35.1361 54.3154 35.0297C56.7091 34.9243 58.8283 35.5019 60.673 36.7624C62.5184 37.9949 63.9275 39.7916 64.9002 42.1526C65.8737 44.4856 66.3152 47.1775 66.2246 50.2281C66.1341 53.2788 65.5311 56.0305 64.4155 58.4834C63.3008 60.9083 61.7812 62.834 59.8568 64.2603C57.9333 65.6587 55.7746 66.4105 53.3809 66.5158ZM53.5591 60.5124C54.7559 60.4598 55.812 60.008 56.7274 59.1571C57.6683 58.3052 58.4154 57.1263 58.9688 55.6206C59.5221 54.1148 59.827 52.4103 59.8835 50.5072C59.94 48.604 59.7356 46.922 59.2703 45.461C58.805 44.0001 58.126 42.884 57.2333 42.1126C56.3661 41.3403 55.334 40.9804 54.1372 41.033C52.9402 41.0857 51.8714 41.538 50.9305 42.3901C49.9896 43.242 49.2425 44.4209 48.6892 45.9266C48.1613 47.4313 47.8691 49.1352 47.8126 51.0384C47.7561 52.9416 47.9478 54.6242 48.3876 56.0862C48.8529 57.5471 49.5319 58.6632 50.4246 59.4346C51.3172 60.2058 52.362 60.5651 53.5591 60.5124Z" fill="#7755FF"/>
<path d="M42.0343 69.8201C41.8026 69.8303 41.6147 69.7603 41.4708 69.6101C41.3271 69.4534 41.2589 69.251 41.2663 69.0028C41.2736 68.7547 41.354 68.549 41.5072 68.3856C41.6606 68.2158 41.8532 68.1259 42.0849 68.1157C42.3226 68.1052 42.5103 68.1785 42.6481 68.3355C42.792 68.4856 42.8602 68.6848 42.8528 68.933C42.8455 69.1811 42.7651 69.3901 42.6117 69.5599C42.4645 69.7229 42.272 69.8097 42.0343 69.8201ZM41.2052 75.56L41.3541 70.5447L42.6732 70.4866L42.5244 75.502L41.2052 75.56ZM45.4297 75.5307C45.1266 75.544 44.8644 75.4838 44.6429 75.35C44.4215 75.2098 44.2524 75.0085 44.1355 74.7463C44.0187 74.484 43.9656 74.1765 43.976 73.8239L44.0455 71.4827L43.4038 71.511L43.4352 70.4531L44.1214 70.4229L44.4181 68.825L45.452 68.7794L45.4049 70.3663L46.4389 70.3209L46.4075 71.3788L45.3735 71.4243L45.3058 73.7067C45.2996 73.9157 45.348 74.0831 45.4511 74.209C45.5542 74.3349 45.6979 74.3938 45.8821 74.3857C46.0485 74.3784 46.2096 74.3485 46.3655 74.296L46.3346 75.3343C46.2025 75.3858 46.0529 75.4282 45.8858 75.4617C45.7184 75.5016 45.5664 75.5246 45.4297 75.5307ZM49.1229 75.3877C48.6773 75.4073 48.2933 75.3492 47.9709 75.2134C47.6485 75.0776 47.4053 74.8763 47.2411 74.6096C47.0769 74.3429 47.0005 74.0169 47.0119 73.6317L48.1706 73.5806C48.1627 73.8484 48.2484 74.0598 48.4278 74.215C48.6131 74.3699 48.8662 74.4402 49.1871 74.4261C49.4426 74.4149 49.6463 74.3505 49.7981 74.233C49.95 74.1154 50.0286 73.9619 50.0343 73.7726C50.0383 73.6354 50.0029 73.5326 49.9278 73.4642C49.8528 73.3892 49.7535 73.3382 49.6296 73.311C49.5058 73.2838 49.3344 73.262 49.1153 73.2456C49.1036 73.2395 49.0888 73.237 49.071 73.2378C49.0531 73.2385 49.0383 73.2392 49.0265 73.2398L48.8576 73.2275C48.5143 73.197 48.2192 73.1448 47.9721 73.0709C47.7251 72.9969 47.5155 72.8595 47.3435 72.6583C47.1773 72.4569 47.1 72.1668 47.1112 71.7881C47.1213 71.4485 47.2132 71.1509 47.3869 70.8955C47.5668 70.6332 47.8103 70.4268 48.1174 70.2764C48.4305 70.1256 48.7891 70.0414 49.1931 70.0236C49.6031 70.0055 49.9635 70.0615 50.2741 70.1912C50.5909 70.3143 50.8347 70.4992 51.0054 70.7461C51.1761 70.9928 51.2564 71.286 51.2463 71.6257L50.043 71.6786C50.0436 71.4568 49.9628 71.2844 49.8003 71.161C49.6439 71.031 49.432 70.9718 49.1646 70.9836C48.9269 70.994 48.7292 71.0582 48.5714 71.1759C48.4196 71.2935 48.341 71.4404 48.3357 71.6167C48.3317 71.7539 48.3732 71.8565 48.4602 71.9244C48.5472 71.9923 48.6585 72.0396 48.7942 72.0662C48.9299 72.0929 49.1192 72.1138 49.3621 72.1292L49.5219 72.1418C49.5279 72.1415 49.5308 72.1414 49.5308 72.1414C49.5308 72.1414 49.5338 72.1412 49.5397 72.141C49.5397 72.141 49.5427 72.1409 49.5486 72.1407C49.5486 72.1407 49.5516 72.1404 49.5576 72.1402C49.5635 72.14 49.5694 72.143 49.5751 72.1492C49.9125 72.1801 50.2075 72.2355 50.4603 72.3157C50.7193 72.3891 50.9316 72.5298 51.0976 72.7377C51.2696 72.9388 51.3502 73.2223 51.3394 73.5879C51.3289 73.9406 51.2338 74.2481 51.0539 74.5104C50.874 74.7725 50.6186 74.9794 50.2878 75.131C49.9569 75.2825 49.5686 75.3681 49.1229 75.3877ZM56.6256 75.038C56.1265 75.06 55.687 74.9717 55.3071 74.7731C54.9334 74.5679 54.6455 74.2707 54.4434 73.8818C54.2475 73.486 54.1575 73.0205 54.1734 72.4849C54.1893 71.9494 54.3071 71.4779 54.5268 71.0705C54.7528 70.6561 55.0591 70.3328 55.4458 70.1006C55.8327 69.8619 56.2787 69.7314 56.7838 69.7091C57.2829 69.6871 57.7194 69.7788 58.0931 69.9841C58.4729 70.1826 58.7608 70.4797 58.9568 70.8755C59.1589 71.2645 59.252 71.7266 59.2361 72.2622C59.2202 72.7977 59.0993 73.2726 58.8733 73.6869C58.6535 74.0943 58.3501 74.4175 57.9632 74.6563C57.5766 74.8885 57.1307 75.0158 56.6256 75.038ZM56.6623 73.8037C56.894 73.7935 57.1038 73.7223 57.2917 73.5901C57.4796 73.4579 57.6273 73.2819 57.7347 73.0619C57.848 72.8418 57.9088 72.5945 57.9169 72.3202C57.9251 72.0459 57.8788 71.8034 57.7783 71.5926C57.6837 71.3816 57.5461 71.218 57.3656 71.102C57.185 70.9861 56.9789 70.9332 56.7472 70.9434C56.5095 70.9538 56.2966 71.0252 56.1087 71.1573C55.9268 71.2893 55.7791 71.4653 55.6658 71.6855C55.5584 71.9055 55.5007 72.1526 55.4925 72.4269C55.4844 72.7012 55.5276 72.9439 55.6222 73.1549C55.7227 73.3657 55.8603 73.5292 56.0349 73.6454C56.2154 73.7615 56.4246 73.8142 56.6623 73.8037ZM59.9619 74.7346L60.1776 67.4662L61.4968 67.4081L61.372 71.6105L61.4612 71.6066L62.9808 69.5929L64.5763 69.5227L62.6062 72.016L64.4631 74.5366L62.8587 74.6072L61.4336 72.5372L61.3444 72.5411L61.281 74.6765L59.9619 74.7346ZM66.2641 74.5845C65.7946 74.6051 65.4181 74.4945 65.1345 74.2527C64.857 74.004 64.7249 73.6576 64.7381 73.2135C64.752 72.7433 64.9415 72.3567 65.3066 72.0537C65.6716 71.7507 66.2151 71.5343 66.937 71.4048L67.9124 71.2346L67.9185 71.0289C67.9256 70.7873 67.857 70.5979 67.7127 70.4608C67.5746 70.3169 67.3748 70.2507 67.1133 70.2622C66.8697 70.2729 66.6716 70.3501 66.5189 70.4938C66.3722 70.6372 66.2954 70.8265 66.2884 71.0616C66.2881 71.0746 66.2878 71.0844 66.2876 71.091L64.9952 71.1479C65.0059 70.7886 65.1014 70.4681 65.2818 70.1862C65.4682 69.9041 65.7211 69.6844 66.0403 69.5268C66.3656 69.3624 66.7392 69.2711 67.1611 69.2525C67.5889 69.2337 67.9609 69.2955 68.2772 69.4382C68.5936 69.5742 68.8338 69.7788 68.9978 70.0521C69.1678 70.3251 69.2472 70.6477 69.2362 71.0199L69.1379 74.3309L67.8187 74.3889L67.8376 73.7521L67.7485 73.7561C67.6045 74.0102 67.4028 74.2082 67.1434 74.3501C66.8899 74.4917 66.5968 74.5699 66.2641 74.5845ZM66.7379 73.6146C66.9518 73.6053 67.1433 73.5511 67.3124 73.4524C67.4817 73.3472 67.6163 73.2108 67.7162 73.0433C67.8164 72.8694 67.8695 72.6779 67.8757 72.4689L67.8862 72.1163L66.9465 72.2849C66.6363 72.3376 66.4051 72.4326 66.2526 72.5697C66.1063 72.7001 66.0305 72.8566 66.0251 73.0395C66.0194 73.2289 66.0803 73.3762 66.2078 73.4815C66.3354 73.5802 66.5121 73.6247 66.7379 73.6146ZM70.8593 76.5149C70.7048 76.5217 70.5389 76.5127 70.3616 76.4879C70.1903 76.4628 70.043 76.4269 69.9197 76.3802L69.9632 75.2141C70.0629 75.2554 70.1747 75.2863 70.2987 75.3069C70.4227 75.3276 70.5352 75.3357 70.6362 75.3313C70.7907 75.3244 70.9256 75.2826 71.0406 75.2058C71.1554 75.1356 71.2501 75.0433 71.3247 74.9292C71.3991 74.8216 71.4746 74.678 71.5511 74.4985C71.5701 74.4586 71.5862 74.4187 71.5992 74.3791C71.6123 74.3394 71.6252 74.3029 71.6381 74.2697L69.6402 69.2999L71.0575 69.2376L72.1838 72.3772L72.2729 72.3733L73.3571 69.1363L74.7297 69.0759L72.8108 74.3453C72.8045 74.3586 72.7982 74.372 72.7918 74.3853C72.7915 74.3984 72.788 74.4115 72.7817 74.4248C72.6073 74.9021 72.4358 75.2814 72.2673 75.5627C72.0985 75.8506 71.8989 76.0778 71.6685 76.2446C71.444 76.411 71.1742 76.5011 70.8593 76.5149ZM77.3445 73.9697L77.4933 68.9543L78.8125 68.8963L78.7915 69.6016L78.8807 69.5976C79.0615 69.3027 79.2609 69.082 79.4789 68.9355C79.703 68.782 79.9547 68.6993 80.234 68.687C80.5667 68.6723 80.8611 68.7507 81.1172 68.9221C81.3793 69.0866 81.577 69.3257 81.7101 69.6395C81.8434 69.9467 81.9042 70.2994 81.8924 70.6977L81.8011 73.7736L80.4819 73.8317L80.5671 70.9615C80.5764 70.6481 80.5066 70.4 80.3577 70.2174C80.215 70.0281 80.0099 69.9393 79.7425 69.951C79.5702 69.9586 79.4083 70.0147 79.2569 70.1191C79.1056 70.2171 78.9829 70.353 78.8887 70.5267C78.8007 70.6936 78.7536 70.8815 78.7473 71.0905L78.6636 73.9117L77.3445 73.9697ZM85.0625 73.7865C84.5634 73.8086 84.124 73.7203 83.7441 73.5218C83.3704 73.3164 83.0825 73.0194 82.8804 72.6304C82.6845 72.2347 82.5944 71.769 82.6103 71.2336C82.6261 70.6981 82.7441 70.2266 82.9639 69.819C83.1898 69.4048 83.4961 69.0815 83.8828 68.8493C84.2697 68.6104 84.7156 68.4799 85.2207 68.4577C85.7198 68.4358 86.1562 68.5275 86.53 68.7328C86.9098 68.9312 87.1977 69.2284 87.3937 69.6241C87.5958 70.013 87.6889 70.4753 87.673 71.0108C87.6571 71.5462 87.5362 72.0212 87.3102 72.4354C87.0904 72.843 86.7871 73.1661 86.4003 73.4049C86.0136 73.6371 85.5676 73.7643 85.0625 73.7865ZM85.0992 72.5523C85.3309 72.5422 85.5407 72.471 85.7286 72.3388C85.9165 72.2066 86.0642 72.0305 86.1716 71.8106C86.2849 71.5903 86.3457 71.3431 86.3538 71.0689C86.3619 70.7946 86.3157 70.552 86.2152 70.3412C86.1206 70.1301 85.983 69.9667 85.8025 69.8507C85.6219 69.7347 85.4158 69.6818 85.1841 69.6919C84.9464 69.7024 84.7336 69.7738 84.5457 69.906C84.3638 70.0379 84.2162 70.214 84.1028 70.4342C83.9954 70.6541 83.9376 70.9012 83.9294 71.1755C83.9213 71.4498 83.9646 71.6925 84.0592 71.9036C84.1598 72.1143 84.2973 72.2779 84.4719 72.3941C84.6524 72.51 84.8615 72.5628 85.0992 72.5523ZM90.0305 73.5679C89.7275 73.5814 89.4652 73.5211 89.2437 73.3874C89.0224 73.2471 88.8532 73.0459 88.7364 72.7836C88.6195 72.5213 88.5664 72.2139 88.5769 71.8613L88.6464 69.5201L88.0046 69.5484L88.036 68.4904L88.7223 68.4602L89.0189 66.8623L90.0529 66.8168L90.0058 68.4037L91.0397 68.3582L91.0083 69.4161L89.9744 69.4617L89.9066 71.7441C89.9004 71.953 89.9489 72.1205 90.0519 72.2464C90.155 72.3722 90.2987 72.4312 90.4829 72.423C90.6493 72.4157 90.8104 72.3858 90.9663 72.3333L90.9355 73.3716C90.8034 73.4231 90.6538 73.4656 90.4866 73.499C90.3193 73.539 90.1672 73.562 90.0305 73.5679ZM43.6351 84.5939C43.332 84.6072 43.0698 84.547 42.8483 84.4133C42.6269 84.2731 42.4578 84.0717 42.3409 83.8096C42.2241 83.5473 42.171 83.2399 42.1814 82.8872L42.2509 80.5461L41.6092 80.5742L41.6406 79.5163L42.3268 79.4861L42.6235 77.8882L43.6574 77.8427L43.6103 79.4296L44.6442 79.3842L44.6128 80.4421L43.5789 80.4875L43.5112 82.7699C43.505 82.9789 43.5534 83.1463 43.6565 83.2723C43.7596 83.3982 43.9033 83.4571 44.0875 83.449C44.2539 83.4417 44.415 83.4117 44.5708 83.3592L44.54 84.3976C44.4079 84.4491 44.2583 84.4914 44.0912 84.5249C43.9238 84.5649 43.7717 84.5879 43.6351 84.5939ZM47.4846 84.4245C46.9855 84.4464 46.5459 84.3583 46.1661 84.1597C45.7924 83.9544 45.5045 83.6573 45.3024 83.2683C45.1064 82.8726 45.0164 82.407 45.0323 81.8715C45.0482 81.336 45.166 80.8645 45.3858 80.4569C45.6118 80.0426 45.9181 79.7194 46.3048 79.4872C46.6916 79.2484 47.1377 79.1179 47.6428 79.0957C48.1419 79.0737 48.5783 79.1654 48.952 79.3706C49.3319 79.5692 49.6198 79.8663 49.8157 80.2621C50.0178 80.651 50.1109 81.1132 50.095 81.6487C50.0791 82.1842 49.9582 82.6591 49.7323 83.0734C49.5125 83.4809 49.2091 83.804 48.8222 84.0428C48.4355 84.2751 47.9897 84.4023 47.4846 84.4245ZM47.5212 83.1903C47.753 83.18 47.9628 83.1088 48.1507 82.9767C48.3386 82.8445 48.4862 82.6685 48.5936 82.4485C48.707 82.2282 48.7677 81.981 48.7759 81.7067C48.784 81.4325 48.7378 81.1899 48.6373 80.9791C48.5426 80.7681 48.4051 80.6046 48.2245 80.4886C48.044 80.3726 47.8379 80.3197 47.6061 80.3299C47.3685 80.3404 47.1556 80.4117 46.9677 80.5439C46.7858 80.6759 46.6381 80.8518 46.5248 81.0721C46.4174 81.292 46.3596 81.5392 46.3515 81.8135C46.3434 82.0877 46.3865 82.3303 46.4812 82.5414C46.5817 82.7522 46.7193 82.9158 46.8939 83.032C47.0744 83.148 47.2836 83.2007 47.5212 83.1903ZM53.0144 84.0246L53.2301 76.7562L54.5492 76.6982L54.4623 79.6271L54.5514 79.6232C54.7321 79.3348 54.9344 79.1172 55.1583 78.9704C55.3822 78.8236 55.6309 78.7441 55.9043 78.7321C56.243 78.7172 56.5403 78.7954 56.7963 78.9668C57.0525 79.1315 57.2473 79.3676 57.3806 79.6748C57.5199 79.9817 57.5836 80.3343 57.5718 80.7328L57.4799 83.8282L56.1608 83.8862L56.2465 80.9965C56.2557 80.6895 56.1859 80.4415 56.0372 80.2524C55.8885 80.0633 55.6804 79.9746 55.413 79.9864C55.2407 79.994 55.0788 80.05 54.9273 80.1545C54.7759 80.259 54.6531 80.3981 54.5589 80.5718C54.4709 80.7388 54.4236 80.93 54.4172 81.1455L54.3335 83.9666L53.0144 84.0246ZM59.6995 83.8577C59.2301 83.8783 58.8535 83.7677 58.5699 83.5258C58.2925 83.2772 58.1603 82.9308 58.1735 82.4867C58.1875 82.0165 58.377 81.6299 58.742 81.3268C59.1071 81.0238 59.6505 80.8076 60.3724 80.6779L61.3478 80.5079L61.3539 80.3022C61.3611 80.0605 61.2924 79.8712 61.1481 79.734C61.01 79.5901 60.8102 79.5239 60.5487 79.5353C60.3051 79.5461 60.107 79.6233 59.9544 79.7669C59.8077 79.9104 59.7308 80.0996 59.7239 80.3347C59.7235 80.3478 59.7232 80.3576 59.723 80.3641L58.4306 80.421C58.4413 80.0619 58.5368 79.7412 58.7173 79.4595C58.9037 79.1773 59.1565 78.9575 59.4757 78.8C59.8011 78.6357 60.1746 78.5442 60.5965 78.5256C61.0243 78.5068 61.3964 78.5687 61.7126 78.7113C62.029 78.8474 62.2693 79.0521 62.4333 79.3253C62.6032 79.5982 62.6826 79.9208 62.6716 80.2931L62.5733 83.604L61.2542 83.6621L61.2731 83.0254L61.1839 83.0292C61.0399 83.2835 60.8382 83.4815 60.5788 83.6233C60.3253 83.7649 60.0322 83.843 59.6995 83.8577ZM60.1733 82.8879C60.3873 82.8784 60.5788 82.8244 60.7479 82.7257C60.9171 82.6203 61.0518 82.484 61.1517 82.3166C61.2518 82.1425 61.3049 81.951 61.3111 81.7421L61.3216 81.3895L60.3819 81.558C60.0717 81.6108 59.8405 81.7057 59.6881 81.8428C59.5418 81.9732 59.4659 82.1299 59.4605 82.3127C59.4549 82.5021 59.5158 82.6494 59.6432 82.7547C59.7708 82.8534 59.9475 82.8978 60.1733 82.8879ZM64.5045 83.519L63.0668 78.5734L64.4573 78.5122L65.4488 82.2937L65.538 82.2898L66.7657 78.4107L68.1473 78.3498L66.4119 83.4351L64.5045 83.519ZM70.699 83.403C70.2117 83.4244 69.7782 83.3326 69.3986 83.1276C69.025 82.9157 68.7374 82.6088 68.5357 82.2068C68.334 81.8048 68.241 81.3393 68.2567 80.8104C68.272 80.2944 68.3925 79.8359 68.618 79.4346C68.8437 79.0269 69.1501 78.7035 69.5369 78.4648C69.9238 78.2261 70.3609 78.0959 70.8481 78.0744C71.3295 78.0533 71.7511 78.1457 72.1129 78.3515C72.4807 78.557 72.7626 78.8544 72.9588 79.2436C73.1549 79.6329 73.2452 80.0886 73.2297 80.6111C73.2276 80.6829 73.2223 80.7614 73.2139 80.8466C73.2113 80.9315 73.2063 81.0002 73.1988 81.0527L69.6068 81.2107C69.6355 81.4443 69.7036 81.6467 69.8113 81.818C69.9189 81.9894 70.0546 82.1204 70.218 82.2111C70.3877 82.2948 70.5794 82.3321 70.7933 82.3227C71.0369 82.312 71.2557 82.2404 71.4495 82.108C71.6493 81.9752 71.8028 81.8022 71.91 81.5888L73.0238 81.8528C72.9198 82.1574 72.7546 82.4222 72.5283 82.6474C72.3021 82.8726 72.0328 83.0508 71.7203 83.182C71.4078 83.3131 71.0674 83.3868 70.699 83.403ZM71.8975 80.2099C71.88 80.002 71.8202 79.8154 71.7183 79.6504C71.6164 79.4853 71.4836 79.3607 71.3199 79.2766C71.1624 79.1857 70.9825 79.1447 70.7805 79.1536C70.5844 79.1622 70.4078 79.2157 70.2506 79.3139C70.0934 79.4121 69.9588 79.5484 69.8468 79.723C69.741 79.8907 69.6668 80.0863 69.6246 80.3099L71.8975 80.2099ZM78.4632 83.0613C77.964 83.0833 77.5246 82.995 77.1447 82.7965C76.771 82.5911 76.4831 82.2941 76.281 81.9051C76.0851 81.5094 75.995 81.0437 76.0109 80.5083C76.0268 79.9727 76.1447 79.5013 76.3645 79.0937C76.5904 78.6795 76.8967 78.3562 77.2834 78.124C77.6703 77.8852 78.1162 77.7546 78.6213 77.7324C79.1205 77.7105 79.5569 77.8022 79.9306 78.0075C80.3104 78.2059 80.5983 78.5031 80.7943 78.8988C80.9964 79.2877 81.0895 79.75 81.0736 80.2855C81.0577 80.8209 80.9368 81.2959 80.7108 81.7101C80.491 82.1177 80.1878 82.4408 79.8009 82.6796C79.4142 82.9118 78.9682 83.039 78.4632 83.0613ZM78.4998 81.827C78.7315 81.8169 78.9414 81.7457 79.1292 81.6135C79.3171 81.4813 79.4648 81.3052 79.5722 81.0853C79.6855 80.865 79.7463 80.6178 79.7544 80.3436C79.7626 80.0693 79.7164 79.8267 79.6158 79.6159C79.5212 79.4048 79.3836 79.2414 79.2031 79.1254C79.0226 79.0094 78.8164 78.9565 78.5847 78.9666C78.347 78.9771 78.1343 79.0484 77.9464 79.1806C77.7644 79.3126 77.6168 79.4887 77.5034 79.7089C77.396 79.9288 77.3382 80.1759 77.33 80.4502C77.3219 80.7245 77.3652 80.9672 77.4598 81.1783C77.5604 81.389 77.698 81.5525 77.8725 81.6687C78.0531 81.7847 78.2621 81.8374 78.4998 81.827ZM81.7995 82.758L81.9484 77.7426L83.2675 77.6845L83.2466 78.3898L83.3357 78.3858C83.5166 78.091 83.7159 77.8702 83.9339 77.7237C84.1581 77.5703 84.4098 77.4875 84.689 77.4752C85.0218 77.4606 85.3162 77.5389 85.5722 77.7103C85.8344 77.8748 86.0321 78.1139 86.1652 78.4277C86.2985 78.7349 86.3592 79.0876 86.3474 79.486L86.2561 82.5618L84.937 82.6199L85.0222 79.7498C85.0315 79.4363 84.9617 79.1882 84.8128 79.0056C84.6701 78.8163 84.465 78.7275 84.1976 78.7393C84.0253 78.7469 83.8634 78.8029 83.7119 78.9073C83.5607 79.0054 83.4379 79.1412 83.3438 79.3149C83.2557 79.4819 83.2086 79.6697 83.2024 79.8787L83.1187 82.6999L81.7995 82.758ZM89.5177 82.5749C89.0305 82.5962 88.5969 82.5044 88.2173 82.2995C87.8438 82.0876 87.5562 81.7806 87.3545 81.3787C87.1528 80.9767 87.0598 80.5112 87.0755 79.9822C87.0908 79.4663 87.2112 79.0078 87.4367 78.6065C87.6625 78.1987 87.9688 77.8755 88.3557 77.6367C88.7426 77.3979 89.1796 77.2678 89.6669 77.2464C90.1482 77.2252 90.5698 77.3175 90.9317 77.5233C91.2994 77.7289 91.5814 78.0263 91.7775 78.4155C91.9737 78.8047 92.0639 79.2606 92.0484 79.7829C92.0463 79.8548 92.0411 79.9333 92.0326 80.0185C92.0301 80.1033 92.025 80.172 92.0175 80.2245L88.4256 80.3826C88.4542 80.6162 88.5224 80.8186 88.63 80.99C88.7377 81.1613 88.8733 81.2923 89.0368 81.3829C89.2064 81.4668 89.3981 81.504 89.612 81.4946C89.8557 81.4838 90.0744 81.4123 90.2683 81.2798C90.4681 81.1471 90.6215 80.974 90.7288 80.7606L91.8425 81.0247C91.7385 81.3292 91.5734 81.5941 91.3471 81.8193C91.1208 82.0445 90.8515 82.2227 90.539 82.3538C90.2266 82.485 89.8861 82.5586 89.5177 82.5749ZM90.7163 79.3817C90.6987 79.1738 90.639 78.9874 90.537 78.8223C90.4351 78.6572 90.3023 78.5326 90.1387 78.4485C89.9811 78.3576 89.8013 78.3166 89.5993 78.3254C89.4032 78.3341 89.2266 78.3875 89.0694 78.4858C88.9122 78.584 88.7776 78.7203 88.6656 78.8949C88.5597 79.0625 88.4856 79.2582 88.4433 79.4818L90.7163 79.3817Z" fill="#7755FF"/>
<path d="M24.8871 50.6965L25.0997 50.1313L26.2935 50.6916C26.35 50.4862 26.4503 50.3216 26.5947 50.198C26.7395 50.0675 26.9113 50.0019 27.11 50.0012C27.3335 50.0004 27.5143 50.0853 27.6527 50.2559C27.785 50.4196 27.8431 50.6314 27.8266 50.8915C27.8106 51.1446 27.7258 51.357 27.5723 51.5286C27.4128 51.6933 27.2213 51.7761 26.9979 51.7769C26.8054 51.7776 26.5988 51.7064 26.3781 51.5635L24.8871 50.6965ZM25.0271 48.4795L25.2397 47.9144L26.4335 48.4747C26.4899 48.2692 26.5903 48.1047 26.7347 47.9811C26.8796 47.8505 27.0513 47.785 27.2499 47.7843C27.4735 47.7835 27.6544 47.8684 27.7926 48.0389C27.9251 48.2027 27.9833 48.4111 27.9673 48.6643C27.9509 48.9243 27.8659 49.1401 27.7123 49.3117C27.5529 49.4763 27.3614 49.5591 27.1379 49.5598C26.9453 49.5605 26.7388 49.4895 26.5181 49.3466L25.0271 48.4795Z" fill="#7755FF"/>
<path d="M32.0607 46.9735L25.7549 45.1691L26.3225 43.2595L31.5221 41.8337L31.5517 41.7342L27.1501 40.4747L27.6171 38.9032L33.9227 40.7076L33.3552 42.6172L28.1645 44.0456L28.135 44.1451L32.5276 45.4021L32.0607 46.9735Z" fill="#7755FF"/>
<path d="M36.5242 36.6988C36.0865 37.3634 35.586 37.8645 35.0225 38.2023C34.454 38.5363 33.8651 38.6875 33.2556 38.6559C32.6462 38.6243 32.0643 38.399 31.5098 37.9799C30.9603 37.5647 30.5695 37.0547 30.3372 36.4503C30.105 35.8457 30.0405 35.2006 30.1437 34.5149C30.2468 33.8292 30.5171 33.1541 30.9548 32.4896C31.3925 31.8249 31.8955 31.3257 32.464 30.9917C33.0361 30.652 33.6251 30.5007 34.2307 30.5381C34.8402 30.5697 35.4197 30.7932 35.9692 31.2084C36.5237 31.6275 36.917 32.1393 37.1492 32.7437C37.3851 33.3425 37.4497 33.9876 37.3428 34.679C37.2347 35.361 36.9619 36.0343 36.5242 36.6988ZM35.4995 35.9243C35.7522 35.5405 35.9005 35.1463 35.9444 34.742C35.9921 34.3318 35.937 33.9427 35.7791 33.5745C35.6212 33.2063 35.3714 32.8931 35.0298 32.6349C34.6882 32.3768 34.329 32.2297 33.9523 32.1939C33.5755 32.1579 33.2148 32.2328 32.8701 32.4184C32.5291 32.5983 32.2323 32.8802 31.9795 33.264C31.7306 33.6422 31.5823 34.0362 31.5345 34.4464C31.4868 34.8566 31.542 35.2457 31.6999 35.6139C31.8616 35.9764 32.1133 36.2867 32.4549 36.5448C32.7964 36.803 33.1537 36.953 33.5267 36.9945C33.9035 37.0305 34.2642 36.9556 34.6089 36.7699C34.9535 36.5843 35.2504 36.3025 35.4995 35.9243Z" fill="#7755FF"/>
<path d="M40.3707 31.5475L39.1766 24.0602L41.146 22.7311L46.2787 27.5598L44.9001 28.4903L43.9734 27.6366L41.5445 29.276L41.7493 30.617L40.3707 31.5475ZM41.2965 28.0224L43.1345 26.7817L40.8349 24.5949L40.7528 24.6503L41.2965 28.0224Z" fill="#7755FF"/>
<path d="M46.7728 27.415L45.5702 20.3427L48.0219 19.6527C48.7687 19.4425 49.4521 19.4063 50.0721 19.5441C50.691 19.6752 51.2022 19.9651 51.6056 20.4136C52.0079 20.8555 52.2686 21.4274 52.3881 22.1293C52.5073 22.8313 52.4565 23.4944 52.2355 24.1186C52.0135 24.7363 51.643 25.2741 51.1244 25.7323C50.6046 26.1839 49.9713 26.5149 49.2245 26.725L46.7728 27.415ZM49.0049 25.4337C49.4457 25.3097 49.8192 25.1109 50.1255 24.8373C50.4368 24.5554 50.6555 24.2198 50.7818 23.8304C50.913 23.4327 50.9403 23.0086 50.8638 22.5583C50.7871 22.108 50.6253 21.7407 50.3781 21.4564C50.1359 21.1637 49.8282 20.9763 49.455 20.8939C49.0867 20.8032 48.6823 20.8199 48.2416 20.944L47.2773 21.2153L48.0408 25.705L49.0049 25.4337Z" fill="#7755FF"/>
<path d="M53.5182 25.6658L54.3689 18.3694L56.8412 18.5219C57.5943 18.5684 58.2401 18.763 58.7783 19.1058C59.3174 19.4419 59.7121 19.8963 59.9624 20.4691C60.2135 21.0351 60.297 21.6801 60.2125 22.4043C60.128 23.1284 59.8962 23.7575 59.5168 24.2915C59.1383 24.8186 58.6441 25.2182 58.0341 25.4903C57.4249 25.7554 56.7438 25.8647 55.9907 25.8183L53.5182 25.6658ZM56.146 24.4861C56.5905 24.5135 56.9933 24.4454 57.3542 24.282C57.7222 24.112 58.0192 23.8585 58.245 23.5215C58.4778 23.178 58.6212 22.7741 58.6754 22.3095C58.7295 21.8449 58.6812 21.4325 58.5305 21.0722C58.3867 20.7056 58.1527 20.4193 57.8286 20.2135C57.5112 20.0013 57.1304 19.8815 56.686 19.8541L55.7137 19.7941L55.1737 24.4261L56.146 24.4861Z" fill="#7755FF"/>
<path d="M60.1457 26.2409L62.8834 19.3808L65.7762 20.5834C66.2413 20.7767 66.6153 21.0408 66.8984 21.3757C67.1813 21.7105 67.3514 22.0882 67.4083 22.5088C67.4709 22.9319 67.4139 23.3649 67.237 23.8081C67.0883 24.1807 66.8828 24.4884 66.6205 24.7313C66.3608 24.9679 66.0633 25.1251 65.7281 25.2029C65.4011 25.2766 65.0685 25.2731 64.7303 25.1925L64.6538 25.1607L65.5909 28.5046L63.9659 27.829L63.2 24.7022L62.5193 24.4193L61.558 26.8281L60.1457 26.2409ZM64.2625 23.8297C64.6027 23.9711 64.9135 23.988 65.1945 23.8801C65.4813 23.7747 65.6888 23.5614 65.817 23.2402C65.9451 22.9191 65.9414 22.6218 65.8059 22.3482C65.6786 22.0706 65.4448 21.8611 65.1044 21.7196L63.8113 21.1819L62.9692 23.292L64.2625 23.8297Z" fill="#7755FF"/>
<path d="M65.8059 28.8019L70.0559 22.8586L73.825 25.9939L73.0251 27.1124L70.4191 24.9446L69.4819 26.2551L71.8941 28.2617L71.1957 29.2383L68.7836 27.2318L67.7688 28.6508L70.4466 30.8783L69.6467 31.9969L65.8059 28.8019Z" fill="#7755FF"/>
<path d="M71.4015 34.8102C71.063 34.3056 70.8444 33.7954 70.746 33.2792C70.6525 32.7588 70.6819 32.2721 70.8336 31.819C70.9942 31.367 71.2658 30.9791 71.6485 30.6555L72.4933 31.914C72.1871 32.1729 72.0238 32.4899 72.0036 32.865C71.9885 33.2357 72.1183 33.6255 72.3927 34.0344C72.5424 34.2575 72.7005 34.4275 72.8672 34.5447C73.0337 34.6618 73.1966 34.7198 73.3558 34.7184C73.5235 34.7181 73.6788 34.6575 73.8216 34.5366C73.9799 34.4029 74.0693 34.2441 74.0898 34.0602C74.119 33.8774 74.1014 33.6842 74.0368 33.4807C73.9723 33.2773 73.8712 33.0256 73.7338 32.7254C73.7268 32.7148 73.7196 32.7042 73.7125 32.6936C73.7104 32.6786 73.7077 32.6685 73.7041 32.6632L73.5689 32.3904C73.3506 31.934 73.1919 31.5188 73.0928 31.1448C72.9937 30.7707 72.9861 30.39 73.0702 30.0027C73.1541 29.6154 73.3823 29.2642 73.7548 28.9492C74.1018 28.6558 74.4695 28.4946 74.8582 28.4657C75.2467 28.4368 75.6301 28.5372 76.0082 28.7669C76.3898 29.0018 76.7411 29.3583 77.0619 29.8362C77.3862 30.3194 77.5905 30.8085 77.6747 31.3034C77.7676 31.7992 77.7371 32.2662 77.5832 32.7043C77.4293 33.1425 77.1636 33.5212 76.786 33.8405L75.968 32.6218C75.9731 32.6175 75.9808 32.6111 75.991 32.6023C76.2767 32.3607 76.4292 32.0695 76.4483 31.7286C76.4711 31.3931 76.3613 31.0448 76.1189 30.6836C75.9692 30.4606 75.8128 30.2931 75.6497 30.1813C75.4866 30.0695 75.3256 30.0142 75.1664 30.0156C75.0161 30.0179 74.872 30.0772 74.7342 30.1938C74.576 30.3276 74.4859 30.4912 74.4638 30.6847C74.4504 30.8792 74.4795 31.0834 74.5512 31.2976C74.628 31.5073 74.744 31.7755 74.8992 32.102L74.929 32.1644C75.1621 32.6665 75.3343 33.1078 75.4456 33.4881C75.5605 33.8737 75.5787 34.2705 75.5004 34.678C75.4219 35.0856 75.1838 35.4577 74.7858 35.7942C74.4337 36.092 74.0598 36.25 73.664 36.2682C73.2684 36.2865 72.8744 36.1703 72.482 35.9193C72.0932 35.6738 71.733 35.304 71.4015 34.8102Z" fill="#7755FF"/>
<path d="M74.121 40.5053C73.9307 39.9066 73.8548 39.3391 73.8933 38.8028C73.9376 38.2637 74.0887 37.7954 74.3465 37.3976C74.6122 37.0035 74.966 36.7064 75.4079 36.5065L75.8827 37.9999C75.5291 38.1599 75.2952 38.4208 75.181 38.7823C75.0726 39.1413 75.0956 39.5633 75.2499 40.0486C75.3341 40.3132 75.4396 40.5286 75.5664 40.6946C75.6934 40.8606 75.8318 40.9674 75.9818 41.0149C76.1395 41.066 76.3009 41.0543 76.4659 40.9796C76.6487 40.8969 76.773 40.7685 76.839 40.5945C76.913 40.4241 76.9454 40.2293 76.9363 40.0099C76.9273 39.7906 76.8962 39.5127 76.8432 39.1763C76.8392 39.1637 76.8352 39.1511 76.8311 39.1385C76.833 39.1232 76.833 39.1125 76.831 39.1061L76.7732 38.7972C76.6838 38.2826 76.6399 37.8267 76.6417 37.4295C76.6435 37.0321 76.733 36.6565 76.9103 36.3023C77.0876 35.9482 77.3914 35.6738 77.8215 35.4792C78.2223 35.2979 78.609 35.2527 78.9816 35.3436C79.3543 35.4344 79.6893 35.6505 79.9865 35.9917C80.2858 36.3392 80.5255 36.7966 80.7058 37.3637C80.8881 37.9372 80.956 38.4794 80.9095 38.9906C80.871 39.5054 80.7237 39.9541 80.4678 40.3365C80.212 40.719 79.8659 41.0089 79.4299 41.2062L78.9701 39.7601C78.976 39.7573 78.9848 39.7534 78.9966 39.748C79.3266 39.5987 79.5439 39.3598 79.6485 39.0314C79.7551 38.7093 79.7402 38.334 79.604 37.9055C79.5199 37.6408 79.4153 37.4286 79.2904 37.2689C79.1655 37.1092 79.0281 37.0056 78.8781 36.9581C78.7362 36.9143 78.5856 36.9283 78.4265 37.0003C78.2437 37.0829 78.1174 37.2157 78.0476 37.3988C77.9856 37.5854 77.9611 37.7947 77.9742 38.0267C77.9932 38.2559 78.0341 38.5546 78.0972 38.9225L78.1094 38.9926C78.201 39.5567 78.2509 40.0422 78.2591 40.4494C78.2691 40.8629 78.1856 41.2574 78.0085 41.6332C77.8313 42.0089 77.5128 42.3006 77.0532 42.5087C76.6465 42.6926 76.2549 42.7329 75.8783 42.6294C75.5015 42.526 75.1606 42.2911 74.8553 41.9245C74.5521 41.5644 74.3073 41.0913 74.121 40.5053Z" fill="#7755FF"/>
<path d="M79.2501 43.7328L79.3688 43.1453L80.6545 43.4847C80.674 43.2755 80.7464 43.0943 80.8716 42.941C80.9973 42.7945 81.1592 42.703 81.3575 42.6665C81.5806 42.6255 81.7705 42.6729 81.9271 42.8086C82.0905 42.9499 82.1832 43.1454 82.2049 43.3951C82.2273 43.6514 82.1743 43.8737 82.0459 44.0618C81.9175 44.2499 81.7386 44.3651 81.5094 44.4073C81.3235 44.4414 81.1069 44.4127 80.8597 44.3211L79.2501 43.7328ZM79.4408 45.9188L79.5596 45.3313L80.8443 45.6606C80.8638 45.4514 80.9361 45.2702 81.0613 45.1169C81.187 44.9704 81.349 44.8788 81.5474 44.8424C81.7705 44.8014 81.9603 44.8488 82.1168 44.9845C82.2804 45.1258 82.3732 45.3246 82.3956 45.581C82.4174 45.8306 82.364 46.0496 82.2356 46.2376C82.1079 46.4325 81.9293 46.5511 81.7001 46.5932C81.5141 46.6274 81.2973 46.5954 81.0494 46.497L79.4408 45.9188Z" fill="#7755FF"/>
</g>
<defs>
<clipPath id="clip0_1713_35291">
<rect width="106.53" height="93" fill="white" transform="translate(3.13818 0.439941) rotate(1.7)"/>
</clipPath>
</defs>
</svg>
