<svg width="113" height="112" viewBox="0 0 113 112" fill="none" xmlns="http://www.w3.org/2000/svg">
<g clip-path="url(#clip0_1708_35118)">
<path d="M87.5 51.5C88 45 89 40.5 89.4228 34.52C89.4228 11.8984 73.5413 2.72923 53.9504 14.04C34.3596 25.3508 18.478 52.8584 18.478 75.48C18.478 98.1016 33.4091 106.311 53 95C59.5537 91.2162 66 88.5 73 83" stroke="white" stroke-width="6.144"/>
<mask id="path-2-inside-1_1708_35118" fill="white">
<path d="M53.8003 91.4185L98.6026 65.5518L98.6026 72.0664L53.8003 97.933L53.8003 91.4185Z"/>
</mask>
<path d="M98.6026 65.5518L104.145 62.3518L104.145 55.9518L98.6026 59.1518L98.6026 65.5518ZM98.6026 72.0664L98.6026 78.4664L104.145 75.2664L104.145 68.8664L98.6026 72.0664ZM53.8003 97.8185L98.6026 71.9518L98.6026 59.1518L53.8003 85.0185L53.8003 97.8185ZM93.0601 68.7518L93.0601 75.2664L104.145 68.8664L104.145 62.3518L93.0601 68.7518ZM98.6026 65.6664L53.8003 91.533L53.8003 104.333L98.6026 78.4664L98.6026 65.6664Z" fill="white" mask="url(#path-2-inside-1_1708_35118)"/>
<mask id="path-4-inside-2_1708_35118" fill="white">
<path d="M85 49.52L98.6026 41.6665L98.6026 72.0665L85 79.92L85 49.52Z"/>
</mask>
<path d="M98.6026 41.6665L104.145 38.4665L104.145 32.0665L98.6026 35.2665L98.6026 41.6665ZM98.6026 72.0665L98.6026 78.4665L104.145 75.2665L104.145 68.8665L98.6026 72.0665ZM85 55.92L98.6026 48.0665L98.6026 35.2665L85 43.12L85 55.92ZM93.0601 44.8665L93.0601 75.2665L104.145 68.8665L104.145 38.4665L93.0601 44.8665ZM98.6026 65.6665L85 73.52L85 86.32L98.6026 78.4665L98.6026 65.6665Z" fill="white" mask="url(#path-4-inside-2_1708_35118)"/>
<path d="M55.3639 71.8742C53.0603 73.2042 51.0113 73.7292 49.2168 73.4492C47.4467 73.1272 46.0645 72.0632 45.0703 70.2572C44.0761 68.4232 43.579 65.9802 43.579 62.9282C43.579 59.8762 44.0761 56.8732 45.0703 53.9192C46.0645 50.9372 47.4467 48.2772 49.2168 45.9392C51.0113 43.5592 53.0603 41.7042 55.3639 40.3742C57.6433 39.0582 59.6802 38.5542 61.4746 38.8622C63.269 39.1422 64.6633 40.1992 65.6575 42.0332C66.6517 43.8392 67.1488 46.2682 67.1488 49.3202C67.1488 52.3722 66.6517 55.3892 65.6575 58.3712C64.6633 61.3252 63.269 63.9922 61.4746 66.3722C59.6802 68.7242 57.6433 70.5582 55.3639 71.8742ZM55.3639 65.8682C56.5036 65.2102 57.4978 64.2302 58.3465 62.9282C59.2194 61.6122 59.8984 60.0722 60.3834 58.3082C60.8684 56.5442 61.1108 54.7102 61.1108 52.8062C61.1108 50.9022 60.8684 49.3482 60.3834 48.1442C59.8984 46.9402 59.2194 46.1842 58.3465 45.8762C57.4978 45.5542 56.5036 45.7222 55.3639 46.3802C54.2242 47.0382 53.2179 48.0252 52.3449 49.3412C51.472 50.6572 50.793 52.1972 50.308 53.9612C49.8473 55.7112 49.617 57.5382 49.617 59.4422C49.617 61.3462 49.8473 62.9072 50.308 64.1252C50.793 65.3292 51.472 66.0852 52.3449 66.3932C53.2179 66.7012 54.2242 66.5262 55.3639 65.8682Z" fill="white"/>
<path d="M44.639 80.3764C44.4183 80.5038 44.2373 80.5299 44.0958 80.4548C43.9544 80.3731 43.8837 80.2082 43.8837 79.9599C43.8837 79.7116 43.9544 79.4683 44.0958 79.2298C44.2373 78.9848 44.4183 78.7986 44.639 78.6712C44.8653 78.5405 45.0464 78.5177 45.1822 78.6026C45.3236 78.6777 45.3944 78.8394 45.3944 79.0877C45.3944 79.336 45.3236 79.5826 45.1822 79.8276C45.0464 80.0628 44.8653 80.2457 44.639 80.3764ZM44.011 86.4524L44.011 81.4348L45.2671 80.7096L45.2671 85.7272L44.011 86.4524ZM48.0379 84.2842C47.7494 84.4508 47.4976 84.5243 47.2826 84.5047C47.0676 84.4786 46.9007 84.3659 46.7819 84.1666C46.663 83.9674 46.6036 83.6913 46.6036 83.3385L46.6036 80.9963L45.9926 81.3491L45.9926 80.2907L46.6461 79.9134L46.8837 78.1886L47.8682 77.6202L47.8682 79.2078L48.8527 78.6394L48.8527 79.6978L47.8682 80.2662L47.8682 82.5496C47.8682 82.7587 47.9191 82.8992 48.021 82.971C48.1228 83.0429 48.2614 83.0282 48.4368 82.9269C48.5953 82.8355 48.748 82.7244 48.8951 82.5937L48.8951 83.6325C48.7707 83.7501 48.6292 83.8677 48.4708 83.9853C48.3124 84.1095 48.1681 84.2091 48.0379 84.2842ZM51.5551 82.2732C51.1307 82.5182 50.763 82.6554 50.4518 82.6848C50.1406 82.7142 49.9029 82.6391 49.7389 82.4594C49.5748 82.2797 49.4927 81.9972 49.4927 81.6117L50.5961 80.9747C50.5961 81.2426 50.6838 81.4075 50.8592 81.4696C51.0402 81.5284 51.2835 81.4696 51.589 81.2932C51.8323 81.1527 52.0247 80.9861 52.1662 80.7934C52.3076 80.6007 52.3783 80.4096 52.3783 80.2201C52.3783 80.0829 52.3416 79.9996 52.268 79.9702C52.1944 79.9343 52.0983 79.9343 51.9794 79.9702C51.8606 80.0061 51.6965 80.0715 51.4872 80.1662C51.4759 80.1662 51.4617 80.1711 51.4448 80.1809C51.4278 80.1907 51.4136 80.1989 51.4023 80.2054L51.2411 80.2789C50.9129 80.4226 50.63 80.5206 50.3924 80.5729C50.1547 80.6252 49.951 80.5958 49.7813 80.4847C49.6172 80.3704 49.5352 80.1237 49.5352 79.7448C49.5352 79.4051 49.6144 79.0653 49.7728 78.7256C49.9369 78.3761 50.1632 78.0494 50.4518 77.7456C50.746 77.4385 51.0855 77.1739 51.4702 76.9518C51.8606 76.7264 52.2058 76.599 52.5056 76.5696C52.8112 76.5304 53.0488 76.5892 53.2186 76.746C53.3883 76.9028 53.4732 77.1511 53.4732 77.4908L52.3274 78.1523C52.3218 77.9334 52.2397 77.8044 52.0813 77.7652C51.9285 77.7162 51.7248 77.7652 51.4702 77.9122C51.2439 78.0429 51.0572 78.2062 50.9101 78.4022C50.7686 78.5949 50.6979 78.7795 50.6979 78.9559C50.6979 79.0931 50.7403 79.1731 50.8252 79.196C50.9101 79.2189 51.0176 79.2091 51.1477 79.1666C51.2778 79.1241 51.4589 79.049 51.6909 78.9412L51.8437 78.8726C51.8493 78.8693 51.8521 78.8677 51.8521 78.8677C51.8521 78.8677 51.855 78.8661 51.8606 78.8628C51.8606 78.8628 51.8635 78.8612 51.8691 78.8579C51.8691 78.8579 51.8719 78.8563 51.8776 78.853C51.8833 78.8497 51.8889 78.8497 51.8946 78.853C52.2171 78.7125 52.5 78.6178 52.7433 78.5688C52.9922 78.51 53.1988 78.541 53.3628 78.6619C53.5326 78.773 53.6174 79.0114 53.6174 79.3773C53.6174 79.7301 53.5354 80.0813 53.3713 80.4308C53.2072 80.7803 52.9696 81.1135 52.6584 81.4304C52.3472 81.7473 51.9794 82.0282 51.5551 82.2732ZM58.6985 78.1293C58.2233 78.4037 57.8017 78.5393 57.434 78.536C57.0718 78.523 56.7889 78.376 56.5853 78.095C56.3872 77.8043 56.2882 77.3911 56.2882 76.8553C56.2882 76.3196 56.3872 75.7953 56.5853 75.2824C56.7889 74.7598 57.0718 74.2861 57.434 73.8614C57.7961 73.4302 58.2176 73.0758 58.6985 72.7981C59.1738 72.5237 59.5925 72.3931 59.9546 72.4061C60.3224 72.4094 60.6053 72.5564 60.8033 72.8471C61.007 73.1281 61.1089 73.5364 61.1089 74.0721C61.1089 74.6079 61.007 75.1371 60.8033 75.6597C60.6053 76.1726 60.3252 76.6446 59.9631 77.0758C59.601 77.5005 59.1795 77.8517 58.6985 78.1293ZM58.6985 76.8945C58.9192 76.7671 59.1172 76.5907 59.2926 76.3653C59.468 76.1399 59.6038 75.8917 59.7 75.6205C59.8019 75.3461 59.8528 75.0717 59.8528 74.7973C59.8528 74.5229 59.8019 74.3073 59.7 74.1505C59.6038 73.9905 59.468 73.899 59.2926 73.8761C59.1172 73.8533 58.9192 73.9055 58.6985 74.0329C58.4722 74.1636 58.2714 74.3416 58.096 74.567C57.9262 74.7892 57.7904 75.0374 57.6886 75.3118C57.5924 75.583 57.5443 75.8557 57.5443 76.1301C57.5443 76.4045 57.5924 76.6218 57.6886 76.7818C57.7904 76.9386 57.9262 77.0301 58.096 77.0562C58.2714 77.0791 58.4722 77.0252 58.6985 76.8945ZM61.8709 76.141L61.8709 68.8694L63.127 68.1442L63.127 72.3484L63.2119 72.2994L64.6037 69.5456L66.1229 68.6685L64.3152 72.123L66.1569 73.6665L64.6292 74.5485L63.2119 73.2304L63.127 73.2794L63.127 75.4158L61.8709 76.141ZM67.8753 72.8017C67.4283 73.0598 67.0662 73.1415 66.7889 73.0467C66.5174 72.9422 66.3816 72.6678 66.3816 72.2235C66.3816 71.7531 66.5513 71.2762 66.8908 70.7927C67.2303 70.3093 67.7423 69.8209 68.4269 69.3276L69.352 68.6661L69.352 68.4603C69.352 68.2186 69.2813 68.0667 69.1399 68.0046C69.0041 67.9328 68.8117 67.9687 68.5627 68.1124C68.3308 68.2464 68.144 68.4228 68.0026 68.6416C67.8668 68.8572 67.7989 69.0826 67.7989 69.3178C67.7989 69.3309 67.7989 69.3407 67.7989 69.3472L66.5683 70.0577C66.5683 69.6984 66.6503 69.3342 66.8144 68.965C66.9841 68.5926 67.219 68.248 67.5188 67.9311C67.8244 67.6045 68.178 67.3252 68.5797 67.0932C68.9871 66.858 69.3435 66.7306 69.6491 66.711C69.9546 66.6849 70.1894 66.7649 70.3535 66.9511C70.5232 67.1341 70.6081 67.4117 70.6081 67.7841L70.6081 71.0965L69.352 71.8217L69.352 71.1847L69.2672 71.2337C69.137 71.5571 68.9503 71.8544 68.707 72.1255C68.4694 72.3934 68.1921 72.6188 67.8753 72.8017ZM68.2996 71.6061C68.5033 71.4885 68.6844 71.3383 68.8428 71.1553C69.0012 70.9659 69.1257 70.7633 69.2162 70.5477C69.3068 70.3256 69.352 70.11 69.352 69.9009L69.352 69.5481L68.4609 70.19C68.1667 70.3991 67.9488 70.6098 67.8074 70.8221C67.6716 71.0247 67.6037 71.2174 67.6037 71.4003C67.6037 71.5898 67.6659 71.7041 67.7904 71.7433C67.9149 71.776 68.0846 71.7303 68.2996 71.6061ZM72.3112 72.3771C72.1641 72.462 72.0056 72.5371 71.8359 72.6025C71.6718 72.6645 71.5304 72.7037 71.4115 72.7201L71.42 71.549C71.5162 71.5392 71.6237 71.513 71.7425 71.4706C71.8613 71.4281 71.9689 71.3791 72.065 71.3236C72.2121 71.2386 72.3395 71.1292 72.447 70.9953C72.5545 70.8679 72.6422 70.729 72.7101 70.5788C72.778 70.435 72.8458 70.2554 72.9137 70.0398C72.9307 69.9908 72.9449 69.9434 72.9562 69.8977C72.9675 69.8519 72.9788 69.8095 72.9901 69.7703L70.9447 65.8846L72.2942 65.1055L73.4569 67.629L73.5418 67.58L74.4838 63.8413L75.7909 63.0867L74.1104 69.2509C74.1048 69.2672 74.0991 69.2835 74.0934 69.2999C74.0934 69.3129 74.0906 69.3276 74.085 69.344C73.9322 69.9026 73.7794 70.3632 73.6267 70.7258C73.4739 71.0949 73.29 71.4199 73.075 71.7009C72.8657 71.9785 72.611 72.2039 72.3112 72.3771ZM78.4223 66.585L78.4223 61.5674L79.6784 60.8422L79.6784 61.5478L79.7633 61.4988C79.9273 61.1166 80.1112 60.7981 80.3149 60.5433C80.5243 60.2787 80.7619 60.0696 81.0278 59.9161C81.3447 59.7332 81.6276 59.6613 81.8765 59.7005C82.1311 59.7299 82.3263 59.8655 82.4621 60.1072C82.5979 60.3424 82.6658 60.6593 82.6658 61.0578L82.6658 64.135L81.4097 64.8602L81.4097 61.9888C81.4097 61.6752 81.3362 61.4661 81.1891 61.3616C81.0476 61.2473 80.8496 61.2636 80.595 61.4106C80.4309 61.5053 80.2781 61.6425 80.1367 61.8222C79.9952 61.9953 79.8821 62.1913 79.7972 62.4102C79.718 62.6193 79.6784 62.8283 79.6784 63.0374L79.6784 65.8598L78.4223 66.585ZM85.7759 62.4962C85.3006 62.7706 84.8791 62.9062 84.5113 62.9029C84.1492 62.8898 83.8663 62.7428 83.6626 62.4619C83.4646 62.1712 83.3655 61.7579 83.3655 61.2222C83.3655 60.6865 83.4646 60.1622 83.6626 59.6493C83.8663 59.1266 84.1492 58.653 84.5113 58.2283C84.8734 57.7971 85.2949 57.4427 85.7759 57.165C86.2511 56.8906 86.6698 56.7599 87.0319 56.773C87.3997 56.7763 87.6826 56.9233 87.8807 57.214C88.0843 57.4949 88.1862 57.9033 88.1862 58.439C88.1862 58.9747 88.0843 59.5039 87.8807 60.0266C87.6826 60.5395 87.4026 61.0115 87.0404 61.4427C86.6783 61.8674 86.2568 62.2185 85.7759 62.4962ZM85.7759 61.2614C85.9965 61.134 86.1946 60.9576 86.37 60.7322C86.5454 60.5068 86.6812 60.2585 86.7773 59.9874C86.8792 59.713 86.9301 59.4386 86.9301 59.1642C86.9301 58.8898 86.8792 58.6742 86.7773 58.5174C86.6812 58.3573 86.5454 58.2659 86.37 58.243C86.1946 58.2201 85.9965 58.2724 85.7759 58.3998C85.5495 58.5305 85.3487 58.7085 85.1733 58.9339C85.0035 59.156 84.8678 59.4043 84.7659 59.6787C84.6697 59.9498 84.6216 60.2226 84.6216 60.497C84.6216 60.7714 84.6697 60.9886 84.7659 61.1487C84.8678 61.3055 85.0035 61.397 85.1733 61.4231C85.3487 61.446 85.5495 61.3921 85.7759 61.2614ZM90.5063 59.7651C90.2178 59.9317 89.966 60.0052 89.751 59.9856C89.536 59.9594 89.3691 59.8467 89.2502 59.6475C89.1314 59.4482 89.072 59.1722 89.072 58.8194L89.072 56.4772L88.461 56.83L88.461 55.7716L89.1145 55.3943L89.3521 53.6695L90.3366 53.1011L90.3366 54.6887L91.3211 54.1203L91.3211 55.1787L90.3366 55.7471L90.3366 58.0305C90.3366 58.2395 90.3875 58.38 90.4894 58.4519C90.5912 58.5237 90.7298 58.509 90.9052 58.4078C91.0636 58.3163 91.2164 58.2052 91.3635 58.0746L91.3635 59.1134C91.239 59.231 91.0976 59.3486 90.9392 59.4662C90.7807 59.5903 90.6365 59.6899 90.5063 59.7651ZM46.5834 94.124C46.2948 94.2906 46.043 94.3641 45.828 94.3445C45.613 94.3184 45.4461 94.2057 45.3273 94.0064C45.2085 93.8072 45.1491 93.5311 45.1491 93.1783L45.1491 90.8361L44.538 91.1889L44.538 90.1305L45.1915 89.7532L45.4291 88.0284L46.4136 87.46L46.4136 89.0476L47.3981 88.4792L47.3981 89.5376L46.4136 90.106L46.4136 92.3894C46.4136 92.5985 46.4646 92.739 46.5664 92.8108C46.6682 92.8827 46.8069 92.868 46.9823 92.7667C47.1407 92.6753 47.2935 92.5642 47.4406 92.4335L47.4406 93.4723C47.3161 93.5899 47.1746 93.7075 47.0162 93.8251C46.8578 93.9493 46.7135 94.0489 46.5834 94.124ZM50.2488 92.0078C49.7735 92.2822 49.352 92.4178 48.9842 92.4145C48.6221 92.4014 48.3392 92.2544 48.1355 91.9735C47.9375 91.6828 47.8385 91.2695 47.8385 90.7338C47.8385 90.1981 47.9375 89.6738 48.1355 89.1609C48.3392 88.6382 48.6221 88.1646 48.9842 87.7399C49.3463 87.3087 49.7678 86.9543 50.2488 86.6766C50.7241 86.4022 51.1428 86.2715 51.5049 86.2846C51.8726 86.2879 52.1555 86.4349 52.3536 86.7256C52.5573 87.0065 52.6591 87.4149 52.6591 87.9506C52.6591 88.4863 52.5573 89.0155 52.3536 89.5382C52.1555 90.0511 51.8755 90.5231 51.5134 90.9543C51.1512 91.379 50.7297 91.7301 50.2488 92.0078ZM50.2488 90.773C50.4694 90.6456 50.6675 90.4692 50.8429 90.2438C51.0183 90.0184 51.1541 89.7701 51.2503 89.499C51.3521 89.2246 51.403 88.9502 51.403 88.6758C51.403 88.4014 51.3521 88.1858 51.2503 88.029C51.1541 87.8689 51.0183 87.7775 50.8429 87.7546C50.6675 87.7317 50.4694 87.784 50.2488 87.9114C50.0225 88.0421 49.8216 88.2201 49.6462 88.4455C49.4765 88.6676 49.3407 88.9159 49.2388 89.1903C49.1426 89.4614 49.0945 89.7342 49.0945 90.0086C49.0945 90.283 49.1426 90.5002 49.2388 90.6603C49.3407 90.8171 49.4765 90.9086 49.6462 90.9347C49.8216 90.9576 50.0225 90.9037 50.2488 90.773ZM55.5098 88.8136L55.5098 81.542L56.7658 80.8168L56.7658 83.747L56.8507 83.698C57.0148 83.3223 57.2015 83.0054 57.4109 82.7474C57.6202 82.4893 57.855 82.2851 58.1153 82.1349C58.4378 81.9487 58.7235 81.8752 58.9725 81.9144C59.2214 81.947 59.4138 82.081 59.5496 82.3162C59.691 82.5481 59.7618 82.8633 59.7618 83.2619L59.7618 86.3587L58.5057 87.0839L58.5057 84.1929C58.5057 83.8858 58.4321 83.6767 58.285 83.5657C58.1379 83.4546 57.9371 83.4726 57.6824 83.6196C57.5184 83.7143 57.3656 83.8515 57.2241 84.0312C57.0827 84.2108 56.9695 84.4101 56.8847 84.629C56.8054 84.838 56.7658 85.0504 56.7658 85.266L56.7658 88.0884L55.5098 88.8136ZM61.8788 85.2638C61.4318 85.5219 61.0697 85.6035 60.7925 85.5088C60.5209 85.4043 60.3851 85.1299 60.3851 84.6856C60.3851 84.2152 60.5548 83.7383 60.8943 83.2548C61.2338 82.7713 61.7459 82.283 62.4305 81.7897L63.3556 81.1282L63.3556 80.9224C63.3556 80.6806 63.2848 80.5287 63.1434 80.4667C63.0076 80.3948 62.8152 80.4308 62.5663 80.5745C62.3343 80.7084 62.1476 80.8848 62.0061 81.1037C61.8703 81.3193 61.8024 81.5447 61.8024 81.7799C61.8024 81.793 61.8024 81.8028 61.8024 81.8093L60.5718 82.5198C60.5718 82.1605 60.6539 81.7962 60.8179 81.4271C60.9877 81.0547 61.2225 80.7101 61.5224 80.3932C61.8279 80.0665 62.1815 79.7872 62.5832 79.5553C62.9906 79.3201 63.3471 79.1927 63.6526 79.1731C63.9581 79.1469 64.193 79.227 64.357 79.4132C64.5268 79.5961 64.6117 79.8738 64.6117 80.2462L64.6117 83.5586L63.3556 84.2838L63.3556 83.6468L63.2707 83.6958C63.1406 84.0192 62.9538 84.3165 62.7106 84.5876C62.4729 84.8555 62.1957 85.0809 61.8788 85.2638ZM62.3032 84.0682C62.5069 83.9506 62.6879 83.8003 62.8463 83.6174C63.0048 83.4279 63.1292 83.2254 63.2198 83.0098C63.3103 82.7877 63.3556 82.5721 63.3556 82.363L63.3556 82.0102L62.4644 82.6521C62.1702 82.8612 61.9524 83.0719 61.8109 83.2842C61.6751 83.4867 61.6072 83.6795 61.6072 83.8624C61.6072 84.0519 61.6695 84.1662 61.794 84.2054C61.9184 84.2381 62.0882 84.1923 62.3032 84.0682ZM66.4505 82.4969L64.9398 78.3515L66.2638 77.5871L67.3162 80.8113L67.401 80.7623L68.4619 76.318L69.7774 75.5585L68.2667 81.4483L66.4505 82.4969ZM72.3532 79.2458C71.8893 79.5136 71.4734 79.6427 71.1056 79.6329C70.7435 79.6133 70.4606 79.4565 70.2569 79.1625C70.0532 78.8685 69.9514 78.4569 69.9514 77.9277C69.9514 77.4115 70.0532 76.8987 70.2569 76.3891C70.4606 75.8729 70.7435 75.3993 71.1056 74.9681C71.4678 74.5369 71.8808 74.1873 72.3447 73.9195C72.803 73.6549 73.2076 73.5324 73.5584 73.552C73.9148 73.5683 74.1921 73.7186 74.3901 74.0028C74.5882 74.287 74.6872 74.6904 74.6872 75.2131C74.6872 75.2849 74.6843 75.365 74.6787 75.4532C74.6787 75.5381 74.6759 75.6083 74.6702 75.6639L71.2499 77.6386C71.2839 77.8542 71.3546 78.0191 71.4621 78.1335C71.5696 78.2478 71.7026 78.3082 71.861 78.3148C72.0251 78.3115 72.209 78.2511 72.4126 78.1335C72.6446 77.9995 72.8511 77.8182 73.0322 77.5896C73.2189 77.3576 73.3604 77.1094 73.4565 76.8448L74.5259 76.541C74.4354 76.8938 74.2855 77.2384 74.0761 77.5749C73.8668 77.9113 73.615 78.2233 73.3208 78.5108C73.0265 78.7982 72.704 79.0432 72.3532 79.2458ZM73.4056 75.4924C73.383 75.2964 73.3208 75.1428 73.2189 75.0318C73.1171 74.9207 72.9869 74.8652 72.8285 74.8652C72.6757 74.8554 72.5032 74.906 72.3108 75.0171C72.1241 75.1249 71.9572 75.267 71.8101 75.4434C71.663 75.6198 71.5385 75.8223 71.4366 76.051C71.3404 76.2698 71.2754 76.5001 71.2414 76.7419L73.4056 75.4924ZM79.7462 74.9774C79.271 75.2518 78.8495 75.3874 78.4817 75.3841C78.1196 75.371 77.8367 75.224 77.633 74.9431C77.4349 74.6524 77.3359 74.2391 77.3359 73.7034C77.3359 73.1677 77.4349 72.6434 77.633 72.1305C77.8367 71.6078 78.1196 71.1342 78.4817 70.7095C78.8438 70.2783 79.2653 69.9239 79.7462 69.6462C80.2215 69.3718 80.6402 69.2411 81.0023 69.2542C81.3701 69.2575 81.653 69.4045 81.851 69.6952C82.0547 69.9761 82.1566 70.3845 82.1566 70.9202C82.1566 71.4559 82.0547 71.9851 81.851 72.5078C81.653 73.0207 81.3729 73.4927 81.0108 73.9239C80.6487 74.3486 80.2272 74.6997 79.7462 74.9774ZM79.7462 73.7426C79.9669 73.6152 80.1649 73.4388 80.3403 73.2134C80.5157 72.988 80.6515 72.7397 80.7477 72.4686C80.8496 72.1942 80.9005 71.9198 80.9005 71.6454C80.9005 71.371 80.8496 71.1554 80.7477 70.9986C80.6515 70.8385 80.5157 70.7471 80.3403 70.7242C80.1649 70.7013 79.9669 70.7536 79.7462 70.881C79.5199 71.0117 79.3191 71.1897 79.1437 71.4151C78.9739 71.6372 78.8381 71.8855 78.7363 72.1599C78.6401 72.431 78.592 72.7038 78.592 72.9782C78.592 73.2526 78.6401 73.4698 78.7363 73.6299C78.8381 73.7867 78.9739 73.8782 79.1437 73.9043C79.3191 73.9272 79.5199 73.8733 79.7462 73.7426ZM82.9186 72.989L82.9186 67.9714L84.1747 67.2462L84.1747 67.9518L84.2596 67.9028C84.4236 67.5206 84.6075 67.2021 84.8112 66.9473C85.0206 66.6827 85.2582 66.4737 85.5241 66.3201C85.841 66.1372 86.1239 66.0653 86.3728 66.1045C86.6275 66.1339 86.8227 66.2695 86.9584 66.5112C87.0942 66.7464 87.1621 67.0633 87.1621 67.4618L87.1621 70.539L85.9061 71.2642L85.9061 68.3928C85.9061 68.0792 85.8325 67.8702 85.6854 67.7656C85.5439 67.6513 85.3459 67.6676 85.0913 67.8146C84.9272 67.9094 84.7744 68.0466 84.633 68.2262C84.4915 68.3994 84.3784 68.5954 84.2935 68.8142C84.2143 69.0233 84.1747 69.2324 84.1747 69.4414L84.1747 72.2638L82.9186 72.989ZM90.2722 68.9003C89.8082 69.1681 89.3924 69.2972 89.0246 69.2874C88.6625 69.2678 88.3796 69.111 88.1759 68.817C87.9722 68.523 87.8703 68.1114 87.8703 67.5822C87.8703 67.066 87.9722 66.5532 88.1759 66.0436C88.3796 65.5274 88.6625 65.0538 89.0246 64.6226C89.3867 64.1914 89.7997 63.8418 90.2637 63.574C90.722 63.3094 91.1265 63.1869 91.4773 63.2065C91.8338 63.2228 92.111 63.3731 92.3091 63.6573C92.5071 63.9415 92.6061 64.3449 92.6061 64.8676C92.6061 64.9394 92.6033 65.0195 92.5976 65.1077C92.5976 65.1926 92.5948 65.2628 92.5891 65.3184L89.1689 67.2931C89.2028 67.5087 89.2735 67.6736 89.381 67.788C89.4885 67.9023 89.6215 67.9627 89.7799 67.9693C89.944 67.966 90.1279 67.9056 90.3316 67.788C90.5636 67.654 90.7701 67.4727 90.9511 67.2441C91.1379 67.0121 91.2793 66.7639 91.3755 66.4993L92.4449 66.1955C92.3543 66.5483 92.2044 66.8929 91.995 67.2294C91.7857 67.5658 91.5339 67.8778 91.2397 68.1653C90.9455 68.4527 90.623 68.6977 90.2722 68.9003ZM91.3246 65.1469C91.3019 64.9509 91.2397 64.7973 91.1379 64.6863C91.036 64.5752 90.9059 64.5197 90.7475 64.5197C90.5947 64.5099 90.4221 64.5605 90.2297 64.6716C90.043 64.7794 89.8761 64.9215 89.729 65.0979C89.5819 65.2743 89.4574 65.4768 89.3556 65.7055C89.2594 65.9243 89.1943 66.1546 89.1604 66.3964L91.3246 65.1469Z" fill="white"/>
<path d="M27.7495 70.7147L27.9362 70.0501L29.0903 69.9977C29.1383 69.7667 29.2294 69.5537 29.3635 69.3588C29.4979 69.1568 29.6598 69.0052 29.8492 68.9039C30.0623 68.79 30.2372 68.782 30.3738 68.8801C30.5047 68.9744 30.566 69.1538 30.5577 69.4183C30.5496 69.6759 30.4748 69.9281 30.3332 70.1749C30.1859 70.418 30.0057 70.5965 29.7926 70.7104C29.6091 70.8086 29.4101 70.8431 29.1957 70.814L27.7495 70.7147ZM27.8203 68.4592L28.007 67.7947L29.161 67.7422C29.209 67.5112 29.3001 67.2982 29.4343 67.1033C29.5686 66.9014 29.7305 66.7498 29.92 66.6485C30.1331 66.5345 30.3079 66.5265 30.4445 66.6246C30.5755 66.7189 30.6369 66.8948 30.6288 67.1524C30.6205 67.4169 30.5455 67.6726 30.4039 67.9194C30.2566 68.1625 30.0764 68.341 29.8633 68.4549C29.6798 68.5531 29.4808 68.5876 29.2664 68.5585L27.8203 68.4592Z" fill="white"/>
<path d="M34.4837 63.4134L28.4206 64.8285L28.9076 62.6593L33.8248 58.6212L33.8501 58.5082L29.6179 59.496L30.0186 57.711L36.0818 56.2959L35.5948 58.465L30.6861 62.5012L30.6607 62.6141L34.8845 61.6284L34.4837 63.4134Z" fill="white"/>
<path d="M38.4487 51.0283C38.0502 51.9048 37.5871 52.6521 37.0594 53.2703C36.5269 53.8873 35.9696 54.3345 35.3877 54.612C34.8057 54.8895 34.2445 54.9621 33.704 54.8299C33.1683 54.699 32.7812 54.3944 32.5428 53.9163C32.3043 53.4382 32.2245 52.8352 32.3034 52.1073C32.3823 51.3793 32.621 50.5771 33.0195 49.7007C33.4179 48.8242 33.8834 48.0775 34.416 47.4605C34.9519 46.8359 35.5092 46.3887 36.0877 46.1188C36.6697 45.8413 37.2285 45.7681 37.7642 45.8991C38.3047 46.0312 38.6942 46.3364 38.9326 46.8145C39.1745 47.285 39.2543 47.888 39.172 48.6235C39.0882 49.3503 38.8471 50.1519 38.4487 51.0283ZM37.4497 50.784C37.6799 50.2778 37.8101 49.8143 37.8405 49.3936C37.8744 48.9653 37.8108 48.6097 37.6498 48.3268C37.4888 48.044 37.2418 47.8619 36.9088 47.7804C36.5759 47.699 36.2293 47.736 35.869 47.8914C35.5088 48.0468 35.167 48.3032 34.8436 48.6607C34.5236 49.0106 34.2486 49.4387 34.0184 49.945C33.7917 50.4436 33.6615 50.9071 33.6276 51.3354C33.5938 51.7637 33.6574 52.1193 33.8183 52.4022C33.9828 52.6774 34.2315 52.8558 34.5645 52.9372C34.8975 53.0187 35.2423 52.9855 35.5991 52.8376C35.9593 52.6822 36.3011 52.4258 36.6245 52.0683C36.9479 51.7108 37.223 51.2827 37.4497 50.784Z" fill="white"/>
<path d="M41.9706 44.0043L40.6202 37.231L42.4602 34.9239L47.4905 37.0832L46.2025 38.6981L45.2948 38.3261L43.0254 41.1715L43.2586 42.3894L41.9706 44.0043ZM42.7535 40.0618L44.4708 37.9085L42.2163 36.9182L42.1397 37.0143L42.7535 40.0618Z" fill="white"/>
<path d="M47.9573 36.6904L46.6106 30.3301L48.9286 28.4087C49.6348 27.8234 50.2853 27.4416 50.8803 27.2635C51.4741 27.0793 51.9696 27.1061 52.3669 27.3438C52.763 27.5755 53.0279 28.007 53.1615 28.6383C53.2952 29.2695 53.2655 29.9487 53.0724 30.6758C52.8781 31.3969 52.5402 32.1145 52.0587 32.8286C51.5759 33.5369 50.9814 34.1836 50.2753 34.7689L47.9573 36.6904ZM50.0294 33.6076C50.4461 33.2622 50.7967 32.8772 51.0809 32.4525C51.3698 32.0171 51.5688 31.5756 51.6782 31.1279C51.792 30.6695 51.8061 30.2378 51.7203 29.8329C51.6346 29.4279 51.4699 29.148 51.2261 28.993C50.9869 28.8272 50.6882 28.7983 50.3301 28.9062C49.9764 29.0033 49.5913 29.2245 49.1745 29.57L48.2629 30.3256L49.1178 34.3633L50.0294 33.6076Z" fill="white"/>
<path d="M54.3394 31.5509L54.9439 23.9302L57.3054 22.8285C58.0248 22.4929 58.646 22.3578 59.1689 22.423C59.6923 22.4812 60.0815 22.7291 60.3364 23.1668C60.5918 23.5973 60.6895 24.1908 60.6295 24.9471C60.5695 25.7035 60.3663 26.4408 60.0197 27.1591C59.6737 27.8702 59.2137 28.5142 58.6399 29.0912C58.0666 29.6609 57.4203 30.1136 56.7009 30.4492L54.3394 31.5509ZM56.8113 29.0578C57.2358 28.8597 57.6179 28.5887 57.9575 28.2448C58.3036 27.8909 58.5795 27.4908 58.7852 27.0444C58.9975 26.5881 59.1228 26.1173 59.1613 25.6321C59.1998 25.1469 59.1421 24.7649 58.9882 24.4863C58.8407 24.1978 58.6095 24.0342 58.2946 23.9956C57.9861 23.9471 57.6196 24.0219 57.1951 24.2199L56.2664 24.6532L55.8826 29.491L56.8113 29.0578Z" fill="white"/>
<path d="M60.6742 28.7615L63.0903 20.6152L65.8824 20.3354C66.3313 20.2904 66.6954 20.3612 66.9747 20.5479C67.254 20.7345 67.4268 21.0207 67.493 21.4063C67.5647 21.7913 67.5225 22.247 67.3664 22.7733C67.2352 23.2157 67.048 23.6231 66.8048 23.9953C66.5639 24.3599 66.2847 24.6654 65.9673 24.9118C65.6576 25.1501 65.3404 25.3151 65.0157 25.4068L64.9418 25.4142L65.9299 28.2349L64.3614 28.392L63.5427 25.6987L62.8858 25.7645L62.0374 28.6249L60.6742 28.7615ZM64.531 24.3008C64.8595 24.2679 65.1562 24.1271 65.4211 23.8786C65.6916 23.6294 65.8833 23.3142 65.9965 22.9328C66.1096 22.5514 66.0976 22.2603 65.9607 22.0594C65.8315 21.8503 65.6026 21.7622 65.2741 21.7951L64.0259 21.9202L63.2828 24.4259L64.531 24.3008Z" fill="white"/>
<path d="M66.1434 28.419L70.0274 20.4102L73.7096 21.5912L72.9786 23.0985L70.4326 22.2819L69.5762 24.0479L71.9328 24.8037L71.2946 26.1198L68.9379 25.3639L68.0106 27.2762L70.6267 28.1152L69.8958 29.6225L66.1434 28.419Z" fill="white"/>
<path d="M71.6486 31.5059C71.3115 31.1802 71.0887 30.788 70.9803 30.3293C70.8765 29.8638 70.8906 29.3693 71.0226 28.846C71.1628 28.3192 71.4108 27.7995 71.7665 27.2868L72.6076 28.0992C72.323 28.5094 72.1764 28.9043 72.1677 29.2842C72.1638 29.6572 72.2984 29.9756 72.5717 30.2396C72.7207 30.3836 72.8763 30.4711 73.0385 30.5021C73.2007 30.5332 73.3576 30.5078 73.5093 30.4259C73.6692 30.3407 73.8156 30.2023 73.9484 30.0109C74.0954 29.799 74.1761 29.5972 74.1905 29.4056C74.2132 29.2106 74.1909 29.0292 74.1236 28.8614C74.0562 28.6936 73.9528 28.4967 73.8133 28.2706C73.8063 28.2637 73.7992 28.2569 73.7921 28.25C73.7897 28.2363 73.7868 28.2278 73.7832 28.2243L73.6466 28.0239C73.4256 27.6848 73.2625 27.356 73.1574 27.0376C73.0524 26.7192 73.0344 26.3478 73.1035 25.9236C73.1726 25.4994 73.3803 25.0378 73.7265 24.5388C74.049 24.0739 74.3951 23.7289 74.7648 23.5037C75.1344 23.2784 75.5027 23.1832 75.8698 23.2181C76.2403 23.2563 76.5853 23.4297 76.9047 23.7382C77.2276 24.0502 77.4362 24.4286 77.5305 24.8737C77.6331 25.3153 77.6172 25.7909 77.4829 26.3005C77.3486 26.8102 77.1059 27.3179 76.7549 27.8238L75.9405 27.0371C75.9453 27.0303 75.9524 27.02 75.9619 27.0063C76.2275 26.6235 76.3646 26.2593 76.3732 25.9137C76.3854 25.5715 76.2709 25.2839 76.0295 25.0508C75.8805 24.9068 75.7267 24.821 75.568 24.7934C75.4094 24.7657 75.2543 24.7928 75.1026 24.8747C74.9593 24.9532 74.8236 25.0847 74.6955 25.2693C74.5485 25.4812 74.4672 25.6881 74.4516 25.89C74.4443 26.0884 74.4778 26.275 74.5522 26.4496C74.6314 26.6174 74.7496 26.823 74.9068 27.0662L74.937 27.1124C75.1734 27.4892 75.3501 27.8369 75.467 28.1553C75.5874 28.4772 75.6161 28.8588 75.5529 29.3001C75.4897 29.7414 75.2731 30.2287 74.9031 30.7619C74.5759 31.2336 74.2239 31.5786 73.8471 31.797C73.4704 32.0154 73.0914 32.1003 72.7102 32.0518C72.3325 32.0066 71.9787 31.8247 71.6486 31.5059Z" fill="white"/>
<path d="M74.4026 35.7408C74.2042 35.2473 74.1158 34.7265 74.1372 34.1785C74.1643 33.6248 74.295 33.0868 74.5296 32.5643C74.7717 32.0414 75.1007 31.5695 75.5164 31.1486L76.0113 32.3799C75.6787 32.7166 75.4631 33.092 75.3644 33.5062C75.2713 33.9148 75.3051 34.3191 75.4659 34.7191C75.5537 34.9373 75.6604 35.0961 75.7861 35.1954C75.9118 35.2947 76.0468 35.3298 76.1911 35.3007C76.343 35.2712 76.4965 35.1779 76.6518 35.0207C76.8236 34.8468 76.9385 34.6573 76.9965 34.4524C77.0622 34.2471 77.0876 34.0386 77.0727 33.8271C77.0579 33.6155 77.0204 33.3574 76.9603 33.0528C76.9562 33.0424 76.952 33.032 76.9478 33.0216C76.9492 33.0056 76.9488 32.995 76.9467 32.9898L76.8829 32.7146C76.7831 32.2528 76.7284 31.8257 76.7189 31.4334C76.7093 31.041 76.7841 30.6255 76.9431 30.1868C77.1021 29.748 77.3839 29.3238 77.7885 28.9142C78.1655 28.5326 78.5329 28.2922 78.8908 28.193C79.2487 28.0938 79.5742 28.1371 79.8672 28.3229C80.1623 28.5138 80.4039 28.8431 80.5918 29.3106C80.7818 29.7834 80.862 30.2834 80.8321 30.8106C80.8099 31.3374 80.6822 31.8541 80.4491 32.3606C80.2159 32.8671 79.8942 33.3279 79.484 33.7432L79.0048 32.5509C79.0103 32.5453 79.0186 32.5369 79.0297 32.5257C79.3401 32.2114 79.5405 31.866 79.6309 31.4894C79.7234 31.118 79.6987 30.7557 79.5567 30.4024C79.469 30.1842 79.3633 30.0281 79.2397 29.934C79.116 29.8398 78.9821 29.8073 78.8378 29.8364C78.7012 29.8651 78.558 29.9552 78.4083 30.1068C78.2365 30.2807 78.1198 30.4756 78.0584 30.6913C78.0045 30.9066 77.9871 31.1252 78.0061 31.3472C78.0307 31.5635 78.0783 31.837 78.1488 32.1676L78.1624 32.2306C78.2657 32.7399 78.327 33.1932 78.3463 33.5903C78.3676 33.9926 78.2992 34.4238 78.1409 34.8837C77.9826 35.3436 77.6873 35.7924 77.2549 36.2301C76.8724 36.6174 76.5001 36.8554 76.1381 36.9442C75.776 37.0329 75.4443 36.9741 75.1429 36.7675C74.8436 36.5662 74.5968 36.224 74.4026 35.7408Z" fill="white"/>
<path d="M79.3841 36.3238L79.4807 35.6848L80.716 35.3683C80.7287 35.1522 80.7926 34.937 80.9075 34.7226C81.0233 34.5145 81.1751 34.3423 81.3632 34.206C81.5747 34.0526 81.757 34.0031 81.9102 34.0575C82.0701 34.114 82.1639 34.2598 82.1917 34.4947C82.2203 34.7361 82.176 34.9819 82.0589 35.2323C81.9418 35.4827 81.7746 35.6868 81.5572 35.8444C81.3809 35.9722 81.1736 36.0536 80.9353 36.0885L79.3841 36.3238ZM79.6277 38.3813L79.7243 37.7424L80.9586 37.4163C80.9712 37.2002 81.0351 36.985 81.1501 36.7706C81.2658 36.5626 81.4177 36.3904 81.6057 36.254C81.8172 36.1006 81.9996 36.0512 82.1528 36.1056C82.3126 36.1621 82.4068 36.311 82.4353 36.5523C82.4632 36.7873 82.4185 37.03 82.3014 37.2804C82.1851 37.5371 82.0182 37.7443 81.8008 37.902C81.6246 38.0298 81.4169 38.108 81.1778 38.1365L79.6277 38.3813Z" fill="white"/>
</g>
<defs>
<clipPath id="clip0_1708_35118">
<rect width="113" height="112" fill="white"/>
</clipPath>
</defs>
</svg>
