<svg width="16" height="16" viewBox="0 0 16 16" fill="none" xmlns="http://www.w3.org/2000/svg">
<path d="M3.99925 6.58817C3.62576 6.58817 3.34928 6.50086 3.16981 6.32624C2.99034 6.15162 2.9006 5.9382 2.9006 5.68597C2.9006 5.62777 2.90545 5.56471 2.91516 5.4968C2.96851 5.13787 3.15526 4.85896 3.47539 4.66009C3.80037 4.45637 4.27572 4.31328 4.90144 4.23082L5.57809 4.15079L5.59991 3.97617C5.60476 3.94221 5.60719 3.90826 5.60719 3.87431C5.60719 3.78215 5.57566 3.69969 5.51261 3.62693C5.44955 3.55417 5.34284 3.51779 5.19247 3.51779C5.03726 3.51779 4.90387 3.56387 4.7923 3.65603C4.68559 3.74819 4.62011 3.87431 4.59586 4.03437L3.2935 4.0271C3.3323 3.74577 3.44144 3.50324 3.6209 3.29952C3.80522 3.09095 4.04047 2.93088 4.32665 2.81932C4.61769 2.70776 4.94752 2.65198 5.31616 2.65198C5.67995 2.65198 5.99038 2.71018 6.24746 2.8266C6.50939 2.93816 6.69128 3.0861 6.79314 3.27042C6.89985 3.44989 6.95321 3.63663 6.95321 3.83065C6.95321 3.89856 6.94836 3.96889 6.93866 4.04165L6.56759 6.50086H5.22157L5.28706 6.05704L5.2143 6.06431C5.08333 6.23408 4.91114 6.36505 4.69772 6.4572C4.4843 6.54451 4.25147 6.58817 3.99925 6.58817ZM4.63224 5.76601C4.7632 5.76601 4.88446 5.7369 4.99603 5.6787C5.11244 5.62049 5.20945 5.54046 5.28706 5.4386C5.36466 5.33189 5.41317 5.21547 5.43257 5.08936L5.46168 4.87109L4.85779 4.9584C4.66377 4.98265 4.5134 5.03358 4.40669 5.11119C4.30483 5.18395 4.24662 5.27853 4.23207 5.39494C4.22722 5.4192 4.22479 5.44345 4.22479 5.4677C4.22479 5.54531 4.25632 5.61564 4.31938 5.6787C4.38244 5.7369 4.48672 5.76601 4.63224 5.76601Z" fill="white"/>
<path d="M7.15784 6.50086L7.72535 2.74656H9.07864L8.99861 3.29952L9.07136 3.29225C9.24598 3.06912 9.42303 2.90905 9.6025 2.81204C9.78197 2.71018 9.97841 2.65925 10.1918 2.65925C10.4489 2.65925 10.6672 2.72474 10.8467 2.8557C11.031 2.98666 11.1547 3.14673 11.2177 3.3359C11.2808 3.52022 11.3123 3.69726 11.3123 3.86703C11.3123 3.96404 11.305 4.06348 11.2905 4.16534L10.9412 6.50086H9.58794L9.9008 4.40544C9.9105 4.34723 9.91535 4.29145 9.91535 4.2381C9.91535 4.13138 9.88383 4.03195 9.82077 3.93979C9.76256 3.84763 9.65585 3.80155 9.50064 3.80155C9.39392 3.80155 9.29206 3.82823 9.19505 3.88158C9.09804 3.93494 9.01558 4.01012 8.94768 4.10713C8.88462 4.20414 8.84339 4.3157 8.82399 4.44182L8.51113 6.50086H7.15784Z" fill="white"/>
<path d="M12.1511 8.21067C12.0105 8.21067 11.8577 8.19854 11.6927 8.17429C11.5278 8.15003 11.3969 8.11608 11.2999 8.07243L11.4454 7.01744C11.5181 7.05139 11.6079 7.07807 11.7146 7.09747C11.8213 7.11687 11.9207 7.12658 12.0129 7.12658C12.1293 7.12658 12.2336 7.10717 12.3257 7.06837C12.4179 7.02957 12.4979 6.97864 12.5658 6.91558C12.6386 6.85252 12.7065 6.77491 12.7696 6.68275C12.7793 6.66335 12.7914 6.64152 12.8059 6.61727C12.8205 6.59787 12.835 6.57847 12.8496 6.55907L11.5982 2.74656H13.0533L13.5699 4.82016H13.6427L14.6103 2.74656H16L13.9992 6.68275C13.9943 6.69245 13.987 6.70216 13.9773 6.71186C13.9725 6.72641 13.9676 6.73853 13.9628 6.74824C13.7785 7.10232 13.5966 7.38123 13.4171 7.58495C13.2425 7.79352 13.0509 7.94874 12.8423 8.0506C12.6386 8.15731 12.4082 8.21067 12.1511 8.21067Z" fill="white"/>
<path d="M0 12.5349L0.822162 7.10719H2.17545L1.70981 10.1557H1.78256L2.95396 8.78061H4.54008L2.88848 10.585L3.98712 12.5349H2.401L1.65888 11.0288H1.57884L1.35329 12.5349H0Z" fill="white"/>
<path d="M6.07043 12.6295C5.66299 12.6295 5.31133 12.547 5.01545 12.3821C4.72442 12.2172 4.52312 12.0086 4.41156 11.7564C4.30485 11.4993 4.25149 11.2447 4.25149 10.9924C4.25149 10.876 4.26119 10.7548 4.2806 10.6287C4.3388 10.2406 4.47704 9.90108 4.69531 9.61005C4.91844 9.31417 5.19977 9.0862 5.5393 8.92613C5.87884 8.76606 6.2499 8.68603 6.6525 8.68603C7.06479 8.68603 7.4116 8.76849 7.69293 8.9334C7.97911 9.09347 8.17313 9.29962 8.27499 9.55185C8.37685 9.79922 8.42778 10.0442 8.42778 10.2867C8.42778 10.408 8.41808 10.5365 8.39868 10.6723C8.39383 10.7305 8.38413 10.7936 8.36958 10.8615C8.35988 10.9294 8.34775 10.9876 8.3332 11.0361H5.61206C5.62176 11.1719 5.65087 11.2908 5.69937 11.3926C5.75273 11.4896 5.82548 11.5648 5.91764 11.6182C6.01465 11.6667 6.12864 11.6909 6.2596 11.6909C6.41967 11.6909 6.56276 11.6545 6.68887 11.5818C6.81984 11.5042 6.9217 11.4023 6.99446 11.2762L8.13675 11.5018C8.03974 11.7297 7.88938 11.9286 7.68566 12.0984C7.48193 12.2681 7.23941 12.3991 6.95808 12.4913C6.6816 12.5834 6.38572 12.6295 6.07043 12.6295ZM7.09632 10.294C7.09632 10.2697 7.09632 10.2479 7.09632 10.2285C7.09632 10.1266 7.07692 10.032 7.03811 9.94474C6.99931 9.85258 6.93383 9.77739 6.84167 9.71919C6.74951 9.65613 6.64037 9.6246 6.51426 9.6246C6.39299 9.6246 6.27901 9.65371 6.1723 9.71191C6.06558 9.76527 5.97342 9.84288 5.89582 9.94474C5.81821 10.0466 5.75515 10.1679 5.70665 10.3085L7.09632 10.294Z" fill="white"/>
<path d="M9.228 14.2447C9.08734 14.2447 8.93455 14.2326 8.76963 14.2083C8.60471 14.1841 8.47375 14.1501 8.37674 14.1065L8.52225 13.0515C8.59501 13.0854 8.68475 13.1121 8.79146 13.1315C8.89817 13.1509 8.99761 13.1606 9.08977 13.1606C9.20618 13.1606 9.31046 13.1412 9.40262 13.1024C9.49478 13.0636 9.57482 13.0127 9.64272 12.9496C9.71548 12.8866 9.78339 12.809 9.84644 12.7168C9.85615 12.6974 9.86827 12.6756 9.88282 12.6513C9.89738 12.6319 9.91193 12.6125 9.92648 12.5931L8.67505 8.78061H10.1302L10.6468 10.8542H10.7195L11.6872 8.78061H13.0769L11.076 12.7168C11.0712 12.7265 11.0639 12.7362 11.0542 12.7459C11.0494 12.7605 11.0445 12.7726 11.0397 12.7823C10.8554 13.1364 10.6735 13.4153 10.494 13.619C10.3194 13.8276 10.1278 13.9828 9.9192 14.0846C9.71548 14.1914 9.48508 14.2447 9.228 14.2447Z" fill="white"/>
</svg>
