<svg width="16" height="16" viewBox="0 0 16 16" fill="none" xmlns="http://www.w3.org/2000/svg">
<path fill-rule="evenodd" clip-rule="evenodd" d="M8 3C5.23858 3 3 5.23858 3 8C3 9.14768 3.38668 10.205 4.03686 11.0489L11.0489 4.03686C10.205 3.38668 9.14768 3 8 3ZM12.3613 5.55293L5.55293 12.3613C6.27628 12.768 7.11105 13 8 13C10.7614 13 13 10.7614 13 8C13 7.11105 12.768 6.27628 12.3613 5.55293ZM1 8C1 4.13401 4.13401 1 8 1C11.866 1 15 4.13401 15 8C15 11.866 11.866 15 8 15C4.13401 15 1 11.866 1 8Z" fill="white"/>
</svg>
