<svg width="16" height="16" viewBox="0 0 16 16" fill="none" xmlns="http://www.w3.org/2000/svg">
<g clip-path="url(#clip0_589_300)">
<g clip-path="url(#clip1_589_300)">
<path d="M7.93271 7.85678L1.78484 4.36521C1.75758 4.34973 1.73548 4.3626 1.73548 4.39395L1.73571 11.3753C1.73571 11.4066 1.75781 11.4446 1.78507 11.4601L7.93294 14.9516C7.9602 14.9671 7.98229 14.9543 7.98229 14.9229L7.98207 7.94158C7.98207 7.91023 7.95997 7.87226 7.93271 7.85678Z" stroke="white" stroke-width="0.530546"/>
<path d="M14.2233 4.33696L8.07548 7.82853C8.04822 7.84401 8.02612 7.88198 8.02612 7.91333L8.0259 14.8947C8.02589 14.926 8.04799 14.9389 8.07525 14.9234L14.2231 11.4318C14.2504 11.4163 14.2725 11.3784 14.2725 11.347L14.2727 4.36569C14.2727 4.33434 14.2506 4.32148 14.2233 4.33696Z" stroke="white" stroke-width="0.530546"/>
<path d="M7.93293 0.732275L1.78484 4.22345C1.75758 4.23893 1.75758 4.26403 1.78484 4.27951L7.93293 7.77069C7.96019 7.78617 8.00439 7.78617 8.03165 7.77069L14.1797 4.27951C14.207 4.26403 14.207 4.23893 14.1797 4.22345L8.03165 0.732275C8.00439 0.716795 7.96019 0.716795 7.93293 0.732275Z" stroke="white" stroke-width="0.530546"/>
</g>
<g clip-path="url(#clip2_589_300)">
<path fill-rule="evenodd" clip-rule="evenodd" d="M5.02189 7.97188C4.68685 4.96798 6.44152 2.85524 9.7321 1.65207C7.71722 4.26681 11.4499 7.09915 11.656 9.81406C12.1384 8.99084 12.4125 7.89244 12.4666 6.4233C14.9339 10.2942 12.888 16.6209 7.45817 15.7113C6.95963 15.6284 6.47951 15.4707 6.042 15.2358C4.06166 14.1789 2.87921 11.875 2.87921 9.67474C2.87921 8.27239 3.47907 7.02086 4.25509 6.02608C4.35871 7.00013 4.57977 7.72664 5.02189 7.97188Z" fill="white"/>
<path fill-rule="evenodd" clip-rule="evenodd" d="M6.77888 12.3114C6.21932 10.8664 6.29646 8.53259 7.86346 7.71398C7.87498 10.3966 10.5173 10.7386 10.028 13.602C10.4794 13.0908 10.7073 12.2734 10.7476 11.6274C11.4638 13.267 10.9019 14.5784 9.88064 15.2462C6.77543 17.2772 4.10197 13.1599 5.87967 10.9032C5.93378 11.4075 6.55091 12.1859 6.77888 12.3114Z" fill="white"/>
</g>
</g>
<defs>
<clipPath id="clip0_589_300">
<rect width="16" height="16" fill="white"/>
</clipPath>
<clipPath id="clip1_589_300">
<rect width="13.0596" height="16.9775" fill="white" transform="translate(1.47016 -1.8)"/>
</clipPath>
<clipPath id="clip2_589_300">
<rect width="10.6236" height="14.1479" fill="white" transform="translate(2.87921 1.65207)"/>
</clipPath>
</defs>
</svg>
