<svg width="16" height="16" viewBox="0 0 16 16" fill="none" xmlns="http://www.w3.org/2000/svg">
<path fill-rule="evenodd" clip-rule="evenodd" d="M5.99997 0.999993C5.99997 0.447712 6.44768 0 6.99996 0H8.99995C9.55223 0 9.99994 0.447712 9.99994 0.999993C9.99994 1.55227 10.4477 1.99999 10.9999 1.99999H13.3333C13.7015 1.99999 14 2.29841 14 2.66656C14 3.03478 13.7016 3.33331 13.3333 3.33331H2.66666C2.29847 3.33331 2 3.03484 2 2.66665C2 2.29846 2.29847 1.99999 2.66666 1.99999H4.99998C5.55226 1.99999 5.99997 1.55227 5.99997 0.999993Z" fill="white"/>
<path fill-rule="evenodd" clip-rule="evenodd" d="M2.66666 4.66664H13.3333L10.6666 15.3332H5.33331L2.66666 4.66664ZM7.99995 5.23898L8.66661 9.99993L7.99995 13.9999L7.33329 9.99993L7.99995 5.23898ZM11.8003 5.48257L11.212 10.2538L9.53283 13.945L9.92415 9.90875L11.8003 5.48257ZM6.18676 9.92027L4.31059 5.49408L4.89887 10.2654L6.57809 13.9565L6.18676 9.92027Z" fill="white"/>
</svg>
