<svg width="16" height="16" viewBox="0 0 16 16" fill="none" xmlns="http://www.w3.org/2000/svg">
<g clip-path="url(#clip0_945_8302)">
<path d="M5.53044 3.92392H-0.03479L1.35652 -0.25H3.92174L5.53044 3.92392Z" fill="white"/>
<path fill-rule="evenodd" clip-rule="evenodd" d="M2.05216 14.3587V3.92389H3.44347V14.3587H4.13912V15.75H1.35651V14.3587H2.05216Z" fill="white"/>
<path d="M5.2892 9.28149C6.76617 6.38034 13.611 9.77054 13.611 9.77054C13.611 9.77054 13.611 12.484 13.611 14.2227C10.5683 14.2227 5.81965 14.2227 5.81965 14.2227C5.81965 14.2227 4.4087 11.011 5.2892 9.28149Z" fill="white"/>
<path d="M12.724 4.28149C14.1587 3.78149 13.9765 4.05505 14.724 4.28149C17.1915 5.02899 14.724 10.8836 14.724 10.8836C14.724 10.8836 14.0456 12.9187 13.611 14.2227C12.1478 12.9614 9.86436 10.9928 9.86436 10.9928C9.86436 10.9928 11.2892 4.78149 12.724 4.28149Z" fill="white"/>
<path d="M8.04575 14.2227H6.9327L7.2892 15.8923H7.7892L8.04575 14.2227Z" fill="white"/>
<path d="M12.4979 14.2227H11.3849L11.6359 15.8923H12.2892L12.4979 14.2227Z" fill="white"/>
</g>
<defs>
<clipPath id="clip0_945_8302">
<rect width="16" height="16" fill="white"/>
</clipPath>
</defs>
</svg>
