<svg width="16" height="16" viewBox="0 0 16 16" fill="none" xmlns="http://www.w3.org/2000/svg">
<path fill-rule="evenodd" clip-rule="evenodd" d="M12.1919 3.33333C12.7832 2.2963 12.044 1 10.8612 1H5.53876C4.35599 1 3.61675 2.2963 4.20814 3.33333L6.86938 8L4.20814 12.6667C3.61675 13.7037 4.35599 15 5.53876 15H10.8612C12.044 15 12.7832 13.7037 12.1919 12.6667L9.53062 8L12.1919 3.33333ZM8.2 8L10.8612 13.4444L5.53876 13.4444L8.2 8ZM8.2 8L5.53876 2.55555L10.8612 2.55556L8.2 8Z" fill="white"/>
<path d="M5.4 12.2C5.4 12.2 6.21027 11.6609 6.8 11.5C7.5912 11.2842 8.08993 11.3721 8.9 11.5C9.75388 11.6348 11 12.2 11 12.2V13.6H5.4V12.2Z" fill="white"/>
<path d="M9.6 6.95712C9.6 6.95712 9.19486 7.63382 8.9 7.83568C8.5044 8.1065 8.25503 7.99621 7.85 7.83568C7.42306 7.66646 6.8 6.95712 6.8 6.95712V5.2H9.6V6.95712Z" fill="white"/>
</svg>
