<svg width="16" height="16" viewBox="0 0 16 16" fill="none" xmlns="http://www.w3.org/2000/svg">
<path d="M7.11178 9.17123L6.74924 6.21233L7.12387 3.5H10L9.62538 6.21233L8.429 9.17123H7.11178ZM7.30514 12.5C6.87815 12.5 6.55186 12.3726 6.32628 12.1178C6.10876 11.863 6 11.5753 6 11.2548C6 11.1808 6.00403 11.1027 6.01208 11.0205C6.06848 10.5932 6.2578 10.2397 6.58006 9.96027C6.91037 9.68082 7.28902 9.5411 7.71601 9.5411C8.15106 9.5411 8.47734 9.66849 8.69486 9.92329C8.91239 10.1781 9.02115 10.4658 9.02115 10.7863C9.02115 10.8603 9.01712 10.9384 9.00906 11.0205C8.94461 11.4562 8.75529 11.8137 8.44109 12.0931C8.12689 12.3644 7.74824 12.5 7.30514 12.5Z" fill="white"/>
<path fill-rule="evenodd" clip-rule="evenodd" d="M8 14C11.3137 14 14 11.3137 14 8C14 4.68629 11.3137 2 8 2C4.68629 2 2 4.68629 2 8C2 11.3137 4.68629 14 8 14ZM8 15C11.866 15 15 11.866 15 8C15 4.13401 11.866 1 8 1C4.13401 1 1 4.13401 1 8C1 11.866 4.13401 15 8 15Z" fill="white"/>
</svg>
