<svg width="16" height="16" viewBox="0 0 16 16" fill="none" xmlns="http://www.w3.org/2000/svg">
<path fill-rule="evenodd" clip-rule="evenodd" d="M5.59307 3.01841L5 2L4.40693 3.01841L3.46927 2.30448L3.31107 3.47233L2.17157 3.17157L2.47233 4.31107L1.30448 4.46927L2.01841 5.40693L1 6L2.01841 6.59307L1.30448 7.53073L2.47233 7.68893L2.17157 8.82843L3.31107 8.52767L3.46927 9.69552L4.40693 8.98159L5 10L5.59307 8.98159L6.53073 9.69552L6.68893 8.52767L7.82843 8.82843L7.52767 7.68893L8.69552 7.53073L7.98159 6.59307L9 6L7.98159 5.40693L8.69552 4.46927L7.52767 4.31107L7.82843 3.17157L6.68893 3.47233L6.53073 2.30448L5.59307 3.01841ZM5 7C5.55228 7 6 6.55228 6 6C6 5.44772 5.55228 5 5 5C4.44772 5 4 5.44772 4 6C4 6.55228 4.44772 7 5 7Z" fill="white"/>
<path fill-rule="evenodd" clip-rule="evenodd" d="M11.5931 8.01841L11 7L10.4069 8.01841L9.46927 7.30448L9.31107 8.47233L8.17157 8.17157L8.47233 9.31107L7.30448 9.46927L8.01841 10.4069L7 11L8.01841 11.5931L7.30448 12.5307L8.47233 12.6889L8.17157 13.8284L9.31107 13.5277L9.46927 14.6955L10.4069 13.9816L11 15L11.5931 13.9816L12.5307 14.6955L12.6889 13.5277L13.8284 13.8284L13.5277 12.6889L14.6955 12.5307L13.9816 11.5931L15 11L13.9816 10.4069L14.6955 9.46927L13.5277 9.31107L13.8284 8.17157L12.6889 8.47233L12.5307 7.30448L11.5931 8.01841ZM11 12C11.5523 12 12 11.5523 12 11C12 10.4477 11.5523 10 11 10C10.4477 10 10 10.4477 10 11C10 11.5523 10.4477 12 11 12Z" fill="white"/>
</svg>
