<svg width="16" height="16" viewBox="0 0 16 16" fill="none" xmlns="http://www.w3.org/2000/svg">
<g clip-path="url(#clip0_1071_10509)">
<path d="M14.9983 6.81253C14.9676 7.87986 14.5146 8.90374 13.7227 9.69553C13.6538 9.76443 13.5636 9.79885 13.4733 9.79885C13.3831 9.79885 13.2929 9.76443 13.224 9.69553L6.3044 2.77596C6.23824 2.70981 6.20115 2.62017 6.20115 2.52666C6.20115 2.43314 6.23832 2.34343 6.3044 2.27735C7.12806 1.45362 8.19264 1 9.30192 1C10.3472 1 11.3376 1.41476 12.0908 2.16797L12.1135 2.19075C12.2446 2.32178 12.2518 2.53195 12.1301 2.67166L10.8694 4.11911L11.8808 5.13051L13.3283 3.86981C13.4681 3.74808 13.6782 3.75527 13.8093 3.88638L13.832 3.90916C14.6155 4.69255 15.0297 5.7237 14.9983 6.81253ZM2.88506 9.34615L1.65221 10.6714L6.72614 13.0477L8.08657 11.7822L2.88506 9.34615ZM4.62252 7.47836L3.38967 8.80367L8.64336 11.2643L10.0038 9.99872L4.62252 7.47836ZM11.0105 8.56332L7.43668 4.98953C7.36897 4.92183 7.27722 4.88255 7.18095 4.88628C7.08525 4.88798 6.99434 4.9286 6.92911 4.9987L5.12712 6.93588L10.5607 9.48071L11.0013 9.07082C11.0714 9.00558 11.1119 8.91468 11.1136 8.81897C11.1154 8.72334 11.0782 8.63095 11.0105 8.56332ZM1.14761 11.2139L1.09443 11.2711C0.965157 11.41 0.969106 11.6264 1.10324 11.7605L4.23942 14.8967C4.30819 14.9654 4.39839 15 4.4888 15C4.57491 15 4.66116 14.9686 4.72894 14.9056L6.1692 13.5657L1.14761 11.2139Z" fill="white"/>
</g>
<defs>
<clipPath id="clip0_1071_10509">
<rect x="1" y="1" width="14" height="14" fill="white"/>
</clipPath>
</defs>
</svg>
