<svg width="16" height="16" viewBox="0 0 16 16" fill="none" xmlns="http://www.w3.org/2000/svg">
<g clip-path="url(#clip0_736_51886)">
<path fill-rule="evenodd" clip-rule="evenodd" d="M7.15703 3.58882C6.95307 3.78273 6.82419 4.02185 6.77423 4.16757L5.56342 3.75243C5.67345 3.43149 5.90754 3.01059 6.27507 2.66117C6.65169 2.30309 7.19261 1.99999 7.88883 2C9.30899 2.00002 10.2888 3.19067 10.2888 4.35682C10.2888 5.16153 9.94259 6.39603 8.73069 6.82287C8.64711 6.8523 8.58435 6.89625 8.55051 6.93322C8.53649 6.94854 8.53085 6.95832 8.52882 6.963V7.70488L14.1312 11.588C15.1622 12.3026 14.6565 13.92 13.402 13.92H2.28239C1.02303 13.92 0.520696 12.2924 1.56097 11.5826L7.24882 7.70187V6.95998C7.24882 6.21604 7.85002 5.77597 8.30548 5.61556C8.76307 5.45439 9.00882 4.93001 9.00882 4.35682C9.00882 3.84297 8.54865 3.28001 7.88881 3.28C7.59097 3.27999 7.35189 3.40356 7.15703 3.58882ZM7.88596 8.81671L2.28239 12.64H13.402L7.88596 8.81671ZM8.52784 6.96626C8.52772 6.96626 8.52784 6.96536 8.5286 6.96352C8.52835 6.96533 8.52797 6.96626 8.52784 6.96626Z" fill="white"/>
</g>
<defs>
<clipPath id="clip0_736_51886">
<rect width="16" height="16" fill="white"/>
</clipPath>
</defs>
</svg>
