<svg width="256" height="256" viewBox="0 0 256 256" fill="none" xmlns="http://www.w3.org/2000/svg">
<path d="M157.582 34.6791H181.879L194.028 55.7201L223.61 72.8002V106.958L235.758 128L223.61 149.041V183.2L194.028 200.278L181.879 221.322H157.58L128 238.4L98.4202 221.322H74.1213L61.9719 200.278L32.3909 183.2V149.041L20.2424 128L32.3909 106.958V72.8002L61.9719 55.7201L74.1213 34.6791H98.4182L128 17.6L157.582 34.6791ZM163.285 87.6576C156.146 87.6576 149.559 89.3879 143.524 92.8471C137.489 96.2327 132.447 101.016 128.399 107.199C124.351 113.381 121.702 120.484 120.45 128.506C120.009 131.376 119.787 134.099 119.787 136.675C119.787 141.533 120.67 146.538 122.437 151.69C124.277 156.842 127.736 161.184 132.815 164.717C137.893 168.176 144.002 169.906 151.141 169.906C158.28 169.906 164.867 168.213 170.903 164.828C176.938 161.368 181.98 156.548 186.028 150.366C190.076 144.11 192.726 136.97 193.977 128.948C194.418 126.077 194.639 123.354 194.639 120.778C194.639 115.92 193.719 110.916 191.879 105.764C190.113 100.612 186.69 96.3063 181.612 92.8471C176.533 89.3879 170.425 87.6577 163.285 87.6576ZM97.2366 89.2035L73.1692 105.542L70.0784 127.402L89.509 114.374H90.7229L82.553 168.25H104.743L116.667 89.2035H97.2366ZM160.746 107.419C163.396 107.419 165.604 108.302 167.37 110.069C169.21 111.762 170.351 113.786 170.792 116.141C171.234 118.423 171.454 120.41 171.454 122.103C171.454 124.09 171.271 126.225 170.903 128.506C170.24 132.849 169.063 136.639 167.37 139.877C165.751 143.116 163.727 145.618 161.298 147.384C158.943 149.151 156.403 150.034 153.68 150.034C151.031 150.034 148.822 149.187 147.056 147.495C145.29 145.728 144.149 143.667 143.634 141.312C143.193 138.957 142.972 136.897 142.972 135.13C142.972 133.217 143.156 131.156 143.524 128.948C144.186 124.605 145.363 120.815 147.056 117.577C148.749 114.338 150.773 111.835 153.128 110.069C155.483 108.302 158.023 107.419 160.746 107.419Z" fill="white"/>
</svg>
