<svg width="16" height="16" viewBox="0 0 16 16" fill="none" xmlns="http://www.w3.org/2000/svg">
<path fill-rule="evenodd" clip-rule="evenodd" d="M11.8486 9.22626C12.866 9.31795 13.6634 10.1731 13.6634 11.2144C13.6634 12.2557 12.866 13.1108 11.8486 13.2025L11.8486 9.22626ZM8.40369 4.04444L7.12045 5.32768L9.68692 7.38085L10.4569 6.61091L8.40369 4.04444ZM6.0996 5.8352L8.91124 3.02357C8.12696 2.36897 6.95852 2.40983 6.22219 3.14615C5.48586 3.88248 5.445 5.05093 6.0996 5.8352ZM11.4856 12.1218V10.307L8.21903 10.6699V11.7588L11.4856 12.1218ZM2.6969 9.7511L5.50853 12.5627C4.72426 13.2173 3.55581 13.1765 2.81948 12.4402C2.08315 11.7038 2.04229 10.5354 2.6969 9.7511ZM3.71777 10.2586L5.00101 11.5419L7.05418 8.97542L6.28424 8.20547L3.71777 10.2586Z" fill="white"/>
<path fill-rule="evenodd" clip-rule="evenodd" d="M1.14286 4.57143L1.14286 11.4286C1.14286 13.3221 2.67788 14.8571 4.57143 14.8571H11.4286C13.3221 14.8571 14.8571 13.3221 14.8571 11.4286V4.57143C14.8571 2.67788 13.3221 1.14286 11.4286 1.14286H4.57143C2.67788 1.14286 1.14286 2.67788 1.14286 4.57143ZM0 11.4286C0 13.9533 2.0467 16 4.57143 16H11.4286C13.9533 16 16 13.9533 16 11.4286V4.57143C16 2.0467 13.9533 0 11.4286 0H4.57143C2.0467 0 0 2.0467 0 4.57143L0 11.4286Z" fill="white"/>
</svg>
