<svg width="16" height="16" viewBox="0 0 16 16" fill="none" xmlns="http://www.w3.org/2000/svg">
<path d="M6 6.5C6 7.88071 4.88071 9 3.5 9C2.11929 9 1 7.88071 1 6.5C1 5.11929 2.11929 4 3.5 4C4.88071 4 6 5.11929 6 6.5Z" fill="white"/>
<path d="M9 5C9 6.65685 7.65685 8 6 8C4.34315 8 3 6.65685 3 5C3 3.34315 4.34315 2 6 2C7.65685 2 9 3.34315 9 5Z" fill="white"/>
<path d="M12 8C12 9.65685 10.6569 11 9 11C7.34315 11 6 9.65685 6 8C6 6.34315 7.34315 5 9 5C10.6569 5 12 6.34315 12 8Z" fill="white"/>
<path d="M13 5C13 6.65685 11.6569 8 10 8C8.34315 8 7 6.65685 7 5C7 3.34315 8.34315 2 10 2C11.6569 2 13 3.34315 13 5Z" fill="white"/>
<path d="M15 6.5C15 7.88071 13.8807 9 12.5 9C11.1193 9 10 7.88071 10 6.5C10 5.11929 11.1193 4 12.5 4C13.8807 4 15 5.11929 15 6.5Z" fill="white"/>
<path d="M8 8.5C8 9.88071 3 13 3 13C3 13 3 9.88071 3 8.5C3 7.11929 4.11929 6 5.5 6C6.88071 6 8 7.11929 8 8.5Z" fill="white"/>
</svg>
