<svg width="108" height="108" viewBox="0 0 108 108" fill="none" xmlns="http://www.w3.org/2000/svg">
<g clip-path="url(#clip0_1712_35133)">
<path d="M87.1295 33.2667C87.1295 55.0636 71.827 81.5683 52.9504 92.4668C34.0738 103.365 18.7713 94.5303 18.7713 72.7334C18.7713 50.9366 34.0738 24.4318 52.9504 13.5334C71.827 2.635 87.1295 11.4699 87.1295 33.2667Z" fill="#1019EF" stroke="white" stroke-width="6.4"/>
<mask id="path-2-inside-1_1712_35133" fill="white">
<path d="M52.8003 65.5334L97.6026 39.6668L97.6026 70.0668L52.8003 95.9334L52.8003 65.5334Z"/>
</mask>
<path d="M52.8003 65.5334L97.6026 39.6668L97.6026 70.0668L52.8003 95.9334L52.8003 65.5334Z" fill="#1019EF"/>
<path d="M97.6026 39.6668L103.145 36.4668L103.145 30.0668L97.6026 33.2668L97.6026 39.6668ZM97.6026 70.0668L97.6026 76.4668L103.145 73.2668L103.145 66.8668L97.6026 70.0668ZM52.8003 71.9334L97.6026 46.0668L97.6026 33.2668L52.8003 59.1334L52.8003 71.9334ZM92.0601 42.8668L92.0601 73.2668L103.145 66.8668L103.145 36.4668L92.0601 42.8668ZM97.6026 63.6668L52.8003 89.5334L52.8003 102.333L97.6026 76.4668L97.6026 63.6668Z" fill="white" mask="url(#path-2-inside-1_1712_35133)"/>
<path d="M37.665 71.6655L83.7288 43.9334L81.1317 58.0667L37.665 84.209L37.665 71.6655Z" fill="#1019EF"/>
<path d="M54.3639 69.8744C52.0603 71.2044 50.0113 71.7294 48.2168 71.4494C46.4467 71.1274 45.0645 70.0634 44.0703 68.2574C43.0761 66.4234 42.579 63.9804 42.579 60.9284C42.579 57.8764 43.0761 54.8734 44.0703 51.9194C45.0645 48.9374 46.4467 46.2774 48.2168 43.9394C50.0113 41.5594 52.0603 39.7044 54.3639 38.3744C56.6433 37.0584 58.6802 36.5544 60.4746 36.8624C62.269 37.1424 63.6633 38.1994 64.6575 40.0334C65.6517 41.8394 66.1488 44.2684 66.1488 47.3204C66.1488 50.3724 65.6517 53.3894 64.6575 56.3714C63.6633 59.3254 62.269 61.9924 60.4746 64.3724C58.6802 66.7244 56.6433 68.5584 54.3639 69.8744ZM54.3639 63.8684C55.5036 63.2104 56.4978 62.2304 57.3465 60.9284C58.2194 59.6124 58.8984 58.0724 59.3834 56.3084C59.8684 54.5444 60.1108 52.7104 60.1108 50.8064C60.1108 48.9024 59.8684 47.3484 59.3834 46.1444C58.8984 44.9404 58.2194 44.1844 57.3465 43.8764C56.4978 43.5544 55.5036 43.7224 54.3639 44.3804C53.2242 45.0384 52.2179 46.0254 51.3449 47.3414C50.472 48.6574 49.793 50.1974 49.308 51.9614C48.8473 53.7114 48.617 55.5384 48.617 57.4424C48.617 59.3464 48.8473 60.9074 49.308 62.1254C49.793 63.3294 50.472 64.0854 51.3449 64.3934C52.2179 64.7014 53.2242 64.5264 54.3639 63.8684Z" fill="#FFE600"/>
<path d="M43.639 78.8764C43.4183 79.0038 43.2373 79.0299 43.0958 78.9548C42.9544 78.8731 42.8837 78.7082 42.8837 78.4599C42.8837 78.2116 42.9544 77.9683 43.0958 77.7298C43.2373 77.4848 43.4183 77.2986 43.639 77.1712C43.8653 77.0405 44.0464 77.0177 44.1822 77.1026C44.3236 77.1777 44.3944 77.3394 44.3944 77.5877C44.3944 77.836 44.3236 78.0826 44.1822 78.3276C44.0464 78.5628 43.8653 78.7457 43.639 78.8764ZM43.011 84.9524L43.011 79.9348L44.2671 79.2096L44.2671 84.2272L43.011 84.9524ZM47.0379 82.7842C46.7494 82.9508 46.4976 83.0243 46.2826 83.0047C46.0676 82.9786 45.9007 82.8659 45.7819 82.6666C45.663 82.4674 45.6036 82.1913 45.6036 81.8385L45.6036 79.4963L44.9926 79.8491L44.9926 78.7907L45.6461 78.4134L45.8837 76.6886L46.8682 76.1202L46.8682 77.7078L47.8527 77.1394L47.8527 78.1978L46.8682 78.7662L46.8682 81.0496C46.8682 81.2587 46.9191 81.3992 47.021 81.471C47.1228 81.5429 47.2614 81.5282 47.4368 81.4269C47.5953 81.3355 47.748 81.2244 47.8951 81.0937L47.8951 82.1325C47.7707 82.2501 47.6292 82.3677 47.4708 82.4853C47.3124 82.6095 47.1681 82.7091 47.0379 82.7842ZM50.5551 80.7732C50.1307 81.0182 49.763 81.1554 49.4518 81.1848C49.1406 81.2142 48.9029 81.1391 48.7389 80.9594C48.5748 80.7797 48.4927 80.4972 48.4927 80.1117L49.5961 79.4747C49.5961 79.7426 49.6838 79.9075 49.8592 79.9696C50.0402 80.0284 50.2835 79.9696 50.589 79.7932C50.8323 79.6527 51.0247 79.4861 51.1662 79.2934C51.3076 79.1007 51.3783 78.9096 51.3783 78.7201C51.3783 78.5829 51.3416 78.4996 51.268 78.4702C51.1944 78.4343 51.0983 78.4343 50.9794 78.4702C50.8606 78.5061 50.6965 78.5715 50.4872 78.6662C50.4759 78.6662 50.4617 78.6711 50.4448 78.6809C50.4278 78.6907 50.4136 78.6989 50.4023 78.7054L50.2411 78.7789C49.9129 78.9226 49.63 79.0206 49.3924 79.0729C49.1547 79.1252 48.951 79.0958 48.7813 78.9847C48.6172 78.8704 48.5352 78.6237 48.5352 78.2448C48.5352 77.9051 48.6144 77.5653 48.7728 77.2256C48.9369 76.8761 49.1632 76.5494 49.4518 76.2456C49.746 75.9385 50.0855 75.6739 50.4702 75.4518C50.8606 75.2264 51.2058 75.099 51.5056 75.0696C51.8112 75.0304 52.0488 75.0892 52.2186 75.246C52.3883 75.4028 52.4732 75.6511 52.4732 75.9908L51.3274 76.6523C51.3218 76.4334 51.2397 76.3044 51.0813 76.2652C50.9285 76.2162 50.7248 76.2652 50.4702 76.4122C50.2439 76.5429 50.0572 76.7062 49.9101 76.9022C49.7686 77.0949 49.6979 77.2795 49.6979 77.4559C49.6979 77.5931 49.7403 77.6731 49.8252 77.696C49.9101 77.7189 50.0176 77.7091 50.1477 77.6666C50.2778 77.6241 50.4589 77.549 50.6909 77.4412L50.8437 77.3726C50.8493 77.3693 50.8521 77.3677 50.8521 77.3677C50.8521 77.3677 50.855 77.3661 50.8606 77.3628C50.8606 77.3628 50.8635 77.3612 50.8691 77.3579C50.8691 77.3579 50.8719 77.3563 50.8776 77.353C50.8833 77.3497 50.8889 77.3497 50.8946 77.353C51.2171 77.2125 51.5 77.1178 51.7433 77.0688C51.9922 77.01 52.1988 77.041 52.3628 77.1619C52.5326 77.273 52.6174 77.5114 52.6174 77.8773C52.6174 78.2301 52.5354 78.5813 52.3713 78.9308C52.2072 79.2803 51.9696 79.6135 51.6584 79.9304C51.3472 80.2473 50.9794 80.5282 50.5551 80.7732ZM57.6985 76.6293C57.2233 76.9037 56.8017 77.0393 56.434 77.036C56.0718 77.023 55.7889 76.876 55.5853 76.595C55.3872 76.3043 55.2882 75.8911 55.2882 75.3553C55.2882 74.8196 55.3872 74.2953 55.5853 73.7824C55.7889 73.2598 56.0718 72.7861 56.434 72.3614C56.7961 71.9302 57.2176 71.5758 57.6985 71.2981C58.1738 71.0237 58.5925 70.8931 58.9546 70.9061C59.3224 70.9094 59.6053 71.0564 59.8033 71.3471C60.007 71.6281 60.1089 72.0364 60.1089 72.5721C60.1089 73.1079 60.007 73.6371 59.8033 74.1597C59.6053 74.6726 59.3252 75.1446 58.9631 75.5758C58.601 76.0005 58.1795 76.3517 57.6985 76.6293ZM57.6985 75.3945C57.9192 75.2671 58.1172 75.0907 58.2926 74.8653C58.468 74.6399 58.6038 74.3917 58.7 74.1205C58.8019 73.8461 58.8528 73.5717 58.8528 73.2973C58.8528 73.0229 58.8019 72.8073 58.7 72.6505C58.6038 72.4905 58.468 72.399 58.2926 72.3761C58.1172 72.3533 57.9192 72.4055 57.6985 72.5329C57.4722 72.6636 57.2714 72.8416 57.096 73.067C56.9262 73.2892 56.7904 73.5374 56.6886 73.8118C56.5924 74.083 56.5443 74.3557 56.5443 74.6301C56.5443 74.9045 56.5924 75.1218 56.6886 75.2818C56.7904 75.4386 56.9262 75.5301 57.096 75.5562C57.2714 75.5791 57.4722 75.5252 57.6985 75.3945ZM60.8709 74.641L60.8709 67.3694L62.127 66.6442L62.127 70.8484L62.2119 70.7994L63.6037 68.0456L65.1229 67.1685L63.3152 70.623L65.1569 72.1665L63.6292 73.0485L62.2119 71.7304L62.127 71.7794L62.127 73.9158L60.8709 74.641ZM66.8753 71.3017C66.4283 71.5598 66.0662 71.6415 65.7889 71.5467C65.5174 71.4422 65.3816 71.1678 65.3816 70.7235C65.3816 70.2531 65.5513 69.7762 65.8908 69.2927C66.2303 68.8093 66.7423 68.3209 67.4269 67.8276L68.352 67.1661L68.352 66.9603C68.352 66.7186 68.2813 66.5667 68.1399 66.5046C68.0041 66.4328 67.8117 66.4687 67.5627 66.6124C67.3308 66.7464 67.144 66.9228 67.0026 67.1416C66.8668 67.3572 66.7989 67.5826 66.7989 67.8178C66.7989 67.8309 66.7989 67.8407 66.7989 67.8472L65.5683 68.5577C65.5683 68.1984 65.6503 67.8342 65.8144 67.465C65.9841 67.0926 66.219 66.748 66.5188 66.4311C66.8244 66.1045 67.178 65.8252 67.5797 65.5932C67.9871 65.358 68.3435 65.2306 68.6491 65.211C68.9546 65.1849 69.1894 65.2649 69.3535 65.4511C69.5232 65.6341 69.6081 65.9117 69.6081 66.2841L69.6081 69.5965L68.352 70.3217L68.352 69.6847L68.2672 69.7337C68.137 70.0571 67.9503 70.3544 67.707 70.6255C67.4694 70.8934 67.1921 71.1188 66.8753 71.3017ZM67.2996 70.1061C67.5033 69.9885 67.6844 69.8383 67.8428 69.6553C68.0012 69.4659 68.1257 69.2633 68.2162 69.0477C68.3068 68.8256 68.352 68.61 68.352 68.4009L68.352 68.0481L67.4609 68.69C67.1667 68.8991 66.9488 69.1098 66.8074 69.3221C66.6716 69.5247 66.6037 69.7174 66.6037 69.9003C66.6037 70.0898 66.6659 70.2041 66.7904 70.2433C66.9149 70.276 67.0846 70.2303 67.2996 70.1061ZM71.3112 70.8771C71.1641 70.962 71.0056 71.0371 70.8359 71.1025C70.6718 71.1645 70.5304 71.2037 70.4115 71.2201L70.42 70.049C70.5162 70.0392 70.6237 70.013 70.7425 69.9706C70.8613 69.9281 70.9689 69.8791 71.065 69.8236C71.2121 69.7386 71.3395 69.6292 71.447 69.4953C71.5545 69.3679 71.6422 69.229 71.7101 69.0788C71.778 68.935 71.8458 68.7554 71.9137 68.5398C71.9307 68.4908 71.9449 68.4434 71.9562 68.3977C71.9675 68.3519 71.9788 68.3095 71.9901 68.2703L69.9447 64.3846L71.2942 63.6055L72.4569 66.129L72.5418 66.08L73.4838 62.3413L74.7909 61.5867L73.1104 67.7509C73.1048 67.7672 73.0991 67.7835 73.0934 67.7999C73.0934 67.8129 73.0906 67.8276 73.085 67.844C72.9322 68.4026 72.7794 68.8632 72.6267 69.2258C72.4739 69.5949 72.29 69.9199 72.075 70.2009C71.8657 70.4785 71.611 70.7039 71.3112 70.8771ZM77.4223 65.085L77.4223 60.0674L78.6784 59.3422L78.6784 60.0478L78.7633 59.9988C78.9273 59.6166 79.1112 59.2981 79.3149 59.0433C79.5243 58.7787 79.7619 58.5696 80.0278 58.4161C80.3447 58.2332 80.6276 58.1613 80.8765 58.2005C81.1311 58.2299 81.3263 58.3655 81.4621 58.6072C81.5979 58.8424 81.6658 59.1593 81.6658 59.5578L81.6658 62.635L80.4097 63.3602L80.4097 60.4888C80.4097 60.1752 80.3362 59.9661 80.1891 59.8616C80.0476 59.7473 79.8496 59.7636 79.595 59.9106C79.4309 60.0053 79.2781 60.1425 79.1367 60.3222C78.9952 60.4953 78.8821 60.6913 78.7972 60.9102C78.718 61.1193 78.6784 61.3283 78.6784 61.5374L78.6784 64.3598L77.4223 65.085ZM84.7759 60.9962C84.3006 61.2706 83.8791 61.4062 83.5113 61.4029C83.1492 61.3898 82.8663 61.2428 82.6626 60.9619C82.4646 60.6712 82.3655 60.2579 82.3655 59.7222C82.3655 59.1865 82.4646 58.6622 82.6626 58.1493C82.8663 57.6266 83.1492 57.153 83.5113 56.7283C83.8734 56.2971 84.2949 55.9427 84.7759 55.665C85.2511 55.3906 85.6698 55.2599 86.0319 55.273C86.3997 55.2763 86.6826 55.4233 86.8807 55.714C87.0843 55.9949 87.1862 56.4033 87.1862 56.939C87.1862 57.4747 87.0843 58.0039 86.8807 58.5266C86.6826 59.0395 86.4026 59.5115 86.0404 59.9427C85.6783 60.3674 85.2568 60.7185 84.7759 60.9962ZM84.7759 59.7614C84.9965 59.634 85.1946 59.4576 85.37 59.2322C85.5454 59.0068 85.6812 58.7585 85.7773 58.4874C85.8792 58.213 85.9301 57.9386 85.9301 57.6642C85.9301 57.3898 85.8792 57.1742 85.7773 57.0174C85.6812 56.8573 85.5454 56.7659 85.37 56.743C85.1946 56.7201 84.9965 56.7724 84.7759 56.8998C84.5495 57.0305 84.3487 57.2085 84.1733 57.4339C84.0035 57.656 83.8678 57.9043 83.7659 58.1787C83.6697 58.4498 83.6216 58.7226 83.6216 58.997C83.6216 59.2714 83.6697 59.4886 83.7659 59.6487C83.8678 59.8055 84.0035 59.897 84.1733 59.9231C84.3487 59.946 84.5495 59.8921 84.7759 59.7614ZM89.5063 58.2651C89.2178 58.4317 88.966 58.5052 88.751 58.4856C88.536 58.4594 88.3691 58.3467 88.2502 58.1475C88.1314 57.9482 88.072 57.6722 88.072 57.3194L88.072 54.9772L87.461 55.33L87.461 54.2716L88.1145 53.8943L88.3521 52.1695L89.3366 51.6011L89.3366 53.1887L90.3211 52.6203L90.3211 53.6787L89.3366 54.2471L89.3366 56.5305C89.3366 56.7395 89.3875 56.88 89.4894 56.9519C89.5912 57.0237 89.7298 57.009 89.9052 56.9078C90.0636 56.8163 90.2164 56.7052 90.3635 56.5746L90.3635 57.6134C90.239 57.731 90.0976 57.8486 89.9392 57.9662C89.7807 58.0903 89.6365 58.1899 89.5063 58.2651ZM45.5834 92.624C45.2948 92.7906 45.043 92.8641 44.828 92.8445C44.613 92.8184 44.4461 92.7057 44.3273 92.5064C44.2085 92.3072 44.1491 92.0311 44.1491 91.6783L44.1491 89.3361L43.538 89.6889L43.538 88.6305L44.1915 88.2532L44.4291 86.5284L45.4136 85.96L45.4136 87.5476L46.3981 86.9792L46.3981 88.0376L45.4136 88.606L45.4136 90.8894C45.4136 91.0985 45.4646 91.239 45.5664 91.3108C45.6682 91.3827 45.8069 91.368 45.9823 91.2667C46.1407 91.1753 46.2935 91.0642 46.4406 90.9335L46.4406 91.9723C46.3161 92.0899 46.1746 92.2075 46.0162 92.3251C45.8578 92.4493 45.7135 92.5489 45.5834 92.624ZM49.2488 90.5078C48.7735 90.7822 48.352 90.9178 47.9842 90.9145C47.6221 90.9014 47.3392 90.7544 47.1355 90.4735C46.9375 90.1828 46.8385 89.7695 46.8385 89.2338C46.8385 88.6981 46.9375 88.1738 47.1355 87.6609C47.3392 87.1382 47.6221 86.6646 47.9842 86.2399C48.3463 85.8087 48.7678 85.4543 49.2488 85.1766C49.7241 84.9022 50.1428 84.7715 50.5049 84.7846C50.8726 84.7879 51.1555 84.9349 51.3536 85.2256C51.5573 85.5065 51.6591 85.9149 51.6591 86.4506C51.6591 86.9863 51.5573 87.5155 51.3536 88.0382C51.1555 88.5511 50.8755 89.0231 50.5134 89.4543C50.1512 89.879 49.7297 90.2301 49.2488 90.5078ZM49.2488 89.273C49.4694 89.1456 49.6675 88.9692 49.8429 88.7438C50.0183 88.5184 50.1541 88.2701 50.2503 87.999C50.3521 87.7246 50.403 87.4502 50.403 87.1758C50.403 86.9014 50.3521 86.6858 50.2503 86.529C50.1541 86.3689 50.0183 86.2775 49.8429 86.2546C49.6675 86.2317 49.4694 86.284 49.2488 86.4114C49.0225 86.5421 48.8216 86.7201 48.6462 86.9455C48.4765 87.1676 48.3407 87.4159 48.2388 87.6903C48.1426 87.9614 48.0945 88.2342 48.0945 88.5086C48.0945 88.783 48.1426 89.0002 48.2388 89.1603C48.3407 89.3171 48.4765 89.4086 48.6462 89.4347C48.8216 89.4576 49.0225 89.4037 49.2488 89.273ZM54.5098 87.3136L54.5098 80.042L55.7658 79.3168L55.7658 82.247L55.8507 82.198C56.0148 81.8223 56.2015 81.5054 56.4109 81.2474C56.6202 80.9893 56.855 80.7851 57.1153 80.6349C57.4378 80.4487 57.7235 80.3752 57.9725 80.4144C58.2214 80.447 58.4138 80.581 58.5496 80.8162C58.691 81.0481 58.7618 81.3633 58.7618 81.7619L58.7618 84.8587L57.5057 85.5839L57.5057 82.6929C57.5057 82.3858 57.4321 82.1767 57.285 82.0657C57.1379 81.9546 56.9371 81.9726 56.6824 82.1196C56.5184 82.2143 56.3656 82.3515 56.2241 82.5312C56.0827 82.7108 55.9695 82.9101 55.8847 83.129C55.8054 83.338 55.7658 83.5504 55.7658 83.766L55.7658 86.5884L54.5098 87.3136ZM60.8788 83.7638C60.4318 84.0219 60.0697 84.1035 59.7925 84.0088C59.5209 83.9043 59.3851 83.6299 59.3851 83.1856C59.3851 82.7152 59.5548 82.2383 59.8943 81.7548C60.2338 81.2713 60.7459 80.783 61.4305 80.2897L62.3556 79.6282L62.3556 79.4224C62.3556 79.1806 62.2848 79.0287 62.1434 78.9667C62.0076 78.8948 61.8152 78.9308 61.5663 79.0745C61.3343 79.2084 61.1476 79.3848 61.0061 79.6037C60.8703 79.8193 60.8024 80.0447 60.8024 80.2799C60.8024 80.293 60.8024 80.3028 60.8024 80.3093L59.5718 81.0198C59.5718 80.6605 59.6539 80.2962 59.8179 79.9271C59.9877 79.5547 60.2225 79.2101 60.5224 78.8932C60.8279 78.5665 61.1815 78.2872 61.5832 78.0553C61.9906 77.8201 62.3471 77.6927 62.6526 77.6731C62.9581 77.6469 63.193 77.727 63.357 77.9132C63.5268 78.0961 63.6117 78.3738 63.6117 78.7462L63.6117 82.0586L62.3556 82.7838L62.3556 82.1468L62.2707 82.1958C62.1406 82.5192 61.9538 82.8165 61.7106 83.0876C61.4729 83.3555 61.1957 83.5809 60.8788 83.7638ZM61.3032 82.5682C61.5069 82.4506 61.6879 82.3003 61.8463 82.1174C62.0048 81.9279 62.1292 81.7254 62.2198 81.5098C62.3103 81.2877 62.3556 81.0721 62.3556 80.863L62.3556 80.5102L61.4644 81.1521C61.1702 81.3612 60.9524 81.5719 60.8109 81.7842C60.6751 81.9867 60.6072 82.1795 60.6072 82.3624C60.6072 82.5519 60.6695 82.6662 60.794 82.7054C60.9184 82.7381 61.0882 82.6923 61.3032 82.5682ZM65.4505 80.9969L63.9398 76.8515L65.2638 76.0871L66.3162 79.3113L66.401 79.2623L67.4619 74.818L68.7774 74.0585L67.2667 79.9483L65.4505 80.9969ZM71.3532 77.7458C70.8893 78.0136 70.4734 78.1427 70.1056 78.1329C69.7435 78.1133 69.4606 77.9565 69.2569 77.6625C69.0532 77.3685 68.9514 76.9569 68.9514 76.4277C68.9514 75.9115 69.0532 75.3987 69.2569 74.8891C69.4606 74.3729 69.7435 73.8993 70.1056 73.4681C70.4678 73.0369 70.8808 72.6873 71.3447 72.4195C71.803 72.1549 72.2076 72.0324 72.5584 72.052C72.9148 72.0683 73.1921 72.2186 73.3901 72.5028C73.5882 72.787 73.6872 73.1904 73.6872 73.7131C73.6872 73.7849 73.6843 73.865 73.6787 73.9532C73.6787 74.0381 73.6759 74.1083 73.6702 74.1639L70.2499 76.1386C70.2839 76.3542 70.3546 76.5191 70.4621 76.6335C70.5696 76.7478 70.7026 76.8082 70.861 76.8148C71.0251 76.8115 71.209 76.7511 71.4126 76.6335C71.6446 76.4995 71.8511 76.3182 72.0322 76.0896C72.2189 75.8576 72.3604 75.6094 72.4565 75.3448L73.5259 75.041C73.4354 75.3938 73.2855 75.7384 73.0761 76.0749C72.8668 76.4113 72.615 76.7233 72.3208 77.0108C72.0265 77.2982 71.704 77.5432 71.3532 77.7458ZM72.4056 73.9924C72.383 73.7964 72.3208 73.6428 72.2189 73.5318C72.1171 73.4207 71.9869 73.3652 71.8285 73.3652C71.6757 73.3554 71.5032 73.406 71.3108 73.5171C71.1241 73.6249 70.9572 73.767 70.8101 73.9434C70.663 74.1198 70.5385 74.3223 70.4366 74.551C70.3404 74.7698 70.2754 75.0001 70.2414 75.2419L72.4056 73.9924ZM78.7462 73.4774C78.271 73.7518 77.8495 73.8874 77.4817 73.8841C77.1196 73.871 76.8367 73.724 76.633 73.4431C76.4349 73.1524 76.3359 72.7391 76.3359 72.2034C76.3359 71.6677 76.4349 71.1434 76.633 70.6305C76.8367 70.1078 77.1196 69.6342 77.4817 69.2095C77.8438 68.7783 78.2653 68.4239 78.7462 68.1462C79.2215 67.8718 79.6402 67.7411 80.0023 67.7542C80.3701 67.7575 80.653 67.9045 80.851 68.1952C81.0547 68.4761 81.1566 68.8845 81.1566 69.4202C81.1566 69.9559 81.0547 70.4851 80.851 71.0078C80.653 71.5207 80.3729 71.9927 80.0108 72.4239C79.6487 72.8486 79.2272 73.1997 78.7462 73.4774ZM78.7462 72.2426C78.9669 72.1152 79.1649 71.9388 79.3403 71.7134C79.5157 71.488 79.6515 71.2397 79.7477 70.9686C79.8496 70.6942 79.9005 70.4198 79.9005 70.1454C79.9005 69.871 79.8496 69.6554 79.7477 69.4986C79.6515 69.3385 79.5157 69.2471 79.3403 69.2242C79.1649 69.2013 78.9669 69.2536 78.7462 69.381C78.5199 69.5117 78.3191 69.6897 78.1437 69.9151C77.9739 70.1372 77.8381 70.3855 77.7363 70.6599C77.6401 70.931 77.592 71.2038 77.592 71.4782C77.592 71.7526 77.6401 71.9698 77.7363 72.1299C77.8381 72.2867 77.9739 72.3782 78.1437 72.4043C78.3191 72.4272 78.5199 72.3733 78.7462 72.2426ZM81.9186 71.489L81.9186 66.4714L83.1747 65.7462L83.1747 66.4518L83.2596 66.4028C83.4236 66.0206 83.6075 65.7021 83.8112 65.4473C84.0206 65.1827 84.2582 64.9737 84.5241 64.8201C84.841 64.6372 85.1239 64.5653 85.3728 64.6045C85.6275 64.6339 85.8227 64.7695 85.9584 65.0112C86.0942 65.2464 86.1621 65.5633 86.1621 65.9618L86.1621 69.039L84.9061 69.7642L84.9061 66.8928C84.9061 66.5792 84.8325 66.3702 84.6854 66.2656C84.5439 66.1513 84.3459 66.1676 84.0913 66.3146C83.9272 66.4094 83.7744 66.5466 83.633 66.7262C83.4915 66.8994 83.3784 67.0954 83.2935 67.3142C83.2143 67.5233 83.1747 67.7324 83.1747 67.9414L83.1747 70.7638L81.9186 71.489ZM89.2722 67.4003C88.8082 67.6681 88.3924 67.7972 88.0246 67.7874C87.6625 67.7678 87.3796 67.611 87.1759 67.317C86.9722 67.023 86.8703 66.6114 86.8703 66.0822C86.8703 65.566 86.9722 65.0532 87.1759 64.5436C87.3796 64.0274 87.6625 63.5538 88.0246 63.1226C88.3867 62.6914 88.7997 62.3418 89.2637 62.074C89.722 61.8094 90.1265 61.6869 90.4773 61.7065C90.8338 61.7228 91.111 61.8731 91.3091 62.1573C91.5071 62.4415 91.6061 62.8449 91.6061 63.3676C91.6061 63.4394 91.6033 63.5195 91.5976 63.6077C91.5976 63.6926 91.5948 63.7628 91.5891 63.8184L88.1689 65.7931C88.2028 66.0087 88.2735 66.1736 88.381 66.288C88.4885 66.4023 88.6215 66.4627 88.7799 66.4693C88.944 66.466 89.1279 66.4056 89.3316 66.288C89.5636 66.154 89.7701 65.9727 89.9511 65.7441C90.1379 65.5121 90.2793 65.2639 90.3755 64.9993L91.4449 64.6955C91.3543 65.0483 91.2044 65.3929 90.995 65.7294C90.7857 66.0658 90.5339 66.3778 90.2397 66.6653C89.9455 66.9527 89.623 67.1977 89.2722 67.4003ZM90.3246 63.6469C90.3019 63.4509 90.2397 63.2973 90.1379 63.1863C90.036 63.0752 89.9059 63.0197 89.7475 63.0197C89.5947 63.0099 89.4221 63.0605 89.2297 63.1716C89.043 63.2794 88.8761 63.4215 88.729 63.5979C88.5819 63.7743 88.4574 63.9768 88.3556 64.2055C88.2594 64.4243 88.1943 64.6546 88.1604 64.8964L90.3246 63.6469Z" fill="#FFE600"/>
<path d="M26.7495 68.7142L26.9362 68.0497L28.0903 67.9972C28.1383 67.7662 28.2294 67.5532 28.3635 67.3583C28.4979 67.1564 28.6598 67.0048 28.8492 66.9035C29.0623 66.7895 29.2372 66.7816 29.3738 66.8796C29.5047 66.9739 29.566 67.1533 29.5577 67.4178C29.5496 67.6754 29.4748 67.9276 29.3332 68.1744C29.1859 68.4175 29.0057 68.596 28.7926 68.7099C28.6091 68.8081 28.4101 68.8426 28.1957 68.8136L26.7495 68.7142ZM26.8203 66.4587L27.007 65.7942L28.161 65.7417C28.209 65.5107 28.3001 65.2977 28.4343 65.1028C28.5686 64.9009 28.7305 64.7493 28.92 64.648C29.1331 64.534 29.3079 64.5261 29.4445 64.6241C29.5755 64.7184 29.6369 64.8943 29.6288 65.1519C29.6205 65.4164 29.5455 65.6721 29.4039 65.9189C29.2566 66.162 29.0764 66.3405 28.8633 66.4544C28.6798 66.5526 28.4808 66.5871 28.2664 66.5581L26.8203 66.4587Z" fill="white"/>
<path d="M33.4837 61.4129L27.4206 62.828L27.9076 60.6588L32.8248 56.6207L32.8501 56.5078L28.6179 57.4955L29.0186 55.7105L35.0818 54.2954L34.5948 56.4646L29.6861 60.5007L29.6607 60.6137L33.8845 59.6279L33.4837 61.4129Z" fill="white"/>
<path d="M37.4487 49.0278C37.0502 49.9043 36.5871 50.6516 36.0594 51.2698C35.5269 51.8868 34.9696 52.334 34.3877 52.6115C33.8057 52.889 33.2445 52.9616 32.704 52.8295C32.1683 52.6985 31.7812 52.3939 31.5428 51.9158C31.3043 51.4377 31.2245 50.8347 31.3034 50.1068C31.3823 49.3789 31.621 48.5767 32.0195 47.7002C32.4179 46.8237 32.8834 46.077 33.416 45.46C33.9519 44.8354 34.5092 44.3882 35.0877 44.1183C35.6697 43.8408 36.2285 43.7676 36.7642 43.8986C37.3047 44.0307 37.6942 44.3359 37.9326 44.814C38.1745 45.2845 38.2543 45.8875 38.172 46.623C38.0882 47.3498 37.8471 48.1514 37.4487 49.0278ZM36.4497 48.7836C36.6799 48.2773 36.8101 47.8138 36.8405 47.3931C36.8744 46.9648 36.8108 46.6092 36.6498 46.3264C36.4888 46.0435 36.2418 45.8614 35.9088 45.78C35.5759 45.6985 35.2293 45.7355 34.869 45.8909C34.5088 46.0463 34.167 46.3027 33.8436 46.6602C33.5236 47.0102 33.2486 47.4382 33.0184 47.9445C32.7917 48.4432 32.6615 48.9066 32.6276 49.335C32.5938 49.7633 32.6574 50.1188 32.8183 50.4017C32.9828 50.677 33.2315 50.8553 33.5645 50.9367C33.8975 51.0182 34.2423 50.985 34.5991 50.8371C34.9593 50.6818 35.3011 50.4253 35.6245 50.0678C35.9479 49.7103 36.223 49.2822 36.4497 48.7836Z" fill="white"/>
<path d="M40.9706 42.0038L39.6202 35.2305L41.4602 32.9234L46.4905 35.0827L45.2025 36.6976L44.2948 36.3256L42.0254 39.171L42.2586 40.3889L40.9706 42.0038ZM41.7535 38.0613L43.4708 35.908L41.2163 34.9177L41.1397 35.0139L41.7535 38.0613Z" fill="white"/>
<path d="M46.9573 34.6899L45.6106 28.3297L47.9286 26.4082C48.6348 25.8229 49.2853 25.4412 49.8803 25.263C50.4741 25.0788 50.9696 25.1056 51.3669 25.3433C51.763 25.575 52.0279 26.0065 52.1615 26.6378C52.2952 27.2691 52.2655 27.9482 52.0724 28.6753C51.8781 29.3964 51.5402 30.114 51.0587 30.8282C50.5759 31.5364 49.9814 32.1831 49.2753 32.7684L46.9573 34.6899ZM49.0294 31.6072C49.4461 31.2617 49.7967 30.8767 50.0809 30.452C50.3698 30.0166 50.5688 29.5751 50.6782 29.1274C50.792 28.669 50.8061 28.2374 50.7203 27.8324C50.6346 27.4274 50.4699 27.1475 50.2261 26.9925C49.9869 26.8267 49.6882 26.7978 49.3301 26.9057C48.9764 27.0028 48.5913 27.2241 48.1745 27.5695L47.2629 28.3251L48.1178 32.3628L49.0294 31.6072Z" fill="white"/>
<path d="M53.3394 29.5504L53.9439 21.9297L56.3054 20.828C57.0248 20.4924 57.646 20.3573 58.1689 20.4225C58.6923 20.4807 59.0815 20.7286 59.3364 21.1663C59.5918 21.5968 59.6895 22.1903 59.6295 22.9467C59.5695 23.703 59.3663 24.4403 59.0197 25.1586C58.6737 25.8697 58.2137 26.5137 57.6399 27.0907C57.0666 27.6604 56.4203 28.1131 55.7009 28.4487L53.3394 29.5504ZM55.8113 27.0573C56.2358 26.8592 56.6179 26.5882 56.9575 26.2443C57.3036 25.8905 57.5795 25.4903 57.7852 25.0439C57.9975 24.5876 58.1228 24.1168 58.1613 23.6316C58.1998 23.1464 58.1421 22.7645 57.9882 22.4858C57.8407 22.1973 57.6095 22.0337 57.2946 21.9951C56.9861 21.9466 56.6196 22.0214 56.1951 22.2194L55.2664 22.6527L54.8826 27.4905L55.8113 27.0573Z" fill="white"/>
<path d="M59.6742 26.761L62.0903 18.6147L64.8824 18.3349C65.3313 18.2899 65.6954 18.3608 65.9747 18.5474C66.254 18.734 66.4268 19.0202 66.493 19.4058C66.5647 19.7909 66.5225 20.2465 66.3664 20.7729C66.2352 21.2153 66.048 21.6226 65.8048 21.9948C65.5639 22.3594 65.2847 22.6649 64.9673 22.9113C64.6576 23.1496 64.3404 23.3146 64.0157 23.4063L63.9418 23.4137L64.9299 26.2344L63.3614 26.3916L62.5427 23.6982L61.8858 23.764L61.0374 26.6244L59.6742 26.761ZM63.531 22.3003C63.8595 22.2674 64.1562 22.1267 64.4211 21.8781C64.6916 21.629 64.8833 21.3137 64.9965 20.9323C65.1096 20.5509 65.0976 20.2598 64.9607 20.0589C64.8315 19.8498 64.6026 19.7617 64.2741 19.7946L63.0259 19.9197L62.2828 22.4254L63.531 22.3003Z" fill="white"/>
<path d="M65.1434 26.4185L69.0274 18.4097L72.7096 19.5907L71.9786 21.098L69.4326 20.2814L68.5762 22.0474L70.9328 22.8032L70.2946 24.1193L67.9379 23.3635L67.0106 25.2757L69.6267 26.1147L68.8958 27.622L65.1434 26.4185Z" fill="white"/>
<path d="M70.6486 29.5054C70.3115 29.1797 70.0887 28.7876 69.9803 28.3288C69.8765 27.8633 69.8906 27.3688 70.0226 26.8455C70.1628 26.3187 70.4108 25.799 70.7665 25.2863L71.6076 26.0987C71.323 26.5089 71.1764 26.9039 71.1677 27.2837C71.1638 27.6567 71.2984 27.9751 71.5717 28.2391C71.7207 28.3831 71.8763 28.4706 72.0385 28.5017C72.2007 28.5327 72.3576 28.5073 72.5093 28.4254C72.6692 28.3402 72.8156 28.2018 72.9484 28.0104C73.0954 27.7985 73.1761 27.5967 73.1905 27.4051C73.2132 27.2101 73.1909 27.0287 73.1236 26.8609C73.0562 26.6931 72.9528 26.4962 72.8133 26.2701C72.8063 26.2633 72.7992 26.2564 72.7921 26.2495C72.7897 26.2358 72.7868 26.2273 72.7832 26.2239L72.6466 26.0234C72.4256 25.6843 72.2625 25.3555 72.1574 25.0371C72.0524 24.7187 72.0344 24.3474 72.1035 23.9232C72.1726 23.4989 72.3803 23.0373 72.7265 22.5383C73.049 22.0734 73.3951 21.7284 73.7648 21.5032C74.1344 21.2779 74.5027 21.1827 74.8698 21.2176C75.2403 21.2558 75.5853 21.4292 75.9047 21.7377C76.2276 22.0497 76.4362 22.4281 76.5305 22.8732C76.6331 23.3148 76.6172 23.7904 76.4829 24.3C76.3486 24.8097 76.1059 25.3175 75.7549 25.8233L74.9405 25.0366C74.9453 25.0298 74.9524 25.0195 74.9619 25.0059C75.2275 24.623 75.3646 24.2588 75.3732 23.9132C75.3854 23.571 75.2709 23.2834 75.0295 23.0503C74.8805 22.9063 74.7267 22.8205 74.568 22.7929C74.4094 22.7652 74.2543 22.7924 74.1026 22.8742C73.9593 22.9527 73.8236 23.0842 73.6955 23.2688C73.5485 23.4807 73.4672 23.6876 73.4516 23.8895C73.4443 24.0879 73.4778 24.2745 73.5522 24.4491C73.6314 24.6169 73.7496 24.8225 73.9068 25.0657L73.937 25.1119C74.1734 25.4887 74.3501 25.8364 74.467 26.1548C74.5874 26.4767 74.6161 26.8583 74.5529 27.2996C74.4897 27.7409 74.2731 28.2282 73.9031 28.7614C73.5759 29.2331 73.2239 29.5781 72.8471 29.7965C72.4704 30.0149 72.0914 30.0998 71.7102 30.0513C71.3325 30.0061 70.9787 29.8242 70.6486 29.5054Z" fill="white"/>
<path d="M73.4026 33.7403C73.2042 33.2468 73.1158 32.726 73.1372 32.178C73.1643 31.6244 73.295 31.0863 73.5296 30.5638C73.7717 30.0409 74.1007 29.569 74.5164 29.1481L75.0113 30.3794C74.6787 30.7161 74.4631 31.0916 74.3644 31.5057C74.2713 31.9143 74.3051 32.3186 74.4659 32.7187C74.5537 32.9369 74.6604 33.0956 74.7861 33.1949C74.9118 33.2942 75.0468 33.3293 75.1911 33.3002C75.343 33.2707 75.4965 33.1774 75.6518 33.0202C75.8236 32.8463 75.9385 32.6568 75.9965 32.4519C76.0622 32.2466 76.0876 32.0381 76.0727 31.8266C76.0579 31.615 76.0204 31.3569 75.9603 31.0523C75.9562 31.0419 75.952 31.0315 75.9478 31.0211C75.9492 31.0051 75.9488 30.9945 75.9467 30.9893L75.8829 30.7141C75.7831 30.2523 75.7284 29.8253 75.7189 29.4329C75.7093 29.0405 75.7841 28.625 75.9431 28.1863C76.1021 27.7475 76.3839 27.3234 76.7885 26.9137C77.1655 26.5321 77.5329 26.2917 77.8908 26.1925C78.2487 26.0933 78.5742 26.1366 78.8672 26.3224C79.1623 26.5133 79.4039 26.8426 79.5918 27.3101C79.7818 27.7829 79.862 28.2829 79.8321 28.8101C79.8099 29.337 79.6822 29.8536 79.4491 30.3601C79.2159 30.8666 78.8942 31.3274 78.484 31.7427L78.0048 30.5504C78.0103 30.5448 78.0186 30.5364 78.0297 30.5252C78.3401 30.2109 78.5405 29.8655 78.6309 29.4889C78.7234 29.1175 78.6987 28.7552 78.5567 28.4019C78.469 28.1837 78.3633 28.0276 78.2397 27.9335C78.116 27.8393 77.9821 27.8068 77.8378 27.8359C77.7012 27.8646 77.558 27.9548 77.4083 28.1063C77.2365 28.2802 77.1198 28.4751 77.0584 28.6908C77.0045 28.9061 76.9871 29.1247 77.0061 29.3467C77.0307 29.563 77.0783 29.8365 77.1488 30.1671L77.1624 30.2301C77.2657 30.7394 77.327 31.1927 77.3463 31.5898C77.3676 31.9921 77.2992 32.4233 77.1409 32.8832C76.9826 33.3431 76.6873 33.7919 76.2549 34.2297C75.8724 34.6169 75.5001 34.8549 75.1381 34.9437C74.776 35.0324 74.4443 34.9736 74.1429 34.767C73.8436 34.5657 73.5968 34.2235 73.4026 33.7403Z" fill="white"/>
<path d="M78.3841 34.3233L78.4807 33.6843L79.716 33.3678C79.7287 33.1517 79.7926 32.9365 79.9075 32.7221C80.0233 32.514 80.1751 32.3418 80.3632 32.2055C80.5747 32.0521 80.757 32.0026 80.9102 32.057C81.0701 32.1136 81.1639 32.2593 81.1917 32.4943C81.2203 32.7356 81.176 32.9814 81.0589 33.2319C80.9418 33.4823 80.7746 33.6863 80.5572 33.8439C80.3809 33.9717 80.1736 34.0531 79.9353 34.088L78.3841 34.3233ZM78.6277 36.3809L78.7243 35.7419L79.9586 35.4158C79.9712 35.1997 80.0351 34.9845 80.1501 34.7701C80.2658 34.5621 80.4177 34.3899 80.6057 34.2535C80.8172 34.1001 80.9996 34.0507 81.1528 34.1051C81.3126 34.1616 81.4068 34.3105 81.4353 34.5518C81.4632 34.7868 81.4185 35.0295 81.3014 35.2799C81.1851 35.5366 81.0182 35.7438 80.8008 35.9015C80.6246 36.0293 80.4169 36.1075 80.1778 36.136L78.6277 36.3809Z" fill="white"/>
</g>
<defs>
<clipPath id="clip0_1712_35133">
<rect width="108" height="108" fill="white"/>
</clipPath>
</defs>
</svg>
