<svg width="225" height="62" viewBox="0 0 225 62" fill="none" xmlns="http://www.w3.org/2000/svg">
<g clip-path="url(#clip0_880_640)">
<path fill-rule="evenodd" clip-rule="evenodd" d="M1.68274 26.3663L1.68346 48.6373L21.3112 59.7845L21.3105 37.5136L1.68274 26.3663ZM0.117522 24.77C0.117503 24.1666 0.542842 23.919 1.06755 24.217L21.9256 36.0629C22.4503 36.3609 22.8757 37.0917 22.8757 37.6951L22.8764 61.3808C22.8765 61.9843 22.4511 62.2319 21.9264 61.9339L1.06838 50.0879C0.543675 49.7899 0.118308 49.0592 0.118289 48.4558L0.117522 24.77Z" fill="black"/>
<path fill-rule="evenodd" clip-rule="evenodd" d="M23.0251 37.4177L23.0244 59.6887L42.6522 48.5414L42.6529 26.2705L23.0251 37.4177ZM21.4599 37.5992C21.46 36.9958 21.8853 36.265 22.41 35.9671L43.2681 24.1211C43.7928 23.8231 44.2181 24.0707 44.2181 24.6741L44.2173 48.3599C44.2173 48.9633 43.792 49.6941 43.2672 49.9921L22.4092 61.838C21.8845 62.136 21.4592 61.8884 21.4592 61.285L21.4599 37.5992Z" fill="black"/>
<path fill-rule="evenodd" clip-rule="evenodd" d="M2.46536 24.7311L22.0938 35.8771L41.7223 24.7311L22.0938 13.5851L2.46536 24.7311ZM0.284956 25.2706C-0.239766 24.9727 -0.239766 24.4896 0.284956 24.1916L21.1437 12.347C21.6685 12.049 22.5192 12.049 23.0439 12.347L43.9027 24.1916C44.4274 24.4896 44.4274 24.9727 43.9027 25.2706L23.0439 37.1152C22.5192 37.4132 21.6685 37.4132 21.1437 37.1152L0.284956 25.2706Z" fill="black"/>
<path d="M22.1539 9.42C24.1777 9.42 26.0321 9.27691 27.4002 9.03748C28.077 8.91905 28.6787 8.76969 29.1322 8.58208C29.355 8.4899 29.5942 8.36759 29.7926 8.19792C29.9844 8.03392 30.2539 7.7216 30.2539 7.26C30.2539 6.7984 29.9844 6.48608 29.7926 6.32208C29.5942 6.15241 29.355 6.0301 29.1322 5.93792C28.6787 5.75031 28.077 5.60095 27.4002 5.48252C26.0321 5.24309 24.1777 5.1 22.1539 5.1C20.1302 5.1 18.2758 5.24309 16.9076 5.48252C16.2308 5.60095 15.6291 5.75031 15.1757 5.93792C14.9529 6.0301 14.7137 6.15241 14.5153 6.32208C14.3235 6.48608 14.0539 6.7984 14.0539 7.26C14.0539 7.7216 14.3235 8.03392 14.5153 8.19792C14.7137 8.36759 14.9529 8.4899 15.1757 8.58208C15.6291 8.76969 16.2308 8.91905 16.9076 9.03748C18.2758 9.27691 20.1302 9.42 22.1539 9.42Z" stroke="black" stroke-width="1.8"/>
</g>
<path d="M69.152 24.072C70.5813 24.072 71.7867 24.4347 72.768 25.16C73.7707 25.864 74.432 26.7493 74.752 27.816C75.0933 28.8613 75.264 29.8747 75.264 30.856C75.264 31.4747 75.2107 32.1253 75.104 32.808C74.848 34.536 74.3147 36.0507 73.504 37.352C72.7147 38.6533 71.7227 39.656 70.528 40.36C69.3333 41.064 68.032 41.416 66.624 41.416C65.6 41.416 64.7147 41.2133 63.968 40.808C63.2427 40.4027 62.6667 39.816 62.24 39.048L61.888 39.08L60.48 48.36H54.528L58.144 24.488H64.096L63.776 26.408L64.096 26.376C64.7573 25.608 65.504 25.032 66.336 24.648C67.168 24.264 68.1067 24.072 69.152 24.072ZM66.528 29.096C65.888 29.096 65.28 29.2667 64.704 29.608C64.1493 29.928 63.68 30.3653 63.296 30.92C62.912 31.4747 62.6667 32.104 62.56 32.808C62.5387 33.0213 62.528 33.224 62.528 33.416C62.528 33.864 62.6027 34.3227 62.752 34.792C62.9227 35.24 63.2213 35.624 63.648 35.944C64.096 36.2427 64.6293 36.392 65.248 36.392C65.888 36.392 66.4853 36.232 67.04 35.912C67.616 35.5707 68.0853 35.1227 68.448 34.568C68.832 34.0133 69.0773 33.384 69.184 32.68C69.2267 32.424 69.248 32.1787 69.248 31.944C69.248 31.56 69.1733 31.144 69.024 30.696C68.8747 30.248 68.576 29.8747 68.128 29.576C67.68 29.256 67.1467 29.096 66.528 29.096ZM84.4718 41.416C82.6798 41.416 81.1331 41.0533 79.8318 40.328C78.5518 39.6027 77.6664 38.6853 77.1758 37.576C76.7064 36.4453 76.4718 35.3253 76.4718 34.216C76.4718 33.704 76.5144 33.1707 76.5998 32.616C76.8558 30.9093 77.4638 29.416 78.4238 28.136C79.4051 26.8347 80.6424 25.832 82.1358 25.128C83.6291 24.424 85.2611 24.072 87.0318 24.072C88.8451 24.072 90.3704 24.4347 91.6078 25.16C92.8664 25.864 93.7198 26.7707 94.1678 27.88C94.6158 28.968 94.8398 30.0453 94.8398 31.112C94.8398 31.6453 94.7971 32.2107 94.7118 32.808C94.6904 33.064 94.6478 33.3413 94.5838 33.64C94.5411 33.9387 94.4878 34.1947 94.4237 34.408H82.4558C82.4984 35.0053 82.6264 35.528 82.8398 35.976C83.0744 36.4027 83.3944 36.7333 83.7998 36.968C84.2264 37.1813 84.7278 37.288 85.3038 37.288C86.0078 37.288 86.6371 37.128 87.1918 36.808C87.7678 36.4667 88.2158 36.0187 88.5358 35.464L93.5598 36.456C93.1331 37.4587 92.4718 38.3333 91.5758 39.08C90.6798 39.8267 89.6131 40.4027 88.3758 40.808C87.1598 41.2133 85.8584 41.416 84.4718 41.416ZM88.9838 31.144C88.9838 31.0373 88.9838 30.9413 88.9838 30.856C88.9838 30.408 88.8984 29.992 88.7278 29.608C88.5571 29.2027 88.2691 28.872 87.8638 28.616C87.4584 28.3387 86.9784 28.2 86.4238 28.2C85.8904 28.2 85.3891 28.328 84.9198 28.584C84.4504 28.8187 84.0451 29.16 83.7038 29.608C83.3624 30.056 83.0851 30.5893 82.8718 31.208L88.9838 31.144ZM104.13 41.416C102.274 41.416 100.695 41.0747 99.3935 40.392C98.0922 39.688 97.2068 38.7813 96.7375 37.672C96.2682 36.5627 96.0335 35.464 96.0335 34.376C96.0335 33.8427 96.0762 33.2773 96.1615 32.68C96.4388 30.9093 97.0468 29.384 97.9855 28.104C98.9242 26.8027 100.13 25.8107 101.602 25.128C103.095 24.424 104.78 24.072 106.658 24.072C108.514 24.072 110.082 24.424 111.362 25.128C112.663 25.832 113.548 26.7387 114.017 27.848C114.508 28.9573 114.753 30.0773 114.753 31.208C114.753 31.72 114.711 32.2533 114.626 32.808C114.348 34.5787 113.74 36.1147 112.802 37.416C111.863 38.696 110.647 39.688 109.154 40.392C107.66 41.0747 105.986 41.416 104.13 41.416ZM104.77 36.392C105.41 36.392 106.007 36.2427 106.562 35.944C107.116 35.624 107.575 35.1867 107.938 34.632C108.322 34.056 108.578 33.4053 108.706 32.68C108.748 32.424 108.77 32.1787 108.77 31.944C108.77 31.5387 108.684 31.112 108.514 30.664C108.364 30.216 108.066 29.8427 107.618 29.544C107.191 29.2453 106.658 29.096 106.018 29.096C105.378 29.096 104.77 29.256 104.194 29.576C103.639 29.8747 103.18 30.312 102.818 30.888C102.455 31.4427 102.21 32.0827 102.082 32.808C102.06 33.0427 102.05 33.256 102.05 33.448C102.05 33.896 102.124 34.3547 102.274 34.824C102.423 35.272 102.711 35.6453 103.138 35.944C103.586 36.2427 104.13 36.392 104.77 36.392ZM128.965 24.072C130.394 24.072 131.599 24.4347 132.581 25.16C133.583 25.864 134.245 26.7493 134.565 27.816C134.906 28.8613 135.077 29.8747 135.077 30.856C135.077 31.4747 135.023 32.1253 134.917 32.808C134.661 34.536 134.127 36.0507 133.317 37.352C132.527 38.6533 131.535 39.656 130.341 40.36C129.146 41.064 127.845 41.416 126.437 41.416C125.413 41.416 124.527 41.2133 123.781 40.808C123.055 40.4027 122.479 39.816 122.053 39.048L121.701 39.08L120.293 48.36H114.34L117.957 24.488H123.909L123.589 26.408L123.909 26.376C124.57 25.608 125.317 25.032 126.149 24.648C126.981 24.264 127.919 24.072 128.965 24.072ZM126.341 29.096C125.701 29.096 125.093 29.2667 124.517 29.608C123.962 29.928 123.493 30.3653 123.109 30.92C122.725 31.4747 122.479 32.104 122.373 32.808C122.351 33.0213 122.341 33.224 122.341 33.416C122.341 33.864 122.415 34.3227 122.565 34.792C122.735 35.24 123.034 35.624 123.461 35.944C123.909 36.2427 124.442 36.392 125.061 36.392C125.701 36.392 126.298 36.232 126.853 35.912C127.429 35.5707 127.898 35.1227 128.261 34.568C128.645 34.0133 128.89 33.384 128.997 32.68C129.039 32.424 129.061 32.1787 129.061 31.944C129.061 31.56 128.986 31.144 128.837 30.696C128.687 30.248 128.389 29.8747 127.941 29.576C127.493 29.256 126.959 29.096 126.341 29.096ZM135.804 41L139.42 17.128H145.34L141.756 41H135.804ZM153.003 41.416C151.211 41.416 149.664 41.0533 148.363 40.328C147.083 39.6027 146.198 38.6853 145.707 37.576C145.238 36.4453 145.003 35.3253 145.003 34.216C145.003 33.704 145.046 33.1707 145.131 32.616C145.387 30.9093 145.995 29.416 146.955 28.136C147.936 26.8347 149.174 25.832 150.667 25.128C152.16 24.424 153.792 24.072 155.563 24.072C157.376 24.072 158.902 24.4347 160.139 25.16C161.398 25.864 162.251 26.7707 162.699 27.88C163.147 28.968 163.371 30.0453 163.371 31.112C163.371 31.6453 163.328 32.2107 163.243 32.808C163.222 33.064 163.179 33.3413 163.115 33.64C163.072 33.9387 163.019 34.1947 162.955 34.408H150.987C151.03 35.0053 151.158 35.528 151.371 35.976C151.606 36.4027 151.926 36.7333 152.331 36.968C152.758 37.1813 153.259 37.288 153.835 37.288C154.539 37.288 155.168 37.128 155.723 36.808C156.299 36.4667 156.747 36.0187 157.067 35.464L162.091 36.456C161.664 37.4587 161.003 38.3333 160.107 39.08C159.211 39.8267 158.144 40.4027 156.907 40.808C155.691 41.2133 154.39 41.416 153.003 41.416ZM157.515 31.144C157.515 31.0373 157.515 30.9413 157.515 30.856C157.515 30.408 157.43 29.992 157.259 29.608C157.088 29.2027 156.8 28.872 156.395 28.616C155.99 28.3387 155.51 28.2 154.955 28.2C154.422 28.2 153.92 28.328 153.451 28.584C152.982 28.8187 152.576 29.16 152.235 29.608C151.894 30.056 151.616 30.5893 151.403 31.208L157.515 31.144ZM175.093 41.416C174.026 41.416 173.13 41.224 172.405 40.84C171.701 40.4347 171.125 39.8373 170.677 39.048L170.357 39.08L170.069 41H164.117L167.733 17.128H173.653L172.245 26.408L172.565 26.376C173.247 25.608 174.005 25.032 174.837 24.648C175.669 24.264 176.597 24.072 177.621 24.072C179.05 24.072 180.255 24.4347 181.237 25.16C182.239 25.864 182.901 26.7493 183.221 27.816C183.562 28.8827 183.733 29.9067 183.733 30.888C183.733 31.4853 183.679 32.1253 183.573 32.808C183.317 34.536 182.794 36.0507 182.005 37.352C181.215 38.6533 180.223 39.656 179.029 40.36C177.834 41.064 176.522 41.416 175.093 41.416ZM173.717 36.392C174.357 36.392 174.954 36.232 175.509 35.912C176.063 35.592 176.533 35.1547 176.917 34.6C177.301 34.024 177.546 33.384 177.653 32.68C177.695 32.4453 177.717 32.2107 177.717 31.976C177.717 31.5707 177.642 31.144 177.493 30.696C177.343 30.248 177.045 29.8747 176.597 29.576C176.149 29.256 175.615 29.096 174.997 29.096C174.357 29.096 173.749 29.2667 173.173 29.608C172.618 29.928 172.149 30.3653 171.765 30.92C171.381 31.4747 171.135 32.104 171.029 32.808C170.986 33.0427 170.965 33.2773 170.965 33.512C170.965 33.9173 171.039 34.344 171.189 34.792C171.359 35.24 171.669 35.624 172.117 35.944C172.565 36.2427 173.098 36.392 173.717 36.392ZM193.005 41.416C191.149 41.416 189.57 41.0747 188.269 40.392C186.967 39.688 186.082 38.7813 185.613 37.672C185.143 36.5627 184.909 35.464 184.909 34.376C184.909 33.8427 184.951 33.2773 185.037 32.68C185.314 30.9093 185.922 29.384 186.861 28.104C187.799 26.8027 189.005 25.8107 190.477 25.128C191.97 24.424 193.655 24.072 195.533 24.072C197.389 24.072 198.957 24.424 200.237 25.128C201.538 25.832 202.423 26.7387 202.892 27.848C203.383 28.9573 203.628 30.0773 203.628 31.208C203.628 31.72 203.586 32.2533 203.501 32.808C203.223 34.5787 202.615 36.1147 201.677 37.416C200.738 38.696 199.522 39.688 198.029 40.392C196.535 41.0747 194.861 41.416 193.005 41.416ZM193.645 36.392C194.285 36.392 194.882 36.2427 195.437 35.944C195.991 35.624 196.45 35.1867 196.813 34.632C197.197 34.056 197.453 33.4053 197.581 32.68C197.623 32.424 197.645 32.1787 197.645 31.944C197.645 31.5387 197.559 31.112 197.389 30.664C197.239 30.216 196.941 29.8427 196.493 29.544C196.066 29.2453 195.533 29.096 194.893 29.096C194.253 29.096 193.645 29.256 193.069 29.576C192.514 29.8747 192.055 30.312 191.693 30.888C191.33 31.4427 191.085 32.0827 190.957 32.808C190.935 33.0427 190.925 33.256 190.925 33.448C190.925 33.896 190.999 34.3547 191.149 34.824C191.298 35.272 191.586 35.6453 192.013 35.944C192.461 36.2427 193.005 36.392 193.645 36.392ZM202.34 41L209.22 32.424L205.092 24.488H211.812L213.924 29.128H214.244L217.796 24.488H224.548L218.02 32.424L222.276 41H215.396L213.284 35.88H212.964L209.284 41H202.34Z" fill="black"/>
<defs>
<clipPath id="clip0_880_640">
<rect width="44" height="62" fill="white"/>
</clipPath>
</defs>
</svg>
